<?xml version="1.0" encoding="utf-8"?>
<!-- Generator: Adobe Illustrator 21.0.2, SVG Export Plug-In . SVG Version: 6.00 Build 0)  -->
<svg version="1.1" id="Слой_1" xmlns="http://www.w3.org/2000/svg" xmlns:xlink="http://www.w3.org/1999/xlink" x="0px" y="0px"
	 width="164.6px" height="32px" viewBox="0 0 164.6 32" enable-background="new 0 0 164.6 32" xml:space="preserve">
<g id="Selected_Items">
	<g>
		<g id="Selected_Items_1_">
			<path fill="#FFFFFF" d="M86.5,4.4v4l1.4,0.1C88,8.8,88.1,9,88.1,9.2c0.1,0.2,0.2,0.3,0.2,0.4c0,0.1-0.1,0.2-0.2,0.4
				c-0.1,0.1-0.4,0.2-0.6,0.2c-0.1,0-0.3,0-0.4-0.1h-0.4L86,11.3l-1.2-0.5h-10l-0.5,0.6L73.7,11h-7.2l-0.1,0.6H55.1l-1.3,0.7
				c-0.3,0.2-0.6,0.4-1,0.5c-0.3,0.1-0.6,0.1-0.7,0.1c-0.2,0-0.5,0-0.7-0.1c-0.2,0-0.3-0.1-0.3-0.2l-0.5-0.3h-5.1
				c0,1.3,0.3,2.6,0.9,3.9c0.5,1.2,1.3,2.5,2.3,3.9c1.1,1.4,2.7,2.9,4.7,4.3c0,0-0.3,0.3-0.7,0.9c-0.3,0.6-0.7,1.2-1.2,1.9
				c-0.4,0.8-1,1.7-1.7,2.7c-1.5-1-2.9-2.2-4.3-3.7c-1.2-1.2-2.4-2.7-3.6-4.6c-1.2-1.8-2.3-3.9-3.1-6.4c-0.1-0.1-0.2-0.1-0.4,0
				c-0.1,0.1-0.2,0.2-0.3,0.3L37,15.4c-0.6,0.3-1.2,0.5-1.8,0.7c-0.5,0.2-1.1,0.2-1.8,0.1c-0.7-0.1-1.4-0.4-2-0.9
				c0,0-0.3,0.2-0.7,0.6c-0.4,0.4-0.9,0.9-1.4,1.5c-0.5,0.6-1,1.3-1.5,2.1c-0.5,0.7-0.8,1.5-1,2.2c0,0-0.2,0.1-0.7,0.3
				c-0.4,0.2-0.9,0.3-1.5,0.3c-0.5,0-1.1-0.1-1.6-0.4c-0.5-0.3-0.8-0.9-0.9-1.8c0-0.1,0.2-0.5,0.6-1.2c0.3-0.6,0.7-1.3,1.1-2.1
				c0.4-0.7,0.8-1.4,1.1-2.1c0.4-0.6,0.6-0.9,0.7-0.9c-0.1,0-0.3-0.1-0.6-0.4c-0.3-0.3-0.6-0.4-1-0.3c-0.1,0-0.3,0.1-0.7,0.3
				c-0.4,0.1-1,0.3-1.7,0.6c-0.7,0.2-1.4,0.5-2.2,0.8c-0.8,0.3-1.7,0.6-2.5,0.9c-2,0.7-4.2,1.5-6.7,2.5L1.4,21L0.7,10.5
				C1.1,10.2,1.5,10,2,9.8c0.5-0.2,1-0.3,1.6-0.4c0.6-0.1,1.2-0.1,1.9,0c0,0.1,0.5,0,1.6,0c1.1-0.1,2.3-0.2,3.7-0.3l5.4-0.3
				c0.3,0.1,0.7,0.2,1,0.3c0.6,0.2,1.1,0.3,1.6,0.3c0.1,0,0.5-0.1,0.9-0.2c0.5-0.1,1.1-0.2,1.6-0.4c0.6-0.1,1.3-0.4,2.1-0.6l3.4-2.9
				l0.3,0.3H48c0,0,0.1-0.1,0.2-0.2c0.1-0.1,0.2-0.1,0.4-0.2c0.2,0,0.5-0.1,0.9-0.1l16,0.1c0.3,0.1,0.6,0.2,0.9,0.3
				c0.2,0.1,0.5,0.1,0.7,0.2C67.4,5.9,67.6,6,67.8,6h6.7c0.3,0.4,0.7,0.9,1,1.2c0.3,0.3,0.6,0.6,0.9,0.9c0.3,0.3,0.5,0.4,0.7,0.4
				h5.9l0.4-0.1c0.3-0.5,0.5-1,0.6-1.4c0.2-0.3,0.3-0.7,0.5-1.1c0.1-0.4,0.2-0.6,0.3-0.7c0.1-0.3,0.1-0.5,0.1-0.6V4.4L86.5,4.4
				L86.5,4.4z M35.5,12.8l-2,0c-0.4,0-0.7,0.1-1,0.3c-0.2,0.3-0.4,0.6-0.4,1c0,0.3,0.1,0.6,0.4,0.9c0.3,0.2,0.6,0.4,1,0.4h2
				c0.4,0,0.7-0.1,0.9-0.4c0.2-0.2,0.3-0.5,0.3-0.9c0-0.4-0.1-0.7-0.3-1C36.1,12.9,35.8,12.8,35.5,12.8z"/>
		</g>
	</g>
</g>
<g id="guides">
</g>
<g id="Flash_2_">
	<path fill="#FFFFFF" d="M117.6,11.9c0,2.2-0.8,4.2-2.4,5.8c-1.6,1.6-3.5,2.4-5.8,2.4c-2.2,0-4.2-0.8-5.8-2.4
		c-1.6-1.6-2.4-3.5-2.4-5.8c0-0.6,0.1-1.1,0.2-1.7c0.2-0.1,0.4-0.1,0.6-0.3c0.8-0.4,1.5-0.8,2.3-1.1c0.1,0,0.3-0.1,0.4-0.2
		c-0.7,1-1.1,2.1-1,3.4c0,1.6,0.6,3,1.7,4.1c1.1,1.1,2.5,1.7,4.1,1.7c1.6,0,3-0.6,4.1-1.7c1.1-1.1,1.7-2.5,1.7-4.1
		c0-1.6-0.5-2.9-1.6-4.1c0.7,0.2,1.4,0.4,2.1,0.8c0,0,0,0,0,0c0.4,0.2,0.8,0.4,1.2,0.5C117.5,10.1,117.6,11,117.6,11.9z"/>
	<path fill="#FFFFFF" d="M125.4,18.9c-0.7-1.1-1.5-2.2-2.4-3.2c-0.2,0.2-0.4,0.4-0.6,0.6c-3.8,3.8-8.4,5.7-13.8,5.7
		c-5.4,0-10-1.9-13.9-5.7l-0.1,0.1c0.7,1.1,1.6,2.1,2.5,3.1c3.8,3.8,8.4,5.7,13.9,5.7c5.4,0,10-1.9,13.8-5.7
		C125.1,19.3,125.3,19.1,125.4,18.9L125.4,18.9z"/>
	<path fill="#FFFFFF" d="M123,15.7c0.9,1,1.7,2.1,2.4,3.2c0.7-0.7,1.3-1.4,1.8-2.1c-0.6-1-1-1.6-2.4-3.2
		C124.2,14.3,123.6,15,123,15.7L123,15.7z"/>
	<polygon fill="#FF0000" points="113.7,13.5 111.4,14.6 111,17.3 109.1,15.4 106.5,15.8 107.8,13.5 106.5,11.2 109.1,11.6 111,9.7 
		111.4,12.3 	"/>
	<path fill="#FFFFFF" d="M122.4,15.1c0.2,0.2,0.4,0.4,0.6,0.6c0.6-0.7,1.2-1.4,1.8-2.2c-0.2-0.2-0.4-0.4-0.6-0.6
		c-3.8-3.8-8.4-5.7-13.8-5.7c-5.4,0-10,1.9-13.9,5.7c-0.8,0.9-2.4,1.8-3.1,2.7l0.1,0.1c0.1-0.2,1.1-0.4,1.3-0.5
		c3.8-3.8,8.4-5.7,13.9-5.7C114,9.4,118.6,11.3,122.4,15.1L122.4,15.1z"/>
</g>
<path fill="#FFFFFF" d="M132.6,19.8c0,0,0.2,2.6,2.7,4.1c0.5,0.3,1.3,0.8,1.7,1c1.9,1.2,2.9,0.9,4.1,0.8c2.3-0.2,6.9-3,7.4-5.6
	c0.5-2.6-0.8-5-2.4-5.4c-1.6-0.4-3.1,0.3-3.5,1.8c-0.5,1.5,1,2.2,1,2.2c-1.6,0.3-2.2-1.3-1.8-2.7c0.3-1.4,1.8-3.1,4.7-2.5
	c2.9,0.7,3.4,3.3,3.4,3.3c1-1.8,3.3-2.8,6-1.8s1.8,3.2,1.8,3.2c-0.1-1.6-1.4-2.3-3.3-2.7c-1.8-0.3-3.6,0.5-4.2,3.2
	c-0.5,2.7,0.8,6.2,3.8,7c3.1,0.8,7.7-0.1,9.5-3.6c1.8-3.5,1.8-9.8-2.9-13.2s-9.3,0.1-9.3,0.1s-0.4-3.8-5.4-4c-5-0.3-5.7,5.3-5.7,5.3
	c-0.5-2.7-5.2,0.3-6.6,2.7c-1,1.7-1.6,4.3-1,6.1C132.5,19.3,132.6,19.7,132.6,19.8z"/>
</svg>
