<?xml version="1.0" encoding="utf-8"?>
<!-- Generator: Adobe Illustrator 21.0.2, SVG Export Plug-In . SVG Version: 6.00 Build 0)  -->
<svg version="1.1" id="Слой_1" xmlns="http://www.w3.org/2000/svg" xmlns:xlink="http://www.w3.org/1999/xlink" x="0px" y="0px"
	 width="112.6px" height="32px" viewBox="0 0 112.6 32" enable-background="new 0 0 112.6 32" xml:space="preserve">
<g id="Selected_Items">
	<g>
		<g id="Selected_Items_2_">
			<path fill="#FFFFFF" d="M37.1,14.3c-0.1,0.1-0.2,0.1-0.2,0.2c-0.2,0.2-0.3,0.4-0.3,0.8c0,0.1,0,0.4,0.1,0.8c0,0.1,0,0.2-0.1,0.2
				c-0.1,0.1-0.4,0.1-0.8,0l-0.5,0c0,0.3-0.1,0.4-0.2,0.4h-0.9c-0.1,0-0.2,0-0.3,0.1c-0.1,0.1-0.2,0.2-0.2,0.2
				c-0.2,0.2-0.8,1.3-1.8,3.4c-0.3,0.5-0.3,0.9-0.1,1.2c0.1,0.3,0.3,0.4,0.6,0.5c0.5,0.1,1.3,0.1,2.5,0c0.9-0.1,1.6-0.3,2.1-0.7
				c0.3-0.3,1.6-2.2,3.7-5.6c0.1-0.2,0-0.7-0.5-1.5L37.1,14.3L37.1,14.3z M72.3,8.3c0.1,0,0.2,0,0.4,0c0.1,0,0.3-0.1,0.5-0.2h1.8
				l0.2,0.3c0.1,0.3,0.2,0.6,0.2,0.9c0,0.3,0,0.6-0.2,0.9c-0.1,0.2-0.2,0.3-0.3,0.3h-1.7c0,0-0.2-0.1-0.3-0.1c-0.1,0-0.2,0-0.3,0
				c-0.2,0-0.3,0-0.4,0.1L72,10.5h-1l-0.2-0.1h-1.7L69,10.2h-0.8c-0.1,0.2-0.2,0.3-0.3,0.3h-1.5c-0.1,0-0.2,0-0.3-0.1l-0.1-0.1
				l-10.8,0.3l-0.6,0.6h-0.3L54.1,11h-0.3l-0.2,0.2h-2.2l-0.3,2.3c0,0.3-0.2,0.4-0.5,0.5l0.3,0.3l0.6,0.1c0.4,0.1,0.6,0.2,0.6,0.5
				c-0.2,0.8-0.2,1.4-0.1,1.8c0.1,0.2,0.1,0.8,0,1.7c0,1,0,1.7,0,1.9c0,0.8,0.3,1.6,0.9,2.5c0.1,0.2-0.1,0.4-0.5,0.5
				c-0.5,0.2-0.9,0.3-1.4,0.3c-0.4,0-1-0.1-1.6-0.3L48.3,23c0-1.1,0-2.1,0.2-3c0.1-0.3,0.2-1,0.5-1.8c0.2-0.6,0.3-1,0.2-1.3
				c0-0.3-0.1-0.6-0.3-0.9c-0.2-0.3-0.3-0.6-0.3-0.7c-0.1-0.2,0.1-0.4,0.6-0.7c0.2-0.1,0.4-0.2,0.7-0.3C49,14.2,48,14.1,47,14.1
				c-1.9-0.1-3,0-3.3,0.1c-0.7,0.5-1.7,1.5-2.8,3.2c-0.3,0.4-1.1,1.5-2.4,3.6c-0.5,0.8-1.1,1.3-1.6,1.6c-0.4,0.2-1.1,0.3-2.1,0.4
				c-0.8,0-2.1,0.1-3.7,0.2c-1.4,0-2.3,0-2.6,0c-0.2,0-0.4-0.1-0.5-0.2c-0.1-0.1-0.1-0.4-0.1-0.8c0-1.1,0.2-1.8,0.4-2.3
				c0.1-0.2,0.3-0.7,0.7-1.3c0.4-0.7,0.6-1.1,0.8-1.2c0.1-0.1,0.3-0.3,0.8-0.7c0.4-0.5,0.6-1,0.6-1.6c0-0.7-0.3-1.1-0.9-1.3
				c-0.3,0-1,0-2.1,0.1c-1.1,0.1-1.8,0.1-2.3,0.1c-0.8,0.1-1.2,0.2-1.3,0.4c-0.2,0.3-0.5,0.5-1.1,0.7l-0.1,1.4
				c0.1,1.4,0.5,3.2,1.2,5.4c1,3.5,1.9,5.9,2.7,6.9c0.3,0.5,0.3,0.8-0.1,1c-0.3,0.1-1.2,0.4-2.7,1c-1.6,0.6-2.5,0.9-2.8,1
				c-0.3,0.1-0.4-0.4-0.4-1.4c-0.2-0.4-0.5-1-0.9-1.8c-0.6-1.6-1.2-3.4-1.6-5.4c-0.5-1.9-0.8-3.8-1-5.5l-0.1-2.1
				c-0.5-0.2-0.9-0.2-1.1,0l-1.7,1.4c-0.1,0.1-0.2,0-0.4-0.2c-0.2-0.2-0.3-0.3-0.3-0.3c-0.6,0.2-1.5,0.7-2.7,1.5
				c-1.4,1-2.1,1.7-2.3,2.2l-0.3,0.9l0.4,0.5c0.3,0.3,0.4,0.5,0.4,0.6c0,0.3-0.1,0.6-0.3,0.8c-0.2,0.2-0.4,0.3-0.7,0.3H4.3
				c-0.3,0-0.5-0.1-0.8-0.3c-0.3-0.3-0.6-0.7-0.8-1.2c-0.2-0.6-0.6-2.3-1.2-4.8c-0.6-2.7-0.9-4.3-0.9-4.9c0-0.6,0-1.1,0.1-1.3
				c0.1-0.2,0.2-0.4,0.5-0.7c0.3-0.3,0.6-0.6,1.2-1c0.6-0.4,1.1-0.6,1.4-0.6l23.6-0.5V7.5L28,7c0.4-0.3,0.7-0.5,0.9-0.6
				c0.3-0.1,0.6-0.2,1-0.2l1.4,0V4.4h-0.6c0,0.3-0.2,0.4-0.6,0.4c-0.2,0-0.4-0.1-0.5-0.2l-0.1-0.2h-1.3l-0.2,0.2h-0.4
				c-0.2-0.3-0.3-0.9-0.3-1.6c0-0.8,0.1-1.2,0.3-1.2h0.3l0.2,0.1l1.3,0l0.1-0.3c0.1-0.1,0.3-0.2,0.5-0.2c0.3,0,0.5,0.1,0.5,0.5
				l0.4,0V1.1l0.7-0.1c0.2,0,0.5,0,0.8,0.1v0.4l3-0.4c2-0.3,3.2-0.4,3.6-0.4h1.2l0.5,0.4h0.5V0.8h0.4V1h0.8v3.7l-0.8,0v0.2h-0.4V4.6
				h-1.9l0.3,0.4h0.5c0.3,0.1,0.5,0.1,0.6,0.3L41,6h1.2V5.9h0.6V6H44V5.9h0.6V6h1.3V5.9h0.5V6h1.3V5.9h0.5V6h1.3V5.9h0.5V6h1
				l2.7,1.3v0.9l0.7,0.4H66l0.2-0.1c0.1-0.1,0.2-0.2,0.3-0.2h1.4l0.3,0.3h0.7l0.3-0.2c0.3,0,0.8,0,1.5,0.1l0-0.1
				c0.1-0.1,0.2-0.2,0.3-0.2H72C72.1,8.2,72.2,8.2,72.3,8.3z"/>
		</g>
	</g>
</g>
<g id="guides">
</g>
<g id="Flash_2_">
	<path fill="#FFFFFF" d="M103,12.1c0,2.2-0.8,4.2-2.4,5.8c-1.6,1.6-3.5,2.4-5.8,2.4c-2.2,0-4.2-0.8-5.8-2.4
		c-1.6-1.6-2.4-3.5-2.4-5.8c0-0.6,0.1-1.1,0.2-1.7c0.2-0.1,0.4-0.1,0.6-0.3c0.8-0.4,1.5-0.8,2.3-1.1C90,9,90.1,9,90.3,8.9
		c-0.7,1-1.1,2.1-1,3.4c0,1.6,0.6,3,1.7,4.1c1.1,1.1,2.5,1.7,4.1,1.7c1.6,0,3-0.6,4.1-1.7c1.1-1.1,1.7-2.5,1.7-4.1
		c0-1.6-0.5-2.9-1.6-4.1c0.7,0.2,1.4,0.4,2.1,0.8c0,0,0,0,0,0c0.4,0.2,0.8,0.4,1.2,0.5C102.9,10.4,103,11.2,103,12.1z"/>
	<path fill="#FFFFFF" d="M110.8,19.2c-0.7-1.1-1.5-2.2-2.4-3.2c-0.2,0.2-0.4,0.4-0.6,0.6c-3.8,3.8-8.4,5.7-13.8,5.7
		c-5.4,0-10-1.9-13.9-5.7l-0.1,0.1c0.7,1.1,1.6,2.1,2.5,3.1c3.8,3.8,8.4,5.7,13.9,5.7s10-1.9,13.8-5.7
		C110.5,19.6,110.7,19.4,110.8,19.2L110.8,19.2z"/>
	<path fill="#FFFFFF" d="M108.4,16c0.9,1,1.7,2.1,2.4,3.2c0.7-0.7,1.3-1.4,1.8-2.1c-0.6-1-1-1.6-2.4-3.2
		C109.7,14.6,109.1,15.3,108.4,16L108.4,16z"/>
	<polygon fill="#FF0000" points="99.1,13.8 96.8,14.9 96.4,17.5 94.6,15.7 92,16.1 93.2,13.8 92,11.4 94.6,11.9 96.4,10 96.8,12.6 	
		"/>
	<path fill="#FFFFFF" d="M107.8,15.4c0.2,0.2,0.4,0.4,0.6,0.6c0.6-0.7,1.2-1.4,1.8-2.2c-0.2-0.2-0.4-0.4-0.6-0.6
		c-3.8-3.8-8.4-5.7-13.8-5.7c-5.4,0-10,1.9-13.9,5.7c-0.8,0.9-1.6,1.8-2.3,2.7l0.1,0.1c0.1-0.2,0.3-0.4,0.5-0.5
		C84,11.6,88.6,9.7,94,9.7C99.4,9.7,104,11.6,107.8,15.4L107.8,15.4z"/>
</g>
</svg>
