<?xml version="1.0" encoding="utf-8"?>
<!-- Generator: Adobe Illustrator 21.0.2, SVG Export Plug-In . SVG Version: 6.00 Build 0)  -->
<svg version="1.1" xmlns="http://www.w3.org/2000/svg" xmlns:xlink="http://www.w3.org/1999/xlink" x="0px" y="0px" width="147.6px"
	 height="32px" viewBox="0 0 147.6 32" enable-background="new 0 0 147.6 32" xml:space="preserve">
<g id="Слой_4">
</g>
<g id="Слой_1">
	<g id="Слой_1_1_">
		<g id="Selected_Items">
			<g>
				<g id="Selected_Items_3_">
					<path fill="#FFFFFF" d="M109.5,11.8c0.1,0.1,0.1,0.3,0.2,0.4c0.1,0.2,0.1,0.3,0.1,0.5c0,0.3-0.2,0.6-0.5,1.1l-0.1,0.2h-41v0.7
						h3v2.6l0.4,0.4c0.2,0.2,0.3,0.5,0.3,0.9c0,0.2,0,0.3-0.1,0.3s-0.1,0-0.1,0.1v0.1c0,0.3-0.1,0.5-0.2,0.5s-0.2,0-0.3,0
						c-0.2,0-0.8,0-1.8,0s-2.5,0-4.6,0s-5.1,0-9,0c-0.1,0.1-0.2,0.2-0.2,0.4c0.1,0,0.1,0,0.2,0.1l0.3,0.3L55.8,21h-1.5l-0.2-0.2
						c-0.1-0.1-0.2-0.5-0.5-1.2c-0.3-0.6-0.3-1.1-0.1-1.5c0-0.3,0.2-0.5,0.5-0.5h0.1c0.6,0,1,0.1,1.2,0.3c0.4,0,0.8-0.1,1.3-0.3
						l-7.5-0.1c-0.1,0-0.4,0.1-1,0.3c-0.5,0.1-1.1,0.3-1.8,0.5c-0.6,0.2-1.3,0.3-1.9,0.5c-0.5,0.1-0.8,0.2-0.9,0.3v2.7l-8.8,0.9
						v-2.8c-0.5,0-0.7,0.1-0.8,0.2s-0.3,0.3-0.6,0.5c-0.3,0.3-0.7,0.5-1.2,0.6c-0.5,0.2-1.1,0.2-1.8,0.2c-0.7-0.1-1.4-0.3-2.3-0.8
						c-0.1,0-0.1,0-0.2,0.1c-0.1,0-0.2,0-0.3,0c0,0.3,0,0.7,0,1.2c-0.1,0.5-0.1,1-0.3,1.5c-0.1,0.5-0.2,1-0.5,1.5
						c-0.2,0.4-0.3,0.7-0.5,0.8c-0.4,0.2-1,0.3-1.8,0.2c-0.8-0.1-1.7-0.2-2.7-0.3c-1-0.1-1.8-0.3-2.6-0.4c-0.8-0.2-1.3-0.4-1.5-0.5
						s-0.5-0.5-1.1-1.2c-0.4-0.3-0.8-0.7-1.2-1S14.7,22,14.6,22H9.7c-0.2,1.4-0.3,2.2-0.4,2.5c0,0.2-0.1,0.3-0.2,0.3
						C9,24.9,8.8,25,8.6,25S8,24.9,7.3,24.7c-0.5,0-1,0-1.5,0s-0.9,0-1,0c-0.2,0-0.5,0-0.8,0.1C3.6,24.9,3.3,25,2.8,25
						c-0.4,0.1-0.8,0.2-1.2,0.3c-0.5,0.1-0.8,0.1-0.9,0.2H0.4c-0.1,0-0.1,0-0.1-0.1c-0.1-0.1-0.1-0.3-0.1-0.7c0-0.3,0-0.8,0-1.5
						s0-1.7,0-3c0.1-1.2,0.2-2.3,0.2-3.4c0-1.2,0-2,0-2.5c0-0.2,0.3-0.4,0.8-0.7c0.5-0.2,1.6-0.3,3.4-0.2h1l0.1-0.1l0.1-0.1
						c0.1,0,0.1,0,0.2-0.1c0,0,0.1-0.1,0.3-0.2h9.2c0.2,0,0.4,0.1,0.6,0.3c0.5,0.3,0.8,0.7,1,1h10.4c0.1-0.2,0.2-0.5,0.3-1
						c0.1-0.4,0.2-0.7,0.2-1V12h0.1c0.3-0.1,0.8-0.2,1.5-0.3c0.7,0,1.1-0.1,1.2-0.2c0.1,0,0.3,0,0.4-0.1c0-0.1,0.1-0.1,0.2-0.2h3.2
						v-1h-1.2c-0.1,0-0.5,0.1-1,0.2c-0.5,0.1-1.1,0.2-1.9,0.2c-0.7,0.1-1.4,0.1-2.2,0.2c-0.7,0-1.4,0-1.9-0.1l-0.1-0.2v-0.1
						c-0.1-0.7-0.1-1.3-0.1-1.7s0-0.8,0-1s0-0.3,0.1-0.4l0.1-0.1h0.2l0.8-0.1C28,7.1,28.6,7,29.3,7c0.9,0.1,1.6,0,2.4,0
						c0.7,0,1.2,0,1.5,0.1c0.5,0,1,0,1.5,0c0.6,0,1.2,0,1.9,0c0.6,0,1.1,0,1.7,0C38.7,7,39,7,39.3,7V6.4c-0.1,0-0.1-0.1-0.1-0.2V5.6
						l3.2-0.2l0,0l0.4,1.1c0,0.1,0,0.1-0.1,0.1c-0.1,0.1-0.1,0.2-0.3,0.2V7H48c0.4-0.1,1.1-0.2,1.9-0.3c0.8-0.1,1.7-0.2,2.5-0.3
						c0.8-0.1,1.6-0.1,2.4-0.2c0.7,0,1.1,0,1.3,0.2l0.2,0.1l0.1,4.4H56c-4.7,0-7.2-0.2-7.5-0.5v0.2c-0.2-0.1-0.5-0.2-1.1-0.2
						c-0.5-0.1-1.2,0-1.9,0v0.9h63.7v0.2C109.3,11.5,109.4,11.7,109.5,11.8z M32,18.2h-2.2c-0.6,0-0.9,0.3-0.9,0.8
						c0,0.6,0.3,1,0.9,1H32c0.6,0,0.9-0.3,0.9-1C32.9,18.5,32.6,18.2,32,18.2z M19.4,22c0.4,0.7,0.9,1.2,1.7,1.2
						c0.6,0.2,1.4,0.1,2.3-0.3c0.4-0.2,0.9-0.6,1.4-1.2c0.2-0.3,0.3-0.7,0.4-1.2s0-0.9-0.2-1.2c-0.1-0.5-0.6-0.8-1.4-1
						c-1.1-0.2-1.9-0.2-2.5,0.1c-0.4,0.2-0.7,0.4-0.9,0.6c-0.2,0.2-0.4,0.4-0.6,0.8C19.2,20.5,19.1,21.2,19.4,22z"/>
				</g>
			</g>
		</g>
		<g id="guides">
		</g>
	</g>
	<g id="Flash_2_">
		<path fill="#FFFFFF" d="M138,11.4c0,2.2-0.8,4.2-2.4,5.8c-1.6,1.6-3.5,2.4-5.8,2.4s-4.2-0.8-5.8-2.4c-1.6-1.6-2.4-3.5-2.4-5.8
			c0-0.6,0.1-1.1,0.2-1.7c0.2-0.1,0.4-0.1,0.6-0.3c0.8-0.4,1.5-0.8,2.3-1.1c0.1,0,0.3-0.1,0.4-0.2c-0.7,1-1.1,2.1-1,3.4
			c0,1.6,0.6,3,1.7,4.1c1.1,1.1,2.5,1.7,4.1,1.7c1.6,0,3-0.6,4.1-1.7c1.1-1.1,1.7-2.5,1.7-4.1c0-1.6-0.5-2.9-1.6-4.1
			c0.7,0.2,1.4,0.4,2.1,0.8c0,0,0,0,0,0c0.4,0.2,0.8,0.4,1.2,0.5C137.9,9.6,138,10.5,138,11.4z"/>
		<path fill="#FFFFFF" d="M145.8,18.4c-0.7-1.1-1.5-2.2-2.4-3.2c-0.2,0.2-0.4,0.4-0.6,0.6c-3.8,3.8-8.4,5.7-13.8,5.7
			c-5.4,0-10-1.9-13.9-5.7l-0.1,0.1c0.7,1.1,1.6,2.1,2.5,3.1c3.8,3.8,8.4,5.7,13.9,5.7c5.4,0,10-1.9,13.8-5.7
			C145.5,18.8,145.7,18.6,145.8,18.4L145.8,18.4z"/>
		<path fill="#FFFFFF" d="M143.4,15.2c0.9,1,1.7,2.1,2.4,3.2c0.7-0.7,1.3-1.4,1.8-2.1c-0.6-1-1-1.6-2.4-3.2
			C144.6,13.8,144,14.5,143.4,15.2L143.4,15.2z"/>
		<polygon fill="#FF0000" points="134.1,13 131.8,14.2 131.4,16.8 129.5,14.9 126.9,15.3 128.2,13 126.9,10.7 129.5,11.1 131.4,9.2 
			131.8,11.8 		"/>
		<path fill="#FFFFFF" d="M142.8,14.6c0.2,0.2,0.4,0.4,0.6,0.6c0.6-0.7,1.2-1.4,1.8-2.2c-0.2-0.2-0.4-0.4-0.6-0.6
			c-3.8-3.8-8.4-5.7-13.8-5.7c-5.4,0-10,1.9-13.9,5.7c-0.8,0.9-1.6,1.8-2.3,2.7l0.1,0.1c0.1-0.2,0.3-0.4,0.5-0.5
			c3.8-3.8,8.4-5.7,13.9-5.7C134.4,8.9,139,10.8,142.8,14.6L142.8,14.6z"/>
	</g>
</g>
</svg>
