<?xml version="1.0" encoding="utf-8"?>
<!-- Generator: Adobe Illustrator 21.0.2, SVG Export Plug-In . SVG Version: 6.00 Build 0)  -->
<svg version="1.1" xmlns="http://www.w3.org/2000/svg" xmlns:xlink="http://www.w3.org/1999/xlink" x="0px" y="0px" width="142.9px"
	 height="31.9px" viewBox="0 0 142.9 31.9" enable-background="new 0 0 142.9 31.9" xml:space="preserve">
<g id="Слой_4">
</g>
<g id="Слой_1">
	<g id="Слой_1_1_">
		<g id="Selected_Items">
			<g>
				<g id="Selected_Items_3_">
					<path fill="#FFFFFF" d="M109.5,11.7c0.1,0.1,0.1,0.3,0.2,0.4c0.1,0.2,0.1,0.3,0.1,0.5c0,0.3-0.2,0.6-0.5,1.1l-0.1,0.2h-41v0.7
						h3v2.6l0.4,0.4c0.2,0.2,0.3,0.5,0.3,0.9c0,0.2,0,0.3-0.1,0.3s-0.1,0-0.1,0.1V19c0,0.3-0.1,0.5-0.2,0.5s-0.2,0-0.3,0
						c-0.2,0-0.8,0-1.8,0s-2.5,0-4.6,0s-5.1,0-9,0c-0.1,0.1-0.2,0.2-0.2,0.4c0.1,0,0.1,0,0.2,0.1l0.3,0.3l-0.3,0.6h-1.5l-0.2-0.2
						c-0.1-0.1-0.2-0.5-0.5-1.2c-0.3-0.6-0.3-1.1-0.1-1.5c0-0.3,0.2-0.5,0.5-0.5h0.1c0.6,0,1,0.1,1.2,0.3c0.4,0,0.8-0.1,1.3-0.3
						l-7.5-0.1c-0.1,0-0.4,0.1-1,0.3c-0.5,0.1-1.1,0.3-1.8,0.5c-0.6,0.2-1.3,0.3-1.9,0.5c-0.5,0.1-0.8,0.2-0.9,0.3v2.7l-8.8,0.9
						v-2.8c-0.5,0-0.7,0.1-0.8,0.2s-0.3,0.3-0.6,0.5c-0.3,0.3-0.7,0.5-1.2,0.6c-0.5,0.2-1.1,0.2-1.8,0.2c-0.7-0.1-1.4-0.3-2.3-0.8
						c-0.1,0-0.1,0-0.2,0.1c-0.1,0-0.2,0-0.3,0c0,0.3,0,0.7,0,1.2c-0.1,0.5-0.1,1-0.3,1.5c-0.1,0.5-0.2,1-0.5,1.5
						c-0.2,0.4-0.3,0.7-0.5,0.8c-0.4,0.2-1,0.3-1.8,0.2c-0.8-0.1-1.7-0.2-2.7-0.3c-1-0.1-1.8-0.3-2.6-0.4c-0.8-0.2-1.3-0.4-1.5-0.5
						s-0.5-0.5-1.1-1.2c-0.4-0.3-0.8-0.7-1.2-1s-0.6-0.5-0.7-0.5H9.7c-0.2,1.4-0.3,2.2-0.4,2.5c0,0.2-0.1,0.3-0.2,0.3
						c-0.1,0.1-0.3,0.2-0.5,0.2S8,24.8,7.3,24.6c-0.5,0-1,0-1.5,0s-0.9,0-1,0c-0.2,0-0.5,0-0.8,0.1c-0.4,0.1-0.7,0.2-1.2,0.2
						C2.4,25,2,25.1,1.6,25.2c-0.5,0.1-0.8,0.1-0.9,0.2H0.4c-0.1,0-0.1,0-0.1-0.1c-0.1-0.1-0.1-0.3-0.1-0.7c0-0.3,0-0.8,0-1.5
						s0-1.7,0-3c0.1-1.2,0.2-2.3,0.2-3.4c0-1.2,0-2,0-2.5c0-0.2,0.3-0.4,0.8-0.7c0.5-0.2,1.6-0.3,3.4-0.2h1l0.1-0.1l0.1-0.1
						c0.1,0,0.1,0,0.2-0.1c0,0,0.1-0.1,0.3-0.2h9.2c0.2,0,0.4,0.1,0.6,0.3c0.5,0.3,0.8,0.7,1,1h10.4c0.1-0.2,0.2-0.5,0.3-1
						c0.1-0.4,0.2-0.7,0.2-1v-0.2h0.1c0.3-0.1,0.8-0.2,1.5-0.3c0.7,0,1.1-0.1,1.2-0.2c0.1,0,0.3,0,0.4-0.1c0-0.1,0.1-0.1,0.2-0.2
						h3.2v-1h-1.2c-0.1,0-0.5,0.1-1,0.2c-0.5,0.1-1.1,0.2-1.9,0.2c-0.7,0.1-1.4,0.1-2.2,0.2c-0.7,0-1.4,0-1.9-0.1l-0.1-0.2v-0.1
						c-0.1-0.7-0.1-1.3-0.1-1.7s0-0.8,0-1s0-0.3,0.1-0.4l0.1-0.1h0.2L27.4,7c0.6,0,1.2-0.1,1.9-0.1c0.9,0.1,1.6,0,2.4,0
						c0.7,0,1.2,0,1.5,0.1c0.5,0,1,0,1.5,0c0.6,0,1.2,0,1.9,0c0.6,0,1.1,0,1.7,0c0.4-0.1,0.7-0.1,1-0.1V6.3c-0.1,0-0.1-0.1-0.1-0.2
						V5.5l3.2-0.2l0,0l0.4,1.1c0,0.1,0,0.1-0.1,0.1c-0.1,0.1-0.1,0.2-0.3,0.2v0.2H48c0.4-0.1,1.1-0.2,1.9-0.3
						c0.8-0.1,1.7-0.2,2.5-0.3c0.8-0.1,1.6-0.1,2.4-0.2c0.7,0,1.1,0,1.3,0.2l0.2,0.1l0.1,4.4H56c-4.7,0-7.2-0.2-7.5-0.5v0.2
						c-0.2-0.1-0.5-0.2-1.1-0.2c-0.5-0.1-1.2,0-1.9,0v0.9h63.7v0.2C109.3,11.4,109.4,11.6,109.5,11.7z M32,18.1h-2.2
						c-0.6,0-0.9,0.3-0.9,0.8c0,0.6,0.3,1,0.9,1H32c0.6,0,0.9-0.3,0.9-1C32.9,18.4,32.6,18.1,32,18.1z M19.4,21.9
						c0.4,0.7,0.9,1.2,1.7,1.2c0.6,0.2,1.4,0.1,2.3-0.3c0.4-0.2,0.9-0.6,1.4-1.2c0.2-0.3,0.3-0.7,0.4-1.2s0-0.9-0.2-1.2
						c-0.1-0.5-0.6-0.8-1.4-1c-1.1-0.2-1.9-0.2-2.5,0.1c-0.4,0.2-0.7,0.4-0.9,0.6c-0.2,0.2-0.4,0.4-0.6,0.8
						C19.2,20.4,19.1,21.1,19.4,21.9z"/>
				</g>
			</g>
		</g>
		<g id="guides">
		</g>
	</g>
	<g id="Noscope">
		<path fill="#FFFFFF" d="M128.6,3.7c-6.6,0-12,5.4-12,12c0,6.6,5.4,12,12,12c6.7,0,12-5.4,12-12C140.7,9.1,135.3,3.7,128.6,3.7z
			 M128.7,26.2c-5.9,0-10.7-4.8-10.7-10.7s4.8-10.7,10.7-10.7c5.9,0,10.7,4.8,10.7,10.7S134.6,26.2,128.7,26.2z"/>
		<path fill="#FFFFFF" d="M129.5,1.2v10.7c-0.3-0.1-0.6-0.1-1-0.1c-0.4,0-0.7,0-1,0.1V1.2H129.5z"/>
		<path fill="#FFFFFF" d="M128.5,19.5c0.3,0,0.7,0,1-0.1V30h-2V19.4C127.8,19.5,128.2,19.5,128.5,19.5z"/>
		<path fill="#FFFFFF" d="M124.8,14.6c-0.1,0.3-0.2,0.7-0.2,1.1c0,0.3,0,0.6,0.1,0.9h-10.6v-2H124.8z"/>
		<path fill="#FFFFFF" d="M142.9,14.6v2h-10.6c0.1-0.3,0.1-0.6,0.1-0.9c0-0.4,0-0.7-0.1-1.1H142.9z"/>
		<path fill="#FF0000" d="M114.7,29.4L114.7,29.4c-0.7-0.7-0.7-1.8,0-2.5l25.2-25.2c0.7-0.7,1.8-0.7,2.5,0l0,0
			c0.7,0.7,0.7,1.8,0,2.5l-25.2,25.2C116.5,30.1,115.4,30.1,114.7,29.4z"/>
	</g>
</g>
</svg>
