<?xml version="1.0" encoding="utf-8"?>
<!-- Generator: Adobe Illustrator 21.0.2, SVG Export Plug-In . SVG Version: 6.00 Build 0)  -->
<svg version="1.1" xmlns="http://www.w3.org/2000/svg" xmlns:xlink="http://www.w3.org/1999/xlink" x="0px" y="0px" width="145.4px"
	 height="32px" viewBox="0 0 145.4 32" enable-background="new 0 0 145.4 32" xml:space="preserve">
<g id="Слой_4">
</g>
<g id="Слой_1">
	<g id="Слой_1_1_">
		<g id="Selected_Items">
			<g>
				<g id="Selected_Items_3_">
					<path fill="#FFFFFF" d="M109.5,11.8c0.1,0.1,0.1,0.3,0.2,0.4c0.1,0.2,0.1,0.3,0.1,0.5c0,0.3-0.2,0.6-0.5,1.1l-0.1,0.2h-41v0.7
						h3v2.6l0.4,0.4c0.2,0.2,0.3,0.5,0.3,0.9c0,0.2,0,0.3-0.1,0.3s-0.1,0-0.1,0.1v0.1c0,0.3-0.1,0.5-0.2,0.5s-0.2,0-0.3,0
						c-0.2,0-0.8,0-1.8,0s-2.5,0-4.6,0s-5.1,0-9,0c-0.1,0.1-0.2,0.2-0.2,0.4c0.1,0,0.1,0,0.2,0.1l0.3,0.3L55.8,21h-1.5l-0.2-0.2
						c-0.1-0.1-0.2-0.5-0.5-1.2c-0.3-0.6-0.3-1.1-0.1-1.5c0-0.3,0.2-0.5,0.5-0.5h0.1c0.6,0,1,0.1,1.2,0.3c0.4,0,0.8-0.1,1.3-0.3
						l-7.5-0.1c-0.1,0-0.4,0.1-1,0.3c-0.5,0.1-1.1,0.3-1.8,0.5c-0.6,0.2-1.3,0.3-1.9,0.5c-0.5,0.1-0.8,0.2-0.9,0.3v2.7l-8.8,0.9
						v-2.8c-0.5,0-0.7,0.1-0.8,0.2s-0.3,0.3-0.6,0.5c-0.3,0.3-0.7,0.5-1.2,0.6c-0.5,0.2-1.1,0.2-1.8,0.2c-0.7-0.1-1.4-0.3-2.3-0.8
						c-0.1,0-0.1,0-0.2,0.1c-0.1,0-0.2,0-0.3,0c0,0.3,0,0.7,0,1.2c-0.1,0.5-0.1,1-0.3,1.5c-0.1,0.5-0.2,1-0.5,1.5
						c-0.2,0.4-0.3,0.7-0.5,0.8c-0.4,0.2-1,0.3-1.8,0.2c-0.8-0.1-1.7-0.2-2.7-0.3c-1-0.1-1.8-0.3-2.6-0.4c-0.8-0.2-1.3-0.4-1.5-0.5
						s-0.5-0.5-1.1-1.2c-0.4-0.3-0.8-0.7-1.2-1S14.7,22,14.6,22H9.7c-0.2,1.4-0.3,2.2-0.4,2.5c0,0.2-0.1,0.3-0.2,0.3
						C9,24.9,8.8,25,8.6,25S8,24.9,7.3,24.7c-0.5,0-1,0-1.5,0s-0.9,0-1,0c-0.2,0-0.5,0-0.8,0.1C3.6,24.9,3.3,25,2.8,25
						c-0.4,0.1-0.8,0.2-1.2,0.3c-0.5,0.1-0.8,0.1-0.9,0.2H0.4c-0.1,0-0.1,0-0.1-0.1c-0.1-0.1-0.1-0.3-0.1-0.7c0-0.3,0-0.8,0-1.5
						s0-1.7,0-3c0.1-1.2,0.2-2.3,0.2-3.4c0-1.2,0-2,0-2.5c0-0.2,0.3-0.4,0.8-0.7c0.5-0.2,1.6-0.3,3.4-0.2h1l0.1-0.1l0.1-0.1
						c0.1,0,0.1,0,0.2-0.1c0,0,0.1-0.1,0.3-0.2h9.2c0.2,0,0.4,0.1,0.6,0.3c0.5,0.3,0.8,0.7,1,1h10.4c0.1-0.2,0.2-0.5,0.3-1
						c0.1-0.4,0.2-0.7,0.2-1V12h0.1c0.3-0.1,0.8-0.2,1.5-0.3c0.7,0,1.1-0.1,1.2-0.2c0.1,0,0.3,0,0.4-0.1c0-0.1,0.1-0.1,0.2-0.2h3.2
						v-1h-1.2c-0.1,0-0.5,0.1-1,0.2c-0.5,0.1-1.1,0.2-1.9,0.2c-0.7,0.1-1.4,0.1-2.2,0.2c-0.7,0-1.4,0-1.9-0.1l-0.1-0.2v-0.1
						c-0.1-0.7-0.1-1.3-0.1-1.7s0-0.8,0-1s0-0.3,0.1-0.4l0.1-0.1h0.2l0.8-0.1C28,7.1,28.6,7,29.3,7c0.9,0.1,1.6,0,2.4,0
						c0.7,0,1.2,0,1.5,0.1c0.5,0,1,0,1.5,0c0.6,0,1.2,0,1.9,0c0.6,0,1.1,0,1.7,0C38.7,7,39,7,39.3,7V6.4c-0.1,0-0.1-0.1-0.1-0.2V5.6
						l3.2-0.2l0,0l0.4,1.1c0,0.1,0,0.1-0.1,0.1c-0.1,0.1-0.1,0.2-0.3,0.2V7H48c0.4-0.1,1.1-0.2,1.9-0.3c0.8-0.1,1.7-0.2,2.5-0.3
						c0.8-0.1,1.6-0.1,2.4-0.2c0.7,0,1.1,0,1.3,0.2l0.2,0.1l0.1,4.4H56c-4.7,0-7.2-0.2-7.5-0.5v0.2c-0.2-0.1-0.5-0.2-1.1-0.2
						c-0.5-0.1-1.2,0-1.9,0v0.9h63.7v0.2C109.3,11.5,109.4,11.7,109.5,11.8z M32,18.2h-2.2c-0.6,0-0.9,0.3-0.9,0.8
						c0,0.6,0.3,1,0.9,1H32c0.6,0,0.9-0.3,0.9-1C32.9,18.5,32.6,18.2,32,18.2z M19.4,22c0.4,0.7,0.9,1.2,1.7,1.2
						c0.6,0.2,1.4,0.1,2.3-0.3c0.4-0.2,0.9-0.6,1.4-1.2c0.2-0.3,0.3-0.7,0.4-1.2s0-0.9-0.2-1.2c-0.1-0.5-0.6-0.8-1.4-1
						c-1.1-0.2-1.9-0.2-2.5,0.1c-0.4,0.2-0.7,0.4-0.9,0.6c-0.2,0.2-0.4,0.4-0.6,0.8C19.2,20.5,19.1,21.2,19.4,22z"/>
				</g>
			</g>
		</g>
		<g id="guides">
		</g>
	</g>
	<g id="Smoke_2_">
		<path fill="#FFFFFF" d="M113.5,19.3c0,0,0.2,2.6,2.7,4.1c0.5,0.3,1.3,0.8,1.7,1c1.9,1.2,2.9,0.9,4.1,0.8c2.3-0.2,6.9-3,7.4-5.6
			c0.5-2.6-0.8-5-2.4-5.4c-1.6-0.4-3.1,0.3-3.5,1.8c-0.5,1.5,1,2.2,1,2.2c-1.6,0.3-2.2-1.3-1.8-2.7c0.3-1.4,1.8-3.1,4.7-2.5
			c2.9,0.7,3.4,3.3,3.4,3.3c1-1.8,3.3-2.8,6-1.8s1.8,3.2,1.8,3.2c-0.1-1.6-1.4-2.3-3.3-2.7c-1.8-0.3-3.6,0.5-4.2,3.2
			c-0.5,2.7,0.8,6.2,3.8,7c3.1,0.8,7.7-0.1,9.5-3.6c1.8-3.5,1.8-9.8-2.9-13.2s-9.3,0.1-9.3,0.1s-0.4-3.8-5.4-4
			c-5-0.3-5.7,5.3-5.7,5.3c-0.5-2.7-5.2,0.3-6.6,2.7c-1,1.7-1.6,4.3-1,6.1C113.4,18.8,113.5,19.2,113.5,19.3z"/>
	</g>
</g>
</svg>
