<?xml version="1.0" encoding="utf-8"?>
<!-- Generator: Adobe Illustrator 21.0.2, SVG Export Plug-In . SVG Version: 6.00 Build 0)  -->
<svg version="1.1" id="Слой_1" xmlns="http://www.w3.org/2000/svg" xmlns:xlink="http://www.w3.org/1999/xlink" x="0px" y="0px"
	 width="125.2px" height="32px" viewBox="0 0 125.2 32" enable-background="new 0 0 125.2 32" xml:space="preserve">
<g id="Selected_Items">
	<g>
		<g id="Selected_Items_4_">
			<path fill="#FFFFFF" d="M81.8,2.1c0.3,0,0.6,0,1,0c0,0,0-0.1,0-0.1c0.1,0,0.1,0,0.1,0c0.2,0,0.4,0,0.6,0c0,0,0.1,0,0.1,0l0,0
				c0,0,0,0,0,0s0.1,0,0.1,0c0,0,0.1,0,0.1,0c0,0,0.1,0.1,0.1,0.1c0,0,0,0.1,0,0.1s0,0.1,0,0.1c0,0,0,0.1,0,0.1c0,0,0,0.1,0,0.1v0
				c0,0,0,0.1,0,0.1s0,0.1,0,0.1c0,0,0,0.1,0,0.1c0,0,0,0.1,0,0.1c0,0,0,0.1,0,0.1c0,0,0,0.1,0,0.1c0,0,0,0.1,0,0.1v0
				c0,0,0,0.1,0,0.1c0,0,0,0.1,0,0.1c0,0,0,0.1,0,0.1c0,0,0,0.1,0,0.1s0,0.1,0,0.1c0,0,0,0.1,0,0.1v0.1c0,0,0,0,0,0c0,0,0,0.1,0,0.1
				c0,0,0,0.1,0,0.1c0,0,0,0.1,0,0.1s0,0.1,0,0.1c0,0-0.1,0-0.1,0c0,0,0,0.1,0,0.1c0,0,0,0,0,0v0c0,0,0,0.1,0,0.1c0,0,0,0.1,0,0.1
				s0,0.1,0,0.1s0,0.1,0,0.1c0,0,0,0.1,0,0.1v0c0,0,0,0.1,0,0.1s0,0.1,0,0.1c0,0,0,0.1,0,0.1c0,0,0,0.1,0,0.1s0,0.1,0,0.1
				s0,0.1,0,0.1l0,0c0,0,0,0,0,0c0,0,0.1,0.1,0.1,0.1c0,0,0,0.1,0,0.1s0,0.1,0,0.1s0,0.1,0,0.1c0,0,0,0.1,0,0.1c0,0,0,0.1,0,0.1
				s0,0.1,0,0.1v0c0,0,0,0.1,0,0.1c0,0,0,0.1,0,0.1c0,0,0,0.1,0,0.1c0,0,0,0.1,0,0.1c0,0,0,0.1,0,0.1c0,0,0,0.1,0,0.1
				c0,0,0,0.1,0,0.1v0c0,0,0,0.1,0,0.1c0,0,0,0.1,0,0.1c0,0,0,0.1,0,0.1c0,0,0,0.1,0,0.1c0,0,0,0.1,0,0.1c0,0,0,0.1,0,0.1
				c0,0,0,0.1,0,0.1v0c0,0,0,0.1,0,0.1c0,0,0,0.1,0,0.1s0,0.1,0,0.1c0,0,0,0.1,0,0.1s0,0.1,0,0.1c0,0,0,0.1,0,0.1c0,0,0,0.1,0,0.1v0
				c0,0,0,0.1,0,0.1c0,0,0,0.1,0,0.1s0,0.1,0,0.1s0,0.1,0,0.1s0,0.1,0,0.1c0,0,0,0.1,0,0.1c0,0,0,0.1,0,0.1v0c1.6,0,3.1,0,4.7,0
				c0.1,0,0.1,0.1,0.2,0.1l0,0c0,0,0.1,0,0.1,0v0c0.1,0,0.1,0.1,0.2,0.1c0,0,0,0,0,0c0,0,0.1,0.1,0.1,0.1c0,0,0,0.1,0,0.1
				s0,0.1,0,0.1s0,0.1,0,0.1c0,0,0,0.1,0,0.1s0,0.1,0,0.1s0,0.1,0,0.1v0c0,0,0,0.1,0,0.1c0,0,0,0.1,0,0.1s0,0.1,0,0.1
				c0,0,0,0.1,0,0.1c0,0,0,0.1,0,0.1s0,0.1,0,0.1c0,0,0,0.1,0,0.1v0c0,0,0,0.1,0,0.1s0,0.1,0,0.1c0,0,0,0.1,0,0.1c0,0,0,0.1,0,0.1
				c0,0,0,0.1,0,0.1s0,0.1,0,0.1c0,0,0,0.1,0,0.1v0c0,0,0,0.1,0,0.1c0,0,0,0.1,0,0.1s0,0.1,0,0.1c0,0,0,0.1,0,0.1c0,0,0,0.1,0,0.1
				c0,0,0,0.1,0,0.1c0,0,0,0.1,0,0.1v0c0,0,0,0.1,0,0.1s0,0.1,0,0.1c0,0,0,0.1,0,0.1c0,0,0,0.1,0,0.1s0,0.1,0,0.1c0,0,0,0.1,0,0.1
				c0,0,0,0.1,0,0.1l0,0c0,0,0,0.1,0,0.1c0,0,0,0.1,0,0.1s0,0.1,0,0.1c0,0,0,0.1,0,0.1c0,0-0.1,0-0.1,0c0,0,0,0,0,0
				c-0.1,0-0.1,0-0.1,0c-1.4,0-2.7,0-4.1,0c-0.1,0-0.1,0-0.1,0c-0.1,0-0.1,0-0.2,0c0,0-0.1,0-0.1,0c0,0,0,0,0.1,0v0
				c0.1,0,0.1,0.1,0.2,0.1c0,0,0.1,0,0.1,0c0,0,0,0.1,0,0.1c0,0,0,0.1,0,0.1c0,0,0,0.1,0,0.1c0,0,0,0.1,0,0.1c0,0,0,0.1,0,0.1
				c0,0,0,0.1,0,0.1c0,0,0,0.1,0,0.1v0c0,0,0,0.1,0,0.1c0,0,0,0.1,0,0.1s0,0.1,0,0.1s0,0.1,0,0.1c0,0,0,0.1,0,0.1l0,0v0
				c0,0,0,0.1,0,0.1l0,0.1c0,0,0.1,0,0.1,0c0,0,0.1,0.1,0.1,0.1c0,0,0,0,0,0c0,0,0,0.1,0,0.1c0,0,0,0.1,0,0.1s0,0.1,0,0.1
				c0,0,0.1,0,0.1,0c0,0,0.1,0.1,0.1,0.1c0,0,0,0,0,0c0,0,0,0.1,0,0.1s0,0.1,0,0.1s0,0.1,0,0.1s0,0.1,0,0.1c0,0,0,0.1,0,0.1
				c0,0,0,0.1,0,0.1s0,0.1,0,0.1c0,0,0,0,0,0c0,0,0,0.1,0,0.1c0,0,0,0.1,0,0.1c0,0,0,0.1,0,0.1c0,0,0,0.1,0,0.1s0,0.1,0,0.1
				c0,0,0,0.1,0,0.1c0,0,0,0.1,0,0.1v0c0,0,0,0.1,0,0.1s0,0.1,0,0.1s0,0.1,0,0.1c0,0,0,0.1,0,0.1c0,0,0,0.1,0,0.1s0,0.1,0,0.1
				c0,0,0,0.1,0,0.1v0c0,0,0,0.1,0,0.1s0,0.1,0,0.1c0,0,0,0.1,0,0.1c0,0,0,0.1,0,0.1c0,0,0,0.1,0,0.1s0,0.1,0,0.1c0,0,0,0.1,0,0.1v0
				c0,0,0,0.1,0,0.1c0,0,0,0.1,0,0.1s0,0.1,0,0.1c0,0,0,0.1,0,0.1c0,0,0,0.1,0,0.1s0,0.1,0,0.1s0,0.1,0,0.1v0c0,0,0,0.1,0,0.1
				c0,0,0,0.1,0,0.1c0,0,0,0.1,0,0.1s0,0.1,0,0.1s0,0.1,0,0.1c0,0,0,0.1,0,0.1s0,0.1,0,0.1v0c0,0,0,0.1,0,0.1c0,0,0,0.1,0,0.1
				s0,0.1,0,0.1c0,0,0,0.1,0,0.1c0,0,0,0.1,0,0.1s0,0.1,0,0.1s0,0.1,0,0.1v0c0,0,0,0.1,0,0.1c0,0,0,0.1,0,0.1s0,0.1,0,0.1
				s0,0.1,0,0.1s0,0.1,0,0.1s0,0.1,0,0.1s0,0.1,0,0.1v0c0,0,0,0.1,0,0.1s0,0.1,0,0.1s0,0.1,0,0.1c0,0,0,0.1,0,0.1c0,0,0,0.1,0,0.1
				l-0.1,0.1c-0.1,0-0.1,0-0.1,0h0v0c0,0-0.1,0-0.1,0c0,0,0,0,0,0c-0.1,0-0.1,0-0.1,0c-0.6,0-1.3,0-1.9,0c-0.1,0-0.1,0-0.1,0
				c-0.1,0-0.2,0-0.2,0c-0.1,0-0.1,0-0.2,0c0,0,0-0.1,0-0.1c0,0-0.1-0.1-0.1-0.1v0c0,0,0-0.1,0-0.1c0,0-0.1-0.1-0.1-0.1v0
				c0,0,0-0.1,0-0.1s0-0.1,0-0.1c0,0,0-0.1,0-0.1s0-0.1,0-0.1v0c-9,0-18,0-27.1,0c0,0-0.1,0.1-0.1,0.1c0,0,0,0.1,0,0.1s0,0.1,0,0.1
				c0,0,0,0.1,0,0.1c0,0,0,0.1,0,0.1c0,0,0,0.1,0,0.1c0,0,0,0.1,0,0.1v0c0,0-0.1,0.1-0.1,0.1c0,0,0,0.1,0,0.1v0c0,0-0.1,0-0.1,0l0,0
				c-0.1,0-0.1,0-0.1,0c-0.3,0-0.7,0-1,0c-0.1,0-0.1,0-0.2,0c0,0,0-0.1,0-0.1c0,0-0.1-0.1-0.1-0.1c0,0,0-0.1,0-0.1v0c0,0,0,0,0,0
				c-0.1,0-0.1,0-0.1,0c-0.1,0-0.1,0-0.2,0c0,0-0.1-0.1-0.1-0.1c0,0-0.1-0.1-0.1-0.1c0,0-0.1,0-0.1,0c0,0,0-0.1,0-0.1
				c0,0,0-0.1,0-0.1c0,0,0-0.1,0-0.1s0-0.1,0-0.1s0-0.1,0-0.1c0,0,0-0.1,0-0.1s0-0.1,0-0.1v0c0,0,0-0.1,0-0.1c0,0,0-0.1,0-0.1
				s0-0.1,0-0.1c0,0,0-0.1,0-0.1s0-0.1,0-0.1s0-0.1,0-0.1s0-0.1,0-0.1v0c0,0,0-0.1,0-0.1c0,0,0-0.1,0-0.1s0-0.1,0-0.1v0
				c0,0,0-0.1,0-0.1c0,0,0-0.1,0-0.1c0,0,0-0.1,0-0.1c0,0-0.1,0-0.1,0c0,0,0-0.1,0-0.1c0,0,0-0.1,0-0.1c0,0,0-0.1,0-0.1
				c0,0,0-0.1,0-0.1c0,0,0-0.1,0-0.1c0,0,0-0.1,0-0.1c0,0,0-0.1,0-0.1l0,0c0,0,0-0.1,0-0.1v0c-0.1,0-0.1-0.1-0.1-0.1
				c-0.1,0-0.1-0.1-0.1-0.1s-0.1,0-0.1,0c0,0,0,0.1,0,0.1c0,0,0,0,0,0h0c0,0,0,0.1,0,0.1c0,0,0,0.1,0,0.1s0,0.1,0,0.1
				c0,0,0,0.1,0,0.1c0,0,0,0.1,0,0.1s0,0.1,0,0.1s0,0.1,0,0.1v0c0,0,0,0.1,0,0.1c0,0,0,0.1,0,0.1c0,0,0,0.1,0,0.1s0,0.1,0,0.1
				s0,0.1,0,0.1c0,0,0,0.1,0,0.1s0,0.1,0,0.1v0c0,0,0,0.1,0,0.1c0,0,0,0.1,0,0.1s0,0.1,0,0.1c0,0,0,0.1,0,0.1c0,0,0,0.1,0,0.1
				s0,0.1,0,0.1c0,0,0,0.1,0,0.1l0,0c0,0,0,0.1,0,0.1c0,0,0,0,0,0c0,0,0,0.1,0,0.1v0c0,0,0,0.1,0,0.1s0,0.1,0,0.1s0,0.1,0,0.1
				s0,0.1,0,0.1s0,0.1,0,0.1c0,0,0,0.1,0,0.1c0,0,0,0.1,0,0.1l0,0c0,0-0.1,0.1-0.1,0.1v0c0,0,0,0.1,0,0.1c0,0,0,0.1,0,0.1
				c0,0,0,0.1,0,0.1c0,0,0,0.1,0,0.1c0,0,0,0.1,0,0.1l0,0c0,0,0,0.1,0,0.1c0,0,0,0.1,0,0.1c0,0,0,0.1,0,0.1c0,0-0.1,0.1-0.1,0.1
				c-0.1,0-0.1,0.1-0.1,0.1c0,0,0,0.1,0,0.1c-0.1,0-0.1,0-0.1,0c-0.1,0-0.3,0-0.4,0c-0.1,0-0.1,0-0.1,0c0,0-0.1,0-0.1,0
				c-0.1,0-0.1,0-0.2,0c0,0,0-0.1,0-0.1c0,0-0.1-0.1-0.1-0.1c0,0-0.1,0-0.1,0c0,0,0-0.1,0-0.1c0,0-0.1-0.1-0.1-0.1c0,0,0-0.1,0-0.1
				v0c0,0,0-0.1,0-0.1c0,0,0-0.1,0-0.1c0,0,0-0.1,0-0.1c0,0,0-0.1,0-0.1c0,0,0-0.1,0-0.1c0,0,0-0.1,0-0.1c0,0,0-0.1,0-0.1
				c0,0,0.1,0,0.1,0c0,0,0-0.1,0-0.1c0,0,0-0.1,0-0.1c0,0,0-0.1,0-0.1c0,0,0,0,0-0.1c0,0-0.1,0-0.1,0c-0.1,0-0.1,0-0.2,0
				c-0.1,0-0.1,0-0.2,0c0,0-0.1,0-0.1,0s-0.1,0-0.1,0c-0.1,0-0.1,0.1-0.2,0.1c0,0-0.1,0.1-0.1,0.1s-0.1,0-0.1,0
				c-0.1,0-0.1,0.1-0.2,0.1c0,0-0.1,0.1-0.1,0.1c-0.1,0-0.1,0.1-0.1,0.1c-0.1,0-0.2,0.1-0.2,0.1c0,0-0.1,0-0.1,0c0,0,0,0,0,0
				c-0.1,0-0.1,0-0.1,0c-0.1,0-0.2,0-0.3,0l0,0c-0.1,0-0.1,0-0.1,0c-0.1,0-0.2,0.1-0.3,0.1c0,0-0.1,0-0.1,0c-0.1,0-0.1,0-0.1,0
				c0,0-0.1,0-0.1,0c-0.1,0-0.1,0-0.2,0c0,0-0.1,0-0.1,0c-0.2,0-0.4,0-0.6,0c-0.1,0-0.1,0-0.1,0l0,0c-1.5,0-3,0-4.4,0
				c-0.1,0-0.1,0-0.2,0c0,0-0.1-0.1-0.1-0.1c0,0-0.1-0.1-0.1-0.1v0c0,0,0-0.1,0-0.1s0-0.1,0-0.1c0,0-0.1-0.1-0.1-0.1
				c0,0,0-0.1,0-0.1c0,0,0-0.1,0-0.1c0,0,0-0.1,0-0.1c0,0-0.1-0.1-0.1-0.1l0,0v0c0,0-0.1,0-0.1,0l0,0c-0.1,0-0.1,0-0.1,0
				c-0.1,0-0.2,0.1-0.3,0.1v0c0,0,0,0.1,0,0.1c0,0-0.1,0.1-0.1,0.1c0,0-0.1,0.1-0.1,0.1c0,0,0,0.1,0,0.1s0,0.1,0,0.1s0,0.1,0,0.1
				c0,0,0,0.1,0,0.1c0,0,0,0,0,0c0,0,0,0.1,0,0.1c0,0-0.1,0.1-0.1,0.1c0,0,0,0.1,0,0.1c0,0,0,0.1,0,0.1c0,0,0,0.1,0,0.1s0,0.1,0,0.1
				c0,0,0,0.1,0,0.1c0,0,0,0,0,0c0,0,0,0.1,0,0.1c0,0-0.1,0.1-0.1,0.1c0,0,0,0.1,0,0.1c0,0,0,0.1,0,0.1c0,0,0,0.1,0,0.1
				c0,0-0.1,0.1-0.1,0.1c0,0,0,0.1,0,0.1c0,0,0,0,0,0c0,0,0,0.1,0,0.1c0,0,0,0.1,0,0.1s0,0.1,0,0.1s0,0.1,0,0.1c0,0,0,0.1,0,0.1
				c0,0-0.1,0.1-0.1,0.1c0,0,0,0.1,0,0.1c0,0,0,0,0,0c0,0,0,0.1,0,0.1s0,0.1,0,0.1c0,0,0,0.1,0,0.1c0,0,0,0.1,0,0.1
				c0,0-0.1,0.1-0.1,0.1c0,0,0,0.1,0,0.1c0,0,0,0.1,0,0.1c0,0,0,0,0,0c0,0,0,0.1,0,0.1s0,0.1,0,0.1s0,0.1,0,0.1s0,0.1,0,0.1
				c0,0,0,0.1,0,0.1c0,0-0.1,0.1-0.1,0.1c0,0,0,0.1,0,0.1c0,0,0,0,0,0c0,0,0,0.1,0,0.1s0,0.1,0,0.1c0,0,0,0.1,0,0.1s0,0.1,0,0.1
				c0,0,0,0.1,0,0.1c0,0-0.1,0.1-0.1,0.1c0,0,0,0.1,0,0.1s0,0,0,0c0,0,0,0.1,0,0.1s0,0.1,0,0.1c0,0,0,0.1,0,0.1c0,0,0,0.1,0,0.1
				c0,0-0.1,0.1-0.1,0.1c0,0,0,0.1,0,0.1c0,0,0,0.1,0,0.1s0,0,0,0c0,0,0,0.1,0,0.1c0,0,0,0.1,0,0.1c0,0,0,0.1,0,0.1c0,0,0,0.1,0,0.1
				c0,0-0.1,0.1-0.1,0.1c0,0,0,0.1,0,0.1c0,0,0,0.1,0,0.1v0c0,0-0.1,0.1-0.1,0.1c0,0,0,0.1,0,0.1c0,0,0,0.1,0,0.1c0,0,0,0.1,0,0.1
				c0,0-0.1,0.1-0.1,0.1c0,0,0,0.1,0,0.1s0,0.1,0,0.1v0c0,0-0.1,0.1-0.1,0.1c0,0,0,0.1,0,0.1c0,0,0,0.1,0,0.1s0,0.1,0,0.1
				c0,0,0,0.1,0,0.1c0,0-0.1,0.1-0.1,0.1c0,0,0,0.1,0,0.1v0c0,0,0,0.1,0,0.1c0,0-0.1,0.1-0.1,0.1c0,0,0,0.1,0,0.1c0,0,0,0.1,0,0.1
				c0,0,0,0.1,0,0.1c0,0-0.1,0.1-0.1,0.1c0,0,0,0.1,0,0.1c0,0,0,0,0,0c0,0,0,0.1,0,0.1c0,0,0,0.1,0,0.1s0,0.1,0,0.1c0,0,0,0.1,0,0.1
				c0,0-0.1,0.1-0.1,0.1c0,0,0,0.1,0,0.1l0,0c0,0,0.1,0,0.1,0c0,0,0.1,0,0.1,0c0,0,0,0.1,0,0.1c0,0,0,0.1,0,0.1c0,0,0,0.1,0,0.1
				c0,0,0.1,0.1,0.1,0.1c0,0,0,0.1,0,0.1c0,0,0,0.1,0,0.1c0,0,0,0.1,0,0.1c0,0,0.1,0,0.1,0c0,0,0,0.1,0,0.1c0,0,0,0.1,0,0.1
				s0,0.1,0,0.1s0,0.1,0,0.1s0,0.1,0,0.1s0,0.1,0,0.1c0,0,0,0.1,0,0.1v0c0,0,0,0.1,0,0.1c0,0-0.1,0.1-0.1,0.1c0,0,0,0.1,0,0.1
				c0,0,0,0.1,0,0.1c-0.1,0-0.1,0.1-0.1,0.1c0,0,0,0.1,0,0.1s0,0.1,0,0.1c0,0,0,0,0,0c0,0-0.1,0.1-0.1,0.1c0,0-0.1,0-0.1,0h0
				c0,0-0.1,0.1-0.1,0.1c0,0-0.1,0-0.1,0c-0.1,0-0.1,0-0.1,0c-0.2,0-0.4,0-0.7,0l0,0c-0.1,0-0.1,0-0.1,0c-0.4,0-0.8,0-1.1,0
				c-0.1,0-0.1,0-0.1,0l0,0c-0.2,0-0.4,0-0.6,0c-0.1,0-0.1,0-0.2,0l0,0c-0.1,0-0.2,0-0.3,0c-0.1,0-0.1,0-0.1,0l0,0
				c-0.1,0-0.1,0-0.2,0c-0.1,0-0.1,0-0.2,0l-0.1-0.1c-0.1,0-0.1,0-0.2,0c-0.1,0-0.2-0.1-0.2-0.1s-0.1-0.1-0.1-0.1
				c-0.1,0-0.1-0.1-0.2-0.1c0,0-0.1,0-0.1,0c0,0-0.1-0.1-0.1-0.1c0,0,0-0.1,0-0.1c-0.1,0-0.1-0.1-0.1-0.1c-0.1,0-0.1-0.1-0.2-0.1
				c0,0,0-0.1,0-0.1s-0.1-0.1-0.1-0.1s-0.1-0.1-0.1-0.1c0,0-0.1,0-0.1,0c0,0,0-0.1,0-0.1c0,0,0-0.1,0-0.1s-0.1-0.1-0.1-0.1
				c0,0,0-0.1,0-0.1c0,0,0-0.1,0-0.1v-0.1l0,0c0,0,0,0,0,0c0,0-0.1,0-0.1,0c0,0,0-0.1,0-0.1c0,0,0-0.1,0-0.1c0,0,0-0.1,0-0.1
				c0,0,0-0.1,0-0.1s0-0.1,0-0.1c0,0-0.1-0.1-0.1-0.1c0,0,0-0.1,0-0.1v0c0,0,0-0.1,0-0.1s0-0.1,0-0.1c0,0,0-0.1,0-0.1
				c0,0,0-0.1,0-0.1c0,0,0-0.1,0-0.1c0,0,0-0.1,0-0.1c0,0,0-0.1,0-0.1v0c0,0,0-0.1,0-0.1c0,0,0-0.1,0-0.1c0,0,0-0.1,0-0.1
				s0-0.1,0-0.1s0-0.1,0-0.1c0,0,0-0.1,0-0.1c0,0,0-0.1,0-0.1v0c0,0,0-0.1,0-0.1c0,0,0-0.1,0-0.1c0,0,0-0.1,0-0.1c0,0,0-0.1,0-0.1
				c0,0,0-0.1,0-0.1c0,0,0-0.1,0-0.1c0,0,0-0.1,0-0.1v0c0,0,0-0.1,0-0.1c0,0,0-0.1,0-0.1c0,0,0-0.1,0-0.1c0,0,0-0.1,0-0.1
				c0,0,0-0.1,0-0.1s0-0.1,0-0.1c0,0,0-0.1,0-0.1c0,0,0.1,0,0.1,0c0,0,0-0.1,0-0.1c0,0,0-0.1,0-0.1c0,0,0-0.1,0-0.1c0,0,0-0.1,0-0.1
				c0,0,0-0.1,0-0.1c0,0,0.1-0.1,0.1-0.1c0,0,0-0.1,0-0.1c0,0,0,0,0,0c0,0,0-0.1,0-0.1c0,0,0-0.1,0-0.1c0,0,0-0.1,0-0.1
				c0,0,0-0.1,0-0.1c0,0,0-0.1,0-0.1c0,0,0-0.1,0-0.1c0,0,0.1-0.1,0.1-0.1l0,0c0,0,0-0.1,0-0.1c0,0,0-0.1,0-0.1c0,0,0-0.1,0-0.1
				c0,0,0-0.1,0-0.1c0,0,0.1-0.1,0.1-0.1c0,0,0-0.1,0-0.1c0,0,0.1-0.1,0.1-0.1v0c0,0,0-0.1,0-0.1c0,0,0-0.1,0-0.1c0,0,0-0.1,0-0.1
				c0,0,0-0.1,0-0.1c0,0,0-0.1,0-0.1c0,0,0-0.1,0-0.1c0,0,0-0.1,0-0.1c0,0,0.1,0,0.1,0c0,0,0-0.1,0-0.1c0,0,0-0.1,0-0.1
				c0,0,0-0.1,0-0.1s0-0.1,0-0.1c0,0,0-0.1,0-0.1c0,0,0-0.1,0-0.1c0,0,0-0.1,0-0.1v0c0,0,0-0.1,0-0.1c0,0,0-0.1,0-0.1
				c0,0,0-0.1,0-0.1s0-0.1,0-0.1c0,0,0-0.1,0-0.1c0,0,0-0.1,0-0.1c0,0,0-0.1,0-0.1v0c0,0,0-0.1,0-0.1c0,0,0-0.1,0-0.1
				c0,0,0-0.1,0-0.1s0-0.1,0-0.1c0,0,0-0.1,0-0.1s0-0.1,0-0.1c0,0,0.1-0.1,0.1-0.1v0c0,0,0-0.1,0-0.1c0,0,0-0.1,0-0.1
				c0,0,0-0.1,0-0.1s0-0.1,0-0.1c0,0,0-0.1,0-0.1c0,0,0-0.1,0-0.1c0,0,0-0.1,0-0.1v0c0,0,0-0.1,0-0.1c0,0,0-0.1,0-0.1
				c0,0,0-0.1,0-0.1c0,0,0-0.1,0-0.1s0-0.1,0-0.1c0,0,0-0.1,0-0.1s0-0.1,0-0.1v0c0,0,0-0.1,0-0.1s0-0.1,0-0.1c0,0,0-0.1,0-0.1
				c0,0,0-0.1,0-0.1c0,0,0-0.1,0-0.1c0,0,0-0.1,0-0.1c0,0,0.1-0.1,0.1-0.1l0,0c0,0,0-0.1,0-0.1c0,0,0-0.1,0-0.1c0,0,0-0.1,0-0.1
				c0,0,0-0.1,0-0.1c0,0,0-0.1,0-0.1c0,0,0-0.1,0-0.1s0-0.1,0-0.1l0,0v-0.3c0,0,0,0,0,0v0l0,0v0h0v-0.1h0v-0.1c0,0,0,0,0,0l0,0v0
				c0,0,0,0,0,0l0,0c0,0,0,0,0,0v0h0v0l0,0v0h0l0,0c0,0,0,0,0,0l0,0h0c0,0,0,0,0,0c0,0-0.1,0-0.1,0h0l0,0c0,0,0,0,0,0
				c0,0-0.1,0-0.1,0c0,0,0,0,0,0c0,0-0.1,0-0.1,0h0c0,0-0.1,0-0.1,0l0,0h0l0,0c0,0-0.1,0-0.1,0h0l0,0c0,0-0.1,0-0.1,0h-0.1l0,0
				c0,0-0.1,0-0.1,0h0l0,0c0,0-0.1,0-0.1,0c0,0-0.1,0-0.1,0h0l0,0c0,0-0.1,0-0.1,0h-0.1l0,0c0,0-0.1,0-0.1,0s-0.1,0-0.1,0
				c0,0-0.1,0-0.1,0h0l0,0h-0.1l0,0c0,0-0.1,0-0.1,0c-0.1,0-0.3,0-0.5,0c0,0-0.1,0-0.1,0h-0.4c0,0-0.1,0-0.1,0h0c0,0-0.1,0-0.1,0h0
				c-0.1,0-0.2,0-0.3,0h0c0,0-0.1,0-0.1,0h0c0,0,0,0,0,0c0,0-0.1,0-0.1,0c0,0,0,0,0,0h-0.1c0,0-0.1,0-0.1,0h0c0,0-0.1,0-0.1,0h0
				c0,0-0.1,0-0.1,0h-0.1c0,0-0.1,0-0.1,0h-0.1c0,0-0.1,0-0.1,0h0c0,0,0,0,0,0h0c0,0-0.1,0-0.1,0s-0.1,0-0.1,0h-0.1c0,0-0.1,0-0.1,0
				h-0.1c0,0-0.1,0-0.1,0h0c0,0-0.1,0-0.1,0h0c0,0-0.1,0-0.1,0h-0.1c0,0-0.1,0-0.1,0c0,0-0.1,0-0.1,0l0,0h-0.1c0,0-0.1,0-0.1,0h0
				c0,0-0.1,0-0.1,0h-0.1c0,0,0,0,0,0s-0.1,0-0.1,0h-0.1c0,0,0,0,0,0c0,0-0.1,0-0.1,0h0c0,0-0.1,0-0.1,0h0c0,0-0.1,0-0.1,0h0
				c0,0-0.1,0-0.1,0h-0.1c0,0,0,0,0,0c0,0-0.1,0-0.1,0h-0.1c0,0,0,0,0,0c0,0-0.1,0-0.1,0h0c0,0-0.1,0-0.1,0h0c0,0,0,0,0,0
				c0,0-0.1,0-0.1,0h0c0,0-0.1,0-0.1,0h0c0,0-0.1,0-0.1,0h0c0,0-0.1,0-0.1,0h0c0,0-0.1,0-0.1,0h-0.1c0,0,0,0,0,0c0,0-0.1,0-0.1,0
				l0,0h-0.1c0,0-0.1,0-0.1,0h0c0,0-0.1,0-0.1,0h-0.1c0,0-0.1,0-0.1,0s-0.1,0-0.1,0h0c0,0,0,0,0,0h0c0,0-0.1,0-0.1,0s0,0,0,0
				c0,0-0.1,0-0.1,0c0,0-0.1,0-0.1,0c0,0-0.1,0-0.1,0h0c0,0-0.1,0-0.1,0h0c0,0-0.1,0-0.1,0h0c0,0-0.1,0-0.1,0h0c0,0-0.1,0-0.1,0h0
				c0,0,0,0,0,0h0l0,0c0,0,0,0,0,0h0c0,0-0.1,0-0.1,0h0c0,0-0.1,0-0.1,0h0c0,0-0.1,0-0.1,0h0c0,0-0.1,0-0.1,0h-0.1c0,0-0.1,0-0.1,0
				h0c0,0-0.1,0-0.1,0h0c0,0-0.1,0-0.1,0h0c0,0-0.1,0-0.1,0h-0.1c0,0-0.1,0-0.1,0h-0.1c0,0-0.1,0-0.1,0h0c0,0,0,0,0,0h0
				c0,0-0.1,0-0.1,0h-0.1c0,0-0.1,0-0.1,0h-0.1c0,0-0.1,0-0.1,0h0c-0.1,0-0.1,0-0.1,0h0c0,0-0.1,0-0.1,0h-0.1c0,0-0.1,0-0.1,0h0
				c0,0,0,0,0,0c0,0-0.1,0-0.1,0h0c0,0-0.1,0-0.1,0h-0.1c0,0-0.1,0-0.1,0h-0.1c0,0-0.1,0-0.1,0h0c0,0-0.1,0-0.1,0h-0.1
				c0,0-0.1,0-0.1,0h-0.1c0,0-0.1,0-0.1,0h-0.1c0,0-0.1,0-0.1,0h-0.1c0,0-0.1,0-0.1,0h0c0,0,0,0,0,0h0c0,0-0.1,0-0.1,0s-0.1,0-0.1,0
				h0c0,0-0.1,0-0.1,0h-0.1c0,0-0.1,0-0.1,0h-0.1c0,0-0.1,0-0.1,0h0c0,0,0,0,0,0h0l0,0c0,0-0.1,0-0.1,0h0c0,0,0,0,0,0
				c0,0-0.1,0-0.1,0h0c0,0-0.1,0-0.1,0h0c0,0-0.1,0-0.1,0l0,0h0l0,0c0,0-0.1,0-0.1,0h0c0,0-0.1,0-0.1,0h-0.1c0,0-0.1,0-0.1,0H17
				c0,0,0,0,0,0s-0.1,0-0.1,0h0c0,0-0.1,0-0.1,0h-0.1c0,0-0.1,0-0.1,0h-0.1c0,0-0.1,0-0.1,0h0c0,0-0.1,0-0.1,0h0c0,0-0.1,0-0.1,0H16
				c0,0-0.1,0-0.1,0h-0.1c0,0,0,0,0,0c0,0-0.1,0-0.1,0h0c0,0-0.1,0-0.1,0L15.5,20c0,0,0,0-0.1,0h0c0,0-0.1,0-0.1,0h-0.1c0,0,0,0,0,0
				c0,0-0.1,0-0.1,0H15c0,0-0.1,0-0.1,0h0c0,0-0.1,0-0.1,0h-0.1c0,0-0.1,0-0.1,0h0c0,0-0.1,0-0.1,0h-0.1c0,0-0.1,0-0.1,0h0
				c0,0-0.1,0-0.1,0l0,0c0,0-0.1,0-0.1,0h0c0,0-0.1,0-0.1,0h-0.1c0,0-0.1,0-0.1,0h0c-0.1,0-0.1,0-0.1,0h0c0,0-0.1,0-0.1,0h0
				c0,0-0.1,0-0.1,0l0,0c0,0-0.1,0-0.1,0h0c0,0-0.1,0-0.1,0h-0.1c0,0-0.1,0-0.1,0h0c0,0-0.1,0-0.1,0h0c0,0-0.1,0-0.1,0h0
				c0,0-0.1,0-0.1,0h0c0,0-0.1,0-0.1,0h0c0,0-0.1,0-0.1,0h-0.1c0,0,0,0,0,0c0,0-0.1,0-0.1,0h0c0,0-0.1,0-0.1,0h0c0,0-0.1,0-0.1,0
				h-0.1c0,0-0.1,0-0.1,0h-0.1c0,0-0.1,0-0.1,0h0c0,0-0.1,0-0.1,0h0c0,0-0.1,0-0.1,0h-0.1c0,0-0.1,0-0.1,0h-0.1c0,0-0.1,0-0.1,0
				h-0.1c0,0-0.1,0-0.1,0h0c0,0-0.1,0-0.1,0l0,0h0c0,0-0.1,0-0.1,0c0,0,0,0,0,0c0,0-0.1,0-0.1,0c0,0,0,0,0,0c0,0-0.1,0-0.1,0h0
				c0,0-0.1,0-0.1,0h0c0,0,0,0,0,0h0c0,0-0.1,0-0.1,0c-0.1,0-0.1,0-0.1,0h0c0,0-0.1,0-0.1,0h0c0,0-0.1,0-0.1,0l0,0c0,0-0.1,0-0.1,0
				c0,0-0.1,0-0.1,0l0,0c-0.1,0-0.1,0-0.1,0h0c0,0-0.1,0-0.1,0h0c0,0,0,0,0,0c0,0-0.1,0-0.1,0c0,0,0,0,0,0c0,0-0.1,0-0.1,0l0,0h0
				c0,0-0.1,0-0.1,0H8.1c0,0-0.1,0-0.1,0H7.9c0,0-0.1,0-0.1,0H7.8c0,0,0,0,0,0s-0.1,0-0.1,0H7.6c0,0-0.1,0-0.1,0H7.4
				c0,0-0.1,0-0.1,0H7.2c0,0-0.1,0-0.1,0H7c0,0-0.1,0-0.1,0H6.8c0,0-0.1,0-0.1,0h0c0,0,0,0,0,0c0,0-0.1,0-0.1,0c0,0,0,0,0,0
				c0,0-0.1,0-0.1,0h0c0,0-0.1,0-0.1,0h0c0,0-0.1,0-0.1,0h0c0,0-0.1,0-0.1,0H6c0,0-0.1,0-0.1,0c0,0-0.1,0-0.1,0h0c0,0,0,0,0,0h0
				c0,0-0.1,0-0.1,0s-0.1,0-0.1,0h0c0,0-0.1,0-0.1,0h0c0,0,0,0,0,0c0,0-0.1,0-0.1,0h0c0,0-0.1,0-0.1,0H5c0,0,0,0,0,0
				c0,0-0.1,0-0.1,0H4.8c0,0-0.1,0-0.1,0h0c0,0-0.1,0-0.1,0h0c0,0-0.1,0-0.1,0H4.4c0,0,0,0,0,0c0,0-0.1,0-0.1,0h0c0,0-0.1,0-0.1,0H4
				c0,0-0.1,0-0.1,0h0c0,0-0.1,0-0.1,0h0c0,0-0.1,0-0.1,0h0c0,0-0.1,0-0.1,0h0c0,0-0.1,0-0.1,0H3.3c0,0-0.1,0-0.1,0H3.2
				c0,0-0.1,0-0.1,0h0c0,0-0.1,0-0.1,0h0c0,0-0.1,0-0.1,0h0c0,0-0.1,0-0.1,0h0c0,0-0.1,0-0.1,0h0c0,0,0,0,0,0h0l0,0c0,0-0.1,0-0.1,0
				h0c0,0-0.1,0-0.1,0H2.1c0,0-0.1,0-0.1,0h0c0,0-0.1,0-0.1,0c0,0-0.1,0-0.1,0c0,0-0.1,0-0.1,0c0,0,0,0,0,0s-0.1,0-0.1,0h0
				c0,0,0,0,0,0c0,0-0.1,0-0.1,0c0,0,0,0,0,0c0,0-0.1,0-0.1,0H1.2c0,0,0,0,0,0c0,0-0.1,0-0.1,0H1c0,0-0.1,0-0.1,0h0c0,0-0.1,0-0.1,0
				h0c0,0-0.1,0-0.1,0c0,0-0.1,0-0.1,0c0,0-0.1-0.1-0.1-0.1c0,0-0.1-0.1-0.1-0.1v0c0,0,0-0.1,0-0.1c-0.1,0-0.1,0-0.2,0
				c0,0,0-0.1,0-0.1c0,0,0,0,0,0v-4.1l0,0c0,0,0,0,0,0c0,0,0.1,0,0.1,0c0.1,0,0.1,0,0.2,0v0c0,0,0-0.1,0-0.1c0,0,0-0.1,0-0.1
				c0,0,0-0.1,0-0.1v0c0,0,0-0.1,0-0.1c0,0,0-0.1,0-0.1s0-0.1,0-0.1s0-0.1,0-0.1s0-0.1,0-0.1s0-0.1,0-0.1s0-0.1,0-0.1v-0.1
				c0,0,0-0.1,0-0.1s0-0.1,0-0.1s0-0.1,0-0.1s0-0.1,0-0.1c0,0,0-0.1,0-0.1c0,0,0-0.1,0-0.1c0,0,0-0.1,0-0.1v0c0,0,0-0.1,0-0.1
				c0,0,0-0.1,0-0.1s0-0.1,0-0.1c0,0,0-0.1,0-0.1s0-0.1,0-0.1c0,0,0-0.1,0-0.1s0-0.1,0-0.1v0c0,0,0-0.1,0-0.1s0-0.1,0-0.1
				c0,0,0-0.1,0-0.1s0-0.1,0-0.1c0,0,0-0.1,0-0.1c0,0,0-0.1,0-0.1c0,0,0-0.1,0-0.1v0c0,0,0-0.1,0-0.1c0,0,0-0.1,0-0.1
				c0,0,0-0.1,0-0.1s0-0.1,0-0.1c0,0,0-0.1,0-0.1c0,0,0-0.1,0-0.1c0,0,0-0.1,0-0.1v0c0,0,0-0.1,0-0.1s0-0.1,0-0.1s0-0.1,0-0.1
				c0,0,0-0.1,0-0.1s0-0.1,0-0.1s0-0.1,0-0.1s0-0.1,0-0.1v0c0,0,0-0.1,0-0.1c0,0,0-0.1,0-0.1c0,0,0-0.1,0-0.1c0,0,0-0.1,0-0.1
				c0,0,0-0.1,0-0.1c0,0,0-0.1,0-0.1c0,0,0-0.1,0-0.1c0,0,0-0.1,0-0.1c0,0,0-0.1,0-0.1c0,0,0,0,0-0.1c0,0-0.1,0-0.1,0
				c-0.1,0-0.1,0-0.2,0c0,0-0.1-0.1-0.1-0.1c0,0-0.1-0.1-0.1-0.1c0,0,0-0.1,0-0.1v0c0,0,0-0.1,0-0.1s0-0.1,0-0.1S0,14,0,14
				s0-0.1,0-0.1c0,0,0-0.1,0-0.1c0,0,0-0.1,0-0.1c0,0,0-0.1,0-0.1v0c0,0,0-0.1,0-0.1c0,0,0-0.1,0-0.1s0-0.1,0-0.1s0-0.1,0-0.1
				s0-0.1,0-0.1c0,0,0-0.1,0-0.1c0,0,0-0.1,0-0.1v0c0,0,0-0.1,0-0.1c0,0,0-0.1,0-0.1s0-0.1,0-0.1c0,0,0-0.1,0-0.1s0-0.1,0-0.1
				c0,0,0-0.1,0-0.1c0,0,0-0.1,0-0.1v0c0,0,0-0.1,0-0.1s0-0.1,0-0.1s0-0.1,0-0.1c0,0,0-0.1,0-0.1c0,0,0-0.1,0-0.1c0,0,0-0.1,0-0.1
				c0,0,0-0.1,0-0.1v0c0,0,0-0.1,0-0.1s0-0.1,0-0.1c0,0,0-0.1,0-0.1c0,0,0-0.1,0-0.1c0,0,0-0.1,0-0.1c0,0,0-0.1,0-0.1
				c0,0,0.1-0.1,0.1-0.1c0,0,0,0,0,0c0,0,0-0.1,0-0.1c0,0,0-0.1,0-0.1c0,0,0-0.1,0-0.1c0.1,0,0.1-0.1,0.1-0.1c0,0,0.1-0.1,0.1-0.1
				c0,0,0.1,0,0.1,0c0,0,0.1,0,0.1,0c0,0,0.1-0.1,0.1-0.1c0,0,0.1-0.1,0.1-0.1c0,0,0.1,0,0.1,0c0,0,0,0,0,0c0,0,0.1,0,0.1,0v0
				c0.1,0,0.1,0,0.1,0c0,0,0,0,0,0c0.1,0,0.1,0,0.1,0c0.1,0,0.1,0.1,0.2,0.1c0,0,0,0,0,0c0.5,0,1.1,0,1.6,0l0,0l0,0c2,0,4,0,6.1,0
				c0.1,0,0.1,0,0.2,0c0.2,0,0.4,0,0.6,0c0,0,0.1,0,0.1,0c0,0,0,0,0,0c1.1,0,2.2,0,3.3,0v0c0,0,0.1,0,0.1,0v0c0.1,0,0.1,0,0.2,0
				c0.1,0,0.1,0,0.2,0c0,0,0.1,0,0.1,0c0.1,0,0.1-0.1,0.1-0.1c0,0,0.1-0.1,0.1-0.1c0,0,0.1-0.1,0.1-0.1c0.1,0,0.1-0.1,0.2-0.1
				c0,0,0-0.1,0-0.1c0,0,0.1,0,0.1,0v0c0.1,0,0.1,0,0.2,0c0.1,0,0.1,0,0.2,0v0c0,0,0.1,0,0.1,0c0.1,0,0.1,0,0.1,0c0,0,0,0.1,0,0.1
				c0,0,0,0.1,0,0.1s0,0.1,0,0.1c0,0,0,0.1,0,0.1c-0.1,0-0.1,0.1-0.2,0.1v0c0,0,0.1,0,0.1,0c0,0,0,0,0.1,0l0,0v0l0,0
				c0,0,0.1,0,0.1,0c0,0,0.1,0,0.1,0h0.1c0,0,0.1,0,0.1,0c0.1,0,0.2,0,0.3,0v0c0.2,0,0.3,0,0.5,0c0,0,0.1,0,0.1,0c0.1,0,0.3,0,0.4,0
				c0,0,0.1,0,0.1,0c0.1,0,0.3,0,0.4,0c0,0,0.1,0,0.1,0c0.9,0,1.9,0,2.8,0c0,0,0.1,0,0.1,0c0.1,0,0.2,0,0.3,0c0,0,0.1,0,0.1,0
				c1,0,2,0,3,0c0,0,0.1,0,0.1,0c0.4,0,0.7,0,1,0c0,0,0.1,0,0.1,0c0.7,0,1.3,0,2,0c0,0,0.1,0,0.1,0s0.1,0,0.1,0c0.4,0,0.8,0,1.2,0
				c0,0,0.1,0,0.1,0c0,0,0.1,0,0.1,0v0c0.2,0,0.4,0,0.6,0c0,0,0-0.1,0-0.1c0,0,0.1-0.1,0.1-0.1c0,0,0.1-0.1,0.1-0.1
				c0,0,0.1-0.1,0.1-0.1c0,0,0.1-0.1,0.1-0.1c0,0,0.1-0.1,0.1-0.1c0,0,0.1,0,0.1,0c0.1,0,0.1-0.1,0.2-0.1c0,0,0-0.1,0-0.1
				c0,0,0.1-0.1,0.1-0.1c0,0,0.1-0.1,0.1-0.1c0,0,0.1-0.1,0.1-0.1c0,0,0-0.1,0-0.1c0,0,0.1-0.1,0.1-0.1c0,0,0,0,0,0
				c0.1,0,0.1-0.1,0.2-0.1c0,0,0.1-0.1,0.1-0.1c0,0,0.1,0,0.1,0c0,0,0,0,0,0s0.1,0,0.1,0c0.2,0,0.5,0,0.7,0c0,0,0.1-0.1,0.1-0.1
				c0,0,0.1-0.1,0.1-0.1c0,0,0.1-0.1,0.1-0.1c0,0,0.1,0,0.1,0c0,0,0-0.1,0-0.1c0,0,0.1-0.1,0.1-0.1c0,0,0.1-0.1,0.1-0.1
				c0,0,0.1-0.1,0.1-0.1c0,0,0.1-0.1,0.1-0.1c0,0,0.1,0,0.1,0c0,0,0.1,0,0.1,0c0,0,0-0.1,0-0.1c0,0,0-0.1,0-0.1c0,0,0.1-0.1,0.1-0.1
				c0,0,0.1-0.1,0.1-0.1c0,0,0.1-0.1,0.1-0.1c0,0,0.1-0.1,0.1-0.1l0,0c0,0,0-0.1,0-0.1c0,0,0-0.1,0-0.1c0,0,0.1,0,0.1,0c0,0,0,0,0,0
				c0,0,0.1,0,0.1,0c0,0,0-0.1,0-0.1c0,0,0.1-0.1,0.1-0.1c0,0,0.1-0.1,0.1-0.1c0,0,0.1-0.1,0.1-0.1c0,0,0.1-0.1,0.1-0.1
				c0,0,0.1-0.1,0.1-0.1c0,0,0,0,0,0c0,0,0.1-0.1,0.1-0.1c0,0,0.1-0.1,0.1-0.1c0,0,0.1-0.1,0.1-0.1c0,0,0.1-0.1,0.1-0.1
				c0,0,0.1-0.1,0.1-0.1c0,0,0.1-0.1,0.1-0.1c0,0,0.1-0.1,0.1-0.1c0,0,0,0,0,0c0.1,0,0.1-0.1,0.2-0.1c0.1,0,0.1,0,0.2,0v0h0l0,0
				c0,0,0.1,0,0.1,0c0,0,0.1,0,0.1,0v0c5.4,0,10.9,0,16.3,0v0c0,0,0-0.1,0-0.1c0,0,0-0.1,0-0.1c0,0,0.1-0.1,0.1-0.1l0,0
				c0,0,0-0.1,0-0.1c0,0,0-0.1,0-0.1c0,0,0.1-0.1,0.1-0.1l0,0c0,0,0.1,0,0.1,0c0,0,0.1,0,0.1,0v0l0,0c0,0,0.1,0,0.1,0
				c0,0,0.1,0,0.1,0c0.1,0,0.3,0,0.4,0v0c0,0,0-0.1,0-0.1c0,0,0.1-0.1,0.1-0.1c0,0,0.1-0.1,0.1-0.1c0,0,0.1,0,0.1,0s0.1-0.1,0.1-0.1
				l0,0v0c0,0,0.1,0,0.1,0c0,0,0-0.1,0-0.1c0,0,0.1,0,0.1,0c0,0,0.1-0.1,0.1-0.1c0,0,0.1,0,0.1,0c0,0,0,0,0,0c0,0,0.1-0.1,0.1-0.1
				c0,0,0.1-0.1,0.1-0.1l0,0c0,0,0-0.1,0-0.1c0,0,0.1-0.1,0.1-0.1c0,0,0.1-0.1,0.1-0.1c0,0,0.1-0.1,0.1-0.1c0,0,0-0.1,0-0.1
				c0,0,0-0.1,0-0.1c0,0,0-0.1,0-0.1v0c0.1,0,0.1,0,0.1,0v0l0,0V2.6c0,0,0.1,0,0.1,0c0,0,0.1,0,0.1,0c0,0,0.1,0.1,0.1,0.1
				c0.1,0,0.1,0,0.2,0c0,0,0.1,0,0.1,0c0,0,0-0.1,0-0.1c0.1,0,0.1,0,0.1,0c0.1,0,0.2,0,0.3,0c0,0,0.1,0,0.1,0c0,0,0.1,0.1,0.1,0.1
				c0,0,0.1,0.1,0.1,0.1c0,0,0.1,0.1,0.1,0.1c0,0,0,0.1,0,0.1c0,0,0.1,0,0.1,0c0,0,0.1,0.1,0.1,0.1c0,0,0.1,0.1,0.1,0.1
				c0,0,0.1,0.1,0.1,0.1c0,0,0.1,0.1,0.1,0.1s0.1,0.1,0.1,0.1c0,0,0.1,0.1,0.1,0.1l0,0c0,0,0.1,0,0.1,0c0,0,0.1,0.1,0.1,0.1
				c0,0,0,0.1,0,0.1c0,0,0,0,0,0s0,0,0,0c0,0,0.1,0.1,0.1,0.1c0,0,0,0.1,0,0.1c0.1,0,0.1,0,0.1,0c0,0,0.1,0.1,0.1,0.1
				c0,0,0,0.1,0,0.1c0,0,0,0.1,0,0.1l0,0c0.5,0,1,0,1.5,0v0c0,0,0-0.1,0-0.1s0-0.1,0-0.1c0,0,0.1,0,0.1,0v0c0.1,0,0.1,0,0.2,0
				c0.1,0,0.1,0,0.2,0c0.1,0,0.1,0,0.2,0c0,0,0-0.1,0-0.1c0.1,0,0.1,0,0.2,0c0,0,0-0.1,0-0.1c0,0,0.1,0,0.1,0v0c0.1,0,0.1,0,0.2,0
				c0.1,0,0.1-0.1,0.2-0.1c0,0,0.1-0.1,0.1-0.1c0,0,0.1,0,0.1,0h0c0.1,0,0.1-0.1,0.2-0.1l0,0v0c0.1,0,0.1,0,0.2,0c0,0,0-0.1,0-0.1
				c0,0,0.1,0,0.1,0v0c0.1,0,0.1,0,0.1,0c0,0,0.1,0,0.1,0c0,0,0,0.1,0,0.1c0,0,0,0.1,0,0.1c0,0,0,0.1,0,0.1c0,0,0,0.1,0,0.1v0
				c0,0,0,0.1,0,0.1s0,0.1,0,0.1s0,0.1,0,0.1c0,0,0,0.1,0,0.1c0,0,0,0.1,0,0.1s0,0.1,0,0.1c0,0,0,0.1,0,0.1l0,0c0,0,0.1,0.1,0.1,0.1
				c0,0,0,0.1,0,0.1c0,0,0,0.1,0,0.1l0,0c0.6,0,1.2,0,1.8,0c0,0,0,0,0,0c0,0,0.1,0,0.1,0v0c0.1,0,0.1,0,0.2,0c0.1,0,0.1,0.1,0.2,0.1
				c0,0,0.1,0.1,0.1,0.1c0,0,0,0,0,0c0,0,0,0.1,0,0.1v0c0,0,0.1,0,0.1,0c0,0,0.1,0,0.1,0c0,0,0,0.1,0,0.1c0,0,0,0.1,0,0.1
				c0,0,0,0,0,0c0,0,0.1,0.1,0.1,0.1c0,0,0.1,0.1,0.1,0.1c0,0,0,0.1,0,0.1c0,0,0,0.1,0,0.1c0,0,0.1,0,0.1,0v0c5.2,0,10.5,0,15.7,0
				c0,0,0.1-0.1,0.1-0.1c0,0,0.1,0,0.1,0c0,0,0.1-0.1,0.1-0.1c0,0,0-0.1,0-0.1c0,0,0-0.1,0-0.1c0,0,0-0.1,0-0.1c0,0,0-0.1,0-0.1
				c0,0,0-0.1,0-0.1c0,0,0.1-0.1,0.1-0.1c0,0,0,0,0,0c0,0,0-0.1,0-0.1s0-0.1,0-0.1c0,0,0-0.1,0-0.1c0,0,0-0.1,0-0.1c0,0,0-0.1,0-0.1
				s0-0.1,0-0.1c0,0,0-0.1,0-0.1c0,0,0,0,0,0c0,0,0-0.1,0-0.1c0,0,0-0.1,0-0.1c0,0,0-0.1,0-0.1s0-0.1,0-0.1c0,0,0-0.1,0-0.1
				s0-0.1,0-0.1c0,0,0-0.1,0-0.1v0c0,0,0-0.1,0-0.1s0-0.1,0-0.1c0,0,0-0.1,0-0.1c0,0,0-0.1,0-0.1s0-0.1,0-0.1s0-0.1,0-0.1
				c0,0,0-0.1,0-0.1v0c0,0,0-0.1,0-0.1c0,0,0-0.1,0-0.1s0-0.1,0-0.1c0,0,0.1-0.1,0.1-0.1c0,0,0.1,0,0.1,0c0.1,0,0.2,0,0.3,0
				C81.7,2.1,81.7,2.1,81.8,2.1z M82.8,2.6L82.8,2.6C82.9,2.5,82.9,2.5,82.8,2.6L82.8,2.6C82.9,2.5,82.8,2.5,82.8,2.6
				C82.8,2.5,82.8,2.5,82.8,2.6L82.8,2.6z M80.3,11c-0.1,0-0.1,0.1-0.2,0.1C80.2,11.1,80.3,11.1,80.3,11l0.1,0
				C80.4,11,80.3,11,80.3,11L80.3,11L80.3,11z M55.6,3.1c0,0,0.1,0,0.1,0v0L55.6,3.1L55.6,3.1z M41.9,16C41.9,16,41.8,16.1,41.9,16
				c-0.1,0.1-0.1,0.1-0.1,0.2c0,0,0,0.1,0,0.1c0,0,0,0.1,0,0.1s0,0.1,0,0.1c0,0,0,0.1,0,0.1c0,0,0,0.1,0,0.1c0,0,0,0.1,0,0.1v0
				c0,0,0,0.1,0,0.1s0,0.1,0,0.1c0,0,0,0.1,0,0.1c0,0,0,0.1,0,0.1c0,0,0,0.1,0,0.1c0,0,0,0.1,0,0.1c0,0,0,0.1,0,0.1l0,0
				c0,0,0,0.1,0,0.1v0.3c0,0,0,0.1,0,0.1c0,0,0,0.1,0,0.1v0c0,0,0,0.1,0,0.1s0,0.1,0,0.1c0,0,0,0.1,0,0.1c0,0,0,0.1,0,0.1
				c0,0,0,0.1,0,0.1c0,0,0,0.1,0,0.1v0c0,0,0,0.1,0,0.1c0,0,0,0.1,0,0.1s0,0.1,0,0.1c0,0,0,0.1,0,0.1c0,0,0,0.1,0,0.1
				c0,0,0.1,0.1,0.1,0.1c0,0,0,0.1,0,0.1c0,0,0,0.1,0,0.1v0c1.4,0,2.8,0,4.2,0c0,0,0.1,0,0.1,0c0,0,0,0,0,0c0.3,0,0.5,0,0.8,0
				c0.1,0,0.1,0,0.2,0c0.1,0,0.2,0,0.3,0c0,0,0.1,0,0.1,0s0.1,0,0.1,0c0,0,0.1,0,0.1,0c0,0,0.1,0,0.1,0c0,0,0.1,0,0.1,0
				c0.1,0,0.1,0,0.2,0c0,0,0.1-0.1,0.1-0.1c0,0,0.1-0.1,0.1-0.1c0.1,0,0.1-0.1,0.2-0.1c0,0,0.1,0,0.1,0c0,0,0-0.1,0-0.1
				c0,0,0-0.1,0-0.1s0-0.1,0-0.1s0-0.1,0-0.1s0-0.1,0-0.1v0c0,0,0-0.1,0-0.1c0,0,0-0.1,0-0.1s0-0.1,0-0.1s0-0.1,0-0.1
				c0,0,0-0.1,0-0.1c0,0,0-0.1,0-0.1c0,0,0-0.1,0-0.1v0c0,0,0-0.1,0-0.1c0,0,0-0.1,0-0.1c0,0,0-0.1,0-0.1s0-0.1,0-0.1s0-0.1,0-0.1
				c0,0,0-0.1,0-0.1c0,0,0-0.1,0-0.1v0c0,0,0-0.1,0-0.1s0-0.1,0-0.1c0,0,0-0.1,0-0.1s0-0.1,0-0.1c0,0,0-0.1,0-0.1c0,0,0-0.1,0-0.1
				c0,0,0-0.1,0-0.1v0c0,0,0-0.1,0-0.1s0-0.1,0-0.1c0,0,0-0.1,0-0.1s0-0.1,0-0.1v-0.3c0,0,0-0.1,0-0.1v0c-1.5,0-3,0-4.5,0l0,0
				c0,0,0,0.1,0,0.1s0,0.1,0,0.1c0,0,0,0.1,0,0.1c0,0,0,0.1,0,0.1s0,0.1,0,0.1c0,0,0,0.1,0,0.1v0c0,0,0,0.1,0,0.1c0,0,0,0.1,0,0.1
				c0,0,0,0.1,0,0.1c0,0,0,0.1,0,0.1c0,0,0,0.1,0,0.1c0,0,0.1,0.1,0.1,0.1c0,0,0,0.1,0,0.1l0,0c0,0,0,0.1,0,0.1c0,0,0.1,0.1,0.1,0.1
				s0,0.1,0,0.1c0,0,0,0.1,0,0.1c0,0,0,0.1,0,0.1c0,0,0.1,0.1,0.1,0.1c0,0,0,0.1,0,0.1l0,0c0,0,0,0.1,0,0.1c0,0,0.1,0.1,0.1,0.1
				c0,0,0.1,0.1,0.1,0.1c0,0,0,0.1,0,0.1c0,0,0.1,0,0.1,0c0,0,0.1,0,0.1,0s0.1,0,0.1,0c0,0,0,0.1,0,0.1c0,0,0,0.1,0,0.1s0,0.1,0,0.1
				c0,0,0,0.1,0,0.1l0,0c0,0,0,0.1,0,0.1h0c0,0,0,0.1,0,0.1l0,0c0,0,0,0.1,0,0.1h0c0,0-0.1,0-0.1,0c-0.1,0-0.2,0-0.3,0
				c-0.1,0-0.1,0-0.1,0c0,0,0-0.1,0-0.1h0c-0.1,0-0.1,0-0.2,0c-0.1,0-0.1-0.1-0.2-0.1c0,0,0-0.1,0-0.1h0c-0.1,0-0.1,0-0.1,0
				c-0.1,0-0.1-0.1-0.1-0.1c0,0-0.1-0.1-0.1-0.1c-0.1,0-0.1,0-0.1,0c0,0-0.1-0.1-0.1-0.1c0,0-0.1-0.1-0.1-0.1c0,0-0.1-0.1-0.1-0.1
				c0,0-0.1-0.1-0.1-0.1c0,0-0.1-0.1-0.1-0.1s-0.1-0.1-0.1-0.1c0,0,0-0.1,0-0.1c0,0,0,0,0,0c0,0,0-0.1,0-0.1c0,0-0.1-0.1-0.1-0.1
				c0,0,0-0.1,0-0.1c0,0,0-0.1,0-0.1c0,0,0-0.1,0-0.1c0,0,0-0.1,0-0.1c0,0,0-0.1,0-0.1v0c0,0,0-0.1,0-0.1c0,0,0-0.1,0-0.1
				c0,0,0-0.1,0-0.1c0,0,0-0.1,0-0.1c0,0,0-0.1,0-0.1c0,0,0-0.1,0-0.1s0-0.1,0-0.1v0c0,0,0-0.1,0-0.1s0-0.1,0-0.1c0,0,0-0.1,0-0.1
				s0-0.1,0-0.1s0-0.1,0-0.1s0-0.1,0-0.1v0c-0.1,0-0.1,0-0.2,0c0,0-0.1,0-0.1,0c-0.1,0-0.1,0.1-0.2,0.1c-0.1,0-0.1,0-0.2,0
				C42,15.9,42,15.9,41.9,16C41.9,16,41.9,16,41.9,16z M44.5,18L44.5,18L44.5,18L44.5,18L44.5,18z M23.1,14.9L23.1,14.9
				c0.1,0,0.2,0,0.3,0c0.1,0,0.1,0,0.2,0c0,0,0.1,0,0.1,0c0.1,0,0.1,0,0.2,0c0.1,0,0.3-0.1,0.4-0.1c0.1,0,0.2-0.1,0.3-0.1
				c0.1,0,0.1-0.1,0.2-0.1c0.1,0,0.1,0,0.2,0c0.1,0,0.2-0.1,0.3-0.1c0,0,0,0,0.1,0c0,0,0-0.1,0.1-0.1c0.1,0,0.1-0.1,0.2-0.1
				c0.1,0,0.1-0.1,0.2-0.1c-7.5,0-15,0-22.5,0c0,0,0,0.1,0,0.1v0c0,0,0,0,0,0h0c0,0-0.1,0-0.1,0l-0.1,0.1v0c0,0,0,0,0,0v0
				c0,0,0,0,0,0v0.7c0,0,0,0,0,0v3c0,0,0,0,0,0v0.6c0,0,0,0,0,0v1.4c0,0,0,0,0,0v0.1h0v0.1c0,0,0,0,0,0v0.1h0v0l0,0v0h0
				c0,0,0.1,0,0.1,0s0,0,0,0c0,0,0.1,0,0.1,0h0.1v0c0,0.1,0,0.1,0,0.1C3,21,3,21,3,21c0,0,0,0,0.1,0c0,0,0,0.1,0,0.1l0,0v0
				c0,0,0,0.1,0,0.1c0,0,0,0.1,0,0.1c0,0-0.1,0-0.1,0c0,0-0.1,0-0.1,0c0,0,0,0,0,0c0,0,0,0,0,0.1c0,0,0.1,0,0.1,0c0,0,0.1,0,0.1,0
				c0.1,0,0.1,0,0.2,0c0.1,0,0.2,0,0.3,0c0.1,0,0.1,0,0.2,0c0,0,0.1,0,0.1,0c0.1,0,0.1,0,0.2,0c0.1,0,0.2-0.1,0.3-0.1
				c0.1,0,0.2-0.1,0.3-0.1C4.4,21,4.5,21,4.5,21c0.1,0,0.1,0,0.2,0c0.1,0,0.2,0,0.3,0c0.1,0,0.1,0,0.2,0c0,0,0.1,0,0.1,0
				c0.1,0,0.1,0,0.2,0c0.1,0,0.2-0.1,0.3-0.1c0.1,0,0.2-0.1,0.3-0.1c0.1,0,0.2-0.1,0.3-0.1c0.1,0,0.1,0,0.2,0c0.1,0,0.2-0.1,0.3-0.1
				c0.1,0,0.2-0.1,0.3-0.1c0.1,0,0.2-0.1,0.3-0.1c0.1,0,0.2-0.1,0.3-0.1C7.4,20,7.5,20,7.6,20c0.1,0,0.2-0.1,0.3-0.1
				c0.1,0,0.2-0.1,0.3-0.1c0.1,0,0.2-0.1,0.3-0.1c0.1,0,0.2-0.1,0.3-0.1c0.1,0,0.2-0.1,0.3-0.1c0.1,0,0.2,0,0.3,0c0.1,0,0.2,0,0.3,0
				c0,0,0.1,0,0.1,0c0.1,0,0.1,0,0.2,0c0.1,0,0.2,0,0.3,0c0.1,0,0.2-0.1,0.2-0.1c0.1,0,0.2-0.1,0.3-0.1c0.1,0,0.2-0.1,0.3-0.1
				c0.1,0,0.2-0.1,0.3-0.1c0.1,0,0.2-0.1,0.3-0.1c0.1,0,0.1-0.1,0.2-0.1c0.1,0,0.2-0.1,0.2-0.1c0.1,0,0.2-0.1,0.2-0.1
				c0.1,0,0.1-0.1,0.2-0.1c0,0,0.1,0,0.1,0c0.1,0,0.1,0,0.2,0c0.1,0,0.2,0,0.3,0c0.2,0,0.4-0.1,0.6-0.1c0.1,0,0.2-0.1,0.3-0.1
				c0.1,0,0.2-0.1,0.2-0.1c0.1,0,0.2-0.1,0.3-0.1c0.1,0,0.2-0.1,0.3-0.1c0.1,0,0.2,0,0.2,0c0.1,0,0.1,0,0.2,0c0,0,0.1,0,0.1,0
				c0.1,0,0.1,0,0.2,0c0.1,0,0.2-0.1,0.3-0.1c0.1,0,0.2-0.1,0.3-0.1c0.1,0,0.2-0.1,0.3-0.1c0.1,0,0.2-0.1,0.3-0.1c0.1,0,0.2,0,0.3,0
				c0.1,0,0.2-0.1,0.3-0.1c0.1,0,0.2-0.1,0.3-0.1c0.1,0,0.2-0.1,0.3-0.1c0.1,0,0.2,0,0.3,0c0.1,0,0.3-0.1,0.4-0.1
				c0.1,0,0.2-0.1,0.3-0.1c0.1,0,0.2-0.1,0.3-0.1c0.1,0,0.2-0.1,0.3-0.1c0.1,0,0.2-0.1,0.3-0.1c0.1,0,0.2-0.1,0.3-0.1
				c0.1,0,0.2-0.1,0.3-0.1c0.1,0,0.2-0.1,0.3-0.1c0.1,0,0.1-0.1,0.2-0.1c0.1,0,0.1-0.1,0.2-0.1c0,0,0.1,0,0.1,0c0,0,0.1,0,0.1,0
				c0,0,0.1,0,0.1,0c0.1,0,0.1,0,0.2,0c0,0,0,0,0.1,0c0.1,0,0.1,0,0.2,0c0.1,0,0.2,0,0.3,0c0,0,0.1,0,0.1,0c0.1,0,0.1,0,0.2,0
				c0.1,0,0.2-0.1,0.3-0.1c0.1,0,0.2-0.1,0.3-0.1c0.1,0,0.2-0.1,0.3-0.1c0.1,0,0.1-0.1,0.2-0.1l0.1,0l0,0c0,0,0,0,0.1,0l0.9-0.3
				C22.9,15,23,14.9,23.1,14.9z M31.6,14.9c-0.1,0-0.2,0-0.4,0.1C31.1,15,31.1,15,31,15.1c-0.1,0-0.2,0.1-0.3,0.1c0,0,0.1,0,0.1,0
				c0.2,0,0.4,0,0.6,0c0,0,0.1,0,0.1,0c0,0,0.1,0,0.1,0l0,0c0,0,0.1,0,0.1,0c-0.1-0.1-0.1-0.1-0.2-0.2C31.6,15,31.6,15,31.6,14.9
				C31.6,14.9,31.6,14.9,31.6,14.9z"/>
		</g>
	</g>
</g>
<g id="guides">
</g>
<path fill="#FFFFFF" d="M93.2,19.7c0,0,0.2,2.6,2.7,4.1c0.5,0.3,1.3,0.8,1.7,1c1.9,1.2,2.9,0.9,4.1,0.8c2.3-0.2,6.9-3,7.4-5.6
	c0.5-2.6-0.8-5-2.4-5.4c-1.6-0.4-3.1,0.3-3.5,1.8c-0.5,1.5,1,2.2,1,2.2c-1.6,0.3-2.2-1.3-1.8-2.7c0.3-1.4,1.8-3.1,4.7-2.5
	c2.9,0.7,3.4,3.3,3.4,3.3c1-1.8,3.3-2.8,6-1.8s1.8,3.2,1.8,3.2c-0.1-1.6-1.4-2.3-3.3-2.7c-1.8-0.3-3.6,0.5-4.2,3.2
	c-0.5,2.7,0.8,6.2,3.8,7c3.1,0.8,7.7-0.1,9.5-3.6c1.8-3.5,1.8-9.8-2.9-13.2s-9.3,0.1-9.3,0.1s-0.4-3.8-5.4-4c-5-0.3-5.7,5.3-5.7,5.3
	c-0.5-2.7-5.2,0.3-6.6,2.7c-1,1.7-1.6,4.3-1,6.1C93.2,19.2,93.2,19.6,93.2,19.7z"/>
</svg>
