<?xml version="1.0" encoding="utf-8"?>
<!-- Generator: Adobe Illustrator 21.0.2, SVG Export Plug-In . SVG Version: 6.00 Build 0)  -->
<svg version="1.1" id="Слой_1" xmlns="http://www.w3.org/2000/svg" xmlns:xlink="http://www.w3.org/1999/xlink" x="0px" y="0px"
	 width="83.2px" height="32px" viewBox="0 0 83.2 32" enable-background="new 0 0 83.2 32" xml:space="preserve">
<g id="Selected_Items">
	<g>
		<g id="Selected_Items_5_">
			<path fill="#FFFFFF" d="M8.4,1.3v0.2l0.4,0v0.4L36,1.9V1.6l0.2-0.2l0.8,0l0.5,0.3v0.2h0.2v0.4L38,2.6h0.5l0.1,0.1
				c0.1,0.1,0.1,0.1,0.2,0.2c0,0.1,0,0.1,0,0.2c0,0,0,0.1,0,0.1h8.5l0.1,0.1c0,0,0.1,0.1,0.1,0.2c0.1,0.3,0.2,0.6,0.2,0.9
				c0,0.4,0,0.7-0.1,1c-0.1,0.2-0.1,0.3-0.2,0.4l-8.7,0l-0.2,0.3h-0.8v1.5c-0.1,0.2-0.1,0.3-0.2,0.3c-0.1,0.1-0.1,0.1-0.2,0.2
				l-0.1,0h-5.8l-0.2,0.4H32c0.4,0.1,0.8,0.2,1.2,0.3C33.5,9,33.8,9.2,34,9.4c0.1,0.1,0.2,0.2,0.3,0.2l-0.2,0.2h-3.3l5.5,18.9
				L36,28.8l0.1,0c0.1,0,0.2,0,0.2,0.1c0.1,0.1,0.2,0.1,0.3,0.2v0.5c0,0-0.1,0.1-0.1,0.1c-0.1,0.1-0.3,0.2-0.5,0.2
				c-0.2,0.1-0.4,0.2-0.5,0.2l-0.2,0h-0.5l-0.1,0.2h-1.3v0.4h-2.9v-0.4L24.7,9.9l-0.3-0.2l-0.5,1l0,0.9h0.1l0,0.2l0.2,0v2.5l-0.2,0
				v0.2l-1.5,0.5c-0.4,0.2-0.9,0.3-1.5,0.5c-1.2,0.3-2.1,0.4-2.8,0.3c-0.7-0.1-1.3-0.2-2-0.5c-0.2-0.1-0.4-0.1-0.6-0.2l-0.2-0.1
				l-0.4,0.3l-0.7,0.2L14,15.7L12.6,19c-1,2.4-1.6,4-2,4.9c-0.1,0.1-0.1,0.2-0.1,0.3c0,0.2,0,0.3,0,0.5c0,0.3,0.1,0.8,0.2,1.3l0.7,0
				c0.1,0,0.2,0,0.3,0.1c0.1,0,0.2,0.1,0.2,0.2c0,0.1,0,0.1,0.1,0.1l0,0.1l-0.4,0.4c-0.4,0.3-0.7,0.5-1,0.6
				c-0.4,0.1-0.8,0.2-1.4,0.3L8.4,28l-6.7,0.1l-0.2-0.3l-0.1-0.8l-0.5-0.1c-0.2,0-0.3,0-0.3-0.1c-0.1,0-0.1,0-0.1-0.1l0-0.1
				c0-0.1,0-0.3,0-0.5c-0.1-0.1-0.1-0.2-0.1-0.3c0-0.2,0-0.4,0-0.8c0-0.4,0-0.7,0.1-1l3.4-9.2c0.2-0.2,0.4-0.5,0.5-0.8
				c0.4-0.6,0.6-0.9,0.7-1.1c0.1-0.3,0.1-0.5,0.2-0.6c0.1-0.2,0-0.5,0-0.7c-0.1-0.3-0.2-0.6-0.4-0.9c-0.2-0.3-0.3-0.6-0.6-0.8
				C3.9,9.9,3.6,9.6,3.2,9.3L2.7,8.9V8.2c0.1,0,0.3-0.1,0.5-0.2c0.4-0.2,0.7-0.4,1-0.8C4.5,6.9,4.7,6.5,4.8,6c0-0.1,0.1-0.3,0.1-0.4
				V5.5c0,0-0.1-0.1-0.1-0.1C4.7,5.3,4.6,5.2,4.5,5.1C4.4,5,4.3,5,4.2,5L4,4.9c-0.1,0-0.2,0-0.3,0c-0.3,0-0.4-0.1-0.6-0.2
				C2.9,4.6,2.8,4.5,2.7,4.3c-0.1-0.2-0.1-0.5,0-0.8C2.8,3.2,3,3,3.3,3c0.2-0.1,0.4-0.1,0.6,0C4,3,4.1,3.1,4.4,3.4
				c0.1,0.1,0.2,0.3,0.3,0.4v0.4l0.2,0.2l0-0.5C5,3.8,5,3.7,5,3.5C5.1,3.3,5.2,3,5.4,2.9C5.5,2.7,5.7,2.5,6,2.4
				c0.2-0.1,0.3-0.1,0.4-0.2V1.9h1.2V1.3H8.4z M18.2,10c-0.2,0-0.4,0.1-0.7,0.2c-0.5,0.2-1,0.6-1.3,1c-0.4,0.4-0.6,0.9-0.7,1.5
				c-0.1,0.3-0.1,0.5-0.1,0.7l0,0.2c0.1,0.1,0.1,0.3,0.2,0.4c0.2,0.4,0.6,0.8,1.2,1c0.3,0.2,0.8,0.3,1.4,0.3c0.6,0.1,1.2,0.1,1.7,0
				c1.1-0.3,2-0.7,2.7-1.2c0.2-0.2,0.3-0.3,0.5-0.5c0.1-0.1,0.1-0.3,0.2-0.5c0-0.1,0-0.4,0-1c0-0.6,0-1-0.1-1.2
				c0-0.2-0.2-0.4-0.5-0.8c-0.3-0.4-0.5-0.6-0.7-0.7c-0.2-0.1-0.4-0.2-0.7-0.2c-0.2,0-0.3,0-0.6,0.1c-0.2,0.1-0.3,0.2-0.4,0.3
				l-0.1,0.2l0.2,0l0,0.4c0,0-0.1,0.1-0.1,0.1c-0.1,0.1-0.1,0.2-0.2,0.3c-0.2,0.4-0.3,0.7-0.3,1.1c0,0.4,0,0.7,0.1,0.9
				c0,0.2,0.2,0.4,0.3,0.7c0.1,0.2,0.3,0.4,0.7,0.6c0.2,0.1,0.4,0.2,0.5,0.2v0.2c-0.2,0-0.5,0-0.8-0.1c-0.6-0.2-1-0.5-1.4-1
				C19.2,13,19.1,12.6,19,12c0-0.2-0.1-0.4-0.1-0.6v-0.2c0-0.1,0-0.2-0.1-0.4c-0.1-0.3-0.1-0.4-0.2-0.4c0-0.1-0.2-0.1-0.3-0.3
				L18.2,10z"/>
		</g>
	</g>
</g>
<g id="guides">
</g>
<g id="Flash_2_">
	<path fill="#FFFFFF" d="M73.6,11.5c0,2.2-0.8,4.2-2.4,5.8c-1.6,1.6-3.5,2.4-5.8,2.4c-2.2,0-4.2-0.8-5.8-2.4
		c-1.6-1.6-2.4-3.5-2.4-5.8c0-0.6,0.1-1.1,0.2-1.7c0.2-0.1,0.4-0.1,0.6-0.3c0.8-0.4,1.5-0.8,2.3-1.1c0.1,0,0.3-0.1,0.4-0.2
		c-0.7,1-1.1,2.1-1,3.4c0,1.6,0.6,3,1.7,4.1c1.1,1.1,2.5,1.7,4.1,1.7c1.6,0,3-0.6,4.1-1.7c1.1-1.1,1.7-2.5,1.7-4.1
		c0-1.6-0.5-2.9-1.6-4.1c0.7,0.2,1.4,0.4,2.1,0.8c0,0,0,0,0,0c0.4,0.2,0.8,0.4,1.2,0.5C73.5,9.8,73.6,10.6,73.6,11.5z"/>
	<path fill="#FFFFFF" d="M81.4,18.6c-0.7-1.1-1.5-2.2-2.4-3.2c-0.2,0.2-0.4,0.4-0.6,0.6c-3.8,3.8-8.4,5.7-13.8,5.7s-10-1.9-13.9-5.7
		L50.7,16c0.7,1.1,1.6,2.1,2.5,3.1c3.8,3.8,8.4,5.7,13.9,5.7s10-1.9,13.8-5.7C81.1,19,81.3,18.8,81.4,18.6L81.4,18.6z"/>
	<path fill="#FFFFFF" d="M79,15.4c0.9,1,1.7,2.1,2.4,3.2c0.7-0.7,1.3-1.4,1.8-2.1c-0.6-1-1-1.6-2.4-3.2C80.2,14,79.6,14.7,79,15.4
		L79,15.4z"/>
	<polygon fill="#FF0000" points="69.7,13.2 67.4,14.3 67,16.9 65.1,15.1 62.5,15.5 63.8,13.2 62.5,10.8 65.1,11.3 67,9.4 67.4,12 	
		"/>
	<path fill="#FFFFFF" d="M78.4,14.8c0.2,0.2,0.4,0.4,0.6,0.6c0.6-0.7,1.2-1.4,1.8-2.2c-0.2-0.2-0.4-0.4-0.6-0.6
		c-3.8-3.8-8.4-5.7-13.8-5.7c-5.4,0-10,1.9-13.9,5.7c-0.8,0.9-1.6,1.8-2.3,2.7l0.1,0.1c0.1-0.2,0.3-0.4,0.5-0.5
		c3.8-3.8,8.4-5.7,13.9-5.7S74.6,11,78.4,14.8L78.4,14.8z"/>
</g>
</svg>
