<?xml version="1.0" encoding="utf-8"?>
<!-- Generator: Adobe Illustrator 21.0.2, SVG Export Plug-In . SVG Version: 6.00 Build 0)  -->
<svg version="1.1" id="Слой_1" xmlns="http://www.w3.org/2000/svg" xmlns:xlink="http://www.w3.org/1999/xlink" x="0px" y="0px"
	 width="83px" height="32px" viewBox="0 0 83 32" enable-background="new 0 0 83 32" xml:space="preserve">
<g id="Selected_Items">
	<g>
		<g id="Selected_Items_5_">
			<path fill="#FFFFFF" d="M8.4,1.3v0.2l0.4,0v0.4L36,1.9V1.6l0.2-0.2l0.8,0l0.5,0.3v0.2h0.2v0.4L38,2.6h0.5l0.1,0.1
				c0.1,0.1,0.1,0.1,0.2,0.2c0,0.1,0,0.1,0,0.2c0,0,0,0.1,0,0.1h8.5l0.1,0.1c0,0,0.1,0.1,0.1,0.2c0.1,0.3,0.2,0.6,0.2,0.9
				c0,0.4,0,0.7-0.1,1c-0.1,0.2-0.1,0.3-0.2,0.4l-8.7,0l-0.2,0.3h-0.8v1.5c-0.1,0.2-0.1,0.3-0.2,0.3c-0.1,0.1-0.1,0.1-0.2,0.2
				l-0.1,0h-5.8l-0.2,0.4H32c0.4,0.1,0.8,0.2,1.2,0.3C33.5,9,33.8,9.2,34,9.4c0.1,0.1,0.2,0.2,0.3,0.2l-0.2,0.2h-3.3l5.5,18.9
				L36,28.8l0.1,0c0.1,0,0.2,0,0.2,0.1c0.1,0.1,0.2,0.1,0.3,0.2v0.5c0,0-0.1,0.1-0.1,0.1c-0.1,0.1-0.3,0.2-0.5,0.2
				c-0.2,0.1-0.4,0.2-0.5,0.2l-0.2,0h-0.5l-0.1,0.2h-1.3v0.4h-2.9v-0.4L24.7,9.9l-0.3-0.2l-0.5,1l0,0.9h0.1l0,0.2l0.2,0v2.5l-0.2,0
				v0.2l-1.5,0.5c-0.4,0.2-0.9,0.3-1.5,0.5c-1.2,0.3-2.1,0.4-2.8,0.3c-0.7-0.1-1.3-0.2-2-0.5c-0.2-0.1-0.4-0.1-0.6-0.2l-0.2-0.1
				l-0.4,0.3l-0.7,0.2L14,15.7L12.6,19c-1,2.4-1.6,4-2,4.9c-0.1,0.1-0.1,0.2-0.1,0.3c0,0.2,0,0.3,0,0.5c0,0.3,0.1,0.8,0.2,1.3l0.7,0
				c0.1,0,0.2,0,0.3,0.1c0.1,0,0.2,0.1,0.2,0.2c0,0.1,0,0.1,0.1,0.1l0,0.1l-0.4,0.4c-0.4,0.3-0.7,0.5-1,0.6
				c-0.4,0.1-0.8,0.2-1.4,0.3L8.4,28l-6.7,0.1l-0.2-0.3l-0.1-0.8l-0.5-0.1c-0.2,0-0.3,0-0.3-0.1c-0.1,0-0.1,0-0.1-0.1l0-0.1
				c0-0.1,0-0.3,0-0.5c-0.1-0.1-0.1-0.2-0.1-0.3c0-0.2,0-0.4,0-0.8c0-0.4,0-0.7,0.1-1l3.4-9.2c0.2-0.2,0.4-0.5,0.5-0.8
				c0.4-0.6,0.6-0.9,0.7-1.1c0.1-0.3,0.1-0.5,0.2-0.6c0.1-0.2,0-0.5,0-0.7c-0.1-0.3-0.2-0.6-0.4-0.9c-0.2-0.3-0.3-0.6-0.6-0.8
				C3.9,9.9,3.6,9.6,3.2,9.3L2.7,8.9V8.2c0.1,0,0.3-0.1,0.5-0.2c0.4-0.2,0.7-0.4,1-0.8C4.5,6.9,4.7,6.5,4.8,6c0-0.1,0.1-0.3,0.1-0.4
				V5.5c0,0-0.1-0.1-0.1-0.1C4.7,5.3,4.6,5.2,4.5,5.1C4.4,5,4.3,5,4.2,5L4,4.9c-0.1,0-0.2,0-0.3,0c-0.3,0-0.4-0.1-0.6-0.2
				C2.9,4.6,2.8,4.5,2.7,4.3c-0.1-0.2-0.1-0.5,0-0.8C2.8,3.2,3,3,3.3,3c0.2-0.1,0.4-0.1,0.6,0C4,3,4.1,3.1,4.4,3.4
				c0.1,0.1,0.2,0.3,0.3,0.4v0.4l0.2,0.2l0-0.5C5,3.8,5,3.7,5,3.5C5.1,3.3,5.2,3,5.4,2.9C5.5,2.7,5.7,2.5,6,2.4
				c0.2-0.1,0.3-0.1,0.4-0.2V1.9h1.2V1.3H8.4z M18.2,10c-0.2,0-0.4,0.1-0.7,0.2c-0.5,0.2-1,0.6-1.3,1c-0.4,0.4-0.6,0.9-0.7,1.5
				c-0.1,0.3-0.1,0.5-0.1,0.7l0,0.2c0.1,0.1,0.1,0.3,0.2,0.4c0.2,0.4,0.6,0.8,1.2,1c0.3,0.2,0.8,0.3,1.4,0.3c0.6,0.1,1.2,0.1,1.7,0
				c1.1-0.3,2-0.7,2.7-1.2c0.2-0.2,0.3-0.3,0.5-0.5c0.1-0.1,0.1-0.3,0.2-0.5c0-0.1,0-0.4,0-1c0-0.6,0-1-0.1-1.2
				c0-0.2-0.2-0.4-0.5-0.8c-0.3-0.4-0.5-0.6-0.7-0.7c-0.2-0.1-0.4-0.2-0.7-0.2c-0.2,0-0.3,0-0.6,0.1c-0.2,0.1-0.3,0.2-0.4,0.3
				l-0.1,0.2l0.2,0l0,0.4c0,0-0.1,0.1-0.1,0.1c-0.1,0.1-0.1,0.2-0.2,0.3c-0.2,0.4-0.3,0.7-0.3,1.1c0,0.4,0,0.7,0.1,0.9
				c0,0.2,0.2,0.4,0.3,0.7c0.1,0.2,0.3,0.4,0.7,0.6c0.2,0.1,0.4,0.2,0.5,0.2v0.2c-0.2,0-0.5,0-0.8-0.1c-0.6-0.2-1-0.5-1.4-1
				C19.2,13,19.1,12.6,19,12c0-0.2-0.1-0.4-0.1-0.6v-0.2c0-0.1,0-0.2-0.1-0.4c-0.1-0.3-0.1-0.4-0.2-0.4c0-0.1-0.2-0.1-0.3-0.3
				L18.2,10z"/>
		</g>
	</g>
</g>
<g id="guides">
</g>
<path fill="#FFFFFF" d="M51,19.4c0,0,0.2,2.6,2.7,4.1c0.5,0.3,1.3,0.8,1.7,1c1.9,1.2,2.9,0.9,4.1,0.8c2.3-0.2,6.9-3,7.4-5.6
	c0.5-2.6-0.8-5-2.4-5.4c-1.6-0.4-3.1,0.3-3.5,1.8c-0.5,1.5,1,2.2,1,2.2c-1.6,0.3-2.2-1.3-1.8-2.7c0.3-1.4,1.8-3.1,4.7-2.5
	c2.9,0.7,3.4,3.3,3.4,3.3c1-1.8,3.3-2.8,6-1.8s1.8,3.2,1.8,3.2c-0.1-1.6-1.4-2.3-3.3-2.7c-1.8-0.3-3.6,0.5-4.2,3.2
	c-0.5,2.7,0.8,6.2,3.8,7c3.1,0.8,7.7-0.1,9.5-3.6c1.8-3.5,1.8-9.8-2.9-13.2s-9.3,0.1-9.3,0.1s-0.4-3.8-5.4-4c-5-0.3-5.7,5.3-5.7,5.3
	c-0.5-2.7-5.2,0.3-6.6,2.7c-1,1.7-1.6,4.3-1,6.1C50.9,19,51,19.4,51,19.4z"/>
</svg>
