<?xml version="1.0" encoding="utf-8"?>
<!-- Generator: Adobe Illustrator 21.0.2, SVG Export Plug-In . SVG Version: 6.00 Build 0)  -->
<svg version="1.1" id="Слой_1" xmlns="http://www.w3.org/2000/svg" xmlns:xlink="http://www.w3.org/1999/xlink" x="0px" y="0px"
	 width="126.4px" height="32px" viewBox="0 0 126.4 32" enable-background="new 0 0 126.4 32" xml:space="preserve">
<g id="Selected_Items">
	<g>
		<g id="Selected_Items_6_">
			<path fill="#FFFFFF" d="M50.3,3.3c0.1,0,0.1,0,0.3,0l0,1l0.2,1.4c-0.1,0.3-0.1,0.6-0.3,0.9c-0.1,0.3-0.1,0.5-0.3,0.8
				c-0.1,0.4-0.2,0.7-0.3,0.9c-0.2,0.7-0.3,1.2-0.5,1.6c-0.1,0.4-0.2,0.6-0.3,0.8C49,10.9,49,11,48.9,11c0,0.1-0.1,0.1-0.1,0.1H29.3
				c0,0-0.2,0-0.6,0.1c-0.4,0.2-0.8,0.5-1.3,0.9c-0.4,0.4-0.8,1-1.2,1.9c-0.4,0.8-0.6,1.9-0.6,3.3v0.5h-0.1c0,0-0.3,0.1-0.8,0.2
				c-0.5,0.1-1.1,0.2-1.9,0.3c-0.7,0.1-1.5,0.1-2.3,0.1c-0.8,0-1.6-0.2-2.2-0.4c-0.2,0.1-0.5,0.2-0.8,0.6c-0.3,0.4-0.5,0.8-0.5,1.2
				c0,0.3-0.1,0.8-0.3,1.6c-0.1,0.8-0.3,1.7-0.5,2.6c-0.2,0.9-0.3,1.7-0.4,2.5c-0.2,0.7-0.3,1.2-0.3,1.3l0.7,1.9H16
				c-1.3,0.2-2.7,0.3-4.1,0.5c-1.2,0.1-2.5,0.2-3.8,0.2c-1.4,0-2.7,0-4-0.2c-0.1,0-0.2,0-0.3,0c-0.2-0.1-0.4-0.2-0.5-0.4
				C3.1,29.2,3,28.7,3,28c0-0.5,0-1,0.1-1.7c0.1-0.7,0.3-1.5,0.6-2.4c0.3-0.9,0.6-2,1.1-3.3C5.4,19.4,6,18,6.7,16.4v-0.2
				c0-0.1,0-0.2,0-0.3c0-0.2,0-0.4,0-0.6c0-0.6-0.1-1.1-0.4-1.7c-0.2-0.6-0.8-0.9-1.7-1.1c-0.1,0-0.3,0-0.7,0c-0.5,0-0.9,0-1.5-0.1
				c-0.5,0-1,0-1.5,0c-0.4,0-0.7,0-0.7,0l-0.1-0.1v-0.1c0-0.1,0-0.2,0.1-0.3c0.1-0.3,0.4-0.6,0.9-0.9c0.5-0.3,1.4-0.6,2.6-0.9
				c0,0,0.1-0.2,0.3-0.5c0.2-0.3,0.3-0.7,0.3-1.1c0-0.2,0-0.3,0-0.4c0-0.1-0.1-0.3-0.2-0.5C4,7.3,3.9,7.2,3.8,7
				C3.7,6.8,3.4,6.4,3.2,5.8V5L4,4.8c0.1,0.1,0.2,0.1,0.2,0.1C4.3,5,4.4,5.1,4.4,5.1h1.4C5.9,5,5.9,4.9,6,4.7c0-0.1,0.1-0.2,0.2-0.3
				l1.3-1.1c0.1,0,0.1-0.1,0.3-0.1C7.8,3.2,7.9,3.1,8,3V2.4c0-0.1,0-0.3,0-0.5h1.6L10.7,3l1.9,0l0.6-0.3l7.7,0
				C21,2.7,21,2.7,21.1,2.8C21.2,3,21.3,3,21.4,3l9.9,0.2l0.1,0.1c0,0.1,0.1,0.1,0.2,0.1h0.5c0-0.1,0-0.1,0-0.1c0-0.1,0-0.1,0-0.1
				C32.3,3.1,32.4,3,32.4,3L43.6,3c0,0.1,0,0.2,0,0.2c0,0.1,0,0.2,0,0.2c0,0.1,0,0.1,0,0.1h0.6c0,0,0-0.1,0.1-0.3
				c0-0.1,0.1-0.1,0.2-0.2h2.2c0.1,0,0.2-0.1,0.4-0.2c0.2-0.1,0.4-0.3,0.6-0.4c0.2-0.1,0.4-0.2,0.6-0.3c0.2-0.1,0.4-0.1,0.5-0.1
				c0.2,0,0.3,0.1,0.3,0.3c0.1,0.3,0.1,0.4,0.1,0.5c0.1,0.1,0.3,0.1,0.5,0.2c0.1,0,0.2,0.1,0.3,0.1c0,0,0,0,0.1,0
				C50.1,3.3,50.3,3.3,50.3,3.3z M20,11.7c-0.3,0-0.5,0.1-0.7,0.3c-0.2,0.2-0.3,0.4-0.3,0.7v3.1c0,0.3,0.1,0.5,0.3,0.7
				c0.2,0.2,0.4,0.3,0.7,0.3h3.3c0.3,0,0.5-0.1,0.7-0.3c0.2-0.2,0.3-0.5,0.3-0.7v-3.1c0-0.3-0.1-0.5-0.3-0.7
				c-0.2-0.2-0.4-0.3-0.7-0.3C23.3,11.7,20,11.7,20,11.7z"/>
		</g>
	</g>
</g>
<g id="guides">
</g>
<g id="Flash_2_">
	<path fill="#FFFFFF" d="M77.6,11.2c0,2.2-0.8,4.2-2.4,5.8c-1.6,1.6-3.5,2.4-5.8,2.4c-2.2,0-4.2-0.8-5.8-2.4
		c-1.6-1.6-2.4-3.5-2.4-5.8c0-0.6,0.1-1.1,0.2-1.7c0.2-0.1,0.4-0.1,0.6-0.3c0.8-0.4,1.5-0.8,2.3-1.1c0.1,0,0.3-0.1,0.4-0.2
		c-0.7,1-1.1,2.1-1,3.4c0,1.6,0.6,3,1.7,4.1c1.1,1.1,2.5,1.7,4.1,1.7c1.6,0,3-0.6,4.1-1.7c1.1-1.1,1.7-2.5,1.7-4.1
		c0-1.6-0.5-2.9-1.6-4.1c0.7,0.2,1.4,0.4,2.1,0.8c0,0,0,0,0,0c0.4,0.2,0.8,0.4,1.2,0.5C77.5,9.4,77.6,10.3,77.6,11.2z"/>
	<path fill="#FFFFFF" d="M85.4,18.2C84.8,17.1,83.9,16,83,15c-0.2,0.2-0.4,0.4-0.6,0.6c-3.8,3.8-8.4,5.7-13.8,5.7s-10-1.9-13.9-5.7
		l-0.1,0.1c0.7,1.1,1.6,2.1,2.5,3.1c3.8,3.8,8.4,5.7,13.9,5.7c5.4,0,10-1.9,13.8-5.7C85.1,18.6,85.3,18.4,85.4,18.2L85.4,18.2z"/>
	<path fill="#FFFFFF" d="M83,15c0.9,1,1.7,2.1,2.4,3.2c0.7-0.7,1.3-1.4,1.8-2.1c-0.6-1-1-1.6-2.4-3.2C84.3,13.6,83.7,14.3,83,15
		L83,15z"/>
	<polygon fill="#FF0000" points="73.7,12.8 71.4,13.9 71,16.6 69.2,14.7 66.6,15.1 67.8,12.8 66.6,10.5 69.2,10.9 71,9 71.4,11.6 	
		"/>
	<path fill="#FFFFFF" d="M82.4,14.4c0.2,0.2,0.4,0.4,0.6,0.6c0.6-0.7,1.2-1.4,1.8-2.2c-0.2-0.2-0.4-0.4-0.6-0.6
		c-3.8-3.8-8.4-5.7-13.8-5.7c-5.4,0-10,1.9-13.9,5.7c-0.8,0.9-1.6,1.8-2.3,2.7l0.1,0.1c0.1-0.2,0.3-0.4,0.5-0.5
		c3.8-3.8,8.4-5.7,13.9-5.7S78.6,10.6,82.4,14.4L82.4,14.4z"/>
</g>
<path fill="#FFFFFF" d="M94.5,19.1c0,0,0.2,2.6,2.7,4.1c0.5,0.3,1.3,0.8,1.7,1c1.9,1.2,2.9,0.9,4.1,0.8c2.3-0.2,6.9-3,7.4-5.6
	c0.5-2.6-0.8-5-2.4-5.4c-1.6-0.4-3.1,0.3-3.5,1.8c-0.5,1.5,1,2.2,1,2.2c-1.6,0.3-2.2-1.3-1.8-2.7c0.3-1.4,1.8-3.1,4.7-2.5
	c2.9,0.7,3.4,3.3,3.4,3.3c1-1.8,3.3-2.8,6-1.8s1.8,3.2,1.8,3.2c-0.1-1.6-1.4-2.3-3.3-2.7c-1.8-0.3-3.6,0.5-4.2,3.2
	c-0.5,2.7,0.8,6.2,3.8,7c3.1,0.8,7.7-0.1,9.5-3.6c1.8-3.5,1.8-9.8-2.9-13.2s-9.3,0.1-9.3,0.1s-0.4-3.8-5.4-4c-5-0.3-5.7,5.3-5.7,5.3
	c-0.5-2.7-5.2,0.3-6.6,2.7c-1,1.7-1.6,4.3-1,6.1C94.4,18.6,94.4,19,94.5,19.1z"/>
</svg>
