<?xml version="1.0" encoding="utf-8"?>
<!-- Generator: Adobe Illustrator 21.0.2, SVG Export Plug-In . SVG Version: 6.00 Build 0)  -->
<svg version="1.1" id="Слой_1" xmlns="http://www.w3.org/2000/svg" xmlns:xlink="http://www.w3.org/1999/xlink" x="0px" y="0px"
	 width="104.8px" height="32px" viewBox="0 0 104.8 32" enable-background="new 0 0 104.8 32" xml:space="preserve">
<g id="Selected_Items">
	<g>
		<g id="Selected_Items_7_">
			<path fill="#FFFFFF" d="M67.9,6.4C68,6.7,68,7,68,7.3c0,0.2,0,0.4,0,0.5c0,0.1,0,0.3,0,0.4c0,0,0,0,0,0.1c-0.1,0-0.1,0-0.1,0.1
				c0,0,0,0.2,0,0.5c0,0.3,0,0.6,0,1c0,0.4,0,0.7,0,1c0,0.3,0,0.5,0,0.6v0.3h-2.4c0,0,0,0.1-0.1,0.3c0,0-0.1,0-0.1,0
				c-0.1,0-0.2,0-0.5,0c-0.2,0-0.6,0-1.1,0s-1.2,0-2,0c-0.5,0-0.9,0-1.3,0c-0.4,0-0.7,0-1.1,0h-1c-0.2,0-0.4,0-0.6,0.1
				c-0.4,0.1-0.7,0.2-1.1,0.5c-0.4,0.3-0.7,0.6-1,0.9c-0.3,0.3-0.4,0.6-0.4,0.8c-0.1,0.3-0.1,0.5-0.1,0.8c0,0.2,0,0.4,0,0.5
				c0.2,0.3,0.2,0.5,0.1,0.6c-0.1,0.1-0.2,0.2-0.3,0.3v0.1c-0.1,0.1-0.3,0.2-0.6,0.2c-0.3,0.1-0.6,0.1-1,0.3
				c-0.4,0.1-0.8,0.3-1.4,0.4c-0.3,0.1-0.8,0.1-1.4,0.1c-0.6,0-1.4-0.1-2.4-0.3c-0.5-0.1-0.9-0.1-1.2,0c-0.3,0.1-0.5,0.2-0.7,0.3
				c-0.2,0.1-0.3,0.3-0.3,0.4l-1.5,5.3c0,0,0,0,0,0.1v0.1c0,0.2,0,0.4,0,0.6c0.1,0.3,0.1,0.7,0.2,1.3v0.6c0,0.6-0.1,1.1-0.4,1.5
				c-0.1,0.1-0.3,0.2-0.4,0.2c-0.1,0-0.2,0-0.2,0h-5.3l0-0.1c0,0-0.1,0-0.2,0c-0.1,0-0.1,0-0.2,0c-0.1,0-0.2,0-0.3-0.1
				c-0.3-0.2-0.5-0.6-0.5-1.1c0-0.1,0-0.2,0.1-0.3c0-0.1,0-0.2,0-0.2c-0.8,0-1.3-0.1-1.5-0.2c-0.3-0.1-0.4-0.2-0.5-0.3v-0.2
				c-0.1,0-0.1-0.1-0.1-0.2s0-0.1,0-0.2c0-0.1,0-0.1,0-0.2C35,24.5,35,24.3,35,24.1v-0.4c0-0.5,0.1-1,0.2-1.6
				c0.2-0.5,0.2-0.8,0.2-0.8h0v0c0.1-0.1,0.2-0.5,0.5-1.2c0.3-0.7,0.6-1.4,1-2.3c0.4-0.8,0.7-1.6,1-2.3c0.3-0.7,0.5-1.1,0.6-1.3
				c0.1-0.2,0.1-0.4,0.1-0.5c0-0.3-0.1-0.6-0.3-1c-0.2-0.3-0.4-0.5-0.8-0.6c-0.4-0.1-0.7-0.1-1-0.2c-0.3,0-0.5,0-0.6-0.1
				c-0.2-0.1-0.3-0.3-0.3-0.6v-0.1c0-0.2,0.1-0.4,0.2-0.5c0.2-0.1,0.3-0.2,0.5-0.2c0.1-0.1,0.2-0.2,0.2-0.2c0.1,0,0.1,0,0.2,0
				c0.2-0.1,0.4-0.3,0.6-0.6l0.2-0.2C37.7,9.3,37.9,9,38,8.6c0.1-0.4,0.2-0.7,0.2-0.8c0,0,0-0.2-0.1-0.6c-0.1-0.4-0.1-0.6-0.1-0.8
				V6.3C38,6,38.1,5.9,38.3,5.9c0.1-0.1,0.3-0.2,0.5-0.1c0.1,0.1,0.3,0.1,0.5,0.2C39.5,6,39.7,6,39.7,6C39.8,6,39.9,5.9,40,5.9
				c0.1,0,0.2-0.1,0.3-0.2c0.2,0,0.3-0.1,0.4-0.1c0.1,0,0.2-0.1,0.3-0.1c0.1-0.1,0.2-0.1,0.3-0.1h0.1V4.8h0.2c0.6,0,1,0.1,1.1,0.1
				C42.9,4.9,43,5,43,5.1c0.1,0.1,0.1,0.2,0.1,0.2c0,0.1,0,0.2,0,0.4h1.8c0.4,0,0.9,0,1.5,0c0.9,0,1.6,0,2.1,0c0.5,0,0.9,0,1.1,0
				c0.2,0,0.4,0,0.5,0h0.1c0.2,0.1,0.3,0.2,0.3,0.3h14.7v0c0-0.1,0-0.1,0.1-0.2c0.1-0.1,0.1-0.1,0.2-0.1c0.1,0,0.1,0,0.1-0.1
				c0,0,0.1-0.1,0.2-0.2c0.2-0.2,0.5-0.2,0.8-0.2c0.3,0,0.5,0.1,0.6,0.1l0.2,0.1l0.1,0.1c0.2,0.1,0.3,0.2,0.3,0.4
				C67.8,6.1,67.8,6.3,67.9,6.4z M48.8,12.5c-0.3,0-0.4,0-0.5,0c0,0-0.1,0-0.1,0h-0.1c-0.2,0.1-0.4,0.2-0.7,0.3
				c-0.3,0.2-0.4,0.4-0.5,0.6c-0.1,0.3-0.1,0.5-0.1,0.6c0,0.4,0,0.6,0.2,0.7v0h0.1c0,0.1,0.2,0.3,0.6,0.6l0.1,0
				c0.3,0.2,0.7,0.3,1.3,0.5c0.6,0.2,1.2,0.2,2,0.1c1.8-0.2,2.7-0.7,2.8-1.3c0.1-0.2,0.1-0.3,0.1-0.5c0-0.3-0.1-0.6-0.3-0.9
				c-0.2-0.3-0.5-0.6-1-0.8c-0.5,0-1,0-1.5,0c-0.5,0-0.9,0-1.3,0C49.5,12.5,49.2,12.5,48.8,12.5z M32.6,5.4c0.2,0,0.3,0.1,0.4,0.3
				c0,0.2,0.1,0.4,0.1,0.5c0.2,0.3,0.3,0.6,0.3,0.9c0,0.2,0,0.3-0.1,0.5c0,0.1-0.1,0.3-0.1,0.4v0.2c0,0,0,0.2,0,0.5
				c0,0.3,0,0.7-0.1,1c0,0.4,0,0.7-0.1,1c0,0.3,0,0.5,0,0.6v0.3h-2.3c-0.1,0-0.1,0.1-0.1,0.2c0,0,0,0.1-0.1,0.2l-0.1,0
				c-0.1,0-0.2,0-0.5,0c-0.2,0-0.6,0-1.1,0c-0.5,0-1.1,0-2,0c-0.4,0-0.9,0-1.3,0c-0.4,0-0.8,0-1.1,0h-1.1c-0.2,0-0.3,0-0.5,0.1
				c-0.4,0.1-0.8,0.2-1.1,0.5c-0.4,0.3-0.7,0.6-1,0.9c-0.3,0.3-0.4,0.6-0.4,0.8c0,0.3-0.1,0.5-0.1,0.8c0,0.2,0,0.4,0.1,0.5
				c0.1,0.3,0.1,0.5,0,0.6c-0.1,0.1-0.2,0.2-0.3,0.3v0.1c-0.1,0.1-0.3,0.2-0.6,0.2c-0.3,0.1-0.6,0.2-1,0.3c-0.4,0.1-0.7,0.2-1,0.3
				l-0.4,0.1c-0.3,0.1-0.8,0.1-1.4,0.1c-0.6-0.1-1.4-0.2-2.5-0.3c-0.5-0.1-0.9-0.1-1.2,0c-0.3,0.1-0.5,0.2-0.6,0.3
				c-0.1,0.1-0.2,0.3-0.3,0.4L9.6,23v0.2c0,0.2,0,0.4,0,0.6c0,0.3,0,0.7,0.1,1.3c0.1,0.2,0.1,0.4,0.1,0.6c0,0.7-0.1,1.1-0.4,1.4
				c-0.2,0.2-0.3,0.2-0.4,0.2c-0.1,0-0.1,0-0.2,0H3.4c0,0-0.2-0.1-0.6-0.3c-0.2-0.1-0.3-0.2-0.3-0.4c-0.1-0.2-0.1-0.5-0.1-0.7v-0.5
				c-0.7,0-1.1-0.1-1.4-0.2c0,0-0.1,0-0.1,0c-0.3-0.1-0.4-0.2-0.5-0.3c0,0,0-0.1,0-0.2c-0.1,0-0.1-0.1-0.1-0.2v-0.3
				c0-0.2,0-0.3,0-0.5c0-0.1,0-0.1,0-0.2c0-0.1,0-0.2,0-0.2c0-0.5,0.1-1,0.2-1.5c0.1-0.5,0.2-0.8,0.2-0.9v-0.1
				c0.1,0,0.2-0.3,0.4-0.8c0-0.1,0.1-0.2,0.1-0.3c0.3-0.7,0.6-1.5,1-2.3c0.4-0.8,0.7-1.6,1-2.4c0.3-0.7,0.5-1.1,0.6-1.2
				c0-0.3,0.1-0.5,0.1-0.5c0-0.3-0.1-0.7-0.3-1c-0.2-0.3-0.4-0.5-0.8-0.6c-0.4-0.1-0.7-0.1-1.1-0.2c-0.3,0-0.5,0-0.6-0.1l0,0
				c-0.2-0.2-0.2-0.4-0.2-0.5v0c0-0.3,0.1-0.4,0.2-0.5c0,0,0.1-0.1,0.1-0.1c0.2-0.1,0.3-0.2,0.5-0.2c0.1,0,0.1-0.1,0.2-0.1
				c0.1,0,0.1,0,0.2,0c0.2-0.1,0.4-0.3,0.6-0.6l0.1-0.2c0.2-0.2,0.4-0.5,0.5-0.9c0.1-0.4,0.2-0.6,0.2-0.8c0-0.1,0-0.3-0.1-0.6
				c0-0.4-0.1-0.6-0.1-0.8V6.2c0.1-0.2,0.1-0.4,0.3-0.4c0.2-0.1,0.4-0.1,0.5,0c0.1,0,0.3,0.1,0.5,0.2C4.8,5.9,5,5.9,5,5.9l0.5-0.2
				c0.1,0,0.3-0.1,0.4-0.2c0.1-0.1,0.2-0.1,0.3-0.1c0.1,0,0.2,0,0.3,0h0V4.6h0.3c0.6,0,0.9,0.1,1.1,0.1c0.1,0,0.2,0.1,0.2,0.2
				c0.1,0.2,0.1,0.5,0.1,0.7c0.1,0,0.3,0,0.7,0c0.4,0,0.7,0,1.1,0c0.4,0,0.9,0,1.5-0.1c0.9,0,1.6,0,2.1,0c0.5,0,0.9,0,1.1,0
				c0.2,0,0.4,0,0.4,0c0.1,0,0.1,0,0.2,0c0.1,0.1,0.1,0.2,0.2,0.3h14.8V5.9c0-0.1,0.1-0.2,0.1-0.3c0-0.1,0.1-0.1,0.1-0.1
				c0.1,0,0.1-0.1,0.2-0.2c0.2-0.2,0.4-0.3,0.8-0.2c0.4,0.1,0.6,0.1,0.6,0.2l0.1,0L32.6,5.4z M16.5,12.4c-0.5,0-0.9,0-1.3,0
				c-0.4,0-0.8,0-1.1,0c-0.3,0-0.4,0-0.5,0l-0.2,0.1c-0.2,0.1-0.4,0.2-0.7,0.3c-0.3,0.2-0.4,0.4-0.5,0.6c-0.1,0.2-0.1,0.4-0.1,0.6
				c0,0.4,0.1,0.6,0.2,0.7l0.1,0.1c0.1,0.1,0.1,0.1,0.2,0.2c0.1,0.1,0.2,0.2,0.4,0.4l0.2,0c0.2,0.2,0.6,0.3,1.3,0.5
				c0.6,0.2,1.3,0.2,1.9,0.1c1.8-0.3,2.7-0.7,2.9-1.3c0.1-0.1,0.1-0.3,0.1-0.6c0-0.3-0.1-0.6-0.3-0.9c-0.2-0.3-0.5-0.6-1-0.9
				C17.5,12.4,17,12.4,16.5,12.4z"/>
		</g>
	</g>
</g>
<g id="guides">
</g>
<path fill="#FFFFFF" d="M72.8,19.5c0,0,0.2,2.6,2.7,4.1c0.5,0.3,1.3,0.8,1.7,1c1.9,1.2,2.9,0.9,4.1,0.8c2.3-0.2,6.9-3,7.4-5.6
	c0.5-2.6-0.8-5-2.4-5.4c-1.6-0.4-3.1,0.3-3.5,1.8c-0.5,1.5,1,2.2,1,2.2c-1.6,0.3-2.2-1.3-1.8-2.7c0.3-1.4,1.8-3.1,4.7-2.5
	c2.9,0.7,3.4,3.3,3.4,3.3c1-1.8,3.3-2.8,6-1.8s1.8,3.2,1.8,3.2c-0.1-1.6-1.4-2.3-3.3-2.7c-1.8-0.3-3.6,0.5-4.2,3.2
	c-0.5,2.7,0.8,6.2,3.8,7c3.1,0.8,7.7-0.1,9.5-3.6c1.8-3.5,1.8-9.8-2.9-13.2S91.4,9,91.4,9S91,5.2,86,5c-5-0.3-5.7,5.3-5.7,5.3
	c-0.5-2.7-5.2,0.3-6.6,2.7c-1,1.7-1.6,4.3-1,6.1C72.7,19,72.8,19.4,72.8,19.5z"/>
</svg>
