<?xml version="1.0" encoding="utf-8"?>
<!-- Generator: Adobe Illustrator 21.0.2, SVG Export Plug-In . SVG Version: 6.00 Build 0)  -->
<svg version="1.1" id="Слой_1" xmlns="http://www.w3.org/2000/svg" xmlns:xlink="http://www.w3.org/1999/xlink" x="0px" y="0px"
	 width="113.4px" height="32px" viewBox="0 0 113.4 32" enable-background="new 0 0 113.4 32" xml:space="preserve">
<g id="Selected_Items">
	<g>
		<g id="Selected_Items_8_">
			<path fill="#FFFFFF" d="M77.2,11.7c0.1,0.4,0,0.8-0.2,1.4v0.1h-0.1c-0.1,0-0.3,0-0.8,0.1c-0.5,0-1,0.1-1.6,0.1
				c-0.6,0-1.1,0-1.6,0c-0.5,0-0.9-0.1-1-0.2c-0.1,0-0.1,0-0.2-0.1c-0.1,0-0.1,0-0.1,0H65c-0.2,0.1-0.4,0.1-0.6,0.2
				c-0.3,0-0.5,0.1-0.6,0.2c-0.1,0.1-0.3,0.2-0.6,0.2c-0.4,0-0.6,0-0.7,0c-0.1,0-0.2-0.1-0.4-0.3H62c0,0,0,0.1,0,0.2
				c-0.1,0.1-0.1,0.2-0.1,0.4v0c0,0.2-0.1,0.4-0.1,0.6c-0.1,0.3-0.2,0.5-0.4,0.8c-0.1,0.2-0.3,0.5-0.5,0.7c-0.3,0.2-0.5,0.3-0.8,0.3
				H44.2c-0.2,0-0.4,0.1-0.6,0.2v1.1c0,0.3,0,0.7,0,1.1c0,0.3-0.2,0.7-0.4,1c-0.3,0.2-0.7,0.3-1.2,0.3C41.5,20,41.1,20,40.6,20
				c-0.5-0.1-1-0.1-1.5-0.2c-0.5-0.1-0.9-0.2-1.3-0.2c-0.3-0.1-0.6-0.1-0.7-0.2c-0.2,0.1-0.4,0.3-0.7,0.5c-0.3,0.2-0.5,0.7-0.5,1.2
				V22l-0.2,0.1c-0.1,0.1-0.2,0.3-0.4,0.5c-0.2,0.3-0.3,0.5-0.3,0.7c0,0.2,0,0.3,0,0.4c0,0.1,0,0.2,0,0.2l0.2,0.3h-0.2
				c-0.1,0-0.2,0.2-0.4,0.6c-0.3,0.3-0.4,0.8-0.4,1.4v0.4l0.2,0.2H34c-0.2-0.1-0.5-0.1-0.9-0.2c-0.5,0-1-0.1-1.4-0.3
				c-0.5-0.1-1-0.3-1.4-0.5c-0.4-0.2-0.6-0.4-0.7-0.7L29.4,25c0.1-1.4,0.3-2.8,0.6-4.2c0.3-1.4,1-2.5,2.1-3.5c0-0.1,0.1-0.2,0.1-0.4
				c0-0.2,0-0.3,0-0.4c0-0.2-0.2-0.5-0.6-0.7c-0.2-0.1-0.6-0.2-1.2-0.2c-0.6,0-1.3,0.1-2,0.4c-1.7,0.6-2.9,1.9-3.5,3.8l-0.1,0
				c-0.5,0.4-0.9,0.6-1.2,0.6v0.1c0,0.3,0,0.7,0,1.3c0.1,0.6,0.1,1.2,0.1,1.9c0,0.7,0,1.4,0.1,2.1c0.1,0.8,0.1,1.5,0.2,2.1v0.2
				c-0.1,0-0.2,0.1-0.4,0.3c-0.3,0.2-0.7,0.4-1.2,0.6c-0.5,0.2-1.2,0.4-1.9,0.7c-0.7,0.2-1.6,0.2-2.6,0.2h-0.1
				c-0.2-2.2-0.3-4.2-0.3-5.9c-0.1-1.5-0.2-2.9-0.2-4.2s0-2,0-2.1c-1,0.2-2,0.3-2.8,0.5c-0.8,0.2-1.4,0.3-1.6,0.4c0,0,0,0.1,0,0.2
				c-0.1,0.1-0.1,0.2-0.1,0.3c0,0.5-0.1,0.8-0.4,0.8c-0.1,0-0.4,0.1-0.8,0.2c-0.5,0.1-0.8,0.1-1,0.3h-0.1c-0.1-0.1-0.2-0.3-0.2-0.4
				c-0.1-0.1-0.2-0.2-0.3-0.3c0-0.1-0.1-0.3-0.1-0.4c-0.2,0.2-0.6,0.4-1.1,0.6c-0.6,0.2-1.2,0.3-1.9,0.6c-0.7,0.2-1.5,0.3-2.3,0.4
				C3.8,20.9,3,21,2.2,20.9L2,20.8l-0.2-0.1c-0.6-1.9-1-3.6-1.3-4.9c-0.2-1.4-0.3-2.5-0.3-3.5c0-1.7,0.2-2.9,0.6-3.5
				c0.4-0.6,0.7-0.9,0.9-1c0,0,0.2-0.2,0.4-0.6C2.5,6.7,2.8,6.3,3,6V5.8h7.5V6c0.2,0.3,0.4,0.7,0.8,1.1c0.3,0.4,0.6,0.6,0.7,0.7
				c0.1,0,0.5-0.2,1-0.5c0.5-0.3,1-0.7,1.5-1.2h0.2c1.2,0.1,2.5,0.2,3.8,0.2C19.8,6.4,21,6.4,22,6.4c1.1,0,2,0,2.7,0
				c0.8,0,1.3-0.1,1.4-0.2c0.1-0.1,0.1-0.4,0.2-0.7c0.1-0.3,0.2-0.7,0.3-1c0.1-0.3,0.1-0.6,0.2-0.9C27,3.4,27,3.2,27.1,3.1V3
				c0-0.1,0.1-0.1,0.2-0.2c0.1-0.1,0.3-0.2,0.6-0.3C28,2.5,28.4,2.4,29,2.3c0.5-0.1,1.2-0.1,2.1-0.2c3.8-0.2,10,0,18.6,0.6
				c2.5,0.1,4.6,0.1,6.1,0.2c1.5,0,2.7,0,3.5,0c0.8,0,1.3,0.1,1.5,0.1c0.2,0,0.4,0,0.4,0c0,0,0.2,0,0.4,0c0.2-0.1,0.4,0.1,0.6,0.4
				C62.8,4,63.1,5,63.1,6.3c0,0.5,0,0.9,0,1.4c0,0.5-0.1,1.1-0.2,1.7c-0.1,0.2-0.1,0.3-0.1,0.4c-0.1,0.2-0.1,0.4-0.1,0.7
				c0.1,0,0.3,0,0.4,0c0.1,0,0.2,0,0.3,0c0.2,0,0.3,0,0.4,0l1.1,0.2c0,0,0,0.1,0,0.1c0,0.1,0,0.1,0,0.2v0.1h5.6
				c0.1-0.1,0.2-0.1,0.4-0.1c0.2-0.1,0.3-0.1,0.4-0.2l0.3-0.1c0.1-0.1,0.4-0.1,1-0.2c0.5,0,1,0,1.5,0c0.6,0,1.1,0,1.6,0
				c0.5,0,0.8,0,0.9,0l0.3,0.2V11C77,11.1,77.1,11.4,77.2,11.7z M57.7,5.5H32.2c-0.9,0-1.3,0.5-1.3,1.4v1.3c0,0.9,0.4,1.4,1.3,1.4
				h25.6c0.4,0,0.7-0.1,1-0.4c0.3-0.2,0.4-0.5,0.4-1V6.9c0-0.4-0.1-0.8-0.4-1C58.5,5.6,58.2,5.5,57.7,5.5z"/>
		</g>
	</g>
</g>
<g id="guides">
</g>
<g id="Smoke_2_">
	<path display="none" fill="#FFFFFF" d="M118,18.2c0.3-0.2,0.6-0.3,1-0.4c0.2-0.1,0.5-0.1,0.7-0.1l0.3,1.1"/>
	<path fill="#FFFFFF" d="M81.5,19c0,0,0.2,2.6,2.7,4.1c0.5,0.3,1.3,0.8,1.7,1c1.9,1.2,2.9,0.9,4.1,0.8c2.3-0.2,6.9-3,7.4-5.6
		c0.5-2.6-0.8-5-2.4-5.4c-1.6-0.4-3.1,0.3-3.5,1.8c-0.5,1.5,1,2.2,1,2.2c-1.6,0.3-2.2-1.3-1.8-2.7c0.3-1.4,1.8-3.1,4.7-2.5
		c2.9,0.7,3.4,3.3,3.4,3.3c1-1.8,3.3-2.8,6-1.8s1.8,3.2,1.8,3.2c-0.1-1.6-1.4-2.3-3.3-2.7c-1.8-0.3-3.6,0.5-4.2,3.2
		c-0.5,2.7,0.8,6.2,3.8,7c3.1,0.8,7.7-0.1,9.5-3.6c1.8-3.5,1.8-9.8-2.9-13.2s-9.3,0.1-9.3,0.1s-0.4-3.8-5.4-4
		c-5-0.3-5.7,5.3-5.7,5.3c-0.5-2.7-5.2,0.3-6.6,2.7c-1,1.7-1.6,4.3-1,6.1C81.4,18.6,81.4,18.9,81.5,19z"/>
</g>
</svg>
