<?xml version="1.0" encoding="utf-8"?>
<!-- Generator: Adobe Illustrator 21.0.2, SVG Export Plug-In . SVG Version: 6.00 Build 0)  -->
<svg version="1.1" id="Слой_1" xmlns="http://www.w3.org/2000/svg" xmlns:xlink="http://www.w3.org/1999/xlink" x="0px" y="0px"
	 width="74.9px" height="32px" viewBox="0 0 74.9 32" enable-background="new 0 0 74.9 32" xml:space="preserve">
<g id="Selected_Items">
	<g>
		<g id="Selected_Items_9_">
			<path fill="#FFFFFF" d="M38.4,3.6c0.1,0.2,0.2,0.5,0.2,0.8c0,0.3,0,0.6,0,1c0,0.6,0,1.2,0,1.9c-0.1,0.6-0.1,1-0.1,1.2l-0.1,0.2
				l-0.2,0.2c0,0.1,0,0.2,0,0.5v0.2L38,9.9l-0.3-0.1c-0.1,0-0.2,0-0.4,0c-0.2,0-0.7,0-1.5,0c0,0.3-0.1,0.7-0.3,1
				c-0.1,0.2-0.2,0.4-0.3,0.4l0,0.2h-9l-0.4,0.2c-0.2,0.1-0.4,0.2-0.7,0.4c-0.3,0.1-0.6,0.3-0.8,0.4c-0.2,0.2-0.4,0.3-0.5,0.3
				c0.1,0.3,0.1,0.6,0.1,1.1c0,0.2,0,0.5,0,0.9c0,0.4,0,0.8-0.1,1.2c-0.1,0.6-0.4,1.1-0.8,1.4c-0.4,0.3-0.9,0.5-1.4,0.6
				c-0.5,0.1-1.1,0.1-1.8,0.1c-0.7,0-1.3-0.1-1.9-0.1c-0.5,0-0.9-0.1-1.3-0.1c-0.4-0.1-0.7,0-1,0h-0.1c-0.9-0.1-1.4-0.1-1.7,0
				c-0.3,0.1-0.4,0.2-0.5,0.4l-0.2,0.1c-0.2,0.2-0.3,0.7-0.3,1.5v0.3c0,0.4,0,0.8-0.1,1.1c-0.1,0.3-0.2,0.7-0.4,1l0,0.2
				c-0.1,0.2-0.2,0.6-0.3,1.2c-0.1,0.5-0.3,1.1-0.4,1.7c-0.2,0.7-0.3,1.3-0.4,1.6c-0.1,0.4-0.2,0.6-0.2,0.8l0.2,0.2
				c0.1,0.1,0.2,0.2,0.2,0.3c0.1,0.1,0.1,0.2,0.1,0.4l-0.1,0.1c0,0.2-0.2,0.4-0.4,0.6c-0.2,0.1-0.4,0.2-0.6,0.3h-0.1
				c-0.1,0-0.5,0-1.2,0c-0.8,0-1.6,0-2.4,0.1c-2.6,0.1-4,0.2-4.3,0.2c-0.5,0-1-0.5-1.6-1.6h0v-0.6c0-0.9,0.1-1.9,0.4-3.2
				c0.2-1.2,0.5-2.5,0.8-3.7c0.4-1.3,0.7-2.4,1.1-3.5c0.4-1.1,0.7-2,1-2.8v-0.2C4,13.9,4,13.7,4,13.6c0-0.1,0-0.2,0-0.2
				c0,0,0,0,0-0.1c0,0,0-0.1,0-0.1H3.8v-0.1c0-0.2-0.1-0.3-0.3-0.4c-0.1-0.1-0.1-0.1-0.2-0.1c-0.2,0-0.3-0.1-0.5-0.2
				c-0.4-0.1-0.9-0.4-1.6-0.9c-0.5-0.3-0.7-0.6-0.9-0.9C0.1,10.4,0,10,0,9.7C0,9.4,0,9.1,0,9c0.1-0.1,0.2-0.6,0.4-1.4
				C0.6,6.8,0.8,5.9,1,5.1c0.2-0.7,0.5-1.2,0.8-1.5c0.3-0.3,0.6-0.5,0.8-0.6V2.3l0.2-0.1C3.6,2,4.4,2.1,5.2,2.4
				C5.9,2.8,6.3,3,6.5,3.1h19.2c0.1,0,0.1,0,0.2,0.1L26,3.4h10.1l0.1-0.1c0.2-0.1,0.3-0.4,0.6-0.9V2.2h0.1c0,0,0.1,0,0.2,0
				c0.1,0,0.3,0,0.4,0C37.9,2.3,38.2,2.7,38.4,3.6z M21.7,12.2h-7c-0.4,0-0.6,0.2-0.6,0.6v2.5c0,0.4,0.2,0.6,0.6,0.6h7
				c0.3,0,0.5-0.2,0.5-0.6v-2.5C22.3,12.4,22.1,12.2,21.7,12.2z"/>
		</g>
	</g>
</g>
<g id="guides">
</g>
<g id="Flash_2_">
	<path fill="#FFFFFF" d="M65.3,12.1c0,2.2-0.8,4.2-2.4,5.8c-1.6,1.6-3.5,2.4-5.8,2.4c-2.2,0-4.2-0.8-5.8-2.4
		c-1.6-1.6-2.4-3.5-2.4-5.8c0-0.6,0.1-1.1,0.2-1.7c0.2-0.1,0.4-0.1,0.6-0.3c0.8-0.4,1.5-0.8,2.3-1.1c0.1,0,0.3-0.1,0.4-0.2
		c-0.7,1-1.1,2.1-1,3.4c0,1.6,0.6,3,1.7,4.1c1.1,1.1,2.5,1.7,4.1,1.7c1.6,0,3-0.6,4.1-1.7c1.1-1.1,1.7-2.5,1.7-4.1
		c0-1.6-0.5-2.9-1.6-4.1c0.7,0.2,1.4,0.4,2.1,0.8c0,0,0,0,0,0c0.4,0.2,0.8,0.4,1.2,0.5C65.2,10.4,65.3,11.2,65.3,12.1z"/>
	<path fill="#FFFFFF" d="M73.1,19.2c-0.7-1.1-1.5-2.2-2.4-3.2c-0.2,0.2-0.4,0.4-0.6,0.6c-3.8,3.8-8.4,5.7-13.8,5.7s-10-1.9-13.9-5.7
		l-0.1,0.1c0.7,1.1,1.6,2.1,2.5,3.1c3.8,3.8,8.4,5.7,13.9,5.7s10-1.9,13.8-5.7C72.8,19.6,72.9,19.4,73.1,19.2L73.1,19.2z"/>
	<path fill="#FFFFFF" d="M70.7,16c0.9,1,1.7,2.1,2.4,3.2c0.7-0.7,1.3-1.4,1.8-2.1c-0.6-1-1-1.6-2.4-3.2C71.9,14.6,71.3,15.3,70.7,16
		L70.7,16z"/>
	<polygon fill="#FF0000" points="61.4,13.8 59,14.9 58.7,17.5 56.8,15.7 54.2,16.1 55.5,13.8 54.2,11.4 56.8,11.9 58.7,10 59,12.6 	
		"/>
	<path fill="#FFFFFF" d="M70.1,15.4c0.2,0.2,0.4,0.4,0.6,0.6c0.6-0.7,1.2-1.4,1.8-2.2c-0.2-0.2-0.4-0.4-0.6-0.6
		C68,9.4,63.4,7.5,58,7.5c-5.4,0-10,1.9-13.9,5.7c-0.8,0.9-1.6,1.8-2.3,2.7l0.1,0.1c0.1-0.2,0.3-0.4,0.5-0.5
		c3.8-3.8,8.4-5.7,13.9-5.7S66.3,11.6,70.1,15.4L70.1,15.4z"/>
</g>
<g id="Smoke_2_">
	<path display="none" fill="#FFFFFF" d="M80.2,19.2c0.3-0.2,0.6-0.3,1-0.4c0.2-0.1,0.5-0.1,0.7-0.1l0.3,1.1"/>
</g>
</svg>
