<?xml version="1.0" encoding="utf-8"?>
<!-- Generator: Adobe Illustrator 21.0.2, SVG Export Plug-In . SVG Version: 6.00 Build 0)  -->
<svg version="1.1" id="Слой_1" xmlns="http://www.w3.org/2000/svg" xmlns:xlink="http://www.w3.org/1999/xlink" x="0px" y="0px"
	 width="74.6px" height="32px" viewBox="0 0 74.6 32" enable-background="new 0 0 74.6 32" xml:space="preserve">
<g id="Selected_Items">
	<g>
		<g id="Selected_Items_9_">
			<path fill="#FFFFFF" d="M38.4,3.6c0.1,0.2,0.2,0.5,0.2,0.8c0,0.3,0,0.6,0,1c0,0.6,0,1.2,0,1.9c-0.1,0.6-0.1,1-0.1,1.2l-0.1,0.2
				l-0.2,0.2c0,0.1,0,0.2,0,0.5v0.2L38,9.9l-0.3-0.1c-0.1,0-0.2,0-0.4,0c-0.2,0-0.7,0-1.5,0c0,0.3-0.1,0.7-0.3,1
				c-0.1,0.2-0.2,0.4-0.3,0.4l0,0.2h-9l-0.4,0.2c-0.2,0.1-0.4,0.2-0.7,0.4c-0.3,0.1-0.6,0.3-0.8,0.4c-0.2,0.2-0.4,0.3-0.5,0.3
				c0.1,0.3,0.1,0.6,0.1,1.1c0,0.2,0,0.5,0,0.9c0,0.4,0,0.8-0.1,1.2c-0.1,0.6-0.4,1.1-0.8,1.4c-0.4,0.3-0.9,0.5-1.4,0.6
				c-0.5,0.1-1.1,0.1-1.8,0.1c-0.7,0-1.3-0.1-1.9-0.1c-0.5,0-0.9-0.1-1.3-0.1c-0.4-0.1-0.7,0-1,0h-0.1c-0.9-0.1-1.4-0.1-1.7,0
				c-0.3,0.1-0.4,0.2-0.5,0.4l-0.2,0.1c-0.2,0.2-0.3,0.7-0.3,1.5v0.3c0,0.4,0,0.8-0.1,1.1c-0.1,0.3-0.2,0.7-0.4,1l0,0.2
				c-0.1,0.2-0.2,0.6-0.3,1.2c-0.1,0.5-0.3,1.1-0.4,1.7c-0.2,0.7-0.3,1.3-0.4,1.6c-0.1,0.4-0.2,0.6-0.2,0.8l0.2,0.2
				c0.1,0.1,0.2,0.2,0.2,0.3c0.1,0.1,0.1,0.2,0.1,0.4l-0.1,0.1c0,0.2-0.2,0.4-0.4,0.6c-0.2,0.1-0.4,0.2-0.6,0.3h-0.1
				c-0.1,0-0.5,0-1.2,0c-0.8,0-1.6,0-2.4,0.1c-2.6,0.1-4,0.2-4.3,0.2c-0.5,0-1-0.5-1.6-1.6h0v-0.6c0-0.9,0.1-1.9,0.4-3.2
				c0.2-1.2,0.5-2.5,0.8-3.7c0.4-1.3,0.7-2.4,1.1-3.5c0.4-1.1,0.7-2,1-2.8v-0.2C4,13.9,4,13.7,4,13.6c0-0.1,0-0.2,0-0.2
				c0,0,0,0,0-0.1c0,0,0-0.1,0-0.1H3.8v-0.1c0-0.2-0.1-0.3-0.3-0.4c-0.1-0.1-0.1-0.1-0.2-0.1c-0.2,0-0.3-0.1-0.5-0.2
				c-0.4-0.1-0.9-0.4-1.6-0.9c-0.5-0.3-0.7-0.6-0.9-0.9C0.1,10.4,0,10,0,9.7C0,9.4,0,9.1,0,9c0.1-0.1,0.2-0.6,0.4-1.4
				C0.6,6.8,0.8,5.9,1,5.1c0.2-0.7,0.5-1.2,0.8-1.5c0.3-0.3,0.6-0.5,0.8-0.6V2.3l0.2-0.1C3.6,2,4.4,2.1,5.2,2.4
				C5.9,2.8,6.3,3,6.5,3.1h19.2c0.1,0,0.1,0,0.2,0.1L26,3.4h10.1l0.1-0.1c0.2-0.1,0.3-0.4,0.6-0.9V2.2h0.1c0,0,0.1,0,0.2,0
				c0.1,0,0.3,0,0.4,0C37.9,2.3,38.2,2.7,38.4,3.6z M21.7,12.2h-7c-0.4,0-0.6,0.2-0.6,0.6v2.5c0,0.4,0.2,0.6,0.6,0.6h7
				c0.3,0,0.5-0.2,0.5-0.6v-2.5C22.3,12.4,22.1,12.2,21.7,12.2z"/>
		</g>
	</g>
</g>
<g id="guides">
</g>
<g id="Smoke_2_">
	<path display="none" fill="#FFFFFF" d="M80.2,19.2c0.3-0.2,0.6-0.3,1-0.4c0.2-0.1,0.5-0.1,0.7-0.1l0.3,1.1"/>
	<path fill="#FFFFFF" d="M42.7,20c0,0,0.2,2.6,2.7,4.1c0.5,0.3,1.3,0.8,1.7,1c1.9,1.2,2.9,0.9,4.1,0.8c2.3-0.2,6.9-3,7.4-5.6
		c0.5-2.6-0.8-5-2.4-5.4c-1.6-0.4-3.1,0.3-3.5,1.8c-0.5,1.5,1,2.2,1,2.2c-1.6,0.3-2.2-1.3-1.8-2.7c0.3-1.4,1.8-3.1,4.7-2.5
		c2.9,0.7,3.4,3.3,3.4,3.3c1-1.8,3.3-2.8,6-1.8s1.8,3.2,1.8,3.2c-0.1-1.6-1.4-2.3-3.3-2.7c-1.8-0.3-3.6,0.5-4.2,3.2
		c-0.5,2.7,0.8,6.2,3.8,7c3.1,0.8,7.7-0.1,9.5-3.6c1.8-3.5,1.8-9.8-2.9-13.2s-9.3,0.1-9.3,0.1s-0.4-3.8-5.4-4
		c-5-0.3-5.7,5.3-5.7,5.3C49.7,8,45,11,43.6,13.4c-1,1.7-1.6,4.3-1,6.1C42.6,19.6,42.7,20,42.7,20z"/>
</g>
</svg>
