<?xml version="1.0" encoding="utf-8"?>
<!-- Generator: Adobe Illustrator 21.0.2, SVG Export Plug-In . SVG Version: 6.00 Build 0)  -->
<svg version="1.1" id="Слой_1" xmlns="http://www.w3.org/2000/svg" xmlns:xlink="http://www.w3.org/1999/xlink" x="0px" y="0px"
	 width="131.9px" height="32px" viewBox="0 0 131.9 32" enable-background="new 0 0 131.9 32" xml:space="preserve">
<g id="Selected_Items">
	<g>
		<g id="Selected_Items_10_">
			<path fill="#FFFFFF" d="M92.7,12.9c0.1,0.4,0.1,0.8,0.2,1.2c0,0.5-0.1,0.8-0.5,0.9c-0.2,0-0.5,0.1-0.9,0.1c-0.4,0-0.9,0-1.4,0
				c-0.5,0-1,0-1.5,0C88.2,15,87.7,15,87.4,15l-0.3-0.1h-5.3c0,0-0.1,0.1-0.2,0.2c0,0.1-0.1,0.1-0.1,0.1l-0.7,0.2l-0.4-0.2h-0.8
				l-0.2,0.2c-0.1,0.1-0.1,0.2-0.1,0.3v0.2l-0.3,0.6h-0.7v1.3l-0.3,0.1c-0.1,0-0.2,0.1-0.4,0.1c-0.3,0-0.5,0-0.6-0.1l-1-0.1h-2.9V18
				h-0.3c-0.7,0-1.1,0-1.2-0.1c-0.1,0-0.2-0.1-0.3-0.1c0-0.1,0-0.2,0-0.2c-0.1,0-0.1,0-0.1-0.1h0.1v-0.2H58.9
				c-0.3,0-0.8,0.1-1.2,0.2c-0.5,0-0.9,0.1-1.3,0.1c-0.5,0-0.8,0.1-1.1,0.1c-0.3,0.1-0.4,0.1-0.5,0.1c-0.2,0.1-0.4,0.1-0.6,0
				c-0.1,0-0.1-0.1-0.2-0.1l-0.2-0.1v-0.3h-5c0.1,0.9,0.1,1.8,0.2,2.9c0.1,1,0.2,2,0.3,2.9c0.1,0.9,0.2,1.7,0.2,2.4
				c0.1,0.6,0.1,1,0.1,1.2c0,0-0.1,0.2-0.2,0.3c-0.1,0.1-0.5,0.2-1.2,0.3c-0.8,0.1-1.5,0.3-2.2,0.5c-0.8,0.1-1.4,0.2-1.9,0.3
				c-0.5,0.1-0.8,0.1-1,0.2c-0.2,0-0.4,0-0.5,0c-0.1,0-0.1-0.1-0.2-0.1c0,0,0-0.1,0-0.2c0-0.1,0-0.4-0.1-1c0-0.6-0.1-1.4-0.3-2.4
				c-0.1-1.2-0.2-2.7-0.4-4.7h-0.6l-0.4,0.6h-0.3l0.3-0.6h-0.8v0.2c-0.2,0.7-0.4,1.2-0.6,1.7c-0.2,0.5-0.5,0.8-0.8,1
				c-0.5,0.2-1.1,0.3-1.9,0.4c-0.9,0-1.5,0-1.8-0.2l-0.5-0.3c-0.2-0.1-0.4-0.2-0.6-0.3c-0.2-0.1-0.3-0.2-0.4-0.2l-0.2,0.2
				c-0.1,0.1-0.2,0.3-0.3,0.6c-0.1,0.3-0.3,0.6-0.5,0.9c-0.4,0.9-0.7,1.6-0.9,2.1c-0.3,0.5-0.5,0.9-0.6,1.2
				c-0.2,0.3-0.3,0.5-0.4,0.5c-0.1,0.1-0.2,0.1-0.3,0.1c-0.2,0-0.7-0.3-1.5-0.8c-0.8-0.5-1.6-1.1-2.3-1.7l-0.3-0.2l0.1-0.2
				c0,0,0.1-0.2,0.3-0.5c0.1-0.3,0.3-0.6,0.5-0.9c0.2-0.3,0.4-0.6,0.5-0.9c0.2-0.3,0.4-0.5,0.6-0.7l0.1-0.2c0.2-0.2,0.5-0.5,0.7-0.8
				c0.3-0.3,0.5-0.6,0.6-1c0.1-0.5,0-0.9-0.1-1.2c-0.2-0.3-0.5-0.5-0.7-0.5h-5.8c0,0-0.1,0-0.2,0c-0.1,0-0.2,0.1-0.4,0.1
				c-0.2,0-0.4,0.1-0.6,0.2c-0.1,0-0.7,0.2-1.5,0.5c-0.9,0.3-1.9,0.7-3.1,1.1c-1.1,0.5-2.4,0.9-3.7,1.4c-1.3,0.5-2.5,0.9-3.6,1.3
				c-1.1,0.4-2,0.7-2.7,1c-0.7,0.3-1.1,0.5-1.2,0.5c-0.3,0.1-0.6,0.1-0.9,0.2c-0.4,0-0.8,0.1-1.2,0.1c-0.4,0.1-0.8,0.1-1.1,0.1
				c-0.3,0-0.6,0-0.8-0.1c-0.3-0.1-0.5-0.4-0.6-0.7c0-0.3,0-0.6,0-0.9c0-0.2,0-0.4,0-0.6c0-0.2,0.1-0.4,0.2-0.6
				C1,21.5,1.1,21.2,1.1,21c0-0.2,0-0.5,0-0.9c0.1-0.2,0.2-0.4,0.2-0.5c0-0.2,0-0.4,0-0.6c0-0.7,0-1.3-0.1-1.9
				c-0.1-0.6-0.1-1-0.1-1.2H0.9c-0.1-0.2-0.2-0.4-0.2-0.6c0-0.2,0-0.4,0-0.5v-0.5c0.1-0.1,0.2-0.2,0.2-0.2C0.9,14,1.1,14,1.3,14
				c0-0.1,0.3-0.1,0.6-0.1c0.4,0,0.7-0.1,1.2-0.1c0.5,0,0.9,0,1.4,0c0.4,0,0.7,0,1,0c0.1-0.3,0.2-0.5,0.3-0.8
				c0.1-0.3,0.3-0.4,0.6-0.5c0.2-0.1,0.9-0.1,2-0.1c1.1,0,2.3-0.1,3.6-0.1c1.3-0.1,2.6-0.1,3.8-0.1c1.2,0,1.9,0,2.2,0h0.2
				c0.1,0.2,0.2,0.4,0.4,0.5c0.1,0.2,0.2,0.4,0.3,0.5c0.1,0.2,0.2,0.3,0.3,0.3c0.2,0,0.4,0,0.6,0c0.2,0,0.4-0.1,0.5-0.1
				c0.3-0.1,0.7-0.4,1.4-0.7c0.6-0.4,1.1-0.6,1.3-0.8c0.3-0.2,0.6-0.4,0.8-0.5c0.2-0.2,0.5-0.2,0.9-0.2c0.4,0,0.9,0,1.6,0
				c0.7,0,1.3,0,1.7-0.1c0-0.1,0.1-0.1,0.1-0.1c0-0.1,0.1-0.2,0.2-0.2c0.1-0.1,0.1-0.2,0.2-0.3l0.8-0.5l0.6-0.1
				c0.1,0.1,0.2,0.2,0.3,0.2c0.3,0.1,0.5,0.1,0.5,0.1l0.6,0.1l0.5,0.6v0.2l-0.2,0.2h0.3v-0.6l-0.3-0.2c-0.1-0.1-0.1-0.2-0.1-0.3
				l-0.3-0.6l-0.2-0.7V8.5c-0.5,0.1-0.9,0.2-1.5,0.2c-0.6,0.1-1.1,0.1-1.4,0.2c-0.2,0-0.6,0-1.3,0c-0.7,0-1.4,0-2.1,0
				c-0.8,0-1.4,0-2,0c-0.6,0-1-0.1-1.1-0.1c-0.1,0-0.1,0-0.2,0.1c-0.1,0-0.2,0-0.3,0c-0.2,0-0.3,0-0.4,0l-2.2-0.1V8.5
				c0,0,0-0.2-0.1-0.4c0-0.3-0.1-0.6-0.1-1c0-0.3,0-0.7-0.1-1c0-0.4,0-0.7,0.1-0.9c0-0.2,0.1-0.3,0.1-0.5c0-0.1,0.1-0.2,0.1-0.3
				c0-0.1,0-0.2,0-0.2l0.2-0.1h1.8c0.1,0,0.4,0,0.9,0c0.4,0,0.9,0,1.6,0.1c0.7,0,1.4,0,2.2,0c0.8,0,1.5,0,2.2,0.1c0.7,0,1.3,0,1.8,0
				c0.5,0,0.9,0,1.2,0l0.9,0.1c0.3,0.1,0.6,0.1,0.8,0.2c0.2,0,0.4,0,0.6,0c0.2-0.1,0.6-0.1,1.2-0.1c0.6,0,1.3-0.1,2-0.1
				c0.7,0,1.3,0,1.8,0c0.5,0,0.8,0,0.9,0c0.2,0,0.4,0,0.5-0.1c0.1,0,0.2,0,0.3,0l0.2-0.2c0-0.2,0.2-0.3,0.5-0.4c0.5-0.2,1-0.2,1.5,0
				h0.2c0.2,0,0.4,0,0.5,0.1c0.1,0,0.2,0.2,0.3,0.3c0.1,0.1,0.3,0.2,0.5,0.2l0.3,0.1c0.5,0,1.1,0,2,0.1c0.9,0.1,1.7,0,2.3-0.1
				c0.4-0.1,0.9-0.1,1.7-0.2c0.7-0.1,1.4-0.1,2.1-0.2c0.8,0,1.5,0,2.1,0c0.7,0,1.1,0,1.4,0.1h0.2c0.3,0.1,0.5,0.2,0.6,0.3
				c0.2,0.1,0.3,0.5,0.3,1.1c0.1,0.6,0,1.2-0.2,1.7C55.5,8,55.3,8.3,55,8.5c-0.1,0.1-0.5,0.1-1.1,0.1s-1.3,0-2,0
				c-0.7,0-1.4,0-2.1-0.1c-0.7,0-1.2-0.1-1.5-0.2c-0.3-0.1-0.6-0.1-0.8-0.1c-0.2,0-0.4,0-0.6,0.1h-1.4c0,0.2-0.2,0.5-0.5,0.9h-0.2
				c-0.8,0.4-1.4,0.7-1.7,0.9c-0.3,0.1-0.4,0.3-0.4,0.4c-0.1,0-0.1,0.1-0.2,0.1c0,0.2-0.1,0.3-0.2,0.5h20.9c0,0,0.2,0,0.5,0
				c0.3,0,0.6-0.1,0.9-0.1c0.3-0.1,0.6-0.1,0.9-0.1c0.3-0.1,0.5-0.1,0.6-0.1c0.3,0,0.6,0,0.9,0c0.3-0.1,0.5-0.1,0.6-0.1l0.3-0.3
				c0.1-0.1,0.2-0.1,0.2-0.1h1.4c0.1,0.1,0.2,0.2,0.2,0.3c0.2,0.3,0.3,0.4,0.4,0.5h7.6c-0.1-0.3-0.2-0.5-0.2-0.8
				c-0.1-0.3-0.1-0.5-0.1-0.7s0-0.3,0-0.3L77.8,9c0.2-0.3,0.4-0.4,0.6-0.5c0.2-0.1,0.3-0.2,0.5-0.2l0.8,0.2l0.3,0.9l0.3,1.7v1
				c0.1,0,0.2,0.1,0.3,0.2c0,0.1,0,0.2,0,0.3l-0.1,0.1h0.1c0.2,0,0.3,0,0.3,0l0.1-0.1h0.8l0.1,0.1c0.1,0,0.1,0,0.2,0h10.7L92.7,12.9
				z M33.8,19.7c-0.1,0.1-0.1,0.2-0.2,0.3l0.5,0.5c0.2,0.1,0.3,0.2,0.5,0.3c0.1,0,0.2,0.1,0.3,0.1c0.3,0,0.5,0.1,0.8,0.1
				c0.2,0,0.4,0,0.5,0c0.2,0,0.4,0,0.7,0c0.3,0,0.5,0,0.6-0.1c0.2,0,0.3-0.1,0.3-0.2c0-0.1,0.1-0.2,0.2-0.4c0.2-0.6,0.3-0.9,0.3-0.9
				v-0.1c0,0,0-0.1-0.2-0.1c-0.1,0-0.2,0-0.4,0.1c-0.2,0.1-0.4,0.1-0.6,0.2h-1c-0.2,0-0.5,0-1,0.1c-0.5,0.1-0.9,0.1-1.1,0.2
				C34.1,19.6,34,19.6,33.8,19.7z"/>
		</g>
	</g>
</g>
<g id="guides">
</g>
<g id="Flash_2_">
	<path fill="#FFFFFF" d="M121.8,11.3c0,2.2-0.8,4.2-2.4,5.8c-1.6,1.6-3.5,2.4-5.8,2.4c-2.2,0-4.2-0.8-5.8-2.4
		c-1.6-1.6-2.4-3.5-2.4-5.8c0-0.6,0.1-1.1,0.2-1.7c0.2-0.1,0.4-0.1,0.6-0.3c0.8-0.4,1.5-0.8,2.3-1.1c0.1,0,0.3-0.1,0.4-0.2
		c-0.7,1-1.1,2.1-1,3.4c0,1.6,0.6,3,1.7,4.1c1.1,1.1,2.5,1.7,4.1,1.7c1.6,0,3-0.6,4.1-1.7c1.1-1.1,1.7-2.5,1.7-4.1
		c0-1.6-0.5-2.9-1.6-4.1c0.7,0.2,1.4,0.4,2.1,0.8c0,0,0,0,0,0c0.4,0.2,0.8,0.4,1.2,0.5C121.7,9.5,121.8,10.4,121.8,11.3z"/>
	<path fill="#FFFFFF" d="M129.6,18.3c-0.7-1.1-1.5-2.2-2.4-3.2c-0.2,0.2-0.4,0.4-0.6,0.6c-3.8,3.8-8.4,5.7-13.8,5.7
		s-10-1.9-13.9-5.7l-0.1,0.1c0.7,1.1,1.6,2.1,2.5,3.1c3.8,3.8,8.4,5.7,13.9,5.7c5.4,0,10-1.9,13.8-5.7
		C129.3,18.7,129.5,18.5,129.6,18.3L129.6,18.3z"/>
	<path fill="#FFFFFF" d="M127.2,15.2c0.9,1,1.7,2.1,2.4,3.2c0.7-0.7,1.3-1.4,1.8-2.1c-0.6-1-1-1.6-2.4-3.2
		C128.4,13.7,127.9,14.4,127.2,15.2L127.2,15.2z"/>
	<polygon fill="#FF0000" points="117.9,12.9 115.6,14.1 115.2,16.7 113.3,14.8 110.8,15.2 112,12.9 110.8,10.6 113.3,11 115.2,9.1 
		115.6,11.7 	"/>
	<path fill="#FFFFFF" d="M126.6,14.6c0.2,0.2,0.4,0.4,0.6,0.6c0.6-0.7,1.2-1.4,1.8-2.2c-0.2-0.2-0.4-0.4-0.6-0.6
		c-3.8-3.8-8.4-5.7-13.8-5.7c-5.4,0-10,1.9-13.9,5.7c-0.8,0.9-1.6,1.8-2.3,2.7l0.1,0.1c0.1-0.2,0.3-0.4,0.5-0.5
		c3.8-3.8,8.4-5.7,13.9-5.7S122.8,10.7,126.6,14.6L126.6,14.6z"/>
</g>
</svg>
