<?xml version="1.0" encoding="utf-8"?>
<!-- Generator: Adobe Illustrator 21.0.2, SVG Export Plug-In . SVG Version: 6.00 Build 0)  -->
<svg version="1.1" id="Слой_1" xmlns="http://www.w3.org/2000/svg" xmlns:xlink="http://www.w3.org/1999/xlink" x="0px" y="0px"
	 width="127.5px" height="32px" viewBox="0 0 127.5 32" enable-background="new 0 0 127.5 32" xml:space="preserve">
<g id="Selected_Items">
	<g>
		<g id="Selected_Items_10_">
			<path fill="#FFFFFF" d="M92.7,12.9c0.1,0.4,0.1,0.8,0.2,1.2c0,0.5-0.1,0.8-0.5,0.9c-0.2,0-0.5,0.1-0.9,0.1c-0.4,0-0.9,0-1.4,0
				c-0.5,0-1,0-1.5,0C88.2,15,87.7,15,87.4,15l-0.3-0.1h-5.3c0,0-0.1,0.1-0.2,0.2c0,0.1-0.1,0.1-0.1,0.1l-0.7,0.2l-0.4-0.2h-0.8
				l-0.2,0.2c-0.1,0.1-0.1,0.2-0.1,0.3v0.2l-0.3,0.6h-0.7v1.3l-0.3,0.1c-0.1,0-0.2,0.1-0.4,0.1c-0.3,0-0.5,0-0.6-0.1l-1-0.1h-2.9V18
				h-0.3c-0.7,0-1.1,0-1.2-0.1c-0.1,0-0.2-0.1-0.3-0.1c0-0.1,0-0.2,0-0.2c-0.1,0-0.1,0-0.1-0.1h0.1v-0.2H58.9
				c-0.3,0-0.8,0.1-1.2,0.2c-0.5,0-0.9,0.1-1.3,0.1c-0.5,0-0.8,0.1-1.1,0.1c-0.3,0.1-0.4,0.1-0.5,0.1c-0.2,0.1-0.4,0.1-0.6,0
				c-0.1,0-0.1-0.1-0.2-0.1l-0.2-0.1v-0.3h-5c0.1,0.9,0.1,1.8,0.2,2.9c0.1,1,0.2,2,0.3,2.9c0.1,0.9,0.2,1.7,0.2,2.4
				c0.1,0.6,0.1,1,0.1,1.2c0,0-0.1,0.2-0.2,0.3c-0.1,0.1-0.5,0.2-1.2,0.3c-0.8,0.1-1.5,0.3-2.2,0.5c-0.8,0.1-1.4,0.2-1.9,0.3
				c-0.5,0.1-0.8,0.1-1,0.2c-0.2,0-0.4,0-0.5,0c-0.1,0-0.1-0.1-0.2-0.1c0,0,0-0.1,0-0.2c0-0.1,0-0.4-0.1-1c0-0.6-0.1-1.4-0.3-2.4
				c-0.1-1.2-0.2-2.7-0.4-4.7h-0.6l-0.4,0.6h-0.3l0.3-0.6h-0.8v0.2c-0.2,0.7-0.4,1.2-0.6,1.7c-0.2,0.5-0.5,0.8-0.8,1
				c-0.5,0.2-1.1,0.3-1.9,0.4c-0.9,0-1.5,0-1.8-0.2l-0.5-0.3c-0.2-0.1-0.4-0.2-0.6-0.3c-0.2-0.1-0.3-0.2-0.4-0.2l-0.2,0.2
				c-0.1,0.1-0.2,0.3-0.3,0.6c-0.1,0.3-0.3,0.6-0.5,0.9c-0.4,0.9-0.7,1.6-0.9,2.1c-0.3,0.5-0.5,0.9-0.6,1.2
				c-0.2,0.3-0.3,0.5-0.4,0.5c-0.1,0.1-0.2,0.1-0.3,0.1c-0.2,0-0.7-0.3-1.5-0.8c-0.8-0.5-1.6-1.1-2.3-1.7l-0.3-0.2l0.1-0.2
				c0,0,0.1-0.2,0.3-0.5c0.1-0.3,0.3-0.6,0.5-0.9c0.2-0.3,0.4-0.6,0.5-0.9c0.2-0.3,0.4-0.5,0.6-0.7l0.1-0.2c0.2-0.2,0.5-0.5,0.7-0.8
				c0.3-0.3,0.5-0.6,0.6-1c0.1-0.5,0-0.9-0.1-1.2c-0.2-0.3-0.5-0.5-0.7-0.5h-5.8c0,0-0.1,0-0.2,0c-0.1,0-0.2,0.1-0.4,0.1
				c-0.2,0-0.4,0.1-0.6,0.2c-0.1,0-0.7,0.2-1.5,0.5c-0.9,0.3-1.9,0.7-3.1,1.1c-1.1,0.5-2.4,0.9-3.7,1.4c-1.3,0.5-2.5,0.9-3.6,1.3
				c-1.1,0.4-2,0.7-2.7,1c-0.7,0.3-1.1,0.5-1.2,0.5c-0.3,0.1-0.6,0.1-0.9,0.2c-0.4,0-0.8,0.1-1.2,0.1c-0.4,0.1-0.8,0.1-1.1,0.1
				c-0.3,0-0.6,0-0.8-0.1c-0.3-0.1-0.5-0.4-0.6-0.7c0-0.3,0-0.6,0-0.9c0-0.2,0-0.4,0-0.6c0-0.2,0.1-0.4,0.2-0.6
				C1,21.5,1.1,21.2,1.1,21c0-0.2,0-0.5,0-0.9c0.1-0.2,0.2-0.4,0.2-0.5c0-0.2,0-0.4,0-0.6c0-0.7,0-1.3-0.1-1.9
				c-0.1-0.6-0.1-1-0.1-1.2H0.9c-0.1-0.2-0.2-0.4-0.2-0.6c0-0.2,0-0.4,0-0.5v-0.5c0.1-0.1,0.2-0.2,0.2-0.2C0.9,14,1.1,14,1.3,14
				c0-0.1,0.3-0.1,0.6-0.1c0.4,0,0.7-0.1,1.2-0.1c0.5,0,0.9,0,1.4,0c0.4,0,0.7,0,1,0c0.1-0.3,0.2-0.5,0.3-0.8
				c0.1-0.3,0.3-0.4,0.6-0.5c0.2-0.1,0.9-0.1,2-0.1c1.1,0,2.3-0.1,3.6-0.1c1.3-0.1,2.6-0.1,3.8-0.1c1.2,0,1.9,0,2.2,0h0.2
				c0.1,0.2,0.2,0.4,0.4,0.5c0.1,0.2,0.2,0.4,0.3,0.5c0.1,0.2,0.2,0.3,0.3,0.3c0.2,0,0.4,0,0.6,0c0.2,0,0.4-0.1,0.5-0.1
				c0.3-0.1,0.7-0.4,1.4-0.7c0.6-0.4,1.1-0.6,1.3-0.8c0.3-0.2,0.6-0.4,0.8-0.5c0.2-0.2,0.5-0.2,0.9-0.2c0.4,0,0.9,0,1.6,0
				c0.7,0,1.3,0,1.7-0.1c0-0.1,0.1-0.1,0.1-0.1c0-0.1,0.1-0.2,0.2-0.2c0.1-0.1,0.1-0.2,0.2-0.3l0.8-0.5l0.6-0.1
				c0.1,0.1,0.2,0.2,0.3,0.2c0.3,0.1,0.5,0.1,0.5,0.1l0.6,0.1l0.5,0.6v0.2l-0.2,0.2h0.3v-0.6l-0.3-0.2c-0.1-0.1-0.1-0.2-0.1-0.3
				l-0.3-0.6l-0.2-0.7V8.5c-0.5,0.1-0.9,0.2-1.5,0.2c-0.6,0.1-1.1,0.1-1.4,0.2c-0.2,0-0.6,0-1.3,0c-0.7,0-1.4,0-2.1,0
				c-0.8,0-1.4,0-2,0c-0.6,0-1-0.1-1.1-0.1c-0.1,0-0.1,0-0.2,0.1c-0.1,0-0.2,0-0.3,0c-0.2,0-0.3,0-0.4,0l-2.2-0.1V8.5
				c0,0,0-0.2-0.1-0.4c0-0.3-0.1-0.6-0.1-1c0-0.3,0-0.7-0.1-1c0-0.4,0-0.7,0.1-0.9c0-0.2,0.1-0.3,0.1-0.5c0-0.1,0.1-0.2,0.1-0.3
				c0-0.1,0-0.2,0-0.2l0.2-0.1h1.8c0.1,0,0.4,0,0.9,0c0.4,0,0.9,0,1.6,0.1c0.7,0,1.4,0,2.2,0c0.8,0,1.5,0,2.2,0.1c0.7,0,1.3,0,1.8,0
				c0.5,0,0.9,0,1.2,0l0.9,0.1c0.3,0.1,0.6,0.1,0.8,0.2c0.2,0,0.4,0,0.6,0c0.2-0.1,0.6-0.1,1.2-0.1c0.6,0,1.3-0.1,2-0.1
				c0.7,0,1.3,0,1.8,0c0.5,0,0.8,0,0.9,0c0.2,0,0.4,0,0.5-0.1c0.1,0,0.2,0,0.3,0l0.2-0.2c0-0.2,0.2-0.3,0.5-0.4c0.5-0.2,1-0.2,1.5,0
				h0.2c0.2,0,0.4,0,0.5,0.1c0.1,0,0.2,0.2,0.3,0.3c0.1,0.1,0.3,0.2,0.5,0.2l0.3,0.1c0.5,0,1.1,0,2,0.1c0.9,0.1,1.7,0,2.3-0.1
				c0.4-0.1,0.9-0.1,1.7-0.2c0.7-0.1,1.4-0.1,2.1-0.2c0.8,0,1.5,0,2.1,0c0.7,0,1.1,0,1.4,0.1h0.2c0.3,0.1,0.5,0.2,0.6,0.3
				c0.2,0.1,0.3,0.5,0.3,1.1c0.1,0.6,0,1.2-0.2,1.7C55.5,8,55.3,8.3,55,8.5c-0.1,0.1-0.5,0.1-1.1,0.1s-1.3,0-2,0
				c-0.7,0-1.4,0-2.1-0.1c-0.7,0-1.2-0.1-1.5-0.2c-0.3-0.1-0.6-0.1-0.8-0.1c-0.2,0-0.4,0-0.6,0.1h-1.4c0,0.2-0.2,0.5-0.5,0.9h-0.2
				c-0.8,0.4-1.4,0.7-1.7,0.9c-0.3,0.1-0.4,0.3-0.4,0.4c-0.1,0-0.1,0.1-0.2,0.1c0,0.2-0.1,0.3-0.2,0.5h20.9c0,0,0.2,0,0.5,0
				c0.3,0,0.6-0.1,0.9-0.1c0.3-0.1,0.6-0.1,0.9-0.1c0.3-0.1,0.5-0.1,0.6-0.1c0.3,0,0.6,0,0.9,0c0.3-0.1,0.5-0.1,0.6-0.1l0.3-0.3
				c0.1-0.1,0.2-0.1,0.2-0.1h1.4c0.1,0.1,0.2,0.2,0.2,0.3c0.2,0.3,0.3,0.4,0.4,0.5h7.6c-0.1-0.3-0.2-0.5-0.2-0.8
				c-0.1-0.3-0.1-0.5-0.1-0.7s0-0.3,0-0.3L77.8,9c0.2-0.3,0.4-0.4,0.6-0.5c0.2-0.1,0.3-0.2,0.5-0.2l0.8,0.2l0.3,0.9l0.3,1.7v1
				c0.1,0,0.2,0.1,0.3,0.2c0,0.1,0,0.2,0,0.3l-0.1,0.1h0.1c0.2,0,0.3,0,0.3,0l0.1-0.1h0.8l0.1,0.1c0.1,0,0.1,0,0.2,0h10.7L92.7,12.9
				z M33.8,19.7c-0.1,0.1-0.1,0.2-0.2,0.3l0.5,0.5c0.2,0.1,0.3,0.2,0.5,0.3c0.1,0,0.2,0.1,0.3,0.1c0.3,0,0.5,0.1,0.8,0.1
				c0.2,0,0.4,0,0.5,0c0.2,0,0.4,0,0.7,0c0.3,0,0.5,0,0.6-0.1c0.2,0,0.3-0.1,0.3-0.2c0-0.1,0.1-0.2,0.2-0.4c0.2-0.6,0.3-0.9,0.3-0.9
				v-0.1c0,0,0-0.1-0.2-0.1c-0.1,0-0.2,0-0.4,0.1c-0.2,0.1-0.4,0.1-0.6,0.2h-1c-0.2,0-0.5,0-1,0.1c-0.5,0.1-0.9,0.1-1.1,0.2
				C34.1,19.6,34,19.6,33.8,19.7z"/>
		</g>
	</g>
</g>
<g id="guides">
</g>
<path fill="#FFFFFF" d="M112.3,3.7c-6.6,0-12,5.4-12,12c0,6.6,5.4,12,12,12c6.7,0,12-5.4,12-12C124.3,9.1,119,3.7,112.3,3.7z
	 M112.4,26.2c-5.9,0-10.7-4.8-10.7-10.7s4.8-10.7,10.7-10.7c5.9,0,10.7,4.8,10.7,10.7S118.3,26.2,112.4,26.2z"/>
<path fill="#FFFFFF" d="M113.2,1.2v10.7c-0.3-0.1-0.6-0.1-1-0.1c-0.4,0-0.7,0-1,0.1V1.2H113.2z"/>
<path fill="#FFFFFF" d="M112.2,19.5c0.3,0,0.7,0,1-0.1V30h-2V19.4C111.5,19.5,111.8,19.5,112.2,19.5z"/>
<path fill="#FFFFFF" d="M108.5,14.6c-0.1,0.3-0.2,0.7-0.2,1.1c0,0.3,0,0.6,0.1,0.9H97.8v-2H108.5z"/>
<path fill="#FFFFFF" d="M126.6,14.6v2H116c0.1-0.3,0.1-0.6,0.1-0.9c0-0.4,0-0.7-0.1-1.1H126.6z"/>
<path fill="#FF0000" d="M98.4,29.4L98.4,29.4c-0.7-0.7-0.7-1.8,0-2.5l25.2-25.2c0.7-0.7,1.8-0.7,2.5,0l0,0c0.7,0.7,0.7,1.8,0,2.5
	l-25.2,25.2C100.1,30.1,99,30.1,98.4,29.4z"/>
</svg>
