<?xml version="1.0" encoding="utf-8"?>
<!-- Generator: Adobe Illustrator 21.0.2, SVG Export Plug-In . SVG Version: 6.00 Build 0)  -->
<svg version="1.1" id="Слой_1" xmlns="http://www.w3.org/2000/svg" xmlns:xlink="http://www.w3.org/1999/xlink" x="0px" y="0px"
	 width="126.9px" height="32px" viewBox="0 0 126.9 32" enable-background="new 0 0 126.9 32" xml:space="preserve">
<g id="Selected_Items">
	<g>
		<g id="Selected_Items_11_">
			<path fill="#FFFFFF" d="M88.8,8c0.2,0,0.4,0.1,0.4,0.3v2.4h-3.9c-0.1,0-0.8,0-1.9,0c-1.1,0-2.4,0.1-3.8,0.1c-1.4,0-2.8,0-4.2,0
				c-1.3,0-2.2,0-2.6,0c0,0.3-0.1,0.6-0.3,0.8c-0.5,0.5-1,0.8-1.4,0.8c-0.2,0-0.5-0.1-0.8-0.4c-0.3-0.3-0.6-0.5-0.7-0.7
				c-0.1,0-0.2,0-0.4-0.1c-0.1,0-0.3-0.1-0.5-0.2L67.9,11c-0.1,0-0.3-0.1-0.7-0.1c-0.4,0-0.8-0.1-1.4-0.1c-0.5,0-1.1,0-1.9,0.1
				c-0.6,0-1.3,0-2,0.1c0,0.1,0,0.2-0.1,0.4c-0.1,0.2-0.1,0.3-0.1,0.4l-0.3,0.1c-0.1,0-0.2,0-0.4,0c0,0.1,0,0.2,0,0.4
				c0,0.1,0,0.2,0,0.4c0,0.2-0.1,0.4-0.1,0.7h-0.3c-1,0-2.1,0-3.3,0c-1.2,0-2.3,0-3.4,0c-1.1,0.1-2,0.1-2.7,0.1c-0.7,0-1.2,0-1.3,0
				c-0.1,0-0.3,0-0.5,0.1c-0.2,0-0.5,0-0.8,0.1c-0.3,0.1-0.6,0.1-1,0.1c-0.3,0.1-0.5,0.1-0.7,0.1h-0.1l-0.2-0.4
				c0-0.3-0.1-0.6-0.1-0.9c0-0.2-0.1-0.5-0.1-0.7c0-0.2,0-0.4,0-0.5c-0.1,0.1-0.4,0.1-0.8,0.2c-0.4,0-0.9,0.1-1.3,0.2
				c-0.4,0.1-0.9,0.2-1.3,0.3c-0.4,0-0.7,0.1-0.8,0.1c0,0.1,0,0.3,0,0.4c-0.1,0.1-0.1,0.3-0.1,0.3c0,1.3,0.2,2.7,0.6,4.3
				c0.4,1.5,0.8,2.9,1.3,4.3c0.5,1.3,0.9,2.4,1.3,3.3c0.4,0.9,0.6,1.3,0.6,1.3l0.1,0.3l-0.3,0.1c-0.1,0.1-0.4,0.2-0.8,0.4
				c-0.4,0.2-0.9,0.4-1.5,0.7c-0.7,0.3-1.6,0.7-2.7,1.3h-0.3c-0.4-0.5-0.9-1.5-1.3-2.8c-0.5-1.3-0.9-2.7-1.3-4.2
				c-0.4-1.4-0.8-2.8-1-4.1c-0.3-1.3-0.5-2.2-0.7-2.6c-0.2,0.1-0.5,0.3-1,0.4c-0.1,0-0.2,0-0.2,0.1c0,0,0,0-0.1,0
				c-0.1,0.2-0.3,0.3-0.6,0.3c-1.2,0.3-2.2,0.3-2.9,0c-0.7-0.3-1.1-0.5-1.4-0.7c0,0.1-0.1,0.1-0.2,0.1l-0.7,0.3
				c-0.8,1.7-1.2,3.2-1.4,4.3c-0.1,1.1-0.2,1.9-0.2,2.4v0.6c0,0.1,0,0.2-0.1,0.2c0,0-0.1,0-0.1,0.1c-0.4,0-1.8-0.6-4.2-1.9l-0.2-0.1
				v-0.1c0.3-0.7,0.6-1.4,0.9-2.1c0.3-0.8,0.5-1.5,0.8-2.1c0.2-0.6,0.4-1.2,0.6-1.7c0.1-0.4,0.2-0.7,0.3-0.8c0-0.1,0-0.2-0.1-0.3
				c0-0.1-0.1-0.2-0.1-0.3c-0.1,0-0.2-0.1-0.3-0.3c-0.1-0.1-0.2-0.2-0.3-0.3c-0.1-0.1-0.2-0.2-0.3-0.3c-0.1-0.1-0.5-0.1-1-0.1
				c-0.6,0-1.3,0-2.1,0c-0.8,0-1.7,0.1-2.6,0.1c-0.9,0.1-1.8,0.1-2.6,0.1l-3.1,0.1c-2,0-4.9,1.8-8.9,5.3L4,19.4
				c-0.2,0.2-0.4,0.5-0.7,0.6c-0.3,0.4-0.6,0.7-0.7,0.8c-0.1,0.1-0.2,0.1-0.3,0.1c-0.2,0-0.4-0.1-0.6-0.4c-0.1-0.4-0.2-0.7-0.2-0.9
				c0-0.1,0-0.5,0-1.1c0-0.6-0.1-1.3-0.2-2.2c-0.1-0.8-0.1-1.7-0.2-2.5c-0.1-0.8-0.2-1.5-0.3-2.1C0.5,11.1,0.6,10.5,1,10
				c0.2-0.3,0.6-0.4,1-0.4c0.4,0,0.7,0,0.8,0h17.2c0.1,0,0.3,0,0.4,0c0.1,0,0.3,0,0.3-0.1V9.3c0.1-0.1,0.2-0.1,0.2-0.2
				c0-0.1,0.1-0.2,0.1-0.3c0.2-0.1,0.4-0.2,0.8-0.2c0.4,0,0.6-0.1,0.8-0.1c0.1-0.1,0.3-0.1,0.4-0.1c0.2,0,0.3-0.1,0.4-0.1
				c0.4-0.1,0.7-0.2,0.9-0.3c0.3-0.1,0.5-0.3,0.6-0.5c0.2-0.1,0.3-0.3,0.3-0.6c0-0.2,0.1-0.6,0.1-1.1V5.3c0-0.4,0.1-0.8,0.3-0.9
				c0.2-0.1,0.5-0.1,0.8-0.1H27l0.1,0.1l0.8,0.8c0,0.2,0.3,0.1,0.9-0.1h0.5c0.1,0.1,0.3,0.3,0.4,0.6c0.1,0.3,0.1,0.7,0.2,1
				c0.7-0.1,1.5-0.1,2.4-0.1c0.8,0,1.3,0.1,1.5,0.1c0.1,0,0.2,0,0.3,0c0.1,0.1,0.2,0.1,0.4,0.1h9.5c0-0.2,0-0.5-0.1-0.6l-0.1-0.3
				h1.7v0.3c0,0.1,0,0.2,0.1,0.2c0,0,0,0,0.1,0h22.9c0,0,0-0.1,0-0.3c0-0.1,0-0.3,0-0.5c-0.1-0.1-0.1-0.3-0.1-0.6l0.5-1l1.6-0.1h0.1
				v2.7l-0.1,0c0,0.1-0.1,0.1-0.1,0.1c0,0-0.1,0.1-0.1,0.1c0.2,0.2,0.6,0.5,1.2,0.9c0.6,0.3,1.2,0.5,2,0.5c0.3,0,0.8,0.1,1.5,0.1
				c0.7,0.1,1.5,0.1,2.4,0.1s1.7,0,2.6-0.1c1,0,1.8,0,2.6,0c0.8,0,1.5,0,2,0c0.5,0,0.8,0,0.9,0c0.1,0,0.3,0,0.7-0.1
				c0.3,0,0.6-0.1,1-0.2c0.4,0,0.8-0.1,1.1-0.1C88.5,7.8,88.7,7.8,88.8,8z M31.4,13c-0.2,0-0.4,0.1-0.6,0.3
				c-0.2,0.2-0.3,0.5-0.3,0.8c0,0.3,0.1,0.6,0.3,0.8c0.2,0.2,0.4,0.3,0.6,0.3h2.7c0.2,0,0.4-0.1,0.7-0.3c0.2-0.2,0.3-0.5,0.3-0.8
				c0-0.3-0.1-0.6-0.3-0.8c-0.2-0.2-0.4-0.3-0.7-0.3H31.4z M2.7,13c0.1,0.5,0.1,1,0.2,1.5c0.1,0.6,0.1,1.2,0.1,1.7
				c0.1,0.5,0.1,0.9,0.2,1.3c0.2-0.2,0.5-0.5,0.9-0.8c0.4-0.3,0.9-0.7,1.3-1.1c1-0.7,1.9-1.4,2.9-2.2c0.9-0.7,1.8-1.3,2.5-1.8H2.5
				C2.6,11.9,2.6,12.4,2.7,13z"/>
		</g>
	</g>
</g>
<g id="guides">
</g>
<path fill="#FFFFFF" d="M95,20c0,0,0.2,2.6,2.7,4.1c0.5,0.3,1.3,0.8,1.7,1c1.9,1.2,2.9,0.9,4.1,0.8c2.3-0.2,6.9-3,7.4-5.6
	c0.5-2.6-0.8-5-2.4-5.4c-1.6-0.4-3.1,0.3-3.5,1.8c-0.5,1.5,1,2.2,1,2.2c-1.6,0.3-2.2-1.3-1.8-2.7c0.3-1.4,1.8-3.1,4.7-2.5
	c2.9,0.7,3.4,3.3,3.4,3.3c1-1.8,3.3-2.8,6-1.8s1.8,3.2,1.8,3.2c-0.1-1.6-1.4-2.3-3.3-2.7c-1.8-0.3-3.6,0.5-4.2,3.2
	c-0.5,2.7,0.8,6.2,3.8,7c3.1,0.8,7.7-0.1,9.5-3.6c1.8-3.5,1.8-9.8-2.9-13.2s-9.3,0.1-9.3,0.1s-0.4-3.8-5.4-4c-5-0.3-5.7,5.3-5.7,5.3
	C102,8,97.3,11,95.9,13.4c-1,1.7-1.6,4.3-1,6.1C94.9,19.6,95,20,95,20z"/>
</svg>
