<?xml version="1.0" encoding="utf-8"?>
<!-- Generator: Adobe Illustrator 21.0.2, SVG Export Plug-In . SVG Version: 6.00 Build 0)  -->
<svg version="1.1" id="Слой_1" xmlns="http://www.w3.org/2000/svg" xmlns:xlink="http://www.w3.org/1999/xlink" x="0px" y="0px"
	 width="80.8px" height="32px" viewBox="0 0 80.8 32" enable-background="new 0 0 80.8 32" xml:space="preserve">
<g id="Selected_Items">
	<g>
		<g id="Selected_Items_12_">
			<path fill="#FFFFFF" d="M43.6,10.8c-0.1,0.1-0.2,0.1-0.4,0.1c-0.4,0.1-1,0.1-1.8,0.2c-0.9,0-1.8,0.1-2.8,0.1c-1,0.1-2,0.1-3,0.1
				c-1,0-1.8,0-2.4,0c-0.7,0-1.3,0-1.7,0.1c-0.4,0.1-0.8,0.1-1,0.2c-0.2,0.1-0.4,0.3-0.4,0.4c-0.1,0.1-0.1,0.3-0.1,0.5v0.3
				c0,0.2,0,0.5,0,0.9c0,0.3,0.1,0.6,0.1,0.9c0.1,0.4,0.2,0.8,0.2,1.1v0.1l-0.6,0.7v0.1c-0.2,0.1-0.7,0.2-1.5,0.2
				c-1.6,0.1-2.9,0.1-4,0.1c-1,0-1.9,0-2.7-0.1c-0.7-0.1-1.2-0.2-1.6-0.2c-0.3-0.1-0.6-0.2-0.7-0.3c-0.2,0-0.4,0-0.7,0.1
				c-0.2,0.2-0.5,0.4-0.8,0.8c-0.4,0.4-0.8,1-1.2,1.9c-0.4,0.9-0.9,2.1-1.5,3.6c-0.6,1.5-1.3,3.3-2,5.6L13,28.5
				c0,0.7-0.2,1.1-0.5,1.2c-0.2,0.2-0.3,0.2-0.5,0.1H2.8c0-0.1,0-0.3,0-0.4C2.9,29.2,3,28.9,3,28.8H2.3c-0.1,0-0.2,0-0.3,0
				c-0.6-0.1-1.1-0.3-1.5-0.9c-0.2-0.3-0.3-0.7-0.3-1.1c0-0.6,0.1-1.1,0.2-1.5c0.1-0.5,0.2-0.7,0.2-0.8v0.1c0,0,0.2-0.3,0.5-0.7
				c0.3-0.4,0.6-1,1.1-1.6c0.5-0.7,0.9-1.4,1.4-2.2c0.6-0.8,1.1-1.5,1.6-2.3c0.5-1,1-2,1.3-2.8C6.9,14.2,7,13.5,7,12.8
				c0-0.4-0.1-0.8-0.2-1.2c-0.2-0.5-0.6-0.9-1-1.2c-0.4-0.2-0.8-0.5-1.3-0.7C4.1,9.6,3.9,9.4,3.7,9.1c-0.1-0.3-0.2-0.6-0.2-1
				c0-0.1,0-0.3,0-0.4c0-0.1,0-0.2,0-0.3l0-0.1V5.2c0-0.4,0-0.7,0-0.9c0-0.2,0-0.4-0.1-0.5h0c0,0,0,0,0-0.1c0,0,0-0.1,0-0.1l0-0.1
				c0-0.1,0.2-0.1,0.4-0.2C4,3.1,4.6,3.1,5.6,3c0.1-0.1,0.1-0.2,0.1-0.2c0-0.1,0-0.1,0.1-0.2C5.8,2.5,5.9,2.4,6,2.3l0.1-0.1l1.2,0
				l0.1,0.3c0.1,0.1,0.1,0.1,0.1,0.2c0,0.1,0,0.2,0,0.2h33.9l0.1-0.2c0.1-0.1,0.1-0.1,0.1-0.1l0.8-0.2c0,0.1,0.1,0.1,0.2,0.2
				l0.2,0.2h1.5l0.3,4.5C44.5,9.3,44.2,10.4,43.6,10.8z M27.4,11.6h-5.8c-0.1,0-0.2,0.1-0.3,0.2c-0.1,0.1-0.2,0.3-0.2,0.6v2
				c0,0.3,0.1,0.5,0.2,0.6c0.1,0.1,0.2,0.2,0.3,0.2h5.8c0.1,0,0.2-0.1,0.3-0.2c0.1-0.1,0.2-0.3,0.2-0.6v-2c0-0.2-0.1-0.4-0.2-0.6
				C27.6,11.7,27.5,11.6,27.4,11.6z"/>
		</g>
	</g>
</g>
<g id="guides">
</g>
<path fill="#FFFFFF" d="M48.8,20.1c0,0,0.2,2.6,2.7,4.1c0.5,0.3,1.3,0.8,1.7,1c1.9,1.2,2.9,0.9,4.1,0.8c2.3-0.2,6.9-3,7.4-5.6
	c0.5-2.6-0.8-5-2.4-5.4c-1.6-0.4-3.1,0.3-3.5,1.8c-0.5,1.5,1,2.2,1,2.2c-1.6,0.3-2.2-1.3-1.8-2.7c0.3-1.4,1.8-3.1,4.7-2.5
	c2.9,0.7,3.4,3.3,3.4,3.3c1-1.8,3.3-2.8,6-1.8s1.8,3.2,1.8,3.2c-0.1-1.6-1.4-2.3-3.3-2.7c-1.8-0.3-3.6,0.5-4.2,3.2
	c-0.5,2.7,0.8,6.2,3.8,7c3.1,0.8,7.7-0.1,9.5-3.6c1.8-3.5,1.8-9.8-2.9-13.2s-9.3,0.1-9.3,0.1s-0.4-3.8-5.4-4c-5-0.3-5.7,5.3-5.7,5.3
	c-0.5-2.7-5.2,0.3-6.6,2.7c-1,1.7-1.6,4.3-1,6.1C48.8,19.6,48.8,20,48.8,20.1z"/>
</svg>
