<?xml version="1.0" encoding="utf-8"?>
<!-- Generator: Adobe Illustrator 21.0.2, SVG Export Plug-In . SVG Version: 6.00 Build 0)  -->
<svg version="1.1" id="Слой_1" xmlns="http://www.w3.org/2000/svg" xmlns:xlink="http://www.w3.org/1999/xlink" x="0px" y="0px"
	 width="81px" height="32px" viewBox="0 0 81 32" enable-background="new 0 0 81 32" xml:space="preserve">
<g id="Selected_Items">
	<g>
		<g id="Selected_Items_12_">
			<path fill="#FFFFFF" d="M43.6,10.8c-0.1,0.1-0.2,0.1-0.4,0.1c-0.4,0.1-1,0.1-1.8,0.2c-0.9,0-1.8,0.1-2.8,0.1c-1,0.1-2,0.1-3,0.1
				c-1,0-1.8,0-2.4,0c-0.7,0-1.3,0-1.7,0.1c-0.4,0.1-0.8,0.1-1,0.2c-0.2,0.1-0.4,0.3-0.4,0.4c-0.1,0.1-0.1,0.3-0.1,0.5v0.3
				c0,0.2,0,0.5,0,0.9c0,0.3,0.1,0.6,0.1,0.9c0.1,0.4,0.2,0.8,0.2,1.1v0.1l-0.6,0.7v0.1c-0.2,0.1-0.7,0.2-1.5,0.2
				c-1.6,0.1-2.9,0.1-4,0.1c-1,0-1.9,0-2.7-0.1c-0.7-0.1-1.2-0.2-1.6-0.2c-0.3-0.1-0.6-0.2-0.7-0.3c-0.2,0-0.4,0-0.7,0.1
				c-0.2,0.2-0.5,0.4-0.8,0.8c-0.4,0.4-0.8,1-1.2,1.9c-0.4,0.9-0.9,2.1-1.5,3.6c-0.6,1.5-1.3,3.3-2,5.6L13,28.5
				c0,0.7-0.2,1.1-0.5,1.2c-0.2,0.2-0.3,0.2-0.5,0.1H2.8c0-0.1,0-0.3,0-0.4C2.9,29.2,3,28.9,3,28.8H2.3c-0.1,0-0.2,0-0.3,0
				c-0.6-0.1-1.1-0.3-1.5-0.9c-0.2-0.3-0.3-0.7-0.3-1.1c0-0.6,0.1-1.1,0.2-1.5c0.1-0.5,0.2-0.7,0.2-0.8v0.1c0,0,0.2-0.3,0.5-0.7
				c0.3-0.4,0.6-1,1.1-1.6c0.5-0.7,0.9-1.4,1.4-2.2c0.6-0.8,1.1-1.5,1.6-2.3c0.5-1,1-2,1.3-2.8C6.9,14.2,7,13.5,7,12.8
				c0-0.4-0.1-0.8-0.2-1.2c-0.2-0.5-0.6-0.9-1-1.2c-0.4-0.2-0.8-0.5-1.3-0.7C4.1,9.6,3.9,9.4,3.7,9.1c-0.1-0.3-0.2-0.6-0.2-1
				c0-0.1,0-0.3,0-0.4c0-0.1,0-0.2,0-0.3l0-0.1V5.2c0-0.4,0-0.7,0-0.9c0-0.2,0-0.4-0.1-0.5h0c0,0,0,0,0-0.1c0,0,0-0.1,0-0.1l0-0.1
				c0-0.1,0.2-0.1,0.4-0.2C4,3.1,4.6,3.1,5.6,3c0.1-0.1,0.1-0.2,0.1-0.2c0-0.1,0-0.1,0.1-0.2C5.8,2.5,5.9,2.4,6,2.3l0.1-0.1l1.2,0
				l0.1,0.3c0.1,0.1,0.1,0.1,0.1,0.2c0,0.1,0,0.2,0,0.2h33.9l0.1-0.2c0.1-0.1,0.1-0.1,0.1-0.1l0.8-0.2c0,0.1,0.1,0.1,0.2,0.2
				l0.2,0.2h1.5l0.3,4.5C44.5,9.3,44.2,10.4,43.6,10.8z M27.4,11.6h-5.8c-0.1,0-0.2,0.1-0.3,0.2c-0.1,0.1-0.2,0.3-0.2,0.6v2
				c0,0.3,0.1,0.5,0.2,0.6c0.1,0.1,0.2,0.2,0.3,0.2h5.8c0.1,0,0.2-0.1,0.3-0.2c0.1-0.1,0.2-0.3,0.2-0.6v-2c0-0.2-0.1-0.4-0.2-0.6
				C27.6,11.7,27.5,11.6,27.4,11.6z"/>
		</g>
	</g>
</g>
<g id="guides">
</g>
<g id="Flash_2_">
	<path fill="#FFFFFF" d="M71.4,12.2c0,2.2-0.8,4.2-2.4,5.8c-1.6,1.6-3.5,2.4-5.8,2.4c-2.2,0-4.2-0.8-5.8-2.4
		c-1.6-1.6-2.4-3.5-2.4-5.8c0-0.6,0.1-1.1,0.2-1.7c0.2-0.1,0.4-0.1,0.6-0.3c0.8-0.4,1.5-0.8,2.3-1.1c0.1,0,0.3-0.1,0.4-0.2
		c-0.7,1-1.1,2.1-1,3.4c0,1.6,0.6,3,1.7,4.1c1.1,1.1,2.5,1.7,4.1,1.7c1.6,0,3-0.6,4.1-1.7c1.1-1.1,1.7-2.5,1.7-4.1
		c0-1.6-0.5-2.9-1.6-4.1c0.7,0.2,1.4,0.4,2.1,0.8c0,0,0,0,0,0c0.4,0.2,0.8,0.4,1.2,0.5C71.3,10.4,71.4,11.3,71.4,12.2z"/>
	<path fill="#FFFFFF" d="M79.2,19.2c-0.7-1.1-1.5-2.2-2.4-3.2c-0.2,0.2-0.4,0.4-0.6,0.6c-3.8,3.8-8.4,5.7-13.8,5.7s-10-1.9-13.9-5.7
		l-0.1,0.1c0.7,1.1,1.6,2.1,2.5,3.1c3.8,3.8,8.4,5.7,13.9,5.7s10-1.9,13.8-5.7C78.9,19.6,79.1,19.4,79.2,19.2L79.2,19.2z"/>
	<path fill="#FFFFFF" d="M76.8,16.1c0.9,1,1.7,2.1,2.4,3.2c0.7-0.7,1.3-1.4,1.8-2.1c-0.6-1-1-1.6-2.4-3.2
		C78.1,14.6,77.5,15.3,76.8,16.1L76.8,16.1z"/>
	<polygon fill="#FF0000" points="67.5,13.8 65.2,15 64.8,17.6 63,15.7 60.4,16.1 61.6,13.8 60.4,11.5 63,11.9 64.8,10 65.2,12.6 	
		"/>
	<path fill="#FFFFFF" d="M76.3,15.5c0.2,0.2,0.4,0.4,0.6,0.6c0.6-0.7,1.2-1.4,1.8-2.2c-0.2-0.2-0.4-0.4-0.6-0.6
		c-3.8-3.8-8.4-5.7-13.8-5.7c-5.4,0-10,1.9-13.9,5.7c-0.8,0.9-1.6,1.8-2.3,2.7l0.1,0.1c0.1-0.2,0.3-0.4,0.5-0.5
		c3.8-3.8,8.4-5.7,13.9-5.7S72.4,11.6,76.3,15.5L76.3,15.5z"/>
</g>
</svg>
