<?xml version="1.0" encoding="utf-8"?>
<!-- Generator: Adobe Illustrator 21.0.2, SVG Export Plug-In . SVG Version: 6.00 Build 0)  -->
<svg version="1.1" id="Selected_Items" xmlns="http://www.w3.org/2000/svg" xmlns:xlink="http://www.w3.org/1999/xlink" x="0px"
	 y="0px" width="67.9px" height="32px" viewBox="0 0 67.9 32" enable-background="new 0 0 67.9 32" xml:space="preserve">
<g>
	<g id="Selected_Items_13_">
		<path fill="#FFFFFF" d="M31.8,11.6c-0.1,0.2-0.3,0.3-0.5,0.3c-0.4,0-3,0.1-7.9,0.1c-0.2,0-0.3,0-0.5,0.1c-0.3,0.1-0.5,0.3-0.6,0.5
			c-0.1,0.2-0.1,0.6,0,1.2c0,0.3,0.1,0.8,0.2,1.4c0,0.3,0.1,0.6,0.2,1c0,0.2-0.1,0.3-0.4,0.3c-0.6,0.1-1.1,0.2-1.6,0.3
			c-0.9,0.1-1.8,0.2-2.8,0.2c-1.6,0-3.3,0-5.2-0.2c-1.7,4.5-2.5,6.8-2.5,7.1c0,0.3,0.1,1.3,0.2,3c0.4,0.3,0.7,0.5,0.9,0.6
			c0.2,0.1,0.3,0.2,0.2,0.3c0,0.1,0,0.1-0.1,0.2L11,28.2c-0.3,0.1-0.6,0.1-0.9,0c-0.5-0.1-3.8-0.7-9.8-2c-0.3-0.1-0.3-0.9,0-2.5
			c0.1-0.7,0.4-1.7,0.9-3c0.5-1.3,0.9-2.4,1.4-3.2c0.4-0.8,0.8-1.7,1-2.6c0.3-0.9,0.4-1.6,0.4-2c-0.1-0.3-0.4-0.6-1.1-1
			c-0.5-0.3-1-0.4-1.5-0.6c-0.3,0-0.5-0.2-0.6-0.4c-0.1-0.1-0.2-0.2-0.3-0.4c-0.1-0.1-0.1-0.4-0.1-0.8c0-0.2,0-0.5,0-1
			c0-0.7,0.1-1.1,0.2-1.2c0.5-0.8,0.9-1.5,1.1-1.9C1.8,5.4,2,5.2,2.2,5c0.2-0.2,0.4-0.3,0.6-0.3c0.2,0,0.4,0,0.6,0l0.4,0
			c0.1-0.2,0.2-0.4,0.3-0.5C4.3,4,4.7,4.1,5.3,4.2l0.2,0.4h10.6V5h4.6V4.7l10.6,0l0.3,0.2c0.2,0.1,0.3,0.3,0.3,0.5
			c0.1,1,0.1,1.9,0.2,2.8c0.1,1.7,0,2.7,0,2.9C31.9,11.4,31.8,11.6,31.8,11.6z M20.8,12.6c-0.1-0.1-0.2-0.1-0.3-0.1v0.1l-3.4,0
			c-0.1,0.5-0.1,0.9,0.2,1.2c0.3,0.5,0.6,0.8,0.8,1c0.2,0.2,0.5,0.3,0.7,0.3c0.3,0,0.4,0.1,0.3,0.2c0,0.1-0.1,0.2-0.3,0.2
			c-0.1,0-0.3,0-0.5,0c-0.3-0.1-0.6-0.2-0.9-0.5c-0.5-0.5-0.9-0.9-1-1.2c-0.1-0.3-0.2-0.8-0.2-1.3l-0.7,0c-0.4,0-0.8,0.2-1.1,0.5
			c-0.3,0.3-0.4,0.7-0.4,1.1c0,0.3,0,0.6,0,1c0.1,0.3,0.3,0.6,0.8,0.7c0.7,0.3,1.3,0.4,1.9,0.3c0.7-0.1,1.3-0.2,1.7-0.2
			c0.2,0,0.6,0,1.1,0c0.5,0.1,0.9,0.1,1.1,0.1c0.3,0,0.6,0,0.7-0.1c0.1-0.1,0.2-0.2,0.3-0.3c0.1-0.2,0.1-0.6,0.1-1.2
			c0-0.6-0.1-1.1-0.3-1.4C21.2,12.8,21,12.7,20.8,12.6z"/>
	</g>
</g>
<g id="Flash_2_">
	<path fill="#FFFFFF" d="M58.1,11.4c0,2.2-0.8,4.2-2.4,5.8c-1.6,1.6-3.5,2.4-5.8,2.4c-2.2,0-4.2-0.8-5.8-2.4
		c-1.6-1.6-2.4-3.5-2.4-5.8c0-0.6,0.1-1.1,0.2-1.7c0.2-0.1,0.4-0.1,0.6-0.3c0.8-0.4,1.5-0.8,2.3-1.1c0.1,0,0.3-0.1,0.4-0.2
		c-0.7,1-1.1,2.1-1,3.4c0,1.6,0.6,3,1.7,4.1c1.1,1.1,2.5,1.7,4.1,1.7c1.6,0,3-0.6,4.1-1.7c1.1-1.1,1.7-2.5,1.7-4.1
		c0-1.6-0.5-2.9-1.6-4.1c0.7,0.2,1.4,0.4,2.1,0.8c0,0,0,0,0,0c0.4,0.2,0.8,0.4,1.2,0.5C58,9.7,58.1,10.5,58.1,11.4z"/>
	<path fill="#FFFFFF" d="M65.9,18.5c-0.7-1.1-1.5-2.2-2.4-3.2c-0.2,0.2-0.4,0.4-0.6,0.6c-3.8,3.8-8.4,5.7-13.8,5.7
		c-5.4,0-10-1.9-13.9-5.7L35.2,16c0.7,1.1,1.6,2.1,2.5,3.1c3.8,3.8,8.4,5.7,13.9,5.7s10-1.9,13.8-5.7C65.6,18.9,65.8,18.7,65.9,18.5
		L65.9,18.5z"/>
	<path fill="#FFFFFF" d="M63.5,15.3c0.9,1,1.7,2.1,2.4,3.2c0.7-0.7,1.3-1.4,1.8-2.1c-0.6-1-1-1.6-2.4-3.2
		C64.8,13.9,64.2,14.6,63.5,15.3L63.5,15.3z"/>
	<polygon fill="#FF0000" points="54.2,13.1 51.9,14.2 51.5,16.8 49.7,15 47.1,15.4 48.3,13.1 47.1,10.7 49.7,11.2 51.5,9.3 
		51.9,11.9 	"/>
	<path fill="#FFFFFF" d="M63,14.7c0.2,0.2,0.4,0.4,0.6,0.6c0.6-0.7,1.2-1.4,1.8-2.2c-0.2-0.2-0.4-0.4-0.6-0.6
		c-3.8-3.8-8.4-5.7-13.8-5.7c-5.4,0-10,1.9-13.9,5.7c-0.8,0.9-1.6,1.8-2.3,2.7l0.1,0.1c0.1-0.2,0.3-0.4,0.5-0.5
		C39.1,10.9,43.7,9,49.1,9S59.1,10.9,63,14.7L63,14.7z"/>
</g>
</svg>
