<?xml version="1.0" encoding="utf-8"?>
<!-- Generator: Adobe Illustrator 21.0.2, SVG Export Plug-In . SVG Version: 6.00 Build 0)  -->
<svg version="1.1" id="Selected_Items" xmlns="http://www.w3.org/2000/svg" xmlns:xlink="http://www.w3.org/1999/xlink" x="0px"
	 y="0px" width="67.3px" height="32px" viewBox="0 0 67.3 32" enable-background="new 0 0 67.3 32" xml:space="preserve">
<g>
	<g id="Selected_Items_13_">
		<path fill="#FFFFFF" d="M31.8,11.6c-0.1,0.2-0.3,0.3-0.5,0.3c-0.4,0-3,0.1-7.9,0.1c-0.2,0-0.3,0-0.5,0.1c-0.3,0.1-0.5,0.3-0.6,0.5
			c-0.1,0.2-0.1,0.6,0,1.2c0,0.3,0.1,0.8,0.2,1.4c0,0.3,0.1,0.6,0.2,1c0,0.2-0.1,0.3-0.4,0.3c-0.6,0.1-1.1,0.2-1.6,0.3
			c-0.9,0.1-1.8,0.2-2.8,0.2c-1.6,0-3.3,0-5.2-0.2c-1.7,4.5-2.5,6.8-2.5,7.1c0,0.3,0.1,1.3,0.2,3c0.4,0.3,0.7,0.5,0.9,0.6
			c0.2,0.1,0.3,0.2,0.2,0.3c0,0.1,0,0.1-0.1,0.2L11,28.2c-0.3,0.1-0.6,0.1-0.9,0c-0.5-0.1-3.8-0.7-9.8-2c-0.3-0.1-0.3-0.9,0-2.5
			c0.1-0.7,0.4-1.7,0.9-3c0.5-1.3,0.9-2.4,1.4-3.2c0.4-0.8,0.8-1.7,1-2.6c0.3-0.9,0.4-1.6,0.4-2c-0.1-0.3-0.4-0.6-1.1-1
			c-0.5-0.3-1-0.4-1.5-0.6c-0.3,0-0.5-0.2-0.6-0.4c-0.1-0.1-0.2-0.2-0.3-0.4c-0.1-0.1-0.1-0.4-0.1-0.8c0-0.2,0-0.5,0-1
			c0-0.7,0.1-1.1,0.2-1.2c0.5-0.8,0.9-1.5,1.1-1.9C1.8,5.4,2,5.2,2.2,5c0.2-0.2,0.4-0.3,0.6-0.3c0.2,0,0.4,0,0.6,0l0.4,0
			c0.1-0.2,0.2-0.4,0.3-0.5C4.3,4,4.7,4.1,5.3,4.2l0.2,0.4h10.6V5h4.6V4.7l10.6,0l0.3,0.2c0.2,0.1,0.3,0.3,0.3,0.5
			c0.1,1,0.1,1.9,0.2,2.8c0.1,1.7,0,2.7,0,2.9C31.9,11.4,31.8,11.6,31.8,11.6z M20.8,12.6c-0.1-0.1-0.2-0.1-0.3-0.1v0.1l-3.4,0
			c-0.1,0.5-0.1,0.9,0.2,1.2c0.3,0.5,0.6,0.8,0.8,1c0.2,0.2,0.5,0.3,0.7,0.3c0.3,0,0.4,0.1,0.3,0.2c0,0.1-0.1,0.2-0.3,0.2
			c-0.1,0-0.3,0-0.5,0c-0.3-0.1-0.6-0.2-0.9-0.5c-0.5-0.5-0.9-0.9-1-1.2c-0.1-0.3-0.2-0.8-0.2-1.3l-0.7,0c-0.4,0-0.8,0.2-1.1,0.5
			c-0.3,0.3-0.4,0.7-0.4,1.1c0,0.3,0,0.6,0,1c0.1,0.3,0.3,0.6,0.8,0.7c0.7,0.3,1.3,0.4,1.9,0.3c0.7-0.1,1.3-0.2,1.7-0.2
			c0.2,0,0.6,0,1.1,0c0.5,0.1,0.9,0.1,1.1,0.1c0.3,0,0.6,0,0.7-0.1c0.1-0.1,0.2-0.2,0.3-0.3c0.1-0.2,0.1-0.6,0.1-1.2
			c0-0.6-0.1-1.1-0.3-1.4C21.2,12.8,21,12.7,20.8,12.6z"/>
	</g>
</g>
<path fill="#FFFFFF" d="M35.4,19.3c0,0,0.2,2.6,2.7,4.1c0.5,0.3,1.3,0.8,1.7,1c1.9,1.2,2.9,0.9,4.1,0.8c2.3-0.2,6.9-3,7.4-5.6
	c0.5-2.6-0.8-5-2.4-5.4c-1.6-0.4-3.1,0.3-3.5,1.8c-0.5,1.5,1,2.2,1,2.2c-1.6,0.3-2.2-1.3-1.8-2.7c0.3-1.4,1.8-3.1,4.7-2.5
	c2.9,0.7,3.4,3.3,3.4,3.3c1-1.8,3.3-2.8,6-1.8s1.8,3.2,1.8,3.2c-0.1-1.6-1.4-2.3-3.3-2.7c-1.8-0.3-3.6,0.5-4.2,3.2
	c-0.5,2.7,0.8,6.2,3.8,7c3.1,0.8,7.7-0.1,9.5-3.6c1.8-3.5,1.8-9.8-2.9-13.2S54,8.8,54,8.8s-0.4-3.8-5.4-4c-5-0.3-5.7,5.3-5.7,5.3
	c-0.5-2.7-5.2,0.3-6.6,2.7c-1,1.7-1.6,4.3-1,6.1C35.3,18.9,35.4,19.3,35.4,19.3z"/>
</svg>
