<?xml version="1.0" encoding="utf-8"?>
<!-- Generator: Adobe Illustrator 21.0.2, SVG Export Plug-In . SVG Version: 6.00 Build 0)  -->
<svg version="1.1" id="Слой_1" xmlns="http://www.w3.org/2000/svg" xmlns:xlink="http://www.w3.org/1999/xlink" x="0px" y="0px"
	 width="133.4px" height="32px" viewBox="0 0 133.4 32" enable-background="new 0 0 133.4 32" xml:space="preserve">
<g id="Selected_Items">
	<g>
		<g id="Selected_Items_32_">
			<path fill="#FFFFFF" d="M55,3.7h0.9l0.4,0.1c0.1,0.1,0.2,0.2,0.3,0.3c0.1,0,0.2,0,0.3,0l0.1,0.1c0.1,0,0.2,0,0.3,0
				c0.1,0,0.2,0,0.3,0c0.1,0,0.2,0,0.4,0c0.2,0,0.3,0.1,0.5,0.2c0.2,0.1,0.4,0.2,0.5,0.3c0.1,0.1,0.2,0.1,0.3,0.1c0.1,0,0.1,0,0.2,0
				c0.1,0.1,0.2,0.1,0.3,0.1h0.3c0,0,0.1,0,0.3,0c0.1,0,0.3,0.1,0.4,0.2c0.2,0,0.3,0.1,0.4,0.1l0.2,0.1h0.1c0.1,0.2,0.1,0.4,0.2,0.5
				c0.1,0.2,0.1,0.4,0.2,0.6c0,0.2,0.1,0.4,0.1,0.6c0,0.2,0,0.3,0,0.5c0,0.2,0,0.3-0.1,0.5c-0.2,0.6-0.4,1-0.6,1.2
				C61,9.7,60.9,9.9,60.9,10c-0.1,0-0.1,0.1-0.1,0.1c-0.1,0-0.1,0-0.2,0h9.7c0,0.1,0.1,0.2,0.1,0.3c0.1,0.2,0.1,0.3,0.2,0.3
				c0.5,0.1,1,0.2,1.5,0.3c0.5,0.1,1.1,0.3,1.6,0.4c0.5,0.1,1,0.2,1.3,0.3c0.4,0.1,0.7,0.1,0.8,0.1c0.2,0,0.4-0.2,0.4-0.6
				c0-0.1,0.1-0.3,0.1-0.5L77,9.2c0,0,0-0.1,0-0.3c0-0.2,0-0.4,0-0.6c0-0.3,0.1-0.5,0.1-0.8h1.2v4l0,0.3v0.1c0,0.1,0.1,0.1,0.3,0.1
				c0.1,0.1,0.5,0.1,1.3,0.1c0.8,0,1.8,0,3,0c1.2,0,2.5,0,3.8,0c1.3,0,2.6,0,3.8,0c0.4,0,0.8,0,1.2,0c0.3,0,0.6,0,0.9,0
				c0.3,0,0.5,0,0.7,0c0.3,0,0.5,0,0.8,0c0.3,0,0.6,0,0.8-0.1c0.5,0,0.9,0,1.1,0c0.2,0,0.3,0,0.3,0.1c0.2,0.9,0.4,1.5,0.3,1.7
				c0,0.2-0.2,0.3-0.3,0.3C96.2,14,95.9,14,95.3,14c-0.6,0-1.2,0-1.8-0.1c-0.6,0-1.2,0-1.7-0.1c-0.6,0-0.9,0-0.9-0.1H78.8
				c0,0.1-0.1,0.1-0.4,0.1v0.5H80l0.6,0.6v1.7h-0.8c-0.1,0-0.2-0.1-0.3-0.1c-0.1,0-0.1-0.1-0.1-0.1c-0.1,0-0.1,0-0.1,0
				c-0.1,0-0.2,0-0.3,0c-0.1,0-0.2,0-0.4,0c-0.2,0-0.4,0.1-0.6,0.1l-5.6,0.2c-0.8,0.1-1.5,0.1-2.1,0.2c-0.7,0-1,0-1,0
				c-0.1,0.2-0.3,0.4-0.5,0.7c-0.2,0.3-0.5,0.5-1,0.5c-0.4,0-0.8-0.3-1.3-0.9c-0.2,0-0.3,0-0.4-0.1C65.8,17,65.7,17,65.6,17
				c0.1,0.4,0.1,0.7,0.1,0.9c0,0.2,0,0.4,0,0.7c0,0.3,0,0.6,0,0.8c0,0.1-0.1,0.3-0.2,0.4c-0.2,0-0.4,0-0.6,0c-0.2,0-0.4-0.1-0.6-0.2
				c-0.1,0-0.5,0-1.3,0c-0.8,0-1.7,0-2.8,0c-1.1,0-2.2,0-3.5,0c-0.9,0-1.7,0-2.4,0c0,0.1,0.1,0.3,0.1,0.4c0.3,1.1,0.4,2,0.4,2.7v6.8
				c0,0.6-0.1,0.9-0.2,0.9c-0.2,0-0.3-0.1-0.5-0.1h-7.9c-0.4,0-0.6,0-0.7-0.1c-0.1-0.1-0.2-0.3-0.2-0.6l-0.1-11.7
				c0-0.1,0.1-0.2,0.1-0.3c0-0.2-0.2-0.3-0.5-0.3c0,0-0.1,0-0.1,0c-0.1,0-0.2,0.1-0.3,0.3c-0.1,0-0.1,0.1-0.1,0.3s0,0.3,0,0.5
				c0,0.1,0,0.2,0.1,0.3c0,0.1-0.1,0.2-0.1,0.3c-0.1,0.1-0.2,0.1-0.3,0.1c0.1,0.2,0.1,0.3,0.1,0.5c0,0.1,0,0.3,0,0.5
				c0,0.4,0,0.7-0.1,1.1c-0.1,0.3-0.4,0.5-0.8,0.6c-0.3,0.2-0.7,0.3-1.2,0.3c-0.4,0-0.8,0-1.2,0c-0.4,0-0.8-0.1-1-0.1
				c-0.3,0-0.4-0.1-0.4-0.2c-0.1,0-0.2,0-0.3-0.1c-0.2,0-0.3-0.1-0.4-0.2c0,0.1-0.1,0.4-0.3,0.9c-0.2,0.5-0.4,1-0.7,1.6
				c-0.2,0.6-0.4,1.1-0.6,1.6c-0.2,0.5-0.3,0.7-0.3,0.8c0,0.1,0.1,0.2,0.2,0.4c0,0.2,0,0.3,0,0.4c0,0.1-0.1,0.2-0.2,0.3
				c0,0.2-0.2,0.4-0.4,0.6c-0.3,0.2-0.8,0.2-1.5,0c-0.4-0.1-0.8-0.2-1.2-0.4c-0.4-0.2-0.8-0.3-1.2-0.5c-0.4-0.1-0.8-0.3-1.3-0.5
				h-0.3l0.1-0.2c0.3-0.5,0.6-1.1,1-1.7c0.4-0.7,0.8-1.3,1.1-1.9c0.4-0.6,0.7-1.1,0.9-1.5c0.2-0.4,0.4-0.7,0.4-0.7
				c0.1-0.2,0.1-0.4,0-0.7c-0.1-0.3-0.3-0.6-0.5-0.7l-0.5-0.3c-0.1-0.1-0.3-0.1-0.4-0.2l-7.2-0.5H20c-1.3,0-2.7,0.1-4,0.4
				c-1.6,0.3-2.4,0.6-2.5,1.1c-0.1,0.2-0.1,0.5-0.1,1c0.1,0.5,0.3,1,0.5,1.4c0.3,0.4,0.4,0.6,0.3,0.8c0,0.1-0.1,0.1-0.3,0.1
				L1.2,23.5c-0.3,0-0.6-0.2-0.8-0.5C0.1,22.7,0,22.3,0,21.8V11.2c0.1-0.2,0.3-0.3,0.6-0.4c0.6-0.2,1.2-0.2,1.9,0.1
				c0.5,0.2,2.9,0.5,7.1,1c0.4,0,0.9,0.4,1.4,1c0.5,0.6,1.1,0.9,1.6,1c0.5,0,1.2,0,2.2-0.1c0.8-0.1,1.6-0.2,2.3-0.3
				c1.6-0.3,2.9-0.7,4.1-1.1c0.7-0.3,1.7-0.7,2.9-1.3c1.6-0.7,3.3-1,5.1-1.1c0.2,0,0.3,0,0.5-0.1c0.7-0.1,1.4-0.2,2-0.3
				c0.7-0.1,1.2-0.1,1.5-0.1V9.4c0.1-0.3,0.3-0.7,0.4-1c0.1-0.3,0.2-0.5,0.3-0.7c0.2-0.2,0.4-0.3,0.7-0.4c0.2-0.1,0.6-0.1,1-0.1
				c0.4,0.1,0.8,0.2,1.2,0.3c0.4,0.1,0.8,0.2,1.1,0.3l1.1,0.4c0.1,0,0.1,0.1,0.2,0.3c0.1,0,0.1,0.1,0.2,0.3c0,0.1,0.1,0.3,0.1,0.5
				v0.5h5.9V9.2h3.1v0.5c0.2,0,0.5,0,0.9,0c0.4,0,0.8,0,1.2,0c0.4,0,0.8,0,1.1,0c0.3,0,0.5,0.1,0.5,0.1c0.1,0,0.4,0,0.9-0.1
				c0.5,0,1.2-0.1,1.9-0.1c0.8,0,1.5-0.1,2.3-0.2c0.8,0,1.6-0.1,2.3-0.3c0.1,0,0.2-0.1,0.3-0.3c0.1-0.1,0.2-0.2,0.4-0.4
				c0.1-0.2,0.2-0.5,0.3-0.8c-0.3-0.2-0.5-0.4-0.7-0.4c-0.1,0-0.2-0.1-0.4-0.2c-0.2,0-0.4-0.1-0.4-0.2c-0.2-0.1-0.5-0.2-0.8-0.3
				c-0.3-0.1-0.6-0.1-0.9-0.2h-0.1c-0.2-0.1-0.5-0.2-0.9-0.2l-0.7-0.1C55.5,6,55.3,6,55.2,5.9c-0.1,0-0.2-0.2-0.4-0.4v0h-0.8
				c-0.3,0-0.5,0-0.6,0c-0.1,0-0.2,0-0.4,0c-0.2-0.3-0.4-0.6-0.4-0.9c-0.1-0.3,0.1-0.8,0.6-1.6V2.9h0.1c0.6,0.2,1,0.3,1.2,0.4
				C54.8,3.5,54.9,3.6,55,3.7z M43.1,19.1c-0.4,0.1-1.3,0.1-2.5,0c-0.1,0.2-0.2,0.4-0.2,0.6c0,0.3,0.1,0.6,0.3,0.8
				c0.2,0.2,0.5,0.3,0.8,0.3h0.9c0.2,0,0.4-0.1,0.6-0.3c0.2-0.2,0.3-0.4,0.3-0.8C43.3,19.5,43.2,19.3,43.1,19.1z"/>
		</g>
	</g>
</g>
<g id="guides">
</g>
<path fill="#FFFFFF" d="M101.4,20.2c0,0,0.2,2.6,2.7,4.1c0.5,0.3,1.3,0.8,1.7,1c1.9,1.2,2.9,0.9,4.1,0.8c2.3-0.2,6.9-3,7.4-5.6
	c0.5-2.6-0.8-5-2.4-5.4c-1.6-0.4-3.1,0.3-3.5,1.8c-0.5,1.5,1,2.2,1,2.2c-1.6,0.3-2.2-1.3-1.8-2.7c0.3-1.4,1.8-3.1,4.7-2.5
	c2.9,0.7,3.4,3.3,3.4,3.3c1-1.8,3.3-2.8,6-1.8s1.8,3.2,1.8,3.2c-0.1-1.6-1.4-2.3-3.3-2.7c-1.8-0.3-3.6,0.5-4.2,3.2
	c-0.5,2.7,0.8,6.2,3.8,7c3.1,0.8,7.7-0.1,9.5-3.6c1.8-3.5,1.8-9.8-2.9-13.2S120,9.7,120,9.7s-0.4-3.8-5.4-4c-5-0.3-5.7,5.3-5.7,5.3
	c-0.5-2.7-5.2,0.3-6.6,2.7c-1,1.7-1.6,4.3-1,6.1C101.3,19.7,101.4,20.1,101.4,20.2z"/>
</svg>
