<?xml version="1.0" encoding="utf-8"?>
<!-- Generator: Adobe Illustrator 21.0.2, SVG Export Plug-In . SVG Version: 6.00 Build 0)  -->
<svg version="1.1" id="Layer_1" xmlns="http://www.w3.org/2000/svg" xmlns:xlink="http://www.w3.org/1999/xlink" x="0px" y="0px"
	 width="114.9px" height="32px" viewBox="0 0 114.9 32" enable-background="new 0 0 114.9 32" xml:space="preserve">
<g id="Selected_Items">
	<g>
		<g id="Selected_Items_31_">
			<path fill="#FFFFFF" d="M78.1,12.7l-3.5,0v-0.2l-2.4,0l-0.5,0.2l-4.1,0l0.8,0.2v0.7l-0.2,0.2l-0.9,0V14h-0.7v-1.2h0.2v-0.2
				l-2.5-0.1l-0.1,0.2l-0.1,0.6c0,0.1-0.1,0.1-0.1,0.1c-0.1,0.1-0.1,0.1-0.2,0.1c-0.1,0-0.1-0.1-0.2-0.1l-0.2-0.1l0-0.5l-0.1-0.2
				h-0.5l0,0.8c0,0.1-0.1,0.1-0.2,0.2l-0.2,0.1h-0.3l-0.2,0.5L48,14.4l-0.3-0.2l-0.3-0.1l-0.7,0.3l-0.1-1l-0.7,0l0,0.6l0,0.1
				c0,0.1-0.1,0.1-0.1,0.2c-0.1,0-0.1,0.1-0.2,0.1l-0.1,0c0,0-0.1,0-0.1,0c-0.1,0-0.2,0.1-0.2,0.2c-0.1,0.1-0.1,0.2-0.2,0.2L44.8,15
				v3.3l0.2,0.1l0,0.3l-0.5,0.2v1.2c0.1,0.9,0.2,1.8,0.3,2.6c0.2,0.8,0.5,1.8,0.8,3c0.2,0.6,0.3,1.1,0.5,1.6l0.2,0.2L40.6,29h-0.2
				v-0.2c-0.2-0.6-0.4-1.3-0.6-2c-0.4-1.5-0.7-2.7-0.9-3.4c-0.2-0.7-0.3-1.5-0.3-2.3l-0.1-1l-0.4,0.1l-0.5-0.1H34l-1.2,0.1
				c-0.1,0-0.1,0-0.2,0c-0.2,0-0.3,0-0.4,0.1c-0.1,0.1-0.2,0.2-0.2,0.2l-0.8,1.6l0.4,0.5l-0.1,0.1c-0.2,0.1-0.3,0.1-0.5,0.2
				c-0.1,0.1-0.2,0.1-0.3,0.2l-0.1,0.1l-1.7,3.2c-0.1,0.1-0.1,0.2,0,0.3c0,0.1,0.1,0.2,0.2,0.3c0.1,0.1,0.1,0.1,0.2,0.1L29,27.7
				l-5.4-1.3l4.9-8.5c0.1-0.1,0.1-0.2,0.1-0.3c0.1-0.2,0.1-0.5,0.1-0.7c-0.1-0.3-0.2-0.5-0.3-0.7c-0.1-0.2-0.3-0.3-0.4-0.5
				c-0.2-0.1-0.3-0.2-0.5-0.2l-1.2,0v0.2l-0.3,0l0-2.1l-1,0l0-0.3H21l-0.9,0.7l-3.7,0.1v0.3l-3.2,0l0,2H11v0.8H9.9v-0.8l-3.6,2.3
				v-1.9l-4.6,2.1l0,0.8l0,0.1c-0.1,0.1-0.1,0.2-0.2,0.2s-0.1-0.1-0.2-0.2l0-0.1L1.3,9.3h4.1c0.1,0,0.1,0.1,0.2,0.2
				C5.6,9.6,5.6,9.8,5.7,10l10.5,0.1c0.1,0,0.1,0.1,0.1,0.1c0.1,0.1,0.1,0.1,0.1,0.2l8.5,0l0-0.3h1V9.8l0.3,0l0,0.3l1,0V9.6h1
				l0.1,0.1l2.6-4.1l0.1-0.2c0.1-0.1,0.2-0.2,0.3-0.2C31.5,5,31.6,5,31.8,5c0.1,0,0.2,0,0.2,0l12.9,1.4l0.4,0.1
				c0.3,0.1,0.5,0.2,0.7,0.4C46,7,46.1,7.2,46.3,7.5c0.1,0.1,0.1,0.2,0.2,0.3l-0.1,2.5l0.3,0l0-1.1l0.8,0.2V9.1l0.3,0
				c0,0,0-0.1,0-0.1c0-0.1,0.1-0.1,0.1-0.1c0.1,0,0.1-0.1,0.2-0.1L62.3,9l0.2,0.3v0.4l0.4,0l0.1,0C63,9.8,63,9.9,63,9.9
				c0,0.1,0.1,0.4,0.1,0.9h0.5l0-1.5L66,6l0.2-0.2c0.2-0.1,0.3-0.2,0.5-0.2c0.4,0.1,0.7,0.2,0.8,0.4c0.1,0.1,0.1,0.2,0.1,0.3
				c0,0.1,0,0.1,0,0.1l0,4.4h4.1l0.5,0.2l2.3,0v-0.2l3.5,0 M66.8,8.6c-0.1-0.1-0.1-0.1-0.2-0.2c0-0.1-0.1-0.2-0.2-0.5l0-0.4
				l-0.9-0.1l-1.4,2.2l0.2,0.2h2.6l0.2-0.2V8.6H66.8z M64.4,10.8h2.5l0.1-0.4h-2.6V10.8z M44.9,7H34.1c-0.1,0-0.2,0-0.3,0
				c-0.2,0.1-0.3,0.1-0.4,0.2c-0.1,0.1-0.2,0.2-0.3,0.3l-0.2,0.2l-0.6,1.5l0.2,0.2l12.3-0.1l0.2,0c0.1,0,0.2-0.1,0.3-0.2
				c0.3-0.2,0.5-0.5,0.5-1c0-0.4-0.1-0.7-0.4-0.9C45.2,7.2,45.1,7.1,45,7L44.9,7z M4.9,14.2l-0.2,0H1.9l-0.2,0
				c-0.1,0.1-0.1,0.2-0.1,0.2s0.1,0.1,0.2,0.2c0,0,0.1,0.1,0.1,0.1h2.9c0.1,0,0.1-0.1,0.1-0.1C5,14.5,5,14.5,5,14.4
				C5,14.3,5,14.3,4.9,14.2z M1.7,9.7v0.4h3.7c0-0.1,0-0.2,0-0.3c0-0.1,0-0.1-0.1-0.2L5,9.6L1.7,9.7z M37.1,17
				C37,17,36.9,17,36.8,16.9h-1.5c-0.1,0.1-0.2,0.2-0.3,0.3c-0.2,0.3-0.3,0.6-0.3,0.9c0,0.3,0.1,0.6,0.3,0.8
				c0.1,0.1,0.2,0.2,0.3,0.3l-0.2,0.1c-0.2-0.1-0.3-0.2-0.5-0.4c-0.3-0.3-0.5-0.6-0.5-1c0-0.2,0-0.5,0.2-0.8l0.2-0.3
				c-0.2,0-0.5,0.1-0.7,0.2c-0.5,0.3-0.7,0.8-0.6,1.4c0,0.3,0.2,0.6,0.5,0.9c0.2,0.2,0.3,0.3,0.5,0.4h3.5v-0.5
				c0.1-0.1,0.2-0.3,0.3-0.5c0.1-0.4,0.1-0.8-0.1-1.2C37.6,17.4,37.4,17.2,37.1,17z"/>
		</g>
	</g>
</g>
<g id="guides">
</g>
<path fill="#FFFFFF" d="M82.9,19.8c0,0,0.2,2.6,2.7,4.1c0.5,0.3,1.3,0.8,1.7,1c1.9,1.2,2.9,0.9,4.1,0.8c2.3-0.2,6.9-3,7.4-5.6
	c0.5-2.6-0.8-5-2.4-5.4c-1.6-0.4-3.1,0.3-3.5,1.8c-0.5,1.5,1,2.2,1,2.2c-1.6,0.3-2.2-1.3-1.8-2.7c0.3-1.4,1.8-3.1,4.7-2.5
	c2.9,0.7,3.4,3.3,3.4,3.3c1-1.8,3.3-2.8,6-1.8s1.8,3.2,1.8,3.2c-0.1-1.6-1.4-2.3-3.3-2.7c-1.8-0.3-3.6,0.5-4.2,3.2
	c-0.5,2.7,0.8,6.2,3.8,7c3.1,0.8,7.7-0.1,9.5-3.6c1.8-3.5,1.8-9.8-2.9-13.2s-9.3,0.1-9.3,0.1s-0.4-3.8-5.4-4c-5-0.3-5.7,5.3-5.7,5.3
	c-0.5-2.7-5.2,0.3-6.6,2.7c-1,1.7-1.6,4.3-1,6.1C82.9,19.3,82.9,19.7,82.9,19.8z"/>
</svg>
