<?xml version="1.0" encoding="utf-8"?>
<!-- Generator: Adobe Illustrator 21.0.2, SVG Export Plug-In . SVG Version: 6.00 Build 0)  -->
<svg version="1.1" id="Слой_1" xmlns="http://www.w3.org/2000/svg" xmlns:xlink="http://www.w3.org/1999/xlink" x="0px" y="0px"
	 width="133.4px" height="32px" viewBox="0 0 133.4 32" enable-background="new 0 0 133.4 32" xml:space="preserve">
<g id="Selected_Items">
	<g>
		<g id="Selected_Items_31_">
			<path fill="#FFFFFF" d="M96.5,9.1v3.7L96.4,13l-17.7,0l0-0.7l0.3,0l0-0.3l-5.7-0.1v-0.2l-2.4,0l-0.5,0.2l-4.1,0l0.8,0.2v0.7
				l-0.2,0.2l-0.9,0v0.3h-0.7V12h0.2v-0.2l-2.5-0.1L63.1,12L63,12.6c0,0.1-0.1,0.1-0.1,0.1c-0.1,0.1-0.1,0.1-0.2,0.1
				c-0.1,0-0.1-0.1-0.2-0.1l-0.2-0.1l0-0.5l-0.1-0.2h-0.5l0,0.8c0,0.1-0.1,0.1-0.2,0.2L61.5,13h-0.3L61,13.5l-14.2,0.1l-0.3-0.2
				l-0.3-0.1l-0.7,0.3l-0.1-1l-0.7,0l0,0.6l0,0.1c0,0.1-0.1,0.1-0.1,0.2c-0.1,0-0.1,0.1-0.2,0.1l-0.1,0c0,0-0.1,0-0.1,0
				c-0.1,0-0.2,0.1-0.2,0.2c-0.1,0.1-0.1,0.2-0.2,0.2l-0.1,0.2v3.3l0.2,0.1l0,0.3L43.4,18v1.2c0.1,0.9,0.2,1.8,0.3,2.6
				c0.2,0.8,0.5,1.8,0.8,3c0.2,0.6,0.3,1.1,0.5,1.6l0.2,0.2l-5.8,1.6h-0.2v-0.2c-0.2-0.6-0.4-1.3-0.6-2c-0.4-1.5-0.7-2.7-0.9-3.4
				c-0.2-0.7-0.3-1.5-0.3-2.3l-0.1-1l-0.4,0.1l-0.5-0.1h-3.6l-1.2,0.1c-0.1,0-0.1,0-0.2,0c-0.2,0-0.3,0-0.4,0.1
				c-0.1,0.1-0.2,0.2-0.2,0.2l-0.8,1.6l0.4,0.5l-0.1,0.1c-0.2,0.1-0.3,0.1-0.5,0.2c-0.1,0.1-0.2,0.1-0.3,0.2l-0.1,0.1l-1.7,3.2
				c-0.1,0.1-0.1,0.2,0,0.3c0,0.1,0.1,0.2,0.2,0.3c0.1,0.1,0.1,0.1,0.2,0.1l-0.2,0.3l-5.4-1.3l4.9-8.5c0.1-0.1,0.1-0.2,0.1-0.3
				c0.1-0.2,0.1-0.5,0.1-0.7c-0.1-0.3-0.2-0.5-0.3-0.7c-0.1-0.2-0.3-0.3-0.4-0.5c-0.2-0.1-0.3-0.2-0.5-0.2l-1.2,0v0.2l-0.3,0l0-2.1
				l-1,0l0-0.3h-3.9L18.8,13L15.2,13v0.3l-3.2,0l0,2H9.8v0.8H8.7v-0.8l-3.6,2.3v-1.9L0.5,18l0,0.8l0,0.1C0.3,19,0.3,19,0.2,19
				S0.1,19,0,18.9l0-0.1L0.1,8.5h4.1c0.1,0,0.1,0.1,0.2,0.2c0.1,0.1,0.1,0.3,0.1,0.5L15,9.3c0.1,0,0.1,0.1,0.1,0.1
				c0.1,0.1,0.1,0.1,0.1,0.2l8.5,0l0-0.3h1V9L25,9l0,0.3l1,0V8.7h1l0.1,0.1l2.6-4.1l0.1-0.2c0.1-0.1,0.2-0.2,0.3-0.2
				c0.1-0.1,0.2-0.1,0.4-0.2c0.1,0,0.2,0,0.2,0l12.9,1.4L44,5.6c0.3,0.1,0.5,0.2,0.7,0.4c0.1,0.2,0.3,0.4,0.4,0.7
				c0.1,0.1,0.1,0.2,0.2,0.3l-0.1,2.5l0.3,0l0-1.1l0.8,0.2V8.2l0.3,0c0,0,0-0.1,0-0.1c0-0.1,0.1-0.1,0.1-0.1c0.1,0,0.1-0.1,0.2-0.1
				L61,8.1l0.2,0.3v0.4l0.4,0l0.1,0C61.7,9,61.8,9,61.8,9.1c0,0.1,0.1,0.4,0.1,0.9h0.5l0-1.5l2.4-3.3L65,5c0.2-0.1,0.3-0.2,0.5-0.2
				c0.4,0.1,0.7,0.2,0.8,0.4c0.1,0.1,0.1,0.2,0.1,0.3c0,0.1,0,0.1,0,0.1l0,4.4h4.1l0.5,0.2l2.3,0V10H79V9h17.3L96.5,9.1z M65.6,7.7
				c-0.1-0.1-0.1-0.1-0.2-0.2c0-0.1-0.1-0.2-0.2-0.5l0-0.4l-0.9-0.1l-1.4,2.2l0.2,0.2h2.6l0.2-0.2V7.7H65.6z M63.1,10h2.5l0.1-0.4
				h-2.6C63.1,9.6,63.1,10,63.1,10z M43.7,6.1H32.9c-0.1,0-0.2,0-0.3,0c-0.2,0.1-0.3,0.1-0.4,0.2c-0.1,0.1-0.2,0.2-0.3,0.3l-0.2,0.2
				l-0.6,1.5l0.2,0.2l12.3-0.1l0.2,0c0.1,0,0.2-0.1,0.3-0.2c0.3-0.2,0.5-0.5,0.5-1c0-0.4-0.1-0.7-0.4-0.9c-0.1-0.1-0.2-0.1-0.3-0.2
				L43.7,6.1z M3.7,13.4l-0.2,0H0.7l-0.2,0c-0.1,0.1-0.1,0.2-0.1,0.2s0.1,0.1,0.2,0.2c0,0,0.1,0.1,0.1,0.1h2.9
				c0.1,0,0.1-0.1,0.1-0.1c0.1-0.1,0.1-0.1,0.1-0.2C3.8,13.5,3.8,13.4,3.7,13.4z M0.4,8.8v0.4h3.7c0-0.1,0-0.2,0-0.3
				c0-0.1,0-0.1-0.1-0.2l-0.2,0L0.4,8.8z M35.9,16.2c-0.1-0.1-0.2-0.1-0.3-0.1h-1.5c-0.1,0.1-0.2,0.2-0.3,0.3
				c-0.2,0.3-0.3,0.6-0.3,0.9c0,0.3,0.1,0.6,0.3,0.8c0.1,0.1,0.2,0.2,0.3,0.3l-0.2,0.1c-0.2-0.1-0.3-0.2-0.5-0.4
				c-0.3-0.3-0.5-0.6-0.5-1c0-0.2,0-0.5,0.2-0.8l0.2-0.3c-0.2,0-0.5,0.1-0.7,0.2c-0.5,0.3-0.7,0.8-0.6,1.4c0,0.3,0.2,0.6,0.5,0.9
				c0.2,0.2,0.3,0.3,0.5,0.3h3.5v-0.5c0.1-0.1,0.2-0.3,0.3-0.5c0.1-0.4,0.1-0.8-0.1-1.2C36.4,16.6,36.2,16.4,35.9,16.2z"/>
		</g>
	</g>
</g>
<g id="guides">
</g>
<g id="Flash_2_">
	<path fill="#FFFFFF" d="M123.8,11.7c0,2.2-0.8,4.2-2.4,5.8c-1.6,1.6-3.5,2.4-5.8,2.4c-2.2,0-4.2-0.8-5.8-2.4
		c-1.6-1.6-2.4-3.5-2.4-5.8c0-0.6,0.1-1.1,0.2-1.7c0.2-0.1,0.4-0.1,0.6-0.3c0.8-0.4,1.5-0.8,2.3-1.1c0.1,0,0.3-0.1,0.4-0.2
		c-0.7,1-1.1,2.1-1,3.4c0,1.6,0.6,3,1.7,4.1c1.1,1.1,2.5,1.7,4.1,1.7c1.6,0,3-0.6,4.1-1.7c1.1-1.1,1.7-2.5,1.7-4.1
		c0-1.6-0.5-2.9-1.6-4.1c0.7,0.2,1.4,0.4,2.1,0.8c0,0,0,0,0,0c0.4,0.2,0.8,0.4,1.2,0.5C123.7,10,123.8,10.8,123.8,11.7z"/>
	<path fill="#FFFFFF" d="M131.6,18.7c-0.7-1.1-1.5-2.2-2.4-3.2c-0.2,0.2-0.4,0.4-0.6,0.6c-3.8,3.8-8.4,5.7-13.8,5.7
		s-10-1.9-13.9-5.7l-0.1,0.1c0.7,1.1,1.6,2.1,2.5,3.1c3.8,3.8,8.4,5.7,13.9,5.7c5.4,0,10-1.9,13.8-5.7
		C131.3,19.1,131.5,18.9,131.6,18.7L131.6,18.7z"/>
	<path fill="#FFFFFF" d="M129.2,15.6c0.9,1,1.7,2.1,2.4,3.2c0.7-0.7,1.3-1.4,1.8-2.1c-0.6-1-1-1.6-2.4-3.2
		C130.4,14.1,129.8,14.9,129.2,15.6L129.2,15.6z"/>
	<polygon fill="#FF0000" points="119.9,13.3 117.5,14.5 117.2,17.1 115.3,15.2 112.7,15.7 114,13.3 112.7,11 115.3,11.4 117.2,9.6 
		117.5,12.2 	"/>
	<path fill="#FFFFFF" d="M128.6,15c0.2,0.2,0.4,0.4,0.6,0.6c0.6-0.7,1.2-1.4,1.8-2.2c-0.2-0.2-0.4-0.4-0.6-0.6
		c-3.8-3.8-8.4-5.7-13.8-5.7c-5.4,0-10,1.9-13.9,5.7c-0.8,0.9-1.6,1.8-2.3,2.7l0.1,0.1c0.1-0.2,0.3-0.4,0.5-0.5
		c3.8-3.8,8.4-5.7,13.9-5.7C120.2,9.3,124.8,11.2,128.6,15L128.6,15z"/>
</g>
</svg>
