<?xml version="1.0" encoding="utf-8"?>
<!-- Generator: Adobe Illustrator 21.0.2, SVG Export Plug-In . SVG Version: 6.00 Build 0)  -->
<svg version="1.1" id="Слой_1" xmlns="http://www.w3.org/2000/svg" xmlns:xlink="http://www.w3.org/1999/xlink" x="0px" y="0px"
	 width="154.5px" height="32px" viewBox="0 0 154.5 32" enable-background="new 0 0 154.5 32" xml:space="preserve">
<g id="Selected_Items">
	<g>
		<g id="Selected_Items_30_">
			<path fill="#FFFFFF" d="M39.1,16.9c0-0.3-0.1-0.6-0.3-0.8c-0.2-0.2-0.4-0.3-0.7-0.3h-1.9c0,0,0,0,0,0c-0.1,0.1-0.1,0.2-0.2,0.5
				c0,0.2,0.1,0.5,0.2,0.9c0.1,0.3,0.2,0.5,0.1,0.5c-0.2,0.1-0.5-0.1-0.9-0.7c-0.1-0.2-0.2-0.4-0.3-0.7l0-0.5
				c-0.2,0.1-0.3,0.2-0.5,0.3c-0.3,0.3-0.4,0.5-0.4,0.8c0,0.4,0.1,0.7,0.3,1c0.2,0.3,0.5,0.5,0.9,0.5h2.4c0.5,0,0.8-0.2,1-0.5
				C39,17.6,39.1,17.3,39.1,16.9z M68.9,6.5c-0.1,0.3-0.2,0.4-0.2,0.5c0,0.1,0,0.2,0,0.5L69,8h1.8l0.1-2.3h-1.5L68.9,6.5z M73,11
				c-0.1,0-0.1,0-0.2-0.1l-0.1-0.1h-1.2c-0.2,0.4-0.3,0.7-0.5,0.7h-0.6c-0.1,0-0.2-0.1-0.2-0.2l-0.1-0.2h-2.4v0.6
				c0,0.2-0.1,0.3-0.3,0.5c-0.2,0.2-0.4,0.3-0.7,0.3H47.9c-0.1,0-0.3-0.1-0.4-0.4l-0.2-0.4L47,12.5h-0.3v4.5l0.3,0.4
				c0,0.1-0.1,0.2-0.3,0.3c-0.1,0.1-0.2,0.3-0.1,0.8c0.1,0.9,0.1,1.4,0.1,1.6c0,0.5,0,1,0.1,1.4c0.1,0.3,0.2,0.8,0.3,1.3
				c0.2,0.7,0.5,1.9,1.1,3.6l0.2,0.1c0.1,0.1,0,0.2-0.1,0.3c-3.9,1.2-5.9,1.9-6.2,1.9c-0.2,0-0.3-0.1-0.3-0.2
				c-0.1-0.1-0.1-0.2,0-0.4c0-0.1-0.1-0.5-0.4-1.4c-0.4-1.2-0.6-2.3-0.8-3.4c-0.2-1.2-0.3-2.2-0.4-3.2l0-1.1l-0.5-0.2v-0.4
				c-0.2,0.3-0.4,0.5-0.5,0.5h-4.4c-0.2,0.3-0.3,0.4-0.4,0.4c-0.1,0-0.2-0.1-0.3-0.2L33.9,19c-0.1-0.1-0.2-0.1-0.3-0.1
				c-0.2,0-0.4,0.1-0.5,0.4c-0.1,0.2-0.2,0.4-0.3,0.5c-0.2,0.2-0.3,0.3-0.3,0.4c-0.1,0.1,0,0.3,0.1,0.5c0.2,0.2,0.2,0.4,0.2,0.5
				c0,0.1-0.2,0.1-0.5,0.3c-0.3,0.1-0.5,0.3-0.6,0.5c0,0.1-0.3,0.6-0.8,1.5c-0.4,0.8-0.7,1.3-0.7,1.4c0,0.1,0.1,0.2,0.3,0.5
				c0.2,0.2,0.2,0.4,0,0.6c-0.3,0.4-1.4,0.4-3.5,0.1c-0.8-0.1-1.4-0.3-1.8-0.5c-0.5-0.3-0.6-0.5-0.5-0.9c0.2-0.4,1.9-3.3,4.9-8.5
				c0.2-0.3,0.2-0.7,0-1.2c-0.2-0.5-0.4-0.8-0.7-0.9c-0.2,0-0.5,0-0.7,0c-0.2,0-0.3,0-0.4,0c-0.3-0.1-0.4-0.3-0.4-0.6
				c0-0.3,0-0.6,0-0.9c0-0.5,0-0.9,0-1.1h-0.2l-0.5-0.2v-0.2h-6l-0.1,0.4c-0.1,0.3-0.4,0.6-0.7,0.9c-0.4,0.3-0.7,0.5-0.9,0.8
				l-0.3,0.3L18,14.8h-0.9l-0.6,1.1h-2.3v-0.6h-1.4c-2,1.5-3.1,2.4-3.3,2.5C9.3,17.9,9.1,18,9,18c-0.1,0-0.2-0.1-0.3-0.2l0-0.4
				l-6.2,4l-0.1,0.5c-0.1,0.3-0.3,0.5-0.4,0.5c-0.2,0.1-0.4,0-0.7,0C1,22.3,0.7,22.2,0.6,22c-0.3-0.2-0.4-0.3-0.4-0.4
				C0.1,21.6,0,21.4,0,21.1V9.2c0-0.3,0.1-0.6,0.4-0.8C0.6,8.1,1,7.9,1.4,7.9h19.4c0.1,0,0.2,0.1,0.2,0.3c0,0.1,0.1,0.2,0.1,0.3h5.6
				V8.3l0.5-0.2h1V7.3l0.2-0.2C28.6,7,29,6.9,29.5,6.9h2.3l0.8-1.2l-0.1-0.4c-0.2-0.1-0.3-0.1-0.5-0.2c-0.3-0.2-0.5-0.5-0.5-0.9
				c0-0.3,0.1-0.5,0.3-0.7c0.2-0.2,0.5-0.4,0.8-0.4c0.3,0,0.6,0.1,0.9,0.4c0.2,0.2,0.3,0.5,0.3,0.7v2.3h0.5V5.9h1.4v0.8h11
				c0.2,0,0.3,0.1,0.4,0.2c0.1,0.1,0.2,0.2,0.2,0.4c0,0.1,0.2,0.1,0.5-0.2h1.2c0-0.1,0-0.1,0-0.2c0.1-0.1,0.2-0.2,0.3-0.2h17.4
				c0.2,0,0.3,0.1,0.4,0.2c0.1,0.1,0.1,0.1,0.2,0.2L68.2,6c0.6-0.8,0.9-1.3,1.1-1.4l0.2-0.2c0.2-0.1,0.6-0.2,1-0.2h1v5h1.2L72.8,9
				c0.1-0.1,0.2-0.2,0.3-0.2h4.7c0.2,0,0.4,0.1,0.5,0.2c0.2,0.2,0.3,0.4,0.3,0.8v0.4c0,0.3-0.1,0.5-0.3,0.6C78.2,11,78,11,77.8,11
				L73,11L73,11z"/>
		</g>
	</g>
</g>
<g id="guides">
</g>
<g id="Flash_2_">
	<path fill="#FFFFFF" d="M105.6,11.4c0,2.2-0.8,4.2-2.4,5.8c-1.6,1.6-3.5,2.4-5.8,2.4c-2.2,0-4.2-0.8-5.8-2.4
		c-1.6-1.6-2.4-3.5-2.4-5.8c0-0.6,0.1-1.1,0.2-1.7c0.2-0.1,0.4-0.1,0.6-0.3c0.8-0.4,1.5-0.8,2.3-1.1c0.1,0,0.3-0.1,0.4-0.2
		c-0.7,1-1.1,2.1-1,3.4c0,1.6,0.6,3,1.7,4.1c1.1,1.1,2.5,1.7,4.1,1.7c1.6,0,3-0.6,4.1-1.7c1.1-1.1,1.7-2.5,1.7-4.1
		c0-1.6-0.5-2.9-1.6-4.1c0.7,0.2,1.4,0.4,2.1,0.8c0,0,0,0,0,0c0.4,0.2,0.8,0.4,1.2,0.5C105.5,9.6,105.6,10.5,105.6,11.4z"/>
	<path fill="#FFFFFF" d="M113.4,18.4c-0.7-1.1-1.5-2.2-2.4-3.2c-0.2,0.2-0.4,0.4-0.6,0.6c-3.8,3.8-8.4,5.7-13.8,5.7
		s-10-1.9-13.9-5.7l-0.1,0.1c0.7,1.1,1.6,2.1,2.5,3.1c3.8,3.8,8.4,5.7,13.9,5.7c5.4,0,10-1.9,13.8-5.7
		C113.1,18.8,113.3,18.6,113.4,18.4L113.4,18.4z"/>
	<path fill="#FFFFFF" d="M111,15.2c0.9,1,1.7,2.1,2.4,3.2c0.7-0.7,1.3-1.4,1.8-2.1c-0.6-1-1-1.6-2.4-3.2
		C112.3,13.8,111.7,14.5,111,15.2L111,15.2z"/>
	<polygon fill="#FF0000" points="101.7,13 99.4,14.2 99,16.8 97.2,14.9 94.6,15.3 95.8,13 94.6,10.7 97.2,11.1 99,9.2 99.4,11.8 	
		"/>
	<path fill="#FFFFFF" d="M110.5,14.6c0.2,0.2,0.4,0.4,0.6,0.6c0.6-0.7,1.2-1.4,1.8-2.2c-0.2-0.2-0.4-0.4-0.6-0.6
		c-3.8-3.8-8.4-5.7-13.8-5.7c-5.4,0-10,1.9-13.9,5.7c-0.8,0.9-1.6,1.8-2.3,2.7l0.1,0.1c0.1-0.2,0.3-0.4,0.5-0.5
		c3.8-3.8,8.4-5.7,13.9-5.7S106.6,10.8,110.5,14.6L110.5,14.6z"/>
</g>
<path fill="#FFFFFF" d="M122.5,19.3c0,0,0.2,2.6,2.7,4.1c0.5,0.3,1.3,0.8,1.7,1c1.9,1.2,2.9,0.9,4.1,0.8c2.3-0.2,6.9-3,7.4-5.6
	c0.5-2.6-0.8-5-2.4-5.4c-1.6-0.4-3.1,0.3-3.5,1.8c-0.5,1.5,1,2.2,1,2.2c-1.6,0.3-2.2-1.3-1.8-2.7c0.3-1.4,1.8-3.1,4.7-2.5
	c2.9,0.7,3.4,3.3,3.4,3.3c1-1.8,3.3-2.8,6-1.8s1.8,3.2,1.8,3.2c-0.1-1.6-1.4-2.3-3.3-2.7c-1.8-0.3-3.6,0.5-4.2,3.2
	c-0.5,2.7,0.8,6.2,3.8,7c3.1,0.8,7.7-0.1,9.5-3.6c1.8-3.5,1.8-9.8-2.9-13.2s-9.3,0.1-9.3,0.1s-0.4-3.8-5.4-4c-5-0.3-5.7,5.3-5.7,5.3
	c-0.5-2.7-5.2,0.3-6.6,2.7c-1,1.7-1.6,4.3-1,6.1C122.4,18.8,122.5,19.2,122.5,19.3z"/>
</svg>
