<?xml version="1.0" encoding="utf-8"?>
<!-- Generator: Adobe Illustrator 21.0.2, SVG Export Plug-In . SVG Version: 6.00 Build 0)  -->
<svg version="1.1" id="Слой_1" xmlns="http://www.w3.org/2000/svg" xmlns:xlink="http://www.w3.org/1999/xlink" x="0px" y="0px"
	 width="121.3px" height="32px" viewBox="0 0 121.3 32" enable-background="new 0 0 121.3 32" xml:space="preserve">
<g id="Selected_Items">
	<g>
		<g id="Selected_Items_33_">
			<path fill="#FFFFFF" d="M44.5,6.1v1.4l-0.6,0.6h-2.3c-0.1,0.1-0.1,0.1-0.2,0.1c-0.1,0-0.1,0-0.2,0v2.4h-6.1c0,0.1,0,0.2,0,0.4
				s0,0.3,0.1,0.4c0,0.1,0,0.3,0,0.4c0,0-0.1,0.1-0.2,0.1c-0.1,0-0.2,0.1-0.3,0.2c0,0.1,0.1,0.3,0.1,0.6c0.1,0.2,0.1,0.4,0.1,0.5
				h-1.2c-0.7,0-1.2,0-1.4,0c-0.1,0.1-0.2,0.4-0.4,0.7c-0.1,0.3-0.3,0.7-0.6,1.1c-0.2,0.4-0.5,0.7-0.9,1c-0.3,0.3-0.7,0.5-1.2,0.5
				c-0.7,0.1-1.5,0.1-2.4,0c-0.9,0-1.7-0.2-2.2-0.7c-0.2,0-0.3-0.1-0.3-0.2v8.4c-0.2,0-0.3,0.1-0.3,0.1c-0.1,0.1-0.3,0.1-0.4,0.1
				v7.2h-5.4v-7c0,0-0.1-0.1-0.1-0.1c0,0-0.1,0-0.1,0c0,0-0.1,0-0.1,0H15l-0.7-0.9c0.4-1.7,0.7-3.3,1.1-4.7c0.3-1.2,0.5-2.3,0.7-3.3
				l0.4-1.5c-0.3-0.6-0.6-1.2-0.9-1.6c-0.3-0.5-0.6-0.8-0.7-0.8c-0.2-0.1-0.6-0.1-1.3-0.1c-0.7,0-1.3,0-1.9,0.1c0,0-0.1,0.1-0.1,0.1
				c-0.1,0.1-0.2,0.1-0.2,0.2l-0.3,0.3L10.4,12c0-0.1,0-0.1-0.1-0.2c0,0,0-0.1,0-0.1c0-0.1-0.1-0.1-0.1-0.1H5.7V15H5.5
				c-0.1,0.1-0.3,0.2-0.7,0.3c-0.4,0.1-0.7,0.1-1.1,0c-0.2-0.1-0.4-0.1-0.6-0.2C3.1,15,3,15,2.9,15c0,0-0.1,0-0.2,0
				c-0.2,0-0.3,0-0.5,0c-0.2,0-0.3,0-0.6,0c-0.1,0-0.2-0.1-0.3-0.2C1.2,14.6,1,14.3,0.8,14c-0.1-0.1-0.1-0.2-0.1-0.4
				c0-0.2,0-0.3,0-0.3c0-0.5,0.1-1,0.3-1.5c0-0.1,0-0.4,0.1-1c0-0.6,0-1.1,0-1.7l0.4-7l1.1-1.4V0.5l2.4,0.1c0.5,0.1,1.1,0.1,1.8,0.2
				C7.4,0.9,8,0.9,8.6,0.9C9.1,1,9.6,1,10,1.1c0.4,0.1,0.6,0.1,0.7,0.1c0.1,0,0.3,0,0.8,0c0.5,0.1,1,0.2,1.6,0.2
				c0.6,0.1,1.1,0.1,1.6,0.2c0.5,0.1,0.8,0.1,0.9,0.1h0.1v0.1C15.9,1.9,16,2,16,2.1c0.1,0.1,0.1,0.3,0,0.5c-0.1,0.2-0.3,0.3-0.7,0.4
				c-0.2,0.1-0.6,0.1-0.9,0.1c-0.4,0-0.8,0-1.2,0c-0.4,0-0.8,0-1.1,0c-0.3,0-0.5,0-0.5,0L7.3,2.8H7.2c0,0,0,0,0-0.1v0.4
				c0.2,0,0.5,0,0.8,0c0.4,0,0.8,0,1.2,0.1c0.4,0,0.8,0.1,1.2,0.1c0.4,0,0.6,0,0.7,0c0.1,0,0.7,0,1.9,0c1.2,0,2.7,0,4.3,0
				c1.7,0,3.6,0,5.6,0c2,0,3.8,0,5.5,0c0,0,0-0.2,0-0.4c0-0.2,0-0.4,0.1-0.6c0-0.2,0.1-0.5,0.1-0.7h0.1c0.2,0,0.4-0.1,0.8-0.1
				c0.3,0,0.6,0,0.9,0c0.3,0,0.6,0,0.8,0c0.3,0,0.5,0.1,0.5,0.1C31.9,1.9,32,2,32.2,2.3c0.1,0.3,0.2,0.5,0.3,0.7h4.7
				c0-0.1,0-0.2,0-0.2c0-0.1,0-0.2,0.1-0.4c0-0.1,0-0.2,0-0.4h0.1c0.2-0.1,0.4-0.2,0.7-0.3c0.2-0.1,0.5-0.2,0.9-0.3
				c0.2-0.1,0.5-0.2,0.8-0.2c0.3-0.1,0.5-0.1,0.6,0c0.3,0.1,0.5,0.3,0.6,0.5c0.1,0.2,0.1,0.3,0.1,0.4v3.1l0.5,0.4h2.6L44.5,6.1z
				 M26.1,15.2h3.5c0.3,0,0.6-0.1,0.7-0.3c0.2-0.2,0.3-0.4,0.3-0.7v-0.6c0-0.3-0.1-0.6-0.3-0.7c-0.2-0.2-0.4-0.3-0.7-0.3h-3.5
				c-0.3,0-0.6,0.1-0.8,0.3C25.1,13,25,13.3,25,13.6v0.6c0,0.3,0.1,0.6,0.4,0.7C25.6,15.1,25.8,15.2,26.1,15.2z M3.8,3.2
				c-0.2,0-0.4,0-0.6,0C3.2,3.3,3.1,3.5,3.1,3.6c0,0.2,0,0.4,0,0.7c0,0.4,0,0.8,0,1.3c0,0.5,0.1,1,0.1,1.6c0.1-0.8,0.3-1.6,0.6-2.3
				c0.2-0.7,0.4-1.2,0.5-1.5C4.2,3.3,4,3.2,3.8,3.2z"/>
		</g>
	</g>
</g>
<g id="guides">
</g>
<g id="Flash_2_">
	<path fill="#FFFFFF" d="M72.4,11.3c0,2.2-0.8,4.2-2.4,5.8c-1.6,1.6-3.5,2.4-5.8,2.4c-2.2,0-4.2-0.8-5.8-2.4
		c-1.6-1.6-2.4-3.5-2.4-5.8c0-0.6,0.1-1.1,0.2-1.7c0.2-0.1,0.4-0.1,0.6-0.3c0.8-0.4,1.5-0.8,2.3-1.1c0.1,0,0.3-0.1,0.4-0.2
		c-0.7,1-1.1,2.1-1,3.4c0,1.6,0.6,3,1.7,4.1c1.1,1.1,2.5,1.7,4.1,1.7c1.6,0,3-0.6,4.1-1.7c1.1-1.1,1.7-2.5,1.7-4.1
		c0-1.6-0.5-2.9-1.6-4.1c0.7,0.2,1.4,0.4,2.1,0.8c0,0,0,0,0,0c0.4,0.2,0.8,0.4,1.2,0.5C72.3,9.5,72.4,10.4,72.4,11.3z"/>
	<path fill="#FFFFFF" d="M80.2,18.3c-0.7-1.1-1.5-2.2-2.4-3.2c-0.2,0.2-0.4,0.4-0.6,0.6c-3.8,3.8-8.4,5.7-13.8,5.7s-10-1.9-13.9-5.7
		l-0.1,0.1c0.7,1.1,1.6,2.1,2.5,3.1c3.8,3.8,8.4,5.7,13.9,5.7c5.4,0,10-1.9,13.8-5.7C79.9,18.7,80,18.5,80.2,18.3L80.2,18.3z"/>
	<path fill="#FFFFFF" d="M77.8,15.2c0.9,1,1.7,2.1,2.4,3.2c0.7-0.7,1.3-1.4,1.8-2.1c-0.6-1-1-1.6-2.4-3.2
		C79,13.7,78.4,14.4,77.8,15.2L77.8,15.2z"/>
	<polygon fill="#FF0000" points="68.5,12.9 66.1,14.1 65.8,16.7 63.9,14.8 61.3,15.2 62.5,12.9 61.3,10.6 63.9,11 65.8,9.1 
		66.1,11.7 	"/>
	<path fill="#FFFFFF" d="M77.2,14.6c0.2,0.2,0.4,0.4,0.6,0.6c0.6-0.7,1.2-1.4,1.8-2.2c-0.2-0.2-0.4-0.4-0.6-0.6
		c-3.8-3.8-8.4-5.7-13.8-5.7c-5.4,0-10,1.9-13.9,5.7c-0.8,0.9-1.6,1.8-2.3,2.7l0.1,0.1c0.1-0.2,0.3-0.4,0.5-0.5
		c3.8-3.8,8.4-5.7,13.9-5.7S73.4,10.7,77.2,14.6L77.2,14.6z"/>
</g>
<g id="Smoke_2_">
	<path display="none" fill="#FFFFFF" d="M87.3,18.4c0.3-0.2,0.6-0.3,1-0.4c0.2-0.1,0.5-0.1,0.7-0.1l0.3,1.1"/>
	<path fill="#FFFFFF" d="M89.2,19.2c0,0,0.2,2.6,2.7,4.1c0.5,0.3,1.3,0.8,1.7,1c1.9,1.2,2.9,0.9,4.1,0.8c2.3-0.2,6.9-3,7.4-5.6
		c0.5-2.6-0.8-5-2.4-5.4c-1.6-0.4-3.1,0.3-3.5,1.8c-0.5,1.5,1,2.2,1,2.2c-1.6,0.3-2.2-1.3-1.8-2.7c0.3-1.4,1.8-3.1,4.7-2.5
		c2.9,0.7,3.4,3.3,3.4,3.3c1-1.8,3.3-2.8,6-1.8s1.8,3.2,1.8,3.2c-0.1-1.6-1.4-2.3-3.3-2.7c-1.8-0.3-3.6,0.5-4.2,3.2
		c-0.5,2.7,0.8,6.2,3.8,7c3.1,0.8,7.7-0.1,9.5-3.6c1.8-3.5,1.8-9.8-2.9-13.2s-9.3,0.1-9.3,0.1s-0.4-3.8-5.4-4
		c-5-0.3-5.7,5.3-5.7,5.3c-0.5-2.7-5.2,0.3-6.6,2.7c-1,1.7-1.6,4.3-1,6.1C89.1,18.7,89.2,19.1,89.2,19.2z"/>
</g>
</svg>
