<?xml version="1.0" encoding="utf-8"?>
<!-- Generator: Adobe Illustrator 21.0.2, SVG Export Plug-In . SVG Version: 6.00 Build 0)  -->
<svg version="1.1" id="Layer_1" xmlns="http://www.w3.org/2000/svg" xmlns:xlink="http://www.w3.org/1999/xlink" x="0px" y="0px"
	 width="169px" height="39.1px" viewBox="0 0 169 39.1" enable-background="new 0 0 169 39.1" xml:space="preserve">
<path fill="#FFFFFF" d="M90.9,10.2c0,0.6-0.1,1.2-0.3,1.9c-0.1,0.4-0.2,0.7-0.3,0.9H63.3v0.8L63,14.3H38.3v-1.1h-1
	c-0.2,0.1-0.2,0.4,0,0.8l0.7,2.1h0.3l0.1,0.4l-0.6,0.3l0.2,0.5c0.2,0.4,0.3,0.9,0.5,1.5c0.7,1.7,1.5,3.6,2.6,5.6
	c1,2,2.5,4.4,4.3,7.1c0.9,1.3,1.7,2.5,2.5,3.5l-3.7,2.9c-0.7-0.9-1.5-2-2.5-3.4c-1.8-2.7-3.3-5.2-4.5-7.5c-1.1-2.3-2.1-4.4-3-6.4
	l-1-2.3l-0.3,0.1h-1.4l-0.4,2.1H31l0.3-2h-1.5L29.5,19l-1.8,3.5c-0.1,0.3-0.3,0.4-0.6,0.5h-5.5c-0.5,0-0.9-0.1-1.2-0.4l-0.2,0.1
	c-0.1,0.2-0.2,0.3-0.3,0.5c-0.1,0.1-0.1,0.4-0.1,0.6c0,0.3-0.1,0.5-0.2,0.7c0,0.1-0.1,0.3-0.3,0.6c-0.2,0.2-0.4,0.5-0.5,0.8
	c-0.1,0.3-0.2,0.6-0.2,0.9c0,0.3,0,0.6-0.1,0.7c0,0.2-0.2,0.4-0.4,0.8c-0.2,0.3-0.4,0.6-0.5,0.9c-0.1,0.2-0.1,0.5-0.1,0.9
	c0,0.3-0.1,0.5-0.1,0.7c-0.1,0.2-0.3,0.5-0.5,0.7c-0.2,0.1-0.3,0.2-0.4,0.3l-5.9-3.3c0-0.3,0.1-0.7,0.3-1.2c0.3-1,0.7-2,1.2-3
	c0.4-0.9,1-1.7,1.6-2.6c0.3-0.4,0.5-0.7,0.6-0.8c0.1-0.3,0.3-0.5,0.4-0.7c0.2-0.6,0.3-1.1,0.4-1.5c0.1-0.6,0-1-0.3-1.4
	c-0.2-0.3-0.5-0.6-0.9-0.8c-0.2-0.1-0.4-0.1-0.4-0.2c-0.1,0-0.2-0.1-0.3-0.1c-0.1-0.1-0.2-0.2-0.2-0.3H9.1c-0.3,0-0.6-0.3-0.8-0.8
	L7.7,12L7.5,12l-0.1,0.4L8,14.5L7.7,15H6.2l-0.3-0.6l1-2l-0.1-0.4l-0.4,0.2c-0.3,0.3-0.5,0.6-0.7,0.9c-0.2,0.4-0.3,0.7-0.4,1.1
	c-0.1,0.2-0.1,0.3-0.1,0.4l-0.6,3.4c-0.4,2.2-0.6,3.4-0.8,3.5c-0.1,0.1-0.3,0.2-0.4,0.4c-0.1,0.1-0.2,0.1-0.3,0.1
	c-0.2,0-0.5,0-0.8,0c-0.4-0.1-0.7-0.2-0.8-0.4c-0.2-0.2-0.3-0.3-0.3-0.5c0-0.1,0-0.2,0-0.5c0,0,0.1-0.8,0.4-2.3
	C1.8,17,2,16,2.1,15.3c0-0.4,0-1.8,0-3.9V8.6c0-0.5,0-0.8,0.1-1.1c0.2-0.2,0.4-0.3,0.6-0.3c0.3,0,0.9,0,2,0.2c0.5,0.1,1,0.3,1.5,0.3
	h1.3l0.1-0.8C7.9,6.7,8,6.4,8.1,6c0.3-0.7,0.4-1.1,0.6-1.3C8.7,4.6,8.9,4.5,9,4.5c0.1,0,0.1,0,0.1,0h3.7l0.4,0.2h1.8L15,3.2
	c0.1-0.3,0.3-0.6,0.4-0.7c0.2-0.1,0.4-0.2,0.6-0.2c0.2,0,0.4,0,0.5,0l0.2,0.8l0.4-1L19.2,3l-0.5,0.8l0.5,0.7h18.9l0.4,0.1h22.8V4.1
	H61V1.7l0.2-0.3H62l0.7,2v1.2h0.5l0.3,0.5v1.7h-0.3v0.6h27.3l0.2,0.9C90.8,9,90.9,9.6,90.9,10.2z M28.3,19L28,18.6h-4.1L23.7,19
	c-0.1,0.3-0.2,0.5-0.3,0.8c0,0.2,0,0.5,0.1,0.9c0.1,0.3,0.1,0.6,0.2,0.8l0,0.5l-0.4-0.2c-0.3-0.4-0.5-0.9-0.6-1.3
	c-0.1-0.4-0.1-0.8-0.1-1.3v-0.5h-1l-0.5,1c-0.3,0.7-0.4,1.1-0.5,1.2c0,0.2,0,0.5,0,0.9c0.3,0.3,0.6,0.5,1,0.5h5
	c0.2,0,0.4-0.2,0.5-0.4L28.3,19z"/>
<g id="Flash_2_">
	<path fill="#FFFFFF" d="M120.1,15.9c0,2.2-0.8,4.2-2.4,5.8c-1.6,1.6-3.5,2.4-5.8,2.4c-2.2,0-4.2-0.8-5.8-2.4
		c-1.6-1.6-2.4-3.5-2.4-5.8c0-0.6,0.1-1.1,0.2-1.7c0.2-0.1,0.4-0.1,0.6-0.3c0.8-0.4,1.5-0.8,2.3-1.1c0.1,0,0.3-0.1,0.4-0.2
		c-0.7,1-1.1,2.1-1,3.4c0,1.6,0.6,3,1.7,4.1c1.1,1.1,2.5,1.7,4.1,1.7c1.6,0,3-0.6,4.1-1.7c1.1-1.1,1.7-2.5,1.7-4.1
		c0-1.6-0.5-2.9-1.6-4.1c0.7,0.2,1.4,0.4,2.1,0.8c0,0,0,0,0,0c0.4,0.2,0.8,0.4,1.2,0.5C120,14.1,120.1,15,120.1,15.9z"/>
	<path fill="#FFFFFF" d="M127.9,22.9c-0.7-1.1-1.5-2.2-2.4-3.2c-0.2,0.2-0.4,0.4-0.6,0.6c-3.8,3.8-8.4,5.7-13.8,5.7
		s-10-1.9-13.9-5.7l-0.1,0.1c0.7,1.1,1.6,2.1,2.5,3.1c3.8,3.8,8.4,5.7,13.9,5.7c5.4,0,10-1.9,13.8-5.7
		C127.6,23.3,127.8,23.1,127.9,22.9L127.9,22.9z"/>
	<path fill="#FFFFFF" d="M125.5,19.7c0.9,1,1.7,2.1,2.4,3.2c0.7-0.7,1.3-1.4,1.8-2.1c-0.6-1-1-1.6-2.4-3.2
		C126.8,18.3,126.2,19,125.5,19.7L125.5,19.7z"/>
	<polygon fill="#FF0000" points="116.2,17.5 113.9,18.7 113.5,21.3 111.7,19.4 109.1,19.8 110.3,17.5 109.1,15.2 111.7,15.6 
		113.5,13.7 113.9,16.3 	"/>
	<path fill="#FFFFFF" d="M125,19.1c0.2,0.2,0.4,0.4,0.6,0.6c0.6-0.7,1.2-1.4,1.8-2.2c-0.2-0.2-0.4-0.4-0.6-0.6
		c-3.8-3.8-8.4-5.7-13.8-5.7c-5.4,0-10,1.9-13.9,5.7c-0.8,0.9-1.6,1.8-2.3,2.7l0.1,0.1c0.1-0.2,0.3-0.4,0.5-0.5
		c3.8-3.8,8.4-5.7,13.9-5.7S121.1,15.3,125,19.1L125,19.1z"/>
</g>
<path fill="#FFFFFF" d="M137,23.8c0,0,0.2,2.6,2.7,4.1c0.5,0.3,1.3,0.8,1.7,1c1.9,1.2,2.9,0.9,4.1,0.8c2.3-0.2,6.9-3,7.4-5.6
	c0.5-2.6-0.8-5-2.4-5.4c-1.6-0.4-3.1,0.3-3.5,1.8c-0.5,1.5,1,2.2,1,2.2c-1.6,0.3-2.2-1.3-1.8-2.7c0.3-1.4,1.8-3.1,4.7-2.5
	c2.9,0.7,3.4,3.3,3.4,3.3c1-1.8,3.3-2.8,6-1.8c2.7,1,1.8,3.2,1.8,3.2c-0.1-1.6-1.4-2.3-3.3-2.7c-1.8-0.3-3.6,0.5-4.2,3.2
	c-0.5,2.7,0.8,6.2,3.8,7c3.1,0.8,7.7-0.1,9.5-3.6c1.8-3.5,1.8-9.8-2.9-13.2s-9.3,0.1-9.3,0.1s-0.4-3.8-5.4-4c-5-0.3-5.7,5.3-5.7,5.3
	c-0.5-2.7-5.2,0.3-6.6,2.7c-1,1.7-1.6,4.3-1,6.1C136.9,23.3,137,23.7,137,23.8z"/>
</svg>
