<?xml version="1.0" encoding="utf-8"?>
<!-- Generator: Adobe Illustrator 21.0.2, SVG Export Plug-In . SVG Version: 6.00 Build 0)  -->
<svg version="1.1" id="Слой_1" xmlns="http://www.w3.org/2000/svg" xmlns:xlink="http://www.w3.org/1999/xlink" x="0px" y="0px"
	 width="157px" height="32px" viewBox="0 0 157 32" enable-background="new 0 0 157 32" xml:space="preserve">
<g id="Selected_Items">
	<g>
		<g id="Selected_Items_38_">
			<path fill="#FFFFFF" d="M80.8,7.3c0,0,0.1,0.1,0.1,0.1C80.9,7.5,81,7.5,81,7.6c0,0.1,0,0.1,0,0.2c0,0,0.1,0.1,0.1,0.1
				c0,0,0,0,0,0c0,0,0.1,0,0.1,0c0,0,0,0.1,0,0.1c0,0,0.1,0,0.1,0v0c0,0,0,0.1,0,0.1c0,0,0,0.1,0,0.1v0c0,0,0,0.1,0,0.1
				c0,0,0,0.1,0,0.1l0,0c0,0,0,0,0,0c0,0,0,0.1,0,0.1s0,0.1,0,0.1c0,0,0,0.1,0,0.1c0,0,0,0.1,0,0.1l-0.1,0c0,0-0.1,0-0.1,0h0l0,0
				c0,0,0,0.1,0,0.1c0,0,0,0.1,0,0.1c0,0,0,0,0,0s0,0,0,0c0,0,0,0.1,0,0.1c0,0-0.1,0-0.1,0v0c0,0-0.1,0-0.1,0c0,0,0,0,0,0h0
				c-0.8,0-1.7,0-2.5,0l0,0c-0.1,0-0.1,0-0.1,0h0c0,0-0.1,0-0.1,0s-0.1,0-0.1,0c-6.6,0-13.1,0.1-19.6,0.1c0,0-0.1,0-0.1,0v0
				c0,0,0,0.1,0,0.1v0.1c0,0,0,0.1,0,0.1s0,0.1,0,0.1v0c0,0,0,0.1,0,0.1c0,0,0,0.1,0,0.1v0.3c0,0,0,0.1,0,0.1v0c0,0,0,0.1,0,0.1
				c0,0,0,0.1,0,0.1v0.1c0,0,0,0.1,0,0.1v0.1c0,0,0.1,0,0.1,0c0,0,0.1,0,0.1,0h0c0,0,0.1,0,0.1,0c0,0,0.1,0,0.1,0c0,0,0,0.1,0,0.1h0
				c0,0,0,0.1,0,0.1v0c0,0,0.1,0,0.1,0v0c0,0,0,0.1,0,0.1c0,0,0,0.1,0,0.1v0l0,0c-0.1,0-0.1,0.1-0.1,0.1v0.1c0,0,0,0.1,0,0.1
				c0,0,0,0.1,0,0.1v0.1c0,0,0,0.1,0,0.1v0.1c0,0,0,0.1,0,0.1c0,0,0,0.1,0,0.1v0c0,0,0,0.1,0,0.1c0,0,0,0.1,0,0.1v0c0,0,0,0.1,0,0.1
				v0c0,0,0,0.1,0,0.1c0,0,0,0.1,0,0.1c0,0,0,0.1,0,0.1v0c0,0,0,0.1,0,0.1s0,0.1,0,0.1c0,0,0,0.1,0,0.1c0,0,0,0.1,0,0.1v0
				c0,0,0,0.1,0,0.1c0,0,0,0.1,0,0.1v0.1c0,0,0,0.1,0,0.1v0c0,0,0,0.1,0,0.1c0,0,0,0.1,0,0.1v0c0,0,0,0.1,0,0.1c0,0,0,0.1,0,0.1
				c0,0,0,0.1,0,0.1s0,0.1,0,0.1v0l0,0v0c-0.1,0-0.1,0-0.1,0c-0.1,0-0.2,0-0.3,0c0,0-0.1,0-0.1,0h0v0c0,0,0,0.1,0,0.1v0
				c0,0,0,0.1,0,0.1c0,0,0,0.1,0,0.1v0c0,0,0,0.1,0,0.1c0,0,0,0.1,0,0.1s0,0.1,0,0.1s0,0.1,0,0.1v0.1c0,0,0,0.1,0,0.1v0
				c0,0,0,0.1,0,0.1v0c0,0,0,0.1,0,0.1v0c0,0,0,0.1,0,0.1s0,0.1,0,0.1v0c0,0,0,0.1,0,0.1c0,0,0,0.1,0,0.1c0,0,0,0.1,0,0.1v0.1
				c0,0,0,0.1,0,0.1s0,0.1,0,0.1v0c0,0,0,0.1,0,0.1v0c0,0,0,0.1,0,0.1v0h0.1l0,0c0,0,0.1,0,0.1,0c0,0,0,0.1,0,0.1l0,0
				c0,0,0,0.1,0,0.1v0c0,0,0,0,0,0h0c0,0,0,0.1,0,0.1c0,0,0,0.1,0,0.1v0c0,0,0,0.1,0,0.1l0,0c0,0,0,0.1,0,0.1v0c0,0,0,0.1,0,0.1
				c0,0,0,0.1,0,0.1V19c0,0,0,0.1,0,0.1s0,0.1,0,0.1c0,0,0,0.1,0,0.1v0c0,0,0,0.1,0,0.1c0,0,0,0.1,0,0.1v0c0,0,0,0.1,0,0.1v0
				c0,0,0,0.1,0,0.1v0c0,0,0,0.1,0,0.1v0.1c0,0,0,0.1,0,0.1s0,0.1,0,0.1v0.1c0,0,0,0.1,0,0.1s0,0.1,0,0.1v0c0,0,0,0.1,0,0.1
				c0,0,0,0.1,0,0.1V21c0,0,0,0.1,0,0.1s0,0.1,0,0.1v0c0,0,0,0.1,0,0.1c0,0,0,0.1,0,0.1v0.1c0,0,0,0.1,0,0.1c0,0,0,0.1,0,0.1v0
				c0,0,0,0.1,0,0.1v0.1c0,0,0,0.1,0,0.1c0,0,0,0.1,0,0.1v0c0,0,0,0.1,0,0.1c0,0,0,0.1,0,0.1v0c0,0,0,0.1,0,0.1v0.1c0,0,0,0.1,0,0.1
				v0.1c0,0,0,0.1,0,0.1c0,0,0,0.1,0,0.1v0.1c0,0,0,0.1,0,0.1c0,0,0,0.1,0,0.1v0c0,0,0,0.1,0,0.1s0,0.1,0,0.1v0c0,0,0,0.1,0,0.1v0
				c0,0,0,0.1,0,0.1c0,0,0,0.1,0,0.1v0c0,0,0,0.1,0,0.1c0,0,0,0.1,0,0.1v0.1c0,0,0,0.1,0,0.1c0,0,0,0.1,0,0.1v0c0,0,0,0.1,0,0.1v0.1
				c0,0,0,0.1,0,0.1v0c0,0,0,0.1,0,0.1v0c0,0,0,0.1,0,0.1c0,0,0,0.1,0,0.1v0c0,0,0,0.1,0,0.1s0,0.1,0,0.1c0,0,0,0.1,0,0.1
				s0,0.1,0,0.1s0,0.1,0,0.1s0,0.1,0,0.1v0c0,0,0,0.1,0,0.1v0c0,0,0,0.1,0,0.1v0c0,0,0,0.1,0,0.1s0,0.1,0,0.1v0c0,0,0,0.1,0,0.1
				s0,0.1,0,0.1v0c0,0,0,0.1,0,0.1c0,0,0,0.1,0,0.1v0c0,0,0,0.1,0,0.1s0,0.1,0,0.1V27c0,0,0,0.1,0,0.1v0c0,0,0,0.1,0,0.1
				s0,0.1,0,0.1c0,0,0,0.1,0,0.1s0,0.1,0,0.1v0.1c0,0,0,0.1,0,0.1c0,0,0,0.1,0,0.1v0c0,0,0,0.1,0,0.1c0,0,0,0.1,0,0.1v0.1
				c0,0,0,0.1,0,0.1v0.1c0,0,0,0.1,0,0.1v0c0,0,0,0.1,0,0.1c0,0,0,0.1,0,0.1v0.1c0,0,0,0.1,0,0.1c0,0,0,0.1,0,0.1v0c0,0,0,0.1,0,0.1
				c0,0,0.1,0,0.1,0c0,0,0,0.1,0,0.1c0,0,0,0.1,0,0.1c0,0,0,0.1,0,0.1c-0.1,0-0.1,0-0.1,0c-0.1,0-0.3,0-0.4,0c0,0,0,0.1,0,0.1
				c0,0-0.1,0.1-0.1,0.1v0c0,0,0,0.1,0,0.1c0,0,0,0.1,0,0.1v0c0,0,0,0.1,0,0.1v0c0,0,0,0.1,0,0.1c0,0,0,0.1,0,0.1s0,0.1,0,0.1v0
				c0,0,0,0.1,0,0.1c0,0,0,0.1,0,0.1c0,0,0,0.1,0,0.1c0,0,0,0.1,0,0.1v0c0,0,0,0.1,0,0.1c0,0,0,0.1,0,0.1c0,0,0,0.1,0,0.1v0
				c0,0,0,0.1,0,0.1v0c0,0,0,0.1,0,0.1s0,0.1,0,0.1v0c0,0,0,0.1,0,0.1v0c0,0,0.1,0,0.1,0l0,0c0,0,0,0.1,0,0.1c0,0,0,0.1,0,0.1
				c0,0,0,0,0,0c-0.1,0-0.1,0-0.1,0c-0.4,0-0.8,0-1.1,0c-0.1,0-0.1,0-0.1,0c0,0-0.1,0-0.1,0c0,0,0-0.1,0-0.1c0,0,0-0.1,0-0.1
				c0,0,0.1,0,0.1,0c0,0,0.1,0,0.1,0h0c0,0,0-0.1,0-0.1v0c0,0,0-0.1,0-0.1c0,0,0-0.1,0-0.1v-0.1c0,0,0-0.1,0-0.1V31c0,0,0-0.1,0-0.1
				c0,0,0-0.1,0-0.1v-0.1c0,0,0-0.1,0-0.1c0,0,0-0.1,0-0.1v0c0,0,0-0.1,0-0.1c0,0,0-0.1,0-0.1v0c0,0,0-0.1,0-0.1v0c0,0,0-0.1,0-0.1
				s0-0.1,0-0.1v0c0,0,0-0.1,0-0.1c0,0,0-0.1,0-0.1v0h0c0,0,0-0.1,0-0.1c-0.1,0-0.1,0-0.1,0c0,0,0-0.1,0-0.1h0c0,0-0.1,0-0.1,0
				c-0.1,0-0.1-0.1-0.1-0.1c0,0,0-0.1,0-0.1v-0.1l0,0c0,0,0-0.1,0-0.1l0,0c0,0,0-0.1,0-0.1c0,0,0-0.1,0-0.1v-0.1c0,0,0-0.1,0-0.1
				s0-0.1,0-0.1v0c0,0,0-0.1,0-0.1v-0.1c0,0,0-0.1,0-0.1V28c0,0,0-0.1,0-0.1s0-0.1,0-0.1v0c0,0,0-0.1,0-0.1c0,0,0-0.1,0-0.1v-0.1
				c0,0,0-0.1,0-0.1c0,0,0-0.1,0-0.1c0,0,0-0.1,0-0.1s0-0.1,0-0.1v0c0,0,0-0.1,0-0.1v-0.1c0,0,0-0.1,0-0.1s0-0.1,0-0.1v0
				c0,0,0-0.1,0-0.1c0,0,0-0.1,0-0.1v0c0,0,0-0.1,0-0.1s0-0.1,0-0.1v0c0,0,0-0.1,0-0.1s0-0.1,0-0.1v0c0,0,0-0.1,0-0.1v0
				c0,0,0-0.1,0-0.1v0c0,0,0-0.1,0-0.1c0,0,0-0.1,0-0.1c0,0,0-0.1,0-0.1s0-0.1,0-0.1c0,0,0-0.1,0-0.1s0-0.1,0-0.1v0c0,0,0-0.1,0-0.1
				c0,0,0-0.1,0-0.1v0c0,0,0-0.1,0-0.1v0c0,0,0-0.1,0-0.1v-0.1c0,0,0-0.1,0-0.1v0c0,0,0-0.1,0-0.1c0,0,0-0.1,0-0.1v-0.1
				c0,0,0-0.1,0-0.1c0,0,0-0.1,0-0.1v0c0,0,0-0.1,0-0.1c0,0,0-0.1,0-0.1v0c0,0,0-0.1,0-0.1v0c0,0,0-0.1,0-0.1s0-0.1,0-0.1v0
				c0,0,0-0.1,0-0.1c0,0,0-0.1,0-0.1V23c0,0,0-0.1,0-0.1c0,0,0-0.1,0-0.1v-0.1c0,0,0-0.1,0-0.1v-0.1c0,0,0-0.1,0-0.1v0
				c0,0,0-0.1,0-0.1c0,0,0-0.1,0-0.1v0c0,0,0-0.1,0-0.1c0,0,0-0.1,0-0.1v-0.1c0,0,0-0.1,0-0.1v0c0,0,0-0.1,0-0.1s0-0.1,0-0.1v-0.1
				c0,0,0-0.1,0-0.1c0,0,0-0.1,0-0.1v0c0,0,0-0.1,0-0.1c0,0,0-0.1,0-0.1v-0.2c0,0,0-0.1,0-0.1c0,0,0-0.1,0-0.1v0c0,0,0-0.1,0-0.1
				s0-0.1,0-0.1v-0.1c0,0,0-0.1,0-0.1c0,0,0-0.1,0-0.1V20c0,0,0-0.1,0-0.1v0c0,0,0-0.1,0-0.1v0c0,0,0-0.1,0-0.1v0c0,0,0-0.1,0-0.1
				c0,0,0-0.1,0-0.1v0c0,0,0-0.1,0-0.1c0,0,0-0.1,0-0.1c0,0,0-0.1,0-0.1v-0.1c0,0,0-0.1,0-0.1s0-0.1,0-0.1v0c0,0,0-0.1,0-0.1v0
				c0,0,0-0.1,0-0.1v0c0,0,0-0.1,0-0.1c0,0,0-0.1,0-0.1s0-0.1,0-0.1v0c0,0,0,0,0,0c0,0,0.1,0,0.1,0v0c0,0,0-0.1,0-0.1
				c0,0,0-0.1,0-0.1c0,0,0.1,0,0.1,0l0,0v-0.1c0,0,0-0.1,0-0.1v-0.1c0,0,0-0.1,0-0.1v0c0,0,0-0.1,0-0.1v-0.1c0,0,0-0.1,0-0.1
				c0,0,0-0.1,0-0.1v-0.1c0,0,0-0.1,0-0.1s0-0.1,0-0.1v0c0,0,0-0.1,0-0.1s0-0.1,0-0.1v-0.2c0,0,0-0.1,0-0.1c0,0,0-0.1,0-0.1v0
				c0,0,0-0.1,0-0.1c0,0,0-0.1,0-0.1v-0.1c0,0,0-0.1,0-0.1c0,0,0-0.1,0-0.1v0c0,0,0-0.1,0-0.1c0,0-0.1,0-0.1,0s-0.1,0-0.1,0
				c-0.1,0-0.1,0-0.2,0c0,0-0.1,0-0.1,0v0l-0.1-0.1v0c0,0,0-0.1,0-0.1c0,0,0-0.1,0-0.1v0c0,0,0-0.1,0-0.1c0,0,0-0.1,0-0.1v-0.1
				c0,0,0-0.1,0-0.1c0,0,0,0,0,0c0,0-0.1,0-0.1,0c0,0,0-0.1,0-0.1v-0.1c0,0,0,0,0,0s0-0.1,0-0.1c0,0,0-0.1,0-0.1v0c0,0,0-0.1,0-0.1
				c0,0,0-0.1,0-0.1c0,0,0-0.1,0-0.1c0,0,0-0.1,0-0.1v0c0,0,0-0.1,0-0.1c0,0,0-0.1,0-0.1c0,0,0-0.1,0-0.1c0,0,0.1,0,0.1,0
				c0,0-0.1,0-0.1,0l0-0.1c-0.1,0-0.1,0-0.2,0l0,0c0,0-0.1-0.1-0.1-0.1c0,0,0-0.1,0-0.1c0,0,0-0.1,0-0.1c0,0,0-0.1,0-0.1
				c0,0,0,0,0,0c0,0,0-0.1,0-0.1v-0.1l-0.1-0.1c0,0-0.1,0-0.1,0v0.1c0,0,0,0.1,0,0.1v0.1c0,0,0,0.1,0,0.1c0,0,0,0.1,0,0.1l0,0
				c-0.1,0-0.1,0-0.1,0c-0.1,0-0.2,0.1-0.3,0.1c0,0-0.1,0-0.1,0v0c0,0,0,0.1,0,0.1c0,0,0,0.1,0,0.1s0,0,0,0l0,0c0,0,0,0.1,0,0.1
				c0,0,0,0,0,0c0,0,0,0,0,0H54c-0.1,0-0.1,0-0.2,0l0,0c0,0-0.1,0-0.1,0c-0.1,0-0.1,0-0.2,0v0c-0.1,0-0.1,0-0.2,0c0,0,0,0,0,0l0,0.1
				h-0.1c0,0-0.1,0-0.1,0c-0.1,0-0.2,0-0.2,0c-0.2,0-0.3,0-0.4,0c0,0-0.1,0-0.1,0c-0.1,0-0.3,0.1-0.4,0.1c0,0-0.1,0-0.1,0
				c-0.1,0-0.1,0-0.1,0h0c-0.1,0-0.1,0-0.2,0c0,0,0-0.1,0-0.1c0,0-0.1,0-0.1,0c0,0-0.1,0-0.1,0c0,0,0-0.1,0-0.1c0,0-0.1,0-0.1,0
				c0,0,0-0.1,0-0.1v0c0,0,0-0.1,0-0.1c0,0,0-0.1,0-0.1c0,0,0-0.1,0-0.1v0c0,0,0-0.1,0-0.1c0,0,0-0.1,0-0.1c0,0,0-0.1,0-0.1
				c-0.1,0-0.1,0-0.2,0c0,0-0.1,0-0.1,0h-10c0,0,0,0.1,0,0.1c0,0,0,0.1,0,0.1c0,0,0,0.1,0,0.1v0c0,0,0,0.1,0,0.1c0,0,0,0.1,0,0.1
				c0,0,0,0.1,0,0.1v0c0,0,0,0.1,0,0.1v0.1c0,0,0.1,0,0.1,0c0,0,0.1,0,0.1,0c0.1,0,0.1,0.1,0.1,0.1c0,0,0,0.1,0,0.1h0
				c0,0,0,0.1,0,0.1c0,0,0,0.1,0,0.1v0.1c0,0,0,0.1,0,0.1c0,0,0,0.1,0,0.1v0.1c0,0,0,0.1,0,0.1v0.1c0,0.1,0.1,0.1,0.1,0.1
				c0,0.1,0,0.1,0,0.2c0,0,0.1,0.1,0.1,0.1c0,0,0.1,0,0.1,0c0,0,0.1,0,0.1,0h0c0,0,0.1,0,0.1,0c0,0,0,0,0,0c0,0,0.1,0,0.1,0
				c0,0,0,0.1,0,0.1v0c0,0,0,0.1,0,0.1c0,0,0,0.1,0,0.1v0c0,0,0,0.1,0,0.1c0,0,0,0.1,0,0.1c0,0,0,0.1,0,0.1s0,0.1,0,0.1v0.1
				c0,0,0,0.1,0,0.1v0c0,0,0,0.1,0,0.1v0c0,0,0,0.1,0,0.1v0c0,0,0,0.1,0,0.1s0,0.1,0,0.1v0c0,0,0,0.1,0,0.1c0,0,0,0.1,0,0.1
				c0,0,0,0.1,0,0.1v0.1c0,0,0,0.1,0,0.1s0,0.1,0,0.1v0c0,0,0,0.1,0,0.1v0c0,0,0,0.1,0,0.1v0c0,0,0,0.1,0,0.1s0,0.1,0,0.1v0
				c0,0,0,0.1,0,0.1v0.1c0,0,0,0.1,0,0.1s0,0.1,0,0.1v0c0,0,0,0.1,0,0.1c0,0,0,0.1,0,0.1v0.1c0,0,0,0.1,0,0.1v0c0,0,0,0.1,0,0.1v0.1
				c0,0,0,0.1,0,0.1c0,0,0,0.1,0,0.1v0.1c0,0,0,0.1,0,0.1c0,0,0,0.1,0,0.1v0c0,0,0,0.1,0,0.1s0,0.1,0,0.1V20c0,0,0,0.1,0,0.1v0
				c0,0,0,0.1,0,0.1c0,0,0,0.1,0,0.1v0c0,0,0,0.1,0,0.1v0.1c0,0,0,0.1,0,0.1c0,0,0,0.1,0,0.1v0c0,0,0,0.1,0,0.1V21c0,0,0,0.1,0,0.1
				c0,0,0,0.1,0,0.1v0c0,0,0,0.1,0,0.1c0,0,0,0.1,0,0.1v0c0,0,0,0.1,0,0.1v0.1c0,0,0,0.1,0,0.1v0.1c0,0,0,0.1,0,0.1s0,0.1,0,0.1
				c0,0,0,0.1,0,0.1c0,0,0,0.1,0,0.1c0,0,0,0.1,0,0.1v0c0,0,0,0.1,0,0.1c0,0,0,0.1,0,0.1v0c0,0,0,0.1,0,0.1v0.1c0,0,0,0.1,0,0.1
				c0,0,0,0.1,0,0.1v0c0,0,0,0.1,0,0.1c0,0,0,0.1,0,0.1c0,0,0,0.1,0,0.1s0,0.1,0,0.1v0c0,0,0,0.1,0,0.1s0,0.1,0,0.1c0,0,0,0.1,0,0.1
				v0c0,0,0,0.1,0,0.1v0c0,0,0,0.1,0,0.1s0,0.1,0,0.1v0c0,0,0,0.1,0,0.1c0,0,0,0.1,0,0.1v0.1c0,0,0,0.1,0,0.1v0.1c0,0,0,0.1,0,0.1
				c0,0,0,0.1,0,0.1v0.1c0,0,0,0.1,0,0.1v0c0,0,0,0.1,0,0.1c0,0,0,0.1,0,0.1v0c0,0,0,0.1,0,0.1s0,0.1,0,0.1v0c0,0,0,0.1,0,0.1
				s0,0.1,0,0.1v0c0,0,0,0.1,0,0.1c0,0,0,0.1,0,0.1v0.1c0,0,0,0.1,0,0.1v0c0,0,0,0.1,0,0.1v0.2c0,0,0,0.1,0,0.1v0c0,0,0,0.1,0,0.1v0
				c0,0-0.1,0.1-0.1,0.1v0c0,0,0,0.1,0,0.1c0,0,0,0.1,0,0.1v0c0,0,0,0.1,0,0.1v0c0,0,0,0.1,0,0.1c0,0,0,0.1,0,0.1c0,0-0.1,0-0.1,0
				c0,0-0.1,0-0.1,0c-2.8,0-5.6,0-8.3,0c0,0-0.1,0-0.1,0h0c0,0-0.1,0-0.1,0c-0.1,0-0.1,0-0.1,0c0,0-0.1,0-0.1,0c-0.1,0-0.1,0-0.2,0
				c0,0,0-0.1,0-0.1c0,0-0.1-0.1-0.1-0.1h-0.1c-0.1,0-0.1,0-0.1,0c0,0-0.1,0-0.1,0c0,0,0-0.1,0-0.1v-0.1c0,0,0-0.1,0-0.1
				c0,0,0-0.1,0-0.1v0c0,0,0-0.1,0-0.1s0-0.1,0-0.1v-0.1c0,0,0-0.1,0-0.1v-0.1c0,0,0-0.1,0-0.1s0-0.1,0-0.1v0c0,0,0-0.1,0-0.1V26
				c0,0,0-0.1,0-0.1c0,0,0-0.1,0-0.1v0c0,0,0-0.1,0-0.1s0-0.1,0-0.1v0c0,0,0-0.1,0-0.1s0-0.1,0-0.1v0c0,0,0-0.1,0-0.1
				c0,0,0-0.1,0-0.1v0c0,0,0-0.1,0-0.1v-0.1c0,0,0-0.1,0-0.1c0,0,0-0.1,0-0.1v-0.1c0,0,0-0.1,0-0.1v-0.1c0,0,0-0.1,0-0.1
				c0,0,0-0.1,0-0.1v0c0,0,0-0.1,0-0.1s0-0.1,0-0.1v0c0,0,0-0.1,0-0.1v0c0,0,0-0.1,0-0.1c0,0,0-0.1,0-0.1s0-0.1,0-0.1v0
				c0,0,0-0.1,0-0.1s0-0.1,0-0.1c0,0,0-0.1,0-0.1c0,0,0-0.1,0-0.1v0c0,0,0-0.1,0-0.1c0,0,0-0.1,0-0.1v-0.1c0,0,0-0.1,0-0.1v0
				c0,0,0-0.1,0-0.1c0,0,0-0.1,0-0.1v0c0,0,0-0.1,0-0.1c0,0,0-0.1,0-0.1s0-0.1,0-0.1c0,0,0-0.1,0-0.1s0-0.1,0-0.1v-0.1
				c0,0,0-0.1,0-0.1v-0.1c0,0,0-0.1,0-0.1v0c0,0,0-0.1,0-0.1c0,0,0-0.1,0-0.1v0c0,0,0-0.1,0-0.1c0,0,0-0.1,0-0.1v-0.1
				c0,0,0-0.1,0-0.1v0c0,0,0-0.1,0-0.1c0,0,0-0.1,0-0.1v-0.1c0,0,0-0.1,0-0.1v0c0,0,0-0.1,0-0.1c0,0,0-0.1,0-0.1v0c0,0,0-0.1,0-0.1
				v-0.1c0,0,0-0.1,0-0.1c0,0,0-0.1,0-0.1v0c0,0,0-0.1,0-0.1c0,0,0-0.1,0-0.1v-0.1c0,0,0-0.1,0-0.1c0,0,0-0.1,0-0.1V19
				c0,0,0-0.1,0-0.1v0c0,0,0-0.1,0-0.1v-0.1c0,0,0-0.1,0-0.1c0,0,0-0.1,0-0.1v0c0,0,0-0.1,0-0.1s0-0.1,0-0.1v-0.1c0,0,0-0.1,0-0.1v0
				c0,0,0-0.1,0-0.1c0,0,0-0.1,0-0.1v0c0,0,0-0.1,0-0.1v0c0,0,0-0.1,0-0.1v0c0,0,0-0.1,0-0.1c0,0,0-0.1,0-0.1v-0.1c0,0,0-0.1,0-0.1
				c0,0,0-0.1,0-0.1c0,0,0-0.1,0-0.1v0c0,0,0-0.1,0-0.1c0,0,0-0.1,0-0.1v0c0,0,0-0.1,0-0.1v0c0,0,0-0.1,0-0.1v0c0,0,0-0.1,0-0.1v0
				c0,0,0,0,0,0c0,0,0-0.1,0-0.1c0,0,0-0.1,0-0.1s0-0.1,0-0.1c0,0,0-0.1,0-0.1v-0.1c0,0,0-0.1,0-0.1c0,0,0-0.1,0-0.1v0
				c0,0,0-0.1,0-0.1v-0.1c0,0,0-0.1,0-0.1s0-0.1,0-0.1v0c0,0,0-0.1,0-0.1c0,0,0-0.1,0-0.1l0,0h0c0,0,0-0.1,0-0.1v-0.1
				c0,0,0-0.1,0-0.1l0.1-0.1c0,0,0-0.1,0-0.1c0,0,0.1,0,0.1,0c0,0,0.1,0,0.1,0v0c0,0,0-0.1,0-0.1c0,0,0-0.1,0-0.1l0,0
				c0,0,0.1,0,0.1,0c-0.6,0-1.1,0-1.7,0c0,0-0.1,0-0.1,0v0c0,0.1,0,0.1,0,0.2c0,0,0,0.1,0,0.1s0,0.1,0,0.1v0.1c0,0,0,0.1,0,0.1
				c0,0.1,0,0.1,0,0.1c0,0,0,0.1,0,0.1c0,0,0,0.1,0,0.1l0,0c0,0,0.1,0.1,0.1,0.1c0,0,0.1,0.1,0.1,0.1v0.1c0,0,0,0.1,0,0.1v0
				c0,0,0,0.1,0,0.1c0,0,0,0.1,0,0.1l0,0.1h0v0c0,0,0,0.1,0,0.1c0,0,0,0,0,0l-0.1,0.1c0,0-0.1,0-0.1,0c-0.2,0-0.3,0.1-0.5,0.1
				c0,0-0.1,0-0.1,0h0c-0.1,0-0.1,0-0.1,0h0c-0.2,0-0.4,0-0.6,0l0,0h0c0,0,0,0.1,0,0.1v0c0,0,0,0.1,0,0.1v0c0,0,0,0.1,0,0.1
				c0,0-0.1,0-0.1,0c0,0,0,0.1,0,0.1s0,0.1,0,0.1l0,0c0,0,0,0.1,0,0.1c0,0,0,0.1,0,0.1c0,0,0,0.1,0,0.1c0,0-0.1,0-0.1,0v0
				c0,0,0,0.1,0,0.1c0,0,0,0.1,0,0.1v0c0,0,0,0.1,0,0.1v0c0,0,0,0.1,0,0.1l0,0c0,0,0,0.1,0,0.1c0,0,0,0.1,0,0.1v0c0,0,0,0.1,0,0.1
				l0,0v0.1c0,0,0,0.1,0,0.1c0,0-0.1,0.1-0.1,0.1v0c0,0,0,0.1,0,0.1c0,0,0,0.1,0,0.1v0c0,0,0,0,0,0c0,0,0,0.1,0,0.1v0
				c0,0,0,0.1,0,0.1l0,0v0c0,0-0.1,0.1-0.1,0.1c0,0,0,0.1,0,0.1v0.1c0,0,0,0.1,0,0.1c0,0,0,0.1,0,0.1v0c0,0-0.1,0.1-0.1,0.1
				c0,0,0,0.1,0,0.1V20c0,0-0.1,0.1-0.1,0.1v0c0,0,0,0.1,0,0.1c0,0,0,0.1,0,0.1v0c0,0,0,0.1,0,0.1v0.1c0,0,0,0.1,0,0.1
				c0,0,0,0.1,0,0.1v0c0,0,0,0.1,0,0.1c0,0-0.1,0-0.1,0V21c0,0,0,0.1,0,0.1c0,0-0.1,0.1-0.1,0.1v0c0,0,0,0.1,0,0.1c0,0,0,0.1,0,0.1
				l0,0c0,0,0,0.1,0,0.1c0,0-0.1,0-0.1,0c0,0-0.1,0-0.1,0l0,0c0,0,0,0.1,0,0.1c0,0-0.1,0-0.1,0h0c-0.1,0-0.1,0-0.2,0l0,0
				c0,0-0.1,0-0.1,0c0,0,0,0,0,0s-0.1,0-0.1,0c-0.6,0-1.2,0-1.8,0c-0.1,0-0.1,0-0.2,0v0c-0.1,0-0.2,0-0.2,0c0,0-0.1,0-0.1,0h0
				c0,0-0.1,0-0.1,0c-0.1,0-0.1,0-0.2,0l-0.1-0.1c-0.1,0-0.1,0-0.1,0c0,0-0.1,0-0.1,0c0,0-0.1-0.1-0.1-0.1v-0.1c0,0-0.1,0-0.1,0
				c0,0,0-0.1,0-0.1c0,0,0-0.1,0-0.1v-0.1c0,0,0-0.1,0-0.1c0,0-0.1-0.1-0.1-0.1v0c0,0,0-0.1,0-0.1v0c0,0,0-0.1,0-0.1
				c0,0,0-0.1,0-0.1c0,0,0,0,0,0c0,0,0-0.1,0-0.1c0,0,0-0.1,0-0.1s0-0.1,0-0.1c0,0,0,0,0,0c0,0,0-0.1,0-0.1c0,0,0,0,0,0
				c0,0,0-0.1,0-0.1c0,0,0-0.1,0-0.1v-0.1c0,0,0-0.1,0-0.1v0c0,0,0-0.1,0-0.1c0,0,0-0.1,0-0.1l0,0c0,0,0-0.1,0-0.1v0
				c0,0,0.1,0,0.1,0v0c0,0,0-0.1,0-0.1c0,0,0-0.1,0-0.1c0,0,0,0,0,0c0,0,0-0.1,0-0.1c0,0,0-0.1,0-0.1v0c0,0,0.1,0,0.1,0
				c0,0,0-0.1,0-0.1v0c0,0,0-0.1,0-0.1v0l0,0c0,0,0-0.1,0-0.1c0,0,0-0.1,0-0.1v0c0,0,0,0,0,0c0,0,0-0.1,0-0.1c0,0,0-0.1,0-0.1v0
				c0,0,0-0.1,0-0.1s0-0.1,0-0.1c0,0,0.1,0,0.1,0v-0.1c0,0,0-0.1,0-0.1c0,0,0,0,0,0c0,0,0-0.1,0-0.1c0,0,0-0.1,0-0.1v0
				c0,0,0-0.1,0-0.1v-0.1c0,0,0-0.1,0-0.1c0,0,0-0.1,0-0.1l0,0c0,0,0-0.1,0-0.1v-0.1c0,0,0.1,0,0.1,0c0,0,0-0.1,0-0.1
				c0,0,0-0.1,0-0.1v0c0,0,0-0.1,0-0.1c0,0,0-0.1,0-0.1v0c0,0,0-0.1,0-0.1v0l0,0c0,0,0-0.1,0-0.1v0l0,0c0,0,0,0,0,0c0,0,0-0.1,0-0.1
				c0,0,0-0.1,0-0.1c0,0,0,0,0,0c0,0,0-0.1,0-0.1c0,0-0.1-0.1-0.1-0.1c0,0,0,0,0,0l0,0c0,0,0-0.1,0-0.1c0,0-0.1-0.1-0.1-0.1l0,0
				c0,0,0-0.1-0.1-0.1c0,0-0.1,0-0.1,0c0,0-0.1,0-0.1,0v0c-0.1,0-0.1,0-0.2,0l0-0.1c-0.1,0-0.1,0-0.2,0c0,0-0.1,0-0.1,0
				c0,0,0-0.1,0-0.1c0,0-0.1,0-0.1,0v-0.1c-0.1,0-0.1,0-0.2,0c0,0-0.1-0.1-0.1-0.1c-0.1,0-0.1-0.1-0.1-0.1c0,0-0.1,0-0.1,0
				c0,0,0,0,0,0c-0.1,0-0.1-0.1-0.1-0.1c0,0,0,0,0,0v0c0,0-0.1-0.1-0.1-0.1c0,0,0-0.1,0-0.1c0,0,0,0,0,0l0,0c0,0,0-0.1,0-0.1
				c0,0,0-0.1,0-0.1v0c0,0,0-0.1,0-0.1c0,0,0-0.1,0-0.1c0,0,0,0,0,0c0,0,0-0.1,0-0.1h0c0,0,0,0,0,0c0,0,0-0.1,0-0.1c0,0,0-0.1,0-0.1
				v-0.1c0,0-0.1,0-0.1,0s-0.1,0-0.1,0s-0.1,0-0.1,0c-0.1,0-0.1,0-0.1,0c0,0-0.1,0-0.1,0c0,0,0-0.1,0-0.1c-0.1,0-0.1,0-0.1,0
				c0,0-0.1,0-0.1,0c0,0,0-0.1,0-0.1c0,0,0-0.1,0-0.1v-0.1c-1.7,0-3.4,0-5.2,0c0,0-0.1,0-0.1,0v0c-0.1,0-0.1,0-0.2,0l0,0
				c0,0-0.1-0.1-0.1-0.1l0,0c0,0,0,0,0,0c0,0-0.1-0.1-0.1-0.1v0c0,0,0-0.1,0-0.1v0c0,0,0-0.1,0-0.1c0,0,0-0.1,0-0.1v0
				c0,0,0-0.1,0-0.1c0,0,0-0.1,0-0.1v0c0,0,0-0.1,0-0.1c-0.8,0-1.5,0-2.2,0c-0.1,0-0.2,0-0.3,0c-0.1,0-0.2,0-0.2,0
				c0,0-0.1,0.1-0.1,0.1c-0.1,0.1-0.1,0.1-0.2,0.1h-0.2c0,0-0.1,0-0.1,0v0.1c0,0.1-0.1,0.2-0.1,0.3l-6.5,5.1c-0.1,0.1-0.2,0.1-0.3,0
				c0,0-0.1,0-0.1,0c-0.1,0-0.1,0-0.1,0c-0.1,0-0.1,0.1-0.2,0.1c0,0.1,0,0.1,0,0.2c0,0.1-0.1,0.2-0.1,0.3L4.4,17c-0.1,0-0.1,0-0.2,0
				c0,0,0,0,0,0h0c0,0-0.1,0.1-0.1,0.1l0,0c0,0,0,0,0,0c-0.1,0-0.1,0.1-0.1,0.1l0,0c0,0,0,0,0,0c0,0-0.1,0-0.1,0c0,0-0.1,0-0.1,0
				c0,0-0.1,0.1-0.1,0.1h0c0,0-0.1,0-0.1,0H2.9c-0.1,0-0.1,0-0.2,0c0,0,0,0,0,0c0,0-0.1,0-0.1,0c-0.1,0-0.1,0-0.2,0
				c0,0-0.1-0.1-0.2-0.1c0,0,0-0.1,0-0.1c-0.1,0-0.1,0-0.1,0c0,0,0,0,0,0c0,0-0.1,0-0.1,0c0,0-0.1-0.1-0.1-0.1c0,0,0,0,0,0
				c0,0,0-0.1,0-0.1c0,0,0-0.1,0-0.1c0,0,0,0,0,0c0,0-0.1-0.1-0.1-0.1v-0.1c0,0,0-0.1,0-0.1c0,0,0-0.1,0-0.1c0,0,0,0,0,0
				c0,0,0-0.1,0-0.1v-0.1l0,0c0,0,0-0.1,0-0.1c0,0,0-0.1,0-0.1v0c0,0,0-0.1,0-0.1c0,0,0-0.1,0-0.1v0c0,0,0-0.1,0-0.1
				c0,0-0.1,0-0.1,0c0,0,0,0,0,0c0,0,0-0.1,0-0.1v0c0,0,0-0.1,0-0.1v0c0,0-0.1-0.1-0.1-0.1c0,0,0-0.1,0-0.1s0-0.1,0-0.1
				c0,0,0-0.1,0-0.1v0c0,0,0-0.1,0-0.1c0,0,0-0.1,0-0.1v0c0,0,0-0.1,0-0.1v0l-0.1-0.1c0,0,0-0.1,0-0.1c0,0,0-0.1,0-0.1v0
				c0,0,0-0.1,0-0.1c0,0,0-0.1,0-0.1c0,0,0-0.1,0-0.1s0-0.1,0-0.1v0c0,0,0-0.1,0-0.1c0,0,0-0.1,0-0.1c0,0-0.1-0.1-0.1-0.1v0
				c0,0,0-0.1,0-0.1c0,0,0,0,0,0c0,0,0-0.1,0-0.1c0,0,0-0.1,0-0.1v0c0,0,0-0.1,0-0.1c0,0,0-0.1,0-0.1v0l0,0c0,0,0-0.1,0-0.1v-0.1
				c0,0,0-0.1,0-0.1c0,0,0-0.1,0-0.1v0l0,0c0,0,0-0.1,0-0.1v0c0,0,0-0.1,0-0.1c0,0,0-0.1,0-0.1v0c0,0,0-0.1,0-0.1s0-0.1,0-0.1v0
				c0,0,0-0.1,0-0.1c0,0,0-0.1,0-0.1l0,0c0,0,0-0.1,0-0.1c0,0,0-0.1,0-0.1v-0.1c0,0,0-0.1,0-0.1c0,0,0-0.1,0-0.1v0c0,0,0-0.1,0-0.1
				v0c0,0,0,0,0,0c0,0,0-0.1,0-0.1v-0.1c0,0,0-0.1,0-0.1c0,0,0-0.1,0-0.1v0c0,0,0-0.1,0-0.1c0,0-0.1-0.1-0.1-0.1V10c0,0,0-0.1,0-0.1
				V9.8c0,0,0-0.1,0-0.1s0-0.1,0-0.1v0c0,0,0-0.1,0-0.1V9.4c0,0,0-0.1,0-0.1c0,0,0-0.1,0-0.1v0c0,0,0-0.1,0-0.1S0,9,0,8.9v0
				c0,0,0-0.1,0-0.1s0-0.1,0-0.1v0c0,0,0-0.1,0-0.1c0,0,0-0.1,0-0.1v0c0,0,0.1-0.1,0.1-0.1l0,0c0,0,0-0.1,0-0.1l0,0c0,0,0-0.1,0-0.1
				c0,0,0-0.1,0-0.1c0,0,0.1,0,0.1,0c0,0,0-0.1,0-0.1c0,0,0-0.1,0-0.1c0,0,0.1,0,0.1,0c0,0,0-0.1,0-0.1c0,0,0.1-0.1,0.1-0.1
				c0,0,0,0,0,0h0c0.1,0,0.1,0,0.1,0c0.1,0,0.1,0,0.2,0v0c0,0,0.1,0,0.2,0l0,0v0c0,0,0,0,0,0c0,0,0.1,0,0.1,0l0,0c0,0,0.1,0,0.1,0
				c0.1,0,0.1,0,0.1,0c0,0,0.1,0,0.1,0c0,0,0.1,0,0.1,0C2,7.3,2,7.3,2.2,7.3h9.4c0.1,0,0.2,0,0.2,0c0.1,0,0.1-0.1,0.2-0.1
				c0.1,0,0.1-0.1,0.2-0.1c0,0,0.1,0,0.1,0c0.1,0,0.1,0,0.2,0s0.1,0,0.2,0c1.8,0,3.7,0,5.6,0v0c0,0,0-0.1,0-0.1V6.8c0,0,0-0.1,0-0.1
				c0,0,0-0.1,0-0.1c0,0,0.1,0,0.1,0h0c0,0,0-0.1,0-0.1c0,0,0-0.1,0-0.1v0c0,0,0.1-0.1,0.1-0.1v0c0.1,0,0.1-0.1,0.2-0.1
				c0,0,0.1,0,0.1,0c0,0,0-0.1,0-0.1L19,5.9c0,0,0.1,0,0.1,0c0.1,0,0.2,0,0.3,0c0,0,0.1,0,0.1,0c0,0,0,0,0,0l0.1,0v0
				c0,0,0-0.1,0-0.1c0,0,0-0.1,0-0.1c0,0,0.1,0,0.1,0c0,0,0-0.1,0-0.1s0-0.1,0-0.1v0c0,0,0-0.1,0-0.1c0,0,0-0.1,0-0.1v0
				c0,0-0.1,0-0.1,0l0,0c0,0,0-0.1,0-0.1v0c0,0,0-0.1,0-0.1c0,0,0-0.1,0-0.1v0c0,0,0-0.1,0-0.1c0,0,0-0.1,0-0.1c0,0,0-0.1,0-0.1
				c0,0,0-0.1,0-0.1v0c0,0,0.1,0,0.1,0s0.1,0,0.1,0h0v0c0,0,0.1,0,0.1,0c0,0,0,0,0,0s0.1,0,0.1,0c0,0,0.1,0,0.1,0c0,0,0.1,0,0.1,0
				s0.1,0,0.1,0c0,0,0.1,0,0.1,0c0,0,0-0.1,0-0.1v0c0,0,0-0.1,0-0.1c0,0,0-0.1,0-0.1c0,0,0.1,0,0.1,0c0,0,0-0.1,0-0.1
				c0,0,0-0.1,0-0.1c0,0,0.1,0,0.1,0c0.1,0,0.1,0,0.1,0v0c0.2,0,0.4,0,0.6,0c0,0,0.1,0,0.1,0c0,0,0.1,0,0.1,0c0,0,0,0.1,0,0.1
				c0,0,0.1,0.1,0.1,0.1c0,0,0,0,0,0c0,0,0,0.1,0,0.1c0,0,0,0.1,0,0.1c0,0,0.1,0,0.1,0c0.1,0,0.2,0,0.3,0c0.1,0,0.1,0,0.2,0
				c0,0,0.1,0.1,0.1,0.1c0,0,0.1,0,0.1,0c0,0,0,0,0,0c0,0,0,0.1,0,0.1c0,0,0,0.1,0,0.1h0c0,0,0,0.1,0.1,0.1c0.1,0,0.1,0,0.1,0
				c0,0,0,0,0,0c0.1,0,0.1,0,0.1,0c0.5,0,1,0,1.5,0c0.2,0,0.5,0,0.8,0c0,0,0.1,0,0.1,0s0.1,0,0.1,0v0h0.1c0.1,0,0.1,0.1,0.1,0.1v0
				h0.1v0c0.1,0,0.1,0.1,0.1,0.1c0,0,0,0.1,0,0.1c0,0,0.1,0,0.1,0c0,0,0,0.1,0,0.1c0,0,0,0.1,0,0.1v0.1c0,0,0.1,0,0.1,0
				c0,0,0.1,0,0.1,0c0,0,0.1,0,0.1,0c0,0,0,0.1,0,0.1V5c0,0,0,0.1,0,0.1v0.1c0,0,0,0.1,0,0.1s0,0.1,0,0.1l0,0c0,0,0,0,0,0
				c0,0,0,0.1,0,0.1c0,0,0,0.1,0,0.1c0,0,0,0,0,0v0l0,0c0,0,0,0.1,0,0.1v0c0,0,0,0.1,0,0.1v0h0.1c1.2,0,2.3,0,3.5,0v0l0,0
				c0,0,0,0,0,0s0.1,0,0.1,0c0,0,0.1,0,0.2,0c0,0,0-0.1,0-0.1c0,0,0.1-0.1,0.1-0.1h0c0,0,0.1-0.1,0.1-0.1s0-0.1,0-0.1l0.1-0.1
				c0,0,0,0,0,0c0,0,0.1,0,0.1,0V5.3c0.1,0,0.1,0,0.2,0c0,0,0.1,0.1,0.1,0.1l0.1,0.1c0,0,0,0.1,0,0.1c0.1-0.1,0.1-0.1,0.2-0.1
				c0.1,0,0.1,0,0.2-0.1c0.1,0,0.2,0,0.3,0v0c0.1,0,0.2,0,0.3,0c0,0,0.1,0.1,0.1,0.1c0-0.1,0-0.1,0-0.1c0.1-0.1,0.2-0.1,0.3-0.1h2.3
				c0.1,0,0.2,0,0.2,0.1c0,0.1,0.1,0.1,0.1,0.2c0.2,0,0.3,0,0.4,0c0.1,0,0.1,0,0.2,0c0,0,0.1,0,0.1,0c1,0,2,0,3,0c0.1,0,0.1,0,0.1,0
				c0.1,0,0.1,0,0.1,0c0.1,0,0.1,0.1,0.1,0.1c0,0,0.1,0.1,0.1,0.1l0,0c0,0,0,0,0,0c0,0,0.1-0.1,0.1-0.1c0,0,0-0.1,0-0.1h0
				c0,0,0.1,0,0.1,0v0c0,0,0.1,0,0.1,0c0,0,0.1,0,0.1,0c0,0,0,0.1,0,0.1c0,0,0,0.1,0,0.1v0h0c0,0,0.1,0,0.1,0c0.1,0,0.1,0,0.2,0
				c0,0,0.1,0,0.1,0v0c0.6,0,1.2,0,1.8,0v0c0,0,0.1-0.1,0.1-0.1s0.1-0.1,0.1-0.1c0,0,0,0,0,0c0.1,0,0.1,0,0.2,0c0.2,0,0.4,0,0.7,0
				c0,0,0-0.1,0-0.1c0,0,0.1,0,0.1,0c0,0,0.1,0,0.1,0c0,0,0,0,0,0c0.1,0,0.1-0.1,0.2-0.1c0.1,0,0.2,0,0.3,0h0c0,0,0,0,0,0l0.1-0.1
				c0.1,0,0.1,0,0.1,0c0.1,0,0.2,0,0.2,0c0,0,0.1,0,0.1,0h0l0,0h0c0,0,0.1,0,0.1,0c0.1,0,0.1,0,0.1,0h0c0,0,0.1,0,0.1,0V4.6
				c0,0,0-0.1,0-0.1c0,0,0-0.1,0-0.1c0,0-0.1,0-0.1,0c0,0,0,0,0,0v0L43,3c-0.1,0-0.1-0.1-0.2-0.2c0-0.1,0-0.1,0-0.2h0
				c0,0-0.1,0-0.1,0c0,0-0.1,0-0.1,0h-0.1c-0.1,0-0.1,0-0.1,0c-0.1,0-0.2-0.1-0.3-0.1c0,0-0.1,0-0.1,0h0c0,0-0.1,0-0.1,0
				c-0.1,0-0.1,0-0.1,0c-0.1,0-0.1,0-0.2,0c0,0-0.1,0-0.1,0c0,0-0.1-0.1-0.1-0.1c0,0-0.1-0.1-0.1-0.1c0,0-0.1,0-0.1,0
				c-0.1,0-0.1,0-0.1,0c-0.1,0-0.1,0-0.1,0c0,0,0-0.1,0-0.1c0,0-0.1,0-0.1,0c0,0,0-0.1,0-0.1l0,0h0v0l0,0c0,0-0.1,0-0.1,0
				c0,0-0.1-0.1-0.1-0.1l0-0.1c0,0,0-0.1,0-0.1c0,0,0-0.1,0-0.1l0,0c0,0,0-0.1,0-0.1s0-0.1,0-0.1v0c0,0,0,0,0,0c0,0,0-0.1,0-0.1v0
				c0,0,0-0.1,0-0.1v0l0,0c0,0,0.1-0.1,0.1-0.1c0,0,0.1,0,0.1,0v0c0-0.1,0.1-0.2,0.2-0.2C40.7,0,40.8,0,40.9,0l0.3,0.1
				c0.1,0,0.2,0.1,0.3,0.2c0.1,0.1,0.1,0.2,0,0.3c0,0,0.1,0,0.1,0h0.1c0,0,0.1,0,0.1,0c0,0,0.1,0,0.1,0c0.1,0,0.1,0,0.1,0l0,0
				c0,0,0.1,0,0.1,0c0.1,0,0.1,0,0.1,0l0,0c0-0.1,0-0.1,0.1-0.1c0.1-0.1,0.2-0.1,0.3-0.1c0.1,0,0.1,0,0.2,0l4.9,1.3
				c0.1,0,0.2,0,0.2,0.1c0,0,0,0.1,0,0.1c0,0,0.1,0,0.1,0c0,0,0.1,0,0.1,0s0.1,0,0.1,0c0,0,0,0.1,0,0.1c0,0,0.1,0,0.1,0
				c0,0,0.1,0,0.1,0c0,0,0,0.1,0,0.1c0,0,0.1,0,0.1,0v0h0c0.1,0,0.1,0,0.2,0v0c0.1,0,0.1,0.1,0.1,0.1h0c0,0,0.1,0.1,0.1,0.1
				c0,0,0,0.1,0,0.1v0c0,0,0,0.1,0,0.1s0,0.1,0,0.1v0c0,0,0,0.1,0,0.1v0c0,0,0,0.1,0,0.1v0c0,0,0,0.1,0,0.1v0.1c0,0,0,0.1,0,0.1
				c0,0,0,0.1,0,0.1c0,0,0,0.1,0,0.1c0,0,0,0.1,0,0.1v0c0,0,0,0.1,0,0.1s0,0.1,0,0.1v0c0,0,0,0.1,0,0.1v0.1c0,0,0,0.1,0,0.1
				c0,0,0,0.1,0,0.1v0c0,0,0,0.1,0,0.1c0,0,0,0.1,0,0.1v0.1c0,0,0,0.1,0,0.1c0,0,0,0.1,0,0.1v0c0,0,0,0.1,0,0.1v0.1c0,0,0,0.1,0,0.1
				v0c0,0,0,0.1,0,0.1c0,0,0,0.1,0,0.1v0c0,0,0,0.1,0,0.1c0,0,0,0.1,0,0.1v0c0,0-0.1,0-0.1,0c0,0,0,0.1,0,0.1c0,0-0.1,0-0.1,0
				c0,0-0.1,0-0.1,0h0l0,0c0,0,0,0,0,0c0,0,0,0,0,0h-0.1c-0.5,0-1,0-1.5,0c0,0,0,0,0,0v0l0,0c0,0,0,0,0,0c-0.1,0-0.1,0-0.1,0
				c-0.1,0-0.1,0.1-0.2,0.1v0.1c0,0,0,0.1,0,0.1c0,0,0,0.1,0,0.1v0.1c2.3,0,4.6,0,6.9,0v0c0,0,0-0.1,0-0.1s0-0.1,0-0.1V6.5
				c0,0,0-0.1,0-0.1c0,0,0-0.1,0-0.1c0,0,0.1,0,0.1,0c0,0,0.1,0,0.1,0c0,0,0.1,0,0.1,0c0,0,0-0.1,0-0.1c0,0,0.1,0,0.1,0l0,0v0
				c0,0,0-0.1,0-0.1v0c0,0,0-0.1,0-0.1c0,0,0-0.1,0-0.1c0,0,0-0.1,0-0.1s0-0.1,0-0.1v0c0,0,0-0.1,0-0.1c0,0,0-0.1,0-0.1l0,0
				c0,0-0.1,0-0.1,0v0c0,0,0-0.1,0-0.1c0,0,0,0,0,0c0,0,0-0.1,0-0.1c0,0,0.1-0.1,0.1-0.1c0,0,0,0,0,0c0,0,0.1,0,0.1,0
				c0,0,0.1,0,0.1,0c0,0,0-0.1,0-0.1c0,0,0.1,0,0.1,0c0,0,0-0.1,0-0.1c0,0,0-0.1,0-0.1l0,0v0c0,0,0.1,0,0.1,0c0,0,0-0.1,0-0.1l0,0h0
				c0,0,0.1,0,0.1,0c0.2,0,0.4,0,0.6,0c0,0,0,0,0,0c0,0,0.1,0,0.1,0v0c0.1,0,0.1,0,0.2,0c0.1,0,0.1,0.1,0.1,0.1l0,0c0,0,0,0,0,0
				c0.1,0,0.1,0,0.1,0v0c0.1,0,0.1,0.1,0.2,0.1l0,0c0,0,0,0,0,0c0,0,0,0.1,0,0.1c0,0,0,0.1,0,0.1c0,0,0,0.1,0,0.1c0,0,0,0.1,0,0.1
				c0,0,0,0.1,0,0.1c0,0,0,0.1,0,0.1c0,0,0,0.1,0,0.1v0h0c0,0,0,0,0,0h0c0.1,0,0.1,0.1,0.2,0.1c0,0,0,0,0,0c0,0,0,0,0,0
				c0,0,0,0.1,0,0.1c0,0,0.1,0,0.1,0l0,0v0c0,0,0,0.1,0,0.1c0,0,0,0.1,0,0.1v0c0,0,0,0.1,0,0.1c0,0,0,0.1,0,0.1c0,0,0,0.1,0,0.1
				c0,0,0,0.1,0,0.1v0c0,0,0,0.1,0,0.1c0,0,0,0.1,0,0.1s0,0.1,0,0.1v0c0,0,0,0.1,0,0.1v0.2l0.1,0c0,0,0.1,0,0.1,0
				c0.1,0,0.1,0.1,0.1,0.1c0,0,0,0.1,0,0.1c0,0,0.1,0,0.1,0v0c0,0,0,0.1,0,0.1v0c7.4,0,14.8,0,22.2,0c0.1,0,0.2,0,0.3,0
				c0.1,0,0.2,0.1,0.3,0.1C80.6,7.2,80.7,7.3,80.8,7.3z M58.3,15C58.3,15,58.3,15,58.3,15C58.3,15,58.3,15,58.3,15L58.3,15z
				 M56.7,5.5C56.7,5.5,56.7,5.5,56.7,5.5c0,0.1,0,0.2,0,0.2v0c0,0,0,0.1,0,0.1V5.7c0,0,0-0.1,0-0.1S56.7,5.5,56.7,5.5L56.7,5.5
				L56.7,5.5z M54.7,6.5L54.7,6.5L54.7,6.5L54.7,6.5z M54.5,6.7C54.6,6.7,54.6,6.7,54.5,6.7C54.5,6.7,54.5,6.7,54.5,6.7L54.5,6.7
				C54.5,6.7,54.5,6.7,54.5,6.7z M47.4,4.4C47.4,4.4,47.4,4.4,47.4,4.4l0,0.1L47.4,4.4C47.4,4.4,47.4,4.4,47.4,4.4
				C47.4,4.3,47.4,4.3,47.4,4.4L47.4,4.4L47.4,4.4z M44.8,6c-0.1,0-0.2,0-0.3,0C44.6,6.1,44.7,6.1,44.8,6C44.8,6,44.8,6,44.8,6z
				 M56.4,15L56.4,15L56.4,15L56.4,15z M22,11.6L22,11.6L22,11.6C22,11.5,22,11.6,22,11.6L22,11.6z M25,14.4
				C25.1,14.5,25.1,14.5,25,14.4L25,14.4C25.1,14.4,25.1,14.4,25,14.4z M30.2,15.4c0,0.1-0.1,0.1-0.1,0.1c0,0,0.1,0,0.1,0
				C30.3,15.5,30.3,15.4,30.2,15.4L30.2,15.4z M11.1,9.6H3.2c0,0,0,0.1,0,0.1c0,0.1,0,0.1,0,0.1c0,0,0,0.1,0,0.1c0,0,0,0.1,0,0.1
				c0,0,0,0.1,0,0.1c0,0,0,0.1,0,0.1c0,0.1,0.1,0.1,0.1,0.1c0,0.1,0,0.1,0,0.2v0c0,0.1,0,0.1,0,0.1c0,0.1,0,0.1,0,0.2
				c0,0.1,0.1,0.1,0.1,0.1c0,0,0,0.1,0,0.1v0c0.1,0,0.1,0,0.2,0c0.1,0.1,0.1,0.1,0.2,0.2l0.7,2.1l1.2-0.9c0.1-0.1,0.2-0.1,0.3-0.1
				c0.1,0,0.2,0.1,0.2,0.1c0,0,0.1-0.1,0.1-0.1l0.1-0.1c0,0,0-0.1,0-0.1l0,0c0,0,0.1,0,0.1,0c0,0,0-0.1,0-0.1c0.1,0,0.2-0.1,0.2-0.1
				l0,0c0,0,0.1,0,0.1,0c0,0,0.1-0.1,0.1-0.1c0,0,0.1,0,0.1,0c0,0,0.1,0,0.1,0c0,0,0-0.1,0.1-0.1c0,0,0.1-0.1,0.1-0.1
				c0,0,0.1-0.1,0.1-0.1c0.1,0,0.1-0.1,0.1-0.1h0.1c0,0,0.1,0,0.1,0c0,0,0-0.1,0-0.1c0,0,0.1,0,0.1,0c0,0,0.1,0,0.1,0
				c0,0,0-0.1,0-0.1c0.1,0,0.1-0.1,0.1-0.1l0,0c0,0,0.1-0.1,0.1-0.1C9,11.1,9,11,9,11c0.1,0,0.1-0.1,0.1-0.1h0c0,0,0-0.1,0-0.1
				c0,0,0.1-0.1,0.1-0.1c0,0,0.1,0,0.1,0c0,0,0.1-0.1,0.1-0.1c0,0,0-0.1,0-0.1c0,0,0.1,0,0.1,0c0,0,0-0.1,0-0.1c0.1,0,0.1,0,0.1,0
				c0,0,0.1-0.1,0.1-0.1c0,0,0.1,0,0.1,0c0,0,0.1-0.1,0.1-0.1c0,0,0.1-0.1,0.1-0.1c0,0,0.1,0,0.1,0c0.1,0,0.1-0.1,0.1-0.1
				c0,0,0.1,0,0.1,0h0c0,0,0-0.1,0-0.1c0.1,0,0.1-0.1,0.1-0.1C11,9.6,11,9.6,11.1,9.6z"/>
		</g>
	</g>
</g>
<g id="guides">
</g>
<g id="Flash_2_">
	<path fill="#FFFFFF" d="M108,12.4c0,2.2-0.8,4.2-2.4,5.8c-1.6,1.6-3.5,2.4-5.8,2.4c-2.2,0-4.2-0.8-5.8-2.4
		c-1.6-1.6-2.4-3.5-2.4-5.8c0-0.6,0.1-1.1,0.2-1.7c0.2-0.1,0.4-0.1,0.6-0.3c0.8-0.4,1.5-0.8,2.3-1.1c0.1,0,0.3-0.1,0.4-0.2
		c-0.7,1-1.1,2.1-1,3.4c0,1.6,0.6,3,1.7,4.1c1.1,1.1,2.5,1.7,4.1,1.7c1.6,0,3-0.6,4.1-1.7c1.1-1.1,1.7-2.5,1.7-4.1
		c0-1.6-0.5-2.9-1.6-4.1c0.7,0.2,1.4,0.4,2.1,0.8c0,0,0,0,0,0c0.4,0.2,0.8,0.4,1.2,0.5C107.8,10.6,108,11.5,108,12.4z"/>
	<path fill="#FFFFFF" d="M115.8,19.4c-0.7-1.1-1.5-2.2-2.4-3.2c-0.2,0.2-0.4,0.4-0.6,0.6c-3.8,3.8-8.4,5.7-13.8,5.7
		c-5.4,0-10-1.9-13.9-5.7L85,16.9c0.7,1.1,1.6,2.1,2.5,3.1c3.8,3.8,8.4,5.7,13.9,5.7s10-1.9,13.8-5.7
		C115.4,19.8,115.6,19.6,115.8,19.4L115.8,19.4z"/>
	<path fill="#FFFFFF" d="M113.4,16.2c0.9,1,1.7,2.1,2.4,3.2c0.7-0.7,1.3-1.4,1.8-2.1c-0.6-1-1-1.6-2.4-3.2
		C114.6,14.8,114,15.5,113.4,16.2L113.4,16.2z"/>
	<polygon fill="#FF0000" points="104.1,14 101.7,15.2 101.3,17.8 99.5,15.9 96.9,16.3 98.1,14 96.9,11.7 99.5,12.1 101.3,10.2 
		101.7,12.8 	"/>
	<path fill="#FFFFFF" d="M112.8,15.6c0.2,0.2,0.4,0.4,0.6,0.6c0.6-0.7,1.2-1.4,1.8-2.2c-0.2-0.2-0.4-0.4-0.6-0.6
		c-3.8-3.8-8.4-5.7-13.8-5.7c-5.4,0-10,1.9-13.9,5.7c-0.8,0.9-1.6,1.8-2.3,2.7l0.1,0.1c0.1-0.2,0.3-0.4,0.5-0.5
		c3.8-3.8,8.4-5.7,13.9-5.7C104.4,9.9,109,11.8,112.8,15.6L112.8,15.6z"/>
</g>
<path fill="#FFFFFF" d="M124.8,20.3c0,0,0.2,2.6,2.7,4.1c0.5,0.3,1.3,0.8,1.7,1c1.9,1.2,2.9,0.9,4.1,0.8c2.3-0.2,6.9-3,7.4-5.6
	c0.5-2.6-0.8-5-2.4-5.4c-1.6-0.4-3.1,0.3-3.5,1.8c-0.5,1.5,1,2.2,1,2.2c-1.6,0.3-2.2-1.3-1.8-2.7c0.3-1.4,1.8-3.1,4.7-2.5
	c2.9,0.7,3.4,3.3,3.4,3.3c1-1.8,3.3-2.8,6-1.8s1.8,3.2,1.8,3.2c-0.1-1.6-1.4-2.3-3.3-2.7c-1.8-0.3-3.6,0.5-4.2,3.2
	c-0.5,2.7,0.8,6.2,3.8,7c3.1,0.8,7.7-0.1,9.5-3.6c1.8-3.5,1.8-9.8-2.9-13.2s-9.3,0.1-9.3,0.1S143,6,138,5.7c-5-0.3-5.7,5.3-5.7,5.3
	c-0.5-2.7-5.2,0.3-6.6,2.7c-1,1.7-1.6,4.3-1,6.1C124.7,19.8,124.8,20.2,124.8,20.3z"/>
</svg>
