<?xml version="1.0" encoding="utf-8"?>
<!-- Generator: Adobe Illustrator 21.0.2, SVG Export Plug-In . SVG Version: 6.00 Build 0)  -->
<svg version="1.1" id="Слой_1" xmlns="http://www.w3.org/2000/svg" xmlns:xlink="http://www.w3.org/1999/xlink" x="0px" y="0px"
	 width="136.8px" height="32px" viewBox="0 0 136.8 32" enable-background="new 0 0 136.8 32" xml:space="preserve">
<g id="Selected_Items">
	<g>
		<g id="Selected_Items_39_">
			<path fill="#FFFFFF" d="M97.7,7.2c0,0,0,0.1,0,0.1c0,0,0,0.1,0,0.1c0,0,0,0.1,0,0.1c0,0,0,0.1,0,0.1V8c0.6,0,1.1,0,1.7,0
				c0.1,0,0.1,0,0.2,0c0,0,0,0,0.1,0h0v0c0,0,0,0,0.1,0c0,0,0.1,0,0.2,0.1c0,0,0,0.1,0.1,0.1c0,0,0,0,0,0.1c0,0,0,0,0,0.1v0.1
				c0,0,0,0.1,0,0.1c0,0,0,0,0,0.1c0,0,0,0,0.1,0c0,0,0,0.1,0,0.1c0,0,0,0.1,0,0.1s0,0.1,0,0.1c0,0,0,0.1,0,0.1c0,0,0,0.1,0,0.1
				c0,0,0,0,0,0.1c0,0,0,0.1,0,0.1l0,0c0,0,0,0.1,0,0.1s0,0.1,0,0.1v0.1c0,0,0,0,0,0.1c0,0,0,0-0.1,0.1c0,0,0,0.1,0,0.1
				c0,0,0,0.1,0,0.1c0,0,0,0.1,0,0.1s0,0.1,0,0.1c0,0,0,0.1,0,0.1c0,0,0,0.1,0,0.1c0,0,0,0,0,0.1c-0.2,0-0.3,0-0.5,0l0,0
				c0,0,0,0,0,0.1c0,0,0,0,0.1,0.1c0,0,0,0.1,0,0.1l0,0c-3.1,0-6.2,0-9.3,0c0,0-0.1,0-0.1,0.1c-0.1,0-0.3,0-0.4,0c0,0,0,0.1,0,0.1h0
				v0c0,0,0,0,0-0.1c-0.4,0-0.8,0-1.2,0.1v0c0,0-0.1,0-0.1,0c0,0,0,0.1,0,0.1c-0.2,0-0.3,0-0.5,0c0,0,0,0-0.1,0.1c0,0,0,0.1,0,0.1
				c0,0-0.1,0-0.1,0c0,0,0,0.1,0,0.1c0,0,0,0.1,0,0.1c0,0,0,0.1,0,0.1s0,0.1,0,0.1v0c0.1,0,0.1,0,0.2,0c0,0,0,0.1,0,0.1s0,0.1,0,0.1
				c0,0,0,0.1,0,0.1c0,0,0,0.1,0,0.1c0,0,0,0.1,0,0.1c0,0,0,0.1,0,0.1c0,0,0,0.1,0,0.1c0,0,0,0.1,0,0.1c0,0.1,0,0.1,0,0.1
				s0,0.1,0,0.1c0,0,0,0.1,0,0.1c0,0,0,0.1,0,0.1s0,0.1,0,0.1s0,0.1,0,0.1c0,0,0,0.1,0,0.1c0,0,0,0,0,0.1c-0.1,0-0.2,0-0.4,0
				c0,0,0,0.1,0,0.1c0,0,0,0,0,0.1c-0.1,0-0.2,0-0.4,0c-0.2,0-0.4,0-0.6,0v0c0,0,0,0,0,0.1s0,0,0,0.1c0,0,0,0.1,0,0.1c0,0,0,0-0.1,0
				c0,0,0,0-0.1,0c0,0,0,0-0.1,0l0,0c0,0-0.1,0-0.1,0c-0.1,0-0.1,0-0.2,0c0,0-0.1,0-0.1,0v0c-0.2,0-0.5,0.1-0.7,0.1c0,0,0,0,0,0.1
				c-0.2,0-0.4,0.1-0.6,0.1c0,0-0.1,0-0.1,0.1c-0.6,0-1.2,0.1-1.9,0.1c0,0-0.1,0-0.1,0.1c-0.5,0-1,0-1.5,0c0,0,0,0-0.1,0.1h0
				c0,0-0.1,0-0.2,0c-3.4,0-6.7,0-10.1,0c-0.1,0-0.2,0-0.3,0c0,0,0,0,0,0.1c-0.5,0-1.1,0.1-1.6,0.1c0,0,0,0,0,0.1
				c-0.6,0-1.1,0.1-1.7,0.1c0,0-0.1,0-0.1,0.1c-0.5,0-0.9,0.1-1.3,0.1c0,0-0.1,0-0.1,0.1c-0.4,0-0.8,0.1-1.3,0.1c0,0,0,0,0,0.1
				c-0.5,0-1,0.1-1.4,0.1c0,0,0,0,0,0.1c-0.5,0-0.9,0.1-1.3,0.1c0,0-0.1,0-0.1,0.1c-0.6,0-1.1,0.1-1.7,0.1c0,0-0.1,0-0.1,0.1
				c-0.7,0-1.5,0-2.2,0c0,0-0.1-0.1-0.1-0.1c-0.4,0-0.8,0-1.1-0.1c0,0-0.1-0.1-0.1-0.1c-0.1,0-0.3,0-0.4-0.1c0,0,0-0.1,0-0.1
				c-0.1,0-0.2,0-0.4-0.1c0,0,0-0.1,0-0.1c0,0-0.1,0-0.2-0.1c0,0,0-0.1,0-0.1c-0.1,0-0.2,0-0.4-0.1c0,0,0-0.1,0-0.1
				c0,0-0.1,0-0.2-0.1c0,0,0-0.1,0-0.1c0,0-0.1-0.1-0.1-0.1c0,0-0.1-0.1-0.1-0.1c-0.1,0-0.2-0.1-0.3-0.1c0,0,0-0.1,0-0.1
				c0,0-0.1-0.1-0.1-0.1c-2.5,0-5,0-7.6,0.1c0,0,0,0,0,0.1c-0.8,0-1.6,0-2.4,0c0,0-0.1-0.1-0.1-0.1c-0.1,0-0.3,0-0.4-0.1
				c0,0,0-0.1,0-0.1c0,0,0,0-0.1,0c0,0,0,0,0,0L43,14.9c0,0,0,0-0.1,0c0,0,0,0,0,0c0,0,0,0,0,0l0,0c0,0,0,0-0.1,0h0c0,0-0.1,0-0.1,0
				l0,0h0v0l-0.1,0l0,0h0c0,0,0,0-0.1,0h0c0,0-0.1,0-0.1,0c0,0,0,0,0,0c0,0,0,0,0,0c0,0,0,0,0,0c0,0,0,0,0,0c0,0,0,0,0,0
				c0,0,0,0-0.1,0c0,0,0,0,0,0c0,0,0,0-0.1,0h0c0,0,0,0,0,0c0,0,0,0-0.1,0c0,0,0,0,0,0v0c-0.1,0-0.2,0-0.4,0l0,0c0,0,0,0-0.1,0
				L41.1,16v0l0,0v0c0,0-0.1,0-0.1,0l0,0v0h0c0,0,0,0-0.1,0l-0.1,0.1v0.1c0,0-0.1,0-0.1,0l-0.1,0.1v0.1c0,0-0.1,0-0.1,0
				c0,0,0,0-0.1,0v0.1c0,0-0.1,0-0.1,0v0c0,0,0,0-0.1,0c0,0,0,0,0,0s0,0,0,0l0,0V17c-0.1,0-0.1,0-0.2,0c0,0,0,0,0,0v0.1
				c0,0-0.1,0-0.1,0c0,0,0,0-0.1,0c-0.1,0-0.2,0-0.3,0c-0.1,0-0.2,0-0.3,0v0.1c-0.1,0-0.1,0-0.2,0c0,0-0.1,0-0.1,0
				c-0.3,0-0.6,0-0.9,0c-0.3,0-0.6,0-0.8,0c0,0-0.1,0-0.1,0c0,0-0.1,0-0.1,0c0,0,0,0-0.1,0v0c0,0-0.1,0-0.1,0c0,0,0,0,0,0v0.3
				c0,0,0,0,0,0l0,0v0c0,0,0,0.1,0,0.1c0,0,0,0,0,0c0,0,0,0,0,0c-0.2,0-0.4,0-0.6,0c0,0-0.1,0-0.1,0l-0.1-0.1v-0.1c0,0-0.1,0-0.1,0
				v0l0,0v0c0,0,0,0,0,0l0,0c0,0,0,0-0.1,0c0,0,0,0,0,0v-0.1l0,0v0l-0.2-0.2v0c0,0,0,0,0,0l-0.1-0.1v0c0,0,0,0,0,0v-0.1
				c0,0,0,0-0.1,0l0,0c0,0,0,0,0,0v0c0,0,0,0,0,0v0l0,0v0c0,0,0,0,0,0l0,0v0h0v0c0,0,0,0,0,0c0,0,0,0,0,0L34.7,16v0c0,0,0,0,0,0v0
				l0,0v-0.2h0c0,0,0,0,0,0v0l0,0v0h0c-0.1,0-0.1,0-0.2,0c-0.4,0-0.8,0-1.3,0c-0.2,0-0.5,0-0.7,0v0c0,0-0.1,0-0.1,0
				c-0.1,0-0.1,0-0.2,0.1c-0.3,0-0.5,0-0.8,0.1c0,0-0.1,0-0.1,0c0,0-0.1,0-0.1,0c-0.1,0-0.1,0-0.1,0c0,0,0,0-0.1,0
				c-0.1,0-0.1,0-0.1,0c0,0-0.1,0-0.1,0c0,0-0.1,0-0.1,0c-0.1,0-0.1,0-0.1,0.1c-0.1,0-0.1,0-0.2,0.1c0,0,0,0-0.1,0.1
				c0,0-0.1,0-0.1,0c0,0-0.1,0-0.1,0.1c0,0-0.1,0-0.1,0v0c0,0,0,0-0.1,0c0,0,0,0,0,0.1c0,0,0,0-0.1,0.1l0,0h0v0c0,0-0.1,0.1-0.1,0.1
				c0,0-0.1,0.1-0.1,0.1c-0.1,0-0.1,0.1-0.2,0.1c0,0,0,0.1,0,0.1c0,0,0,0.1,0,0.1v0c0,0-0.1,0.1-0.2,0.1c0,0,0,0,0,0.1
				c0,0-0.1,0.1-0.2,0.1c0,0,0,0.1,0,0.1c0,0,0,0.1,0,0.1v0c0,0-0.1,0.1-0.2,0.1c0,0,0,0.1,0,0.1c0,0,0,0.1,0,0.1v0
				c0,0-0.1,0.1-0.2,0.1c0,0,0,0.1,0,0.1s0,0.1,0,0.1c0,0,0,0.1,0,0.1s0,0.1,0,0.1c0,0,0,0.1,0,0.1c0,0,0,0.1,0,0.1s0,0.1,0,0.1
				c0,0,0,0.1,0,0.1c0,0,0,0.1,0,0.1s0,0.1,0,0.1c0,0,0,0.1,0,0.1c0,0,0,0.1,0,0.1c0,0,0,0.1,0,0.1c0,0-0.1,0.1-0.1,0.1l0,0
				c-0.1,0-0.1,0-0.2,0c0,0,0,0,0,0.1c0,0,0,0.1-0.1,0.1l-0.1,0c0,0-0.1,0-0.2,0h-0.1c-0.1,0-0.1,0-0.2,0c0,0,0-0.1-0.1-0.1
				c0,0,0-0.1,0-0.1v0c-0.2,0-0.3,0-0.5,0v0c0,0-0.1,0.1-0.2,0.1c0,0,0,0,0,0.1c-0.1,0-0.1,0-0.2,0.1c0,0,0,0.1,0,0.1
				c0,0,0,0.1,0,0.1c0,0,0,0,0,0.1c0,0-0.1,0.1-0.2,0.1c0,0,0,0,0,0.1c-0.3,0-0.6,0-0.8,0c-0.4,0-0.8,0-1.2,0c0,0,0,0,0,0.1
				c0,0,0,0,0.1,0.1c0,0,0.1,0.1,0.1,0.1c0,0,0,0,0,0.1v0l0,0c0,0,0,0.1,0,0.1c0,0,0,0,0,0.1c0,0,0,0.1,0,0.1c0,0,0,0-0.1,0
				c0,0,0,0-0.1,0c0,0-0.1,0-0.1,0c-0.1,0-0.1,0-0.1,0c-0.1,0-0.1,0-0.2,0c0,0-0.1,0-0.1-0.1c0,0,0-0.1-0.1-0.1c0,0,0,0-0.1-0.1
				c0,0,0-0.1,0-0.1v0c0,0,0-0.1,0-0.1c0,0,0-0.1,0-0.1c0,0,0,0-0.1-0.1c0,0,0,0,0-0.1c0,0,0,0,0-0.1c0,0-0.1-0.1-0.1-0.1
				c0,0-0.1,0-0.1-0.1c0,0,0,0,0-0.1c0,0,0-0.1-0.1-0.1c0,0,0,0-0.1-0.1c0,0,0-0.1,0-0.1c0,0,0,0,0-0.1v0c-0.1,0-0.1,0-0.2-0.1
				c0,0,0-0.1-0.1-0.1c0,0,0-0.1-0.1-0.1c-0.1,0-0.1,0-0.2-0.1c-0.1,0-0.1,0-0.2,0c0,0-0.1,0-0.2,0c0,0-0.1,0-0.2,0c0,0,0,0-0.1-0.1
				c0,0,0-0.1-0.1-0.1c0,0,0,0,0-0.1c0,0,0,0,0-0.1v-0.1c0,0,0-0.1,0-0.1c0,0,0,0,0-0.1c-0.1,0-0.2,0.1-0.3,0.1
				c-0.1,0-0.2,0.1-0.3,0.1c0,0,0,0.1,0,0.1c-0.1,0-0.2,0.1-0.3,0.1c-0.1,0-0.2,0-0.3,0.1c-0.1,0-0.2,0.1-0.4,0.1c0,0-0.1,0-0.2,0.1
				c-0.1,0-0.2,0.1-0.3,0.1c0,0-0.1,0-0.1,0.1c-0.1,0-0.2,0.1-0.4,0.1c0,0,0,0,0,0.1c-0.1,0-0.2,0.1-0.4,0.1c0,0,0,0,0,0.1
				c-0.1,0-0.2,0.1-0.4,0.1c0,0,0,0,0,0.1c-0.1,0-0.3,0.1-0.4,0.1c0,0-0.1,0-0.1,0.1c0,0-0.1,0.1-0.2,0.1c0,0,0,0,0,0.1
				c-0.1,0-0.3,0.1-0.4,0.1c0,0-0.1,0-0.1,0.1c-0.1,0-0.2,0.1-0.4,0.1c0,0,0,0,0,0.1c-0.1,0-0.2,0.1-0.4,0.1c0,0,0,0,0,0.1
				c-0.1,0-0.3,0.1-0.4,0.1c0,0-0.1,0-0.1,0.1c-0.1,0-0.2,0.1-0.4,0.1c0,0,0,0,0,0.1c0,0-0.1,0.1-0.2,0.1v0.1
				c-0.1,0-0.2,0.1-0.3,0.1c0,0-0.1,0-0.1,0.1c-0.1,0-0.2,0.1-0.4,0.1c0,0,0,0,0,0.1c-0.1,0-0.2,0.1-0.4,0.1c0,0,0,0,0,0.1
				c-0.1,0-0.2,0.1-0.3,0.1c0,0-0.1,0-0.1,0.1c-0.1,0-0.2,0.1-0.3,0.1c0,0-0.1,0-0.1,0.1c-0.1,0-0.2,0.1-0.3,0.1c0,0-0.1,0-0.1,0.1
				c0,0-0.1,0.1-0.2,0.1c0,0,0,0,0,0.1c-0.1,0-0.2,0.1-0.4,0.1c0,0,0,0,0,0.1c-0.1,0-0.2,0.1-0.4,0.1c0,0,0,0,0,0.1
				c-0.1,0-0.2,0.1-0.4,0.1c0,0,0,0,0,0.1c-0.2,0-0.3,0.1-0.5,0.1c0,0,0,0,0,0.1c-0.1,0-0.2,0.1-0.3,0.1c0,0-0.1,0-0.1,0.1
				c-0.1,0-0.2,0.1-0.4,0.1c0,0,0,0,0,0.1c-0.1,0-0.2,0.1-0.4,0.1c0,0,0,0,0,0.1c-0.1,0-0.2,0.1-0.4,0.1c0,0,0,0,0,0.1
				c-0.2,0-0.3,0.1-0.5,0.1c0,0,0,0,0,0.1c-0.1,0-0.2,0.1-0.4,0.1c0,0,0,0,0,0.1c-0.1,0-0.2,0.1-0.4,0.1c0,0,0,0,0,0.1
				c-0.1,0-0.2,0.1-0.4,0.1c0,0,0,0,0,0.1c-0.1,0-0.2,0.1-0.4,0.1c0,0,0,0,0,0.1c-0.1,0-0.2,0.1-0.3,0.1c0,0-0.1,0-0.1,0.1
				c-0.1,0-0.2,0.1-0.4,0.1c0,0,0,0,0,0.1C7.2,26,7.1,26,7,26.1c0,0,0,0,0,0.1c-0.2,0-0.3,0.1-0.5,0.1c0,0,0,0,0,0.1
				c-0.1,0-0.3,0.1-0.4,0.1c0,0-0.1,0-0.1,0.1c-0.1,0-0.3,0.1-0.4,0.1c0,0-0.1,0-0.1,0.1c-0.1,0-0.2,0.1-0.4,0.1c0,0,0,0,0,0.1
				c-0.1,0-0.2,0-0.3,0c0,0,0,0.1,0,0.1c0,0,0,0.1,0,0.1v0c0,0,0,0.1-0.1,0.1l0,0c0,0,0,0,0,0c0,0-0.1,0-0.1,0c0,0-0.1,0-0.1,0
				c0,0-0.1,0-0.1-0.1h0c0,0-0.1,0-0.1,0c0,0-0.1,0-0.1,0.1c0,0-0.1,0-0.1,0c0,0-0.1,0-0.2-0.1c0,0,0,0-0.1-0.1v0c0,0,0,0-0.1-0.1
				c0,0,0,0,0,0.1v0c0,0,0,0-0.1,0.1l0,0.1c0,0,0,0.1,0,0.1c0,0-0.1,0-0.1,0c0,0-0.1,0-0.2,0.1c-0.1,0-0.2,0-0.3,0
				c-0.1,0-0.1,0-0.2-0.1c0,0,0,0-0.1,0c0,0-0.1,0-0.1-0.1c0,0,0,0-0.1-0.1c0,0-0.1,0-0.2-0.1c0,0-0.1,0-0.1,0c-0.1,0-0.2,0-0.2-0.1
				c0,0-0.1,0-0.1,0c0,0,0,0-0.1-0.1c0,0-0.1-0.1-0.1-0.1c0,0,0,0,0-0.1c0,0,0-0.1,0-0.1c0,0,0,0,0-0.1c0,0,0,0,0-0.1
				c0,0,0-0.1,0-0.1v-0.1c0,0,0,0,0-0.1v-0.1c0,0,0-0.1,0-0.1c0,0,0,0,0-0.1c0,0,0,0,0-0.1c0,0,0-0.1,0-0.1c0,0,0,0,0-0.1
				c0,0,0-0.1,0-0.1c0,0,0,0,0-0.1c0,0,0,0,0-0.1c0,0,0-0.1,0-0.1v-0.1c0,0,0,0,0-0.1v-0.1c0,0,0-0.1,0-0.1c0,0,0,0,0-0.1
				c0,0,0-0.1,0-0.1c0,0,0,0,0-0.1c0,0,0,0,0-0.1c0,0,0-0.1-0.1-0.1c0,0,0,0,0-0.1c0,0,0,0,0-0.1c0,0,0-0.1,0-0.1v-0.1
				c0,0,0-0.1,0-0.1v0c0,0,0-0.1,0-0.1v-0.1c0,0,0-0.1,0-0.1c0,0,0,0,0-0.1c0,0,0,0,0-0.1c0,0,0-0.1,0-0.1c0,0,0,0,0-0.1
				c0,0,0,0,0-0.1c0,0,0-0.1,0-0.1c0,0,0,0,0-0.1s0-0.1,0-0.1c0,0,0,0,0-0.1c0,0,0,0,0-0.1v-0.1c0,0,0-0.1,0-0.1c0,0,0-0.1,0-0.1v0
				c0,0,0-0.1,0-0.1c0,0,0,0,0-0.1c0,0,0-0.1,0-0.1c0,0,0,0,0-0.1c0,0,0,0,0-0.1c0,0,0-0.1,0-0.1v-0.1c0,0,0,0,0-0.1
				c0,0,0-0.1,0-0.1c0,0,0-0.1-0.1-0.1c0,0,0-0.1,0-0.1v-0.1c0,0,0,0,0-0.1c0,0,0,0,0-0.1c0,0,0-0.1,0-0.1c0,0,0,0,0-0.1
				c0,0,0,0,0-0.1c0,0,0-0.1,0-0.1v-0.1c0,0,0-0.1,0-0.1v0c0,0,0-0.1,0-0.1c0,0,0-0.1,0-0.1v-0.1c0,0,0,0,0-0.1c0,0,0,0,0-0.1
				c0,0,0-0.1,0-0.1c0,0,0,0,0-0.1c0,0,0,0,0-0.1c0,0,0-0.1,0-0.1c0,0,0,0-0.1-0.1c0,0,0-0.1,0-0.1c0,0,0,0,0-0.1c0,0,0,0,0-0.1
				c0,0,0-0.1,0-0.1v-0.1c0,0,0-0.1,0-0.1v0c0,0,0-0.1,0-0.1c0,0,0,0,0-0.1c0,0,0-0.1,0-0.1c0,0,0,0,0-0.1c0,0,0,0,0-0.1
				c0,0,0-0.1,0-0.1c0,0,0,0,0-0.1c0,0,0,0,0-0.1v-0.1c0,0,0-0.1,0-0.1c0,0,0-0.1-0.1-0.1c0,0,0,0,0,0c0,0,0-0.1,0-0.1v-0.1
				c0,0,0-0.1,0-0.1c0,0,0,0,0-0.1c0,0,0,0,0-0.1c0,0,0-0.1,0-0.1c0,0,0,0,0-0.1s0-0.1,0-0.1v0c0,0,0-0.1,0-0.1c0,0,0-0.1,0-0.1
				v-0.1c0,0,0,0-0.1-0.1l0-0.1c0,0,0-0.1,0-0.1c0,0,0,0,0-0.1s0,0,0-0.1c0,0,0-0.1,0-0.1c0,0,0,0,0-0.1c0,0,0-0.1,0-0.1v-0.1
				c0,0,0-0.1,0-0.1c0,0,0-0.1,0-0.1v-0.1c0,0,0-0.1,0-0.1v0c0,0,0-0.1-0.1-0.1c0,0,0,0,0-0.1c0,0,0-0.1,0-0.1c0,0,0,0,0-0.1
				c0,0,0,0,0-0.1c0,0,0-0.1,0-0.1c0,0,0,0,0-0.1c0,0,0,0,0-0.1c0,0,0-0.1,0-0.1c0,0,0,0,0-0.1c0,0,0-0.1,0-0.1c0,0,0,0-0.1,0
				c0,0,0-0.1,0-0.1v-0.1c0,0,0-0.1,0-0.1c0,0,0-0.1,0-0.1v0c0,0,0-0.1,0-0.1c0,0,0,0,0-0.1c0,0,0-0.1,0-0.1c0,0,0,0,0-0.1
				c0,0,0,0,0-0.1c0,0,0-0.1,0.1-0.1c0,0,0,0,0.1,0l0,0h0c0,0,0,0,0-0.1v-0.1c0,0,0-0.1,0-0.1s0-0.1,0-0.1c0,0,0,0,0.1,0
				c0,0,0.1-0.1,0.1-0.1c0,0,0,0,0.1-0.1c0,0,0-0.1,0.1-0.1c0,0,0,0,0.1-0.1c0,0,0.1,0,0.1,0c0.1,0,0.1,0,0.2-0.1c0,0,0,0,0.1-0.1
				c0,0,0.1,0,0.1,0c0.1,0,0.1,0,0.2-0.1c0.1,0,0.2-0.1,0.2-0.1c0,0,0.1,0,0.1,0c0,0,0.1,0,0.1,0c0.1,0,0.2,0,0.3,0c0,0,0.1,0,0.1,0
				c0,0,0.1,0,0.1,0c0,0,0,0,0.1,0c0,0,0.1,0,0.2,0.1c0,0,0,0.1,0.1,0.1c0,0,0,0.1,0.1,0.1c0,0,0.1,0,0.1,0c0.1,0,0.3-0.1,0.4-0.1
				c0,0,0,0,0-0.1h0c0,0,0,0,0.1,0c0.4,0,0.7,0,1.1,0l0,0c0.5,0,1,0,1.5,0c0,0,0.1,0.1,0.1,0.1l0,0c0.1,0,0.3,0,0.4,0
				c0.2,0,0.4,0,0.5,0c0,0,0,0,0.1,0.1c0.2,0,0.5,0,0.7,0c0,0,0,0,0.1-0.1h0c0.6,0,1.2,0,1.9,0c0,0,0.1,0,0.1,0c0,0,0.1,0,0.1,0
				c0.1,0,0.1,0,0.2,0v-0.4c0.1,0,0.3,0,0.4,0c0,0,0,0,0.1,0c0.1,0,0.1,0,0.2,0c0,0,0,0,0,0v0c0.1,0,0.2,0,0.3,0h0c0,0,0,0,0,0
				c0.1,0,0.3,0,0.4,0h0c0,0,0,0,0,0c0.1,0,0.1,0,0.2,0c0,0,0,0,0.1,0c0,0,0,0,0.1,0c0.1,0,0.3,0,0.4,0c0,0,0,0,0.1,0s0,0,0.1,0
				c0.1,0,0.1,0,0.2,0c0,0,0,0,0.1,0s0,0,0.1,0h0c0,0,0,0,0.1,0c0,0,0,0,0.1,0c0.1,0,0.3,0,0.4,0c0.1,0,0.3,0,0.4,0c0,0,0,0,0.1,0
				c0,0,0,0,0,0c0.1,0,0.3,0,0.4,0c0,0,0,0,0.1,0v0c0.3,0,0.5,0,0.8,0c0,0,0.1,0,0.1,0c0,0,0,0,0,0c0.2,0,0.4,0,0.5,0c0,0,0,0,0.1,0
				h0l0,0c0,0,0,0,0.1,0h0.1c0.1,0,0.3,0,0.4,0c0,0,0.1,0,0.1,0c0,0,0.1,0,0.1,0c0,0,0.1,0,0.1,0c0,0,0.1,0,0.1,0c0,0,0.1,0,0.1,0
				c0,0,0.1,0,0.1,0c0,0,0.1,0,0.1,0c0,0,0.1,0,0.1,0c0.2,0,0.4,0,0.6,0c0,0,0,0,0.1,0c0,0,0,0,0.1,0s0,0,0,0c0,0,0,0,0.1,0
				c0,0,0,0,0.1,0c0,0,0,0,0.1,0c0,0,0,0,0,0c0,0,0.1,0,0.2,0c0,0,0.1,0,0.1,0c0,0,0.1,0,0.1,0c0.1,0,0.1,0,0.2,0s0.1,0,0.2,0
				c0,0,0.1,0,0.1,0c0,0,0.1,0,0.1,0c0,0,0.1,0,0.1,0c0,0,0.1,0,0.1,0c0,0,0,0,0.1,0s0,0,0.1,0c0,0,0,0,0.1,0c0,0,0,0,0.1,0
				s0,0,0.1,0c0,0,0,0,0.1,0c0,0,0,0,0.1,0c0,0,0.1,0,0.1,0c0,0,0.1,0,0.1,0c0,0,0.1,0,0.1,0c0,0,0.1,0,0.2,0c0,0,0.1,0,0.1,0
				s0.1,0,0.1,0c0,0,0.1,0,0.1,0s0.1,0,0.1,0c0.2,0,0.4,0,0.6,0c0,0,0,0,0.1,0h0c0,0,0,0,0.1,0h0c0,0,0,0,0.1,0h0l0,0
				c0,0,0.1,0,0.1,0c0,0,0.1,0,0.1,0c0,0,0.1,0,0.1,0c0,0,0.1,0,0.1,0c0,0,0.1,0,0.1,0c0.1,0,0.2,0,0.3,0v0c0,0,0.1,0,0.1,0v0.2l0,0
				v0l0,0v0c0,0,0.1,0,0.1,0c0.1,0,0.1,0,0.2,0c0,0,0,0,0.1,0v0c0.1,0,0.1,0,0.2,0c0.1,0,0.2,0,0.3,0c0.1,0,0.3,0,0.4,0
				c0.1,0,0.1,0,0.2,0c0,0,0,0,0.1,0l0,0c0,0,0.1,0,0.1,0c0,0,0,0,0.1,0c0,0,0.1,0,0.1,0c0,0,0.1,0,0.1,0c0,0,0.1,0,0.1,0v0
				c0,0,0.1,0,0.1,0c0,0,0,0,0,0c0,0,0.1,0,0.1,0c0,0,0.1,0,0.1,0c0,0,0,0,0.1,0h0c0,0,0,0,0,0v0c0,0,0.1,0,0.1,0c0,0,0,0,0,0
				c0,0,0.1,0,0.1,0c0,0,0.1,0,0.1,0c0,0,0.1,0,0.1,0v0c0,0,0.1,0,0.1,0v0c0,0,0,0,0.1,0c0.1,0,0.1,0,0.2,0c0,0,0.1,0,0.1,0v0
				c0,0,0,0,0.1,0v0c0.1,0,0.1,0,0.2,0c0,0,0.1,0,0.1,0c0,0,0.1,0,0.1,0l0,0c0,0,0.1,0,0.1,0v0c0.1,0,0.1,0,0.2,0c0,0,0.1,0,0.1,0
				c0,0,0,0,0.1,0v0c0,0,0.1,0,0.1,0c0,0,0,0,0,0c0,0,0.1,0,0.1,0c0,0,0,0,0.1,0c0,0,0,0,0.1,0l0,0c0,0,0.1,0,0.1,0c0,0,0,0,0.1,0h0
				c0,0,0.1,0,0.1,0c0,0,0,0,0.1,0l0,0c0,0,0.1,0,0.1,0v0c0,0,0.1,0,0.1,0c0,0,0,0,0.1,0c0,0,0.1,0,0.1,0l0,0c0,0,0,0,0.1,0
				c0,0,0,0,0.1,0h0c0,0,0.1,0,0.1,0c0,0,0,0,0.1,0v0c0,0,0.1,0,0.1,0v0c0,0,0,0,0.1,0c0,0,0,0,0.1,0l0,0h0c0,0,0.1,0,0.1,0v0
				c0,0,0,0,0.1,0v0c0,0,0.1,0,0.1,0c0,0,0,0,0.1,0c0,0,0.1,0,0.1,0v0c0,0,0,0,0.1,0c0,0,0,0,0.1,0c0,0,0,0,0.1,0c0,0,0.1,0,0.1,0
				c0,0,0,0,0.1,0v0c0,0,0.1,0,0.1,0v0c0,0,0.1,0,0.1,0c0,0,0,0,0.1,0c0,0,0.1,0,0.1,0v0c0,0,0.1,0,0.1,0v0c0,0,0,0,0.1,0
				c0,0,0.1,0,0.1,0c0,0,0,0,0.1,0l0,0c0,0,0,0,0.1,0v0c0,0,0.1,0,0.1,0c0,0,0,0,0.1,0c0.1,0,0.1,0,0.1,0v0c0,0,0,0,0.1,0v0
				c0,0,0.1,0,0.1,0c0,0,0.1,0,0.1,0c0,0,0,0,0.1,0v0c0,0,0,0,0.1,0c0,0,0,0,0.1,0c0,0,0,0,0.1,0c0,0,0.1,0,0.1,0c0,0,0,0,0.1,0l0,0
				c0,0,0.1,0,0.1,0v0c0,0,0.1,0,0.1,0c0,0,0,0,0.1,0c0,0,0.1,0,0.1,0v0c0,0,0,0,0,0v0c0,0,0.1,0,0.1,0c0,0,0,0,0.1,0
				c0,0,0.1,0,0.1,0v0c0,0,0,0,0.1,0v0c0,0,0.1,0,0.1,0l0,0c0,0,0.1,0,0.1,0v0c0,0,0,0,0.1,0c0,0,0,0,0.1,0v0c0,0,0,0,0.1,0
				c0,0,0.1,0,0.1,0v0c0,0,0,0,0.1,0c0,0,0,0,0.1,0h0c0,0,0.1,0,0.1,0c0,0,0,0,0.1,0v0c0,0,0.1,0,0.1,0v0c0,0,0,0,0.1,0
				c0,0,0.1,0,0.1,0l0,0v0c0,0,0,0,0.1,0c0,0,0,0,0.1,0h0l0,0c0,0,0.1,0,0.1,0v0c0,0,0,0,0.1,0v0c0,0,0.1,0,0.1,0l0,0c0,0,0,0,0.1,0
				l0,0c0,0,0,0,0.1,0v0c0,0,0.1,0,0.1,0c0,0,0,0,0,0c0,0,0,0,0,0v0c0,0,0,0,0,0v0c0,0,0.1,0,0.1,0v0c0,0,0,0,0.1,0V7
				c0.1,0,0.2,0,0.4,0V6.6c0.4,0,0.8,0,1.2,0v0c0.2,0,0.4,0,0.5,0c0,0,0,0,0.1,0V7c0.1,0,0.2,0,0.3,0v0c0.1,0,0.3,0,0.4,0v0
				c0,0,0,0,0,0v0.4c2.2,0,4.4,0,6.5,0c0,0,0,0,0,0.1c0.1,0,0.1,0,0.2,0c0,0,0,0-0.1,0v0c0.1,0,0.3,0,0.4,0v0l0,0c0.7,0,1.5,0,2.2,0
				v0c0.2,0,0.3,0,0.5,0v0c0,0,0.1,0,0.1,0v0c0.1,0,0.3,0,0.4,0v0c0.1,0,0.2,0,0.3,0v0c0.1,0,0.3,0,0.4,0v0c0.4,0,0.8,0,1.3,0v0
				c0.1,0,0.3,0,0.4,0v0c0.1,0,0.2,0,0.3,0v0c0.3,0,0.6,0,0.9,0v0c0.1,0,0.3,0,0.4,0c0,0,0,0.1,0,0.1c0,0,0,0.1,0.1,0.1
				c0.4,0,0.8,0,1.3,0c0,0,0,0.1,0,0.1v0.1c0,0,0,0,0.1,0C56,8,56.1,8,56.1,8v0l0,0c0,0,0.1,0,0.1,0c12.5,0,24.9,0,37.4,0
				c0,0,0,0-0.1-0.1c0,0,0-0.1,0-0.1v0c0.3,0,0.6,0,0.9,0c0,0,0,0,0.1,0.1c0.2,0,0.3,0,0.5,0c0,0,0,0,0-0.1c0-0.1,0-0.2,0-0.3
				c0,0,0-0.1,0-0.1s0-0.1,0-0.1c0,0,0-0.1,0-0.1c0.1,0,0.1-0.1,0.2-0.1c0,0,0,0,0-0.1v0c0.8,0,1.6,0,2.4,0
				C97.7,7.1,97.7,7.1,97.7,7.2z M35.1,14.2c0,0-0.1,0-0.1,0C35,14.2,35,14.2,35.1,14.2L35.1,14.2z M36.7,15.3
				C36.6,15.3,36.6,15.4,36.7,15.3C36.6,15.4,36.6,15.4,36.7,15.3l0,0.8c0,0,0,0,0.1,0v0.1c0,0,0,0,0.1,0c0,0,0,0,0,0v0c0,0,0,0,0,0
				v0c0,0,0,0,0,0c0,0,0.1,0,0.1,0v0.1h0c0,0,0,0,0.1,0c0,0,0.1,0,0.1,0v0c0,0,0,0,0,0c0,0,0.1,0,0.1,0v0c0,0,0,0,0.1,0
				c0,0,0.1,0,0.1,0c0,0,0.1,0,0.2,0c0.2,0,0.5,0,0.7,0c0.1,0,0.1,0,0.2,0v-0.1c0,0,0.1,0,0.1,0c0.1,0,0.2,0,0.4,0c0,0,0,0,0.1,0
				c0,0,0.1,0,0.1,0v0c0,0,0,0,0,0v0c0,0,0.1,0,0.1,0V15c-0.9,0-1.9,0-2.8,0L36.7,15.3L36.7,15.3z M40.1,14.5c-0.3,0-0.6,0-0.9,0
				C39.5,14.5,39.8,14.5,40.1,14.5L40.1,14.5z M1,14.7C1,14.8,0.9,14.8,1,14.7L1,14.7c-0.1,0.1-0.1,0.1-0.1,0.1v0
				C0.9,14.9,0.9,14.8,1,14.7c0.1,0,0.1,0,0.1-0.1v0C1.1,14.7,1.1,14.7,1,14.7C1,14.7,1,14.7,1,14.7z M1.2,14.5
				C1.2,14.5,1.2,14.5,1.2,14.5c0.1-0.1,0.1-0.1,0.1-0.1C1.2,14.4,1.2,14.4,1.2,14.5L1.2,14.5z M1.5,14.2
				C1.5,14.2,1.5,14.2,1.5,14.2L1.5,14.2c-0.1,0-0.1,0-0.2,0c0,0,0,0-0.1,0.1c0,0,0.1,0,0.1,0v-0.1C1.4,14.3,1.5,14.2,1.5,14.2z
				 M1.2,17.4C1.2,17.4,1.2,17.5,1.2,17.4L1.2,17.4L1.2,17.4z M3.4,26.9c0,0,0,0.1,0.1,0.1c0,0,0,0,0,0.1v0c0,0,0-0.1,0-0.1
				c0,0,0,0,0-0.1c0,0,0,0,0,0C3.5,26.9,3.4,26.9,3.4,26.9C3.3,26.9,3.4,26.9,3.4,26.9z"/>
		</g>
	</g>
</g>
<g id="guides">
</g>
<g id="Flash_2_">
	<path fill="#FFFFFF" d="M127,12.2c0,2.2-0.8,4.2-2.4,5.8c-1.6,1.6-3.5,2.4-5.8,2.4c-2.2,0-4.2-0.8-5.8-2.4
		c-1.6-1.6-2.4-3.5-2.4-5.8c0-0.6,0.1-1.1,0.2-1.7c0.2-0.1,0.4-0.1,0.6-0.3c0.8-0.4,1.5-0.8,2.3-1.1c0.1,0,0.3-0.1,0.4-0.2
		c-0.7,1-1.1,2.1-1,3.4c0,1.6,0.6,3,1.7,4.1c1.1,1.1,2.5,1.7,4.1,1.7c1.6,0,3-0.6,4.1-1.7c1.1-1.1,1.7-2.5,1.7-4.1
		c0-1.6-0.5-2.9-1.6-4.1c0.7,0.2,1.4,0.4,2.1,0.8c0,0,0,0,0,0c0.4,0.2,0.8,0.4,1.2,0.5C126.8,10.5,127,11.4,127,12.2z"/>
	<path fill="#FFFFFF" d="M134.8,19.3c-0.7-1.1-1.5-2.2-2.4-3.2c-0.2,0.2-0.4,0.4-0.6,0.6c-3.8,3.8-8.4,5.7-13.8,5.7
		s-10-1.9-13.9-5.7l-0.1,0.1c0.7,1.1,1.6,2.1,2.5,3.1c3.8,3.8,8.4,5.7,13.9,5.7c5.4,0,10-1.9,13.8-5.7
		C134.4,19.7,134.6,19.5,134.8,19.3L134.8,19.3z"/>
	<path fill="#FFFFFF" d="M132.3,16.1c0.9,1,1.7,2.1,2.4,3.2c0.7-0.7,1.3-1.4,1.8-2.1c-0.6-1-1-1.6-2.4-3.2
		C133.6,14.7,133,15.4,132.3,16.1L132.3,16.1z"/>
	<polygon fill="#FF0000" points="123.1,13.9 120.7,15 120.3,17.6 118.5,15.8 115.9,16.2 117.1,13.9 115.9,11.5 118.5,12 120.3,10.1 
		120.7,12.7 	"/>
	<path fill="#FFFFFF" d="M131.8,15.5c0.2,0.2,0.4,0.4,0.6,0.6c0.6-0.7,1.2-1.4,1.8-2.2c-0.2-0.2-0.4-0.4-0.6-0.6
		c-3.8-3.8-8.4-5.7-13.8-5.7c-5.4,0-10,1.9-13.9,5.7c-0.8,0.9-1.6,1.8-2.3,2.7l0.1,0.1c0.1-0.2,0.3-0.4,0.5-0.5
		c3.8-3.8,8.4-5.7,13.9-5.7S128,11.7,131.8,15.5L131.8,15.5z"/>
</g>
</svg>
