<?xml version="1.0" encoding="utf-8"?>
<!-- Generator: Adobe Illustrator 21.0.2, SVG Export Plug-In . SVG Version: 6.00 Build 0)  -->
<svg version="1.1" id="Слой_1" xmlns="http://www.w3.org/2000/svg" xmlns:xlink="http://www.w3.org/1999/xlink" x="0px" y="0px"
	 width="136.2px" height="32px" viewBox="0 0 136.2 32" enable-background="new 0 0 136.2 32" xml:space="preserve">
<g id="Selected_Items">
	<g>
		<g id="Selected_Items_39_">
			<path fill="#FFFFFF" d="M97.7,7.2c0,0,0,0.1,0,0.1c0,0,0,0.1,0,0.1c0,0,0,0.1,0,0.1c0,0,0,0.1,0,0.1V8c0.6,0,1.1,0,1.7,0
				c0.1,0,0.1,0,0.2,0c0,0,0,0,0.1,0h0v0c0,0,0,0,0.1,0c0,0,0.1,0,0.2,0.1c0,0,0,0.1,0.1,0.1c0,0,0,0,0,0.1c0,0,0,0,0,0.1v0.1
				c0,0,0,0.1,0,0.1c0,0,0,0,0,0.1c0,0,0,0,0.1,0c0,0,0,0.1,0,0.1c0,0,0,0.1,0,0.1s0,0.1,0,0.1c0,0,0,0.1,0,0.1c0,0,0,0.1,0,0.1
				c0,0,0,0,0,0.1c0,0,0,0.1,0,0.1l0,0c0,0,0,0.1,0,0.1s0,0.1,0,0.1v0.1c0,0,0,0,0,0.1c0,0,0,0-0.1,0.1c0,0,0,0.1,0,0.1
				c0,0,0,0.1,0,0.1c0,0,0,0.1,0,0.1s0,0.1,0,0.1c0,0,0,0.1,0,0.1c0,0,0,0.1,0,0.1c0,0,0,0,0,0.1c-0.2,0-0.3,0-0.5,0l0,0
				c0,0,0,0,0,0.1c0,0,0,0,0.1,0.1c0,0,0,0.1,0,0.1l0,0c-3.1,0-6.2,0-9.3,0c0,0-0.1,0-0.1,0.1c-0.1,0-0.3,0-0.4,0c0,0,0,0.1,0,0.1h0
				v0c0,0,0,0,0-0.1c-0.4,0-0.8,0-1.2,0.1v0c0,0-0.1,0-0.1,0c0,0,0,0.1,0,0.1c-0.2,0-0.3,0-0.5,0c0,0,0,0-0.1,0.1c0,0,0,0.1,0,0.1
				c0,0-0.1,0-0.1,0c0,0,0,0.1,0,0.1c0,0,0,0.1,0,0.1c0,0,0,0.1,0,0.1s0,0.1,0,0.1v0c0.1,0,0.1,0,0.2,0c0,0,0,0.1,0,0.1s0,0.1,0,0.1
				c0,0,0,0.1,0,0.1c0,0,0,0.1,0,0.1c0,0,0,0.1,0,0.1c0,0,0,0.1,0,0.1c0,0,0,0.1,0,0.1c0,0,0,0.1,0,0.1c0,0.1,0,0.1,0,0.1
				s0,0.1,0,0.1c0,0,0,0.1,0,0.1c0,0,0,0.1,0,0.1s0,0.1,0,0.1s0,0.1,0,0.1c0,0,0,0.1,0,0.1c0,0,0,0,0,0.1c-0.1,0-0.2,0-0.4,0
				c0,0,0,0.1,0,0.1c0,0,0,0,0,0.1c-0.1,0-0.2,0-0.4,0c-0.2,0-0.4,0-0.6,0v0c0,0,0,0,0,0.1s0,0,0,0.1c0,0,0,0.1,0,0.1c0,0,0,0-0.1,0
				c0,0,0,0-0.1,0c0,0,0,0-0.1,0l0,0c0,0-0.1,0-0.1,0c-0.1,0-0.1,0-0.2,0c0,0-0.1,0-0.1,0v0c-0.2,0-0.5,0.1-0.7,0.1c0,0,0,0,0,0.1
				c-0.2,0-0.4,0.1-0.6,0.1c0,0-0.1,0-0.1,0.1c-0.6,0-1.2,0.1-1.9,0.1c0,0-0.1,0-0.1,0.1c-0.5,0-1,0-1.5,0c0,0,0,0-0.1,0.1h0
				c0,0-0.1,0-0.2,0c-3.4,0-6.7,0-10.1,0c-0.1,0-0.2,0-0.3,0c0,0,0,0,0,0.1c-0.5,0-1.1,0.1-1.6,0.1c0,0,0,0,0,0.1
				c-0.6,0-1.1,0.1-1.7,0.1c0,0-0.1,0-0.1,0.1c-0.5,0-0.9,0.1-1.3,0.1c0,0-0.1,0-0.1,0.1c-0.4,0-0.8,0.1-1.3,0.1c0,0,0,0,0,0.1
				c-0.5,0-1,0.1-1.4,0.1c0,0,0,0,0,0.1c-0.5,0-0.9,0.1-1.3,0.1c0,0-0.1,0-0.1,0.1c-0.6,0-1.1,0.1-1.7,0.1c0,0-0.1,0-0.1,0.1
				c-0.7,0-1.5,0-2.2,0c0,0-0.1-0.1-0.1-0.1c-0.4,0-0.8,0-1.1-0.1c0,0-0.1-0.1-0.1-0.1c-0.1,0-0.3,0-0.4-0.1c0,0,0-0.1,0-0.1
				c-0.1,0-0.2,0-0.4-0.1c0,0,0-0.1,0-0.1c0,0-0.1,0-0.2-0.1c0,0,0-0.1,0-0.1c-0.1,0-0.2,0-0.4-0.1c0,0,0-0.1,0-0.1
				c0,0-0.1,0-0.2-0.1c0,0,0-0.1,0-0.1c0,0-0.1-0.1-0.1-0.1c0,0-0.1-0.1-0.1-0.1c-0.1,0-0.2-0.1-0.3-0.1c0,0,0-0.1,0-0.1
				c0,0-0.1-0.1-0.1-0.1c-2.5,0-5,0-7.6,0.1c0,0,0,0,0,0.1c-0.8,0-1.6,0-2.4,0c0,0-0.1-0.1-0.1-0.1c-0.1,0-0.3,0-0.4-0.1
				c0,0,0-0.1,0-0.1c0,0,0,0-0.1,0c0,0,0,0,0,0L43,14.9c0,0,0,0-0.1,0c0,0,0,0,0,0c0,0,0,0,0,0l0,0c0,0,0,0-0.1,0h0c0,0-0.1,0-0.1,0
				l0,0h0v0l-0.1,0l0,0h0c0,0,0,0-0.1,0h0c0,0-0.1,0-0.1,0c0,0,0,0,0,0c0,0,0,0,0,0c0,0,0,0,0,0c0,0,0,0,0,0c0,0,0,0,0,0
				c0,0,0,0-0.1,0c0,0,0,0,0,0c0,0,0,0-0.1,0h0c0,0,0,0,0,0c0,0,0,0-0.1,0c0,0,0,0,0,0v0c-0.1,0-0.2,0-0.4,0l0,0c0,0,0,0-0.1,0
				L41.1,16v0l0,0v0c0,0-0.1,0-0.1,0l0,0v0h0c0,0,0,0-0.1,0l-0.1,0.1v0.1c0,0-0.1,0-0.1,0l-0.1,0.1v0.1c0,0-0.1,0-0.1,0
				c0,0,0,0-0.1,0v0.1c0,0-0.1,0-0.1,0v0c0,0,0,0-0.1,0c0,0,0,0,0,0s0,0,0,0l0,0V17c-0.1,0-0.1,0-0.2,0c0,0,0,0,0,0v0.1
				c0,0-0.1,0-0.1,0c0,0,0,0-0.1,0c-0.1,0-0.2,0-0.3,0c-0.1,0-0.2,0-0.3,0v0.1c-0.1,0-0.1,0-0.2,0c0,0-0.1,0-0.1,0
				c-0.3,0-0.6,0-0.9,0c-0.3,0-0.6,0-0.8,0c0,0-0.1,0-0.1,0c0,0-0.1,0-0.1,0c0,0,0,0-0.1,0v0c0,0-0.1,0-0.1,0c0,0,0,0,0,0v0.3
				c0,0,0,0,0,0l0,0v0c0,0,0,0.1,0,0.1c0,0,0,0,0,0c0,0,0,0,0,0c-0.2,0-0.4,0-0.6,0c0,0-0.1,0-0.1,0l-0.1-0.1v-0.1c0,0-0.1,0-0.1,0
				v0l0,0v0c0,0,0,0,0,0l0,0c0,0,0,0-0.1,0c0,0,0,0,0,0v-0.1l0,0v0l-0.2-0.2v0c0,0,0,0,0,0l-0.1-0.1v0c0,0,0,0,0,0v-0.1
				c0,0,0,0-0.1,0l0,0c0,0,0,0,0,0v0c0,0,0,0,0,0v0l0,0v0c0,0,0,0,0,0l0,0v0h0v0c0,0,0,0,0,0c0,0,0,0,0,0L34.7,16v0c0,0,0,0,0,0v0
				l0,0v-0.2h0c0,0,0,0,0,0v0l0,0v0h0c-0.1,0-0.1,0-0.2,0c-0.4,0-0.8,0-1.3,0c-0.2,0-0.5,0-0.7,0v0c0,0-0.1,0-0.1,0
				c-0.1,0-0.1,0-0.2,0.1c-0.3,0-0.5,0-0.8,0.1c0,0-0.1,0-0.1,0c0,0-0.1,0-0.1,0c-0.1,0-0.1,0-0.1,0c0,0,0,0-0.1,0
				c-0.1,0-0.1,0-0.1,0c0,0-0.1,0-0.1,0c0,0-0.1,0-0.1,0c-0.1,0-0.1,0-0.1,0.1c-0.1,0-0.1,0-0.2,0.1c0,0,0,0-0.1,0.1
				c0,0-0.1,0-0.1,0c0,0-0.1,0-0.1,0.1c0,0-0.1,0-0.1,0v0c0,0,0,0-0.1,0c0,0,0,0,0,0.1c0,0,0,0-0.1,0.1l0,0h0v0c0,0-0.1,0.1-0.1,0.1
				c0,0-0.1,0.1-0.1,0.1c-0.1,0-0.1,0.1-0.2,0.1c0,0,0,0.1,0,0.1c0,0,0,0.1,0,0.1v0c0,0-0.1,0.1-0.2,0.1c0,0,0,0,0,0.1
				c0,0-0.1,0.1-0.2,0.1c0,0,0,0.1,0,0.1c0,0,0,0.1,0,0.1v0c0,0-0.1,0.1-0.2,0.1c0,0,0,0.1,0,0.1c0,0,0,0.1,0,0.1v0
				c0,0-0.1,0.1-0.2,0.1c0,0,0,0.1,0,0.1s0,0.1,0,0.1c0,0,0,0.1,0,0.1s0,0.1,0,0.1c0,0,0,0.1,0,0.1c0,0,0,0.1,0,0.1s0,0.1,0,0.1
				c0,0,0,0.1,0,0.1c0,0,0,0.1,0,0.1s0,0.1,0,0.1c0,0,0,0.1,0,0.1c0,0,0,0.1,0,0.1c0,0,0,0.1,0,0.1c0,0-0.1,0.1-0.1,0.1l0,0
				c-0.1,0-0.1,0-0.2,0c0,0,0,0,0,0.1c0,0,0,0.1-0.1,0.1l-0.1,0c0,0-0.1,0-0.2,0h-0.1c-0.1,0-0.1,0-0.2,0c0,0,0-0.1-0.1-0.1
				c0,0,0-0.1,0-0.1v0c-0.2,0-0.3,0-0.5,0v0c0,0-0.1,0.1-0.2,0.1c0,0,0,0,0,0.1c-0.1,0-0.1,0-0.2,0.1c0,0,0,0.1,0,0.1
				c0,0,0,0.1,0,0.1c0,0,0,0,0,0.1c0,0-0.1,0.1-0.2,0.1c0,0,0,0,0,0.1c-0.3,0-0.6,0-0.8,0c-0.4,0-0.8,0-1.2,0c0,0,0,0,0,0.1
				c0,0,0,0,0.1,0.1c0,0,0.1,0.1,0.1,0.1c0,0,0,0,0,0.1v0l0,0c0,0,0,0.1,0,0.1c0,0,0,0,0,0.1c0,0,0,0.1,0,0.1c0,0,0,0-0.1,0
				c0,0,0,0-0.1,0c0,0-0.1,0-0.1,0c-0.1,0-0.1,0-0.1,0c-0.1,0-0.1,0-0.2,0c0,0-0.1,0-0.1-0.1c0,0,0-0.1-0.1-0.1c0,0,0,0-0.1-0.1
				c0,0,0-0.1,0-0.1v0c0,0,0-0.1,0-0.1c0,0,0-0.1,0-0.1c0,0,0,0-0.1-0.1c0,0,0,0,0-0.1c0,0,0,0,0-0.1c0,0-0.1-0.1-0.1-0.1
				c0,0-0.1,0-0.1-0.1c0,0,0,0,0-0.1c0,0,0-0.1-0.1-0.1c0,0,0,0-0.1-0.1c0,0,0-0.1,0-0.1c0,0,0,0,0-0.1v0c-0.1,0-0.1,0-0.2-0.1
				c0,0,0-0.1-0.1-0.1c0,0,0-0.1-0.1-0.1c-0.1,0-0.1,0-0.2-0.1c-0.1,0-0.1,0-0.2,0c0,0-0.1,0-0.2,0c0,0-0.1,0-0.2,0c0,0,0,0-0.1-0.1
				c0,0,0-0.1-0.1-0.1c0,0,0,0,0-0.1c0,0,0,0,0-0.1v-0.1c0,0,0-0.1,0-0.1c0,0,0,0,0-0.1c-0.1,0-0.2,0.1-0.3,0.1
				c-0.1,0-0.2,0.1-0.3,0.1c0,0,0,0.1,0,0.1c-0.1,0-0.2,0.1-0.3,0.1c-0.1,0-0.2,0-0.3,0.1c-0.1,0-0.2,0.1-0.4,0.1c0,0-0.1,0-0.2,0.1
				c-0.1,0-0.2,0.1-0.3,0.1c0,0-0.1,0-0.1,0.1c-0.1,0-0.2,0.1-0.4,0.1c0,0,0,0,0,0.1c-0.1,0-0.2,0.1-0.4,0.1c0,0,0,0,0,0.1
				c-0.1,0-0.2,0.1-0.4,0.1c0,0,0,0,0,0.1c-0.1,0-0.3,0.1-0.4,0.1c0,0-0.1,0-0.1,0.1c0,0-0.1,0.1-0.2,0.1c0,0,0,0,0,0.1
				c-0.1,0-0.3,0.1-0.4,0.1c0,0-0.1,0-0.1,0.1c-0.1,0-0.2,0.1-0.4,0.1c0,0,0,0,0,0.1c-0.1,0-0.2,0.1-0.4,0.1c0,0,0,0,0,0.1
				c-0.1,0-0.3,0.1-0.4,0.1c0,0-0.1,0-0.1,0.1c-0.1,0-0.2,0.1-0.4,0.1c0,0,0,0,0,0.1c0,0-0.1,0.1-0.2,0.1v0.1
				c-0.1,0-0.2,0.1-0.3,0.1c0,0-0.1,0-0.1,0.1c-0.1,0-0.2,0.1-0.4,0.1c0,0,0,0,0,0.1c-0.1,0-0.2,0.1-0.4,0.1c0,0,0,0,0,0.1
				c-0.1,0-0.2,0.1-0.3,0.1c0,0-0.1,0-0.1,0.1c-0.1,0-0.2,0.1-0.3,0.1c0,0-0.1,0-0.1,0.1c-0.1,0-0.2,0.1-0.3,0.1c0,0-0.1,0-0.1,0.1
				c0,0-0.1,0.1-0.2,0.1c0,0,0,0,0,0.1c-0.1,0-0.2,0.1-0.4,0.1c0,0,0,0,0,0.1c-0.1,0-0.2,0.1-0.4,0.1c0,0,0,0,0,0.1
				c-0.1,0-0.2,0.1-0.4,0.1c0,0,0,0,0,0.1c-0.2,0-0.3,0.1-0.5,0.1c0,0,0,0,0,0.1c-0.1,0-0.2,0.1-0.3,0.1c0,0-0.1,0-0.1,0.1
				c-0.1,0-0.2,0.1-0.4,0.1c0,0,0,0,0,0.1c-0.1,0-0.2,0.1-0.4,0.1c0,0,0,0,0,0.1c-0.1,0-0.2,0.1-0.4,0.1c0,0,0,0,0,0.1
				c-0.2,0-0.3,0.1-0.5,0.1c0,0,0,0,0,0.1c-0.1,0-0.2,0.1-0.4,0.1c0,0,0,0,0,0.1c-0.1,0-0.2,0.1-0.4,0.1c0,0,0,0,0,0.1
				c-0.1,0-0.2,0.1-0.4,0.1c0,0,0,0,0,0.1c-0.1,0-0.2,0.1-0.4,0.1c0,0,0,0,0,0.1c-0.1,0-0.2,0.1-0.3,0.1c0,0-0.1,0-0.1,0.1
				c-0.1,0-0.2,0.1-0.4,0.1c0,0,0,0,0,0.1C7.2,26,7.1,26,7,26.1c0,0,0,0,0,0.1c-0.2,0-0.3,0.1-0.5,0.1c0,0,0,0,0,0.1
				c-0.1,0-0.3,0.1-0.4,0.1c0,0-0.1,0-0.1,0.1c-0.1,0-0.3,0.1-0.4,0.1c0,0-0.1,0-0.1,0.1c-0.1,0-0.2,0.1-0.4,0.1c0,0,0,0,0,0.1
				c-0.1,0-0.2,0-0.3,0c0,0,0,0.1,0,0.1c0,0,0,0.1,0,0.1v0c0,0,0,0.1-0.1,0.1l0,0c0,0,0,0,0,0c0,0-0.1,0-0.1,0c0,0-0.1,0-0.1,0
				c0,0-0.1,0-0.1-0.1h0c0,0-0.1,0-0.1,0c0,0-0.1,0-0.1,0.1c0,0-0.1,0-0.1,0c0,0-0.1,0-0.2-0.1c0,0,0,0-0.1-0.1v0c0,0,0,0-0.1-0.1
				c0,0,0,0,0,0.1v0c0,0,0,0-0.1,0.1l0,0.1c0,0,0,0.1,0,0.1c0,0-0.1,0-0.1,0c0,0-0.1,0-0.2,0.1c-0.1,0-0.2,0-0.3,0
				c-0.1,0-0.1,0-0.2-0.1c0,0,0,0-0.1,0c0,0-0.1,0-0.1-0.1c0,0,0,0-0.1-0.1c0,0-0.1,0-0.2-0.1c0,0-0.1,0-0.1,0c-0.1,0-0.2,0-0.2-0.1
				c0,0-0.1,0-0.1,0c0,0,0,0-0.1-0.1c0,0-0.1-0.1-0.1-0.1c0,0,0,0,0-0.1c0,0,0-0.1,0-0.1c0,0,0,0,0-0.1c0,0,0,0,0-0.1
				c0,0,0-0.1,0-0.1v-0.1c0,0,0,0,0-0.1v-0.1c0,0,0-0.1,0-0.1c0,0,0,0,0-0.1c0,0,0,0,0-0.1c0,0,0-0.1,0-0.1c0,0,0,0,0-0.1
				c0,0,0-0.1,0-0.1c0,0,0,0,0-0.1c0,0,0,0,0-0.1c0,0,0-0.1,0-0.1v-0.1c0,0,0,0,0-0.1v-0.1c0,0,0-0.1,0-0.1c0,0,0,0,0-0.1
				c0,0,0-0.1,0-0.1c0,0,0,0,0-0.1c0,0,0,0,0-0.1c0,0,0-0.1-0.1-0.1c0,0,0,0,0-0.1c0,0,0,0,0-0.1c0,0,0-0.1,0-0.1v-0.1
				c0,0,0-0.1,0-0.1v0c0,0,0-0.1,0-0.1v-0.1c0,0,0-0.1,0-0.1c0,0,0,0,0-0.1c0,0,0,0,0-0.1c0,0,0-0.1,0-0.1c0,0,0,0,0-0.1
				c0,0,0,0,0-0.1c0,0,0-0.1,0-0.1c0,0,0,0,0-0.1s0-0.1,0-0.1c0,0,0,0,0-0.1c0,0,0,0,0-0.1v-0.1c0,0,0-0.1,0-0.1c0,0,0-0.1,0-0.1v0
				c0,0,0-0.1,0-0.1c0,0,0,0,0-0.1c0,0,0-0.1,0-0.1c0,0,0,0,0-0.1c0,0,0,0,0-0.1c0,0,0-0.1,0-0.1v-0.1c0,0,0,0,0-0.1
				c0,0,0-0.1,0-0.1c0,0,0-0.1-0.1-0.1c0,0,0-0.1,0-0.1v-0.1c0,0,0,0,0-0.1c0,0,0,0,0-0.1c0,0,0-0.1,0-0.1c0,0,0,0,0-0.1
				c0,0,0,0,0-0.1c0,0,0-0.1,0-0.1v-0.1c0,0,0-0.1,0-0.1v0c0,0,0-0.1,0-0.1c0,0,0-0.1,0-0.1v-0.1c0,0,0,0,0-0.1c0,0,0,0,0-0.1
				c0,0,0-0.1,0-0.1c0,0,0,0,0-0.1c0,0,0,0,0-0.1c0,0,0-0.1,0-0.1c0,0,0,0-0.1-0.1c0,0,0-0.1,0-0.1c0,0,0,0,0-0.1c0,0,0,0,0-0.1
				c0,0,0-0.1,0-0.1v-0.1c0,0,0-0.1,0-0.1v0c0,0,0-0.1,0-0.1c0,0,0,0,0-0.1c0,0,0-0.1,0-0.1c0,0,0,0,0-0.1c0,0,0,0,0-0.1
				c0,0,0-0.1,0-0.1c0,0,0,0,0-0.1c0,0,0,0,0-0.1v-0.1c0,0,0-0.1,0-0.1c0,0,0-0.1-0.1-0.1c0,0,0,0,0,0c0,0,0-0.1,0-0.1v-0.1
				c0,0,0-0.1,0-0.1c0,0,0,0,0-0.1c0,0,0,0,0-0.1c0,0,0-0.1,0-0.1c0,0,0,0,0-0.1s0-0.1,0-0.1v0c0,0,0-0.1,0-0.1c0,0,0-0.1,0-0.1
				v-0.1c0,0,0,0-0.1-0.1l0-0.1c0,0,0-0.1,0-0.1c0,0,0,0,0-0.1s0,0,0-0.1c0,0,0-0.1,0-0.1c0,0,0,0,0-0.1c0,0,0-0.1,0-0.1v-0.1
				c0,0,0-0.1,0-0.1c0,0,0-0.1,0-0.1v-0.1c0,0,0-0.1,0-0.1v0c0,0,0-0.1-0.1-0.1c0,0,0,0,0-0.1c0,0,0-0.1,0-0.1c0,0,0,0,0-0.1
				c0,0,0,0,0-0.1c0,0,0-0.1,0-0.1c0,0,0,0,0-0.1c0,0,0,0,0-0.1c0,0,0-0.1,0-0.1c0,0,0,0,0-0.1c0,0,0-0.1,0-0.1c0,0,0,0-0.1,0
				c0,0,0-0.1,0-0.1v-0.1c0,0,0-0.1,0-0.1c0,0,0-0.1,0-0.1v0c0,0,0-0.1,0-0.1c0,0,0,0,0-0.1c0,0,0-0.1,0-0.1c0,0,0,0,0-0.1
				c0,0,0,0,0-0.1c0,0,0-0.1,0.1-0.1c0,0,0,0,0.1,0l0,0h0c0,0,0,0,0-0.1v-0.1c0,0,0-0.1,0-0.1s0-0.1,0-0.1c0,0,0,0,0.1,0
				c0,0,0.1-0.1,0.1-0.1c0,0,0,0,0.1-0.1c0,0,0-0.1,0.1-0.1c0,0,0,0,0.1-0.1c0,0,0.1,0,0.1,0c0.1,0,0.1,0,0.2-0.1c0,0,0,0,0.1-0.1
				c0,0,0.1,0,0.1,0c0.1,0,0.1,0,0.2-0.1c0.1,0,0.2-0.1,0.2-0.1c0,0,0.1,0,0.1,0c0,0,0.1,0,0.1,0c0.1,0,0.2,0,0.3,0c0,0,0.1,0,0.1,0
				c0,0,0.1,0,0.1,0c0,0,0,0,0.1,0c0,0,0.1,0,0.2,0.1c0,0,0,0.1,0.1,0.1c0,0,0,0.1,0.1,0.1c0,0,0.1,0,0.1,0c0.1,0,0.3-0.1,0.4-0.1
				c0,0,0,0,0-0.1h0c0,0,0,0,0.1,0c0.4,0,0.7,0,1.1,0l0,0c0.5,0,1,0,1.5,0c0,0,0.1,0.1,0.1,0.1l0,0c0.1,0,0.3,0,0.4,0
				c0.2,0,0.4,0,0.5,0c0,0,0,0,0.1,0.1c0.2,0,0.5,0,0.7,0c0,0,0,0,0.1-0.1h0c0.6,0,1.2,0,1.9,0c0,0,0.1,0,0.1,0c0,0,0.1,0,0.1,0
				c0.1,0,0.1,0,0.2,0v-0.4c0.1,0,0.3,0,0.4,0c0,0,0,0,0.1,0c0.1,0,0.1,0,0.2,0c0,0,0,0,0,0v0c0.1,0,0.2,0,0.3,0h0c0,0,0,0,0,0
				c0.1,0,0.3,0,0.4,0h0c0,0,0,0,0,0c0.1,0,0.1,0,0.2,0c0,0,0,0,0.1,0c0,0,0,0,0.1,0c0.1,0,0.3,0,0.4,0c0,0,0,0,0.1,0s0,0,0.1,0
				c0.1,0,0.1,0,0.2,0c0,0,0,0,0.1,0s0,0,0.1,0h0c0,0,0,0,0.1,0c0,0,0,0,0.1,0c0.1,0,0.3,0,0.4,0c0.1,0,0.3,0,0.4,0c0,0,0,0,0.1,0
				c0,0,0,0,0,0c0.1,0,0.3,0,0.4,0c0,0,0,0,0.1,0v0c0.3,0,0.5,0,0.8,0c0,0,0.1,0,0.1,0c0,0,0,0,0,0c0.2,0,0.4,0,0.5,0c0,0,0,0,0.1,0
				h0l0,0c0,0,0,0,0.1,0h0.1c0.1,0,0.3,0,0.4,0c0,0,0.1,0,0.1,0c0,0,0.1,0,0.1,0c0,0,0.1,0,0.1,0c0,0,0.1,0,0.1,0c0,0,0.1,0,0.1,0
				c0,0,0.1,0,0.1,0c0,0,0.1,0,0.1,0c0,0,0.1,0,0.1,0c0.2,0,0.4,0,0.6,0c0,0,0,0,0.1,0c0,0,0,0,0.1,0s0,0,0,0c0,0,0,0,0.1,0
				c0,0,0,0,0.1,0c0,0,0,0,0.1,0c0,0,0,0,0,0c0,0,0.1,0,0.2,0c0,0,0.1,0,0.1,0c0,0,0.1,0,0.1,0c0.1,0,0.1,0,0.2,0s0.1,0,0.2,0
				c0,0,0.1,0,0.1,0c0,0,0.1,0,0.1,0c0,0,0.1,0,0.1,0c0,0,0.1,0,0.1,0c0,0,0,0,0.1,0s0,0,0.1,0c0,0,0,0,0.1,0c0,0,0,0,0.1,0
				s0,0,0.1,0c0,0,0,0,0.1,0c0,0,0,0,0.1,0c0,0,0.1,0,0.1,0c0,0,0.1,0,0.1,0c0,0,0.1,0,0.1,0c0,0,0.1,0,0.2,0c0,0,0.1,0,0.1,0
				s0.1,0,0.1,0c0,0,0.1,0,0.1,0s0.1,0,0.1,0c0.2,0,0.4,0,0.6,0c0,0,0,0,0.1,0h0c0,0,0,0,0.1,0h0c0,0,0,0,0.1,0h0l0,0
				c0,0,0.1,0,0.1,0c0,0,0.1,0,0.1,0c0,0,0.1,0,0.1,0c0,0,0.1,0,0.1,0c0,0,0.1,0,0.1,0c0.1,0,0.2,0,0.3,0v0c0,0,0.1,0,0.1,0v0.2l0,0
				v0l0,0v0c0,0,0.1,0,0.1,0c0.1,0,0.1,0,0.2,0c0,0,0,0,0.1,0v0c0.1,0,0.1,0,0.2,0c0.1,0,0.2,0,0.3,0c0.1,0,0.3,0,0.4,0
				c0.1,0,0.1,0,0.2,0c0,0,0,0,0.1,0l0,0c0,0,0.1,0,0.1,0c0,0,0,0,0.1,0c0,0,0.1,0,0.1,0c0,0,0.1,0,0.1,0c0,0,0.1,0,0.1,0v0
				c0,0,0.1,0,0.1,0c0,0,0,0,0,0c0,0,0.1,0,0.1,0c0,0,0.1,0,0.1,0c0,0,0,0,0.1,0h0c0,0,0,0,0,0v0c0,0,0.1,0,0.1,0c0,0,0,0,0,0
				c0,0,0.1,0,0.1,0c0,0,0.1,0,0.1,0c0,0,0.1,0,0.1,0v0c0,0,0.1,0,0.1,0v0c0,0,0,0,0.1,0c0.1,0,0.1,0,0.2,0c0,0,0.1,0,0.1,0v0
				c0,0,0,0,0.1,0v0c0.1,0,0.1,0,0.2,0c0,0,0.1,0,0.1,0c0,0,0.1,0,0.1,0l0,0c0,0,0.1,0,0.1,0v0c0.1,0,0.1,0,0.2,0c0,0,0.1,0,0.1,0
				c0,0,0,0,0.1,0v0c0,0,0.1,0,0.1,0c0,0,0,0,0,0c0,0,0.1,0,0.1,0c0,0,0,0,0.1,0c0,0,0,0,0.1,0l0,0c0,0,0.1,0,0.1,0c0,0,0,0,0.1,0h0
				c0,0,0.1,0,0.1,0c0,0,0,0,0.1,0l0,0c0,0,0.1,0,0.1,0v0c0,0,0.1,0,0.1,0c0,0,0,0,0.1,0c0,0,0.1,0,0.1,0l0,0c0,0,0,0,0.1,0
				c0,0,0,0,0.1,0h0c0,0,0.1,0,0.1,0c0,0,0,0,0.1,0v0c0,0,0.1,0,0.1,0v0c0,0,0,0,0.1,0c0,0,0,0,0.1,0l0,0h0c0,0,0.1,0,0.1,0v0
				c0,0,0,0,0.1,0v0c0,0,0.1,0,0.1,0c0,0,0,0,0.1,0c0,0,0.1,0,0.1,0v0c0,0,0,0,0.1,0c0,0,0,0,0.1,0c0,0,0,0,0.1,0c0,0,0.1,0,0.1,0
				c0,0,0,0,0.1,0v0c0,0,0.1,0,0.1,0v0c0,0,0.1,0,0.1,0c0,0,0,0,0.1,0c0,0,0.1,0,0.1,0v0c0,0,0.1,0,0.1,0v0c0,0,0,0,0.1,0
				c0,0,0.1,0,0.1,0c0,0,0,0,0.1,0l0,0c0,0,0,0,0.1,0v0c0,0,0.1,0,0.1,0c0,0,0,0,0.1,0c0.1,0,0.1,0,0.1,0v0c0,0,0,0,0.1,0v0
				c0,0,0.1,0,0.1,0c0,0,0.1,0,0.1,0c0,0,0,0,0.1,0v0c0,0,0,0,0.1,0c0,0,0,0,0.1,0c0,0,0,0,0.1,0c0,0,0.1,0,0.1,0c0,0,0,0,0.1,0l0,0
				c0,0,0.1,0,0.1,0v0c0,0,0.1,0,0.1,0c0,0,0,0,0.1,0c0,0,0.1,0,0.1,0v0c0,0,0,0,0,0v0c0,0,0.1,0,0.1,0c0,0,0,0,0.1,0
				c0,0,0.1,0,0.1,0v0c0,0,0,0,0.1,0v0c0,0,0.1,0,0.1,0l0,0c0,0,0.1,0,0.1,0v0c0,0,0,0,0.1,0c0,0,0,0,0.1,0v0c0,0,0,0,0.1,0
				c0,0,0.1,0,0.1,0v0c0,0,0,0,0.1,0c0,0,0,0,0.1,0h0c0,0,0.1,0,0.1,0c0,0,0,0,0.1,0v0c0,0,0.1,0,0.1,0v0c0,0,0,0,0.1,0
				c0,0,0.1,0,0.1,0l0,0v0c0,0,0,0,0.1,0c0,0,0,0,0.1,0h0l0,0c0,0,0.1,0,0.1,0v0c0,0,0,0,0.1,0v0c0,0,0.1,0,0.1,0l0,0c0,0,0,0,0.1,0
				l0,0c0,0,0,0,0.1,0v0c0,0,0.1,0,0.1,0c0,0,0,0,0,0c0,0,0,0,0,0v0c0,0,0,0,0,0v0c0,0,0.1,0,0.1,0v0c0,0,0,0,0.1,0V7
				c0.1,0,0.2,0,0.4,0V6.6c0.4,0,0.8,0,1.2,0v0c0.2,0,0.4,0,0.5,0c0,0,0,0,0.1,0V7c0.1,0,0.2,0,0.3,0v0c0.1,0,0.3,0,0.4,0v0
				c0,0,0,0,0,0v0.4c2.2,0,4.4,0,6.5,0c0,0,0,0,0,0.1c0.1,0,0.1,0,0.2,0c0,0,0,0-0.1,0v0c0.1,0,0.3,0,0.4,0v0l0,0c0.7,0,1.5,0,2.2,0
				v0c0.2,0,0.3,0,0.5,0v0c0,0,0.1,0,0.1,0v0c0.1,0,0.3,0,0.4,0v0c0.1,0,0.2,0,0.3,0v0c0.1,0,0.3,0,0.4,0v0c0.4,0,0.8,0,1.3,0v0
				c0.1,0,0.3,0,0.4,0v0c0.1,0,0.2,0,0.3,0v0c0.3,0,0.6,0,0.9,0v0c0.1,0,0.3,0,0.4,0c0,0,0,0.1,0,0.1c0,0,0,0.1,0.1,0.1
				c0.4,0,0.8,0,1.3,0c0,0,0,0.1,0,0.1v0.1c0,0,0,0,0.1,0C56,8,56.1,8,56.1,8v0l0,0c0,0,0.1,0,0.1,0c12.5,0,24.9,0,37.4,0
				c0,0,0,0-0.1-0.1c0,0,0-0.1,0-0.1v0c0.3,0,0.6,0,0.9,0c0,0,0,0,0.1,0.1c0.2,0,0.3,0,0.5,0c0,0,0,0,0-0.1c0-0.1,0-0.2,0-0.3
				c0,0,0-0.1,0-0.1s0-0.1,0-0.1c0,0,0-0.1,0-0.1c0.1,0,0.1-0.1,0.2-0.1c0,0,0,0,0-0.1v0c0.8,0,1.6,0,2.4,0
				C97.7,7.1,97.7,7.1,97.7,7.2z M35.1,14.2c0,0-0.1,0-0.1,0C35,14.2,35,14.2,35.1,14.2L35.1,14.2z M36.7,15.3
				C36.6,15.3,36.6,15.4,36.7,15.3C36.6,15.4,36.6,15.4,36.7,15.3l0,0.8c0,0,0,0,0.1,0v0.1c0,0,0,0,0.1,0c0,0,0,0,0,0v0c0,0,0,0,0,0
				v0c0,0,0,0,0,0c0,0,0.1,0,0.1,0v0.1h0c0,0,0,0,0.1,0c0,0,0.1,0,0.1,0v0c0,0,0,0,0,0c0,0,0.1,0,0.1,0v0c0,0,0,0,0.1,0
				c0,0,0.1,0,0.1,0c0,0,0.1,0,0.2,0c0.2,0,0.5,0,0.7,0c0.1,0,0.1,0,0.2,0v-0.1c0,0,0.1,0,0.1,0c0.1,0,0.2,0,0.4,0c0,0,0,0,0.1,0
				c0,0,0.1,0,0.1,0v0c0,0,0,0,0,0v0c0,0,0.1,0,0.1,0V15c-0.9,0-1.9,0-2.8,0L36.7,15.3L36.7,15.3z M40.1,14.5c-0.3,0-0.6,0-0.9,0
				C39.5,14.5,39.8,14.5,40.1,14.5L40.1,14.5z M1,14.7C1,14.8,0.9,14.8,1,14.7L1,14.7c-0.1,0.1-0.1,0.1-0.1,0.1v0
				C0.9,14.9,0.9,14.8,1,14.7c0.1,0,0.1,0,0.1-0.1v0C1.1,14.7,1.1,14.7,1,14.7C1,14.7,1,14.7,1,14.7z M1.2,14.5
				C1.2,14.5,1.2,14.5,1.2,14.5c0.1-0.1,0.1-0.1,0.1-0.1C1.2,14.4,1.2,14.4,1.2,14.5L1.2,14.5z M1.5,14.2
				C1.5,14.2,1.5,14.2,1.5,14.2L1.5,14.2c-0.1,0-0.1,0-0.2,0c0,0,0,0-0.1,0.1c0,0,0.1,0,0.1,0v-0.1C1.4,14.3,1.5,14.2,1.5,14.2z
				 M1.2,17.4C1.2,17.4,1.2,17.5,1.2,17.4L1.2,17.4L1.2,17.4z M3.4,26.9c0,0,0,0.1,0.1,0.1c0,0,0,0,0,0.1v0c0,0,0-0.1,0-0.1
				c0,0,0,0,0-0.1c0,0,0,0,0,0C3.5,26.9,3.4,26.9,3.4,26.9C3.3,26.9,3.4,26.9,3.4,26.9z"/>
		</g>
	</g>
</g>
<g id="guides">
</g>
<path fill="#FFFFFF" d="M104.2,20.2c0,0,0.2,2.6,2.7,4.1c0.5,0.3,1.3,0.8,1.7,1c1.9,1.2,2.9,0.9,4.1,0.8c2.3-0.2,6.9-3,7.4-5.6
	c0.5-2.6-0.8-5-2.4-5.4c-1.6-0.4-3.1,0.3-3.5,1.8c-0.5,1.5,1,2.2,1,2.2c-1.6,0.3-2.2-1.3-1.8-2.7c0.3-1.4,1.8-3.1,4.7-2.5
	c2.9,0.7,3.4,3.3,3.4,3.3c1-1.8,3.3-2.8,6-1.8c2.7,1,1.8,3.2,1.8,3.2c-0.1-1.6-1.4-2.3-3.3-2.7c-1.8-0.3-3.6,0.5-4.2,3.2
	c-0.5,2.7,0.8,6.2,3.8,7c3.1,0.8,7.7-0.1,9.5-3.6c1.8-3.5,1.8-9.8-2.9-13.2c-4.7-3.4-9.3,0.1-9.3,0.1s-0.4-3.8-5.4-4
	c-5-0.3-5.7,5.3-5.7,5.3c-0.5-2.7-5.2,0.3-6.6,2.7c-1,1.7-1.6,4.3-1,6.1C104.1,19.7,104.1,20.1,104.2,20.2z"/>
</svg>
