<?xml version="1.0" encoding="utf-8"?>
<!-- Generator: Adobe Illustrator 21.0.2, SVG Export Plug-In . SVG Version: 6.00 Build 0)  -->
<svg version="1.1" id="Слой_1" xmlns="http://www.w3.org/2000/svg" xmlns:xlink="http://www.w3.org/1999/xlink" x="0px" y="0px"
	 width="75.1px" height="32px" viewBox="0 0 75.1 32" enable-background="new 0 0 75.1 32" xml:space="preserve">
<g id="Selected_Items">
	<g>
		<g id="Selected_Items_13_">
			<path fill="#FFFFFF" d="M37.2,10.7c-0.1,0.2-0.3,0.4-0.6,0.4c-0.4,0-3.5,0.1-9.1,0.1c-0.2,0-0.4,0-0.6,0.1
				c-0.4,0.1-0.6,0.3-0.7,0.6c-0.1,0.2-0.1,0.7,0,1.4c0,0.4,0.1,0.9,0.2,1.6c0,0.4,0.1,0.7,0.2,1.1c0,0.2-0.2,0.3-0.5,0.4
				c-0.7,0.1-1.3,0.3-1.9,0.3c-1,0.1-2.1,0.2-3.3,0.3c-1.8,0-3.9,0-6.1-0.2c-1.9,5.2-2.9,7.9-2.9,8.2c0,0.4,0.1,1.5,0.2,3.5
				c0.4,0.3,0.8,0.6,1.1,0.7c0.2,0.1,0.3,0.2,0.3,0.4c0,0.1,0,0.1-0.1,0.2L13,30c-0.3,0.1-0.7,0.1-1.1,0c-0.6-0.1-4.4-0.9-11.4-2.3
				c-0.4-0.1-0.4-1,0-3c0.1-0.8,0.5-2,1-3.5c0.6-1.6,1.1-2.8,1.6-3.7c0.5-0.9,0.9-1.9,1.2-3c0.4-1.1,0.5-1.8,0.4-2.3
				c-0.1-0.3-0.5-0.7-1.3-1.2c-0.6-0.3-1.2-0.5-1.7-0.7c-0.3,0-0.5-0.2-0.7-0.4C1,9.9,0.9,9.8,0.7,9.6C0.6,9.5,0.6,9.1,0.6,8.6
				c0-0.2,0-0.6,0-1.1c0-0.8,0.1-1.3,0.2-1.4c0.6-1,1-1.7,1.3-2.2C2.3,3.5,2.6,3.2,2.8,3c0.3-0.3,0.5-0.4,0.7-0.4c0.2,0,0.4,0,0.7,0
				l0.4,0C4.9,2.3,5,2.1,5.1,2s0.6-0.1,1.3,0.1l0.2,0.5H19V3h5.3V2.6l12.3,0L37,2.8c0.2,0.1,0.4,0.3,0.4,0.5
				c0.1,1.2,0.1,2.3,0.2,3.3c0.1,2,0,3.1,0,3.3C37.3,10.4,37.2,10.7,37.2,10.7z M24.4,11.8c-0.1-0.1-0.3-0.1-0.4-0.1v0.1l-4,0
				c-0.2,0.6-0.1,1,0.2,1.4c0.4,0.6,0.7,1,0.9,1.2c0.2,0.2,0.5,0.3,0.9,0.4c0.3,0,0.4,0.1,0.4,0.2c0,0.1-0.1,0.2-0.4,0.2
				c-0.1,0-0.3,0-0.6,0c-0.3-0.1-0.7-0.3-1.1-0.6c-0.6-0.5-1-1-1.2-1.3C19,12.9,19,12.4,19,11.8l-0.8,0c-0.5,0-0.9,0.2-1.3,0.6
				c-0.3,0.4-0.4,0.8-0.4,1.3c0,0.3,0,0.7,0,1.2c0.1,0.4,0.4,0.6,0.9,0.9c0.8,0.3,1.5,0.4,2.2,0.4c0.8-0.1,1.5-0.2,2-0.2
				c0.2,0,0.7,0,1.3,0c0.6,0.1,1.1,0.1,1.3,0.1c0.4,0,0.6,0,0.8-0.1c0.1-0.1,0.2-0.2,0.4-0.4c0.1-0.2,0.1-0.7,0.1-1.4
				c0-0.7-0.1-1.3-0.4-1.7C24.9,12.1,24.7,11.9,24.4,11.8z"/>
		</g>
	</g>
</g>
<g id="guides">
</g>
<g id="Flash_2_">
	<path fill="#FFFFFF" d="M65.1,12.3c0,2.2-0.8,4.2-2.4,5.8c-1.6,1.6-3.5,2.4-5.8,2.4c-2.2,0-4.2-0.8-5.8-2.4
		c-1.6-1.6-2.4-3.5-2.4-5.8c0-0.6,0.1-1.1,0.2-1.7c0.2-0.1,0.4-0.1,0.6-0.3c0.8-0.4,1.5-0.8,2.3-1.1c0.1,0,0.3-0.1,0.4-0.2
		c-0.7,1-1.1,2.1-1,3.4c0,1.6,0.6,3,1.7,4.1c1.1,1.1,2.5,1.7,4.1,1.7c1.6,0,3-0.6,4.1-1.7c1.1-1.1,1.7-2.5,1.7-4.1
		c0-1.6-0.5-2.9-1.6-4.1c0.7,0.2,1.4,0.4,2.1,0.8c0,0,0,0,0,0c0.4,0.2,0.8,0.4,1.2,0.5C64.9,10.5,65.1,11.4,65.1,12.3z"/>
	<path fill="#FFFFFF" d="M72.9,19.3c-0.7-1.1-1.5-2.2-2.4-3.2c-0.2,0.2-0.4,0.4-0.6,0.6c-3.8,3.8-8.4,5.7-13.8,5.7
		c-5.4,0-10-1.9-13.9-5.7l-0.1,0.1c0.7,1.1,1.6,2.1,2.5,3.1c3.8,3.8,8.4,5.7,13.9,5.7s10-1.9,13.8-5.7
		C72.5,19.7,72.7,19.5,72.9,19.3L72.9,19.3z"/>
	<path fill="#FFFFFF" d="M70.4,16.2c0.9,1,1.7,2.1,2.4,3.2c0.7-0.7,1.3-1.4,1.8-2.1c-0.6-1-1-1.6-2.4-3.2
		C71.7,14.7,71.1,15.4,70.4,16.2L70.4,16.2z"/>
	<polygon fill="#FF0000" points="61.2,13.9 58.8,15.1 58.4,17.7 56.6,15.8 54,16.2 55.2,13.9 54,11.6 56.6,12 58.4,10.1 58.8,12.7 	
		"/>
	<path fill="#FFFFFF" d="M69.9,15.6c0.2,0.2,0.4,0.4,0.6,0.6c0.6-0.7,1.2-1.4,1.8-2.2c-0.2-0.2-0.4-0.4-0.6-0.6
		c-3.8-3.8-8.4-5.7-13.8-5.7c-5.4,0-10,1.9-13.9,5.7c-0.8,0.9-1.6,1.8-2.3,2.7l0.1,0.1c0.1-0.2,0.3-0.4,0.5-0.5
		C46,11.7,50.6,9.8,56,9.8S66.1,11.7,69.9,15.6L69.9,15.6z"/>
</g>
</svg>
