<?xml version="1.0" encoding="utf-8"?>
<!-- Generator: Adobe Illustrator 21.0.2, SVG Export Plug-In . SVG Version: 6.00 Build 0)  -->
<svg version="1.1" id="Слой_1" xmlns="http://www.w3.org/2000/svg" xmlns:xlink="http://www.w3.org/1999/xlink" x="0px" y="0px"
	 width="74.8px" height="32px" viewBox="0 0 74.8 32" enable-background="new 0 0 74.8 32" xml:space="preserve">
<g id="Selected_Items">
	<g>
		<g id="Selected_Items_41_">
			<path fill="#FFFFFF" d="M37.1,2.5L37.1,2.5c0,0.1,0,0.1,0,0.2c0,0.1,0,0.1,0,0.1c0,0,0,0.1,0,0.1c0.1,0,0.3,0,0.4,0
				c0,0,0,0.1,0,0.1c0,0.2,0,0.3,0,0.5c0,0.1,0,0.3,0,0.4c0,0.2,0,0.3,0,0.5c0,0.1,0,0.3,0,0.4c0,0.2,0,0.3,0,0.5c0,0.1,0,0.3,0,0.4
				c0,0.2,0,0.3,0,0.5c0,0.1,0,0.3,0,0.4c0,0.2,0,0.3,0,0.5c0,0.1,0,0.3,0,0.4c0,0.2,0,0.3,0,0.5s0,0.3,0,0.4c0,0.2,0,0.3,0,0.5
				s0,0.3,0,0.4c0,0.2,0,0.3,0,0.4c0,0.1,0,0.2,0,0.3c0,0.1,0,0.1,0,0.1s0,0.1,0,0.1v0.3c0,0.1,0,0.1,0,0.1c0,0.1,0,0.1,0,0.1v0.1
				c0,0,0,0.1,0,0.1c0,0,0,0.1,0,0.1V11c0,0,0,0.1,0,0.1v0c0,0,0,0.1,0,0.1c-3.4,0-6.7,0-10.1,0l0,0v0c0,0,0,0.1,0,0.1
				c0,0-0.1,0-0.1,0c-0.1,0-0.1,0.1-0.1,0.1l0,0v0c0,0-0.1,0-0.1,0c0,0,0,0.1,0,0.1h0c0,0-0.1,0.1-0.1,0.1c0,0,0,0,0,0v0
				c0,0-0.1,0-0.1,0c0,0-0.1,0-0.1,0c0,0.1,0,0.1,0,0.2c0,0.1,0,0.2,0,0.4c0,0.1,0,0.2,0,0.4c0,0.1,0,0.3,0,0.4c0,0.1,0,0.3,0,0.4
				c0,0.1,0,0.3,0,0.4c0,0.1,0,0.3,0,0.4c0,0.1,0,0.3,0,0.4c0,0.1,0,0.2,0,0.4c0,0.1,0,0.2,0,0.4c0,0.1,0,0.2,0,0.4c0,0,0,0.1,0,0.1
				c0.1,0,0.2,0,0.2,0c0,0,0,0.1,0,0.1v0.1c0,0,0,0.1,0,0.1c0,0,0,0.1,0,0.1v0c0,0,0,0.1,0,0.1v0.1c0,0,0,0.1,0,0.1v0.1h0v0
				c0,0,0,0.1,0,0.1v0.1c0,0,0,0.1,0,0.1v0c0,0,0,0.1,0,0.1c0,0,0,0.1,0,0.1c-4.1,0-8.2,0-12.4,0c0,0.1,0,0.1,0,0.1
				c0,0.1,0,0.1,0,0.1c0,0,0,0.1,0,0.1c0,0.1-0.1,0.1-0.1,0.1c0,0,0,0.1,0,0.1c0,0,0,0.1,0,0.1V18c0,0,0,0.1,0,0.1
				c0,0.1,0,0.1,0,0.1c0,0.1,0,0.1,0,0.1c0,0,0,0.1,0,0.1c-0.1,0-0.1,0.1-0.1,0.1c0,0,0,0.1,0,0.1c0,0,0,0.1,0,0.1c0,0,0,0.1,0,0.1
				c0,0,0,0.1,0,0.1c0,0.1,0,0.1,0,0.1c0,0.1,0,0.1,0,0.1c-0.1,0-0.1,0.1-0.1,0.1c0,0,0,0.1,0,0.1c0,0,0,0.1,0,0.1c0,0,0,0.1,0,0.1
				s0,0.1,0,0.1c0,0.1,0,0.1,0,0.1c0,0.1,0,0.1,0,0.1c-0.1,0-0.1,0.1-0.2,0.1c0,0,0,0.1,0,0.1s0,0.1,0,0.1c0,0,0,0.1,0,0.1
				c0,0,0,0.1,0,0.1s0,0.1,0,0.1c0,0-0.1,0-0.1,0.1c0,0,0,0.1,0,0.1s0,0.1,0,0.1c0,0,0,0.1,0,0.1c0,0,0,0.1,0,0.1c0,0,0,0.1,0,0.1
				c0,0.1-0.1,0.1-0.1,0.1c0,0.1,0,0.1,0,0.1c0,0,0,0.1,0,0.1c0,0,0,0,0,0.1c0,0-0.1,0.1-0.1,0.1c0,0,0,0.1,0,0.1c0,0.1,0,0.1,0,0.1
				c0,0,0,0.1,0,0.1c0,0.1-0.1,0.1-0.1,0.1c0,0.1,0,0.1,0,0.1s0,0.1,0,0.1c0,0,0,0,0,0.1c0,0-0.1,0.1-0.1,0.1c0,0,0,0.1,0,0.1
				c0,0.1,0,0.1,0,0.1s0,0.1,0,0.1c-0.1,0-0.1,0-0.2,0.1c0,0,0,0,0,0.1c0,0-0.1,0.1-0.1,0.1c0,0,0,0.1,0,0.1c0,0.1,0,0.1,0,0.1
				c0,0,0,0.1,0,0.1v0.1c-0.1,0-0.1,0.1-0.2,0.1c0,0,0,0.1,0,0.1c0,0.1,0,0.1,0,0.1c0,0,0,0.1,0,0.1c0,0-0.1,0.1-0.1,0.1v0.1
				c0,0,0,0.1,0,0.1c0,0.1,0,0.1,0,0.1c-0.1,0.1-0.1,0.1-0.2,0.1c0,0,0,0.1,0,0.1c0,0.1,0,0.1,0,0.1c0,0,0,0.1,0,0.1
				c0,0,0,0.1,0,0.1c-0.1,0-0.1,0-0.1,0.1c0,0,0,0.1,0,0.1c0,0.1,0,0.1,0,0.1c0,0.1,0,0.1,0,0.1v0c-0.1,0-0.1,0.1-0.2,0.1v0.1
				c0,0,0,0.1,0,0.1c0,0.1,0,0.1,0,0.1c0,0.1,0,0.1,0,0.1v0c0,0-0.1,0.1-0.1,0.1c0,0,0,0.1,0,0.1c0,0,0,0.1,0,0.1c0,0.1,0,0.1,0,0.1
				c0,0.1,0,0.1,0,0.1c0,0,0,0.1,0,0.1c0,0,0,0.1,0,0.1v0c-0.1,0-0.1,0.1-0.2,0.1c0,0,0,0.1,0,0.1c0,0,0,0.1,0,0.1c0,0,0,0.1,0,0.1
				c0,0,0,0.1,0,0.1c0,0,0,0.1,0,0.1c0,0.1,0,0.1,0,0.1c0,0.1,0,0.1,0,0.1s0,0.1,0,0.1c0,0,0,0.1,0,0.1c0,0,0,0.1,0,0.1
				c0,0,0,0.1,0,0.1c0,0,0,0.1,0,0.1c0,0,0,0.1,0,0.1v0.1h0c0,0,0,0,0,0v0.2l0,0v0.1c0,0,0,0,0,0v0c0,0,0,0,0,0v0c0,0,0,0,0,0v0l0,0
				v0.2c0,0,0.1,0,0.1,0v0l0,0v0h0v0c0,0,0,0,0,0h0v0c0,0,0,0,0,0v0c0,0,0.1,0,0.1,0v0c0,0,0.1,0,0.1,0c0,0,0.1,0,0.1,0v0
				c0,0,0,0,0,0h0.1c0.1,0,0.1,0,0.1,0v0h0v0c0.1,0,0.1,0,0.1,0v0c0,0,0.1,0,0.1,0c0,0,0,0,0,0v0.3c-0.2,0-0.4,0-0.5,0
				c-0.1,0-0.2,0-0.3,0v0c0,0-0.1,0-0.1,0l0,0c-0.2,0-0.3,0-0.5,0c-0.1,0-0.2,0-0.3,0c-0.3,0-0.7,0-1,0c-0.1,0-0.2,0-0.2,0v-0.1h0
				c-0.1,0-0.2,0-0.3,0c-0.1,0-0.1,0-0.2,0V30c-0.1,0-0.2,0-0.4,0c-0.1,0-0.3,0-0.4,0v-0.1c-0.1,0-0.2,0-0.4,0s-0.3,0-0.4,0v0h0
				c-0.1,0-0.1,0-0.1,0H7.8c-0.3,0-0.7,0-1,0c0,0,0-0.1,0-0.1c-0.3,0-0.6-0.1-0.9-0.1c0,0-0.1,0-0.1-0.1c-0.2,0-0.3,0-0.5,0
				c0,0-0.1-0.1-0.1-0.1c-0.2,0-0.3-0.1-0.5-0.1c0,0-0.1,0-0.1-0.1c-0.2,0-0.3,0-0.5,0c0,0-0.1-0.1-0.1-0.1C3.9,29,3.7,29,3.6,29
				v-0.1c-0.1,0-0.2,0-0.3,0c0,0-0.1-0.1-0.1-0.1c-0.1,0-0.1-0.1-0.2-0.1c-0.1,0-0.2,0-0.3,0c0,0,0-0.1,0-0.1c0-0.1,0-0.1,0-0.1
				c0,0,0-0.1,0-0.1c0-0.1,0-0.1,0-0.1s0-0.1,0-0.1v-0.1c-0.8,0-1.6,0-2.3,0v0c0,0,0-0.1,0-0.1v-0.1c0,0-0.1,0-0.2,0
				c0-0.1,0-0.1,0-0.1c0-0.1,0-0.1,0-0.1c0,0,0-0.1,0-0.1c0-0.1,0-0.1,0-0.1c0,0,0-0.1,0-0.1c0,0,0-0.1,0-0.1c0,0,0-0.1,0-0.1
				c0,0,0-0.1,0-0.1c0-0.1,0-0.1,0-0.1c0-0.1,0-0.1,0-0.1c0,0,0-0.1,0-0.1c0,0,0-0.1,0-0.1c0,0,0-0.1,0-0.1c0,0,0-0.1,0-0.1
				c0-0.1,0-0.1,0-0.1c0,0,0-0.1,0-0.1c0-0.1,0-0.1,0-0.1c0-0.1,0-0.1,0-0.1c0,0,0-0.1,0-0.1c0,0,0-0.1,0-0.1c0,0,0-0.1,0-0.1
				c0,0,0-0.1,0-0.1v-0.1c0-0.1,0-0.1,0-0.1c0,0,0-0.1,0-0.1v0c0.1,0,0.1,0,0.2,0c0-0.1,0-0.1,0-0.1c0-0.1,0-0.1,0-0.1
				c0,0,0-0.1,0-0.1c0,0,0-0.1,0-0.1c0,0,0-0.1,0-0.1c0,0,0-0.1,0-0.1c0,0,0-0.1,0-0.1c0-0.1,0.1-0.1,0.1-0.1c0-0.1,0-0.1,0-0.1
				c0-0.1,0-0.1,0-0.1c0,0,0-0.1,0-0.1c0,0,0-0.1,0-0.1c0,0,0-0.1,0-0.1c0.1,0,0.1,0,0.2,0c0-0.1,0-0.1,0-0.1c0-0.1,0-0.1,0-0.1
				s0-0.1,0-0.1c0,0,0-0.1,0-0.1c0,0,0-0.1,0-0.1c0,0,0-0.1,0-0.1c0-0.1,0-0.1,0-0.1c0.1-0.1,0.1-0.1,0.1-0.1c0-0.1,0-0.1,0-0.1
				c0,0,0-0.1,0-0.1c0,0,0-0.1,0-0.1c0,0,0-0.1,0-0.1c0,0,0-0.1,0-0.1c0.1,0,0.1,0,0.2,0C1,22.1,1,22,1,22c0,0,0-0.1,0-0.1
				c0,0,0-0.1,0-0.1c0,0,0-0.1,0-0.1c0,0,0-0.1,0-0.1c0.1,0,0.1,0,0.1,0c0-0.1,0-0.1,0-0.1c0,0,0-0.1,0-0.1c0,0,0-0.1,0-0.1
				c0.1,0,0.1-0.1,0.2-0.1c0,0,0-0.1,0-0.1c0-0.1,0-0.1,0-0.1c0-0.1,0-0.1,0-0.1c0.1,0,0.1-0.1,0.1-0.1c0-0.1,0-0.1,0-0.1
				c0,0,0-0.1,0-0.1c0.1,0,0.1-0.1,0.1-0.1c0,0,0-0.1,0-0.1c0,0,0-0.1,0-0.1c0.1,0,0.1,0,0.1,0c0-0.1,0-0.1,0-0.1s0-0.1,0-0.1
				c0.1,0,0.1-0.1,0.1-0.1c0,0,0-0.1,0-0.1c0,0,0-0.1,0-0.1s0-0.1,0-0.1v0c0.1,0,0.1-0.1,0.1-0.1c0,0,0-0.1,0-0.1c0-0.1,0-0.1,0-0.1
				c0-0.1,0-0.1,0-0.1C2,19,2.1,19,2.1,18.9c0,0,0-0.1,0-0.1c0,0,0-0.1,0-0.1c0,0,0.1-0.1,0.1-0.1c0-0.1,0-0.1,0-0.1
				c0,0,0-0.1,0-0.1c0-0.1,0.1-0.1,0.1-0.1c0-0.1,0-0.1,0-0.1c0,0,0.1-0.1,0.1-0.1c0,0,0-0.1,0-0.1c0,0,0-0.1,0-0.1c0,0,0-0.1,0-0.1
				c0.1-0.1,0.1-0.1,0.2-0.1c0-0.1,0-0.1,0-0.1c0-0.1,0-0.1,0-0.1c0,0,0.1-0.1,0.1-0.1c0,0,0-0.1,0-0.1c0,0,0-0.1,0-0.1
				c0,0,0-0.1,0-0.1c0.1,0,0.1-0.1,0.1-0.1c0-0.1,0-0.1,0-0.1v-0.1c0.1,0,0.1-0.1,0.1-0.1c0,0,0-0.1,0-0.1v-0.1
				c0.1,0,0.1-0.1,0.2-0.1c0,0,0-0.1,0-0.1c0.1,0,0.1-0.1,0.1-0.1c0-0.1,0-0.1,0-0.1c0-0.1,0.1-0.1,0.1-0.1c0-0.1,0.1-0.1,0.1-0.1
				c0-0.1,0-0.1,0-0.1c0,0,0-0.1,0-0.1c0,0,0-0.1,0.1-0.1c0,0,0-0.1,0-0.1c0,0,0-0.1,0-0.1c0.1-0.1,0.1-0.1,0.1-0.1
				c0-0.1,0-0.1,0-0.1c0-0.1,0-0.1,0-0.1c0.1,0,0.1-0.1,0.1-0.1c0,0,0-0.1,0-0.1c0,0,0-0.1,0-0.1c0,0,0-0.1,0-0.1c0.1,0,0.1,0,0.2,0
				c0-0.1,0-0.1,0-0.1s0-0.1,0-0.1c0,0,0-0.1,0-0.1C4.2,14,4.3,14,4.3,14c0,0,0-0.1,0-0.1c0,0,0-0.1,0-0.1c0-0.1,0-0.1,0-0.1
				c0,0,0-0.1,0-0.1c0-0.1,0-0.1,0-0.1s0-0.1,0-0.1v0c0.1,0,0.1,0,0.2,0c0-0.1,0-0.1,0-0.1c0,0,0-0.1,0-0.1v-0.1c-0.1,0-0.1,0-0.2,0
				c0,0,0-0.1,0-0.1v0c0,0,0-0.1,0-0.1c-0.1,0-0.1,0-0.2,0c0,0-0.1-0.1-0.1-0.1c0,0,0-0.1,0-0.1c0,0,0-0.1,0-0.1
				c-0.1,0-0.2-0.1-0.2-0.1c0,0,0-0.1,0-0.1C3.6,12,3.6,12,3.5,12c0,0-0.1-0.1-0.1-0.1v-0.1c-0.1,0-0.1-0.1-0.2-0.1
				c0,0-0.1-0.1-0.1-0.1c-0.1,0-0.1,0-0.2,0c0,0,0-0.1,0-0.1c-0.1,0-0.1-0.1-0.2-0.1c0,0,0-0.1,0-0.1c-0.1,0-0.2,0-0.3,0
				c0,0,0-0.1,0-0.1c-0.1,0-0.1-0.1-0.2-0.1c0,0-0.1-0.1-0.1-0.1c-0.1,0-0.1,0-0.2,0c0,0,0-0.1,0-0.1c-0.2,0-0.3-0.1-0.5-0.1
				c0,0-0.1-0.1-0.1-0.1c-0.1,0-0.1,0-0.2,0c0,0,0-0.1,0-0.1c-0.2,0-0.4-0.1-0.6-0.1c0,0,0-0.1,0-0.1c0,0,0-0.1,0-0.1
				c0,0,0-0.1,0-0.1c-0.1,0-0.3,0-0.4,0c0,0,0-0.1,0-0.1c0,0,0-0.1,0-0.1V9.9c0-0.1,0-0.1,0-0.1c0-0.1,0-0.1,0-0.1c0,0,0-0.1,0-0.1
				c0,0,0-0.1,0-0.1c0,0,0-0.1,0-0.1c0,0,0-0.1,0-0.1c0,0,0-0.1,0-0.1V9c0-0.1,0-0.1,0-0.1c0-0.1,0-0.1,0-0.1c0,0,0-0.1,0-0.1
				c0,0,0.1-0.1,0.1-0.1c0,0,0-0.1,0-0.1c0,0,0-0.1,0-0.1c0-0.1,0-0.1,0-0.1V8.2c0-0.1,0-0.1,0-0.1c0-0.1,0-0.1,0-0.1
				c0,0,0-0.1,0-0.1c0,0,0-0.1,0-0.1c0,0,0-0.1,0-0.1c0.2,0,0.3,0,0.5,0c0-0.1,0-0.1,0-0.1c0,0,0-0.1,0-0.1c0,0,0-0.1,0-0.1
				c0,0,0-0.1,0-0.1s0-0.1,0-0.1c0,0,0-0.1,0-0.1c0-0.1,0-0.1,0-0.1V6.7c0-0.1,0-0.1,0-0.1s0-0.1,0-0.1c0,0,0-0.1,0-0.1
				C1,6.3,1,6.3,1.1,6.2c0,0,0-0.1,0-0.1c0-0.1,0-0.1,0-0.1C1.1,6,1.2,5.9,1.2,5.9c0,0,0-0.1,0-0.1c0-0.1,0-0.1,0-0.1
				c0,0,0-0.1,0-0.1v0c0.1,0,0.1,0,0.1,0c0-0.1,0-0.1,0-0.1c0,0,0-0.1,0-0.1c0,0,0-0.1,0-0.1c0.1,0,0.1-0.1,0.2-0.1c0,0,0-0.1,0-0.1
				c0,0,0-0.1,0-0.1c0.1,0,0.1-0.1,0.1-0.1c0,0,0-0.1,0-0.1c0,0,0-0.1,0-0.1v0c0.1,0,0.1-0.1,0.2-0.1c0,0,0-0.1,0-0.1
				c0.1,0,0.1,0,0.1,0c0,0,0-0.1,0-0.1c0,0,0-0.1,0-0.1v0c0.1,0,0.1,0,0.2,0c0,0,0-0.1,0-0.1c0.1,0,0.1-0.1,0.1-0.1c0,0,0-0.1,0-0.1
				s0-0.1,0-0.1v0c0.1,0,0.1-0.1,0.2-0.1c0,0,0-0.1,0-0.1c0.1,0,0.1,0,0.1,0c0,0,0-0.1,0-0.1c0.1,0,0.1-0.1,0.2-0.1c0,0,0-0.1,0-0.1
				c0.1,0,0.1,0,0.1,0c0,0,0-0.1,0-0.1c0.1,0,0.1,0,0.2,0C3,3,3,3,3,3V2.9c0,0,0-0.1,0-0.1V2.7c0.4,0,0.8,0,1.2,0c0,0,0-0.1,0-0.1
				c0,0,0-0.1,0-0.1c0,0,0-0.1,0-0.1c0,0,0-0.1,0-0.1V2.2c0-0.1,0-0.1,0-0.1c0,0,0-0.1,0-0.1v0c4.8,0,9.5,0,14.3,0c0,0,0,0.1,0,0.1
				c0,0.1,0,0.1,0,0.1c0,0.1,0,0.1,0,0.1c0,0,0,0.1,0,0.1c0.2,0,0.4,0,0.6,0v0.1c0.1,0,0.1,0.1,0.1,0.1c0,0,0,0.1,0,0.1
				c0,0.1,0,0.1,0,0.1c0,0.1,0,0.1,0,0.1c0,0,0,0.1,0,0.1c0,0.1,0,0.1,0,0.1c0,0,0,0.1,0,0.1v0c1.7,0,3.5,0,5.3,0v0c0,0,0-0.1,0-0.1
				V3.1c0-0.1,0-0.1,0-0.1c0-0.1,0-0.1,0-0.1c0,0,0-0.1,0-0.1c0,0,0-0.1,0-0.1c0,0,0-0.1,0-0.1c0,0,0-0.1,0-0.1c0,0,0-0.1,0-0.1V2.2
				c0-0.1,0-0.1,0-0.1c0,0,0-0.1,0-0.1v0c3.6,0,7.1,0,10.6,0v0c0.3,0,0.7,0,1,0h0.3c0.2,0,0.4,0,0.6,0c0,0,0,0.1,0,0.1
				c0.1,0,0.1,0,0.2,0c0,0.1,0,0.1,0,0.1c0,0,0,0.1,0,0.1C37.1,2.4,37.1,2.4,37.1,2.5z M17.5,11.7c-0.1,0-0.2,0.1-0.2,0.1
				c0,0-0.1,0.1-0.1,0.1c0,0-0.1,0.1-0.1,0.1c0,0,0,0.1,0,0.1c0,0-0.1,0.1-0.1,0.1c0,0,0,0.1,0,0.1c0,0.1,0,0.1,0,0.1
				c-0.1,0-0.1,0.1-0.2,0.1c0,0,0,0.1,0,0.1c0,0.1,0,0.1,0,0.1c0,0-0.1,0.1-0.1,0.1c0,0,0,0.1,0,0.1c0,0.1,0,0.1,0,0.1
				c0,0.1,0,0.1,0,0.1c0,0-0.1,0.1-0.1,0.1c0,0-0.1,0.1-0.1,0.1c0,0,0,0.1,0,0.1c0,0,0,0.1,0,0.1c0,0,0,0.1,0,0.1
				c0,0-0.1,0.1-0.1,0.1c0,0.1,0,0.1,0,0.1c0,0.1,0,0.1,0,0.1c0,0,0,0.1,0,0.1l0,0.1c0,0,0,0.1,0,0.1c0,0,0,0.1,0,0.1
				c0,0.1,0.1,0.1,0.1,0.1c0,0,0,0.1,0,0.1c0,0.1,0,0.1,0,0.1c0.1,0.1,0.1,0.1,0.1,0.1c0,0,0,0.1,0,0.1c0,0,0,0,0,0.1
				c0,0,0.1,0.1,0.1,0.1c0,0,0,0.1,0,0.1c0,0.1,0,0.1,0,0.1c0,0,0,0.1,0,0.1c0,0.1,0,0.1,0,0.1c0,0,0,0.1,0,0.1c0,0,0,0.1,0,0.1V16
				c0,0,0,0.1,0,0.1c0,0,0,0.1,0,0.1c0,0.1,0,0.1,0,0.1s0,0.1,0,0.1c0,0.1,0,0.1,0,0.1c2.8,0,5.5,0,8.3,0v-0.1c0,0,0-0.1,0-0.1v0
				c0,0,0-0.1,0-0.1V16c0.2,0,0.4,0,0.7,0v0c0,0,0-0.1,0-0.1v0c0,0,0.1,0,0.1,0v0c0-0.1,0-0.2,0-0.3c0-0.1,0-0.2,0-0.3
				c0-0.1,0-0.3,0-0.3c0-0.1,0-0.2,0-0.4c0-0.1,0-0.2,0-0.3c0-0.1,0-0.2,0-0.3c0-0.1,0-0.2,0-0.3c0-0.1,0-0.2,0-0.3
				c0-0.1,0-0.2,0-0.3c0-0.1,0-0.2,0-0.3c0-0.1,0-0.2,0-0.3c0,0,0-0.1,0-0.1c-0.1,0-0.2,0-0.4,0v0c0,0,0-0.1,0-0.1c0,0-0.1,0-0.1,0
				v0h-0.1c0,0,0-0.1,0-0.1v0c0,0,0,0,0,0v0c0,0-0.1,0-0.1,0v-0.1H25c0,0,0-0.1,0-0.1l-0.1,0c0,0-0.1,0-0.1,0c-0.1,0-0.1,0-0.1,0
				v-0.1h0c-1.5,0-3,0-4.5,0c0,0,0,0.1,0,0.1v0c0,0,0,0.1,0,0.1s0,0.1,0,0.1v0.1c-0.1,0-0.1,0.1-0.2,0.1c0,0.1,0,0.1,0,0.1
				c0,0,0,0.1,0,0.1c0,0,0,0.1,0,0.1c0,0,0,0.1,0,0.1c0,0,0,0.1,0,0.1c0,0.1,0,0.1,0,0.1c0,0.1,0,0.1,0,0.1c0,0.1,0,0.1,0,0.2v0
				c0,0,0,0.1,0,0.1c0,0,0,0.1,0,0.1c0,0,0,0.1,0,0.1c0,0,0,0.1,0,0.1c0,0.1,0,0.1,0,0.1c0,0.1,0,0.1,0,0.1s0,0.1,0,0.1v0.1
				c0,0,0,0.1,0,0.1c0,0,0,0,0,0c0,0,0,0,0,0c0,0,0,0,0,0c0,0,0,0,0,0c0,0,0,0.1,0,0.1c0,0,0.1,0,0.1,0c0,0,0.1,0.1,0.1,0.1v0
				c0,0,0,0,0,0c0,0,0,0.1,0,0.1l0,0c0,0,0.1,0,0.1,0c0,0,0,0.1,0,0.1c0,0,0.1,0,0.1,0l0,0c0,0,0.1,0,0.1,0v0.1c0,0,0.1,0,0.1,0
				c0,0,0.1,0.1,0.1,0.1v0c0,0,0.1,0,0.1,0c0.1,0,0.1,0,0.2,0v0.1c0.1,0,0.1,0,0.2,0c0.1,0,0.1,0.1,0.1,0.1v0c0.1,0,0.2,0,0.2,0
				c0.1,0,0.1,0,0.2,0v0.1c0.2,0,0.4,0,0.6,0c0,0,0,0.1,0,0.1v0.1c0,0,0,0.1,0,0.1c0,0,0,0.1,0,0.1v0c0,0,0,0.1,0,0.1v0.1
				c0,0,0,0.1,0,0.1v0.1c-0.4,0-0.9,0-1.3,0v0c-0.1,0-0.1,0-0.2,0c-0.1,0-0.1-0.1-0.2-0.1v0c0,0-0.1,0-0.1,0s-0.1,0-0.2,0v0
				c0,0-0.1,0-0.1,0c-0.1,0-0.1-0.1-0.2-0.1v0l0,0c0,0-0.1,0-0.1,0v0c-0.1,0-0.1-0.1-0.1-0.1c0,0-0.1,0-0.1,0c0,0,0-0.1,0-0.1
				c0,0-0.1,0-0.1,0c0,0-0.1,0-0.1,0c0,0,0-0.1,0-0.1l0,0c0,0,0-0.1,0-0.1c0,0-0.1,0-0.1,0v0c0,0-0.1-0.1-0.1-0.1v0
				c0,0-0.1-0.1-0.1-0.1l0,0v0c0,0-0.1,0-0.1,0v0c0,0-0.1-0.1-0.1-0.1v0c0,0,0,0-0.1,0v0c0,0,0-0.1,0-0.1c-0.1,0-0.1,0-0.2,0
				c0,0,0-0.1,0-0.1c0,0,0,0,0,0c0,0,0-0.1,0-0.1v-0.2c0,0,0-0.1,0-0.1v0c0,0,0-0.1,0-0.1v-0.1c0,0,0-0.1,0-0.1v-0.1
				c0,0,0-0.1,0-0.1c0.1,0,0.1,0,0.1,0c0,0,0-0.1,0-0.1c0-0.1,0-0.1,0-0.1c0-0.1,0-0.1,0-0.2s0-0.1,0-0.2c0-0.1,0-0.1,0-0.2
				c0-0.1,0-0.1,0-0.2c0-0.1,0-0.1,0-0.2c0-0.1,0-0.1,0-0.2s0-0.1,0-0.2s0-0.1,0-0.1c0-0.1,0-0.2,0-0.2c-0.3,0-0.5,0-0.7,0v0
				c0,0,0,0.1,0,0.1v0c-0.1,0-0.3,0.1-0.5,0.1v0C17.6,11.6,17.6,11.6,17.5,11.7C17.5,11.6,17.5,11.7,17.5,11.7z M7.2,29.6
				c0.1,0,0.2,0,0.2,0v0C7.3,29.6,7.2,29.6,7.2,29.6L7.2,29.6z"/>
		</g>
	</g>
</g>
<g id="guides">
</g>
<path fill="#FFFFFF" d="M42.7,20c0,0,0.2,2.6,2.7,4.1c0.5,0.3,1.3,0.8,1.7,1c1.9,1.2,2.9,0.9,4.1,0.8c2.3-0.2,6.9-3,7.4-5.6
	c0.5-2.6-0.8-5-2.4-5.4c-1.6-0.4-3.1,0.3-3.5,1.8c-0.5,1.5,1,2.2,1,2.2c-1.6,0.3-2.2-1.3-1.8-2.7c0.3-1.4,1.8-3.1,4.7-2.5
	c2.9,0.7,3.4,3.3,3.4,3.3c1-1.8,3.3-2.8,6-1.8c2.7,1,1.8,3.2,1.8,3.2c-0.1-1.6-1.4-2.3-3.3-2.7c-1.8-0.3-3.6,0.5-4.2,3.2
	c-0.5,2.7,0.8,6.2,3.8,7c3.1,0.8,7.7-0.1,9.5-3.6c1.8-3.5,1.8-9.8-2.9-13.2s-9.3,0.1-9.3,0.1s-0.4-3.8-5.4-4c-5-0.3-5.7,5.3-5.7,5.3
	c-0.5-2.7-5.2,0.3-6.6,2.7c-1,1.7-1.6,4.3-1,6.1C42.7,19.5,42.7,19.9,42.7,20z"/>
</svg>
