<?xml version="1.0" encoding="utf-8"?>
<!-- Generator: Adobe Illustrator 21.0.2, SVG Export Plug-In . SVG Version: 6.00 Build 0)  -->
<svg version="1.1" id="Слой_1" xmlns="http://www.w3.org/2000/svg" xmlns:xlink="http://www.w3.org/1999/xlink" x="0px" y="0px"
	 width="105.2px" height="32px" viewBox="0 0 105.2 32" enable-background="new 0 0 105.2 32" xml:space="preserve">
<g id="Selected_Items">
	<g>
		<g id="Selected_Items_40_">
			<path fill="#FFFFFF" d="M46.4,18.8c-0.4,0.2-0.7,0.4-0.9,0.6c-0.2,0.2-0.2,0.6-0.2,1.1c0,0.7,0,1.2,0,1.7h1.6V23l0.3,0.1
				c0.2,0.1,0.3,0.1,0.4,0.2c0.2,0.2,0.4,0.4,0.7,0.4c0.5,0.2,1.1,0,1.8-0.4c0.7-0.5,0.9-1.1,0.6-2c-0.2-0.7-0.7-1.2-1.3-1.5
				c-0.2-0.1-0.4-0.3-0.6-0.7l-0.3-0.5c-0.2,0-0.4,0-0.6,0C47.3,18.6,46.8,18.7,46.4,18.8z M35.4,22c0.4-0.4,0.7-0.9,0.7-1.3
				c0-0.5-0.1-0.9-0.4-1.4l-0.3-0.6h-5.6c-0.7,0.7-1.2,1.2-1.6,1.5c-0.2,0.2-0.3,0.4-0.2,0.7c0,0.2,0,0.4,0.1,0.9
				c0,0.9,0.3,1.6,0.8,2c0.6,0.5,1.2,0.7,1.8,0.7c0.2-0.1,0.8-0.3,1.8-0.7c0.8-0.4,1.5-0.7,1.9-0.9C34.7,22.5,35.1,22.2,35.4,22z
				 M55.5,10.5c0.1-0.1-0.1-0.2-0.3-0.5C52,10,50,10,49,10c-0.6,0-1.7-0.1-3.2-0.2l-2.2-0.1V11h11.6c0-0.1,0-0.1,0-0.2
				C55.4,10.7,55.4,10.6,55.5,10.5z M56.9,9.9c-0.1,0-0.2,0-0.4,0h-0.2v0.8l0.3,0c0.2,0.1,0.3,0.2,0.3,0.4c0,0.2-0.1,0.4-0.2,0.5
				l-0.2,0.2l0.2,2h0.5v-3.5c0-0.2,0-0.3,0-0.3C57.1,10,57,9.9,56.9,9.9z M67.8,16.9c-0.1,0.2-0.3,0.3-0.6,0.3h-5.6L61.4,17
				c-0.1,0-0.1,0.1-0.2,0.1C61,17.2,61,17.2,61,17.3s0.2,0.2,0.5,0.6c0.3,0.4,0.5,0.8,0.4,1c-0.1,0.3-0.2,1.2-0.3,2.6
				c-0.1,1.4-0.2,2.2-0.2,2.4c0,0.2-0.1,0.3-0.2,0.3c-0.1,0.1-0.2,0.1-0.4,0.1h-2.4c-0.1,0-0.2-0.1-0.3-0.3
				c-0.1-0.2-0.2-0.5-0.2-0.9c0-0.5,0-0.9,0-1.3c-0.1-0.5-0.1-0.8-0.2-0.9c-0.1-0.1-0.5-0.2-1.2-0.2c-0.7-0.1-1.2,0-1.3,0.1
				c-0.2,0.2-0.3,0.3-0.4,0.4c-0.2,0.2-0.3,0.4-0.3,0.5c0,0.1-0.1,0.8-0.2,2.2c-0.3,1.5-0.9,2.6-1.7,3.5c-0.9,0.9-2.2,1.5-4.1,1.9
				c-1.4,0.3-2.6,0.3-3.5,0.2c-0.5-0.1-0.9-0.2-1-0.3c-0.1,0-0.1-0.1,0-0.4c0.7-2.3,1-3.5,0.9-3.7C45,25,45,24.8,44.9,24.8
				c-0.1-0.1-0.3-0.2-0.4-0.2c-0.2,0-0.6,0-1.3,0c-0.4,0-0.8,0-1.2,0c-0.1,0-0.2,0.1-0.2,0.2c-0.1,0.2-0.2,0.3-0.2,0.4
				c-0.1,0.1-0.4,0.4-1,0.8c-0.7,0.6-1.4,1.1-2.2,1.5c-2.3,1.4-4.3,2.2-5.9,2.2c-1.5,0-3.2-0.1-5-0.2l-2.2-0.2l0-1.3
				c-3.3-1.4-5.2-2.1-5.7-2.1c-0.3,0-0.6,0-0.9,0l-0.4,0L18,26.2c-0.2,0.4-0.5,0.5-0.7,0.5H1.5c-0.2,0-0.5-0.2-0.6-0.5
				c-0.1-0.3-0.2-0.6-0.2-1v-6.8c0-1.4,0-3-0.1-4.7c-0.1-1.4-0.1-2.1-0.1-2.1c0.1-0.5,0.2-0.8,0.4-0.8h20.6c0.1,0,0.5-0.1,1.1-0.2
				c0.6-0.1,1-0.2,1.3-0.2h14.7l0-1.7c0-0.1,0.2-0.6,0.6-1.5c0.4-1,0.7-1.5,0.7-1.7c0-0.2,0.2-0.3,0.5-0.5c0.2-0.1,0.3-0.1,0.5-0.2
				c0-0.2,0-0.5,0.1-0.7c0.1-0.5,0.1-0.8,0.2-0.9c0.4-0.5,0.7-0.8,0.9-0.8c0.3,0,0.5,0.1,0.6,0.4c0.1,0.2,0.1,0.4,0.2,0.7
				c0.1,0.2,0.1,0.6,0,1.2c0,0-0.1,0-0.1,0c-0.1,0.1-0.1,0.1-0.1,0.3V6h11.6l1.5-0.9C55.8,5.1,56,5,56,4.9V4.2h-0.2v-1L55.9,3
				l0.4-0.3l0.9-0.1c0.1,0,0.1,0.1,0.2,0.2c0,0.1,0,0.2,0,0.4V5l0.2,0.6C57.8,6,57.9,6.2,58,6.2c0.1,0,0.5,0,1.1,0
				C60.7,8,61.5,8.9,61.6,9c0.2,0.2,0.3,0.5,0.3,0.8v4.4h5.6l0.2,0.2c0.2,0.2,0.3,0.6,0.3,1.1C68,16.2,67.9,16.7,67.8,16.9z"/>
		</g>
	</g>
</g>
<g id="guides">
</g>
<path fill="#FFFFFF" d="M73.1,20.8c0,0,0.2,2.6,2.7,4.1c0.5,0.3,1.3,0.8,1.7,1c1.9,1.2,2.9,0.9,4.1,0.8c2.3-0.2,6.9-3,7.4-5.6
	c0.5-2.6-0.8-5-2.4-5.4c-1.6-0.4-3.1,0.3-3.5,1.8c-0.5,1.5,1,2.2,1,2.2c-1.6,0.3-2.2-1.3-1.8-2.7c0.3-1.4,1.8-3.1,4.7-2.5
	c2.9,0.7,3.4,3.3,3.4,3.3c1-1.8,3.3-2.8,6-1.8s1.8,3.2,1.8,3.2c-0.1-1.6-1.4-2.3-3.3-2.7c-1.8-0.3-3.6,0.5-4.2,3.2
	c-0.5,2.7,0.8,6.2,3.8,7c3.1,0.8,7.7-0.1,9.5-3.6c1.8-3.5,1.8-9.8-2.9-13.2s-9.3,0.1-9.3,0.1s-0.4-3.8-5.4-4c-5-0.3-5.7,5.3-5.7,5.3
	c-0.5-2.7-5.2,0.3-6.6,2.7c-1,1.7-1.6,4.3-1,6.1C73,20.4,73,20.8,73.1,20.8z"/>
</svg>
