<?xml version="1.0" encoding="utf-8"?>
<!-- Generator: Adobe Illustrator 21.0.2, SVG Export Plug-In . SVG Version: 6.00 Build 0)  -->
<svg version="1.1" id="Слой_1" xmlns="http://www.w3.org/2000/svg" xmlns:xlink="http://www.w3.org/1999/xlink" x="0px" y="0px"
	 width="129.9px" height="32px" viewBox="0 0 129.9 32" enable-background="new 0 0 129.9 32" xml:space="preserve">
<g id="Selected_Items">
	<g>
		<g id="Selected_Items_42_">
			<path fill="#FFFFFF" d="M52.3,6.9l-0.5,1.3v2.4h-2.5v-0.3h-0.6v0.4h-3.9v-0.4l-3.9,0l-0.7,0.3h-5.9c-0.2,0-0.4,0-0.6,0.1
				c-0.5,0.1-0.8,0.2-1,0.4l0,0c-0.4,0.3-0.6,0.5-0.6,0.5c-0.2,0.3-0.3,0.6-0.4,0.9c0,0.3,0,0.8,0,1.5c0,0.3,0,0.7,0,1
				c-0.4,0-0.9,0-1.3,0h0c-0.4,0-0.8,0-1.1,0c-0.3,0-0.6,0-0.8,0.1c-0.4,0.1-0.7,0.2-0.9,0.4c-0.1,0.1-0.2,0.3-0.4,0.5
				c-0.1,0.1-0.1,0.1-0.1,0.2c-0.1,0.2-0.2,0.6-0.3,1c-0.1,0.5-0.1,0.8-0.2,0.9c-0.2,0.4-0.4,0.8-0.6,1c-0.5,0.5-1.1,0.9-1.8,1.1
				c-0.1,0-0.1,0.1-0.2,0.1c-0.8,0.2-1.5,0.4-2.2,0.5c-0.7,0.1-1.3,0.1-1.8,0c-0.1,0-0.3,0-0.4-0.1c-0.3-0.1-0.6-0.3-0.9-0.5
				c-0.1-0.1-0.2-0.2-0.4-0.4L18,19.7l-0.3,0.3c-0.2,0-0.3-0.1-0.5-0.1c-0.2,0-0.4-0.1-0.6-0.1c-0.2,0-0.3,0-0.5,0
				c-0.4-0.1-0.7-0.1-1-0.1c-0.6-0.1-1,0-1.2,0c-0.4,0.2-0.7,0.4-1,0.6c-0.3,0.3-0.4,0.6-0.5,0.9c0,0.5,0.1,0.9,0.4,1.2
				c0.1,0.1,0.1,0.3,0.3,0.4c0.1,0.1,0.1,0.2,0,0.3c0,0.1-0.1,0.2-0.2,0.3c-0.1,0.1-0.2,0.2-0.4,0.3c-0.3,0.3-0.5,0.6-0.5,1
				c-0.1,0.5,0,0.9,0.3,1.3l0.2,0.4c0.1,0.1,0.1,0.2,0,0.4c0,0.1-0.1,0.2-0.2,0.3c-0.1,0.1-0.2,0.1-0.5,0.2
				c-0.4,0.2-0.7,0.4-0.9,0.6c-0.1,0.2-0.3,0.5-0.4,0.8c-0.1,0.3-0.2,0.5-0.4,0.7c-0.3,0.2-1,0.4-2.1,0.6c-1.2,0.2-2.2,0.3-3,0.2
				c-1.2-0.1-2.2-0.2-3-0.4c-1.2-0.3-1.8-0.7-2-1.3c-0.1-0.2,0-0.5,0.2-0.9c0.1-0.1,0.1-0.1,0.1-0.2C0.8,27.2,1,27,1.1,26.8
				c0.2-0.3,0.3-0.6,0.4-0.9c0.1-0.3,0.3-0.7,0.5-1.3c0.3-0.7,0.5-1.3,0.6-1.7c0.5-1.5,1-2.6,1.4-3.4c0.4-0.8,1.1-1.9,2.1-3.4
				c1-1.5,1.7-2.5,2-3c0.2-0.3,0.4-0.7,0.5-1c0-0.2,0-0.5,0-0.9c0-0.4,0-0.7,0-0.8c0-0.3,0.1-0.5,0.2-0.8C8.8,9.4,9.3,9.2,10.1,9
				c0.3-0.1,0.6-0.1,0.9-0.1h0.3c0.1-0.1,0.3-0.2,0.4-0.4C12,8.3,12.3,8.1,12.6,8c0.2-0.1,0.5-0.2,0.9-0.3l0.5-0.1L13.6,7
				c-0.2-0.4-0.5-0.7-0.8-0.9c-0.3-0.2-0.7-0.3-1.1-0.3c-0.1,0-0.1,0-0.2,0c-0.3,0-0.6,0-0.8,0l0-0.2c0.3,0,0.6,0,0.9,0
				c0.7-0.1,1.1-0.1,1.4,0c0.2,0.1,0.5,0.2,0.9,0.5c0,0,0.1,0,0.1,0c0.3,0.2,0.5,0.3,0.6,0.3c0.2,0,0.4-0.2,0.7-0.7
				c0.2-0.2,0.3-0.4,0.5-0.6l1,0l0.4-1L17,4c-0.1,0-0.1-0.1-0.1-0.1c-0.2-0.2-0.2-0.4-0.1-0.6c0.1-0.2,0.2-0.3,0.3-0.3
				c0,0,0.1,0,0.1,0c0.1,0,0.2,0,0.2,0l0.1-0.5L18,2.5l0,0.4h1.6L20,3.2h2.4V2.6L23.1,2l0.9,0v0.5h0.8V2.1h1v0.5h0.8V2h1v0.5h0.9V2
				h0.8v0.5h1V2.1H31v0.5h0.9V2h0.9v0.5h0.9V2h0.9v0.5h0.9V2h0.8v0.5h0.9V2.1H38v0.4h0.9V2.1h0.6L40,2.2c0.3,0.1,0.6,0.2,0.9,0.3
				c0.4,0.2,0.9,0.4,1.6,0.8h5.3V2.5h2.6l0.2,0c0.1,0,0.3,0.1,0.4,0.2C51,2.9,51,3,51,3.2l0,0.2l1.3,1L52.3,6.9L52.3,6.9z
				 M22.5,14.6l0.3,0.2c-0.1,0.3-0.2,0.5-0.4,0.7c-0.1,0.1-0.2,0.3-0.3,0.5c0,0-0.1,0-0.1,0c-0.2,0.2-0.4,0.5-0.5,0.6
				c-0.1,0.3-0.1,0.6,0,0.9c0.1,0.3,0.2,0.5,0.5,0.8c0.2,0.2,0.6,0.5,1,0.7c0.2,0.1,0.3,0.2,0.5,0.3l-0.1,0.3
				c-0.2-0.1-0.5-0.1-0.8-0.3c-0.5-0.2-1-0.5-1.4-0.9c-0.2-0.3-0.4-0.6-0.6-1.1l-0.2-0.7l0.2-0.2l0-0.5c-0.1,0-0.3,0-0.4,0
				c-0.4,0-0.6-0.1-0.8-0.1c-0.2-0.1-0.3-0.2-0.5-0.4l-0.2-0.2l-0.2,0.1c-0.1,0.1-0.2,0.3-0.3,0.5c-0.3,0.5-0.5,0.9-0.5,1.3
				c0,0.1,0,0.1,0,0.2c0,0.4,0.1,0.8,0.2,1.2c0.1,0.5,0.3,0.8,0.5,1c0.2,0.2,0.5,0.4,0.8,0.5c0.4,0.2,0.8,0.2,1.4,0.3
				c0.5,0,1.2,0,1.9-0.1c0.4-0.1,0.7-0.2,1-0.2c0.1-0.1,0.3-0.1,0.4-0.1c0.1-0.1,0.3-0.1,0.5-0.2c0.2-0.1,0.4-0.2,0.6-0.4
				c0.5-0.4,0.8-0.7,0.9-0.9c0.2-0.3,0.2-0.6,0.3-0.9c0.1-0.3,0.1-0.7,0-1.1v0c0-0.4-0.2-0.7-0.6-1c-0.2-0.2-0.6-0.4-1-0.7
				c-0.3-0.2-0.8-0.2-1.4-0.2h-0.8L22.5,14.6z"/>
		</g>
	</g>
</g>
<g id="guides">
</g>
<g id="Flash_2_">
	<path fill="#FFFFFF" d="M81,11.9c0,2.2-0.8,4.2-2.4,5.8C77,19.2,75.1,20,72.8,20c-2.2,0-4.2-0.8-5.8-2.4c-1.6-1.6-2.4-3.5-2.4-5.8
		c0-0.6,0.1-1.1,0.2-1.7c0.2-0.1,0.4-0.1,0.6-0.3c0.8-0.4,1.5-0.8,2.3-1.1c0.1,0,0.3-0.1,0.4-0.2c-0.7,1-1.1,2.1-1,3.4
		c0,1.6,0.6,3,1.7,4.1c1.1,1.1,2.5,1.7,4.1,1.7c1.6,0,3-0.6,4.1-1.7c1.1-1.1,1.7-2.5,1.7-4.1c0-1.6-0.5-2.9-1.6-4.1
		c0.7,0.2,1.4,0.4,2.1,0.8c0,0,0,0,0,0c0.4,0.2,0.8,0.4,1.2,0.5C80.8,10.1,81,11,81,11.9z"/>
	<path fill="#FFFFFF" d="M88.8,18.9c-0.7-1.1-1.5-2.2-2.4-3.2c-0.2,0.2-0.4,0.4-0.6,0.6c-3.8,3.8-8.4,5.7-13.8,5.7
		c-5.4,0-10-1.9-13.9-5.7L58,16.4c0.7,1.1,1.6,2.1,2.5,3.1c3.8,3.8,8.4,5.7,13.9,5.7s10-1.9,13.8-5.7C88.4,19.3,88.6,19.1,88.8,18.9
		L88.8,18.9z"/>
	<path fill="#FFFFFF" d="M86.4,15.7c0.9,1,1.7,2.1,2.4,3.2c0.7-0.7,1.3-1.4,1.8-2.1c-0.6-1-1-1.6-2.4-3.2C87.6,14.3,87,15,86.4,15.7
		L86.4,15.7z"/>
	<polygon fill="#FF0000" points="77.1,13.5 74.7,14.7 74.3,17.3 72.5,15.4 69.9,15.8 71.1,13.5 69.9,11.2 72.5,11.6 74.3,9.7 
		74.7,12.3 	"/>
	<path fill="#FFFFFF" d="M85.8,15.1c0.2,0.2,0.4,0.4,0.6,0.6c0.6-0.7,1.2-1.4,1.8-2.2c-0.2-0.2-0.4-0.4-0.6-0.6
		c-3.8-3.8-8.4-5.7-13.8-5.7c-5.4,0-10,1.9-13.9,5.7c-0.8,0.9-1.6,1.8-2.3,2.7l0.1,0.1c0.1-0.2,0.3-0.4,0.5-0.5
		c3.8-3.8,8.4-5.7,13.9-5.7C77.4,9.4,82,11.3,85.8,15.1L85.8,15.1z"/>
</g>
<path fill="#FFFFFF" d="M97.8,19.8c0,0,0.2,2.6,2.7,4.1c0.5,0.3,1.3,0.8,1.7,1c1.9,1.2,2.9,0.9,4.1,0.8c2.3-0.2,6.9-3,7.4-5.6
	c0.5-2.6-0.8-5-2.4-5.4c-1.6-0.4-3.1,0.3-3.5,1.8c-0.5,1.5,1,2.2,1,2.2c-1.6,0.3-2.2-1.3-1.8-2.7c0.3-1.4,1.8-3.1,4.7-2.5
	c2.9,0.7,3.4,3.3,3.4,3.3c1-1.8,3.3-2.8,6-1.8s1.8,3.2,1.8,3.2c-0.1-1.6-1.4-2.3-3.3-2.7c-1.8-0.3-3.6,0.5-4.2,3.2
	c-0.5,2.7,0.8,6.2,3.8,7c3.1,0.8,7.7-0.1,9.5-3.6c1.8-3.5,1.8-9.8-2.9-13.2c-4.7-3.4-9.3,0.1-9.3,0.1s-0.4-3.8-5.4-4
	c-5-0.3-5.7,5.3-5.7,5.3c-0.5-2.7-5.2,0.3-6.6,2.7c-1,1.7-1.6,4.3-1,6.1C97.7,19.3,97.8,19.7,97.8,19.8z"/>
</svg>
