<?xml version="1.0" encoding="utf-8"?>
<!-- Generator: Adobe Illustrator 21.0.2, SVG Export Plug-In . SVG Version: 6.00 Build 0)  -->
<svg version="1.1" id="Слой_1" xmlns="http://www.w3.org/2000/svg" xmlns:xlink="http://www.w3.org/1999/xlink" x="0px" y="0px"
	 width="122.6px" height="32px" viewBox="0 0 122.6 32" enable-background="new 0 0 122.6 32" xml:space="preserve">
<g id="Selected_Items">
	<g>
		<g id="Selected_Items_43_">
			<path fill="#FFFFFF" d="M20.6,7.5c4.6,0,9.1,0,13.7,0c0.1,0,0.2,0,0.2,0.1c0.1,0,0.1,0.1,0.1,0.1l0,0h0c0,0,0.1,0.1,0.1,0.1
				c0,0,0,0.1,0.1,0.1c0,0,0,0,0,0.1c0,0,0,0.1,0,0.1c0,0,0.1,0,0.1,0V8.1c0.1,0,0.2,0,0.3,0c0,0,0.1,0.1,0.2,0.1c0,0,0.1,0,0.1,0.1
				c16.2,0,32.4,0,48.6,0c0.1,0,0.2,0.1,0.2,0.1c0,0,0.1,0,0.1,0.1c0,0,0,0.1,0.1,0.1c0,0,0,0.1,0,0.1s0,0.1,0,0.1c0,0,0,0,0,0
				c0,0,0,0,0,0.1c0,0.1,0,0.1,0,0.1c0,0,0,0.1,0,0.1c0,0,0,0.1,0,0.1c0,0,0,0,0,0.1c0,0.1,0,0.1,0,0.1c0,0,0,0.1,0,0.1
				c0,0,0,0.1,0,0.1c0,0,0,0,0,0.1c0,0.1,0,0.1,0,0.1c0,0,0,0.1,0,0.1c0,0,0,0.1,0,0.1c0,0,0,0.1,0,0.1c0,0,0,0,0,0.1
				c0,0,0,0.1,0,0.1c0,0,0,0.1,0,0.1c0,0,0,0.1,0,0.1c0,0,0,0,0,0.1c0,0,0,0.1,0,0.1c0,0,0,0.1,0,0.1c0,0,0,0.1,0,0.1
				c0,0-0.1,0-0.1,0c0,0-0.1,0.1-0.1,0.1c0,0.1,0,0.1-0.1,0.1c-0.1,0-0.1,0.1-0.1,0.1c0,0,0,0.1,0,0.1c-0.1,0-0.2-0.1-0.2-0.1l0,0
				c-0.6,0-1.1,0-1.7,0c0,0,0,0.1,0,0.1c0,0,0,0,0,0.1c0,0,0,0,0,0.1c0,0,0,0.1,0,0.1v0c0,0,0,0,0,0.1c0,0,0,0.1,0,0.1v0
				c0,0,0,0,0,0.1l0,0c0.2,0,0.3,0,0.5,0v0c0,0,0-0.1,0-0.1c0.5,0,1,0,1.6,0c0,0,0,0,0,0.1c0,0,0,0.1,0,0.2c0,0,0,0.1,0,0.2
				c0,0,0,0.1,0,0.1c0,0,0,0.1,0,0.1c0,0,0,0.1,0,0.2c0,0,0,0.1,0,0.1c0,0.1,0,0.1,0,0.2c0,0,0,0.1,0,0.1c0,0,0,0.1,0,0.1
				c0,0.1,0,0.1,0,0.2c0,0,0,0.1,0,0.2v0c0,0,0,0,0,0.1v0.1c0,0,0,0,0,0.1v0.1c0,0,0,0.1,0,0.1v0.1c0,0,0,0.1,0,0.1v0.1
				c0,0,0,0,0,0.1v0.1c0,0,0,0,0,0.1v0.1c0,0,0,0,0,0.1v0.2c0,0,0,0,0,0.1v0.2c0,0,0,0,0,0.1c0,0,0,0.1,0,0.1c-0.5,0-1,0-1.5,0v0
				c-0.1,0-0.3,0-0.4,0c0,0,0,0,0,0c0,0-0.1,0-0.1,0c0,0,0,0.1-0.1,0.1c0,0,0,0,0,0.1c0,0,0,0,0,0.1c0,0,0,0.1,0,0.1c0,0,0,0,0,0.1
				c0,0,0,0-0.1,0.1c0,0,0,0.1-0.1,0.1c0,0,0,0,0,0c0,0,0,0,0,0.1c-0.1,0-0.1,0.1-0.1,0.1c0,0,0,0-0.1,0.1c0,0,0,0,0,0.1
				c0,0-0.1,0.1-0.1,0.1c0,0,0,0,0,0.1c0,0,0,0.1,0,0.1v0c0,0-0.1,0-0.1,0v0.1c0,0-0.1,0-0.2,0c0,0-0.1,0.1-0.1,0.1v0.1
				c-0.2,0-0.3,0-0.5,0v0c0,0,0,0.1,0,0.1V17c-7,0-14,0-20.9,0c0,0,0,0.1,0,0.1c0,0,0,0,0,0.1v0.1c-0.5,0-1.1,0-1.6,0c0,0,0,0,0-0.1
				c0,0,0-0.1,0-0.1v0c0,0,0,0,0-0.1s0,0,0-0.1c-0.1,0-0.1-0.1-0.2-0.1c-0.1,0-0.2,0-0.3-0.1v-0.1c-0.1,0-0.2,0-0.2-0.1
				c-0.1,0-0.1,0-0.2-0.1v-0.1c-0.1,0-0.2,0-0.3,0c-0.1,0-0.2-0.1-0.3-0.1c0,0,0,0,0-0.1c-3.5,0-6.9,0-10.4,0
				c-0.1,0-0.2-0.1-0.3-0.1c0,0-0.1,0-0.1-0.1c0,0-0.1,0-0.2-0.1c0,0-0.1-0.1-0.1-0.1c0,0-0.1,0-0.1-0.1c0-0.1,0-0.1,0-0.1
				s0-0.1,0-0.1s0-0.1,0-0.1c-0.8,0-1.6,0-2.4,0c0,0,0,0,0,0.1c0,0,0,0.1,0,0.1v0c0,0,0,0,0,0.1c0,0,0,0.1,0,0.1c0,0,0,0,0,0.1V16
				c-0.2,0-0.5,0-0.7,0v0.1c0,0,0,0,0,0.1s0,0,0,0.1c0,0,0,0.1,0,0.1s0,0,0,0.1v0c-0.5,0-1,0-1.6,0c0,0,0,0-0.1-0.1v0
				c0,0,0-0.1,0-0.1s0,0,0-0.1c0,0,0-0.1,0-0.1c-2.6,0-5.2,0-7.8,0h0c0,0-0.1,0-0.1,0.1c0,0-0.1,0-0.1,0c0,0-0.1,0-0.1,0
				c-0.1,0-0.1,0-0.1,0.1c0,0-0.1,0.1-0.2,0.1c0,0-0.1,0-0.1,0c-0.1,0-0.1,0-0.1,0c0,0-0.1,0-0.1,0.1c0,0,0,0.1-0.1,0.1
				c0,0-0.1,0-0.1,0.1c0,0,0,0-0.1,0c0,0,0,0,0,0c0,0-0.1,0-0.1,0c0,0-0.1,0.1-0.1,0.1v0.1c0,0-0.1,0-0.1,0c0,0,0,0.1,0,0.1V17
				c0,0-0.1,0-0.1,0h-0.1v0.2c-0.2,0-0.3,0-0.5,0h0c-0.1,0-0.2,0-0.3,0h0c0,0-0.1,0-0.1,0h-0.1c-0.1,0-0.2,0-0.3,0.1h0
				c-0.1,0-0.2,0-0.3,0h-0.1c0,0-0.1,0-0.1,0h0c0,0-0.1,0-0.1,0h0c0,0,0,0-0.1,0h0c-0.1,0-0.1,0-0.1,0h0c0,0,0,0,0,0.1h-0.1
				c0,0-0.1,0-0.1,0h0c-0.1,0-0.1,0-0.1,0h0c0,0-0.1,0-0.2,0h0c0,0,0,0-0.1,0h-0.1c0,0,0,0,0,0.1h0c0,0,0,0-0.1,0h0c0,0-0.1,0-0.1,0
				h0c0,0,0,0,0,0s-0.1,0-0.1,0h0c0,0,0,0-0.1,0h0c0,0-0.1,0-0.1,0.1h0c0,0,0,0-0.1,0h0l-0.1,0h0c0,0,0,0-0.1,0h0c0,0,0,0,0,0h-0.1
				c0,0,0,0-0.1,0.1h0c0,0,0,0,0,0c0,0-0.1,0-0.1,0h0c0,0,0,0,0,0h0c0,0,0,0,0,0H27c0,0,0,0,0,0h0c0,0,0,0-0.1,0.1c0,0-0.1,0-0.1,0
				h0c0,0,0,0,0,0h0c0,0,0,0,0,0c0,0-0.1,0-0.1,0c0,0,0,0,0,0.1h0c0,0,0,0,0,0c-0.1,0-0.1,0-0.1,0h0l-0.1,0.1v0h-0.1c0,0,0,0,0,0.1
				h0c0,0,0,0,0,0c0,0-0.1,0-0.1,0h0c0,0,0,0,0,0c0,0,0,0-0.1,0h0c0,0,0,0.1-0.1,0.1c0,0,0,0-0.1,0h0c0,0,0,0,0,0h-0.1c0,0,0,0,0,0
				h0c0,0,0,0,0,0h0c0,0,0,0,0,0h-0.1c0,0,0,0.1,0,0.1s0,0,0,0h0c0,0,0,0,0,0h-0.1L25,19.4c0,0,0,0,0,0.1h0c0,0-0.1,0-0.1,0h0
				c0,0,0,0,0,0c0,0,0,0,0,0h0c0,0,0,0,0,0c0,0-0.1,0-0.1,0.1h0c0,0,0,0,0,0c0,0,0,0,0,0h0c0,0-0.1,0-0.1,0h0c0,0,0,0,0,0h0v0
				c0,0,0,0,0,0.1h0c0,0-0.1,0-0.1,0h0c0,0,0,0,0,0h0L24,20c0,0,0,0-0.1,0.1c0,0,0,0,0,0s0,0,0,0h0l-0.1,0.1c0,0,0,0,0,0.1h0
				l-0.1,0.1c0,0,0,0,0,0h0c0,0,0,0,0,0.1h-0.1c0,0,0,0,0,0h0c0,0,0,0-0.1,0c0,0-0.1,0-0.1,0c0,0,0,0-0.1,0h0c0,0-0.1,0-0.1,0
				c0,0,0,0-0.1,0.1h0c0,0-0.1,0-0.1,0c0,0,0,0-0.1,0h0c0,0,0,0,0,0h0c-0.1,0-0.1,0-0.1,0h0c0,0,0,0,0,0.1h-0.1c0,0,0,0-0.1,0h0
				c0,0,0,0-0.1,0h-0.1c0,0-0.1,0-0.1,0h0c0,0-0.1,0-0.1,0c-0.1,0-0.2,0-0.3,0h0c-0.1,0-0.1,0-0.1,0.1h0c-0.1,0-0.1,0-0.2,0h0
				c-0.1,0-0.2,0-0.3,0h0c-0.4,0-0.7,0-1.1,0l0,0c-0.1,0-0.1,0-0.2,0v0c0,0-0.1,0-0.1,0l0-0.1c0,0-0.1,0-0.2,0l0,0
				c-0.1,0-0.1,0-0.2,0l0,0c0,0,0,0-0.1,0v0c-0.1,0-0.1,0-0.1,0l0,0c0,0-0.1,0-0.1,0l0,0c0,0-0.1,0-0.1,0l0-0.1c0,0-0.1,0-0.1,0v0
				c0,0-0.1,0-0.1,0l-0.1,0h0l0,0c0,0,0,0-0.1,0l0,0h-0.1l0-0.1c0,0,0,0-0.1,0v0c0,0-0.1,0-0.1,0l0,0c0,0,0,0-0.1,0l0,0
				c0,0-0.1,0-0.1,0v0h0l-0.1-0.1h0v0c0,0-0.1,0-0.1,0v0h0v0h0v0h0v-0.1h0v0h-0.1v0l0,0h0L16.9,20v0h0v0l-0.1-0.1v-0.1h0v0h0v0
				l-0.1-0.1v0l-0.1-0.1v0h0v0l-0.1,0v-0.1l0,0h0v0l0,0v0l0-0.1v0c0,0-0.1,0-0.1,0v0L16.2,19V19l0,0c0,0,0,0,0,0v-0.1L16,18.7v0l0,0
				v0l-0.1-0.1v0l0,0h-0.1v-0.1l0-0.1v0l0,0v0l-0.1-0.1v-0.1L15.5,18v-0.1l0,0v0c0,0-0.1,0-0.1,0l-0.3-0.3v0h0v-0.1c0,0,0,0,0,0H15
				l-0.1-0.1c0,0,0,0,0,0v0L14.7,17c-0.2,0-0.4,0-0.6,0c0,0,0,0-0.1,0c-0.2,0-0.4,0.1-0.6,0.1c0,0-0.1,0-0.1,0.1c0,0-0.1,0-0.1,0
				c0,0,0,0,0-0.1c0-0.1,0-0.1,0-0.1c0,0,0-0.1,0-0.1h0v0l0,0c-0.1,0-0.1,0-0.2,0c-0.1,0-0.1,0.1-0.2,0.1c0,0,0,0-0.1,0.1
				c0,0-0.1,0-0.1,0l0,0c0,0-0.1,0-0.1,0.1c0,0-0.1,0-0.1,0.1l-0.1,0.1c0,0-0.1,0-0.2,0c0,0,0,0.1-0.1,0.1c0,0,0,0,0,0l-0.1,0
				c0,0-0.1,0-0.1,0c0,0-0.1,0.1-0.1,0.1v0c0,0-0.1,0-0.2,0c0,0-0.1,0-0.1,0.1V18c0,0-0.1,0-0.2,0c-0.1,0-0.1,0-0.2,0.1
				c0,0-0.1,0.1-0.1,0.1c0,0,0,0,0,0l0,0c-0.1,0-0.1,0-0.1,0c0,0,0,0-0.1,0.1l-0.1,0.1c-0.1,0-0.1,0-0.2,0v0l0,0
				c-0.1,0-0.1,0.1-0.2,0.1c0,0,0,0-0.1,0.1c0,0-0.1,0-0.1,0.1c0,0.1,0,0.1,0,0.1c0,0,0,0-0.1,0c0,0,0,0-0.1,0.1
				c-0.1,0.1-0.1,0.1-0.2,0.2c-0.1,0-0.2,0.1-0.2,0.1l0,0c0,0,0,0,0,0.1c0,0-0.1,0-0.1,0c0,0,0,0-0.1,0c0,0,0,0.1-0.1,0.1
				c0,0,0,0-0.1,0.1c0,0,0,0.1-0.1,0.1c0,0-0.1,0-0.1,0.1c0,0,0,0-0.1,0.1c0,0,0,0.1,0,0.1c0,0,0,0-0.1,0.1c0,0-0.1,0-0.1,0
				C9.1,20,9,20,9,20c0,0-0.1,0.1-0.1,0.1c0,0,0,0,0,0.1c0,0,0,0.1-0.1,0.1v0.1c-0.1,0-0.1,0-0.1,0c0,0,0,0.1-0.1,0.1v0.1
				c0,0-0.1,0-0.1,0c0,0,0,0-0.1,0.1c0,0,0,0.1-0.1,0.1c0,0-0.1,0-0.1,0.1c0,0,0,0.1,0,0.1c0,0,0,0,0,0c0,0,0,0,0,0.1
				c0,0-0.1,0-0.1,0.1c0,0,0,0.1,0,0.1c0,0,0,0-0.1,0.1c0,0-0.1,0.1-0.1,0.1c0,0,0,0,0,0.1c0,0,0,0-0.1,0.1c0,0-0.1,0-0.1,0
				c0,0,0,0.1,0,0.1c0,0,0,0-0.1,0.1s0,0.1,0,0.1c0,0-0.1,0-0.1,0.1c0,0,0,0-0.1,0.1c0,0,0,0.1-0.1,0.1c0,0,0,0,0,0.1c0,0,0,0-0.1,0
				c0,0,0,0.1,0,0.1c0,0-0.1,0-0.1,0.1c0,0,0,0,0,0.1s0,0.1-0.1,0.1c0,0,0,0,0,0.1c0,0,0,0,0,0.1v0.1c0,0-0.1,0-0.1,0c0,0,0,0,0,0.1
				c0,0-0.1,0-0.1,0.1c0,0,0,0.1,0,0.1c0,0,0,0,0,0.1c0,0,0,0.1,0,0.1c0,0,0,0,0,0c0,0,0,0-0.1,0.1c0,0,0,0.1,0,0.1c0,0,0,0,0,0.1
				v0.1c0,0-0.1,0-0.1,0c0,0,0,0.1,0,0.1c0,0,0,0,0,0.1v0.1c-0.1,0-0.1,0-0.1,0c0,0,0,0,0,0.1c0,0,0,0,0,0.1c0,0,0,0.1,0,0.1
				c0,0-0.1,0.1-0.1,0.1c0,0,0,0-0.1,0c0,0,0,0.1,0,0.1c0,0,0,0-0.1,0.1c0,0,0,0,0,0.1c0,0,0,0.1,0,0.1c0,0,0,0,0,0.1s0,0.1,0,0.1
				c0,0,0,0,0,0.1v0c-0.1,0-0.1,0-0.1,0c0,0,0,0,0,0.1c0,0,0,0.1,0,0.1v0c-0.5,0-1.1,0-1.6,0c-0.1,0-0.1-0.1-0.2-0.1v-0.1
				c-0.1,0-0.1,0-0.1,0c-0.1,0-0.2,0-0.2-0.1c0,0,0-0.1,0-0.1l0,0c-0.1,0-0.2,0-0.2-0.1v-0.1c-0.1,0-0.1,0-0.2,0c0,0,0,0-0.1-0.1
				L3.2,24c0,0,0,0-0.1,0c0,0-0.1,0-0.2-0.1c0,0,0-0.1,0-0.1c0,0-0.1,0-0.1,0c0,0,0,0,0-0.1c0,0-0.1,0-0.1-0.1c0,0-0.1-0.1-0.1-0.1
				c0,0-0.1,0-0.1-0.1c0,0,0-0.1-0.1-0.1c0,0-0.1,0-0.1-0.1c0,0,0,0,0-0.1c0,0-0.1,0-0.1,0c0,0,0-0.1,0-0.1c0,0-0.1,0-0.1-0.1v0
				c0,0-0.1-0.1-0.1-0.1c0,0,0,0-0.1-0.1c0,0-0.1,0-0.1,0c0,0,0-0.1,0-0.1c0,0,0,0-0.1-0.1c-0.1,0-0.1,0-0.1-0.1c0,0,0-0.1,0-0.1
				c0,0-0.1,0-0.1-0.1c0,0,0-0.1-0.1-0.1c0,0,0,0,0-0.1l0,0c-0.1,0-0.1,0-0.1-0.1c0,0,0-0.1,0-0.1l0,0c-0.1,0-0.1,0-0.1-0.1
				c0,0,0-0.1,0-0.1c0,0,0,0,0,0c0,0,0,0,0-0.1s0-0.1,0-0.1c0,0-0.1,0-0.1,0c0,0,0,0,0-0.1c0,0,0-0.1,0-0.1v0c0,0-0.1,0-0.1-0.1
				c0,0,0,0,0-0.1v-0.1c0,0,0,0,0-0.1c0,0,0,0,0-0.1c0,0,0-0.1,0-0.1s0,0,0-0.1s0,0,0-0.1c0,0,0-0.1,0-0.1s0,0,0-0.1v0
				c0,0,0-0.1,0-0.1c0,0,0,0,0-0.1s0,0,0-0.1c0-0.1,0-0.1,0-0.2c0,0,0-0.1,0-0.1c0,0,0,0,0-0.1v0c0,0,0,0,0-0.1c0,0,0-0.1,0-0.1
				s0,0,0-0.1c0,0,0-0.1,0-0.1c0,0,0-0.1,0-0.1c0,0,0-0.1,0-0.1c0,0,0,0,0.1,0v0c0-0.1,0-0.3,0-0.4c0-0.1,0-0.3,0-0.4
				c0-0.2,0-0.3,0-0.4c0-0.2,0-0.3,0-0.4c0-0.2,0-0.3,0-0.5c0-0.1,0-0.3,0-0.4c0-0.2,0-0.3,0-0.4c0-0.2,0-0.3,0-0.4
				c0-0.2,0-0.3,0-0.5c0-0.1,0-0.2,0-0.4c0-0.1,0-0.3,0-0.4c0,0,0,0,0-0.1c0,0,0,0-0.1,0c0,0,0,0,0-0.1v-0.1c0,0,0,0,0-0.1
				c0,0,0,0,0-0.1c0,0,0-0.1,0-0.1c0,0,0,0,0-0.1c0,0,0,0,0-0.1c0,0,0-0.1,0-0.1s0,0,0-0.1v0c0,0,0-0.1,0-0.1c0,0,0,0,0-0.1
				c0,0,0,0,0-0.1c0,0,0-0.1,0-0.1s0,0,0-0.1c0,0,0-0.1,0-0.1c0,0,0,0,0-0.1v0c0,0,0,0,0-0.1c0,0,0-0.1,0-0.1c0,0,0,0,0-0.1
				c0-0.1,0-0.1,0-0.1c0.5,0,1.1,0,1.6,0c0,0,0,0.1,0,0.1c0,0,0.1,0,0.1,0.1c0,0,0.1,0,0.1,0c0,0,0,0.1,0,0.1c0,0,0.1,0,0.1,0.1
				c0.1,0,0.1,0,0.2,0c0,0,0,0,0,0.1c0,0,0,0.1,0.1,0.1c0,0,0.1,0,0.2,0c0,0,0,0,0,0.1c0.1,0,0.1,0.1,0.2,0.1c0.1,0,0.1,0,0.2,0
				c0,0,0,0,0,0.1c0.1,0,0.2,0.1,0.2,0.1c0.1,0,0.3,0,0.4,0c0,0,0,0,0,0.1c0.1,0,0.2,0.1,0.3,0.1c0.4,0,0.7,0,1.1,0
				c0.1,0,0.2-0.1,0.3-0.1c0,0,0.1,0,0.1-0.1h0c0.1,0,0.3,0,0.4,0c0.1,0,0.2-0.1,0.3-0.1c0,0,0,0,0-0.1h0c0.1,0,0.3,0,0.4,0
				c0.1,0,0.3-0.1,0.4-0.1c0,0,0,0,0-0.1c0.1,0,0.3,0,0.4,0c0.1,0,0.1-0.1,0.2-0.1c0,0,0,0,0-0.1h0c0.1,0,0.1,0,0.2,0
				c0.1,0,0.2,0,0.3-0.1c0,0,0-0.1,0-0.1h0.1c0,0,0.1,0,0.1,0c0.1,0,0.2,0,0.4-0.1c0,0,0-0.1,0-0.1h0c0.1,0,0.1,0,0.2,0
				c0.1,0,0.2,0,0.3-0.1c0,0,0-0.1,0-0.1c0.1,0,0.2,0,0.3,0c0.1,0,0.1,0,0.2-0.1c0,0,0-0.1,0-0.1c0,0,0.1,0,0.2,0c0,0,0.1,0,0.2-0.1
				c0,0,0-0.1,0-0.1c0.1,0,0.2,0,0.3,0c0,0,0.1,0,0.2-0.1c0,0,0,0,0-0.1h0c0,0,0.1-0.1,0.1-0.1c0.1,0,0.1,0,0.1-0.1c0,0,0,0,0.1-0.1
				c0,0,0.1-0.1,0.1-0.1v0c0.1,0,0.1,0,0.2,0c0,0,0,0,0.1-0.1l0.1-0.1c0,0,0.1,0,0.2,0c0,0,0,0,0-0.1c0,0,0.1,0,0.1,0
				c0,0,0.1-0.1,0.1-0.1c0,0,0,0,0-0.1h0c0,0,0.1,0,0.2,0c0,0,0.1-0.1,0.1-0.1c0,0,0.1,0,0.1-0.1c0,0,0,0,0.1,0v0
				c0.1,0,0.1-0.1,0.2-0.1c0,0,0,0,0-0.1h0c0,0,0.1,0,0.1,0c0.1,0,0.1,0,0.2-0.1c0,0,0-0.1,0-0.1h0c0,0,0.1,0,0.2,0c0,0,0,0,0.1-0.1
				c0,0,0-0.1,0.1-0.1c0,0,0.1,0,0.1,0v0c0,0,0.1,0,0.1,0c0,0,0-0.1,0-0.1h0.1c0,0,0.1,0,0.1,0c0.1,0,0.1,0,0.1-0.1c0,0,0-0.1,0-0.1
				h0c0,0,0.1,0,0.2,0c0,0,0,0,0.1-0.1c0,0,0,0,0-0.1c0.1,0,0.1-0.1,0.2-0.1c0.1,0,0.1,0,0.2-0.1c0,0,0,0,0-0.1h0
				c0,0,0.1-0.1,0.1-0.1c0,0,0.1-0.1,0.2-0.1c0,0,0,0,0-0.1c0.1,0,0.1-0.1,0.2-0.1c0,0,0.1,0,0.2-0.1c0,0,0,0,0-0.1h0
				c0,0,0.1,0,0.2,0c0,0,0.1-0.1,0.1-0.1c0,0,0,0,0-0.1c0.1,0,0.2,0,0.2,0c0.1,0,0.1-0.1,0.2-0.1c0,0,0,0,0-0.1h0.1c0,0,0.1,0,0.2,0
				c0.1,0,0.1-0.1,0.2-0.1c0,0,0,0,0-0.1c0.1,0,0.2,0,0.4,0c0,0,0.1-0.1,0.2-0.1c0,0,0,0,0-0.1h0c0,0,0.1,0,0.2,0c0,0,0.1,0,0.2-0.1
				c0,0,0-0.1,0-0.1h0c0,0,0.1,0,0.1,0c0.1,0,0.1,0,0.1-0.1c0,0,0-0.1,0-0.1h0c0.1,0,0.2,0,0.2,0h0.1c0,0,0,0,0-0.1s0-0.1,0-0.1
				c0.1,0,0.1,0,0.3,0c0,0,0.1,0,0.2,0c0,0,0,0,0.1,0c0,0,0,0,0.1,0V8.1h0.1c0,0,0,0,0.1-0.1c0.2,0,0.3,0,0.5-0.1
				c0-0.1,0.1-0.1,0.1-0.1c0.2,0,0.4,0,0.7-0.1c0-0.1,0-0.1,0.1-0.1C20.4,7.6,20.5,7.6,20.6,7.5C20.6,7.5,20.6,7.5,20.6,7.5z
				 M19.8,17.1L19.8,17.1L19.8,17.1l0,0.1c0,0,0,0,0,0v0h-0.1v0.1c0,0,0,0,0,0v0l0,0v0.1l0,0.1v0.1h0v0c0,0,0,0,0,0v0.1l-0.1,0v0.1
				h0V18h0v0.2h0v0.1c0,0,0,0,0,0v0.2c0,0-0.1,0-0.1,0v0.2h0V19l0,0v0.6c-0.2,0-0.4,0-0.6,0v0h0v-0.1l0,0v-0.1h0v0l0-0.1v-0.1h0
				v-0.1l-0.1-0.1v-0.1l0,0v-0.2l0,0v-0.2l0,0v0c0-0.1,0-0.1,0-0.1c0,0,0-0.1,0-0.1c0-0.1,0-0.1,0-0.1c0,0,0-0.1,0-0.1
				c0-0.1,0-0.1,0-0.1s0,0,0-0.1c0,0,0-0.1,0-0.1c0,0,0,0,0-0.1s0,0,0-0.1c0-0.1,0-0.1,0-0.1c0,0,0,0,0-0.1c0,0,0-0.1,0-0.1
				s0,0,0-0.1v0h0l-0.1,0c0,0,0,0,0,0L18,17.6v0l-0.2,0.2v0l0,0v0.1L17.7,18v0l0,0v0.1l0,0.1v0.2l0,0.1v0.3l0,0v0.2l0,0V19l0,0v0.1
				l0.1,0v0.1l0,0v0l0.1,0.1v0.1h0l0.1,0.1v0h0l0.1,0.1h0v0h0l0,0h0l0.1,0h0v0.1h0l0,0h0l0,0c0,0,0.1,0,0.1,0v0c0,0,0,0,0.1,0v0h0
				l0.1,0.1h0c0.1,0,0.1,0,0.2,0v0h0v0h0v0h0v0h0v0c0.1,0,0.1,0,0.2,0l0,0.1c0,0,0.1,0,0.1,0l0,0c0,0,0.1,0,0.1,0v0c0,0,0.1,0,0.1,0
				l0,0h0l0,0c0.2,0,0.4,0,0.6,0v0.1c0.1,0,0.3,0,0.4,0v-0.1c0,0,0.1,0,0.1,0v0c0.1,0,0.2,0,0.4,0v0c0,0,0.1,0,0.1,0v0
				c0,0,0.1,0,0.1,0v0c0,0,0.1,0,0.1,0v-0.1c0,0,0.1,0,0.1,0v0h0v0c0,0,0.1,0,0.1,0l0,0c0,0,0,0,0.1,0v0c0,0,0.1,0,0.1,0v0
				c0,0,0.1,0,0.1,0l0.1-0.1c0,0,0,0,0.1,0v0c0,0,0,0,0.1,0l0,0c0,0,0.1,0,0.1,0v0l0.1-0.1c0,0,0.1,0,0.1,0l0.1-0.1h0c0,0,0,0,0,0
				l0.1,0c0,0,0,0,0.1,0v-0.1c0,0,0,0,0,0c0,0,0.1,0,0.1,0v0l0.1-0.1c0,0,0,0,0.1,0c0,0,0-0.1,0.1-0.1c0,0,0,0,0,0l0,0h0l0,0h0.1
				l0,0v-0.1c0,0,0,0,0,0v0h0v0c0,0,0,0,0,0v-0.2h0v0l0.1,0v-0.1h0v0c0,0,0,0,0,0v0c0,0,0,0,0,0v0l0-0.1c0,0,0,0,0.1,0v-0.1h0v-0.2
				c0,0,0,0,0,0v-0.1l-0.1,0V18c0,0,0-0.1,0-0.1v-0.1l0,0v0l0,0v-0.1l0,0v0l-0.1,0v0l-0.2-0.2v0l-0.1-0.1h0l0,0v0h0l-0.1-0.1
				c0,0,0,0-0.1,0L23.1,17c0,0-0.1,0-0.1,0C21.9,17,20.9,17,19.8,17.1C19.8,17,19.8,17,19.8,17.1C19.8,17.1,19.8,17.1,19.8,17.1z
				 M19.1,20C19.1,19.9,19.1,19.9,19.1,20c0.1-0.1,0.1-0.1,0.2-0.1C19.2,19.9,19.1,19.9,19.1,20z M2.3,19.4
				C2.3,19.3,2.3,19.3,2.3,19.4c0.1-0.1,0.1-0.1,0.1-0.1c0,0,0,0-0.1,0V19.4C2.3,19.3,2.3,19.3,2.3,19.4z"/>
		</g>
	</g>
</g>
<g id="guides">
</g>
<g id="Flash_2_">
	<path fill="#FFFFFF" d="M112.6,12.4c0,2.2-0.8,4.2-2.4,5.8c-1.6,1.6-3.5,2.4-5.8,2.4c-2.2,0-4.2-0.8-5.8-2.4
		c-1.6-1.6-2.4-3.5-2.4-5.8c0-0.6,0.1-1.1,0.2-1.7c0.2-0.1,0.4-0.1,0.6-0.3c0.8-0.4,1.5-0.8,2.3-1.1c0.1,0,0.3-0.1,0.4-0.2
		c-0.7,1-1.1,2.1-1,3.4c0,1.6,0.6,3,1.7,4.1c1.1,1.1,2.5,1.7,4.1,1.7c1.6,0,3-0.6,4.1-1.7c1.1-1.1,1.7-2.5,1.7-4.1
		c0-1.6-0.5-2.9-1.6-4.1c0.7,0.2,1.4,0.4,2.1,0.8c0,0,0,0,0,0c0.4,0.2,0.8,0.4,1.2,0.5C112.5,10.6,112.6,11.5,112.6,12.4z"/>
	<path fill="#FFFFFF" d="M120.4,19.4c-0.7-1.1-1.5-2.2-2.4-3.2c-0.2,0.2-0.4,0.4-0.6,0.6c-3.8,3.8-8.4,5.7-13.8,5.7
		s-10-1.9-13.9-5.7l-0.1,0.1c0.7,1.1,1.6,2.1,2.5,3.1c3.8,3.8,8.4,5.7,13.9,5.7c5.4,0,10-1.9,13.8-5.7
		C120.1,19.8,120.3,19.6,120.4,19.4L120.4,19.4z"/>
	<path fill="#FFFFFF" d="M118,16.2c0.9,1,1.7,2.1,2.4,3.2c0.7-0.7,1.3-1.4,1.8-2.1c-0.6-1-1-1.6-2.4-3.2
		C119.3,14.8,118.7,15.5,118,16.2L118,16.2z"/>
	<polygon fill="#FF0000" points="108.7,14 106.4,15.2 106,17.8 104.2,15.9 101.6,16.3 102.8,14 101.6,11.7 104.2,12.1 106,10.2 
		106.4,12.8 	"/>
	<path fill="#FFFFFF" d="M117.5,15.6c0.2,0.2,0.4,0.4,0.6,0.6c0.6-0.7,1.2-1.4,1.8-2.2c-0.2-0.2-0.4-0.4-0.6-0.6
		c-3.8-3.8-8.4-5.7-13.8-5.7c-5.4,0-10,1.9-13.9,5.7c-0.8,0.9-1.6,1.8-2.3,2.7l0.1,0.1c0.1-0.2,0.3-0.4,0.5-0.5
		c3.8-3.8,8.4-5.7,13.9-5.7S113.6,11.8,117.5,15.6L117.5,15.6z"/>
</g>
</svg>
