<?xml version="1.0" encoding="utf-8"?>
<!-- Generator: Adobe Illustrator 21.0.2, SVG Export Plug-In . SVG Version: 6.00 Build 0)  -->
<svg version="1.1" id="Слой_1" xmlns="http://www.w3.org/2000/svg" xmlns:xlink="http://www.w3.org/1999/xlink" x="0px" y="0px"
	 width="134px" height="32px" viewBox="0 0 134 32" enable-background="new 0 0 134 32" xml:space="preserve">
<g id="Selected_Items">
	<g>
		<g id="Selected_Items_44_">
			<path fill="#FFFFFF" d="M96.9,14.2c0,0,0,0.1,0,0.1v0c0,0,0,0.1,0,0.1c0,0,0,0,0,0.1c0,0,0,0,0,0.1c0,0,0,0.1,0,0.1v0
				c0,0,0,0.1,0,0.1c0,0,0,0,0,0.1s0,0.1,0,0.1c0,0,0,0.1,0,0.1c0,0,0,0,0,0.1v0.1c-0.1,0-0.1,0-0.2,0c-1.2,0-2.4,0-3.5,0v0.1
				c-0.1,0-0.3,0-0.4,0v-0.1c-1.7,0-3.3,0-5,0c0,0,0,0.1,0,0.1c0,0,0,0.1,0,0.1c0,0,0,0.1,0,0.1v0c-0.1,0-0.1,0-0.2,0v-0.1
				c-0.1,0-0.1,0-0.1,0v0c0,0,0-0.1,0-0.1v0c0,0,0-0.1,0-0.1c-0.1,0-0.3,0-0.5,0v0.1c-0.1,0-0.1,0-0.2,0v-0.1c-0.1,0-0.3,0-0.5,0
				c0,0,0,0.1,0,0.1v0.1c0,0,0,0.1,0,0.1c-0.1,0-0.1,0-0.2,0c0,0-0.1,0-0.1,0v0c-0.1,0-0.1,0-0.2,0v0c0,0,0-0.1,0-0.1
				c0-0.1,0-0.1,0-0.1c0,0,0-0.1,0-0.1c0,0,0-0.1,0-0.1c-3,0-5.9,0-8.8,0c0,0,0,0,0,0c0,0,0,0,0,0c0,0,0,0-0.1,0h-0.1v0.3
				c-0.1,0-0.2,0-0.3,0c-4.5,0-8.9,0-13.4,0v0.4c0,0,0,0-0.1,0v0.6c0,0,0.1,0,0.1,0v0.3c0,0-0.1,0-0.1,0l0,0h0c0,0,0,0,0,0v0
				c0,0,0,0,0,0c-0.1,0-0.3,0-0.4,0v0.1c-0.1,0-0.2,0-0.4,0v-0.3c-0.2,0-0.5,0-0.7,0v0.3c-0.1,0-0.2,0-0.3,0v-0.3
				c-0.1,0-0.3,0-0.5,0v0.3c-0.1,0-0.3,0-0.4,0v-0.3c-0.2,0-0.4,0-0.6,0v0.3c-0.1,0-0.3,0-0.4,0v-0.3c-0.2,0-0.3,0-0.5,0v0.3
				c-0.2,0-0.3,0-0.4,0v-0.3c-0.2,0-0.4,0-0.6,0v0.3c-0.1,0-0.2,0-0.3,0v-0.3h-0.2c-0.1,0-0.2,0-0.3,0v0.3c-0.1,0-0.2,0-0.3,0v-0.3
				c-0.2,0-0.4,0-0.6,0v0.3c-0.1,0-0.2,0-0.3,0v-0.3c-0.2,0-0.3,0-0.5,0v0.3c-0.1,0-0.3,0-0.4,0v-0.3c-0.2,0-0.3,0-0.5,0v0.3
				c-0.1,0-0.3,0-0.4,0v-0.3c-0.2,0-0.3,0-0.5,0v0.2c-0.1,0-0.2,0-0.3,0v-0.2c-0.2,0-0.3,0-0.5,0v0.3c-0.1,0-0.2,0-0.3,0v-0.3
				c-0.1,0-0.3,0-0.5,0v0.3c-0.1,0-0.2,0-0.3,0v-0.3c-0.2,0-0.4,0-0.6,0v0.2c-0.1,0-0.3,0-0.4,0v-0.2c-0.1,0-0.3,0-0.5,0v0.3
				c-0.1,0-0.2,0-0.3,0v-0.3c-0.2,0-0.4,0-0.6,0v0.3c-0.4,0-0.8,0-1.2,0v-0.3c-0.1,0-0.3,0-0.4,0v0.1l0,0v0l0,0v0.1c0,0,0,0,0,0
				c0,0,0,0,0,0h0c-0.1,0-0.2,0-0.3,0c-0.1,0-0.1,0-0.2,0c0,0-0.1,0-0.1,0l0,0c0,0-0.1,0-0.1,0l0,0h0c-0.1,0-0.1,0-0.2,0
				c0,0-0.1,0-0.1,0l0,0v0c0,0,0,0-0.1,0l-0.1,0c0,0,0,0,0,0l-0.1,0.1h0c0,0,0,0,0,0v0.1l0,0h0v0c0,0,0,0,0,0.1v0c0,0,0,0,0,0.1v0.5
				c0,0,0,0,0,0.1c0,0,0,0.1,0,0.1c0,0,0,0.1,0,0.1v0.1c0,0,0,0.1,0,0.1c0,0,0,0.1,0,0.1c0,0,0,0.1,0,0.1s0,0.1,0,0.1c0,0,0,0,0,0.1
				v0l0.1,0.1h0c0,0,0,0,0.1,0c0,0,0,0,0,0l0,0c0,0,0,0,0,0v0.7h0c0,0,0,0,0,0v0h0c-0.1,0-0.2,0-0.3,0v0.1c0,0-0.1,0-0.1,0
				c0,0,0,0-0.1,0v0c0,0.1,0,0.1,0,0.2c0,0.1,0,0.1,0,0.2c0,0,0,0.1,0,0.2c0,0.1,0,0.2,0,0.2c0,0.1,0,0.1,0,0.2c0,0.1,0,0.1,0,0.2
				s0,0.1,0,0.2s0,0.1,0,0.2c0,0.1,0,0.1,0,0.2c0,0.1,0,0.2,0,0.3c0,0,0,0.1,0,0.2c0,0.1,0,0.1,0,0.2c0,0.1,0,0.1,0,0.2s0,0.1,0,0.2
				c0,0.1,0,0.1,0,0.2c0,0,0,0.1,0,0.2c0,0.1,0,0.2,0,0.2c0,0.1,0,0.1,0,0.2s0,0.1,0,0.2c0,0.1,0,0.1,0,0.2c0,0,0,0.1,0,0.2
				c0,0.1,0,0.1,0,0.2c0,0.1,0,0.2,0,0.3c0,0,0,0.1,0,0.2c0,0.1,0,0.1,0,0.2c0,0.1,0,0.1,0,0.2c0,0.1,0,0.1,0,0.2c0,0.1,0,0.2,0,0.3
				c0,0,0,0.1,0,0.2c0,0.1,0,0.2,0,0.2c0,0.1,0,0.1,0,0.2c0,0,0,0.1,0,0.2c0,0.1,0,0.1,0,0.2c0,0,0,0.1,0,0.1V28c0,0.1,0,0.1,0,0.2
				v0.1c0,0,0,0.1,0,0.1c0,0,0,0,0,0.1c0,0,0,0,0.1,0v0.2c-2.2,0-4.3,0-6.5,0c0,0-0.1,0-0.1,0c0,0-0.1,0-0.1,0v-0.1c0,0,0,0,0-0.1
				s0,0,0-0.1v-0.1c0,0,0,0,0-0.1v0c0,0,0,0,0-0.1v0c0,0,0,0,0-0.1h0v0c-0.1,0-0.2,0-0.3,0v-0.4c0,0,0,0,0.1,0c0-0.1,0-0.2,0-0.2
				c0-0.1,0-0.1,0-0.2c0-0.1,0-0.1,0-0.2c0-0.1,0-0.1,0-0.2c0,0,0-0.1,0-0.2c0-0.1,0-0.1,0-0.2c0-0.1,0-0.2,0-0.3c0,0,0-0.1,0-0.2
				c0-0.1,0-0.1,0-0.2s0-0.1,0-0.2c0-0.1,0-0.1,0-0.2c0-0.1,0-0.2,0-0.3c0,0,0-0.1,0-0.2c0-0.1,0-0.2,0-0.2c0-0.1,0-0.1,0-0.2
				c0-0.1,0-0.1,0-0.2c0-0.1,0-0.1,0-0.2c0,0,0-0.1,0-0.2c0-0.1,0-0.1,0-0.2c0-0.1,0-0.2,0-0.3c0,0,0-0.1,0-0.2c0-0.1,0-0.1,0-0.2
				c0-0.1,0-0.1,0-0.2s0-0.1,0-0.2c0-0.1,0-0.2,0-0.3c0,0,0-0.1,0-0.2c0-0.1,0-0.1,0-0.2c0,0-0.1,0-0.1,0c-0.1,0-0.2,0-0.3,0h0
				c0,0,0,0-0.1,0c0,0,0,0,0,0h0c0,0-0.1,0-0.1,0c0,0-0.1,0-0.1,0v0.1c-1.6,0-3.2,0-4.8,0c-0.1,0-0.3,0-0.4,0v0.2l-0.1,0.1v0l0,0v0
				h0l0,0v0.1h0c0,0,0,0,0,0v0.1c0,0,0,0,0,0v0.1h0l-0.1,0.1v0c0,0,0,0,0,0v0h0v0.1h0v0c0,0,0,0,0,0v0h-0.1v0.1h0v0.1l0,0v0
				c0,0,0,0,0,0v0h0v0c0,0,0,0,0,0V24c0,0,0,0-0.1,0c-0.2,0-0.4,0-0.6,0l0,0v0.1c0,0,0,0,0,0v0c0,0,0,0,0,0l0,0v0h0v0c0,0,0,0,0,0v0
				l0,0v0h0v0h0v0.1l0,0v0h0v0c0,0,0,0,0,0v0h0v0c0,0,0,0,0,0c0,0,0,0,0,0V25h0v0.2c0,0,0,0,0,0c0,0,0,0,0,0v0c0,0,0,0-0.1,0v0.1h0
				v0.1l0,0v0c0,0,0,0,0,0v0c0,0,0,0,0,0v0l0,0c0,0,0,0,0,0v0.1c0,0,0,0,0,0l0,0c0,0,0,0,0,0v0l0,0v0h0v0c0,0-0.1,0-0.1,0v0l0,0
				c0,0,0,0,0,0v0c0,0,0,0,0,0v0c0,0,0,0,0,0v0.1c0,0,0,0,0,0v0h0l0,0v0c0,0,0,0,0,0v0h0v0.5l0,0c0,0,0,0,0,0v0h0v0.1l0,0v0.1l0,0
				c0,0,0,0-0.1,0v0c-0.2,0-0.4,0-0.6,0c0,0-0.1,0-0.1,0c0,0,0,0-0.1,0c0,0,0,0-0.1,0c0,0-0.1,0-0.1,0c-0.1,0-0.1,0-0.2,0v0
				c-0.1,0-0.1,0-0.2,0c-0.1,0-0.1,0-0.2,0s-0.1,0-0.1,0c0,0-0.1,0-0.1,0c-0.1,0-0.1,0-0.2,0c0,0-0.1,0-0.1,0c0,0-0.1,0-0.1,0
				c0,0-0.1,0-0.1,0c-0.1,0-0.1,0-0.1,0c0,0-0.1,0-0.1,0c-0.1,0-0.1,0-0.2,0c0,0-0.1,0-0.1,0c0,0-0.1,0-0.1,0v0c0,0-0.1,0-0.1,0
				c0,0-0.1,0-0.1,0c0,0-0.1,0-0.1,0c0,0-0.1,0-0.1,0c0,0-0.1,0-0.1,0c0,0-0.1,0-0.1,0c-0.1,0-0.1,0-0.1,0c0,0,0,0-0.1,0
				c0,0-0.1,0-0.1,0c0,0-0.1,0-0.1,0c-0.1,0-0.1,0-0.2,0l0,0v-0.4h0V26c0,0,0,0,0,0h0c0,0,0,0,0,0v0l0,0v0c0,0,0,0,0.1,0v-0.1h0v0
				c0,0,0.1,0,0.1,0v-0.1h0v0c0,0,0,0,0.1,0v-0.1h0c0,0,0,0,0,0v0h0v-0.1h0v-0.1c0,0,0,0,0,0v0h0v0c0,0,0,0,0.1,0V25h0c0,0,0,0,0,0
				l0,0v0l0,0c0,0,0,0,0,0v-0.1c0,0,0,0,0,0v0h0.1v-0.1l0.1-0.1v-0.1c0,0,0,0,0,0c0,0,0,0,0,0h0c0,0,0,0,0,0v-0.1l0.1-0.1v0l0.1-0.1
				c0,0,0,0,0,0v0h0.1v-0.1l0,0v-0.1l0,0v-0.1h0v0h0l0.1,0v-0.1l0,0v-0.1h0v0c0,0,0,0,0,0v0h0l0,0v-0.1h0v-0.1h0l0,0v-0.1
				c0,0,0,0,0.1,0h0v-0.1h0c0,0,0,0,0,0v-0.1h0v0l0,0h0v-0.1c0,0,0,0,0,0v-0.1l0,0c0,0,0,0,0,0v-0.1h0.1V22c0,0,0,0,0.1,0
				c0,0,0,0,0,0v0c0,0,0,0,0,0v-0.1l0,0h0l0.1-0.1v-0.1c0,0,0,0,0.1,0c0,0,0,0,0,0v-0.1h0v0l0,0v0h0c0,0,0,0,0,0v0l0,0c0,0,0,0,0,0
				v-0.1h0v0l0,0c0,0,0,0,0,0h0v0l0,0v-0.1h0v-0.1h0v0l0,0c0,0,0,0,0,0h0l0.1-0.1v0c0,0,0,0,0,0v0h0v-0.1c0,0,0,0,0,0l0,0v0l0,0v0h0
				l0,0c0,0,0,0,0,0l0,0v0c0,0,0,0,0.1,0v0h0.1v-0.1h0v-0.1l0,0v-0.1h0c0,0,0,0,0,0v-0.3h0v-0.1l0,0V19c0,0,0,0-0.1,0v0c0,0,0,0,0,0
				v0l0,0c0,0,0,0,0,0v0l0,0h0L29,18.6v0h0c0,0,0,0-0.1,0l0,0v-0.1c0,0-0.1,0-0.1,0l0,0c0,0,0,0,0,0c0,0,0,0-0.1,0c0,0,0,0,0,0h0v0
				c0,0,0,0,0,0c0,0,0,0,0,0c0,0,0,0-0.1,0c-1.2,0-2.4,0-3.5,0v0c0,0,0,0,0,0v0c0,0,0,0,0,0l-0.1-0.1c0,0,0,0-0.1,0h0c0,0,0,0-0.1,0
				c0,0,0,0,0,0c0,0-0.1,0-0.1,0v0c0,0,0,0-0.1,0h-0.1c-0.3,0-0.7,0-1,0v-0.1c-0.8,0-1.5,0-2.3,0c0,0,0,0-0.1,0c-0.2,0-0.4,0-0.6,0
				h0l-0.1,0.1c0,0,0,0,0,0c0,0,0,0,0,0h0c0,0,0,0,0,0h0v0l0,0c0,0,0,0,0,0c0,0,0,0,0,0v0l0,0c0,0,0,0,0,0v0.1c0,0,0,0-0.1,0l0,0h0
				v0l0,0c0,0,0,0,0,0c0,0,0,0,0,0h0c0,0,0,0-0.1,0v0c0,0,0,0,0,0h0v0c0,0,0,0-0.1,0c0,0,0,0-0.1,0s0,0,0,0h0v0.1l0,0v0c0,0,0,0,0,0
				v0c0,0,0,0,0,0c0,0,0,0,0,0h0c0,0,0,0,0,0v0c0,0,0,0,0,0h0v0.1c0,0,0,0,0,0l-0.1,0.1v0c0,0,0,0,0,0h0c0,0,0,0,0,0h0c0,0,0,0,0,0
				v0c0,0,0,0,0,0c0,0,0,0,0,0h0v0l0,0v0c0,0,0,0,0,0h-0.1v0c0,0,0,0,0,0v0h0v0h0c0,0,0,0,0,0c0,0,0,0-0.1,0h0v0c0,0,0,0,0,0v0h0v0
				l0,0v0l0,0c0,0,0,0,0,0.1v0c0,0,0,0,0,0.1s0,0,0,0c0,0,0,0,0,0.1c0,0,0,0,0,0.1s0,0,0,0.1c0,0,0,0,0,0.1v0.1c0,0,0,0,0,0.1
				c0,0,0,0,0,0.1s0,0,0,0.1c0,0,0,0,0,0.1v0c0,0,0,0.1,0,0.1c0,0,0,0,0,0.1v0c0,0-0.1,0-0.1,0.1c0,0,0,0,0,0.1c0,0,0,0-0.1,0
				c0,0,0,0,0,0.1c0,0,0,0-0.1,0.1s0,0-0.1,0c0,0,0,0,0,0s-0.1,0-0.1,0c0,0,0,0-0.1,0c0,0,0,0-0.1,0c0,0,0,0,0,0c-2.2,0-4.4,0-6.6,0
				c-0.8,0-1.5,0-2.3,0c-0.7,0-1.4,0-2.1,0v0c0,0,0,0-0.1,0v-0.1h0c0,0,0,0,0,0v-0.1c0,0-0.1,0-0.1,0v0c0-0.1,0-0.1,0-0.2v0
				c-0.1,0-0.2,0-0.2,0c0,0,0,0,0-0.1v0c0,0,0,0,0-0.1v0c0,0,0,0,0-0.1c-0.7,0-1.4,0-2.1,0c0,0,0,0.1,0,0.1c0,0.1,0,0.1,0,0.2
				c0,0.1,0,0.1,0,0.2s0,0.1,0,0.2c0,0.1,0,0.2,0,0.3c0,0,0,0.1,0,0.2c0,0.1,0,0.1,0,0.2c0,0.1,0,0.1,0,0.2c0,0.1,0,0.1,0,0.2
				c0,0.1,0,0.1,0,0.2c0,0,0,0.1,0,0.2c0,0,0,0,0,0.1v0.4c-0.1,0-0.2,0-0.4,0v0c-0.3,0-0.7,0-1,0v0.3c0,0,0,0-0.1,0v0.4h0
				c0,0,0,0-0.1,0c-0.1,0-0.3,0-0.5,0c0,0,0,0,0,0l0,0h0c0,0-0.1,0-0.1,0l0,0c0,0,0,0-0.1,0c-0.1,0-0.2,0-0.2,0c-0.1,0-0.2,0-0.3,0
				v0c0,0,0-0.1,0-0.1c0,0,0-0.1,0-0.1v-0.1c0,0,0-0.1,0-0.1c0,0,0-0.1,0-0.1c0,0,0,0,0-0.1c0,0,0-0.1,0-0.1c0,0,0-0.1,0-0.1
				c0,0,0-0.1,0-0.1c0,0,0-0.1,0-0.1c0,0,0-0.1,0-0.1c0,0,0-0.1,0-0.1c0,0,0-0.1,0-0.1c0,0,0-0.1,0-0.1c0,0,0-0.1,0-0.1
				c0,0,0,0,0-0.1c0,0,0-0.1,0-0.1c0,0,0-0.1,0-0.1c0,0,0.1,0,0.2,0v-0.3c0,0,0,0,0,0v0c0,0,0-0.1,0-0.2c0-0.1,0-0.1,0-0.2
				c0-0.1,0-0.1,0-0.2s0-0.1,0-0.2s0-0.1,0-0.2c0-0.1,0-0.1,0-0.2c0-0.1,0-0.1,0-0.2c0-0.1,0-0.2,0-0.3c0,0,0-0.1,0-0.2
				c0-0.1,0-0.1,0-0.2s0-0.1,0-0.2c0-0.1,0-0.1,0-0.2c0-0.1,0-0.1,0-0.2c0,0,0-0.1,0-0.2c0-0.1,0-0.2,0-0.2c0-0.1,0-0.1,0-0.2
				c0-0.1,0-0.1,0-0.2c0-0.1,0-0.1,0-0.2s0-0.1,0-0.2c0-0.1,0-0.1,0-0.2c0-0.1,0-0.2,0-0.3c0,0,0-0.1,0-0.2c0-0.1,0-0.1,0-0.2
				s0-0.1,0-0.2s0-0.1,0-0.2c0-0.1,0-0.2,0-0.3c0,0,0-0.1,0-0.2c0-0.1,0-0.2,0-0.2c0-0.1,0-0.1,0-0.2c0-0.1,0-0.1,0-0.2
				c0-0.1,0-0.1,0-0.2h0v0l0,0c0,0,0-0.1,0-0.1c0,0,0,0,0-0.1c0,0,0,0,0-0.1v0c0,0,0-0.1,0-0.1c0,0,0,0,0-0.1c0,0,0-0.1,0-0.1v0
				c0,0,0,0,0-0.1v0c0,0,0,0,0-0.1c0,0,0,0,0-0.1c0,0,0,0,0-0.1c0,0,0,0,0-0.1V14c0,0,0,0,0-0.1c0,0,0-0.1,0-0.1s0-0.1,0-0.1
				s0-0.1,0-0.1v0c0,0,0,0,0-0.1s0,0,0-0.1v-0.1H0.7c0,0,0,0,0,0v-0.2c0,0,0-0.1,0-0.1v-0.3c-0.1,0-0.1,0-0.2,0v-0.3
				c0.3,0,0.5,0,0.8,0v0c0.3,0,0.5,0,0.8,0v0.3c0,0-0.1,0-0.1,0l0,0c0.5,0,0.9,0,1.4,0v0.3c0,0,0.1,0,0.1,0v0c0,0.1,0,0.1,0,0.2
				c0,0.1,0,0.2,0,0.2c0,0.1,0,0.1,0,0.2c0,0.1,0,0.1,0,0.2c0,0.1,0,0.1,0,0.2c0,0.1,0,0.1,0,0.2c0,0.1,0,0.1,0,0.2
				c0,0.1,0,0.2,0,0.3c0,0.1,0,0.1,0,0.2c0,0.1,0,0.1,0,0.2s0,0.1,0,0.2c0,0.1,0,0.1,0,0.2c0,0.1,0,0.2,0,0.3c0,0,0,0.1,0,0.2
				c0.8,0,1.5,0,2.3,0c0-0.1,0-0.1,0-0.2c0-0.1,0-0.1,0-0.2c0-0.1,0-0.1,0-0.2c0-0.1,0-0.1,0-0.1c0,0,0.1,0,0.1,0c0.1,0,0.1,0,0.2,0
				c1.1,0,2.2,0,3.3,0c0-0.1,0-0.1,0-0.1s0-0.1,0-0.1s0-0.1,0-0.1c0,0,0-0.1,0-0.1c0-0.1,0-0.1,0-0.1c0,0,0-0.1,0-0.1
				c0-0.1,0-0.1,0-0.1v0c-0.9,0-1.9,0-2.8,0v-0.1c-0.1,0-0.2,0-0.4,0v-0.4c0,0,0,0,0,0v-0.3h0v0c0,0,0-0.1,0-0.2c0,0,0-0.1,0-0.1
				c0-0.1,0-0.1,0-0.2c0-0.1,0-0.1,0-0.1c0,0,0-0.1,0-0.2c0-0.1,0-0.1,0-0.1c0-0.1,0-0.1,0-0.2c0-0.1,0-0.1,0-0.1c0-0.1,0-0.1,0-0.2
				c0-0.1,0-0.1,0-0.2c0,0,0-0.1,0-0.1s0-0.1,0-0.2c0,0,0-0.1,0-0.1c0-0.1,0-0.1,0-0.1c0,0,0-0.1,0-0.1c0-0.1,0-0.1,0-0.2
				c0,0,0-0.1,0-0.1c0-0.1,0-0.1,0-0.2c0,0,0,0,0,0v-0.3c0,0,0,0,0,0v-0.1c0,0,0.1,0,0.1,0V9.9c0.1,0,0.1,0,0.1,0V9.8
				c0.1,0,0.1,0,0.2,0c0,0,0,0,0,0c0.1,0,0.2,0,0.4,0c3.1,0,6.3,0,9.4,0c0.1,0,0.2,0,0.3,0c0.4,0,0.9,0,1.3,0h0v0c0.2,0,0.5,0,0.8,0
				c0.2,0,0.4,0,0.6,0h0.2c0.4,0,0.7,0,1.1,0v0c0.1,0,0.2,0,0.3,0l0,0h0l0,0c0,0,0,0,0,0v0.5c0,0,0,0,0,0h0v0.1l0,0v0.1c0,0,0,0,0,0
				l0,0c0,0,0,0,0,0c0,0,0,0,0,0l-0.1,0.1v0L21,10.9v0l-0.1,0.1h0v0.1l-0.1,0v0l-0.1,0.1h0v0l-0.1,0.1v0l-0.1,0.1v0c0,0,0,0,0,0v0
				c0,0,0,0,0,0v0.1c0,0-0.1,0-0.1,0c0,0,0,0,0,0c0,0,0,0,0,0l0,0c0,0,0,0-0.1,0V12c0,0,0,0,0,0v0h0v0.1c0,0,0,0,0,0l-0.1,0.1h0v0
				c0,0,0,0,0,0l0,0c0,0,0,0,0,0v0c0,0,0,0,0,0l-0.1,0.1h0v0l-0.1,0.1v0h0v0.1c0,0,0,0,0,0v0h0c0,0,0,0,0,0h0c0,0,0,0,0,0l0,0v0h0
				l0,0v0h0c0,0,0,0,0,0l-0.1,0.1h0v0l0,0v0h0v0l0,0v0l-0.1,0.1h0l-0.1,0.1c0,0,0,0,0,0h-0.1l-0.1,0.1h0v0c0,0,0,0,0,0v0
				c0,0-0.1,0-0.1,0l0,0c0,0,0,0,0,0l0,0c0,0,0,0-0.1,0c0,0,0,0,0,0c0,0,0,0-0.1,0l0,0v0h-0.1c0,0,0,0,0,0l-0.1,0.1h0v0
				c0,0,0,0-0.1,0h0c0,0-0.1,0-0.1,0v0c0,0-0.1,0-0.1,0c-1.3,0-2.6,0-3.9,0v0.1l0,0v0.1l-0.1,0.1c0,0,0,0,0,0.1s0,0.1,0,0.1v0
				c0,0,0,0.1,0,0.1v0.1c0,0,0,0,0,0.1v0c0,0,0,0.1,0,0.1c0,0,0,0,0,0.1v0c0,0,0,0.1,0,0.1c0.9,0,1.9,0,2.8,0c0.6,0,1.2,0,1.8,0h0
				c0,0,0,0,0,0v0c0,0,0,0,0,0h0c0,0,0,0,0.1,0c0,0,0,0,0,0h0c0,0,0,0,0,0v0c0,0,0,0,0,0c0,0,0,0,0,0h0c0,0,0,0,0,0h0l0.1-0.1h0
				c0,0,0,0,0,0v-0.1c0,0,0,0,0,0v0c0,0,0,0,0,0v0h0c0,0,0,0,0,0l0,0v-0.1c0,0,0,0,0,0h0c0,0,0,0,0.1,0v0c0,0,0,0,0.1,0v0
				c0,0,0,0,0,0v0l0,0h0c0,0,0,0,0,0v-0.1c0,0,0,0,0,0h0v-0.1c0,0,0,0,0,0h0l0,0v0c0,0,0,0,0,0v-0.1h0l0,0c0,0,0,0,0.1,0v0l0,0h0
				c0,0,0,0,0,0h0c0,0,0,0,0,0s0,0,0,0v0h0c0,0,0,0,0,0v-0.1c0,0,0,0,0,0c0,0,0,0,0,0l0,0c0,0,0,0,0.1,0v0l0,0v-0.1c0,0,0,0,0,0
				c0,0,0,0,0,0V13h0l0,0c0,0,0,0,0,0v0c0,0,0,0,0,0h0v0l0,0v0c0,0,0,0,0,0l0,0h0v0h0c0,0,0,0,0,0l0.1-0.1v0c0,0,0,0,0,0
				c0,0,0,0,0,0h0c0,0,0,0,0,0v-0.1h0c0,0,0,0,0,0c0,0,0,0,0,0c0,0,0,0,0,0c0,0,0,0,0,0h0c0,0,0,0,0,0V12c0,0,0,0,0,0c0,0,0,0,0,0v0
				c0,0,0,0,0,0c0,0,0,0,0,0h0c0,0,0,0,0.1,0v0l0,0v0h0c0,0,0,0,0,0c0,0,0,0,0,0v0h0v-0.1c0,0,0,0,0,0h0c0.1,0,0.1,0,0.2,0v0
				c0.2,0,0.4,0,0.7,0h0c0.1,0,0.2,0,0.3,0c0,0,0.1,0,0.1,0c0,0,0.1,0,0.1,0c0.1,0,0.1,0,0.2,0h0c0.3,0,0.5,0,0.8,0h0.3v0h0v0l0,0v0
				l0,0h0.1v0c0,0,0-0.1,0-0.1c0,0,0-0.1,0-0.1c0,0,0-0.1,0-0.1c0,0,0,0,0-0.1v-0.1c0,0,0-0.1,0-0.1c0,0,0-0.1,0-0.1
				c0,0,0-0.1,0-0.1c0,0,0,0,0.1-0.1c0,0,0,0,0.1,0h0v-0.2c0,0,0,0,0,0c0,0,0.1,0,0.1,0c0.6,0,1.1,0,1.7,0V9.8c-0.4,0-0.9,0-1.3,0
				c-0.1,0-0.2,0-0.3,0c0,0,0,0-0.1,0V9.1c0.1,0,0.1,0,0.2,0c0.7,0,1.4,0,2.1,0c0,0,0,0,0,0l0,0c0,0,0,0,0,0v0h0c0,0,0.1,0,0.1,0
				l0,0h0c0,0,0,0,0,0h0c0.2,0,0.3,0,0.5,0c0,0,0,0,0.1,0h0c0,0,0,0,0.1,0v0h0l0,0.1c0,0,0,0,0,0v0.3c0.8,0,1.6,0,2.4,0v0.1
				c0,0,0,0,0.1,0v0.1c0,0,0,0.1,0,0.1v0c0,0,0,0,0,0.1c0,0,0,0.1,0,0.1c0,0,0,0,0,0.1c0,0,0,0,0,0.1v0c0,0,0,0.1,0,0.1v0
				c0,0,0,0.1,0,0.1v0c1.1,0,2.3,0,3.5,0c0-0.1,0-0.1,0-0.1c0-0.1,0-0.1,0-0.2c0-0.1,0-0.1,0-0.2c0-0.1,0-0.1,0-0.2
				c0-0.1,0-0.2,0-0.3c0,0,0-0.1,0-0.2c0-0.1,0-0.1,0-0.2c0-0.1,0-0.1,0-0.2c0-0.1,0-0.1,0-0.2c0-0.1,0-0.2,0-0.3c0-0.1,0-0.1,0-0.2
				c0-0.1,0-0.2,0-0.2c0-0.1,0-0.1,0-0.2c-0.2,0-0.5,0-0.7,0c0,0,0,0,0,0l0,0h0c0,0-0.1,0-0.1,0h0c0,0,0,0,0,0s0,0,0,0v0h0v0
				c0,0,0,0,0,0c0,0,0,0-0.1,0l0,0c0,0,0,0,0,0c0,0-0.1,0-0.1,0l0,0c0,0-0.1,0-0.1,0c-2.2,0-4.3,0-6.5,0v0c-0.1,0-0.2,0-0.3,0H26
				c0-0.1,0-0.1,0-0.1V7.5c0,0,0-0.1,0-0.1v0c0-0.1,0-0.1,0-0.2C26,7,26,7,26,6.9c0-0.1,0-0.1,0-0.2c0-0.1,0-0.1,0-0.2
				c0-0.1,0-0.1,0-0.2c0,0,0-0.1,0-0.1c0-0.1,0-0.1,0-0.2c0-0.1,0-0.1,0-0.2c0,0,0-0.1,0-0.1c0-0.1,0-0.1,0-0.2c0-0.1,0-0.1,0-0.2
				c0,0,0-0.1,0-0.2c0-0.1,0-0.1,0-0.2s0-0.1,0-0.2c0.1,0,0.3,0,0.4,0l0,0c2.2,0,4.4,0,6.5,0v0.1c0,0,0.1,0,0.2,0v0h0.1l0,0
				c0,0,0.1,0,0.1,0l0.1,0h0c0,0,0.1,0,0.1,0V5c0,0,0,0,0.1,0c0,0,0,0,0,0s0,0,0,0c0,0,0,0,0,0h0c0.2,0,0.3,0,0.5,0c0,0,0-0.1,0-0.1
				c0-0.1,0-0.2,0-0.2c0-0.1,0-0.1,0-0.2c0-0.1,0-0.1,0-0.2c0.1,0,0.2,0,0.3,0c0,0,0,0,0.1,0c0.8,0,1.6,0,2.4,0v0.4h0
				c0,0.1,0,0.1,0,0.2c0,0,0,0.1,0,0.1c0.6,0,1.3,0,1.9,0V4.8c0,0,0,0,0.1,0V4.7c0.2,0,0.3,0,0.5,0v0c0,0,0,0-0.1,0V4.1l0,0v0l0,0
				V3.8c0.1,0,0.2,0,0.3,0v0c0,0,0-0.1,0-0.1c0,0,0-0.1,0-0.1c0,0,0-0.1,0-0.1c0,0,0-0.1,0-0.1V3.4l0,0V3.1c0.5,0,1,0,1.5,0v0.2
				c0.1,0,0.1,0,0.2,0v0.5c0,0,0,0,0,0v0.1c0,0,0,0,0,0.1v0c0.1,0,0.2,0,0.2,0v0.7c0.2,0,0.4,0,0.6,0v0.2h0v0h0v0l0,0v0l0,0v0
				c0.4,0,0.9,0,1.3,0c0-0.1,0-0.1,0-0.2c0,0,0-0.1,0-0.1h0V4.4c0.8,0,1.5,0,2.3,0c0.1,0,0.2,0,0.4,0v0.2c0,0,0,0.1,0,0.1v0.1
				c0,0.1,0,0.1,0,0.2c0.7,0,1.4,0,2.1,0h0c0,0,0,0,0,0c0,0,0.1,0,0.1,0v0c0,0,0,0,0.1,0s0,0,0,0c0,0,0.1,0,0.1,0s0.1,0,0.1,0
				c0,0,0.1,0,0.1,0c0,0,0.1,0,0.1,0h0.1c0,0,0,0,0.1,0h0l0,0c0,0,0,0,0.1,0c0,0,0,0,0.1,0l0,0c0,0,0.1,0,0.2,0c0,0,0.1,0,0.1,0
				c0,0,0.1,0,0.1,0h0c0,0,0,0,0,0c0,0,0.1,0,0.2,0v0h0c0,0,0,0,0.1,0l0,0c0,0,0.1,0,0.1,0c0,0,0.1,0,0.1,0h0c0,0,0.1,0,0.2,0h0
				c0,0,0.1,0,0.1,0c0,0,0.1,0,0.1,0h0c0,0,0.1,0,0.1,0c0.1,0,0.1,0,0.1,0l0,0c0,0,0.1,0,0.1,0c0.1,0,0.1,0,0.2,0h0c0,0,0.1,0,0.1,0
				h0c0,0,0.1,0,0.1,0c0.1,0,0.1,0,0.2,0v0h0c0,0,0,0,0.1,0v0c0.1,0,0.2,0,0.3,0c0.1,0,0.1,0,0.2,0h0c0,0,0.1,0,0.2,0h0
				c0,0,0.1,0,0.1,0c0,0,0.1,0,0.1,0c0.1,0,0.1,0,0.2,0c0.1,0,0.1,0,0.2,0l0,0c0,0,0,0,0.1,0h0c0,0,0.1,0,0.1,0c0,0,0,0,0,0l0,0V3.6
				h0v0c0.1,0,0.2,0,0.3,0v0.1c1.9,0,3.8,0,5.7,0h0c0,0,0.1,0,0.1,0c0.1,0,0.2,0,0.4,0v0.2c0,0,0,0.1,0,0.1c0,0,0,0.1,0,0.1
				c0,0.1,0,0.1,0,0.2s0,0.1,0,0.2c0,0.1,0,0.1,0,0.2s0,0.1,0,0.2c0,0.1,0,0.2,0,0.3c0,0,0,0.1,0,0.2c0,0.1,0,0.2,0,0.2
				c0,0.1,0,0.1,0,0.2c0,0,0,0.1,0,0.2c0,0.1,0,0.1,0,0.2c0,0,0,0.1,0,0.2c0,0.1,0,0.1,0,0.2c0,0.1,0,0.1,0,0.2s0,0.1,0,0.2
				c0,0.1,0,0.1,0,0.2c0,0.1,0,0.2,0,0.3c0,0.1,0,0.1,0,0.2c0,0.1,0,0.2,0,0.3c0,0.1,0,0.1,0,0.2c0,0.1,0,0.1,0,0.2s0,0.1,0,0.2
				c0,0,0,0.1,0,0.2c-0.1,0-0.2,0-0.4,0v0c-1.9,0-3.8,0-5.7,0h0c-0.2,0-0.4,0-0.6,0c-0.1,0-0.1,0-0.2,0c0,0,0,0,0,0c0,0-0.1,0-0.2,0
				c0,0,0,0-0.1,0c-0.1,0-0.1,0-0.2,0v0c0,0-0.1,0-0.1,0c0,0-0.1,0-0.1,0l0,0c-0.1,0-0.1,0-0.2,0l-0.1,0c0,0,0,0-0.1,0
				c-0.1,0-0.1,0-0.2,0c0,0-0.1,0-0.1,0c0,0-0.1,0-0.1,0c0,0-0.1,0-0.1,0c0,0-0.1,0-0.1,0c0,0-0.1,0-0.1,0s-0.1,0-0.1,0v0
				c0,0-0.1,0-0.1,0c0,0-0.1,0-0.2,0c0,0-0.1,0-0.1,0c-0.1,0-0.1,0-0.1,0c-0.1,0-0.1,0-0.2,0c0,0-0.1,0-0.1,0C51.1,8,51,8,51,8
				c0,0-0.1,0-0.1,0c0,0-0.1,0-0.1,0c-0.1,0-0.1,0-0.1,0c0,0-0.1,0-0.1,0h0c0,0-0.1,0-0.1,0v0c0,0,0,0-0.1,0v0c0,0,0,0-0.1,0
				c0,0-0.1,0-0.1,0c0,0-0.1,0-0.1,0c0,0-0.1,0-0.1,0c0,0-0.1,0-0.1,0c0,0-0.1,0-0.2,0c-0.9,0-1.8,0-2.8,0v0c0,0-0.1,0-0.1,0
				c0,0.1,0,0.1,0,0.1c0,0.1,0,0.1,0,0.2c0,0.1,0,0.1,0,0.2c0,0.1,0,0.1,0,0.2c0,0.1,0,0.1,0,0.2c0,0.1,0,0.1,0,0.2
				c0,0.1,0,0.2,0,0.3c0,0.1,0,0.1,0,0.2c0,0.1,0,0.1,0,0.2c0,0.1,0,0.1,0,0.2s0,0.1,0,0.2c0,0.1,0,0.2,0,0.3c0,0,0,0.1,0,0.1
				c4.9,0,9.8,0,14.7,0v0c0,0,0-0.1,0-0.1s0,0,0-0.1v0c0,0,0-0.1,0-0.1v0c0,0,0,0,0-0.1V9.7c0,0,0,0,0-0.1v0c0,0,0-0.1,0-0.1
				s0,0,0-0.1c0,0,0,0,0-0.1l0,0V8.8c0.1,0,0.1,0,0.2,0V8.7c0.9,0,1.7,0,2.6,0v0c0.1,0,0.2,0,0.3,0c0,0,0,0,0.1,0h0v0l0,0
				c0,0,0.1,0,0.1,0v0h0l0,0c0,0,0.1,0,0.1,0v0h0c0,0,0,0,0,0c0,0,0.1,0,0.1,0V8.7c0,0,0.1,0,0.1,0v0c0.3,0,0.6,0,0.9,0h0l0,0v0
				c0,0,0.1,0,0.1,0v0.1h0v0l0,0c0,0,0,0,0,0v0.1h0v0.1h0v0.1c0,0,0,0,0,0v0.1h0v0c0,0,0,0,0,0v0h0v0.1c0,0,0,0,0,0v0.1l0,0v0.4
				c1,0,2,0,3,0c0,0,0,0,0.1,0c0,0,0.1,0,0.1,0h0c2.2,0,4.4,0,6.6,0v0.3c0.2,0,0.3,0,0.5,0v0.3c-0.1,0-0.3,0-0.4,0v0.2c0,0,0,0,0,0
				c0.1,0,0.2,0,0.3,0v0.1h0v0.4c0,0,0,0-0.1,0c0,0,0,0.1,0,0.1c0,0,0,0.1,0,0.2c0,0,0,0.1,0,0.1c0,0.1,0,0.1,0,0.2
				c0,0.1,0,0.1,0,0.1c0,0.1,0,0.1,0,0.1c0,0.1,0,0.1,0,0.2s0,0.1,0,0.1c0,0.1,0,0.1,0,0.2c0,0,0,0.1,0,0.1c0,0.1,0,0.1,0,0.2
				c0,0,0,0.1,0,0.1c0,0.1,0,0.1,0,0.2s0,0.1,0,0.1c3,0,6.1,0,9.1,0c0,0,0-0.1,0-0.1c0,0,0-0.1,0-0.1c0-0.1,0-0.1,0-0.1
				c0,0,0,0,0.1,0c0.1,0,0.3,0,0.4,0v0.2c0,0.1,0,0.1,0,0.1c0,0,0.1,0,0.1,0h0c0.2,0,0.4,0,0.6,0v-0.3c0.1,0,0.1,0,0.2,0v0.1l0,0.1
				v0l0.1,0.1c0,0,0,0,0,0c0,0,0,0,0.1,0c0,0,0-0.1,0-0.1c0,0,0-0.1,0-0.2c0,0,0,0,0-0.1c0.1,0,0.1,0,0.2,0v0c0,0,0.1,0,0.1,0v0.1
				c0,0,0,0,0,0v0.2c1.6,0,3.2,0,4.8,0v-0.2c0.1,0,0.3,0,0.4,0v0.2c1.3,0,2.6,0,3.9,0v0.2c0,0,0,0,0,0.1c0,0,0,0,0,0.1v0
				C96.9,14.1,96.9,14.1,96.9,14.2C96.9,14.2,96.9,14.2,96.9,14.2z M63.3,10.2c0.5,0,1,0,1.5,0V10c-0.5,0-1,0-1.5,0V10.2z M43.9,5.5
				L43.9,5.5L43.9,5.5L43.9,5.5z M40,7.8c-0.3,0-0.6,0-0.9,0V7.5c-0.6,0-1.3,0-1.9,0v0h-0.1v0c0,0.1,0,0.1,0,0.2c0,0.1,0,0.1,0,0.2
				c0,0,0,0.1,0,0.2c0,0.1,0,0.1,0,0.2c0,0.1,0,0.1,0,0.2c0,0.1,0,0.1,0,0.2c0,0.1,0,0.1,0,0.2c0,0,0.1,0,0.1,0c2.2,0,4.5,0,6.7,0
				c0,0,0-0.1,0-0.1c0-0.1,0-0.2,0-0.3c0-0.1,0-0.1,0-0.2c0-0.1,0-0.2,0-0.2c0-0.1,0-0.1,0-0.2c0-0.1,0-0.1,0-0.2s0-0.1,0-0.2
				c0-0.1,0-0.1,0-0.2c-0.3,0-0.6,0-0.9,0h-0.1c-0.1,0-0.3,0-0.4,0v0.3c-0.3,0-0.7,0-1,0v0.3c-0.5,0-1,0-1.5,0V7.8z M33.4,19v0.1h0
				v0.3c0,0,0,0-0.1,0c0,0,0,0,0,0v0c0,0,0,0.1,0,0.1c0,0,0,0,0,0.1c0,0,0,0.1,0,0.1c0,0,0,0.1,0,0.1c0,0,0,0.1,0,0.1
				c0,0,0,0.1,0,0.1c0,0,0,0.1,0,0.1c0,0,0,0,0,0.1c0,0,0,0.1,0,0.1c0,0,0,0.1,0,0.1c0,0,0,0,0,0.1c0,0,0,0.1,0,0.1c0,0,0,0,0,0.1h0
				c0,0,0,0,0,0v0.1l0.1,0.1v0.1l0,0c0,0,0,0,0,0c0,0,0,0,0,0l0,0c0,0,0.1,0,0.1,0h0v0l0,0c0,0,0,0,0.1,0c0,0,0,0,0.1,0
				c0,0,0,0,0.1,0c0,0,0.1,0,0.1,0c1,0,2.1,0,3.1,0c0,0,0.1,0,0.1,0c0,0,0.1,0,0.1,0c0,0,0.1,0,0.1,0v-0.1c0,0,0,0,0.1,0h0v-0.1h0v0
				l0.1-0.1v0c0,0,0,0,0.1,0v0h0c0,0,0,0,0-0.1c0,0,0,0,0-0.1c0,0,0-0.1,0-0.1c0,0,0,0,0-0.1v0c0,0,0-0.1,0-0.1s0-0.1,0-0.1
				c0,0,0-0.1,0-0.1v0c0,0,0-0.1,0-0.1c0,0,0,0,0-0.1c0,0,0,0,0-0.1c0,0,0-0.1,0-0.1v0c0,0,0-0.1,0-0.1c0,0,0,0,0-0.1
				c0,0,0-0.1,0-0.1l0,0v-0.3c0,0,0,0,0,0c0,0,0,0,0,0h0l0,0v-0.1c0,0,0,0,0,0V19l-0.1-0.1h0c0,0,0,0-0.1,0h0c-0.5,0-1,0-1.5,0h0v0
				c0,0,0,0,0,0h0l0,0c0,0,0,0,0,0c0,0,0,0,0,0h0c0,0,0,0-0.1,0c0,0,0,0,0,0c0,0,0,0-0.1,0l0,0c0,0,0,0,0,0h0v0c0,0,0,0,0,0h0v0
				l-0.1,0.1c0,0,0,0,0,0h0L35,19.7c0,0,0,0-0.1,0v0l0,0v0l0,0v0L34.8,20v0l0,0v0.1l0,0v0l0,0v0.1c0,0-0.1,0-0.1,0v0.1c0,0,0,0,0,0
				c0,0,0,0,0,0v0.2l0,0v0.2h0v0.1c0,0,0,0,0,0v0c0,0,0,0,0,0c0,0,0,0,0,0v0.2c0,0-0.1,0-0.1,0s-0.1,0-0.1,0c0,0-0.1,0-0.1,0l0,0v0
				h-0.1v0h0l-0.1-0.1v-0.1l0,0v-0.1h0v0c0,0,0,0,0,0V21l0,0v-0.1h0v-0.3l0,0v-0.1h0v0c0,0,0,0,0-0.1v0c0,0,0,0,0-0.1v-0.2
				c0,0,0,0,0-0.1v0c0,0,0-0.1,0-0.1v-0.1c0,0,0,0,0-0.1v-0.1c0,0,0,0,0-0.1v0c0,0,0,0,0-0.1v-0.1l0,0v-0.3c-0.1,0-0.2,0-0.3,0v0
				C33.7,19,33.6,19,33.4,19L33.4,19L33.4,19L33.4,19L33.4,19z M22.1,11.8C22.1,11.8,22.2,11.8,22.1,11.8L22.1,11.8L22.1,11.8
				L22.1,11.8z M3.5,17.2c0,0.1,0,0.1,0,0.2c0,0.1,0,0.1,0,0.2c0,0.1,0,0.1,0,0.2s0,0.1,0,0.2s0,0.1,0,0.2s0,0.1,0,0.2
				c0,0.1,0,0.1,0,0.2c0,0.1,0,0.2,0,0.3c0,0,0,0.1,0,0.2c0,0.1,0,0.1,0,0.2c0,0.1,0,0.1,0,0.2c0,0.1,0,0.1,0,0.2c0,0.1,0,0.1,0,0.2
				c0,0,0,0.1,0,0.1c0.7,0,1.4,0,2.1,0c0,0,0,0,0-0.1v0c0,0,0,0,0-0.1v0c0.1,0,0.1,0,0.2,0v0h0v-0.7c0,0,0,0,0,0c0-0.1,0-0.1,0-0.2
				c0-0.1,0-0.1,0-0.2v-0.1c0,0,0,0,0-0.1c0-0.1,0-0.1,0-0.2c0-0.1,0-0.2,0-0.3c0,0,0-0.1,0-0.2c0-0.1,0-0.1,0-0.2s0-0.1,0-0.2
				s0-0.1,0-0.2c0,0,0-0.1,0-0.1c-0.3,0-0.6,0-0.9,0c0,0-0.1,0-0.2,0c-0.4,0-0.8,0-1.2,0C3.5,17.1,3.5,17.1,3.5,17.2z M14.7,19.8
				C14.7,19.8,14.8,19.8,14.7,19.8C14.8,19.8,14.8,19.8,14.7,19.8L14.7,19.8z"/>
		</g>
	</g>
</g>
<g id="guides">
</g>
<g id="Flash_2_">
	<path fill="#FFFFFF" d="M124.1,11.7c0,2.2-0.8,4.2-2.4,5.8c-1.6,1.6-3.5,2.4-5.8,2.4c-2.2,0-4.2-0.8-5.8-2.4
		c-1.6-1.6-2.4-3.5-2.4-5.8c0-0.6,0.1-1.1,0.2-1.7c0.2-0.1,0.4-0.1,0.6-0.3c0.8-0.4,1.5-0.8,2.3-1.1c0.1,0,0.3-0.1,0.4-0.2
		c-0.7,1-1.1,2.1-1,3.4c0,1.6,0.6,3,1.7,4.1c1.1,1.1,2.5,1.7,4.1,1.7c1.6,0,3-0.6,4.1-1.7c1.1-1.1,1.7-2.5,1.7-4.1
		c0-1.6-0.5-2.9-1.6-4.1c0.7,0.2,1.4,0.4,2.1,0.8c0,0,0,0,0,0c0.4,0.2,0.8,0.4,1.2,0.5C124,10,124.1,10.8,124.1,11.7z"/>
	<path fill="#FFFFFF" d="M131.9,18.7c-0.7-1.1-1.5-2.2-2.4-3.2c-0.2,0.2-0.4,0.4-0.6,0.6c-3.8,3.8-8.4,5.7-13.8,5.7
		c-5.4,0-10-1.9-13.9-5.7l-0.1,0.1c0.7,1.1,1.6,2.1,2.5,3.1c3.8,3.8,8.4,5.7,13.9,5.7s10-1.9,13.8-5.7
		C131.6,19.1,131.7,18.9,131.9,18.7L131.9,18.7z"/>
	<path fill="#FFFFFF" d="M129.5,15.6c0.9,1,1.7,2.1,2.4,3.2c0.7-0.7,1.3-1.4,1.8-2.1c-0.6-1-1-1.6-2.4-3.2
		C130.7,14.1,130.1,14.9,129.5,15.6L129.5,15.6z"/>
	<polygon fill="#FF0000" points="120.2,13.3 117.8,14.5 117.5,17.1 115.6,15.2 113,15.7 114.3,13.3 113,11 115.6,11.4 117.5,9.6 
		117.8,12.2 	"/>
	<path fill="#FFFFFF" d="M128.9,15c0.2,0.2,0.4,0.4,0.6,0.6c0.6-0.7,1.2-1.4,1.8-2.2c-0.2-0.2-0.4-0.4-0.6-0.6
		c-3.8-3.8-8.4-5.7-13.8-5.7c-5.4,0-10,1.9-13.9,5.7c-0.8,0.9-1.6,1.8-2.3,2.7l0.1,0.1c0.1-0.2,0.3-0.4,0.5-0.5
		c3.8-3.8,8.4-5.7,13.9-5.7C120.5,9.3,125.1,11.2,128.9,15L128.9,15z"/>
</g>
</svg>
