<?xml version="1.0" encoding="utf-8"?>
<!-- Generator: Adobe Illustrator 21.0.2, SVG Export Plug-In . SVG Version: 6.00 Build 0)  -->
<svg version="1.1" id="Слой_1" xmlns="http://www.w3.org/2000/svg" xmlns:xlink="http://www.w3.org/1999/xlink" x="0px" y="0px"
	 width="172.3px" height="32px" viewBox="0 0 172.3 32" enable-background="new 0 0 172.3 32" xml:space="preserve">
<g id="Selected_Items">
	<g>
		<g id="Selected_Items_44_">
			<path fill="#FFFFFF" d="M96.9,14.2c0,0,0,0.1,0,0.1v0c0,0,0,0.1,0,0.1c0,0,0,0,0,0.1c0,0,0,0,0,0.1c0,0,0,0.1,0,0.1v0
				c0,0,0,0.1,0,0.1c0,0,0,0,0,0.1s0,0.1,0,0.1c0,0,0,0.1,0,0.1c0,0,0,0,0,0.1v0.1c-0.1,0-0.1,0-0.2,0c-1.2,0-2.4,0-3.5,0v0.1
				c-0.1,0-0.3,0-0.4,0v-0.1c-1.7,0-3.3,0-5,0c0,0,0,0.1,0,0.1c0,0,0,0.1,0,0.1c0,0,0,0.1,0,0.1v0c-0.1,0-0.1,0-0.2,0v-0.1
				c-0.1,0-0.1,0-0.1,0v0c0,0,0-0.1,0-0.1v0c0,0,0-0.1,0-0.1c-0.1,0-0.3,0-0.5,0v0.1c-0.1,0-0.1,0-0.2,0v-0.1c-0.1,0-0.3,0-0.5,0
				c0,0,0,0.1,0,0.1v0.1c0,0,0,0.1,0,0.1c-0.1,0-0.1,0-0.2,0c0,0-0.1,0-0.1,0v0c-0.1,0-0.1,0-0.2,0v0c0,0,0-0.1,0-0.1
				c0-0.1,0-0.1,0-0.1c0,0,0-0.1,0-0.1c0,0,0-0.1,0-0.1c-3,0-5.9,0-8.8,0c0,0,0,0,0,0c0,0,0,0,0,0c0,0,0,0-0.1,0h-0.1v0.3
				c-0.1,0-0.2,0-0.3,0c-4.5,0-8.9,0-13.4,0v0.4c0,0,0,0-0.1,0v0.6c0,0,0.1,0,0.1,0v0.3c0,0-0.1,0-0.1,0l0,0h0c0,0,0,0,0,0v0
				c0,0,0,0,0,0c-0.1,0-0.3,0-0.4,0v0.1c-0.1,0-0.2,0-0.4,0v-0.3c-0.2,0-0.5,0-0.7,0v0.3c-0.1,0-0.2,0-0.3,0v-0.3
				c-0.1,0-0.3,0-0.5,0v0.3c-0.1,0-0.3,0-0.4,0v-0.3c-0.2,0-0.4,0-0.6,0v0.3c-0.1,0-0.3,0-0.4,0v-0.3c-0.2,0-0.3,0-0.5,0v0.3
				c-0.2,0-0.3,0-0.4,0v-0.3c-0.2,0-0.4,0-0.6,0v0.3c-0.1,0-0.2,0-0.3,0v-0.3h-0.2c-0.1,0-0.2,0-0.3,0v0.3c-0.1,0-0.2,0-0.3,0v-0.3
				c-0.2,0-0.4,0-0.6,0v0.3c-0.1,0-0.2,0-0.3,0v-0.3c-0.2,0-0.3,0-0.5,0v0.3c-0.1,0-0.3,0-0.4,0v-0.3c-0.2,0-0.3,0-0.5,0v0.3
				c-0.1,0-0.3,0-0.4,0v-0.3c-0.2,0-0.3,0-0.5,0v0.2c-0.1,0-0.2,0-0.3,0v-0.2c-0.2,0-0.3,0-0.5,0v0.3c-0.1,0-0.2,0-0.3,0v-0.3
				c-0.1,0-0.3,0-0.5,0v0.3c-0.1,0-0.2,0-0.3,0v-0.3c-0.2,0-0.4,0-0.6,0v0.2c-0.1,0-0.3,0-0.4,0v-0.2c-0.1,0-0.3,0-0.5,0v0.3
				c-0.1,0-0.2,0-0.3,0v-0.3c-0.2,0-0.4,0-0.6,0v0.3c-0.4,0-0.8,0-1.2,0v-0.3c-0.1,0-0.3,0-0.4,0v0.1l0,0v0l0,0v0.1c0,0,0,0,0,0
				c0,0,0,0,0,0h0c-0.1,0-0.2,0-0.3,0c-0.1,0-0.1,0-0.2,0c0,0-0.1,0-0.1,0l0,0c0,0-0.1,0-0.1,0l0,0h0c-0.1,0-0.1,0-0.2,0
				c0,0-0.1,0-0.1,0l0,0v0c0,0,0,0-0.1,0l-0.1,0c0,0,0,0,0,0l-0.1,0.1h0c0,0,0,0,0,0v0.1l0,0h0v0c0,0,0,0,0,0.1v0c0,0,0,0,0,0.1v0.5
				c0,0,0,0,0,0.1c0,0,0,0.1,0,0.1c0,0,0,0.1,0,0.1v0.1c0,0,0,0.1,0,0.1c0,0,0,0.1,0,0.1c0,0,0,0.1,0,0.1s0,0.1,0,0.1c0,0,0,0,0,0.1
				v0l0.1,0.1h0c0,0,0,0,0.1,0c0,0,0,0,0,0l0,0c0,0,0,0,0,0v0.7h0c0,0,0,0,0,0v0h0c-0.1,0-0.2,0-0.3,0v0.1c0,0-0.1,0-0.1,0
				c0,0,0,0-0.1,0v0c0,0.1,0,0.1,0,0.2c0,0.1,0,0.1,0,0.2c0,0,0,0.1,0,0.2c0,0.1,0,0.2,0,0.2c0,0.1,0,0.1,0,0.2c0,0.1,0,0.1,0,0.2
				s0,0.1,0,0.2s0,0.1,0,0.2c0,0.1,0,0.1,0,0.2c0,0.1,0,0.2,0,0.3c0,0,0,0.1,0,0.2c0,0.1,0,0.1,0,0.2c0,0.1,0,0.1,0,0.2s0,0.1,0,0.2
				c0,0.1,0,0.1,0,0.2c0,0,0,0.1,0,0.2c0,0.1,0,0.2,0,0.2c0,0.1,0,0.1,0,0.2s0,0.1,0,0.2c0,0.1,0,0.1,0,0.2c0,0,0,0.1,0,0.2
				c0,0.1,0,0.1,0,0.2c0,0.1,0,0.2,0,0.3c0,0,0,0.1,0,0.2c0,0.1,0,0.1,0,0.2c0,0.1,0,0.1,0,0.2c0,0.1,0,0.1,0,0.2c0,0.1,0,0.2,0,0.3
				c0,0,0,0.1,0,0.2c0,0.1,0,0.2,0,0.2c0,0.1,0,0.1,0,0.2c0,0,0,0.1,0,0.2c0,0.1,0,0.1,0,0.2c0,0,0,0.1,0,0.1V28c0,0.1,0,0.1,0,0.2
				v0.1c0,0,0,0.1,0,0.1c0,0,0,0,0,0.1c0,0,0,0,0.1,0v0.2c-2.2,0-4.3,0-6.5,0c0,0-0.1,0-0.1,0c0,0-0.1,0-0.1,0v-0.1c0,0,0,0,0-0.1
				s0,0,0-0.1v-0.1c0,0,0,0,0-0.1v0c0,0,0,0,0-0.1v0c0,0,0,0,0-0.1h0v0c-0.1,0-0.2,0-0.3,0v-0.4c0,0,0,0,0.1,0c0-0.1,0-0.2,0-0.2
				c0-0.1,0-0.1,0-0.2c0-0.1,0-0.1,0-0.2c0-0.1,0-0.1,0-0.2c0,0,0-0.1,0-0.2c0-0.1,0-0.1,0-0.2c0-0.1,0-0.2,0-0.3c0,0,0-0.1,0-0.2
				c0-0.1,0-0.1,0-0.2s0-0.1,0-0.2c0-0.1,0-0.1,0-0.2c0-0.1,0-0.2,0-0.3c0,0,0-0.1,0-0.2c0-0.1,0-0.2,0-0.2c0-0.1,0-0.1,0-0.2
				c0-0.1,0-0.1,0-0.2c0-0.1,0-0.1,0-0.2c0,0,0-0.1,0-0.2c0-0.1,0-0.1,0-0.2c0-0.1,0-0.2,0-0.3c0,0,0-0.1,0-0.2c0-0.1,0-0.1,0-0.2
				c0-0.1,0-0.1,0-0.2s0-0.1,0-0.2c0-0.1,0-0.2,0-0.3c0,0,0-0.1,0-0.2c0-0.1,0-0.1,0-0.2c0,0-0.1,0-0.1,0c-0.1,0-0.2,0-0.3,0h0
				c0,0,0,0-0.1,0c0,0,0,0,0,0h0c0,0-0.1,0-0.1,0c0,0-0.1,0-0.1,0v0.1c-1.6,0-3.2,0-4.8,0c-0.1,0-0.3,0-0.4,0v0.2l-0.1,0.1v0l0,0v0
				h0l0,0v0.1h0c0,0,0,0,0,0v0.1c0,0,0,0,0,0v0.1h0l-0.1,0.1v0c0,0,0,0,0,0v0h0v0.1h0v0c0,0,0,0,0,0v0h-0.1v0.1h0v0.1l0,0v0
				c0,0,0,0,0,0v0h0v0c0,0,0,0,0,0V24c0,0,0,0-0.1,0c-0.2,0-0.4,0-0.6,0l0,0v0.1c0,0,0,0,0,0v0c0,0,0,0,0,0l0,0v0h0v0c0,0,0,0,0,0v0
				l0,0v0h0v0h0v0.1l0,0v0h0v0c0,0,0,0,0,0v0h0v0c0,0,0,0,0,0c0,0,0,0,0,0V25h0v0.2c0,0,0,0,0,0c0,0,0,0,0,0v0c0,0,0,0-0.1,0v0.1h0
				v0.1l0,0v0c0,0,0,0,0,0v0c0,0,0,0,0,0v0l0,0c0,0,0,0,0,0v0.1c0,0,0,0,0,0l0,0c0,0,0,0,0,0v0l0,0v0h0v0c0,0-0.1,0-0.1,0v0l0,0
				c0,0,0,0,0,0v0c0,0,0,0,0,0v0c0,0,0,0,0,0v0.1c0,0,0,0,0,0v0h0l0,0v0c0,0,0,0,0,0v0h0v0.5l0,0c0,0,0,0,0,0v0h0v0.1l0,0v0.1l0,0
				c0,0,0,0-0.1,0v0c-0.2,0-0.4,0-0.6,0c0,0-0.1,0-0.1,0c0,0,0,0-0.1,0c0,0,0,0-0.1,0c0,0-0.1,0-0.1,0c-0.1,0-0.1,0-0.2,0v0
				c-0.1,0-0.1,0-0.2,0c-0.1,0-0.1,0-0.2,0s-0.1,0-0.1,0c0,0-0.1,0-0.1,0c-0.1,0-0.1,0-0.2,0c0,0-0.1,0-0.1,0c0,0-0.1,0-0.1,0
				c0,0-0.1,0-0.1,0c-0.1,0-0.1,0-0.1,0c0,0-0.1,0-0.1,0c-0.1,0-0.1,0-0.2,0c0,0-0.1,0-0.1,0c0,0-0.1,0-0.1,0v0c0,0-0.1,0-0.1,0
				c0,0-0.1,0-0.1,0c0,0-0.1,0-0.1,0c0,0-0.1,0-0.1,0c0,0-0.1,0-0.1,0c0,0-0.1,0-0.1,0c-0.1,0-0.1,0-0.1,0c0,0,0,0-0.1,0
				c0,0-0.1,0-0.1,0c0,0-0.1,0-0.1,0c-0.1,0-0.1,0-0.2,0l0,0v-0.4h0V26c0,0,0,0,0,0h0c0,0,0,0,0,0v0l0,0v0c0,0,0,0,0.1,0v-0.1h0v0
				c0,0,0.1,0,0.1,0v-0.1h0v0c0,0,0,0,0.1,0v-0.1h0c0,0,0,0,0,0v0h0v-0.1h0v-0.1c0,0,0,0,0,0v0h0v0c0,0,0,0,0.1,0V25h0c0,0,0,0,0,0
				l0,0v0l0,0c0,0,0,0,0,0v-0.1c0,0,0,0,0,0v0h0.1v-0.1l0.1-0.1v-0.1c0,0,0,0,0,0c0,0,0,0,0,0h0c0,0,0,0,0,0v-0.1l0.1-0.1v0l0.1-0.1
				c0,0,0,0,0,0v0h0.1v-0.1l0,0v-0.1l0,0v-0.1h0v0h0l0.1,0v-0.1l0,0v-0.1h0v0c0,0,0,0,0,0v0h0l0,0v-0.1h0v-0.1h0l0,0v-0.1
				c0,0,0,0,0.1,0h0v-0.1h0c0,0,0,0,0,0v-0.1h0v0l0,0h0v-0.1c0,0,0,0,0,0v-0.1l0,0c0,0,0,0,0,0v-0.1h0.1V22c0,0,0,0,0.1,0
				c0,0,0,0,0,0v0c0,0,0,0,0,0v-0.1l0,0h0l0.1-0.1v-0.1c0,0,0,0,0.1,0c0,0,0,0,0,0v-0.1h0v0l0,0v0h0c0,0,0,0,0,0v0l0,0c0,0,0,0,0,0
				v-0.1h0v0l0,0c0,0,0,0,0,0h0v0l0,0v-0.1h0v-0.1h0v0l0,0c0,0,0,0,0,0h0l0.1-0.1v0c0,0,0,0,0,0v0h0v-0.1c0,0,0,0,0,0l0,0v0l0,0v0h0
				l0,0c0,0,0,0,0,0l0,0v0c0,0,0,0,0.1,0v0h0.1v-0.1h0v-0.1l0,0v-0.1h0c0,0,0,0,0,0v-0.3h0v-0.1l0,0V19c0,0,0,0-0.1,0v0c0,0,0,0,0,0
				v0l0,0c0,0,0,0,0,0v0l0,0h0L29,18.6v0h0c0,0,0,0-0.1,0l0,0v-0.1c0,0-0.1,0-0.1,0l0,0c0,0,0,0,0,0c0,0,0,0-0.1,0c0,0,0,0,0,0h0v0
				c0,0,0,0,0,0c0,0,0,0,0,0c0,0,0,0-0.1,0c-1.2,0-2.4,0-3.5,0v0c0,0,0,0,0,0v0c0,0,0,0,0,0l-0.1-0.1c0,0,0,0-0.1,0h0c0,0,0,0-0.1,0
				c0,0,0,0,0,0c0,0-0.1,0-0.1,0v0c0,0,0,0-0.1,0h-0.1c-0.3,0-0.7,0-1,0v-0.1c-0.8,0-1.5,0-2.3,0c0,0,0,0-0.1,0c-0.2,0-0.4,0-0.6,0
				h0l-0.1,0.1c0,0,0,0,0,0c0,0,0,0,0,0h0c0,0,0,0,0,0h0v0l0,0c0,0,0,0,0,0c0,0,0,0,0,0v0l0,0c0,0,0,0,0,0v0.1c0,0,0,0-0.1,0l0,0h0
				v0l0,0c0,0,0,0,0,0c0,0,0,0,0,0h0c0,0,0,0-0.1,0v0c0,0,0,0,0,0h0v0c0,0,0,0-0.1,0c0,0,0,0-0.1,0s0,0,0,0h0v0.1l0,0v0c0,0,0,0,0,0
				v0c0,0,0,0,0,0c0,0,0,0,0,0h0c0,0,0,0,0,0v0c0,0,0,0,0,0h0v0.1c0,0,0,0,0,0l-0.1,0.1v0c0,0,0,0,0,0h0c0,0,0,0,0,0h0c0,0,0,0,0,0
				v0c0,0,0,0,0,0c0,0,0,0,0,0h0v0l0,0v0c0,0,0,0,0,0h-0.1v0c0,0,0,0,0,0v0h0v0h0c0,0,0,0,0,0c0,0,0,0-0.1,0h0v0c0,0,0,0,0,0v0h0v0
				l0,0v0l0,0c0,0,0,0,0,0.1v0c0,0,0,0,0,0.1s0,0,0,0c0,0,0,0,0,0.1c0,0,0,0,0,0.1s0,0,0,0.1c0,0,0,0,0,0.1v0.1c0,0,0,0,0,0.1
				c0,0,0,0,0,0.1s0,0,0,0.1c0,0,0,0,0,0.1v0c0,0,0,0.1,0,0.1c0,0,0,0,0,0.1v0c0,0-0.1,0-0.1,0.1c0,0,0,0,0,0.1c0,0,0,0-0.1,0
				c0,0,0,0,0,0.1c0,0,0,0-0.1,0.1s0,0-0.1,0c0,0,0,0,0,0s-0.1,0-0.1,0c0,0,0,0-0.1,0c0,0,0,0-0.1,0c0,0,0,0,0,0c-2.2,0-4.4,0-6.6,0
				c-0.8,0-1.5,0-2.3,0c-0.7,0-1.4,0-2.1,0v0c0,0,0,0-0.1,0v-0.1h0c0,0,0,0,0,0v-0.1c0,0-0.1,0-0.1,0v0c0-0.1,0-0.1,0-0.2v0
				c-0.1,0-0.2,0-0.2,0c0,0,0,0,0-0.1v0c0,0,0,0,0-0.1v0c0,0,0,0,0-0.1c-0.7,0-1.4,0-2.1,0c0,0,0,0.1,0,0.1c0,0.1,0,0.1,0,0.2
				c0,0.1,0,0.1,0,0.2s0,0.1,0,0.2c0,0.1,0,0.2,0,0.3c0,0,0,0.1,0,0.2c0,0.1,0,0.1,0,0.2c0,0.1,0,0.1,0,0.2c0,0.1,0,0.1,0,0.2
				c0,0.1,0,0.1,0,0.2c0,0,0,0.1,0,0.2c0,0,0,0,0,0.1v0.4c-0.1,0-0.2,0-0.4,0v0c-0.3,0-0.7,0-1,0v0.3c0,0,0,0-0.1,0v0.4h0
				c0,0,0,0-0.1,0c-0.1,0-0.3,0-0.5,0c0,0,0,0,0,0l0,0h0c0,0-0.1,0-0.1,0l0,0c0,0,0,0-0.1,0c-0.1,0-0.2,0-0.2,0c-0.1,0-0.2,0-0.3,0
				v0c0,0,0-0.1,0-0.1c0,0,0-0.1,0-0.1v-0.1c0,0,0-0.1,0-0.1c0,0,0-0.1,0-0.1c0,0,0,0,0-0.1c0,0,0-0.1,0-0.1c0,0,0-0.1,0-0.1
				c0,0,0-0.1,0-0.1c0,0,0-0.1,0-0.1c0,0,0-0.1,0-0.1c0,0,0-0.1,0-0.1c0,0,0-0.1,0-0.1c0,0,0-0.1,0-0.1c0,0,0-0.1,0-0.1
				c0,0,0,0,0-0.1c0,0,0-0.1,0-0.1c0,0,0-0.1,0-0.1c0,0,0.1,0,0.2,0v-0.3c0,0,0,0,0,0v0c0,0,0-0.1,0-0.2c0-0.1,0-0.1,0-0.2
				c0-0.1,0-0.1,0-0.2s0-0.1,0-0.2s0-0.1,0-0.2c0-0.1,0-0.1,0-0.2c0-0.1,0-0.1,0-0.2c0-0.1,0-0.2,0-0.3c0,0,0-0.1,0-0.2
				c0-0.1,0-0.1,0-0.2s0-0.1,0-0.2c0-0.1,0-0.1,0-0.2c0-0.1,0-0.1,0-0.2c0,0,0-0.1,0-0.2c0-0.1,0-0.2,0-0.2c0-0.1,0-0.1,0-0.2
				c0-0.1,0-0.1,0-0.2c0-0.1,0-0.1,0-0.2s0-0.1,0-0.2c0-0.1,0-0.1,0-0.2c0-0.1,0-0.2,0-0.3c0,0,0-0.1,0-0.2c0-0.1,0-0.1,0-0.2
				s0-0.1,0-0.2s0-0.1,0-0.2c0-0.1,0-0.2,0-0.3c0,0,0-0.1,0-0.2c0-0.1,0-0.2,0-0.2c0-0.1,0-0.1,0-0.2c0-0.1,0-0.1,0-0.2
				c0-0.1,0-0.1,0-0.2h0v0l0,0c0,0,0-0.1,0-0.1c0,0,0,0,0-0.1c0,0,0,0,0-0.1v0c0,0,0-0.1,0-0.1c0,0,0,0,0-0.1c0,0,0-0.1,0-0.1v0
				c0,0,0,0,0-0.1v0c0,0,0,0,0-0.1c0,0,0,0,0-0.1c0,0,0,0,0-0.1c0,0,0,0,0-0.1V14c0,0,0,0,0-0.1c0,0,0-0.1,0-0.1s0-0.1,0-0.1
				s0-0.1,0-0.1v0c0,0,0,0,0-0.1s0,0,0-0.1v-0.1H0.7c0,0,0,0,0,0v-0.2c0,0,0-0.1,0-0.1v-0.3c-0.1,0-0.1,0-0.2,0v-0.3
				c0.3,0,0.5,0,0.8,0v0c0.3,0,0.5,0,0.8,0v0.3c0,0-0.1,0-0.1,0l0,0c0.5,0,0.9,0,1.4,0v0.3c0,0,0.1,0,0.1,0v0c0,0.1,0,0.1,0,0.2
				c0,0.1,0,0.2,0,0.2c0,0.1,0,0.1,0,0.2c0,0.1,0,0.1,0,0.2c0,0.1,0,0.1,0,0.2c0,0.1,0,0.1,0,0.2c0,0.1,0,0.1,0,0.2
				c0,0.1,0,0.2,0,0.3c0,0.1,0,0.1,0,0.2c0,0.1,0,0.1,0,0.2s0,0.1,0,0.2c0,0.1,0,0.1,0,0.2c0,0.1,0,0.2,0,0.3c0,0,0,0.1,0,0.2
				c0.8,0,1.5,0,2.3,0c0-0.1,0-0.1,0-0.2c0-0.1,0-0.1,0-0.2c0-0.1,0-0.1,0-0.2c0-0.1,0-0.1,0-0.1c0,0,0.1,0,0.1,0c0.1,0,0.1,0,0.2,0
				c1.1,0,2.2,0,3.3,0c0-0.1,0-0.1,0-0.1s0-0.1,0-0.1s0-0.1,0-0.1c0,0,0-0.1,0-0.1c0-0.1,0-0.1,0-0.1c0,0,0-0.1,0-0.1
				c0-0.1,0-0.1,0-0.1v0c-0.9,0-1.9,0-2.8,0v-0.1c-0.1,0-0.2,0-0.4,0v-0.4c0,0,0,0,0,0v-0.3h0v0c0,0,0-0.1,0-0.2c0,0,0-0.1,0-0.1
				c0-0.1,0-0.1,0-0.2c0-0.1,0-0.1,0-0.1c0,0,0-0.1,0-0.2c0-0.1,0-0.1,0-0.1c0-0.1,0-0.1,0-0.2c0-0.1,0-0.1,0-0.1c0-0.1,0-0.1,0-0.2
				c0-0.1,0-0.1,0-0.2c0,0,0-0.1,0-0.1s0-0.1,0-0.2c0,0,0-0.1,0-0.1c0-0.1,0-0.1,0-0.1c0,0,0-0.1,0-0.1c0-0.1,0-0.1,0-0.2
				c0,0,0-0.1,0-0.1c0-0.1,0-0.1,0-0.2c0,0,0,0,0,0v-0.3c0,0,0,0,0,0v-0.1c0,0,0.1,0,0.1,0V9.9c0.1,0,0.1,0,0.1,0V9.8
				c0.1,0,0.1,0,0.2,0c0,0,0,0,0,0c0.1,0,0.2,0,0.4,0c3.1,0,6.3,0,9.4,0c0.1,0,0.2,0,0.3,0c0.4,0,0.9,0,1.3,0h0v0c0.2,0,0.5,0,0.8,0
				c0.2,0,0.4,0,0.6,0h0.2c0.4,0,0.7,0,1.1,0v0c0.1,0,0.2,0,0.3,0l0,0h0l0,0c0,0,0,0,0,0v0.5c0,0,0,0,0,0h0v0.1l0,0v0.1c0,0,0,0,0,0
				l0,0c0,0,0,0,0,0c0,0,0,0,0,0l-0.1,0.1v0L21,10.9v0l-0.1,0.1h0v0.1l-0.1,0v0l-0.1,0.1h0v0l-0.1,0.1v0l-0.1,0.1v0c0,0,0,0,0,0v0
				c0,0,0,0,0,0v0.1c0,0-0.1,0-0.1,0c0,0,0,0,0,0c0,0,0,0,0,0l0,0c0,0,0,0-0.1,0V12c0,0,0,0,0,0v0h0v0.1c0,0,0,0,0,0l-0.1,0.1h0v0
				c0,0,0,0,0,0l0,0c0,0,0,0,0,0v0c0,0,0,0,0,0l-0.1,0.1h0v0l-0.1,0.1v0h0v0.1c0,0,0,0,0,0v0h0c0,0,0,0,0,0h0c0,0,0,0,0,0l0,0v0h0
				l0,0v0h0c0,0,0,0,0,0l-0.1,0.1h0v0l0,0v0h0v0l0,0v0l-0.1,0.1h0l-0.1,0.1c0,0,0,0,0,0h-0.1l-0.1,0.1h0v0c0,0,0,0,0,0v0
				c0,0-0.1,0-0.1,0l0,0c0,0,0,0,0,0l0,0c0,0,0,0-0.1,0c0,0,0,0,0,0c0,0,0,0-0.1,0l0,0v0h-0.1c0,0,0,0,0,0l-0.1,0.1h0v0
				c0,0,0,0-0.1,0h0c0,0-0.1,0-0.1,0v0c0,0-0.1,0-0.1,0c-1.3,0-2.6,0-3.9,0v0.1l0,0v0.1l-0.1,0.1c0,0,0,0,0,0.1s0,0.1,0,0.1v0
				c0,0,0,0.1,0,0.1v0.1c0,0,0,0,0,0.1v0c0,0,0,0.1,0,0.1c0,0,0,0,0,0.1v0c0,0,0,0.1,0,0.1c0.9,0,1.9,0,2.8,0c0.6,0,1.2,0,1.8,0h0
				c0,0,0,0,0,0v0c0,0,0,0,0,0h0c0,0,0,0,0.1,0c0,0,0,0,0,0h0c0,0,0,0,0,0v0c0,0,0,0,0,0c0,0,0,0,0,0h0c0,0,0,0,0,0h0l0.1-0.1h0
				c0,0,0,0,0,0v-0.1c0,0,0,0,0,0v0c0,0,0,0,0,0v0h0c0,0,0,0,0,0l0,0v-0.1c0,0,0,0,0,0h0c0,0,0,0,0.1,0v0c0,0,0,0,0.1,0v0
				c0,0,0,0,0,0v0l0,0h0c0,0,0,0,0,0v-0.1c0,0,0,0,0,0h0v-0.1c0,0,0,0,0,0h0l0,0v0c0,0,0,0,0,0v-0.1h0l0,0c0,0,0,0,0.1,0v0l0,0h0
				c0,0,0,0,0,0h0c0,0,0,0,0,0s0,0,0,0v0h0c0,0,0,0,0,0v-0.1c0,0,0,0,0,0c0,0,0,0,0,0l0,0c0,0,0,0,0.1,0v0l0,0v-0.1c0,0,0,0,0,0
				c0,0,0,0,0,0V13h0l0,0c0,0,0,0,0,0v0c0,0,0,0,0,0h0v0l0,0v0c0,0,0,0,0,0l0,0h0v0h0c0,0,0,0,0,0l0.1-0.1v0c0,0,0,0,0,0
				c0,0,0,0,0,0h0c0,0,0,0,0,0v-0.1h0c0,0,0,0,0,0c0,0,0,0,0,0c0,0,0,0,0,0c0,0,0,0,0,0h0c0,0,0,0,0,0V12c0,0,0,0,0,0c0,0,0,0,0,0v0
				c0,0,0,0,0,0c0,0,0,0,0,0h0c0,0,0,0,0.1,0v0l0,0v0h0c0,0,0,0,0,0c0,0,0,0,0,0v0h0v-0.1c0,0,0,0,0,0h0c0.1,0,0.1,0,0.2,0v0
				c0.2,0,0.4,0,0.7,0h0c0.1,0,0.2,0,0.3,0c0,0,0.1,0,0.1,0c0,0,0.1,0,0.1,0c0.1,0,0.1,0,0.2,0h0c0.3,0,0.5,0,0.8,0h0.3v0h0v0l0,0v0
				l0,0h0.1v0c0,0,0-0.1,0-0.1c0,0,0-0.1,0-0.1c0,0,0-0.1,0-0.1c0,0,0,0,0-0.1v-0.1c0,0,0-0.1,0-0.1c0,0,0-0.1,0-0.1
				c0,0,0-0.1,0-0.1c0,0,0,0,0.1-0.1c0,0,0,0,0.1,0h0v-0.2c0,0,0,0,0,0c0,0,0.1,0,0.1,0c0.6,0,1.1,0,1.7,0V9.8c-0.4,0-0.9,0-1.3,0
				c-0.1,0-0.2,0-0.3,0c0,0,0,0-0.1,0V9.1c0.1,0,0.1,0,0.2,0c0.7,0,1.4,0,2.1,0c0,0,0,0,0,0l0,0c0,0,0,0,0,0v0h0c0,0,0.1,0,0.1,0
				l0,0h0c0,0,0,0,0,0h0c0.2,0,0.3,0,0.5,0c0,0,0,0,0.1,0h0c0,0,0,0,0.1,0v0h0l0,0.1c0,0,0,0,0,0v0.3c0.8,0,1.6,0,2.4,0v0.1
				c0,0,0,0,0.1,0v0.1c0,0,0,0.1,0,0.1v0c0,0,0,0,0,0.1c0,0,0,0.1,0,0.1c0,0,0,0,0,0.1c0,0,0,0,0,0.1v0c0,0,0,0.1,0,0.1v0
				c0,0,0,0.1,0,0.1v0c1.1,0,2.3,0,3.5,0c0-0.1,0-0.1,0-0.1c0-0.1,0-0.1,0-0.2c0-0.1,0-0.1,0-0.2c0-0.1,0-0.1,0-0.2
				c0-0.1,0-0.2,0-0.3c0,0,0-0.1,0-0.2c0-0.1,0-0.1,0-0.2c0-0.1,0-0.1,0-0.2c0-0.1,0-0.1,0-0.2c0-0.1,0-0.2,0-0.3c0-0.1,0-0.1,0-0.2
				c0-0.1,0-0.2,0-0.2c0-0.1,0-0.1,0-0.2c-0.2,0-0.5,0-0.7,0c0,0,0,0,0,0l0,0h0c0,0-0.1,0-0.1,0h0c0,0,0,0,0,0s0,0,0,0v0h0v0
				c0,0,0,0,0,0c0,0,0,0-0.1,0l0,0c0,0,0,0,0,0c0,0-0.1,0-0.1,0l0,0c0,0-0.1,0-0.1,0c-2.2,0-4.3,0-6.5,0v0c-0.1,0-0.2,0-0.3,0H26
				c0-0.1,0-0.1,0-0.1V7.5c0,0,0-0.1,0-0.1v0c0-0.1,0-0.1,0-0.2C26,7,26,7,26,6.9c0-0.1,0-0.1,0-0.2c0-0.1,0-0.1,0-0.2
				c0-0.1,0-0.1,0-0.2c0,0,0-0.1,0-0.1c0-0.1,0-0.1,0-0.2c0-0.1,0-0.1,0-0.2c0,0,0-0.1,0-0.1c0-0.1,0-0.1,0-0.2c0-0.1,0-0.1,0-0.2
				c0,0,0-0.1,0-0.2c0-0.1,0-0.1,0-0.2s0-0.1,0-0.2c0.1,0,0.3,0,0.4,0l0,0c2.2,0,4.4,0,6.5,0v0.1c0,0,0.1,0,0.2,0v0h0.1l0,0
				c0,0,0.1,0,0.1,0l0.1,0h0c0,0,0.1,0,0.1,0V5c0,0,0,0,0.1,0c0,0,0,0,0,0s0,0,0,0c0,0,0,0,0,0h0c0.2,0,0.3,0,0.5,0c0,0,0-0.1,0-0.1
				c0-0.1,0-0.2,0-0.2c0-0.1,0-0.1,0-0.2c0-0.1,0-0.1,0-0.2c0.1,0,0.2,0,0.3,0c0,0,0,0,0.1,0c0.8,0,1.6,0,2.4,0v0.4h0
				c0,0.1,0,0.1,0,0.2c0,0,0,0.1,0,0.1c0.6,0,1.3,0,1.9,0V4.8c0,0,0,0,0.1,0V4.7c0.2,0,0.3,0,0.5,0v0c0,0,0,0-0.1,0V4.1l0,0v0l0,0
				V3.8c0.1,0,0.2,0,0.3,0v0c0,0,0-0.1,0-0.1c0,0,0-0.1,0-0.1c0,0,0-0.1,0-0.1c0,0,0-0.1,0-0.1V3.4l0,0V3.1c0.5,0,1,0,1.5,0v0.2
				c0.1,0,0.1,0,0.2,0v0.5c0,0,0,0,0,0v0.1c0,0,0,0,0,0.1v0c0.1,0,0.2,0,0.2,0v0.7c0.2,0,0.4,0,0.6,0v0.2h0v0h0v0l0,0v0l0,0v0
				c0.4,0,0.9,0,1.3,0c0-0.1,0-0.1,0-0.2c0,0,0-0.1,0-0.1h0V4.4c0.8,0,1.5,0,2.3,0c0.1,0,0.2,0,0.4,0v0.2c0,0,0,0.1,0,0.1v0.1
				c0,0.1,0,0.1,0,0.2c0.7,0,1.4,0,2.1,0h0c0,0,0,0,0,0c0,0,0.1,0,0.1,0v0c0,0,0,0,0.1,0s0,0,0,0c0,0,0.1,0,0.1,0s0.1,0,0.1,0
				c0,0,0.1,0,0.1,0c0,0,0.1,0,0.1,0h0.1c0,0,0,0,0.1,0h0l0,0c0,0,0,0,0.1,0c0,0,0,0,0.1,0l0,0c0,0,0.1,0,0.2,0c0,0,0.1,0,0.1,0
				c0,0,0.1,0,0.1,0h0c0,0,0,0,0,0c0,0,0.1,0,0.2,0v0h0c0,0,0,0,0.1,0l0,0c0,0,0.1,0,0.1,0c0,0,0.1,0,0.1,0h0c0,0,0.1,0,0.2,0h0
				c0,0,0.1,0,0.1,0c0,0,0.1,0,0.1,0h0c0,0,0.1,0,0.1,0c0.1,0,0.1,0,0.1,0l0,0c0,0,0.1,0,0.1,0c0.1,0,0.1,0,0.2,0h0c0,0,0.1,0,0.1,0
				h0c0,0,0.1,0,0.1,0c0.1,0,0.1,0,0.2,0v0h0c0,0,0,0,0.1,0v0c0.1,0,0.2,0,0.3,0c0.1,0,0.1,0,0.2,0h0c0,0,0.1,0,0.2,0h0
				c0,0,0.1,0,0.1,0c0,0,0.1,0,0.1,0c0.1,0,0.1,0,0.2,0c0.1,0,0.1,0,0.2,0l0,0c0,0,0,0,0.1,0h0c0,0,0.1,0,0.1,0c0,0,0,0,0,0l0,0V3.6
				h0v0c0.1,0,0.2,0,0.3,0v0.1c1.9,0,3.8,0,5.7,0h0c0,0,0.1,0,0.1,0c0.1,0,0.2,0,0.4,0v0.2c0,0,0,0.1,0,0.1c0,0,0,0.1,0,0.1
				c0,0.1,0,0.1,0,0.2s0,0.1,0,0.2c0,0.1,0,0.1,0,0.2s0,0.1,0,0.2c0,0.1,0,0.2,0,0.3c0,0,0,0.1,0,0.2c0,0.1,0,0.2,0,0.2
				c0,0.1,0,0.1,0,0.2c0,0,0,0.1,0,0.2c0,0.1,0,0.1,0,0.2c0,0,0,0.1,0,0.2c0,0.1,0,0.1,0,0.2c0,0.1,0,0.1,0,0.2s0,0.1,0,0.2
				c0,0.1,0,0.1,0,0.2c0,0.1,0,0.2,0,0.3c0,0.1,0,0.1,0,0.2c0,0.1,0,0.2,0,0.3c0,0.1,0,0.1,0,0.2c0,0.1,0,0.1,0,0.2s0,0.1,0,0.2
				c0,0,0,0.1,0,0.2c-0.1,0-0.2,0-0.4,0v0c-1.9,0-3.8,0-5.7,0h0c-0.2,0-0.4,0-0.6,0c-0.1,0-0.1,0-0.2,0c0,0,0,0,0,0c0,0-0.1,0-0.2,0
				c0,0,0,0-0.1,0c-0.1,0-0.1,0-0.2,0v0c0,0-0.1,0-0.1,0c0,0-0.1,0-0.1,0l0,0c-0.1,0-0.1,0-0.2,0l-0.1,0c0,0,0,0-0.1,0
				c-0.1,0-0.1,0-0.2,0c0,0-0.1,0-0.1,0c0,0-0.1,0-0.1,0c0,0-0.1,0-0.1,0c0,0-0.1,0-0.1,0c0,0-0.1,0-0.1,0s-0.1,0-0.1,0v0
				c0,0-0.1,0-0.1,0c0,0-0.1,0-0.2,0c0,0-0.1,0-0.1,0c-0.1,0-0.1,0-0.1,0c-0.1,0-0.1,0-0.2,0c0,0-0.1,0-0.1,0C51.1,8,51,8,51,8
				c0,0-0.1,0-0.1,0c0,0-0.1,0-0.1,0c-0.1,0-0.1,0-0.1,0c0,0-0.1,0-0.1,0h0c0,0-0.1,0-0.1,0v0c0,0,0,0-0.1,0v0c0,0,0,0-0.1,0
				c0,0-0.1,0-0.1,0c0,0-0.1,0-0.1,0c0,0-0.1,0-0.1,0c0,0-0.1,0-0.1,0c0,0-0.1,0-0.2,0c-0.9,0-1.8,0-2.8,0v0c0,0-0.1,0-0.1,0
				c0,0.1,0,0.1,0,0.1c0,0.1,0,0.1,0,0.2c0,0.1,0,0.1,0,0.2c0,0.1,0,0.1,0,0.2c0,0.1,0,0.1,0,0.2c0,0.1,0,0.1,0,0.2
				c0,0.1,0,0.2,0,0.3c0,0.1,0,0.1,0,0.2c0,0.1,0,0.1,0,0.2c0,0.1,0,0.1,0,0.2s0,0.1,0,0.2c0,0.1,0,0.2,0,0.3c0,0,0,0.1,0,0.1
				c4.9,0,9.8,0,14.7,0v0c0,0,0-0.1,0-0.1s0,0,0-0.1v0c0,0,0-0.1,0-0.1v0c0,0,0,0,0-0.1V9.7c0,0,0,0,0-0.1v0c0,0,0-0.1,0-0.1
				s0,0,0-0.1c0,0,0,0,0-0.1l0,0V8.8c0.1,0,0.1,0,0.2,0V8.7c0.9,0,1.7,0,2.6,0v0c0.1,0,0.2,0,0.3,0c0,0,0,0,0.1,0h0v0l0,0
				c0,0,0.1,0,0.1,0v0h0l0,0c0,0,0.1,0,0.1,0v0h0c0,0,0,0,0,0c0,0,0.1,0,0.1,0V8.7c0,0,0.1,0,0.1,0v0c0.3,0,0.6,0,0.9,0h0l0,0v0
				c0,0,0.1,0,0.1,0v0.1h0v0l0,0c0,0,0,0,0,0v0.1h0v0.1h0v0.1c0,0,0,0,0,0v0.1h0v0c0,0,0,0,0,0v0h0v0.1c0,0,0,0,0,0v0.1l0,0v0.4
				c1,0,2,0,3,0c0,0,0,0,0.1,0c0,0,0.1,0,0.1,0h0c2.2,0,4.4,0,6.6,0v0.3c0.2,0,0.3,0,0.5,0v0.3c-0.1,0-0.3,0-0.4,0v0.2c0,0,0,0,0,0
				c0.1,0,0.2,0,0.3,0v0.1h0v0.4c0,0,0,0-0.1,0c0,0,0,0.1,0,0.1c0,0,0,0.1,0,0.2c0,0,0,0.1,0,0.1c0,0.1,0,0.1,0,0.2
				c0,0.1,0,0.1,0,0.1c0,0.1,0,0.1,0,0.1c0,0.1,0,0.1,0,0.2s0,0.1,0,0.1c0,0.1,0,0.1,0,0.2c0,0,0,0.1,0,0.1c0,0.1,0,0.1,0,0.2
				c0,0,0,0.1,0,0.1c0,0.1,0,0.1,0,0.2s0,0.1,0,0.1c3,0,6.1,0,9.1,0c0,0,0-0.1,0-0.1c0,0,0-0.1,0-0.1c0-0.1,0-0.1,0-0.1
				c0,0,0,0,0.1,0c0.1,0,0.3,0,0.4,0v0.2c0,0.1,0,0.1,0,0.1c0,0,0.1,0,0.1,0h0c0.2,0,0.4,0,0.6,0v-0.3c0.1,0,0.1,0,0.2,0v0.1l0,0.1
				v0l0.1,0.1c0,0,0,0,0,0c0,0,0,0,0.1,0c0,0,0-0.1,0-0.1c0,0,0-0.1,0-0.2c0,0,0,0,0-0.1c0.1,0,0.1,0,0.2,0v0c0,0,0.1,0,0.1,0v0.1
				c0,0,0,0,0,0v0.2c1.6,0,3.2,0,4.8,0v-0.2c0.1,0,0.3,0,0.4,0v0.2c1.3,0,2.6,0,3.9,0v0.2c0,0,0,0,0,0.1c0,0,0,0,0,0.1v0
				C96.9,14.1,96.9,14.1,96.9,14.2C96.9,14.2,96.9,14.2,96.9,14.2z M63.3,10.2c0.5,0,1,0,1.5,0V10c-0.5,0-1,0-1.5,0V10.2z M43.9,5.5
				L43.9,5.5L43.9,5.5L43.9,5.5z M40,7.8c-0.3,0-0.6,0-0.9,0V7.5c-0.6,0-1.3,0-1.9,0v0h-0.1v0c0,0.1,0,0.1,0,0.2c0,0.1,0,0.1,0,0.2
				c0,0,0,0.1,0,0.2c0,0.1,0,0.1,0,0.2c0,0.1,0,0.1,0,0.2c0,0.1,0,0.1,0,0.2c0,0.1,0,0.1,0,0.2c0,0,0.1,0,0.1,0c2.2,0,4.5,0,6.7,0
				c0,0,0-0.1,0-0.1c0-0.1,0-0.2,0-0.3c0-0.1,0-0.1,0-0.2c0-0.1,0-0.2,0-0.2c0-0.1,0-0.1,0-0.2c0-0.1,0-0.1,0-0.2s0-0.1,0-0.2
				c0-0.1,0-0.1,0-0.2c-0.3,0-0.6,0-0.9,0h-0.1c-0.1,0-0.3,0-0.4,0v0.3c-0.3,0-0.7,0-1,0v0.3c-0.5,0-1,0-1.5,0V7.8z M33.4,19v0.1h0
				v0.3c0,0,0,0-0.1,0c0,0,0,0,0,0v0c0,0,0,0.1,0,0.1c0,0,0,0,0,0.1c0,0,0,0.1,0,0.1c0,0,0,0.1,0,0.1c0,0,0,0.1,0,0.1
				c0,0,0,0.1,0,0.1c0,0,0,0.1,0,0.1c0,0,0,0,0,0.1c0,0,0,0.1,0,0.1c0,0,0,0.1,0,0.1c0,0,0,0,0,0.1c0,0,0,0.1,0,0.1c0,0,0,0,0,0.1h0
				c0,0,0,0,0,0v0.1l0.1,0.1v0.1l0,0c0,0,0,0,0,0c0,0,0,0,0,0l0,0c0,0,0.1,0,0.1,0h0v0l0,0c0,0,0,0,0.1,0c0,0,0,0,0.1,0
				c0,0,0,0,0.1,0c0,0,0.1,0,0.1,0c1,0,2.1,0,3.1,0c0,0,0.1,0,0.1,0c0,0,0.1,0,0.1,0c0,0,0.1,0,0.1,0v-0.1c0,0,0,0,0.1,0h0v-0.1h0v0
				l0.1-0.1v0c0,0,0,0,0.1,0v0h0c0,0,0,0,0-0.1c0,0,0,0,0-0.1c0,0,0-0.1,0-0.1c0,0,0,0,0-0.1v0c0,0,0-0.1,0-0.1s0-0.1,0-0.1
				c0,0,0-0.1,0-0.1v0c0,0,0-0.1,0-0.1c0,0,0,0,0-0.1c0,0,0,0,0-0.1c0,0,0-0.1,0-0.1v0c0,0,0-0.1,0-0.1c0,0,0,0,0-0.1
				c0,0,0-0.1,0-0.1l0,0v-0.3c0,0,0,0,0,0c0,0,0,0,0,0h0l0,0v-0.1c0,0,0,0,0,0V19l-0.1-0.1h0c0,0,0,0-0.1,0h0c-0.5,0-1,0-1.5,0h0v0
				c0,0,0,0,0,0h0l0,0c0,0,0,0,0,0c0,0,0,0,0,0h0c0,0,0,0-0.1,0c0,0,0,0,0,0c0,0,0,0-0.1,0l0,0c0,0,0,0,0,0h0v0c0,0,0,0,0,0h0v0
				l-0.1,0.1c0,0,0,0,0,0h0L35,19.7c0,0,0,0-0.1,0v0l0,0v0l0,0v0L34.8,20v0l0,0v0.1l0,0v0l0,0v0.1c0,0-0.1,0-0.1,0v0.1c0,0,0,0,0,0
				c0,0,0,0,0,0v0.2l0,0v0.2h0v0.1c0,0,0,0,0,0v0c0,0,0,0,0,0c0,0,0,0,0,0v0.2c0,0-0.1,0-0.1,0s-0.1,0-0.1,0c0,0-0.1,0-0.1,0l0,0v0
				h-0.1v0h0l-0.1-0.1v-0.1l0,0v-0.1h0v0c0,0,0,0,0,0V21l0,0v-0.1h0v-0.3l0,0v-0.1h0v0c0,0,0,0,0-0.1v0c0,0,0,0,0-0.1v-0.2
				c0,0,0,0,0-0.1v0c0,0,0-0.1,0-0.1v-0.1c0,0,0,0,0-0.1v-0.1c0,0,0,0,0-0.1v0c0,0,0,0,0-0.1v-0.1l0,0v-0.3c-0.1,0-0.2,0-0.3,0v0
				C33.7,19,33.6,19,33.4,19L33.4,19L33.4,19L33.4,19L33.4,19z M22.1,11.8C22.1,11.8,22.2,11.8,22.1,11.8L22.1,11.8L22.1,11.8
				L22.1,11.8z M3.5,17.2c0,0.1,0,0.1,0,0.2c0,0.1,0,0.1,0,0.2c0,0.1,0,0.1,0,0.2s0,0.1,0,0.2s0,0.1,0,0.2s0,0.1,0,0.2
				c0,0.1,0,0.1,0,0.2c0,0.1,0,0.2,0,0.3c0,0,0,0.1,0,0.2c0,0.1,0,0.1,0,0.2c0,0.1,0,0.1,0,0.2c0,0.1,0,0.1,0,0.2c0,0.1,0,0.1,0,0.2
				c0,0,0,0.1,0,0.1c0.7,0,1.4,0,2.1,0c0,0,0,0,0-0.1v0c0,0,0,0,0-0.1v0c0.1,0,0.1,0,0.2,0v0h0v-0.7c0,0,0,0,0,0c0-0.1,0-0.1,0-0.2
				c0-0.1,0-0.1,0-0.2v-0.1c0,0,0,0,0-0.1c0-0.1,0-0.1,0-0.2c0-0.1,0-0.2,0-0.3c0,0,0-0.1,0-0.2c0-0.1,0-0.1,0-0.2s0-0.1,0-0.2
				s0-0.1,0-0.2c0,0,0-0.1,0-0.1c-0.3,0-0.6,0-0.9,0c0,0-0.1,0-0.2,0c-0.4,0-0.8,0-1.2,0C3.5,17.1,3.5,17.1,3.5,17.2z M14.7,19.8
				C14.7,19.8,14.8,19.8,14.7,19.8C14.8,19.8,14.8,19.8,14.7,19.8L14.7,19.8z"/>
		</g>
	</g>
</g>
<g id="guides">
</g>
<path fill="#FFFFFF" d="M140.2,19.6c0,0,0.2,2.6,2.7,4.1c0.5,0.3,1.3,0.8,1.7,1c1.9,1.2,2.9,0.9,4.1,0.8c2.3-0.2,6.9-3,7.4-5.6
	c0.5-2.6-0.8-5-2.4-5.4c-1.6-0.4-3.1,0.3-3.5,1.8c-0.5,1.5,1,2.2,1,2.2c-1.6,0.3-2.2-1.3-1.8-2.7c0.3-1.4,1.8-3.1,4.7-2.5
	c2.9,0.7,3.4,3.3,3.4,3.3c1-1.8,3.3-2.8,6-1.8s1.8,3.2,1.8,3.2c-0.1-1.6-1.4-2.3-3.3-2.7c-1.8-0.3-3.6,0.5-4.2,3.2
	c-0.5,2.7,0.8,6.2,3.8,7c3.1,0.8,7.7-0.1,9.5-3.6c1.8-3.5,1.8-9.8-2.9-13.2s-9.3,0.1-9.3,0.1s-0.4-3.8-5.4-4c-5-0.3-5.7,5.3-5.7,5.3
	c-0.5-2.7-5.2,0.3-6.6,2.7c-1,1.7-1.6,4.3-1,6.1C140.1,19.1,140.2,19.5,140.2,19.6z"/>
<path fill="#FFFFFF" d="M116.4,4.1c-6.6,0-12,5.4-12,12c0,6.6,5.4,12,12,12c6.7,0,12-5.4,12-12C128.5,9.5,123.1,4.1,116.4,4.1z
	 M116.5,26.7c-5.9,0-10.7-4.8-10.7-10.7s4.8-10.7,10.7-10.7c5.9,0,10.7,4.8,10.7,10.7S122.4,26.7,116.5,26.7z"/>
<path fill="#FFFFFF" d="M117.3,1.6v10.7c-0.3-0.1-0.6-0.1-1-0.1c-0.4,0-0.7,0-1,0.1V1.6H117.3z"/>
<path fill="#FFFFFF" d="M116.3,20c0.3,0,0.7,0,1-0.1v10.6h-2V19.8C115.6,19.9,116,20,116.3,20z"/>
<path fill="#FFFFFF" d="M112.6,15c-0.1,0.3-0.2,0.7-0.2,1.1c0,0.3,0,0.6,0.1,0.9h-10.6v-2H112.6z"/>
<path fill="#FFFFFF" d="M130.7,15v2h-10.6c0.1-0.3,0.1-0.6,0.1-0.9c0-0.4,0-0.7-0.1-1.1H130.7z"/>
<path fill="#FF0000" d="M102.5,29.9L102.5,29.9c-0.7-0.7-0.7-1.8,0-2.5l25.2-25.2c0.7-0.7,1.8-0.7,2.5,0l0,0c0.7,0.7,0.7,1.8,0,2.5
	l-25.2,25.2C104.2,30.5,103.1,30.5,102.5,29.9z"/>
</svg>
