<?xml version="1.0" encoding="utf-8"?>
<!-- Generator: Adobe Illustrator 21.0.2, SVG Export Plug-In . SVG Version: 6.00 Build 0)  -->
<svg version="1.1" id="Слой_1" xmlns="http://www.w3.org/2000/svg" xmlns:xlink="http://www.w3.org/1999/xlink" x="0px" y="0px"
	 width="166.2px" height="32px" viewBox="0 0 166.2 32" enable-background="new 0 0 166.2 32" xml:space="preserve">
<g id="Selected_Items">
	<g>
		<g id="Selected_Items_63_">
			<path fill="#FFFFFF" d="M26.5,2.1L26.5,2.1C26.5,2.1,26.6,2.1,26.5,2.1L26.5,2.1C26.6,2,26.6,2,26.7,2V1.9h0l0,0V1.7l0,0V1.1
				c0,0,0-0.1,0-0.1V0.8c0.2,0,0.3,0,0.4,0c0,0,0-0.1,0-0.1c0.2,0,0.4,0,0.6,0v0c0,0.1,0,0.1,0,0.2c0,0.1,0,0.1,0,0.2
				c0,0.1,0,0.2,0,0.2c0,0.1,0,0.1,0,0.2c0,0.1,0,0.2,0,0.2c0,0.1,0,0.1,0,0.2c0,0.1,0,0.2,0,0.2c0,0.1,0,0.1,0,0.2
				c0,0.1,0,0.1,0,0.1c0.1,0,0.3,0,0.4,0c0.2,0,0.4,0,0.6,0V2.2c0.2,0,0.4,0,0.6,0v0.2l0,0v0.1c0.1,0,0.2,0,0.3,0v0c0,0,0-0.1,0-0.1
				c0,0,0-0.1,0-0.1s0-0.1,0-0.1s0-0.1,0-0.1s0-0.1,0-0.1C30,2,30,2,30,2V1.9H30v0c0.3,0,0.6,0,0.9,0v0c0.2,0,0.4,0,0.6,0
				c0,0.1,0,0.1,0,0.1v0.2c0,0,0,0.1,0,0.1v0.1c0,0,0,0.1,0,0.1c0,0,0,0.1,0,0.1v0c1.5,0,3.1,0,4.6,0V2.1h0c1,0,2,0,3,0V2
				c0,0,0-0.1,0-0.1v0c0,0,0-0.1,0-0.1c0,0,0-0.1,0-0.1V1.6c0,0,0-0.1,0-0.1v0c0.2,0,0.4,0,0.6,0V2c0,0,0,0,0,0v0.2
				c0.1,0,0.3,0,0.4,0V3c0,0-0.1,0-0.1,0v0.1h0v0.2c0,0,0,0,0,0v0c0,0,0,0,0,0v0.1h0v0l0,0v0.1l0,0v0l0,0v0.1h0v0l0,0l0,0.1
				c0,0,0,0,0,0c0,0,0,0,0,0v0.1l0,0v0h0v0.1h0v0.1h0v0.1c0,0,0,0,0,0v0h0v0l0,0v0.1h0v0c0,0,0,0,0,0v0.1c0,0,0,0,0,0v0h0v0.1h0v0.1
				h0v0c0,0,0,0,0,0v0.1h0v0h0v0.1l0,0h0v0.1h0v0.1h0v0.2h0c0,0,0,0,0,0v0l0,0l0,0.1c0,0,0,0,0,0v0c0,0,0,0,0,0v0h0v0.1
				c0.5,0,1,0,1.5,0v0.4c1.1,0,2.2,0,3.3,0c0.9,0,1.9,0,2.8,0v0.4c8.8,0,17.5,0,26.3,0v0.2c0.1,0,0.2,0,0.4,0V7.7c0.1,0,0.2,0,0.3,0
				c0-0.1,0-0.1,0-0.2c0-0.1,0-0.2,0-0.3c0-0.1,0-0.2,0-0.3s0-0.2,0-0.3c0-0.1,0-0.1,0-0.2c0-0.1,0-0.2,0-0.3c0-0.1,0-0.2,0-0.3
				c0-0.1,0-0.2,0-0.3s0-0.2,0-0.3s0-0.2,0-0.3c0-0.1,0-0.2,0-0.3c0-0.1,0-0.1,0-0.2c0-0.1,0-0.2,0-0.3c0-0.1,0-0.2,0-0.3
				c0-0.1,0-0.2,0-0.3c0-0.1,0-0.2,0-0.3c0-0.1,0-0.2,0-0.3c0-0.1,0-0.2,0-0.2c0-0.1,0-0.1,0-0.1c0.1,0,0.2,0,0.3,0
				c0.1,0,0.2,0,0.4,0c0.1,0,0.2,0,0.3,0h0v0c0.1,0,0.1,0,0.1,0l0,0v0.3c0.1,0,0.2,0,0.3,0h0c0,0,0.1,0,0.1,0v0.5c0,0.1,0,0.2,0,0.3
				v0c0,0.1,0,0.1,0,0.2c0.1,0,0.2,0,0.3,0v0.4H75v0c0,0.1,0,0.1,0,0.3c0,0.1,0,0.2,0,0.2c0,0.1,0,0.2,0,0.3c0,0.1,0,0.2,0,0.2
				c0,0.1,0,0.2,0,0.3c0,0.1,0,0.2,0,0.3c0,0.1,0,0.2,0,0.3c0,0.1,0,0.2,0,0.3C75,7,75,7,75,7.1c0,0.1,0,0.2,0,0.2
				c0.1,0,0.2,0,0.4,0c0.1,0,0.2,0,0.3,0h0c0,0,0.1,0,0.1,0v0c0,0.1,0,0.1,0,0.2c0,0.1,0,0.1,0,0.1c0,0.1,0,0.1,0,0.2
				c0,0.1,0,0.2,0,0.2c0,0.1,0,0.1,0,0.1v0.1c0.1,0,0.2,0,0.2,0v0.1c0.6,0,1.2,0,1.8,0v0.2c0,0,0.1,0,0.1,0v0.6c-0.3,0-0.6,0-0.9,0
				v0.3l-0.1,0v0c0.3,0,0.6,0,0.9,0v0.6c-0.7,0-1.4,0-2.1,0v0.1c2.9,0,5.8,0,8.7,0v-0.3c1.5,0,2.9,0,4.4,0c0,0,0.1,0,0.1,0v0.8
				c0,0.1,0,0.1,0,0.1s0,0.1,0,0.1v0.5c0,0,0,0.1,0,0.1c0,0,0,0.1,0,0.1v0c0,0,0,0.1,0,0.1c0,0,0,0.1,0,0.1v0.1c0,0,0.1,0,0.1,0v0.6
				c-0.1,0-0.2,0-0.3,0c-0.1,0-0.2,0-0.4,0c-1.6,0-3.2,0-4.7,0v0c-0.2,0-0.4,0-0.6,0c0,0,0,0,0,0h0v-0.4c-2.6,0-5.1,0-7.7,0v0.4
				c-0.1,0-0.1,0-0.1,0v0.3c-0.1,0-0.2,0-0.4,0v0c0,0-0.1,0-0.1,0c0,0,0,0.1,0,0.1s0,0.1,0,0.1c0,0,0,0.1,0,0.1c0,0.1,0,0.1,0,0.1
				c0,0,0,0.1,0,0.1c0,0.1,0,0.1,0,0.1c0,0,0,0.1,0,0.1c0,0.1,0,0.1,0,0.1c0,0,0,0.1,0,0.1s0,0.1,0,0.1c0,0,0,0.1,0,0.1
				c0,0,0,0.1,0,0.1c0,0,0,0.1,0,0.1c0,0.1,0,0.1,0,0.1c0,0.1,0,0.1,0,0.1s0,0.1,0,0.1v0.1c0,0,0,0.1,0,0.1c0,0,0,0.1,0,0.1
				c-0.2,0-0.4,0-0.6,0v0h-0.1c-0.2,0-0.4,0-0.6,0h-0.2l-0.1,0v-0.7c0,0,0.1,0,0.1,0c0,0,0-0.1,0-0.1c0,0,0-0.1,0-0.1
				c0-0.1,0-0.1,0-0.1c0,0,0-0.1,0-0.1c0,0,0-0.1,0-0.1c0,0,0-0.1,0-0.1c0,0,0-0.1,0-0.1c0-0.1,0-0.1,0-0.1c0,0,0-0.1,0-0.1
				c0-0.1,0-0.1,0-0.1c0-0.1,0-0.1,0-0.1c-0.1,0-0.2,0-0.3,0c0,0-0.1,0-0.1,0v-0.3c-0.1,0-0.2,0-0.4,0h0c0,0,0,0,0,0v0.2
				c0,0,0,0.1,0,0.1v0c0,0,0,0.1,0,0.1v0.1c0,0,0,0.1,0,0.1v0c0,0,0,0.1,0,0.1v0.1c0,0,0,0.1,0,0.1V14c0,0,0,0.1,0,0.1v0.1
				c0,0,0,0.1,0,0.1v0h0v0.1c-0.2,0-0.4,0-0.6,0v0h0v0.1h0v0.1l-0.1,0.1v0c0,0,0,0,0,0v0c0,0,0,0.1,0,0.1V15c0,0,0,0.1,0,0.1
				c0,0,0,0.1,0,0.1c0,0.1,0,0.1,0,0.1c0,0,0,0.1,0,0.1v0.1c-0.2,0-0.3,0-0.5,0l0,0h0v0.1h0V16c-0.3,0-0.5,0-0.8,0l0,0
				c-6.2,0-12.3,0-18.5,0v0.2c-0.2,0-0.5,0-0.7,0V16h0v-0.1c0,0,0,0,0,0l0,0v0h0v-0.1c0,0,0,0,0,0c-2.2,0-4.4,0-6.6,0h0l0,0
				c0,0,0,0,0,0c0,0-0.1,0-0.1,0l0,0c0,0-0.1,0-0.1,0c0,0-0.1,0-0.1,0c0,0,0,0,0,0l0,0h0c0,0-0.1,0-0.1,0c0,0,0,0,0,0l0,0
				c0,0-0.1,0-0.1,0v0c0,0-0.1,0-0.1,0c0,0-0.1,0-0.1,0l0,0c0,0-0.1,0-0.1,0l0,0h0c0,0-0.1,0-0.1,0c0,0,0,0,0,0l0,0h0c0,0,0,0,0,0
				l0,0h0c0,0,0,0,0,0l0,0h0c0,0,0,0,0,0l0,0v0c0,0.1,0,0.1,0,0.2c0,0.1,0,0.1,0,0.2c0,0.1,0,0.1,0,0.1c0,0.1,0,0.1,0,0.2
				c0,0.1,0,0.2,0,0.2c0,0,0,0.1,0,0.1c0,0.1,0,0.1,0,0.2V18c0.1,0,0.2,0,0.4,0v0.6c-0.2,0-0.4,0-0.7,0h0v1.3h0v0.4h0v0.4l0,0v0.3
				c0,0,0,0,0,0v0.3h0v0.5l0,0c0,0,0,0,0,0v0.4c0,0,0,0,0,0v0l0,0v0.2l0,0V23l0,0v0l0,0v0.2l0,0c0,0,0,0,0,0v0.2h0v0c0,0,0,0,0,0
				v0.1l0,0v0l0,0v0h0v0.3l0.1,0v0.2c0,0,0,0,0,0v0.1h0v0.1l0,0.1v0h0v0.2h0v0.1l0.1,0.1v0.2c0,0,0,0,0,0c0,0,0,0,0,0v0.1l0,0v0.1h0
				v0.2h0v0.1l0,0.1v0.1l0,0v0.1c0,0,0,0,0,0v0h0v0.1c0,0,0,0,0,0l0,0V27c0,0,0,0,0,0v0.1c0,0,0,0,0,0l0,0.1v0.1c0,0,0,0,0,0v0l0,0
				v0.1c0,0,0,0,0,0v0h0v0.2l0,0V28c0,0,0,0,0,0v0c0,0,0,0,0,0v0h0v0.2l0.1,0v0l0,0v0.1c0,0,0,0,0,0v0c0,0,0,0,0,0v0h0c0,0,0,0,0,0
				v0c0,0,0.1,0,0.1,0l0,0v0.6h0v0.1c-0.1,0-0.1,0-0.2,0v0.1c-0.1,0-0.2,0-0.3,0h0c0,0-0.1,0-0.1,0s-0.1,0-0.1,0h0c0,0-0.1,0-0.1,0
				l0,0c0,0-0.1,0-0.1,0c0,0-0.1,0-0.1,0c0,0-0.1,0-0.1,0h0l-0.1,0.1c0,0-0.1,0-0.1,0h0c0,0-0.1,0-0.1,0v0c0,0-0.1,0-0.1,0h-0.1l0,0
				h0c0,0-0.1,0-0.1,0h0c0,0-0.1,0-0.1,0c0,0-0.1,0-0.1,0h0c0,0-0.1,0-0.1,0s-0.1,0-0.1,0l0,0c0,0-0.1,0-0.1,0c-0.1,0-0.1,0-0.1,0
				c0,0-0.1,0-0.1,0c0,0-0.1,0-0.1,0h0c0,0-0.1,0-0.1,0h0c0,0-0.1,0-0.1,0h0c-0.1,0-0.1,0-0.1,0c0,0-0.1,0-0.1,0h-0.1
				c0,0-0.1,0-0.1,0s-0.1,0-0.1,0c0,0-0.1,0-0.1,0s0,0,0,0c0,0-0.1,0-0.1,0h0l0,0c-0.1,0-0.1,0-0.1,0c-0.1,0-0.2,0-0.3,0v0
				c0,0-0.1,0-0.1,0v0c-0.1,0-0.1,0-0.2,0c0,0-0.1,0-0.1,0v0c0,0-0.1,0-0.1,0l-0.1,0c-0.1,0-0.1,0-0.1,0s-0.1,0-0.1,0v0
				c0,0-0.1,0-0.1,0c0,0-0.1,0-0.1,0c-0.1,0-0.1,0-0.1,0c-0.1,0-0.2,0-0.3,0v0c-0.1,0-0.1,0-0.1,0h0c0,0-0.1,0-0.1,0
				c-0.2,0-0.5,0-0.8,0v-0.3h0c0,0,0,0,0,0v-0.2c0,0,0,0,0,0l0,0v-0.2c0,0,0,0,0,0v-0.2h0v-0.2h0v-0.3h-0.1v-0.3h0v-0.1h0v-0.1l0,0
				v0c0,0,0,0,0,0v-0.1h0v-0.2l-0.1-0.1V29h0v-0.1c0,0,0,0,0,0v-0.1c0,0,0,0,0,0v-0.1c0,0,0,0,0,0v-0.1l0,0v-0.3c0,0-0.1,0-0.1,0
				v-0.3l0,0v-0.1l0,0v-0.2c0,0,0,0,0,0v-0.1h0v-0.3l0,0V27h0c0,0,0,0,0,0v-0.2h0v-0.1l0,0v-0.2l0,0v0c0,0,0,0,0,0v-0.2c0,0,0,0,0,0
				v-0.1l0,0v-0.1c0,0,0,0,0,0v-0.1l0,0v-0.1l0,0v-0.1l-0.1,0v-0.1h0V25l0,0v-0.1l0,0v-0.1h0v-0.1l0,0v-0.1l0,0v-0.1c0,0,0,0,0,0
				v-0.2h0v-0.3c0,0,0,0,0,0v-0.1l0,0v-0.1c0,0,0,0,0,0v-0.1h0v-0.4c0,0,0,0,0,0h0v-0.3c0,0,0,0,0,0v-0.4l0,0v-0.2l0,0v-0.2h0v-0.2
				l0,0V21c0,0,0,0,0,0v0h0v-0.4h0v-0.3h0v-0.1c0,0,0,0,0,0v-0.2c0,0,0,0,0,0v-0.1c0,0,0,0,0,0c-2.2,0-4.5,0-6.7,0
				c-0.1,0-0.2,0-0.3,0v0.2l0,0v0c0,0-0.1,0-0.1,0V20l0,0v0.1l0,0c0,0,0,0,0,0c0,0,0,0,0,0v0.2c0,0,0,0,0,0h-0.1v0.1l0,0v0l-0.1,0.1
				V21c0,0,0,0,0,0v0.1h0v0l0,0v0l0,0v0c0,0,0,0,0,0v0h0v0c0,0,0,0,0,0l0,0v0.1l-0.1,0.1v0h0v0.1c0,0,0,0,0,0v0l-0.1,0.1v0.1l-0.1,0
				v0.1h0v0h0v0c0,0,0,0,0,0c0,0,0,0,0,0v0.1l0,0v0l0,0c0,0,0,0,0,0v0h0l0,0V23c0,0,0,0,0,0c0,0,0,0,0,0l0,0.1v0c0,0,0,0,0,0v0l0,0
				h0v0l0,0v0.1c0,0-0.1,0-0.1,0v0.1c0,0,0,0,0,0v0l0,0v0.1h0v0l0,0h0v0.2c0,0,0,0,0,0c0,0,0,0,0,0v0.1l0,0v0c0,0,0,0,0,0v0.1l0,0
				v0.1c0,0,0,0,0,0v0.1c0,0,0,0,0,0v0.2c0,0-0.1,0-0.1,0v0.3l0,0v0.1h0v0.6c0,0,0,0,0,0v0c-0.2,0-0.5,0-0.7,0v0c0,0,0,0,0,0l0,0
				c0,0-0.1,0-0.1,0c0,0-0.1,0-0.1,0v0h0v0c-0.1,0-0.1,0-0.1,0c0,0-0.1,0-0.1,0c0,0-0.1,0-0.1,0h-0.1v0c0,0-0.1,0-0.1,0
				s-0.1,0-0.1,0c0,0-0.1,0-0.1,0v0c0,0-0.1,0-0.1,0v0c0,0-0.1,0-0.1,0c0,0,0,0,0,0c0,0-0.1,0-0.1,0h-0.1c0,0-0.1,0-0.1,0v0
				c-0.1,0-0.1,0-0.1,0c0,0-0.1,0-0.1,0l-0.1-0.1c0,0-0.1,0-0.1,0l0,0h0c0,0,0,0,0,0l-0.1,0l0,0h0c0,0-0.1,0-0.1,0c0,0-0.1,0-0.1,0
				c0,0-0.1,0-0.1,0l0,0H21c0,0,0,0,0,0l0,0h0v0h-0.1c0,0-0.1,0-0.1,0l-0.1,0c0,0,0,0,0,0c-0.1,0-0.1,0-0.1,0l0,0c0,0-0.1,0-0.1,0v0
				c0,0-0.1,0-0.1,0v0h0c-0.1,0-0.1,0-0.1,0c0,0-0.1,0-0.1,0v0c0,0-0.1,0-0.1,0h0c0,0,0,0,0,0c0,0-0.1,0-0.1,0c0,0-0.1,0-0.1,0v0
				c0,0-0.1,0-0.1,0h0c-0.1,0-0.1,0-0.2,0c0,0,0,0,0,0c0,0-0.1,0-0.1,0v0c0,0-0.1,0-0.1,0c0,0-0.1,0-0.1,0h-0.1v0h0l0,0v0
				c0,0-0.1,0-0.1,0v-0.1h0v-0.7h0V23c0,0,0,0,0,0v-0.1h0v-0.2c0,0,0,0,0,0h0c0,0,0,0,0,0v-0.1l0,0v0l0,0c0,0,0,0,0,0v0l0,0v-0.1h0
				v0h0v0l0,0v-0.1h0v0l0,0v0l0.1-0.1v0h0v-0.1l0.1-0.1h0c0,0,0,0,0,0v0l0.1-0.1c0,0,0,0,0,0v0c0,0,0,0,0,0c0,0,0,0,0,0c0,0,0,0,0,0
				l0.1,0v0l0,0c0,0,0,0,0,0v0c0,0,0,0,0,0v0h0v0c0,0,0.1,0,0.1,0v0c0,0,0,0,0,0h0l0-0.1c0,0,0,0,0,0l0,0c0,0,0,0,0,0v0c0,0,0,0,0,0
				l0,0c0,0,0,0,0,0c0,0,0,0,0,0v0c0,0,0.1,0,0.1,0v0c0,0,0,0,0,0l0,0v0h0v-0.1c0,0,0,0,0,0h0v0l0,0h0c0,0,0,0,0,0v0l0.1-0.1v0
				c0,0,0,0,0,0l0,0c0,0,0,0,0,0h0l0.1-0.1c0,0,0,0,0,0v0l0,0c0,0,0,0,0,0v0h0v0h0v0l0,0c0,0,0,0,0,0l0,0v0c0,0,0,0,0,0c0,0,0,0,0,0
				v-0.1l0,0h0v-0.1h0v-0.1l0,0c0,0,0,0,0,0v-0.1l0,0c0,0,0,0,0,0v-0.2c0,0,0.1,0,0.1,0v-0.2c0,0,0,0,0,0V17h0v-0.2c0,0-0.1,0-0.1,0
				v-0.1h0v0l0,0v0h0l-0.2-0.2c0,0,0,0,0,0l0,0v0h0c0,0-0.1,0-0.1,0h0c0,0-0.1,0-0.1,0c0,0,0,0,0,0h0c0,0-0.1,0-0.1,0
				c0,0-0.1,0-0.1,0c-0.1,0-0.2,0-0.3,0h0v0c0,0-0.1,0-0.1,0c-0.1,0-0.1,0-0.1,0c0,0-0.1,0-0.1,0c0,0-0.1,0-0.1,0v0h0
				c-0.1,0-0.1,0-0.1,0c-0.1,0-0.1,0-0.2,0c-0.1,0-0.1,0-0.1,0c-0.1,0-0.2,0-0.4,0v-0.2c-0.1,0-0.1,0-0.2,0v0c0,0,0-0.1,0-0.1
				c0,0,0-0.1,0-0.1c0-0.1,0-0.1,0-0.1s0-0.1,0-0.1c0-0.1,0-0.1,0-0.1c0-0.1,0-0.1,0-0.1c0,0,0-0.1,0-0.1v0c0-0.1,0-0.1,0-0.1
				c0-0.1,0-0.1,0-0.1c0,0,0-0.1,0-0.1c0,0,0-0.1,0-0.1c0,0,0-0.1,0-0.1c0,0,0-0.1,0-0.1c0-0.1,0-0.1,0-0.1s0-0.1,0-0.1v0
				c-0.1,0-0.3,0-0.5,0v0.1c-0.1,0-0.2,0-0.3,0c0,0,0,0.1,0,0.1c0,0.1,0,0.1,0,0.2c0,0,0,0.1,0,0.1c0,0.1,0,0.1,0,0.1
				c0,0.1,0,0.1,0,0.1c0,0.1,0,0.1,0,0.2c0,0,0,0.1,0,0.1c0,0.1,0,0.1,0,0.1c0,0.1,0,0.1,0,0.2c0,0,0,0.1,0,0.1c0,0.1,0,0.1,0,0.1
				l0,0v0.6c-0.1,0-0.1,0-0.2,0V16c-1,0-1.9,0-3,0v0.9c0,0-0.1,0-0.1,0v0.3c-0.2,0-0.4,0-0.6,0v0h-0.1v0c-0.1,0-0.1,0-0.2,0
				c-0.1,0-0.2,0-0.4,0c-0.2,0-0.4,0-0.6,0v0l0,0v0.4c0,0-0.1,0-0.1,0v0.3l0,0v0.1c-0.1,0-0.3,0-0.4,0c-0.4,0-0.7,0-1.1,0v-0.1
				c0,0,0-0.1,0-0.1v-0.1c0,0,0-0.1,0-0.1v0c0,0,0-0.1,0-0.1h0c0,0,0,0,0,0c0,0-0.1,0.1-0.1,0.1l0,0c0,0,0,0,0,0c-0.1,0-0.1,0-0.2,0
				c0,0,0,0.1,0,0.1c-0.1,0-0.1,0-0.1,0c-0.1,0-0.1,0-0.1,0c0,0,0,0.1,0,0.1c0,0,0,0,0,0c-0.1,0-0.1,0-0.2,0c0,0-0.1,0.1-0.1,0.1
				c0,0,0,0,0,0c0,0-0.1,0-0.1,0c0,0,0,0.1,0,0.1c-0.1,0-0.1,0-0.1,0c-0.1,0-0.1,0-0.1,0c0,0-0.1,0-0.1,0c0,0,0,0.1,0,0.1
				c-0.1,0-0.1,0-0.1,0l0,0c-0.1,0-0.1,0.1-0.1,0.1c0,0,0,0,0,0C9.9,19,9.9,19,9.9,19c-0.1,0-0.1,0-0.1,0c0,0,0,0.1,0,0.1l0,0
				c-0.1,0-0.1,0-0.1,0c0,0,0,0.1,0,0.1l-0.1,0c0,0,0,0.1,0,0.1c0,0,0,0,0,0c-0.1,0-0.1,0-0.1,0v0c0,0-0.1,0-0.1,0
				c0,0-0.1,0.1-0.1,0.1v0c0,0-0.1,0.1-0.1,0.1v0L8.7,20c0,0,0,0.1,0,0.1c-0.4,0-0.8,0-1.3,0c0,0,0-0.1,0-0.1v-0.9c0,0,0-0.1,0-0.1
				v-0.2c0,0,0-0.1,0-0.1s0-0.1,0-0.1v0c0-0.1,0-0.1,0-0.1c0,0-0.1,0-0.1,0l0,0c-0.1,0-0.1,0-0.2,0c0,0,0,0.1,0,0.1v0
				c-0.1,0-0.1,0-0.2,0c0,0-0.1,0-0.1,0c0,0,0,0,0,0c0,0-0.1,0-0.1,0c0,0-0.1,0-0.1,0V19c-0.1,0-0.1,0-0.1,0c-0.1,0-0.1,0-0.1,0
				s0,0,0,0c0,0,0,0,0,0v0c0,0-0.1,0-0.1,0c0,0,0,0.1,0,0.1s0,0,0,0c-0.1,0-0.1,0-0.1,0l0,0c0,0-0.1,0.1-0.1,0.1l0,0v0
				c0,0-0.1,0-0.1,0c0,0,0,0.1,0,0.1v0H5.7c0,0-0.1,0-0.1,0c0,0,0,0,0,0c0,0,0,0.1,0,0.1L5.4,20c0,0,0,0.1,0,0.1c-0.1,0-0.1,0-0.1,0
				l0,0c0,0-0.1,0-0.1,0c0,0,0,0.1,0,0.1l0,0c0,0-0.1,0.1-0.1,0.1v0l-0.1,0.1c0,0,0,0,0,0c0,0,0,0.1,0,0.1c0,0,0,0,0,0
				c0,0,0,0.1,0,0.1c0,0-0.1,0-0.1,0v0c0,0,0,0.1,0,0.1c0,0-0.1,0-0.1,0c0,0,0,0.1,0,0.1c0,0-0.1,0-0.1,0c0,0,0,0.1,0,0.1
				c0,0,0,0,0,0s0,0,0,0c0,0,0,0.1,0,0.1h0c0,0-0.1,0-0.1,0v0c0,0,0,0.1,0,0.1c0,0,0,0,0,0c0,0,0,0.1,0,0.1v0c-0.1,0-0.1,0-0.1,0v0
				c0,0-0.1,0.1-0.1,0.1v0c0,0,0,0,0,0c0,0,0,0.1,0,0.1v0.1c-0.1,0-0.1,0-0.1,0s0,0.1,0,0.1c0,0,0,0,0,0l0,0c0,0,0,0.1,0,0.1l0,0v0
				c0,0,0,0.1,0,0.1v0.1c0,0,0,0-0.1,0c0,0,0,0.1,0,0.1v0c0,0,0,0.1,0,0.1v0.1c0,0-0.1,0-0.1,0v0.1c0,0,0,0.1,0,0.1v0.1
				c-0.1,0-0.2,0-0.3,0c-0.3,0-0.6,0-0.9,0c-0.1,0-0.2,0-0.4,0c-0.1,0-0.1,0-0.1,0s0-0.1,0-0.1c0,0,0-0.1,0-0.1c0,0,0,0,0,0v0
				c0,0,0-0.1,0-0.1v0c0,0,0-0.1,0-0.1v-0.1c0,0-0.1,0-0.1,0c0,0,0-0.1,0-0.1v0c0,0,0-0.1,0-0.1v-0.1l0,0v0c0,0,0-0.1,0-0.1v0
				c0,0,0-0.1,0-0.1v0l-0.1,0c0,0,0-0.1,0-0.1s0-0.1,0-0.1v0c0,0,0-0.1,0-0.1v0c0,0,0,0,0,0c0,0,0-0.1,0-0.1v-0.1c0,0,0-0.1,0-0.1
				c0,0-0.1,0-0.1,0c0,0,0-0.1,0-0.1v-0.1c0,0,0-0.1,0-0.1V21c0,0,0-0.1,0-0.1v0c0,0,0-0.1,0-0.1c0,0,0-0.1,0-0.1v-0.1
				c0,0,0-0.1,0-0.1v0c0,0,0-0.1,0-0.1c0,0,0,0,0,0v-0.1c0,0,0-0.1,0-0.1v0c0,0,0-0.1,0-0.1l-0.1,0v0l0,0v0c0,0,0-0.1,0-0.1v0
				c0,0,0-0.1,0-0.1v-0.1c0,0,0-0.1,0-0.1c0,0,0-0.1,0-0.1v0c0,0,0-0.1,0-0.1V19c0,0,0-0.1,0-0.1v0c0,0,0,0-0.1,0v0c0,0,0-0.1,0-0.1
				v-0.1c0,0,0-0.1,0-0.1v0c0,0,0-0.1,0-0.1s0-0.1,0-0.1c0,0,0,0,0,0v0c0,0,0-0.1,0-0.1v0c0,0,0-0.1,0-0.1v-0.2c0,0,0-0.1,0-0.1v0
				c0,0,0-0.1,0-0.1v0l0,0v0c0,0,0-0.1,0-0.1v-0.1c0,0,0-0.1,0-0.1v-0.1c0,0,0-0.1,0-0.1c0,0,0,0,0,0v0l0,0c0,0,0-0.1,0-0.1v-0.1
				c0,0,0-0.1,0-0.1v-0.1c0,0,0-0.1,0-0.1v0c0,0,0-0.1,0-0.1v-0.1c0,0,0-0.1,0-0.1H0.3c0,0,0-0.1,0-0.1v0c0,0,0-0.1,0-0.1v-0.1
				c0,0,0-0.1,0-0.1v-0.1c0,0,0-0.1,0-0.1v-0.1c0,0,0-0.1,0-0.1v-0.1c0,0,0-0.1,0-0.1v-0.1c0,0,0-0.1,0-0.1v0c0,0,0-0.1,0-0.1v-0.2
				c0,0,0-0.1,0-0.1v0c0,0,0-0.1,0-0.1v-0.2c0,0,0-0.1,0-0.1v0c0-0.1,0-0.1,0-0.1v0c0,0,0-0.1,0-0.1c0,0,0-0.1,0-0.1l0,0
				c0,0,0-0.1,0-0.1s0-0.1,0-0.1c0-0.1,0-0.1,0-0.1s0-0.1,0-0.1c0-0.1,0-0.1,0-0.1c0,0,0-0.1,0-0.1c0,0,0-0.1,0-0.1v-0.1
				c0,0,0-0.1,0-0.1c0-0.1,0-0.1,0-0.1c0-0.1,0-0.1,0-0.1c0,0,0-0.1,0-0.1c0-0.1,0-0.1,0-0.1c0-0.1,0-0.1,0-0.1c0,0,0-0.1,0-0.1
				c0,0,0-0.1,0-0.1c0,0,0-0.1,0-0.1c0,0,0-0.1,0-0.1v-0.1c0-0.1,0-0.1,0-0.1c0-0.1,0-0.1,0-0.1s0-0.1,0-0.1c0,0,0-0.1,0-0.1
				s0-0.1,0-0.1c0,0,0,0,0,0l0,0c0,0,0-0.1,0-0.1v0c0,0,0-0.1,0-0.1s0-0.1,0-0.1v-0.1c0,0,0-0.1,0-0.1v0c0,0,0-0.1,0-0.1V9.9
				c0,0,0-0.1,0-0.1v0c0,0,0-0.1,0-0.1V9.5c0,0,0-0.1,0-0.1V9.3c0,0,0-0.1,0-0.1V9.2c0,0,0-0.1,0-0.1V8.9c0,0,0.1,0,0.1,0v0
				c0.4,0,0.9,0,1.3,0V9c0,0,0.1,0,0.1,0v0l0,0v0.7c6.2,0,12.3,0,18.5,0c0,0,0,0,0,0l0,0h0c0,0,0,0,0,0v0h0.1v0l0-0.1h0l0-0.1h0l0,0
				l0.1,0v0c0,0,0.1,0,0.1,0l0,0h0v0c0,0,0,0,0,0h0v0l0.1-0.1c0,0,0,0,0,0c0,0,0,0,0,0c0,0,0,0,0,0l0.1-0.1c0,0,0,0,0,0h0
				c0,0,0,0,0,0v0l0.1,0c0,0,0,0,0,0h0l0.2-0.2v0h0l0,0h0c0,0,0,0,0,0v0c0,0,0.1,0,0.1,0c0,0,0.1,0,0.1,0s0.1,0,0.1,0l0.1-0.1
				c0.1,0,0.1,0,0.1,0V7.4c0,0,0.1,0,0.1,0V7.2c0.2,0,0.4,0,0.6,0v0.1c2.2,0,4.4,0,6.5,0V6.9c0,0,0,0,0,0v0l0,0V6.1
				c-0.1,0-0.2,0-0.3,0v0.4c0,0,0,0,0,0c-0.2,0-0.4,0-0.6,0V6.4l0,0V6.1c-0.6,0-1.2,0-1.8,0v0.4h0v0.1c-0.2,0-0.4,0-0.6,0V6.3
				c0,0-0.1,0-0.1,0v0c0-0.1,0-0.2,0-0.2s0-0.1,0-0.2c0-0.1,0-0.2,0-0.2c0-0.1,0-0.1,0-0.2c0-0.1,0-0.1,0-0.2s0-0.1,0-0.2
				c0-0.1,0-0.1,0-0.2c0-0.1,0-0.2,0-0.2c0-0.1,0-0.1,0-0.2c0-0.1,0-0.2,0-0.2c0-0.1,0-0.1,0-0.2c0-0.1,0-0.1,0-0.2
				c0-0.1,0-0.1,0-0.2c0-0.1,0-0.1,0-0.2c0-0.1,0-0.1,0-0.2c0-0.1,0-0.1,0-0.2c0-0.1,0-0.2,0-0.2s0-0.1,0-0.2s0-0.1,0-0.2
				c0,0,0.1,0,0.1,0L26.5,2.1L26.5,2.1L26.5,2.1L26.5,2.1z M42.1,15.6L42.1,15.6L42.1,15.6L42.1,15.6z M33.2,16.4
				c-0.9,0-1.9,0-2.8,0v0l0,0.1h0v0.1c0,0,0,0,0,0v0.2l0,0v0.1h0v0.2c0,0,0,0,0,0V18h0v0.1l0,0v0.1h0v0.2h0V19c0.9,0,1.7,0,2.6,0
				v-0.3h0v0c0,0,0,0,0,0h0l0.1-0.1h0v0l0.1,0c0,0,0,0,0,0l0.1-0.1h0.1l0,0c0,0,0,0,0,0l0.1-0.1c0,0,0,0,0,0c0,0,0.1,0,0.1,0v0
				c0,0,0.1,0,0.1,0v0c0,0,0,0,0,0H34c0-0.1,0-0.1,0-0.1c0-0.1,0-0.1,0-0.1c0,0,0-0.1,0-0.1c0,0,0-0.1,0-0.1s0-0.1,0-0.1
				c0,0,0-0.1,0-0.1s0-0.1,0-0.1l0,0c0,0,0,0,0,0c0,0,0,0,0,0l-0.1,0c0,0-0.1,0-0.1,0v0c0,0,0,0,0,0h0c0,0-0.1,0-0.1,0v-0.1
				c0,0-0.1,0-0.1,0c0,0,0,0,0,0l0,0L33.2,16.4L33.2,16.4C33.2,16.4,33.2,16.4,33.2,16.4z M28.5,17.1C28.4,17.1,28.4,17.1,28.5,17.1
				C28.4,17,28.4,17,28.5,17.1L28.4,17c-0.1,0-0.2,0-0.3,0c0,0.1,0,0.1,0,0.1c0,0.1,0,0.1,0,0.2c0,0,0,0.1,0,0.1s0,0.1,0,0.1
				c0,0.1,0,0.1,0,0.1c0,0.1,0,0.1,0,0.2c0,0,0,0.1,0,0.1c0,0.1,0,0.1,0,0.1c0,0.1,0,0.1,0,0.2l0,0c0,0,0,0,0,0h0v0.1h0v0l0,0v0h0.1
				v0l0.1,0h0v0c0,0,0.1,0,0.1,0h0v0h0l0.1,0V19c0.2,0,0.4,0,0.6,0v-0.1c0,0-0.1,0-0.1,0v-0.1c0,0,0,0,0,0v0h0v0c0,0,0,0,0,0h0v-0.1
				l0,0v-0.1c0,0-0.1,0-0.1,0v-0.1h0v-0.1l0,0v-0.1l-0.1-0.1v0h0v0c0,0,0,0,0,0c0,0,0,0,0,0v-0.1l0,0v0h0v-0.1l0,0v-0.1h0v0
				C28.5,17.2,28.5,17.2,28.5,17.1L28.5,17.1L28.5,17.1z"/>
		</g>
	</g>
</g>
<g id="guides">
</g>
<g id="Flash_2_">
	<path fill="#FFFFFF" d="M117.2,11.7c0,2.2-0.8,4.2-2.4,5.8c-1.6,1.6-3.5,2.4-5.8,2.4c-2.2,0-4.2-0.8-5.8-2.4
		c-1.6-1.6-2.4-3.5-2.4-5.8c0-0.6,0.1-1.1,0.2-1.7c0.2-0.1,0.4-0.1,0.6-0.3c0.8-0.4,1.5-0.8,2.3-1.1c0.1,0,0.3-0.1,0.4-0.2
		c-0.7,1-1.1,2.1-1,3.4c0,1.6,0.6,3,1.7,4.1c1.1,1.1,2.5,1.7,4.1,1.7c1.6,0,3-0.6,4.1-1.7c1.1-1.1,1.7-2.5,1.7-4.1
		c0-1.6-0.5-2.9-1.6-4.1c0.7,0.2,1.4,0.4,2.1,0.8c0,0,0,0,0,0c0.4,0.2,0.8,0.4,1.2,0.5C117.1,10,117.2,10.8,117.2,11.7z"/>
	<path fill="#FFFFFF" d="M125,18.8c-0.7-1.1-1.5-2.2-2.4-3.2c-0.2,0.2-0.4,0.4-0.6,0.6c-3.8,3.8-8.4,5.7-13.8,5.7s-10-1.9-13.9-5.7
		l-0.1,0.1c0.7,1.1,1.6,2.1,2.5,3.1c3.8,3.8,8.4,5.7,13.9,5.7c5.4,0,10-1.9,13.8-5.7C124.7,19.1,124.8,19,125,18.8L125,18.8z"/>
	<path fill="#FFFFFF" d="M122.6,15.6c0.9,1,1.7,2.1,2.4,3.2c0.7-0.7,1.3-1.4,1.8-2.1c-0.6-1-1-1.6-2.4-3.2
		C123.8,14.2,123.2,14.9,122.6,15.6L122.6,15.6z"/>
	<polygon fill="#FF0000" points="113.3,13.4 110.9,14.5 110.6,17.1 108.7,15.2 106.1,15.7 107.4,13.4 106.1,11 108.7,11.5 
		110.6,9.6 110.9,12.2 	"/>
	<path fill="#FFFFFF" d="M122,15c0.2,0.2,0.4,0.4,0.6,0.6c0.6-0.7,1.2-1.4,1.8-2.2c-0.2-0.2-0.4-0.4-0.6-0.6
		c-3.8-3.8-8.4-5.7-13.8-5.7c-5.4,0-10,1.9-13.9,5.7c-0.8,0.9-1.6,1.8-2.3,2.7l0.1,0.1c0.1-0.2,0.3-0.4,0.5-0.5
		c3.8-3.8,8.4-5.7,13.9-5.7S118.2,11.2,122,15L122,15z"/>
</g>
<path fill="#FFFFFF" d="M134,19.6c0,0,0.2,2.6,2.7,4.1c0.5,0.3,1.3,0.8,1.7,1c1.9,1.2,2.9,0.9,4.1,0.8c2.3-0.2,6.9-3,7.4-5.6
	c0.5-2.6-0.8-5-2.4-5.4c-1.6-0.4-3.1,0.3-3.5,1.8c-0.5,1.5,1,2.2,1,2.2c-1.6,0.3-2.2-1.3-1.8-2.7c0.3-1.4,1.8-3.1,4.7-2.5
	c2.9,0.7,3.4,3.3,3.4,3.3c1-1.8,3.3-2.8,6-1.8s1.8,3.2,1.8,3.2c-0.1-1.6-1.4-2.3-3.3-2.7c-1.8-0.3-3.6,0.5-4.2,3.2
	c-0.5,2.7,0.8,6.2,3.8,7c3.1,0.8,7.7-0.1,9.5-3.6c1.8-3.5,1.8-9.8-2.9-13.2s-9.3,0.1-9.3,0.1s-0.4-3.8-5.4-4c-5-0.3-5.7,5.3-5.7,5.3
	c-0.5-2.7-5.2,0.3-6.6,2.7c-1,1.7-1.6,4.3-1,6.1C134,19.2,134,19.6,134,19.6z"/>
</svg>
