<?xml version="1.0" encoding="utf-8"?>
<!-- Generator: Adobe Illustrator 21.0.2, SVG Export Plug-In . SVG Version: 6.00 Build 0)  -->
<svg version="1.1" id="Слой_1" xmlns="http://www.w3.org/2000/svg" xmlns:xlink="http://www.w3.org/1999/xlink" x="0px" y="0px"
	 width="174.2px" height="32px" viewBox="0 0 174.2 32" enable-background="new 0 0 174.2 32" xml:space="preserve">
<g id="Selected_Items">
	<g>
		<g id="Selected_Items_48_">
			<path fill="#FFFFFF" d="M37.5,4.2C37.5,4.2,37.5,4.1,37.5,4.2c0.1-0.1,0.1-0.1,0.1-0.1c0,0,0-0.1,0-0.1c0,0,0,0,0.1,0
				s0.1,0,0.1,0v0c0.6,0,1.3,0,1.9,0c0,0,0.1,0,0.1,0c0.1,0,0.2,0,0.3,0c0,0,0.1,0,0.1,0c0,0,0,0.1,0.1,0.1l0,0c0,0,0,0,0,0.1
				s0,0.1,0,0.1c0,0,0,0,0,0.1c0,0,0,0.1,0,0.1c0,0,0,0.1,0,0.1c0,0,0,0,0,0v0c0,0,0,0,0,0.1s0,0.1,0,0.1c0,0,0,0.1,0,0.1v0
				c0,0,0,0.1,0,0.1c0,0,0,0.1,0,0.1c0,0,0,0.1,0,0.1c0,0,0,0,0,0.1v0c0,0,0,0.1,0,0.1s0,0.1,0,0.1c0,0,0,0,0,0.1s0,0.1,0,0.1h0
				c0,0,0,0,0,0c0,0,0,0.1,0,0.1s0,0.1,0,0.1c0,0,0,0,0,0.1l0,0c0,0,0,0,0,0.1s0,0,0,0.1c0,0,0,0.1,0,0.1c0,0.1,0,0.1,0,0.1v0
				c0,0,0,0.1,0,0.1c0,0,0,0,0,0.1s0,0.1,0,0.1c0,0,0,0.1,0,0.1v0c0,0,0,0.1,0,0.1c0,0,0,0.1,0,0.1s0,0.1,0,0.1v0c0,0,0,0,0,0.1v0
				c2.5,0,5.1,0,7.7,0c0,0,0,0,0.1,0c0,0,0,0,0,0c0.1,0,0.2,0,0.3-0.1c0,0,0.1,0,0.2,0c0.1,0,0.2-0.1,0.2-0.1c0.1,0,0.1,0,0.2-0.1
				c0.1,0,0.2-0.1,0.3-0.1c0,0,0.1,0,0.2-0.1c0,0,0.1-0.1,0.2-0.1c0.1,0,0.1-0.1,0.2-0.1c0.1,0,0.2,0,0.2,0c0,0,0-0.1,0-0.1
				c0,0,0.1-0.1,0.1-0.1c0,0,0.1,0,0.1,0c0,0,0-0.1,0.1-0.1c0.1,0,0.1,0,0.1,0c0,0,0.1,0,0.2,0c0,0,0.1-0.1,0.1-0.1c0,0,0,0,0.1,0
				c0,0,0,0,0.1,0h0c0,0,0-0.1,0-0.1c0,0,0,0,0.1-0.1l0.1-0.1c0,0,0.1,0,0.1,0v0c0.6,0,1.1,0,1.6,0v0c0.2,0,0.4,0,0.6,0v0
				c0.1,0,0.2,0,0.3,0c0,0,0,0,0,0c0.2,0,0.4,0,0.5,0l0,0c0.6,0,1.2,0,1.9,0c0,0,0,0,0.1,0c0,0,0.1,0,0.1,0l0,0.1
				c0,0,0.1,0.1,0.1,0.1c0,0,0,0,0.1,0.1l0,0c0,0,0,0,0,0.1s0,0,0,0.1c0,0,0,0.1,0,0.1c0,0,0,0.1,0,0.1v0c0,0,0,0-0.1,0
				c0,0.1,0,0.1,0,0.1c0,0,0,0,0,0.1s0,0,0,0.1v0c0,0,0,0.1,0,0.1v0.1c0,0,0,0.1,0,0.1c0,0,0,0,0,0.1c0,0,0,0.1,0,0.1
				c0,0,0,0.1,0,0.1c0,0,0,0.1,0,0.1c0,0,0,0.1,0,0.1c0,0.1,0,0.1,0,0.1c0,0,0,0.1,0,0.1c0,0,0,0.1,0,0.1c0,0,0,0.1,0,0.1
				c0,0,0,0.1,0,0.1v0.1c0,0,0,0.1,0,0.1c0,0.1,0,0.1,0,0.1c0,0,0,0,0,0.1c0,0,0,0.1,0,0.1c0,0,0,0.1,0,0.1v0.1c0,0,0,0.1,0,0.1
				c0,0,0,0.1,0,0.1c0,0,0,0,0,0.1c0,0,0,0.1,0,0.1c0,0,0,0.1,0,0.1s0,0.1,0,0.1c0,0,0,0.1,0,0.1c0,0.1,0,0.1,0,0.1c0,0,0,0.1,0,0.1
				s0,0.1,0,0.1c0,0,0,0.1,0,0.1c0,0,0,0.1,0,0.1c0,0,0,0.1,0,0.1c0,0,0,0.1,0,0.1c0,0,0,0.1,0,0.1v0.1c0,0,0,0.1,0,0.1
				c0,0.1,0,0.1,0,0.1c0,0.1,0,0.1,0,0.1s0,0.1,0,0.1c0,0,0,0.1,0,0.1c12.4,0,24.8,0,37.1,0c1.8,0,3.5,0,5.3,0c0.1,0,0.1,0,0.2,0.1
				c0.1,0,0.1,0,0.1,0.1v0c0,0,0.1,0.1,0.1,0.1c0,0,0.1,0.1,0.1,0.1l0,0.1c0,0.1,0,0.1,0,0.1c0,0.1,0,0.1,0,0.1c0,0.1,0,0.1,0,0.1
				c0,0,0,0.1,0,0.1c0,0,0,0.1,0,0.1c0,0-0.1,0.1-0.1,0.1v0.1c0,0,0,0.1,0,0.1c0,0,0,0.1,0,0.1c0,0,0,0.1,0,0.1c0,0,0,0.1,0,0.1
				c0,0.1,0,0.1,0,0.1v0.1c0,0,0,0.1,0,0.1c0,0,0,0,0,0.1v0c0,0,0,0.1,0,0.1c0,0,0,0.1,0,0.1s0,0.1,0,0.1c0,0-0.1,0.1-0.1,0.1
				c-0.1,0-0.2,0.1-0.2,0.1c-0.1,0-0.2,0-0.3,0c-0.1,0-0.1,0-0.2,0c-0.1,0-0.2-0.1-0.3-0.1c-8,0-16,0-24-0.1c0,0,0,0.1,0,0.1
				c0,0,0,0.1,0,0.1c0,0,0,0.1,0,0.1c0,0,0,0.1,0,0.1c0,0,0,0,0,0.1l0,0c0,0.1,0,0.1,0,0.1c0,0,0,0.1,0,0.1c0,0,0,0.1,0,0.1
				c0,0,0,0.1,0,0.1s0,0.1,0,0.1v0.1c0,0,0,0.1,0,0.1s0,0.1,0,0.1v0.1c0,0,0,0.1,0,0.1v0.1c0,0,0,0.1,0,0.1c0,0,0,0.1,0,0.1
				c0,0,0,0,0,0.1c0,0,0,0.1,0,0.1v0.3c0,0.1,0,0.1,0,0.1c0,0,0,0.1,0,0.1v0.1c0,0,0,0.1,0,0.1c0,0,0,0.1,0,0.1V16c0,0,0,0.1,0,0.1
				v0.1c0,0,0,0,0,0.1V17c0,0,0,0-0.1,0h0c0,0,0,0.1,0,0.1c0,0,0,0.1,0,0.1c0,0,0,0,0,0.1c0,0,0,0.1,0,0.1c0,0,0,0.1,0,0.1
				s0,0.1,0,0.1c0,0,0,0.1,0,0.1c0,0,0,0.1,0,0.1c0,0,0,0,0,0.1s0,0.1,0,0.1c0,0,0,0.1,0,0.1v0.1c0,0,0,0.1,0,0.1
				c0,0-0.1,0.1-0.1,0.1c0,0.1,0,0.1,0,0.1c0,0,0,0-0.1,0.1c0,0,0,0,0,0c0,0,0,0.1,0,0.1c0,0,0,0.1,0,0.1c0,0,0,0,0,0.1
				c0,0,0,0,0,0.1c0,0.1,0,0.2,0,0.3c0,0.1,0,0.2,0,0.3s0,0.2,0,0.3c0,0.1,0,0.1,0,0.2c0,0.1,0,0.2,0,0.3c0,0.1,0,0.2,0,0.3
				s0,0.2,0,0.3c0,0.1,0,0.2,0,0.2c0,0.1,0,0.2,0,0.3c0,0.1,0,0.2,0,0.3c0,0.1,0,0.2,0,0.3c0,0.1,0,0.2,0,0.2v0c0.1,0,0.1,0,0.1,0
				c0,0,0.1,0.1,0.1,0.1l0,0.1c0,0,0,0,0,0.1h0c0,0,0,0.1,0.1,0.1c0,0,0,0.1,0,0.1c0,0,0,0.1,0,0.1c0,0,0,0.1-0.1,0.1v0
				c0,0,0,0,0,0.1v0.1c0,0,0,0,0,0.1s0,0,0,0.1s0,0,0,0.1s0,0,0,0.1v0c0,0,0,0,0,0.1v0h0v0h0c0,0,0,0,0,0h0c0,0,0.1,0,0.1,0.1
				c0,0,0.1,0,0.1,0c0,0,0,0,0,0.1c0,0,0,0,0,0.1c0,0,0,0,0,0.1c0,0,0,0.1,0,0.1v0c0,0,0,0,0,0.1c0,0,0,0,0,0.1c0,0,0,0.1,0,0.1
				c0,0,0,0,0,0.1c0,0,0,0,0,0c0,0,0,0.1,0,0.1c0,0,0,0,0,0.1c0,0,0.1,0.1,0.1,0.1c0,0,0,0,0,0c0,0,0,0,0,0.1s0,0,0,0.1
				c0,0,0,0,0,0.1c0,0,0,0.1,0,0.1c0,0,0,0,0,0c0,0,0,0.1,0,0.1c0,0,0,0,0,0.1c0,0,0,0.1,0,0.1s0,0,0,0.1l0,0c0,0,0,0.1,0,0.1
				c0,0,0,0,0,0.1c0,0,0,0,0,0.1c0,0,0,0,0,0c0,0,0,0,0,0.1c0,0,0,0,0,0.1c0,0,0,0,0,0.1c0,0,0,0.1,0,0.1l0,0c0,0,0,0,0,0.1
				c0,0,0,0.1,0,0.1c0,0,0,0,0,0.1c0,0,0,0,0,0.1v0c0,0,0,0,0,0.1c0,0,0,0.1,0,0.1c0.1,0,0.1,0,0.1,0.1c0,0,0,0,0.1,0c0,0,0,0,0,0.1
				c0,0,0.1,0.1,0.1,0.1c0,0,0,0.1,0,0.1c0,0,0.1,0,0.1,0.1c0,0,0.1,0,0.1,0c0,0,0,0,0.1,0.1c0,0,0,0,0,0.1c0,0,0.1,0,0.1,0.1
				c0,0,0,0,0,0.1s0,0,0,0.1c0,0,0,0,0,0.1s0,0,0,0.1c0,0,0,0,0,0.1s0,0,0,0.1c0,0,0,0,0,0c0,0,0,0,0,0.1c0,0,0.1,0,0.1,0
				c0,0,0,0.1,0,0.1c0,0,0,0,0,0.1l0,0c0,0,0,0.1,0,0.1c0,0-0.1,0.1-0.1,0.1c0,0,0,0,0,0.1c0,0,0,0,0,0.1s0,0,0,0.1c0,0,0,0-0.1,0.1
				c0,0,0,0,0,0.1c0,0,0,0.1-0.1,0.1c0,0,0,0,0,0.1c0,0-0.1,0-0.1,0c0,0,0,0,0,0.1c0,0,0,0.1,0,0.1c0,0,0,0,0,0.1v0c0,0,0,0,0,0.1
				c0,0,0,0-0.1,0c-0.1,0-0.1,0-0.1,0c0,0,0,0-0.1,0c-0.1,0-0.1,0-0.1,0c-0.6,0-1.2,0-1.8,0c-0.1,0-0.1,0-0.1,0c0,0-0.1,0-0.1-0.1
				c0,0,0,0,0-0.1c0,0,0-0.1,0-0.1c0,0,0,0,0-0.1c0,0,0,0,0-0.1v0c0,0,0-0.1,0-0.1c0,0,0,0,0-0.1c0,0,0,0,0-0.1c0,0,0-0.1,0-0.1
				c0,0,0,0,0-0.1v0c0,0,0,0,0-0.1s0-0.1,0-0.1c0,0,0-0.1,0-0.1v0c0,0,0,0,0-0.1s0,0,0-0.1s0,0,0-0.1c0,0,0,0,0-0.1c0,0,0,0,0-0.1
				c0,0,0,0,0-0.1c0,0,0,0,0-0.1c0,0,0-0.1,0-0.1c0,0,0,0,0-0.1v0c0,0,0-0.1,0-0.1c0,0,0.1-0.1,0.1-0.1c0,0,0,0,0-0.1c0,0,0,0,0-0.1
				c0,0,0,0,0-0.1l0,0c0,0,0.1,0,0.1,0c0,0,0.1,0,0.1,0c0,0,0.1,0,0.1,0h0l0,0v0c0,0,0-0.1,0-0.1s0,0,0-0.1c0,0,0,0,0-0.1
				c0,0,0-0.1,0-0.1s0-0.1,0-0.1c0,0,0,0,0-0.1c0,0,0,0-0.1-0.1c0,0,0,0,0-0.1c0,0,0,0,0-0.1c0,0,0,0-0.1,0c0,0,0,0,0-0.1
				c0,0,0,0,0-0.1c0-0.1,0-0.1,0-0.1l0,0c0,0,0,0,0-0.1c0,0,0-0.1-0.1-0.1c0,0,0,0,0-0.1c0,0,0,0,0-0.1l0,0c0,0,0-0.1,0-0.1
				c0,0,0,0,0-0.1c0,0,0,0,0-0.1c0,0,0-0.1,0-0.1v0c0,0,0,0,0-0.1c0,0,0,0,0-0.1c0-0.1,0-0.1,0-0.1l0,0c0,0,0,0,0-0.1c0,0,0,0,0-0.1
				c0,0,0,0,0-0.1c0,0,0,0,0-0.1c0,0-0.1,0-0.1,0c0,0,0-0.1,0-0.1c0,0,0,0,0-0.1c0,0,0,0,0-0.1l0,0c-0.6,0-1.2,0-1.8,0
				c0,0-0.1,0-0.2,0.1c-0.1,0-0.2,0-0.3,0c0,0-0.1,0-0.1,0h0c0,0-0.1,0-0.1,0c-0.1,0-0.1,0-0.2-0.1c0-0.1,0-0.1-0.1-0.1
				c0,0,0-0.1,0-0.1c0-0.1,0-0.1,0-0.1c0,0,0-0.1,0-0.1c0,0,0-0.1,0-0.1c0,0,0-0.1,0-0.1c0,0,0-0.1,0-0.1v-0.1c0,0,0-0.1,0-0.1
				c0,0,0-0.1,0-0.1s0,0,0-0.1c0,0,0-0.1,0-0.1c0,0,0-0.1,0-0.1c0-0.1,0-0.1,0-0.1c0,0,0-0.1,0-0.1c0,0,0-0.1,0-0.1
				c0,0,0.1,0,0.1-0.1c0,0,0,0,0-0.1c0,0,0.1-0.1,0.1-0.1c0.1,0,0.1,0,0.1-0.1c0.2,0,0.4,0,0.6,0v0c0,0,0-0.1,0-0.1c0,0,0-0.1,0-0.1
				c0,0,0-0.1,0-0.1c0,0,0-0.1,0-0.1c0,0,0-0.1,0-0.1c0,0,0-0.1,0-0.1c-0.2,0-0.4,0-0.6,0c0,0-0.1,0-0.1,0c-0.1,0-0.1-0.1-0.1-0.1
				c0,0,0,0,0,0c0,0,0-0.1-0.1-0.1V21c0,0,0-0.1,0-0.1c0,0,0-0.1,0-0.1c0,0,0-0.1,0-0.1v-0.1c0,0,0-0.1,0-0.1c0,0,0-0.1,0-0.1
				c0,0,0.1,0,0.1-0.1v0c0,0,0-0.1-0.1-0.1c0,0,0-0.1,0-0.1c0,0,0,0,0-0.1c0,0,0-0.1,0-0.1c0,0,0.1-0.1,0.1-0.1c0-0.1,0-0.1,0-0.1
				c0.1,0,0.1,0,0.2,0v0c0.1,0,0.2,0,0.3,0c0.1,0,0.2,0,0.3,0l0,0c0,0,0-0.1,0-0.1c0,0,0-0.1,0-0.1c0,0,0,0,0-0.1c0,0,0-0.1,0-0.1
				c0,0,0-0.1,0-0.1V19c0,0,0-0.1,0-0.1c0-0.1,0-0.1,0-0.1c0,0,0-0.1,0-0.1c0,0,0-0.1,0-0.1c0,0,0-0.1,0-0.1c0,0,0-0.1,0-0.1v-0.1
				c0,0,0-0.1,0-0.1c0-0.1,0-0.1,0-0.1c0,0,0,0,0-0.1c0,0,0-0.1,0-0.1c0,0,0-0.1,0-0.1c0,0,0-0.1,0-0.1s0-0.1,0-0.1c0,0,0-0.1,0-0.1
				c0,0,0,0,0-0.1s0,0,0-0.1c0,0-0.1,0-0.1,0c-0.1,0-0.2,0-0.3-0.1c0,0-0.1-0.1-0.1-0.1v0h0c-0.1,0-0.1-0.1-0.1-0.1
				c0,0-0.1-0.1-0.1-0.1c0,0,0-0.1,0-0.1c0,0,0-0.1,0-0.1h0v-0.1c0,0,0,0,0-0.1c0,0,0,0,0-0.1c0,0,0,0,0-0.1v-0.1c0,0,0,0,0-0.1
				c0,0,0,0,0-0.1c0,0,0,0,0-0.1v-0.2c0,0-0.1-0.1-0.1-0.1c0,0,0-0.1,0-0.1v0c-7.8,0-15.6,0-23.4,0c0,0-0.1,0-0.1,0l0,0
				c0,0,0,0.1,0,0.1c0,0,0,0.1-0.1,0.1c0,0-0.1,0.1-0.1,0.1c0,0-0.1,0.1-0.1,0.1c0,0,0,0.1-0.1,0.1c0,0,0,0.1-0.1,0.1
				c0,0,0,0.1-0.1,0.1c0,0.1,0,0.1-0.1,0.1c0,0,0,0.1-0.1,0.1c0,0-0.1,0.1-0.1,0.1c0,0-0.1,0.1-0.1,0.1c0,0,0,0.1,0,0.1
				c0,0,0,0.1,0,0.1c0,0,0,0-0.1,0.1c0,0-0.1,0.1-0.1,0.1c0,0-0.1,0.1-0.1,0.1c0,0,0,0-0.1,0.1c0,0-0.1,0.1-0.1,0.1
				c0,0,0,0.1-0.1,0.1l0,0.1c0,0.1-0.1,0.1-0.1,0.2c0,0,0,0.1-0.1,0.1c0,0,0,0.1-0.1,0.1c0,0,0,0.1,0,0.1c0,0-0.1,0.1-0.1,0.1
				c0,0,0,0.1,0,0.1c0,0,0,0-0.1,0.1c0,0,0,0.1,0,0.1c0,0.1-0.1,0.1-0.1,0.1c-0.1,0-0.1,0.1-0.1,0.1c0,0,0,0.1-0.1,0.1
				c0,0,0,0.1,0,0.1c0,0,0,0-0.1,0.1c0,0,0,0.1,0,0.1c0,0-0.1,0.1-0.1,0.1v0.1c0,0-0.1,0.1-0.1,0.1c0,0-0.1,0.1-0.1,0.1
				c0,0,0,0.1-0.1,0.1c0,0,0,0.1,0,0.1c0,0,0,0.1-0.1,0.1c0,0,0,0.1-0.1,0.1c0,0,0,0-0.1,0.1c0,0,0,0,0,0.1c-0.5,0-1.1,0-1.6,0v0
				c-4.3,0-8.5,0-12.7,0c-0.1,0-0.2,0-0.3-0.1v0.1c0,0,0,0,0,0v0.1h0v0.1l0,0v0c0,0-0.1,0-0.1,0v0c0,0,0,0,0,0v0.1c0,0,0,0,0,0v0
				c0,0,0,0,0,0v0.1c0,0,0,0,0,0c0,0,0,0,0,0v0h0v0.1c0,0,0,0,0,0v0c0,0,0,0,0,0c0,0,0,0,0,0v0h0v0l0,0v0c0,0,0,0,0,0v0.1
				c0,0,0,0,0,0l0,0v0.1l0,0h0c0,0,0,0.1,0,0.1l-0.5,1l0.3,2.4c0,0.1,0,0.2-0.1,0.3c-0.1,0.1-0.1,0.1-0.2,0.1c-0.1,0-0.1,0-0.2,0
				c0,0,0,0-0.1,0.1c0,0.1-0.1,0.1-0.2,0.1l-1.7,0.3c-0.1,0-0.1,0-0.2,0l-2.5-1c-0.1,0-0.1-0.1-0.2-0.2c0,0,0,0-0.1-0.1
				c-0.1-0.1-0.1-0.2-0.1-0.3l0.1-0.7c0-0.1,0-0.2,0.1-0.2c0.1,0,0.1,0,0.1-0.1v-0.8c0,0,0,0,0,0v-0.5c0,0,0,0,0,0v0l0,0v-0.1
				c0,0,0,0,0.1,0v0h0v-0.1l0.1-0.1v-0.1c0,0,0,0,0,0c0,0,0,0,0,0H23v0l0,0v-0.1l0,0v-0.1c0,0,0,0,0.1,0l0,0v0c0,0,0,0,0,0l0,0v0
				l0,0h0c0,0,0,0,0,0V21l0,0v0l0,0v0c0,0,0,0,0,0l0,0v0c0,0,0,0,0,0c0,0,0.1,0,0.1,0l0.1-0.1v0l0,0v-0.1c0,0,0.1,0,0.1,0l0,0v0
				c0,0,0,0,0,0l0,0v-0.1c0,0,0,0,0,0l0.1-0.1v-0.1c0,0,0,0,0,0l0,0v0c0,0,0,0,0,0l0,0v0l0,0v0h0v-0.1c0,0,0,0,0,0c0,0,0,0,0,0v0
				l0,0v-0.1c0,0,0,0,0,0v-0.1l0,0v0c0,0,0,0,0.1,0l0,0v0l0,0v0l0,0v-0.1c0,0,0,0,0,0l0,0v-0.3l-0.1-0.1v-0.1c0,0,0,0,0,0v-0.1l0,0
				v0l0,0v-0.1l-0.1-0.1v-0.4l0,0c0,0-0.1,0-0.1,0c-0.5,0-0.9,0-1.4,0c0,0,0,0,0,0v0c-0.1,0-0.2,0-0.3,0c-0.1,0-0.1,0-0.2,0v-0.2h0
				v-0.3h0c0,0,0,0.1,0,0.1c0,0,0,0.1,0,0.1v0c0,0,0,0.1,0,0.1c0,0,0,0.1,0,0.1v0c-0.2,0-0.4,0-0.6,0v0h0v0h0l0,0c0,0,0,0,0,0h0
				c0,0,0,0-0.1,0v0l0,0c0,0,0,0,0,0v0.1h0c0,0,0,0,0,0v0c0,0,0,0.1-0.1,0.1l0,0v0c0,0,0,0-0.1,0V18c0,0,0,0.1,0,0.1
				c0,0,0,0.1,0,0.1v0c0,0,0,0-0.1,0v0c0,0.1,0,0.2,0,0.3l-0.4,0.6c-0.1,0.1-0.1,0.1-0.2,0.1c-0.1,0-0.2,0-0.3,0
				C20,19.2,20,19.1,20,19.1l-1.2,0.1c-0.1,0-0.1,0-0.2-0.1c-0.1,0-0.2,0.1-0.3,0.1c0,0-0.1,0-0.1,0.1c0,0,0,0-0.1,0
				c0,0,0,0.1,0,0.1c0,0.1-0.1,0.2-0.2,0.2l-9.3,3.9c-0.1,0.1-0.2,0.1-0.3,0c-0.1,0-0.1,0-0.1-0.1c-0.1,0-0.2,0-0.3,0s-0.2,0-0.3,0
				c0,0,0,0.1,0,0.1c0,0,0,0.1,0,0.1c0,0,0,0.1,0,0.1c0,0,0,0.1,0,0.1c0,0,0,0.1,0,0.1c0,0,0,0.1,0,0.1c0,0,0,0.1,0,0.1
				c0,0,0,0.1,0,0.1c0,0.1,0,0.1,0,0.1c0,0,0,0.1,0,0.1c0,0,0,0.1,0,0.1c0,0,0,0.1,0,0.1c0,0,0,0.1,0,0.1v0c0.1,0,0.1,0,0.2,0.1
				c0.1,0.1,0.1,0.1,0.1,0.2v0.4c0,0.1,0,0.2-0.1,0.3c-0.1,0-0.1,0.1-0.2,0.1l0,0c-0.1,0.1-0.2,0.1-0.3,0.1H5.4
				c-0.1,0-0.1,0-0.2-0.1c0,0-0.1,0-0.1,0c0,0-0.1,0-0.1,0c-0.1,0-0.1,0-0.1,0c-0.1,0-0.2,0-0.2-0.1c0,0-0.1-0.1-0.1-0.1
				c0,0,0,0,0-0.1c0,0,0-0.1,0-0.1c0,0,0-0.1,0-0.1c0,0,0,0,0-0.1c-1.1,0-2.3,0-3.4,0.1c-0.1,0-0.1,0-0.2,0.1c-0.1,0-0.2,0-0.3,0
				c-0.1,0-0.2-0.1-0.3-0.1c0,0-0.1-0.1-0.1-0.1c0,0,0-0.1-0.1-0.1c0,0,0,0,0-0.1c0,0,0-0.1-0.1-0.1c0,0,0,0-0.1-0.1
				c0,0,0-0.1,0-0.1c0,0,0-0.1,0-0.1c0,0,0,0,0-0.1c0,0,0-0.1,0-0.1c0,0,0-0.1,0-0.1c0,0,0-0.1,0-0.1s0-0.1,0-0.1c0,0,0-0.1,0-0.1
				c0,0,0,0,0-0.1c0,0,0-0.1,0-0.1c0,0,0-0.1,0-0.1c0,0,0-0.1,0-0.1c0,0,0,0,0-0.1c0,0,0-0.1,0-0.1c0,0,0-0.1,0-0.1c0,0,0-0.1,0-0.1
				c0,0,0-0.1,0-0.1c0,0,0-0.1,0-0.1c0,0,0,0,0-0.1c0,0,0-0.1,0-0.1s0-0.1,0-0.1V23c0,0,0-0.1,0-0.1c0,0,0-0.1,0-0.1
				c0,0,0-0.1,0-0.1c0,0,0-0.1,0-0.1c0,0,0-0.1,0-0.1c0,0,0-0.1,0-0.1v-0.1c0,0,0-0.1,0-0.1c0,0,0-0.1,0-0.1c0,0,0,0,0-0.1
				c0,0,0-0.1,0-0.1c0,0,0-0.1,0-0.1c0-0.1,0-0.1,0-0.1s0-0.1,0-0.1c0,0,0-0.1,0-0.1c0,0,0,0,0-0.1c0,0,0-0.1,0-0.1c0,0,0-0.1,0-0.1
				c0,0,0-0.1,0-0.1c0,0,0,0,0-0.1c0,0,0-0.1,0-0.1c0,0,0-0.1,0-0.1c0,0,0-0.1,0-0.1c0,0,0-0.1,0-0.1c0,0,0-0.1,0-0.1
				c0,0,0-0.1,0-0.1s0-0.1,0-0.1c0-0.1,0-0.1,0-0.1C0,20,0,20,0,20c0,0,0,0,0-0.1c0,0,0-0.1,0-0.1c0,0,0-0.1,0-0.1v-0.1
				c0,0,0-0.1,0-0.1c0,0,0-0.1,0-0.1c0,0,0,0,0-0.1c0,0,0-0.1,0-0.1c0,0,0-0.1,0-0.1V19c0,0,0-0.1,0-0.1c0-0.1,0-0.1,0-0.1
				c0,0,0-0.1,0-0.1c0,0,0-0.1,0-0.1c0,0,0-0.1,0-0.1c0,0,0-0.1,0-0.1v-0.1c0,0,0-0.1,0-0.1C0,18,0,18,0,18c0,0,0,0,0-0.1
				c0,0,0-0.1,0-0.1c0,0,0-0.1,0-0.1c0,0,0-0.1,0-0.1s0-0.1,0-0.1c0,0,0-0.1,0-0.1c0,0,0,0,0-0.1s0-0.1,0-0.1c0,0,0-0.1,0-0.1
				c0,0,0-0.1,0-0.1c0,0,0,0,0-0.1c0,0,0-0.1,0-0.1c0,0,0-0.1,0-0.1v-0.1c0,0,0-0.1,0-0.1c0,0,0-0.1,0-0.1c0,0,0-0.1,0-0.1
				s0-0.1,0-0.1S0,16,0,16v-0.1c0,0,0-0.1,0-0.1c0,0,0-0.1,0-0.1c0-0.1,0-0.1,0-0.1s0-0.1,0-0.1c0,0,0-0.1,0-0.1c0,0,0-0.1,0-0.1
				v-0.1c0,0,0-0.1,0-0.1C0,15,0,15,0,15c0,0,0-0.1,0-0.1c0-0.1,0-0.1,0-0.1c0,0,0-0.1,0-0.1c0-0.1,0-0.1,0-0.1c0,0,0-0.1,0-0.1
				c0,0,0-0.1,0-0.1c0,0,0-0.1,0-0.1c0,0,0-0.1,0-0.1c0-0.1,0-0.1,0-0.1c0,0,0-0.1,0.1-0.1c0,0,0.1-0.1,0.1-0.1c0.1,0,0.2,0,0.3,0v0
				c0.1,0,0.1,0,0.2,0.1c0,0,0.1,0,0.1,0c0,0,0.1,0,0.1,0v0c1.2,0,2.3,0,3.5,0c0,0,0.1,0,0.1,0c0,0,0-0.1,0.1-0.1c0.1,0,0.2,0,0.3,0
				v0c0.1,0,0.1,0,0.2,0.1c0.6,0,1.2,0.1,1.8,0.1c0,0,0-0.1,0-0.1v0c0,0-0.1,0-0.1-0.1c0,0-0.1-0.1-0.1-0.1c0,0-0.1-0.1-0.1-0.1
				c0,0-0.1-0.1-0.1-0.1l0-0.1c0,0,0-0.1,0-0.1s0-0.1,0-0.1s0-0.1,0-0.1c0-0.1,0-0.1,0-0.1c0-0.1,0-0.1,0-0.1c0,0,0-0.1,0.1-0.1
				s0.1-0.1,0.1-0.1c0,0,0-0.1,0-0.1c0,0,0-0.1,0-0.1v-0.1c0-0.1,0-0.1,0-0.1c0,0,0-0.1,0-0.1c0,0,0-0.1,0-0.1
				c0-0.1,0.1-0.1,0.1-0.1c0-0.1,0.1-0.1,0.1-0.1h0c0-0.1,0-0.1,0.1-0.1c0,0,0.1-0.1,0.1-0.1c0,0,0.1,0,0.1,0c0,0,0.1,0,0.1,0v0
				c3.8,0,7.6,0,11.4,0c0.1,0,0.1,0.1,0.2,0.1c0,0.1,0.1,0.1,0.1,0.1c0,0,0,0.1,0,0.1c0,0,0,0.1,0.1,0.1l0,0c0,0,0,0.1,0,0.1
				c0,0,0,0.1,0.1,0.1c0,0,0,0.1,0,0.1l0,0.1c0,0.1,0,0.1-0.1,0.1c0,0,0,0,0,0.1s0,0.1,0,0.1v0c0,0.1,0,0.1,0,0.1c0,0.1,0,0.1,0,0.1
				s0,0.1,0,0.1c0,0,0,0,0,0.1s0,0,0,0.1c0,0,0,0.1,0,0.1c0,0.1,0,0.1,0,0.1s0,0,0,0.1c0,0,0,0.1,0,0.1c0,0,0,0.1,0,0.1v0
				c0,0,0,0.1,0,0.1c0,0.1,0,0.1,0,0.1c0,0,0,0.1,0,0.1h0v0c0,0-0.1,0.1-0.1,0.1c0,0.1,0,0.1,0,0.1c0,0-0.1,0.1-0.1,0.1
				c0,0-0.1,0.1-0.1,0.1v0c0,0,0,0.1,0,0.1l0,0v0c0.6,0,1.2,0,1.8,0v0c0,0,0,0,0.1,0v0c0.1,0,0.2,0,0.3-0.1c0.1,0,0.1,0,0.2,0.1
				c0.1,0,0.2,0,0.3,0c0.2,0,0.4,0,0.5,0c0.1,0,0.2,0,0.3,0c0,0,0,0,0.1,0c0,0,0.1,0,0.1,0c0,0,0,0,0,0c0,0,0.1,0,0.2,0c0,0,0,0,0,0
				c0,0,0.1,0,0.1,0c0,0,0,0,0,0c0,0,0.1,0,0.1,0c0,0,0,0,0,0c0,0,0.1,0,0.1,0c0,0,0,0,0,0s0,0,0.1,0c0,0,0,0,0.1,0h0c0,0,0,0,0,0
				c0,0,0,0,0.1,0s0,0,0,0h0v0c0,0,0.1,0,0.1,0c0,0,0,0,0,0c0,0,0.1,0,0.1,0s0.1,0,0.1,0h0l0,0c0,0,0,0,0,0h0c0,0,0.1,0,0.1,0
				c0,0,0,0,0.1,0h0l0,0h0c0,0,0,0,0,0c0,0,0.1,0,0.1,0v0c0,0,0,0,0.1,0c0,0,0,0,0,0h0c0,0,0,0,0.1,0h0c0,0,0,0,0,0
				c0.1,0,0.1,0,0.1,0l0,0h0.1c0,0,0.1,0,0.1,0l0,0h0l0,0c0,0,0,0,0.1,0c0,0,0.1,0,0.1,0c0,0,0.1,0,0.1,0c0,0,0,0,0,0l0,0
				c0,0,0,0,0,0c0,0,0.1,0,0.1,0c0,0,0,0,0.1,0c0,0,0,0,0,0c0,0,0.1,0,0.1,0v0c0,0,0,0,0.1,0s0,0,0,0c0,0,0.1,0,0.1,0c0,0,0,0,0,0
				l0.1-0.1c0,0,0.1,0,0.1,0c0,0,0,0,0.1,0c0,0,0,0,0,0h0c0,0,0,0,0,0c0,0,0,0,0,0c0,0,0,0,0.1,0c0,0,0.1,0,0.1,0h0.1v0l0,0
				c0.1,0,0.1,0,0.1,0c0,0,0,0,0.1,0c0,0,0,0,0,0h0c0,0,0,0,0,0v0c0,0,0,0,0,0c0,0,0,0,0.1,0h0c0,0,0,0,0,0c0,0,0,0,0,0
				c0,0,0,0,0.1,0h0c0,0,0,0,0,0s0,0,0,0l0,0v0h0l0,0c0,0,0,0,0.1,0c0,0,0,0,0,0c0,0,0,0,0,0c0,0,0,0,0,0c0,0,0,0,0.1,0
				c0,0,0,0,0.1,0l0,0c0,0,0,0,0.1,0l0,0c0,0,0-0.1,0.1-0.1c0,0,0,0,0.1,0c0,0,0.1,0,0.1,0c0,0,0-0.1,0.1-0.1c0,0,0,0,0-0.1
				c0,0,0,0,0.1,0c0,0,0,0,0.1,0v0h0c0,0,0,0,0.1,0v0h0v0h0c0,0,0,0,0.1,0c0,0,0.1,0,0.1,0h0c0,0,0.1,0,0.1,0c0,0,0.1,0,0.1,0
				c0.1-0.1,0.2-0.1,0.3-0.1c0,0,0.1,0,0.1-0.1c0.1,0,0.1,0,0.1,0c0.6,0,1.2-0.1,1.7-0.1c0.1,0,0.1,0,0.2,0c0,0,0,0,0-0.1
				c0-0.1,0-0.1,0-0.1c-1.6,0-3.1,0-4.7,0v0c0,0-0.1,0-0.1,0c0,0,0,0-0.1,0c-0.2,0-0.4,0-0.6,0c-0.4,0-0.8,0-1.2,0v0c0,0,0,0-0.1,0
				v0c0,0-0.1,0-0.2,0c0,0,0-0.1-0.1-0.1v0c0,0,0-0.1,0-0.1c0,0,0-0.1,0-0.1s0-0.1,0-0.1c0,0,0-0.1,0-0.1v0c0,0,0,0,0-0.1
				c0,0,0-0.1,0-0.1c0,0,0-0.1,0-0.1v0c0,0,0-0.1,0-0.1c0,0,0-0.1,0-0.1c0,0,0,0,0-0.1c0,0,0-0.1,0-0.1v0c0,0,0-0.1,0-0.1
				c0,0,0-0.1,0-0.1c0,0,0,0,0-0.1c0,0,0-0.1,0-0.1v0c0,0,0-0.1,0-0.1c0,0,0-0.1,0-0.1c0,0,0-0.1,0-0.1v0c0,0,0-0.1,0-0.1
				c0,0,0-0.1,0-0.1c0,0,0,0,0-0.1c0,0,0,0,0-0.1V7.8c0,0,0,0,0,0c0-0.1,0-0.1,0-0.1c0,0,0-0.1,0-0.2V7.4c0,0,0-0.1,0-0.1
				c0.1,0,0.1-0.1,0.1-0.1c0,0,0.1,0,0.2,0v0c0,0,0,0,0.1,0v0h0c0,0,0-0.1,0-0.1c0,0,0-0.1,0.1-0.1c0,0,0,0,0,0c0,0,0.1,0,0.1,0v0
				c0.9,0,1.8,0,2.8,0v0c0,0,0-0.1,0-0.1v0c0,0,0-0.1,0-0.1c0,0,0,0,0-0.1c0,0,0-0.1,0-0.1v0c0,0,0,0,0-0.1c0,0,0,0,0-0.1
				s0-0.1,0-0.1c0,0,0-0.1,0-0.1v0c0,0,0-0.1,0-0.1c0,0,0-0.1,0-0.1c0,0,0-0.1,0-0.1c0,0,0-0.1,0-0.1c0,0,0,0,0,0c0,0,0-0.1,0-0.1
				c0,0,0,0,0-0.1s0-0.1,0-0.1v0c0,0,0-0.1,0-0.1c0,0,0-0.1,0-0.1c0,0,0-0.1,0-0.1c0,0,0-0.1,0-0.1v0c0,0,0,0,0.1-0.1l0,0
				c0,0,0,0,0.1,0c0,0,0,0,0.1,0v0c0.7,0,1.4,0,2.1,0c0,0,0,0,0.1,0h0v0c0,0,0.1,0.1,0.1,0.1c0,0,0,0.1,0.1,0.1c0,0,0,0,0.1,0
				c0,0,0,0,0,0.1c0,0,0,0.1,0,0.1c0,0,0,0.1,0,0.1c0,0.1,0,0.1,0,0.1v0c0,0,0,0,0,0.1c0,0,0,0,0,0.1s0,0.1,0,0.1c0,0,0,0.1,0,0.1v0
				c0,0.1,0,0.1,0,0.1C31,6,31,6,31,6c0,0,0,0.1,0,0.1v0c0,0,0,0.1,0,0.1s0,0.1,0,0.1c0,0,0,0,0,0.1c0,0,0,0.1,0,0.1v0
				c0,0,0,0,0,0.1s0,0.1,0,0.1s0,0.1,0,0.1s0,0.1,0,0.1v0c0,0,0,0,0,0.1c2.1,0,4.3,0,6.3,0v0c0,0,0-0.1,0-0.1v0c0,0,0-0.1,0-0.1
				c0,0,0,0,0-0.1c0,0,0-0.1,0-0.1v0c0,0,0,0,0-0.1c0,0,0,0,0-0.1s0-0.1,0-0.1c0,0,0-0.1,0-0.1v0c0,0,0-0.1,0-0.1c0,0,0-0.1,0-0.1
				c0,0,0-0.1,0-0.1c0,0,0-0.1,0-0.1v0c0,0,0-0.1,0-0.1c0,0,0,0,0-0.1s0-0.1,0-0.1v0c0,0,0-0.1,0-0.1c0,0,0-0.1,0-0.1
				c0,0,0-0.1,0-0.1s0-0.1,0-0.1v0c0,0,0,0,0-0.1c0-0.1,0-0.1,0-0.1c0,0,0,0,0-0.1c0,0,0-0.1,0-0.1v0c0,0,0-0.1,0-0.1c0,0,0,0,0-0.1
				s0,0,0-0.1V4.5c0,0,0-0.1,0-0.1c0,0,0-0.1,0-0.1C37.4,4.3,37.4,4.3,37.5,4.2C37.5,4.2,37.5,4.2,37.5,4.2z M71.6,18.1
				C71.6,18.1,71.6,18,71.6,18.1c0-0.1,0-0.1,0-0.2C71.6,18,71.6,18,71.6,18.1C71.6,18,71.6,18.1,71.6,18.1L71.6,18.1z M31,17.6
				c0,0,0,0.1,0,0.1c0,0,0,0.1,0,0.1c0,0,0,0.1,0,0.1c0,0,0,0,0,0.1s0,0.1,0,0.1c0,0,0,0,0,0.1v0c0,0,0.1,0,0.1,0.1c0,0,0,0,0.1,0.1
				c0,0,0,0.1,0,0.1c0,0,0,0.1,0,0.1c0.1,0,0.2,0,0.3,0c0.1,0,0.1,0,0.2,0v0c0,0,0.1,0,0.2,0c0.1,0,0.1,0,0.2-0.1
				c0.1,0,0.1-0.1,0.2-0.1c0,0,0,0,0.1-0.1c0,0,0.1,0,0.1-0.1l0,0c0,0,0.1-0.1,0.1-0.1c0,0,0-0.1,0.1-0.1c0,0,0.1-0.1,0.1-0.1
				c0,0,0.1-0.1,0.1-0.1c0,0,0-0.1,0-0.1c0,0,0-0.1,0-0.1c0,0,0-0.1,0-0.1c0,0,0-0.1,0-0.1v-0.1c0,0,0-0.1,0-0.1c-0.7,0-1.5,0-2.2,0
				l0,0c0,0,0,0.1,0,0.1c0,0,0,0,0,0.1c0,0,0,0.1,0,0.1C31,17.5,31,17.6,31,17.6z M29.9,18.6c-0.1,0-0.1-0.1-0.1-0.1
				c0,0-0.1-0.1-0.1-0.1c0,0,0,0-0.1-0.1c0,0,0-0.1,0-0.1c0,0,0-0.1,0-0.1c0,0,0-0.1,0-0.1s0,0,0-0.1c0,0,0-0.1,0-0.1
				c0,0,0-0.1,0-0.2v-0.1c0,0,0-0.1,0-0.1c0,0,0-0.1,0-0.1c0,0,0,0,0-0.1c0,0-0.1,0-0.1,0c0,0,0,0,0,0.1c0,0,0,0,0,0.1l0,0
				c0,0-0.1,0-0.1,0l0,0c0,0-0.1,0.1-0.1,0.1c0,0-0.1,0.1-0.1,0.1c0,0,0,0.1,0,0.1c0,0,0,0.1,0,0.1s0,0.1,0,0.1c0,0,0,0,0,0.1
				c0,0,0.1,0,0.1,0c0,0,0.1,0,0.1,0.1c0,0,0,0.1,0.1,0.1c0,0.1,0,0.1,0,0.1v0C29.6,18.6,29.8,18.6,29.9,18.6
				C29.9,18.6,29.9,18.6,29.9,18.6z M23.9,16.9c0.1,0,0.2,0,0.3,0c0,0,0.1,0,0.1,0v0c-0.1,0-0.1,0-0.2,0
				C24.1,16.9,24,16.9,23.9,16.9L23.9,16.9z M25,17.4L25,17.4c0,0-0.1,0-0.1,0v0C24.9,17.4,25,17.4,25,17.4z M9.1,19.3
				C9.1,19.4,9.1,19.4,9.1,19.3C9.1,19.4,9.1,19.4,9.1,19.3l-0.1,0.1c0,0,0,0,0,0.1v0.1c0,0,0,0,0,0.1v0.1c0,0,0,0,0,0.1
				c0,0,0,0,0,0.1V20c0,0,0,0,0,0.1c0,0,0,0,0,0.1v0c0,0,0,0,0,0.1v0c0,0,0,0,0,0.1v0c0,0,0.1,0,0.1,0c0.1,0,0.1,0,0.1,0.1
				c0.2,0,0.4,0.1,0.6,0.1c0,0,0.1,0.1,0.1,0.1l0-0.1h0c0,0,0.1,0,0.1,0h0c0,0,0,0,0,0c0,0,0.1,0,0.1,0c0,0,0,0,0,0v0c0,0,0,0,0,0
				c0,0,0.1,0,0.1,0h0c0,0,0,0,0,0h0c0,0,0,0,0.1,0l0,0h0c0,0,0,0,0,0c0,0,0,0,0,0v0h0c0,0,0,0,0,0h0c0,0,0.1,0,0.1,0
				c0,0,0.1,0,0.1,0c0,0,0,0,0.1,0c0,0,0.1,0,0.1,0h0c0,0,0.1,0,0.1,0c0,0,0,0,0,0c0,0,0.1,0,0.1,0c0,0,0,0,0-0.1
				c0,0,0.1-0.1,0.1-0.1c0-0.1,0-0.1,0.1-0.1c0,0,0-0.1,0-0.1c0,0,0-0.1,0-0.1c0,0,0,0,0-0.1v0C11,19.3,10.1,19.3,9.1,19.3L9.1,19.3
				C9.2,19.3,9.2,19.3,9.1,19.3z M5.4,25.6c0,0-0.1,0-0.1,0H5.4C5.4,25.6,5.4,25.6,5.4,25.6z M22.9,24.6L22.9,24.6L22.9,24.6
				L22.9,24.6z"/>
		</g>
	</g>
</g>
<g id="guides">
</g>
<g id="Flash_2_">
	<path fill="#FFFFFF" d="M164.3,11.7c0,2.2-0.8,4.2-2.4,5.8c-1.6,1.6-3.5,2.4-5.8,2.4c-2.2,0-4.2-0.8-5.8-2.4
		c-1.6-1.6-2.4-3.5-2.4-5.8c0-0.6,0.1-1.1,0.2-1.7c0.2-0.1,0.4-0.1,0.6-0.3c0.8-0.4,1.5-0.8,2.3-1.1c0.1,0,0.3-0.1,0.4-0.2
		c-0.7,1-1.1,2.1-1,3.4c0,1.6,0.6,3,1.7,4.1c1.1,1.1,2.5,1.7,4.1,1.7c1.6,0,3-0.6,4.1-1.7c1.1-1.1,1.7-2.5,1.7-4.1
		c0-1.6-0.5-2.9-1.6-4.1c0.7,0.2,1.4,0.4,2.1,0.8c0,0,0,0,0,0c0.4,0.2,0.8,0.4,1.2,0.5C164.2,9.9,164.3,10.8,164.3,11.7z"/>
	<path fill="#FFFFFF" d="M172.1,18.7c-0.7-1.1-1.5-2.2-2.4-3.2c-0.2,0.2-0.4,0.4-0.6,0.6c-3.8,3.8-8.4,5.7-13.8,5.7
		c-5.4,0-10-1.9-13.9-5.7l-0.1,0.1c0.7,1.1,1.6,2.1,2.5,3.1c3.8,3.8,8.4,5.7,13.9,5.7s10-1.9,13.8-5.7
		C171.8,19.1,172,18.9,172.1,18.7L172.1,18.7z"/>
	<path fill="#FFFFFF" d="M169.7,15.5c0.9,1,1.7,2.1,2.4,3.2c0.7-0.7,1.3-1.4,1.8-2.1c-0.6-1-1-1.6-2.4-3.2
		C170.9,14.1,170.3,14.8,169.7,15.5L169.7,15.5z"/>
	<polygon fill="#FF0000" points="160.4,13.3 158,14.4 157.7,17.1 155.8,15.2 153.2,15.6 154.5,13.3 153.2,11 155.8,11.4 157.7,9.5 
		158,12.1 	"/>
	<path fill="#FFFFFF" d="M169.1,14.9c0.2,0.2,0.4,0.4,0.6,0.6c0.6-0.7,1.2-1.4,1.8-2.2c-0.2-0.2-0.4-0.4-0.6-0.6
		C167,8.9,162.4,7,157,7c-5.4,0-10,1.9-13.9,5.7c-0.8,0.9-1.6,1.8-2.3,2.7l0.1,0.1c0.1-0.2,0.3-0.4,0.5-0.5
		c3.8-3.8,8.4-5.7,13.9-5.7S165.3,11.1,169.1,14.9L169.1,14.9z"/>
</g>
<path fill="#FFFFFF" d="M117.8,4c-6.6,0-12,5.4-12,12c0,6.6,5.4,12,12,12c6.7,0,12-5.4,12-12C129.8,9.4,124.4,4,117.8,4z
	 M117.9,26.6c-5.9,0-10.7-4.8-10.7-10.7S112,5.3,117.9,5.3c5.9,0,10.7,4.8,10.7,10.7S123.8,26.6,117.9,26.6z"/>
<path fill="#FFFFFF" d="M118.7,1.6v10.7c-0.3-0.1-0.6-0.1-1-0.1c-0.4,0-0.7,0-1,0.1V1.6H118.7z"/>
<path fill="#FFFFFF" d="M117.7,19.9c0.3,0,0.7,0,1-0.1v10.6h-2V19.8C117,19.9,117.3,19.9,117.7,19.9z"/>
<path fill="#FFFFFF" d="M113.9,15c-0.1,0.3-0.2,0.7-0.2,1.1c0,0.3,0,0.6,0.1,0.9h-10.6v-2H113.9z"/>
<path fill="#FFFFFF" d="M132.1,15v2h-10.6c0.1-0.3,0.1-0.6,0.1-0.9c0-0.4,0-0.7-0.1-1.1H132.1z"/>
<path fill="#FF0000" d="M103.8,29.8L103.8,29.8c-0.7-0.7-0.7-1.8,0-2.5L129,2.1c0.7-0.7,1.8-0.7,2.5,0l0,0c0.7,0.7,0.7,1.8,0,2.5
	l-25.2,25.2C105.6,30.5,104.5,30.5,103.8,29.8z"/>
</svg>
