<?xml version="1.0" encoding="utf-8"?>
<!-- Generator: Adobe Illustrator 21.0.2, SVG Export Plug-In . SVG Version: 6.00 Build 0)  -->
<svg version="1.1" id="Слой_1" xmlns="http://www.w3.org/2000/svg" xmlns:xlink="http://www.w3.org/1999/xlink" x="0px" y="0px"
	 width="131px" height="32px" viewBox="0 0 131 32" enable-background="new 0 0 131 32" xml:space="preserve">
<g id="Selected_Items">
	<g>
		<g id="Selected_Items_49_">
			<path fill="#FFFFFF" d="M24.6,2C24.6,2,24.6,2,24.6,2c0.1-0.1,0.2-0.1,0.2-0.1l0,0c0,0,0.1,0,0.1,0l0,0c0,0,0.1,0,0.1,0
				c0,0,0,0,0,0h0v0c0,0,0.1,0,0.1,0l0.1-0.1c0,0,0,0,0,0c0,0,0,0,0,0c0.1,0,0.1,0,0.1,0c0,0,0.1,0,0.1,0c0.1,0,0.2,0,0.3,0
				c0,0,0-0.1,0-0.1h0v0c0.2,0,0.3,0,0.5,0v0c0,0,0.1,0,0.1,0v0c0,0,0.1,0,0.1,0l0,0c0,0,0.1,0,0.1,0v0c0,0,0,0,0,0
				c0.1,0,0.1,0,0.1,0c0,0,0.1,0,0.1,0c0,0,0,0,0,0c0,0,0.1,0,0.1,0c0,0,0,0,0,0h0.1l0,0c0,0,0.1,0,0.1,0l0,0.1l0.1,0
				c0.1,0,0.1,0,0.1,0c0,0,0.1,0.1,0.1,0.1v0.1c0,0,0,0.1,0,0.1v0.1c0,0.1,0,0.1,0,0.1v0.2c0,0.1,0,0.1,0,0.1c0,0,0,0.1,0,0.1v0.1
				c0,0.1,0,0.1,0,0.1c6.3,0,12.5,0,18.8,0v0c0,0,0-0.1,0-0.1s0-0.1,0-0.1c0,0,0-0.1,0-0.1c0,0,0-0.1,0-0.1c0,0,0-0.1,0-0.1h0
				c0,0,0.1,0,0.1,0c0,0,0-0.1,0-0.1c0,0,0,0,0,0h0c0,0,0-0.1,0-0.1h0c0,0,0-0.1,0-0.1c0,0,0.1,0,0.1,0h0c0,0,0-0.1,0-0.1
				c0,0,0,0,0,0c0,0,0,0,0,0v0c0,0,0,0,0,0l0,0v0c0.4,0,0.8,0,1.3,0v0l0.1,0.1c0,0,0,0,0,0c0,0,0,0,0,0v0c0,0,0,0.1,0,0.1h0l0,0
				c0,0,0.1,0.1,0.1,0.1c0,0,0,0.1,0,0.1c0,0,0.1,0,0.1,0c0,0,0,0,0,0c0,0,0,0.1,0,0.1c0,0,0.1,0,0.1,0c0,0.1,0,0.1,0,0.1
				c0,0,0,0.1,0,0.1v0.1c0,0,0,0.1,0,0.1c0,0,0.1,0,0.1,0c0,0,0,0.1,0,0.1c0.1,0,0.2,0,0.3,0c0,0.1,0,0.1,0,0.1v0.1
				c0,0,0.1,0.1,0.1,0.1c0,0,0.1,0,0.1,0c0,0,0,0.1,0,0.1h0c0,0,0.1,0,0.2,0v0.1c0,0.1,0,0.1,0,0.1v0.2c0,0.1,0,0.1,0,0.1v0.1
				c0,0,0,0.1,0,0.1s0,0,0.1,0c0,0.1,0,0.1,0,0.1V5c0,0,0.1,0,0.1,0c0,0,0,0.1,0,0.1c0,0,0,0.1,0,0.1c0,0,0,0.1,0,0.1
				c0,0,0,0.1,0,0.1c0,0,0,0.1,0,0.1v0c0.1,0,0.1,0,0.2,0v0.1c0,0,0,0.1,0,0.1c0.5,0,0.9,0,1.4,0c0,0,0,0.1,0,0.1c0.1,0,0.2,0,0.3,0
				c0,0,0,0.1,0,0.1c0,0,0,0.1,0,0.1s0,0.1,0,0.1c0,0,0,0.1,0,0.1c0,0,0,0.1,0,0.1c0,0,0,0.1,0,0.1c0,0,0,0.1,0,0.1c0,0,0,0.1,0,0.1
				c0,0,0,0.1,0,0.1c0,0,0,0.1,0,0.1c0,0,0,0.1,0,0.1c0,0,0,0.1,0,0.1c0,0,0,0.1,0,0.1c0,0,0,0.1,0,0.1c0,0,0,0.1,0,0.1
				c0,0,0,0.1,0,0.1c0,0,0,0.1,0,0.1s0,0.1,0,0.1c0,0,0,0.1,0,0.1c0,0,0,0.1,0,0.1c0,0,0,0.1,0,0.1c0,0,0,0.1,0,0.1v0.1
				c0,0,0,0.1,0,0.1c0,0,0,0.1,0,0.1v0c-0.1,0-0.1,0-0.1,0c-0.5,0-1.1,0-1.6,0v0c-0.1,0-0.1,0-0.1,0c0,0.1,0,0.1,0,0.1
				c0,0,0,0.1,0,0.1v0.1c-0.1,0-0.1,0-0.1,0c0,0.1,0,0.1,0,0.1c0,0,0,0.1,0,0.1c0,0,0,0.1,0,0.1v0c0,0.1-0.1,0.1-0.1,0.1
				c0,0,0,0.1,0,0.1c0,0-0.1,0.1-0.1,0.1c0,0,0,0.1,0,0.1v0c-0.1,0-0.1,0-0.2,0c0,0.1,0,0.1,0,0.1v0c0,0,0,0,0,0c0,0,0,0,0,0
				c0,0,0,0.1,0,0.1l0,0c0,0,0,0,0,0v0l0,0v0.1c0,0,0,0,0,0c0,0-0.1,0-0.2,0v0c0,0.1,0,0.1,0,0.1v0.1l0,0v0c-0.2,0-0.4,0-0.7,0v0
				c-4.2,0-8.4-0.1-12.6-0.1v0c-0.3,0-0.5,0-0.7,0c0,0,0,0.1,0,0.1v0c0,0.1,0,0.1,0,0.1c0,0,0,0.1,0,0.1c0,0,0,0.1,0,0.1
				s0,0.1,0,0.1c0,0,0,0.1,0,0.1c0,0,0,0.1,0,0.1c0,0,0,0.1,0,0.1c0,0,0,0.1,0,0.1c0,0,0,0.1,0,0.1c0,0,0,0.1,0,0.1c0,0,0,0.1,0,0.1
				c0,0,0,0.1,0,0.1c0,0,0,0.1,0,0.1c0,0,0,0.1,0,0.1c0,0,0,0.1,0,0.1c0,0,0,0.1,0,0.1c0,0,0,0.1,0,0.1c0,0,0,0.1,0,0.1
				c0,0,0,0.1,0,0.1s0,0.1,0,0.1c0,0,0,0.1,0,0.1c0,0,0,0.1,0,0.1c0,0,0,0.1,0,0.1c0,0,0,0.1,0,0.1c0,0,0,0.1,0,0.1c0,0,0,0.1,0,0.1
				c0,0,0,0.1,0,0.1s0,0.1,0,0.1c0,0,0,0.1,0,0.1c-0.1,0-0.1,0-0.2,0V13c-0.3,0-0.6,0.1-1,0.1v0c-0.3,0-0.5,0-0.8,0
				c-0.1,0-0.1,0-0.1,0c-0.1,0-0.1,0-0.2,0v0.1c0,0-0.1,0-0.1,0c0,0-0.1,0-0.1,0c0,0,0,0.1,0,0.1c0,0-0.1,0-0.1,0c0,0,0,0.1,0,0.1v0
				h0c0,0,0,0.1,0,0.1h0c0,0,0,0.1,0,0.1l0,0h0c0,0,0,0.1,0,0.1v0h0c0,0,0,0.1,0,0.1L32.3,14c0,0,0,0.1,0,0.1c0,0,0,0,0,0h0
				c0,0,0,0.1,0,0.1v0.1c0,0-0.1,0-0.1,0h0c0,0,0,0.1,0,0.1c0,0,0,0,0,0c0,0,0,0,0,0v0c0,0-0.1,0-0.1,0l0,0v0h0c0,0,0,0.1,0,0.1
				c0,0-0.1,0-0.1,0v0c0,0,0,0,0,0c-0.1,0-0.1,0-0.2,0l0,0.1v0l-0.1,0.1v0.2c0,0,0,0.1,0,0.1v0.1c0,0,0,0.1,0,0.1v0c0,0,0,0.1,0,0.1
				v0c0,0,0,0.1,0,0.1c0,0,0,0.1,0,0.1v0.2c0,0,0,0.1,0,0.1c0,0,0,0.1,0,0.1v0.3c0,0,0,0.1,0,0.1v0.3c0,0,0,0.1,0,0.1v0.3
				c0,0,0,0.1,0,0.1v0.3c0,0,0,0.1,0,0.1V18c0,0,0,0.1,0,0.1c0.1,0,0.2,0,0.4,0c0,0,0.1,0.1,0.1,0.1c0,0.1,0,0.1,0,0.1
				c0,0,0,0.1,0,0.1c0,0,0,0.1,0,0.1v0.1c0,0,0,0.1,0,0.1c0,0,0,0.1,0,0.1v0.1c0,0,0,0.1,0,0.1l0,0v0.4c0,0,0,0,0,0v0l0,0v0.3l0,0
				V20c0,0,0,0,0,0c0,0,0,0,0,0v0c0,0,0,0,0,0c0,0,0,0.1,0,0.1v0.1c-0.1,0-0.1,0-0.1,0c0,0-0.1,0-0.1,0c0,0,0,0,0,0c0,0-0.1,0-0.1,0
				v0h0c0,0-0.1,0-0.1,0c0,0-0.1,0-0.1,0c0,0-0.1,0-0.1,0c0,0,0,0,0,0v0c0,0,0,0.1,0,0.1v0c0,0-0.1,0-0.1,0c0,0,0,0.1,0,0.1v0
				c0,0,0,0.1,0,0.1c0,0,0,0.1,0,0.1l0,0v0c0,0,0,0.1,0,0.1c0,0,0,0.1,0,0.1c0,0,0,0.1,0,0.1c0,0,0,0.1,0,0.1c0,0,0,0.1,0,0.1
				c0,0,0,0.1,0,0.1s0,0.1,0,0.1c0,0,0,0.1,0,0.1c0,0,0,0.1,0,0.1c0,0,0,0.1,0,0.1c0,0,0,0.1,0,0.1c0,0,0,0.1,0,0.1c0,0,0,0.1,0,0.1
				c0,0,0,0.1,0,0.1c0,0,0,0.1,0,0.1c0,0,0,0.1,0,0.1s0,0.1,0,0.1c0,0,0,0.1,0,0.1c0,0,0,0.1,0,0.1c0,0,0,0.1,0,0.1v0.1
				c0,0,0,0.1,0,0.1c0,0,0,0.1,0,0.1s0,0.1,0,0.1v0.1c0,0,0,0.1,0,0.1c0,0,0,0.1,0,0.1v0.1c0,0,0,0.1,0,0.1c0,0,0,0.1,0,0.1v0.1
				c0,0,0,0.1,0,0.1v0.2c0,0.1,0,0.1,0,0.1v0.2c0,0.1,0,0.1,0,0.1v0.2c0,0.1,0,0.1,0,0.1v0.1c0,0,0,0.1,0,0.1v0c0,0.1,0,0.1,0,0.1
				v0.1c0,0,0,0.1,0,0.1v0c0,0.1,0,0.1,0,0.1v0.1c0,0,0,0.1,0,0.1c0,0,0,0.1,0,0.1c0,0,0,0.1,0,0.1c0,0,0,0.1,0,0.1v1.5
				c0,0,0,0.1,0,0.1v0.5c0,0,0,0.1,0,0.1c0,0,0,0.1,0,0.1v0.2c0,0,0,0.1,0,0.1c0,0,0,0.1,0,0.1v0c0,0,0,0.1,0,0.1v0.1
				c0,0,0,0.1,0,0.1v0.2c0,0,0,0.1,0,0.1V30c0,0,0,0.1,0,0.1c0,0,0,0.1,0,0.1v0.2c0,0,0,0.1,0,0.1s0,0.1,0,0.1v0.3c0,0,0,0.1,0,0.1
				V31c-2.3,0-4.7,0-7,0v-0.2c0,0,0-0.1,0-0.1v-0.6c0,0,0-0.1,0-0.1c0,0,0-0.1,0-0.1v-0.2c0,0,0-0.1,0-0.1c0,0,0-0.1,0-0.1v-0.2
				c0,0,0-0.1,0-0.1c0,0,0-0.1,0-0.1v-0.2c0,0,0-0.1,0-0.1c0,0,0-0.1,0-0.1v-0.2c0,0,0-0.1,0-0.1c0,0,0-0.1,0-0.1v-0.2
				c0,0,0-0.1,0-0.1c0,0,0-0.1,0-0.1V28c0,0,0-0.1,0-0.1v-1.5c0,0,0-0.1,0-0.1c0,0,0-0.1,0-0.1c0,0,0-0.1,0-0.1c0,0,0-0.1,0-0.1V26
				c0,0,0-0.1,0-0.1v0c0,0,0-0.1,0-0.1v-0.1c0,0,0-0.1,0-0.1v0c0,0,0-0.1,0-0.1v-0.1c0,0,0-0.1,0-0.1V25c0,0,0-0.1,0-0.1v-0.2
				c0,0,0-0.1,0-0.1v-0.2c0-0.1,0-0.1,0-0.1V24c0-0.1,0-0.1,0-0.1c0,0,0-0.1,0-0.1v-0.1c0-0.1,0-0.1,0-0.1c0,0,0-0.1,0-0.1v-0.1
				c0,0,0-0.1,0-0.1s0-0.1,0-0.1c0,0,0-0.1,0-0.1V23c0,0,0-0.1,0-0.1c0,0,0-0.1,0-0.1c0,0,0-0.1,0-0.1c0,0,0-0.1,0-0.1s0-0.1,0-0.1
				c0,0,0-0.1,0-0.1c0,0,0-0.1,0-0.1c0,0,0-0.1,0-0.1c0,0,0-0.1,0-0.1c0,0,0-0.1,0-0.1c0,0,0-0.1,0-0.1c0,0,0-0.1,0-0.1
				c0,0,0-0.1,0-0.1c0,0,0-0.1,0-0.1s0-0.1,0-0.1c0,0,0-0.1,0-0.1c0,0,0-0.1,0-0.1c0,0,0-0.1,0-0.1c0,0,0-0.1,0-0.1c0,0,0-0.1,0-0.1
				c0,0,0-0.1,0-0.1c0,0,0-0.1,0-0.1c0,0,0-0.1,0-0.1c0,0,0-0.1,0-0.1v-0.1h0c0,0,0,0,0,0c0,0,0,0.1,0,0.1c0,0-0.1,0.1-0.1,0.1
				c0,0,0,0.1,0,0.1v0c0,0-0.1,0.1-0.1,0.1c0,0,0,0.1,0,0.1c0,0,0,0.1,0,0.1c-0.4,0-0.7,0-1.1,0c0,0,0-0.1,0-0.1c-0.1,0-0.2,0-0.3,0
				c0,0,0-0.1,0-0.1c-0.1,0-0.2,0-0.3,0c0,0,0-0.1,0-0.1v0c0,0-0.1,0-0.1,0c0,0,0-0.1,0-0.1c0,0,0-0.1,0-0.1c0,0,0-0.1,0-0.1
				c0,0,0-0.1,0-0.1c0,0,0-0.1,0-0.1c0,0,0-0.1,0-0.1c0,0,0-0.1,0-0.1c0,0,0-0.1,0-0.1s0-0.1,0-0.1c0,0,0-0.1,0-0.1c0,0,0-0.1,0-0.1
				c0,0,0-0.1,0-0.1c0,0,0-0.1,0-0.1c0,0,0-0.1,0-0.1c0,0,0-0.1,0-0.1c0,0,0-0.1,0-0.1s0-0.1,0-0.1s0-0.1,0-0.1c0,0,0-0.1,0-0.1
				c0,0,0-0.1,0-0.1s0-0.1,0-0.1v0c0,0,0-0.1,0-0.1c0,0,0-0.1,0-0.1s0-0.1,0-0.1v-0.1c0,0,0-0.1,0-0.1c-1.7,0-3.4,0-5.2,0
				c0,0,0,0.1,0,0.1c0,0,0,0.1,0,0.1V19c0,0,0,0.1,0,0.1v0.2c0,0.1,0,0.1,0,0.1v0.1c-1,0-2,0-3,0v0l0,0.1c0,0.1,0,0.1,0,0.1
				c0,0-0.1,0-0.1,0.1l0,0c0,0.1,0,0.1,0,0.1c0,0.1-0.1,0.1-0.1,0.1v0.1c0,0,0,0.1,0,0.1l0,0c0,0.1,0,0.1,0,0.1v0.2
				c-0.1,0-0.1,0-0.1,0c0,0,0,0.1,0,0.1c0,0,0,0.1,0,0.1c0,0-0.1,0.1-0.1,0.1c0,0,0,0.1,0,0.1c0,0,0,0.1,0,0.1c0,0,0,0.1,0,0.1
				c0,0,0,0.1,0,0.1c0,0,0,0.1,0,0.1c0,0-0.1,0-0.1,0c0,0,0,0.1,0,0.1c0,0,0,0.1,0,0.1c0,0-0.1,0.1-0.1,0.1l0,0c0,0,0,0.1,0,0.1
				c0,0,0,0.1,0,0.1c0,0,0,0.1,0,0.1v0l0,0.1L12,22.4c0,0,0,0.1,0,0.1c0,0-0.1,0-0.1,0c0,0.1,0,0.1-0.1,0.1v0.1c0,0,0,0.1,0,0.1l0,0
				V23c0,0.1,0,0.1,0,0.1v0.1c-0.1,0-0.1,0-0.1,0c0,0,0,0.1,0,0.1l0,0.1c-0.1,0-0.1,0.1-0.1,0.1c0,0,0,0.1,0,0.1v0l0,0.1
				c0,0,0,0.1,0,0.1c0,0,0,0.1,0,0.1c-0.1,0-0.1,0-0.1,0v0.1c0,0,0,0.1,0,0.1c0,0-0.1,0-0.1,0.1l0,0v0.1c0,0,0,0.1,0,0.1v0
				c0,0-0.1,0-0.1,0c0,0,0,0.1,0,0.1c0,0,0,0.1,0,0.1c0,0,0,0.1,0,0.1c0,0,0,0.1,0,0.1c0,0,0,0.1,0,0.1c-0.1,0-0.1,0-0.1,0
				c0,0,0,0.1,0,0.1v0.1c0,0,0,0.1,0,0.1c-0.1,0-0.1,0-0.1,0c0,0,0,0.1,0,0.1c0,0.1-0.1,0.1-0.1,0.1c0,0,0,0.1,0,0.1v0
				c0,0,0,0.1,0,0.1l0,0.1c-0.1,0-0.1,0.1-0.1,0.1v0.1c0,0.1,0,0.1,0,0.1c-0.1,0-0.1,0.1-0.1,0.1v0.1c0,0.1,0.1,0.1,0.1,0.1
				c0,0,0,0.1,0,0.1c0,0,0.1,0,0.1,0c0,0,0,0.1,0,0.1l0,0c0,0,0,0.1,0,0.1c0,0,0,0.1,0,0.1c0,0,0.1,0.1,0.1,0.1c0,0,0,0,0,0v0.2
				c0,0,0,0.1,0,0.1v0.2c0,0,0,0.1,0,0.1v0.1c0,0.1,0,0.1,0,0.1v0.1c-0.1,0-0.1,0-0.1,0c0,0,0,0.1,0,0.1c0,0,0,0.1,0,0.1
				c0,0,0,0.1,0,0.1c-0.1,0-0.1,0.1-0.2,0.1c0,0,0,0.1,0,0.1c-0.3,0-0.6,0-0.9,0h0c0,0,0-0.1,0-0.1c-0.4,0-0.8,0-1.2,0v0
				c-0.6,0-1.1-0.1-1.7-0.1c0,0,0,0,0,0c-0.6,0-1.2,0-1.8,0c0,0,0-0.1,0-0.1c-0.2,0-0.4,0-0.5,0l0,0c-0.5,0-1,0-1.5,0
				c-0.1,0-0.1,0-0.1,0c-0.1,0-0.2,0-0.3,0c0,0,0,0-0.1,0c-0.4,0-0.7-0.1-1.1-0.1c0,0-0.1,0-0.1,0c0-0.1,0-0.1,0-0.1v-0.1
				c-0.2,0-0.3,0-0.5,0c0,0-0.1,0-0.1,0c0-0.1,0-0.1,0-0.1c0,0-0.1,0-0.1-0.1c0,0-0.1,0-0.1-0.1v0c0-0.1,0-0.1,0-0.1
				c0,0,0-0.1,0-0.1c0,0,0-0.1,0-0.1v0c0-0.1,0-0.1,0-0.1c0,0,0-0.1,0-0.1c0,0,0-0.1,0-0.1v0c0-0.1,0-0.1,0-0.1c0,0,0-0.1,0-0.1
				c0,0,0-0.1,0-0.1c0,0,0-0.1,0-0.1c0,0,0-0.1,0-0.1c0,0,0-0.1,0-0.1c0,0,0-0.1,0-0.1c0,0,0-0.1,0-0.1c0,0,0-0.1,0-0.1
				c0,0,0.1-0.1,0.1-0.1c0,0,0.1-0.1,0.1-0.1c0,0,0-0.1,0-0.1c0,0,0-0.1,0-0.1c0,0,0.1-0.1,0.1-0.1c0,0,0-0.1,0-0.1c0,0,0-0.1,0-0.1
				c0,0,0-0.1,0-0.1c0,0,0-0.1,0-0.1c0,0,0-0.1,0-0.1c0,0,0-0.1,0-0.1c0,0,0-0.1,0-0.1c0,0,0-0.1,0-0.1c0,0,0-0.1,0-0.1
				c0,0,0-0.1,0-0.1c0,0,0-0.1,0-0.1v0c0,0,0.1,0,0.1,0v-0.1c0-0.1,0-0.1,0-0.1v-0.1c0,0,0.1,0,0.1,0c0-0.1,0-0.1,0-0.1
				c0,0,0-0.1,0-0.1v-0.1c0,0,0.1,0,0.1,0c0-0.1,0-0.1,0-0.1c0,0,0-0.1,0-0.1v-0.1c0,0,0.1,0,0.1,0v-0.1c0,0,0-0.1,0-0.1
				c0.1,0,0.1-0.1,0.2-0.1c0,0,0-0.1,0-0.1c0,0,0-0.1,0-0.1c0,0,0-0.1,0-0.1c0.1,0,0.1-0.1,0.1-0.1s0-0.1,0-0.1c0,0,0-0.1,0-0.1
				c0,0,0.1-0.1,0.1-0.1c0,0,0.1-0.1,0.1-0.1c0,0,0.1-0.1,0.1-0.1c0,0,0-0.1,0-0.1c0.1,0,0.1,0,0.1,0c0-0.1,0-0.1,0-0.1
				c0,0,0-0.1,0-0.1c0,0,0.1-0.1,0.1-0.1c0,0,0,0,0,0c0-0.1,0-0.1,0-0.1c0,0,0-0.1,0-0.1c0.1,0,0.1-0.1,0.1-0.1v0c0-0.1,0-0.1,0-0.1
				c0,0,0-0.1,0-0.1c0,0,0-0.1,0-0.1v0c0.1,0,0.1,0,0.1,0c0-0.1,0-0.1,0-0.1c0-0.1,0-0.1,0-0.1l0-0.1c0,0,0,0,0,0c0-0.1,0-0.1,0-0.1
				c0-0.1,0-0.1,0-0.1v-0.1c0.1,0,0.1-0.1,0.1-0.1v-0.1c0-0.1,0-0.1,0-0.1c0,0,0.1,0,0.1-0.1c0,0,0-0.1,0-0.1c0,0,0.1-0.1,0.1-0.1
				c0,0,0-0.1,0-0.1c0,0,0.1-0.1,0.1-0.1c0,0,0-0.1,0-0.1c0,0,0-0.1,0-0.1c0,0,0-0.1,0-0.1c0,0,0-0.1,0-0.1c0,0,0.1-0.1,0.1-0.1
				c0,0,0-0.1,0-0.1c0,0,0.1-0.1,0.1-0.1c0,0,0-0.1,0-0.1c0,0,0.1-0.1,0.1-0.1c0,0,0-0.1,0-0.1h0.1c0-0.1,0-0.1,0-0.1
				c0,0,0-0.1,0-0.1c0,0,0.1,0,0.1-0.1c0.1,0,0.1,0,0.1,0c0-0.1,0-0.1,0-0.1v-0.1c0.1,0,0.1,0,0.1,0c0,0,0-0.1,0-0.1
				c0,0,0.1-0.1,0.1-0.1c0,0,0-0.1,0-0.1c0.1,0,0.1-0.1,0.1-0.1c0,0,0-0.1,0-0.1c0,0,0-0.1,0-0.1c0.1,0,0.1,0,0.1,0c0,0,0-0.1,0-0.1
				c0,0,0.1-0.1,0.1-0.1c0,0,0-0.1,0-0.1c0.1,0,0.1-0.1,0.1-0.1c0,0,0-0.1,0-0.1c0,0,0.1-0.1,0.1-0.1c0,0,0-0.1,0-0.1
				c0,0,0.1-0.1,0.1-0.1c0,0,0-0.1,0-0.1c0,0,0-0.1,0-0.1c0.1,0,0.1-0.1,0.1-0.1c0,0,0-0.1,0-0.1v-0.1c0.1,0,0.1,0,0.1,0
				c0,0,0-0.1,0-0.1l0-0.1v0c0-0.1,0-0.1,0-0.1C5.3,16.1,5.3,16,5.3,16v-0.1c0.1-0.1,0.1-0.1,0.1-0.1c0-0.1,0-0.1,0-0.1l0-0.1l0,0
				v-0.1c0-0.1,0-0.1,0-0.1c0,0,0.1,0,0.1-0.1c0,0,0-0.1,0-0.1v0c0,0,0-0.1,0-0.1c0,0,0.1,0,0.1,0c0,0,0-0.1,0-0.1v-0.2
				c-0.1,0-0.1-0.1-0.1-0.1v-0.1c-0.1,0-0.1-0.1-0.1-0.1c0,0,0-0.1,0-0.1c0,0,0-0.1,0-0.1c0,0-0.1-0.1-0.1-0.1c0,0-0.1,0-0.1,0
				c0,0,0-0.1,0-0.1c0,0,0-0.1,0-0.1c0,0-0.1-0.1-0.1-0.1v-0.1c0,0-0.1-0.1-0.1-0.1c0,0-0.1-0.1-0.1-0.1c0,0-0.1,0-0.1,0v-0.2
				c0,0-0.1-0.1-0.1-0.1v-0.1c0-0.1,0-0.1,0-0.1v-0.2c0,0,0-0.1,0-0.1c-0.7,0-1.4,0-2.1,0c0,0,0-0.1,0-0.1c-0.1,0-0.2,0-0.2,0v0
				c0,0-0.1,0-0.1,0c0,0-0.1-0.1-0.1-0.1C2.1,12,2.1,12,2.1,12c-0.1,0-0.1-0.1-0.1-0.1c0,0,0-0.1,0-0.1c0,0-0.1,0-0.1,0
				c0,0,0-0.1,0-0.1c0,0-0.1-0.1-0.1-0.1v0c0,0-0.1-0.1-0.1-0.1c0,0-0.1,0-0.1,0v-0.1c0,0,0-0.1,0-0.1L1.3,11c-0.1,0-0.1,0-0.2,0
				c0,0,0-0.1,0-0.1c0,0-0.1-0.1-0.1-0.1c0,0,0-0.1,0-0.1c0,0,0-0.1,0-0.1H1v-0.1c0-0.1,0-0.1,0-0.1v-0.2c0-0.1,0-0.1,0-0.1V10
				c0,0,0-0.1,0-0.1v0c0-0.1,0-0.1,0-0.1V9.6c0,0,0-0.1,0-0.1c0,0,0-0.1,0-0.1c0,0,0-0.1,0-0.1V9.3c0,0,0-0.1,0-0.1c0,0,0-0.1,0-0.1
				S1,9.1,1,9S1,9,1,8.9c0,0,0-0.1,0-0.1c0,0,0-0.1,0-0.1c0,0,0-0.1,0-0.1c0,0,0-0.1,0-0.1c0,0,0-0.1,0-0.1c0,0,0-0.1,0-0.1
				c0,0,0-0.1,0-0.1c0,0,0-0.1,0-0.1c0,0,0-0.1,0-0.1c0,0,0-0.1,0-0.1C1,8,1,8,1,8c0,0,0-0.1,0-0.1c0,0,0-0.1,0-0.1s0-0.1,0-0.1
				c0,0,0-0.1,0-0.1c0,0,0-0.1,0-0.1V7.5c0,0,0-0.1,0-0.1c0,0,0-0.1,0-0.1c0,0,0-0.1,0-0.1V7.1c0,0,0-0.1,0-0.1C1,7,1,7,1,6.9
				c0,0,0-0.1,0-0.1V6.8c0,0,0-0.1,0-0.1c0,0,0-0.1,0-0.1V6.4c0,0,0-0.1,0-0.1V6.1c0,0,0-0.1,0-0.1h0.1v0c0,0,0-0.1,0-0.1
				c0,0,0-0.1,0-0.1s0-0.1,0-0.1c0,0,0-0.1,0-0.1s0-0.1,0-0.1c0,0,0-0.1,0-0.1v0c0,0,0.1,0,0.1,0c0,0,0-0.1,0-0.1
				c0.1,0,0.2-0.1,0.3-0.1c0,0,0-0.1,0-0.1c0,0,0-0.1,0-0.1h0c0.1,0,0.1,0,0.2,0c0,0,0-0.1,0-0.1V4.9c0,0,0.1-0.1,0.1-0.1
				c0.1,0,0.1,0,0.2,0c0,0,0.1-0.1,0.1-0.1c0,0,0-0.1,0-0.1c0.1,0,0.1-0.1,0.2-0.1c0,0,0-0.1,0.1-0.1v0l0,0c0.1,0,0.1,0,0.1,0v0
				c0.1,0,0.1-0.1,0.2-0.1l0,0C3,4,3,4,3.1,4c0.1,0,0.1,0,0.2,0c0,0,0-0.1,0-0.1c0.1,0,0.1-0.1,0.2-0.1c0,0,0.1-0.1,0.1-0.1
				c0,0,0-0.1,0-0.1c0.1,0,0.2,0,0.3,0c0,0,0-0.1,0-0.1C4,3.5,4,3.4,4,3.4v0c0.1,0,0.1-0.1,0.2-0.1c0.1,0,0.1,0,0.1,0
				c0,0,0-0.1,0-0.1v0c0.1,0,0.1,0,0.1,0h0v0h0v0c0,0,0-0.1,0-0.1V2.7c0.1,0,0.3,0,0.4,0c0,0,0-0.1,0-0.1c0,0,0-0.1,0-0.1
				c0,0,0-0.1,0-0.1s0-0.1,0-0.1v0h0c0,0,0.1,0,0.1,0c0,0,0-0.1,0-0.1h0c0,0,0-0.1,0-0.1c0,0,0,0,0,0c0,0,0-0.1,0-0.1
				c0.3,0,0.6,0,0.9,0v0c0.1,0,0.2,0,0.3,0v0.1c0,0,0,0.1,0,0.1v0.1c0,0,0,0,0,0c0,0.1,0,0.1,0,0.1l0,0.1v0.1c0,0.1,0,0.1,0,0.1
				c0,0,0,0.1,0,0.1c5.9,0,11.9,0,17.8,0v0c0,0,0-0.1,0-0.1c0,0,0-0.1,0-0.1V2.7c0,0,0-0.1,0-0.1V2.4c0-0.1,0-0.1,0-0.1V2L24.6,2
				C24.5,2,24.5,2,24.6,2z M21.9,14.8C21.9,14.8,21.9,14.7,21.9,14.8c-0.1-0.1-0.1-0.1-0.1-0.2c0,0,0-0.1,0-0.1c0,0-0.1-0.1-0.1-0.1
				c0,0,0-0.1,0-0.1c0,0,0-0.1,0-0.1v-0.1c0,0-0.1-0.1-0.1-0.1V14c0,0-0.1,0-0.1,0c0,0,0-0.1,0-0.1c0,0-0.1-0.1-0.1-0.1
				c0,0-0.1-0.1-0.1-0.1c-0.2,0-0.4,0-0.6,0c-0.8,0-1.6,0-2.4,0l0,0c0,0,0,0.1,0,0.1v0c0,0,0,0.1,0,0.1h0v0l0,0c0,0,0,0,0,0
				c0,0,0,0.1,0,0.1l0,0c0,0,0,0.1,0,0.1h0c0,0,0,0.1,0,0.1h0c0,0,0,0,0,0c0,0,0.1,0.1,0.1,0.1v0c0,0,0,0.1,0,0.1H19
				c0,0,0,0.1,0,0.1c0,0,0.1,0,0.1,0l0,0c0,0,0,0.1,0,0.1h0v0.1c0,0,0.1,0,0.1,0c0,0,0,0,0,0l0,0v0h0l0,0c0,0,0.1,0,0.1,0v0
				c0,0,0,0,0,0h0c0,0,0.1,0,0.1,0s0.1,0,0.1,0c0,0,0.1,0,0.1,0v0.1l0,0h0.1c0,0,0.1,0.1,0.1,0.1l0,0c0,0,0,0.1,0,0.1l0,0
				c0,0,0,0.1,0,0.1l0,0V16h0c0,0,0,0.1,0,0.1c0,0,0,0,0,0c0,0,0,0,0,0h0l0,0h0c-0.1,0-0.3,0-0.4,0c-0.1,0-0.1,0-0.1,0
				c-0.1,0-0.1,0-0.1,0c0,0-0.1,0-0.1,0c0,0-0.1,0-0.1,0c0,0-0.1,0-0.1,0l0,0v0c0,0-0.1,0-0.1,0h-0.1c0,0-0.1,0-0.1,0c0,0,0,0,0,0
				l0,0c0,0,0,0,0,0c0,0,0,0,0,0c0,0-0.1,0-0.1,0l0,0v0c0,0,0,0,0,0l0,0c0,0-0.1,0-0.1,0c0,0,0,0,0,0c0,0,0,0,0,0c0,0,0,0,0,0l0,0v0
				c0,0,0,0,0,0l0,0c0,0-0.1,0-0.1,0c0,0,0,0,0,0c0,0,0,0,0,0s0,0,0,0l0,0v0c0,0,0,0,0,0c0,0,0,0,0,0l0,0c0,0-0.1,0-0.1,0
				c0,0,0,0,0,0c0,0,0-0.1,0-0.1h0v-0.1l0,0v0c0,0-0.1,0-0.1,0v0c0,0,0-0.1,0-0.1c0,0,0,0,0,0c0,0,0,0,0,0v0c0,0,0-0.1,0-0.1l0,0
				c0,0,0-0.1,0-0.1v-0.1l0,0c0,0,0-0.1,0-0.1v0c0,0,0-0.1,0-0.1c0,0-0.1,0-0.1,0l0,0c-0.1,0-0.1,0.1-0.1,0.1v0c0,0-0.1,0.1-0.1,0.1
				l0,0c0,0,0,0.1,0,0.1c0,0.1-0.1,0.1-0.1,0.1c0,0.1,0,0.1,0,0.1c0,0,0,0.1,0,0.1c-0.1,0-0.1,0.1-0.1,0.1c0,0.1,0,0.1,0,0.1
				c0,0,0,0.1,0,0.1c0,0-0.1,0.1-0.1,0.1c0,0-0.1,0.1-0.1,0.1c0,0.1,0,0.1,0,0.1s0,0.1-0.1,0.1c0,0,0,0.1,0,0.1c0,0,0,0.1,0,0.1
				c0,0,0,0.1,0,0.1c0,0-0.1,0.1-0.1,0.1c0,0,0,0.1,0,0.1c0,0,0,0.1,0,0.1c0,0-0.1,0.1-0.1,0.1c0,0,0,0.1,0,0.1c0,0,0,0.1,0,0.1
				c0,0,0,0,0,0.1c0,0-0.1,0.1-0.1,0.1c0,0,0,0.1,0,0.1c2.2,0,4.3,0.1,6.4,0.1c0,0,0-0.1,0-0.1c0,0,0-0.1,0-0.1c0,0,0-0.1,0-0.1
				c0,0,0-0.1,0-0.1c0.1,0,0.1-0.1,0.1-0.1c0,0,0.1-0.1,0.1-0.1v-0.1c0,0,0.1,0,0.1,0c0-0.1,0-0.1,0-0.1v-0.1c0.1,0,0.1,0,0.2,0
				c0,0,0-0.1,0-0.1c0,0,0-0.1,0-0.1c0,0,0-0.1,0-0.1c0,0,0.1-0.1,0.1-0.1c0,0,0-0.1,0-0.1c0,0,0-0.1,0-0.1c0,0,0-0.1,0-0.1
				c0,0,0-0.1,0-0.1c0,0,0-0.1,0-0.1c0,0-0.1-0.1-0.1-0.1C21.9,14.9,21.9,14.9,21.9,14.8C21.9,14.9,21.9,14.8,21.9,14.8z M6.3,15.9
				L6.3,15.9L6.3,15.9L6.3,15.9L6.3,15.9z"/>
		</g>
	</g>
</g>
<g id="guides">
</g>
<g id="Flash_2_">
	<path fill="#FFFFFF" d="M82.1,12.5c0,2.2-0.8,4.2-2.4,5.8c-1.6,1.6-3.5,2.4-5.8,2.4c-2.2,0-4.2-0.8-5.8-2.4
		c-1.6-1.6-2.4-3.5-2.4-5.8c0-0.6,0.1-1.1,0.2-1.7c0.2-0.1,0.4-0.1,0.6-0.3c0.8-0.4,1.5-0.8,2.3-1.1c0.1,0,0.3-0.1,0.4-0.2
		c-0.7,1-1.1,2.1-1,3.4c0,1.6,0.6,3,1.7,4.1c1.1,1.1,2.5,1.7,4.1,1.7c1.6,0,3-0.6,4.1-1.7c1.1-1.1,1.7-2.5,1.7-4.1
		c0-1.6-0.5-2.9-1.6-4.1c0.7,0.2,1.4,0.4,2.1,0.8c0,0,0,0,0,0c0.4,0.2,0.8,0.4,1.2,0.5C82,10.7,82.1,11.6,82.1,12.5z"/>
	<path fill="#FFFFFF" d="M89.9,19.5c-0.7-1.1-1.5-2.2-2.4-3.2c-0.2,0.2-0.4,0.4-0.6,0.6c-3.8,3.8-8.4,5.7-13.8,5.7s-10-1.9-13.9-5.7
		L59.2,17c0.7,1.1,1.6,2.1,2.5,3.1c3.8,3.8,8.4,5.7,13.9,5.7c5.4,0,10-1.9,13.8-5.7C89.6,19.9,89.8,19.7,89.9,19.5L89.9,19.5z"/>
	<path fill="#FFFFFF" d="M87.5,16.4c0.9,1,1.7,2.1,2.4,3.2c0.7-0.7,1.3-1.4,1.8-2.1c-0.6-1-1-1.6-2.4-3.2
		C88.8,14.9,88.2,15.7,87.5,16.4L87.5,16.4z"/>
	<polygon fill="#FF0000" points="78.2,14.1 75.9,15.3 75.5,17.9 73.7,16 71.1,16.4 72.3,14.1 71.1,11.8 73.7,12.2 75.5,10.3 
		75.9,12.9 	"/>
	<path fill="#FFFFFF" d="M87,15.8c0.2,0.2,0.4,0.4,0.6,0.6c0.6-0.7,1.2-1.4,1.8-2.2c-0.2-0.2-0.4-0.4-0.6-0.6
		c-3.8-3.8-8.4-5.7-13.8-5.7c-5.4,0-10,1.9-13.9,5.7c-0.8,0.9-1.6,1.8-2.3,2.7l0.1,0.1c0.1-0.2,0.3-0.4,0.5-0.5
		c3.8-3.8,8.4-5.7,13.9-5.7S83.1,12,87,15.8L87,15.8z"/>
</g>
<g id="Smoke_2_">
	<path display="none" fill="#FFFFFF" d="M99.1,21.5c0.3-0.2,0.6-0.3,1-0.4c0.2-0.1,0.5-0.1,0.7-0.1L101,22"/>
	<path fill="#FFFFFF" d="M99,20.4c0,0,0.2,2.6,2.7,4.1c0.5,0.3,1.3,0.8,1.7,1c1.9,1.2,2.9,0.9,4.1,0.8c2.3-0.2,6.9-3,7.4-5.6
		c0.5-2.6-0.8-5-2.4-5.4c-1.6-0.4-3.1,0.3-3.5,1.8c-0.5,1.5,1,2.2,1,2.2c-1.6,0.3-2.2-1.3-1.8-2.7c0.3-1.4,1.8-3.1,4.7-2.5
		c2.9,0.7,3.4,3.3,3.4,3.3c1-1.8,3.3-2.8,6-1.8s1.8,3.2,1.8,3.2c-0.1-1.6-1.4-2.3-3.3-2.7c-1.8-0.3-3.6,0.5-4.2,3.2
		c-0.5,2.7,0.8,6.2,3.8,7c3.1,0.8,7.7-0.1,9.5-3.6c1.8-3.5,1.8-9.8-2.9-13.2c-4.7-3.4-9.3,0.1-9.3,0.1s-0.4-3.8-5.4-4
		c-5-0.3-5.7,5.3-5.7,5.3c-0.5-2.7-5.2,0.3-6.6,2.7c-1,1.7-1.6,4.3-1,6.1C98.9,19.9,99,20.3,99,20.4z"/>
</g>
</svg>
