<?xml version="1.0" encoding="utf-8"?>
<!-- Generator: Adobe Illustrator 21.0.2, SVG Export Plug-In . SVG Version: 6.00 Build 0)  -->
<svg version="1.1" id="Слой_1" xmlns="http://www.w3.org/2000/svg" xmlns:xlink="http://www.w3.org/1999/xlink" x="0px" y="0px"
	 width="162.1px" height="32px" viewBox="0 0 162.1 32" enable-background="new 0 0 162.1 32" xml:space="preserve">
<g id="Selected_Items">
	<g>
		<g id="Selected_Items_64_">
			<path fill="#FFFFFF" d="M78.1,3.5c0,0.1,0.1,0.2,0.2,0.3c0.1,0.3,0.2,0.7,0.4,1.2c0.1,0.5,0.2,1.1,0.3,1.6v1.4
				c0.1,0.1,0.2,0.2,0.2,0.3c0,0.2,0.1,0.3,0.2,0.5h0.3c0.2,0,0.3,0,0.4,0c0.1,0,0.1,0,0.3,0l2.4,0l0.1,0.2c0,0.1,0,0.3,0.1,0.4
				c0.1,0.2,0.2,0.4,0.2,0.6c0.1,0.3,0.1,0.5,0,0.7c-0.1,0.2-0.2,0.4-0.4,0.5c-0.3,0.1-0.6,0.2-0.9,0.2c-0.3,0.1-0.6,0.1-0.7,0.1
				c0,0-0.2,0-0.4,0.1c-0.2,0-0.3,0.1-0.4,0.1h-0.3c-0.1,0-0.3,0-0.5-0.1c0,0.3,0,0.5-0.1,0.7c-0.1,0.3-0.2,0.4-0.6,0.5
				c-0.1,0-0.2,0-0.3,0c0,0.1-0.1,0.1-0.1,0.1l-0.1,0v0.7l-0.2,0.7H78c-0.3,0-0.7,0-1.3,0c-0.6,0-1.1-0.1-1.3-0.3
				c-0.1,0-0.2,0.1-0.3,0.2L75,14.5h-0.1c-0.3,0-0.5,0.1-0.8,0.3c-0.2,0.2-0.4,0.3-0.4,0.5c0,0.1,0,0.3,0,0.6c0,0.3,0,0.7,0.1,1.2
				c0,0.5,0,1.1,0,1.8c0,0.7,0,1.4,0,2.1c0,0.7,0,1.3,0,1.9c0,0.6-0.1,1.1-0.1,1.5c-0.1,0.6-0.2,1-0.2,1.4c-0.1,0.3-0.2,0.6-0.3,0.8
				c-0.1,0.2-0.1,0.3-0.1,0.5L73,27.2h-0.2c-0.2,0.1-0.6,0.1-1.2,0.1c-0.5,0-0.9-0.1-1.2-0.3v-0.1c-0.1-0.1-0.2-0.2-0.3-0.4
				c-0.1-0.1-0.2-0.3-0.2-0.6c-0.1-0.4-0.1-0.7-0.1-0.8v-0.2l-0.2-0.1c0.1-1.8,0.2-3.2,0.3-4.4c0.1-1.1,0.1-2,0.2-2.7
				c0.1-0.7,0.1-1.2,0.2-1.5c0.1-0.3,0.1-0.5,0.1-0.6c-0.1,0-0.2,0-0.3-0.1c-0.1-0.1-0.1-0.2-0.3-0.3l-0.2-0.3
				c-0.1,0-0.1-0.1-0.2-0.1c0-0.1-0.1-0.1-0.2-0.1c0-0.1-0.1-0.2-0.3-0.3c-0.2-0.1-0.3-0.2-0.4-0.2c-0.1,0-0.2,0-0.3-0.1
				c-0.1,0-0.1,0-0.1,0c0,0-0.1,0-0.1,0l-0.6,0.1c0,0-0.1,0-0.2-0.1c-0.1,0-0.1,0-0.2,0c-0.1,0-0.2,0-0.2,0c0,0-0.1,0-0.2,0
				c-0.1,0-0.2,0-0.3,0c-0.1,0.1-0.3,0.1-0.4,0.1h-2.6c0-0.1,0-0.2,0-0.4c0-0.1,0-0.3,0-0.4c0-0.1,0-0.2,0-0.3
				c-0.3,0.1-0.6,0.3-1.2,0.7c-0.5,0.3-0.9,0.4-1.1,0.4h-1.8c0.1,0.2,0.1,0.5,0.2,0.9c0.1,0.4,0.2,0.8,0.3,1.3
				c0.1,0.5,0.1,1.1,0.3,1.7c-0.1,0-0.2,0-0.3,0l-0.5,0.3c0,0.1,0.1,0.4,0.2,1c0.2,0.6,0.4,1.4,0.6,2.3c0.2,0.9,0.4,2,0.6,3.1
				c0.2,1.2,0.5,2.4,0.8,3.5c0.1,0.6,0.3,1.2,0.4,1.8c0,0.1,0,0.2,0.1,0.3c-0.1,0-0.1,0-0.2,0c-0.1,0-0.2,0-0.3,0
				c-0.1,0-0.2,0-0.3,0c-0.1,0-0.1,0.1-0.2,0.1c-0.2,0-0.5,0-0.7,0c-0.1,0-0.2,0-0.3,0c-0.1,0-0.2,0-0.3,0c-0.1,0-0.1,0.1-0.2,0.1
				c-0.4,0-0.9,0-1.3,0c-0.1,0-0.2,0-0.3,0c-0.1,0-0.2,0-0.3,0c-0.1,0-0.1,0.1-0.2,0.1c-0.2,0-0.5,0-0.7,0l-0.2-0.9c0,0,0,0,0,0
				c-0.3-1.4-0.6-2.6-0.9-3.9c-0.3-1.3-0.6-2.5-0.9-3.5c-0.2-1.1-0.4-1.9-0.6-2.5c-0.2-0.6-0.3-1-0.3-1H53c-0.3,0-0.6,0-0.9,0
				c-0.2,0-0.4,0-0.6,0c-0.3,0-0.4,0.1-0.6,0.2c-0.3,0.1-0.4,0.3-0.6,0.4c-0.1,0.2-0.3,0.4-0.3,0.5c-0.1,0.1-0.1,0.3-0.3,0.4
				c-0.1,0.1-0.2,0.2-0.3,0.3c-0.1,0.1-0.5,0.2-1,0.2c-0.6,0.1-1.3,0.1-1.9,0.1c-0.7,0-1.4,0-2.1,0c-0.6,0-1-0.1-1.2-0.2
				c-0.3-0.1-0.7-0.2-1.2-0.4c-0.5-0.2-0.8-0.4-1-0.6c-0.6,0.8-0.9,1.3-0.9,1.6c0.1,0.3,0.2,0.4,0.3,0.6c0.1,0.1,0.1,0.2,0.1,0.3
				h0.1l-0.5,0.5c0,0-0.1,0-0.1,0c-0.1,0-0.2,0-0.3,0c-0.1,0.1-0.2,0.3-0.4,0.6c-0.2,0.3-0.4,0.7-0.7,1.2c-0.2,0.5-0.4,0.9-0.6,1.3
				c-0.2,0.3-0.3,0.6-0.3,0.7V28c0.1,0.1,0.1,0.2-0.1,0.4c-0.2,0.2-0.6,0.2-1,0.2c-0.2-0.1-0.5-0.2-1-0.5c-0.5-0.3-1-0.6-1.6-0.9
				c-0.6-0.3-1.1-0.6-1.5-0.9c-0.5-0.4-0.8-0.6-0.8-0.8c0-0.1,0-0.3,0.1-0.5c0.1-0.1,0.2-0.5,0.6-1c0.3-0.5,0.7-1.3,1.2-2.4
				c0.6-1,1.4-2.4,2.4-4.1c0-0.3-0.1-0.7-0.3-1.4c-0.1-0.7-0.6-1.1-1.5-1.4l-1.8-0.7c-0.4-0.1-0.7-0.1-0.9-0.2
				C31.3,14,31,14,30.8,14c-0.3-0.1-0.6-0.1-0.9-0.1c-0.4-0.1-0.9-0.1-1.3-0.1c-0.5,0-0.9,0-1.3,0c-0.4,0-0.7,0-0.9,0.1L4.2,21.7
				H4.1c-0.1,0-0.2,0-0.5,0c-0.3,0.1-0.7,0.1-1,0.1c-0.3,0-0.7,0-1.1,0c-0.4-0.1-0.7-0.1-0.9-0.3c-0.2-0.2-0.3-0.4-0.3-0.6v-3
				c0-0.7,0-1.5,0-2.2c0-0.7-0.1-1.3-0.2-1.7v-2.1c0-0.3,0-0.6,0-0.9c-0.1-0.3-0.1-0.6-0.1-0.8C0,10,0,9.7,0,9.3
				C0,9,0.2,8.7,0.6,8.6c0,0,0.3-0.1,0.9-0.1c0.5,0,1.1,0,1.8,0c0.7,0,1.4,0,2.2,0c0.7,0,1.3,0,1.8,0h15.6c0.2-0.1,0.5-0.2,0.9-0.3
				c0.4-0.1,0.8-0.2,1.2-0.3c0.4-0.1,0.8-0.3,1.2-0.3c0.3-0.1,0.5-0.2,0.6-0.3l0.9-0.6c0.2-0.1,0.4-0.2,0.5-0.3
				c0.2,0,0.3-0.1,0.4-0.1C28.5,6,29.1,5.9,30,5.7c0.3,0,0.5,0,0.5-0.1c0.1,0,0.2,0,0.3-0.1c0.1-0.1,0.5-0.4,1.1-1
				c0.5-0.6,1-1.1,1.5-1.6c0.3-0.2,0.7-0.3,1.3-0.2c0.6,0.1,1,0.1,1.3,0.2c0.1,0,0.2,0,0.3,0c0.1,0,0.1,0,0.1,0c0.1,0,0.1,0,0.2,0
				C36.7,3,36.9,3.1,37,3.1h1l0.3,0.5v1.8h0.2V4.4h2.2V3.8h1.2v0.6h0.8V3.8h1.1v0.6h0.8V3.8h1.2v0.6h0.9V3.8h1.1v0.6h0.9V3.8h1.2
				v0.6h0.9V3.8h1.2v0.6h0.7V3.8h1.3v0.6h0.7V3.8h1.2v0.6H57v1.1h15.7c0.3-0.2,0.6-0.5,1.1-0.9c0.5-0.4,0.8-0.7,0.9-0.9
				c0-0.3,0-0.5,0-0.6c0-0.1,0-0.2,0-0.3c0.1-0.3,0.2-0.5,0.3-0.7c0.1-0.2,0.3-0.4,0.6-0.4h0.3c0.3-0.1,0.5-0.2,0.8-0.2
				c0.2,0,0.4,0.2,0.6,0.5c0.3,0.4,0.5,0.8,0.6,1.2C78,3.2,78.1,3.4,78.1,3.5z M56.3,5H39.1v0.5h17.2C56.3,5.4,56.3,5,56.3,5z
				 M42.6,19c0.2,0.2,0.5,0.3,0.8,0.3h4c0.3,0,0.5-0.1,0.9-0.3c0.2-0.2,0.3-0.4,0.3-0.6c0-0.4-0.1-0.8-0.3-1
				c-0.3-0.2-0.6-0.3-0.9-0.3h-4c-0.3,0-0.6,0.1-0.8,0.3c-0.3,0.2-0.4,0.6-0.4,1C42.1,18.6,42.3,18.8,42.6,19z M20.2,12.8
				c0-0.7-0.3-1.1-1-1.1h-1.9c-0.3,0-0.5,0.1-0.6,0.3c-0.2,0.2-0.3,0.5-0.3,0.8c0,0.2,0.1,0.4,0.3,0.6c0.2,0.2,0.4,0.3,0.6,0.3h1.9
				c0.3,0,0.6-0.1,0.8-0.3C20.1,13.2,20.2,13.1,20.2,12.8z M5.9,11c-0.5-0.1-0.9-0.1-1.4-0.2c-0.5,0-0.8,0-1-0.1c0,0.4,0,0.9,0,1.5
				c0.1,0.7,0.1,1.3,0.2,2c0,0.7,0,1.3,0.1,2c0,0.6,0,1,0,1.2c0.1,0.1,0.4,0.3,0.9,0.5c0.5,0.2,1,0.3,1.5,0.3c0.3,0,0.8-0.1,1.4-0.3
				c0.5-0.2,1.1-0.4,1.7-0.6c0.6-0.3,1.1-0.5,1.7-0.8c0.5-0.3,0.9-0.5,1.2-0.6c0.2-0.2,0.3-0.5,0.3-0.8c0-0.3-0.1-0.8-0.3-1.3
				c-0.2-0.5-0.3-1-0.5-1.4c-0.2,0-0.6-0.1-1.2-0.2c-0.5-0.1-1.2-0.3-1.9-0.5c-0.3-0.1-0.8-0.2-1.3-0.3C6.9,11.1,6.4,11,5.9,11z"/>
		</g>
	</g>
</g>
<g id="guides">
</g>
<g id="Flash_2_">
	<path fill="#FFFFFF" d="M113.1,11.7c0,2.2-0.8,4.2-2.4,5.8c-1.6,1.6-3.5,2.4-5.8,2.4c-2.2,0-4.2-0.8-5.8-2.4
		c-1.6-1.6-2.4-3.5-2.4-5.8c0-0.6,0.1-1.1,0.2-1.7c0.2-0.1,0.4-0.1,0.6-0.3c0.8-0.4,1.5-0.8,2.3-1.1c0.1,0,0.3-0.1,0.4-0.2
		c-0.7,1-1.1,2.1-1,3.4c0,1.6,0.6,3,1.7,4.1c1.1,1.1,2.5,1.7,4.1,1.7c1.6,0,3-0.6,4.1-1.7c1.1-1.1,1.7-2.5,1.7-4.1
		c0-1.6-0.5-2.9-1.6-4.1c0.7,0.2,1.4,0.4,2.1,0.8c0,0,0,0,0,0c0.4,0.2,0.8,0.4,1.2,0.5C113,10,113.1,10.8,113.1,11.7z"/>
	<path fill="#FFFFFF" d="M120.9,18.7c-0.7-1.1-1.5-2.2-2.4-3.2c-0.2,0.2-0.4,0.4-0.6,0.6c-3.8,3.8-8.4,5.7-13.8,5.7
		s-10-1.9-13.9-5.7l-0.1,0.1c0.7,1.1,1.6,2.1,2.5,3.1c3.8,3.8,8.4,5.7,13.9,5.7c5.4,0,10-1.9,13.8-5.7
		C120.6,19.1,120.8,18.9,120.9,18.7L120.9,18.7z"/>
	<path fill="#FFFFFF" d="M118.5,15.6c0.9,1,1.7,2.1,2.4,3.2c0.7-0.7,1.3-1.4,1.8-2.1c-0.6-1-1-1.6-2.4-3.2
		C119.8,14.1,119.2,14.9,118.5,15.6L118.5,15.6z"/>
	<polygon fill="#FF0000" points="109.2,13.3 106.9,14.5 106.5,17.1 104.7,15.2 102.1,15.7 103.3,13.3 102.1,11 104.7,11.4 
		106.5,9.6 106.9,12.2 	"/>
	<path fill="#FFFFFF" d="M118,15c0.2,0.2,0.4,0.4,0.6,0.6c0.6-0.7,1.2-1.4,1.8-2.2c-0.2-0.2-0.4-0.4-0.6-0.6
		c-3.8-3.8-8.4-5.7-13.8-5.7c-5.4,0-10,1.9-13.9,5.7c-0.8,0.9-1.6,1.8-2.3,2.7l0.1,0.1c0.1-0.2,0.3-0.4,0.5-0.5
		c3.8-3.8,8.4-5.7,13.9-5.7S114.1,11.2,118,15L118,15z"/>
</g>
<path fill="#FFFFFF" d="M130,19.6c0,0,0.2,2.6,2.7,4.1c0.5,0.3,1.3,0.8,1.7,1c1.9,1.2,2.9,0.9,4.1,0.8c2.3-0.2,6.9-3,7.4-5.6
	c0.5-2.6-0.8-5-2.4-5.4c-1.6-0.4-3.1,0.3-3.5,1.8c-0.5,1.5,1,2.2,1,2.2c-1.6,0.3-2.2-1.3-1.8-2.7c0.3-1.4,1.8-3.1,4.7-2.5
	c2.9,0.7,3.4,3.3,3.4,3.3c1-1.8,3.3-2.8,6-1.8s1.8,3.2,1.8,3.2c-0.1-1.6-1.4-2.3-3.3-2.7c-1.8-0.3-3.6,0.5-4.2,3.2
	c-0.5,2.7,0.8,6.2,3.8,7c3.1,0.8,7.7-0.1,9.5-3.6c1.8-3.5,1.8-9.8-2.9-13.2s-9.3,0.1-9.3,0.1s-0.4-3.8-5.4-4c-5-0.3-5.7,5.3-5.7,5.3
	c-0.5-2.7-5.2,0.3-6.6,2.7c-1,1.7-1.6,4.3-1,6.1C129.9,19.1,130,19.5,130,19.6z"/>
</svg>
