<?xml version="1.0" encoding="utf-8"?>
<!-- Generator: Adobe Illustrator 21.0.2, SVG Export Plug-In . SVG Version: 6.00 Build 0)  -->
<svg version="1.1" id="Слой_1" xmlns="http://www.w3.org/2000/svg" xmlns:xlink="http://www.w3.org/1999/xlink" x="0px" y="0px"
	 width="146.8px" height="32px" viewBox="0 0 146.8 32" enable-background="new 0 0 146.8 32" xml:space="preserve">
<g id="Selected_Items">
	<g>
		<g id="Selected_Items_52_">
			<path fill="#FFFFFF" d="M69,6.6c0,0.7,0,1.3-0.1,1.7c0,0.3-0.1,0.6-0.3,0.9c-0.1,0.1-0.1,0.3-0.2,0.4H54.5l-0.2-0.1l-0.3,0.1
				H43.4l-0.3,0.2l-0.4-0.1h-4.5V8.8h-1.5V8.2h-0.9v1.6L36,9.9v0.8l-0.2,0.2l-0.1,1.5H25.6c-0.1,0-0.1,0-0.2,0.1
				c-0.1,0.1-0.3,0.3-0.4,0.5c-0.1,0.3-0.7,1.8-1.8,4.4c-0.2,0.3-0.3,0.4-0.4,0.5c-0.1,0.1-0.3,0.1-0.7,0.1l-4.6,0.2
				c-0.2-0.1-0.4-0.2-0.7-0.3c-0.5-0.2-0.9-0.3-1.2-0.4c-0.3-0.1-0.6-0.1-0.7-0.1c-0.1,0-0.3,0.1-0.7,0.1c-0.3,0.1-0.5,0.1-0.8,0.1
				l-0.3-0.1l-2.3,9.6l-0.1,1.1l0.5,0.7l-9.6-0.1c0-0.6,0-1.3,0.1-2.2c0.2-1.8,0.5-3.5,0.8-5.1c0.4-1.6,1-3.2,1.6-4.6
				c0-0.1,0.2-0.5,0.6-1.3c0.2-0.4,0.3-0.7,0.3-0.8c0.1-0.4,0-0.6-0.2-0.8c-0.2-0.2-0.6-0.4-1.2-0.6c-0.6-0.2-1-0.3-1.2-0.4
				c-0.2-0.1-0.4-0.2-0.4-0.4c0-0.2,0-0.6,0-1L2.4,11l-1.7-0.2c-0.1,0-0.2,0-0.3-0.1c-0.2-0.1-0.3-0.3-0.3-0.6
				c0.1-0.3,0.3-0.4,0.6-0.4c0.2,0,0.3,0,0.5,0l0.2-1.2l1.3,0.8l0.6-2.9l0.9-1.8V4l0.7,0.4l2.9,0l0.3,0.2h9.7v0.2h5.4V4.7h9.4V3.5
				h2.2l0.3,0.3v0.8l0.3,0L35.8,5v0.7h0.9V5.1h1.3V3.8h4.6L43,3.6l0.4,0.2h10.7l0.3,0l0.3-0.1h13.7L68.6,4c0.1,0.3,0.2,0.6,0.3,0.9
				C68.9,5.4,68.9,5.9,69,6.6z M23,12.5l-5.1,0c-0.5,0.5-0.9,0.9-1.1,1.1c-0.3,0.4-0.5,0.7-0.5,0.7c-0.2,0.3-0.3,0.7-0.4,1.1
				c0,0.2,0,0.5,0.1,0.9c0.1,0.2,0.1,0.3,0.2,0.4L15.9,17c-0.1-0.2-0.3-0.5-0.4-0.8c-0.2-0.5-0.3-1-0.3-1.3c0.1-0.6,0.3-1.1,0.7-1.6
				c0.1-0.2,0.3-0.4,0.5-0.6c-0.2,0-0.4,0.1-0.7,0.2c-0.5,0.2-0.9,0.4-1.2,0.6c-0.3,0.4-0.5,0.7-0.6,1.2c-0.1,0.4-0.1,0.9,0.1,1.2
				c0.2,0.4,0.4,0.7,0.8,0.9c0.3,0.2,0.7,0.4,1.2,0.5c0.3,0,0.7,0,1.3,0c0.5,0,0.8,0,1,0.1c0.2,0.1,0.9,0.1,2.2,0.1
				c1.2,0,1.8-0.1,2-0.1c0.1-0.1,0.4-0.8,0.9-2l0.7-1.9c0-0.1,0-0.2,0-0.3c0-0.2,0-0.3-0.1-0.4c-0.1-0.1-0.3-0.2-0.5-0.3L23,12.5z"
				/>
		</g>
	</g>
</g>
<g id="guides">
</g>
<g id="Flash_2_">
	<path fill="#FFFFFF" d="M97.6,12.2c0,2.2-0.8,4.2-2.4,5.8c-1.6,1.6-3.5,2.4-5.8,2.4c-2.2,0-4.2-0.8-5.8-2.4
		c-1.6-1.6-2.4-3.5-2.4-5.8c0-0.6,0.1-1.1,0.2-1.7c0.2-0.1,0.4-0.1,0.6-0.3c0.8-0.4,1.5-0.8,2.3-1.1c0.1,0,0.3-0.1,0.4-0.2
		c-0.7,1-1.1,2.1-1,3.4c0,1.6,0.6,3,1.7,4.1c1.1,1.1,2.5,1.7,4.1,1.7c1.6,0,3-0.6,4.1-1.7c1.1-1.1,1.7-2.5,1.7-4.1
		c0-1.6-0.5-2.9-1.6-4.1c0.7,0.2,1.4,0.4,2.1,0.8c0,0,0,0,0,0c0.4,0.2,0.8,0.4,1.2,0.5C97.5,10.5,97.6,11.3,97.6,12.2z"/>
	<path fill="#FFFFFF" d="M105.4,19.3c-0.7-1.1-1.5-2.2-2.4-3.2c-0.2,0.2-0.4,0.4-0.6,0.6c-3.8,3.8-8.4,5.7-13.8,5.7
		s-10-1.9-13.9-5.7l-0.1,0.1c0.7,1.1,1.6,2.1,2.5,3.1c3.8,3.8,8.4,5.7,13.9,5.7c5.4,0,10-1.9,13.8-5.7
		C105.1,19.6,105.3,19.5,105.4,19.3L105.4,19.3z"/>
	<path fill="#FFFFFF" d="M103,16.1c0.9,1,1.7,2.1,2.4,3.2c0.7-0.7,1.3-1.4,1.8-2.1c-0.6-1-1-1.6-2.4-3.2
		C104.3,14.7,103.7,15.4,103,16.1L103,16.1z"/>
	<polygon fill="#FF0000" points="93.7,13.9 91.4,15 91,17.6 89.2,15.7 86.6,16.2 87.8,13.9 86.6,11.5 89.2,12 91,10.1 91.4,12.7 	
		"/>
	<path fill="#FFFFFF" d="M102.5,15.5c0.2,0.2,0.4,0.4,0.6,0.6c0.6-0.7,1.2-1.4,1.8-2.2c-0.2-0.2-0.4-0.4-0.6-0.6
		c-3.8-3.8-8.4-5.7-13.8-5.7c-5.4,0-10,1.9-13.9,5.7c-0.8,0.9-1.6,1.8-2.3,2.7l0.1,0.1c0.1-0.2,0.3-0.4,0.5-0.5
		c3.8-3.8,8.4-5.7,13.9-5.7S98.6,11.7,102.5,15.5L102.5,15.5z"/>
</g>
<path fill="#FFFFFF" d="M114.5,20.1c0,0,0.2,2.6,2.7,4.1c0.5,0.3,1.3,0.8,1.7,1c1.9,1.2,2.9,0.9,4.1,0.8c2.3-0.2,6.9-3,7.4-5.6
	c0.5-2.6-0.8-5-2.4-5.4c-1.6-0.4-3.1,0.3-3.5,1.8c-0.5,1.5,1,2.2,1,2.2c-1.6,0.3-2.2-1.3-1.8-2.7c0.3-1.4,1.8-3.1,4.7-2.5
	c2.9,0.7,3.4,3.3,3.4,3.3c1-1.8,3.3-2.8,6-1.8s1.8,3.2,1.8,3.2c-0.1-1.6-1.4-2.3-3.3-2.7c-1.8-0.3-3.6,0.5-4.2,3.2
	c-0.5,2.7,0.8,6.2,3.8,7c3.1,0.8,7.7-0.1,9.5-3.6c1.8-3.5,1.8-9.8-2.9-13.2s-9.3,0.1-9.3,0.1s-0.4-3.8-5.4-4c-5-0.3-5.7,5.3-5.7,5.3
	c-0.5-2.7-5.2,0.3-6.6,2.7c-1,1.7-1.6,4.3-1,6.1C114.4,19.7,114.5,20.1,114.5,20.1z"/>
</svg>
