<?xml version="1.0" encoding="utf-8"?>
<!-- Generator: Adobe Illustrator 21.0.2, SVG Export Plug-In . SVG Version: 6.00 Build 0)  -->
<svg version="1.1" id="Layer_1" xmlns="http://www.w3.org/2000/svg" xmlns:xlink="http://www.w3.org/1999/xlink" x="0px" y="0px"
	 width="75.1px" height="32px" viewBox="0 0 75.1 32" enable-background="new 0 0 75.1 32" xml:space="preserve">
<g id="Selected_Items">
	<g>
		<g id="Selected_Items_52_">
			<path fill="#FFFFFF" d="M38.2,7.9h-0.9v1.6l0.2,0.2v0.8l-0.2,0.2l-0.1,1.5H27c-0.1,0-0.1,0-0.2,0.1c-0.1,0.1-0.3,0.3-0.4,0.5
				c-0.1,0.3-0.7,1.8-1.8,4.4c-0.2,0.3-0.3,0.4-0.4,0.5c-0.1,0.1-0.3,0.1-0.7,0.1l-4.6,0.2c-0.2-0.1-0.4-0.2-0.7-0.3
				c-0.5-0.2-0.9-0.3-1.2-0.4c-0.3-0.1-0.5-0.1-0.7-0.1c-0.1,0-0.3,0.1-0.7,0.1c-0.3,0.1-0.5,0.1-0.8,0.1l-0.3-0.1l-2.3,9.6L12.3,28
				l0.5,0.7l-9.6-0.1c0-0.6,0-1.3,0.1-2.2c0.2-1.8,0.5-3.5,0.8-5.1c0.4-1.6,1-3.2,1.6-4.6c0-0.1,0.2-0.5,0.6-1.3
				c0.2-0.4,0.3-0.7,0.3-0.8c0.1-0.4,0-0.6-0.2-0.8c-0.2-0.2-0.6-0.4-1.2-0.6c-0.6-0.2-1-0.3-1.2-0.4c-0.2-0.1-0.4-0.2-0.4-0.4
				c0-0.2,0-0.6,0-1l0.1-0.7l-1.7-0.2c-0.1,0-0.2,0-0.3-0.1c-0.2-0.1-0.3-0.3-0.3-0.6c0.1-0.3,0.3-0.4,0.6-0.4c0.2,0,0.3,0,0.5,0
				l0.2-1.2l1.3,0.8l0.6-2.9l0.9-1.8V3.8l0.7,0.4l2.9,0l0.3,0.2h9.7v0.2h5.4V4.5h9.4V3.3h2.2l0.3,0.3v0.8l0.3,0l0.3,0.4v0.7h0.9
				 M24.4,12.2l-5.1,0c-0.5,0.5-0.9,0.9-1.1,1.1c-0.3,0.4-0.5,0.7-0.5,0.7c-0.2,0.3-0.3,0.7-0.4,1.1c0,0.2,0,0.5,0.1,0.9
				c0.1,0.2,0.1,0.3,0.2,0.4l-0.3,0.2c-0.1-0.2-0.3-0.5-0.4-0.8c-0.2-0.5-0.3-1-0.3-1.3c0.1-0.6,0.3-1.1,0.7-1.6
				c0.1-0.2,0.3-0.4,0.5-0.6c-0.2,0-0.4,0.1-0.7,0.2c-0.5,0.2-0.9,0.4-1.2,0.6c-0.3,0.4-0.5,0.7-0.6,1.2c-0.1,0.4-0.1,0.9,0.1,1.2
				c0.2,0.4,0.4,0.7,0.8,0.9c0.3,0.2,0.7,0.4,1.2,0.5c0.3,0,0.7,0,1.3,0c0.5,0,0.8,0,1,0.1c0.2,0.1,0.9,0.1,2.2,0.1
				c1.2,0,1.8-0.1,2-0.1c0.1-0.1,0.4-0.8,0.9-2l0.7-1.9c0-0.1,0-0.2,0-0.3c0-0.2,0-0.3-0.1-0.4c-0.1-0.1-0.3-0.2-0.5-0.3L24.4,12.2z
				"/>
		</g>
	</g>
</g>
<g id="guides">
</g>
<path fill="#FFFFFF" d="M43.1,19.4c0,0,0.2,2.6,2.7,4.1c0.5,0.3,1.3,0.8,1.7,1c1.9,1.2,2.9,0.9,4.1,0.8c2.3-0.2,6.9-3,7.4-5.6
	c0.5-2.6-0.8-5-2.4-5.4C55,14,53.5,14.7,53,16.2c-0.5,1.5,1,2.2,1,2.2c-1.6,0.3-2.2-1.3-1.8-2.7c0.3-1.4,1.8-3.1,4.7-2.5
	c2.9,0.7,3.4,3.3,3.4,3.3c1-1.8,3.3-2.8,6-1.8C69,15.8,68,18,68,18c-0.1-1.6-1.4-2.3-3.3-2.7c-1.8-0.3-3.6,0.5-4.2,3.2
	c-0.5,2.7,0.8,6.2,3.8,7c3.1,0.8,7.7-0.1,9.5-3.6c1.8-3.5,1.8-9.8-2.9-13.2s-9.3,0.1-9.3,0.1s-0.4-3.8-5.4-4c-5-0.3-5.7,5.3-5.7,5.3
	c-0.5-2.7-5.2,0.3-6.6,2.7c-1,1.7-1.6,4.3-1,6.1C43,18.9,43,19.3,43.1,19.4z"/>
</svg>
