<?xml version="1.0" encoding="utf-8"?>
<!-- Generator: Adobe Illustrator 21.0.2, SVG Export Plug-In . SVG Version: 6.00 Build 0)  -->
<svg version="1.1" id="Layer_1" xmlns="http://www.w3.org/2000/svg" xmlns:xlink="http://www.w3.org/1999/xlink" x="0px" y="0px"
	 width="114.9px" height="32px" viewBox="0 0 114.9 32" enable-background="new 0 0 114.9 32" xml:space="preserve">
<g id="Selected_Items">
	<g>
		<g id="Selected_Items_52_">
			<path fill="#FFFFFF" d="M38.2,7.9h-0.9v1.6l0.2,0.2v0.8l-0.2,0.2l-0.1,1.5H27c-0.1,0-0.1,0-0.2,0.1c-0.1,0.1-0.3,0.3-0.4,0.5
				c-0.1,0.3-0.7,1.8-1.8,4.4c-0.2,0.3-0.3,0.4-0.4,0.5c-0.1,0.1-0.3,0.1-0.7,0.1l-4.6,0.2c-0.2-0.1-0.4-0.2-0.7-0.3
				c-0.5-0.2-0.9-0.3-1.2-0.4c-0.3-0.1-0.5-0.1-0.7-0.1c-0.1,0-0.3,0.1-0.7,0.1c-0.3,0.1-0.5,0.1-0.8,0.1l-0.3-0.1l-2.3,9.6L12.3,28
				l0.5,0.7l-9.6-0.1c0-0.6,0-1.3,0.1-2.2c0.2-1.8,0.5-3.5,0.8-5.1c0.4-1.6,1-3.2,1.6-4.6c0-0.1,0.2-0.5,0.6-1.3
				c0.2-0.4,0.3-0.7,0.3-0.8c0.1-0.4,0-0.6-0.2-0.8c-0.2-0.2-0.6-0.4-1.2-0.6c-0.6-0.2-1-0.3-1.2-0.4c-0.2-0.1-0.4-0.2-0.4-0.4
				c0-0.2,0-0.6,0-1l0.1-0.7l-1.7-0.2c-0.1,0-0.2,0-0.3-0.1c-0.2-0.1-0.3-0.3-0.3-0.6c0.1-0.3,0.3-0.4,0.6-0.4c0.2,0,0.3,0,0.5,0
				l0.2-1.2l1.3,0.8l0.6-2.9l0.9-1.8V3.8l0.7,0.4l2.9,0l0.3,0.2h9.7v0.2h5.4V4.5h9.4V3.3h2.2l0.3,0.3v0.8l0.3,0l0.3,0.4v0.7h0.9
				 M24.4,12.2l-5.1,0c-0.5,0.5-0.9,0.9-1.1,1.1c-0.3,0.4-0.5,0.7-0.5,0.7c-0.2,0.3-0.3,0.7-0.4,1.1c0,0.2,0,0.5,0.1,0.9
				c0.1,0.2,0.1,0.3,0.2,0.4l-0.3,0.2c-0.1-0.2-0.3-0.5-0.4-0.8c-0.2-0.5-0.3-1-0.3-1.3c0.1-0.6,0.3-1.1,0.7-1.6
				c0.1-0.2,0.3-0.4,0.5-0.6c-0.2,0-0.4,0.1-0.7,0.2c-0.5,0.2-0.9,0.4-1.2,0.6c-0.3,0.4-0.5,0.7-0.6,1.2c-0.1,0.4-0.1,0.9,0.1,1.2
				c0.2,0.4,0.4,0.7,0.8,0.9c0.3,0.2,0.7,0.4,1.2,0.5c0.3,0,0.7,0,1.3,0c0.5,0,0.8,0,1,0.1c0.2,0.1,0.9,0.1,2.2,0.1
				c1.2,0,1.8-0.1,2-0.1c0.1-0.1,0.4-0.8,0.9-2l0.7-1.9c0-0.1,0-0.2,0-0.3c0-0.2,0-0.3-0.1-0.4c-0.1-0.1-0.3-0.2-0.5-0.3L24.4,12.2z
				"/>
		</g>
	</g>
</g>
<g id="guides">
</g>
<g id="Flash_2_">
	<path fill="#FFFFFF" d="M65.9,11.5c0,2.2-0.8,4.2-2.4,5.8c-1.6,1.6-3.5,2.4-5.8,2.4c-2.2,0-4.2-0.8-5.8-2.4
		c-1.6-1.6-2.4-3.5-2.4-5.8c0-0.6,0.1-1.1,0.2-1.7c0.2-0.1,0.4-0.1,0.6-0.3c0.8-0.4,1.5-0.8,2.3-1.1c0.1,0,0.3-0.1,0.4-0.2
		c-0.7,1-1.1,2.1-1,3.4c0,1.6,0.6,3,1.7,4.1c1.1,1.1,2.5,1.7,4.1,1.7c1.6,0,3-0.6,4.1-1.7c1.1-1.1,1.7-2.5,1.7-4.1
		c0-1.6-0.5-2.9-1.6-4.1c0.7,0.2,1.4,0.4,2.1,0.8c0,0,0,0,0,0c0.4,0.2,0.8,0.4,1.2,0.5C65.8,9.7,65.9,10.6,65.9,11.5z"/>
	<path fill="#FFFFFF" d="M73.7,18.5c-0.7-1.1-1.5-2.2-2.4-3.2c-0.2,0.2-0.4,0.4-0.6,0.6c-3.8,3.8-8.4,5.7-13.8,5.7
		c-5.4,0-10-1.9-13.9-5.7L43,16c0.7,1.1,1.6,2.1,2.5,3.1c3.8,3.8,8.4,5.7,13.9,5.7s10-1.9,13.8-5.7C73.4,18.9,73.5,18.7,73.7,18.5
		L73.7,18.5z"/>
	<path fill="#FFFFFF" d="M71.3,15.4c0.9,1,1.7,2.1,2.4,3.2c0.7-0.7,1.3-1.4,1.8-2.1c-0.6-1-1-1.6-2.4-3.2
		C72.5,13.9,71.9,14.7,71.3,15.4L71.3,15.4z"/>
	<polygon fill="#FF0000" points="62,13.1 59.6,14.3 59.3,16.9 57.4,15 54.8,15.4 56,13.1 54.8,10.8 57.4,11.2 59.3,9.3 59.6,11.9 	
		"/>
	<path fill="#FFFFFF" d="M70.7,14.8c0.2,0.2,0.4,0.4,0.6,0.6c0.6-0.7,1.2-1.4,1.8-2.2c-0.2-0.2-0.4-0.4-0.6-0.6
		C68.6,8.7,64,6.8,58.6,6.8c-5.4,0-10,1.9-13.9,5.7c-0.8,0.9-1.6,1.8-2.3,2.7l0.1,0.1c0.1-0.2,0.3-0.4,0.5-0.5
		c3.8-3.8,8.4-5.7,13.9-5.7S66.9,11,70.7,14.8L70.7,14.8z"/>
</g>
<path fill="#FFFFFF" d="M82.7,19.4c0,0,0.2,2.6,2.7,4.1c0.5,0.3,1.3,0.8,1.7,1c1.9,1.2,2.9,0.9,4.1,0.8c2.3-0.2,6.9-3,7.4-5.6
	c0.5-2.6-0.8-5-2.4-5.4c-1.6-0.4-3.1,0.3-3.5,1.8c-0.5,1.5,1,2.2,1,2.2c-1.6,0.3-2.2-1.3-1.8-2.7c0.3-1.4,1.8-3.1,4.7-2.5
	c2.9,0.7,3.4,3.3,3.4,3.3c1-1.8,3.3-2.8,6-1.8s1.8,3.2,1.8,3.2c-0.1-1.6-1.4-2.3-3.3-2.7c-1.8-0.3-3.6,0.5-4.2,3.2
	c-0.5,2.7,0.8,6.2,3.8,7c3.1,0.8,7.7-0.1,9.5-3.6c1.8-3.5,1.8-9.8-2.9-13.2s-9.3,0.1-9.3,0.1s-0.4-3.8-5.4-4c-5-0.3-5.7,5.3-5.7,5.3
	c-0.5-2.7-5.2,0.3-6.6,2.7c-1,1.7-1.6,4.3-1,6.1C82.6,18.9,82.7,19.3,82.7,19.4z"/>
</svg>
