<?xml version="1.0" encoding="utf-8"?>
<!-- Generator: Adobe Illustrator 21.0.2, SVG Export Plug-In . SVG Version: 6.00 Build 0)  -->
<svg version="1.1" id="Слой_1" xmlns="http://www.w3.org/2000/svg" xmlns:xlink="http://www.w3.org/1999/xlink" x="0px" y="0px"
	 width="135.5px" height="32px" viewBox="0 0 135.5 32" enable-background="new 0 0 135.5 32" xml:space="preserve">
<g id="Selected_Items">
	<g>
		<g id="Selected_Items_53_">
			<path fill="#FFFFFF" d="M97.6,8.7c0,0.3,0,0.5,0,0.8c0,0.4-0.1,0.6-0.2,0.8c-0.2,0.2-0.5,0.3-1.1,0.3c-0.6,0-1.2,0-1.8,0V11h0.1
				c0.1,0,0.1,0.1,0.1,0.2c0.2,0,0.5,0,0.9-0.1c0.5,0,0.8,0,1.1,0.2c0.2,0.1,0.4,0.3,0.5,0.8c0.1,0.4,0.2,0.8,0.1,1.2
				c-0.2,0.5-0.6,0.9-1.2,1.1H71.7c-0.1,0-0.5,0.1-1.2,0.4c-0.7,0.2-1.7,0.3-3.1,0.3H67c-0.7,0-1.7,0-2.9,0c-1.2,0-2.6,0-4,0
				c-1.5,0-3,0.1-4.5,0.1c-1.5,0-2.9,0-4.3,0c-1.3,0-2.4,0-3.2,0c-0.9,0-1.4,0-1.5-0.1c-0.3-0.1-0.5-0.2-0.8-0.2c-0.3,0-0.5,0-0.8,0
				h-1.2c-0.2-0.1-0.4-0.1-0.8-0.1c-0.4,0-0.8,0-1.3-0.1c-0.4,0-0.8,0-1.1,0c-0.3,0-0.5,0-0.7,0c-0.2,0-0.4,0.1-0.6,0.3
				c-0.6,0.4-1,0.6-1.2,0.6c-0.1,0-0.3-0.1-0.5-0.2c-0.2-0.1-0.5-0.1-0.9-0.2c-0.3-0.1-0.7-0.2-1.2-0.2c-0.4-0.1-0.7-0.1-0.8-0.1
				c-0.2,0-0.7,0-1.3,0c-0.6,0-1,0.2-1.2,0.3c-0.1,0-0.3,0.2-0.5,0.6c-0.3,0.3-0.5,0.6-0.9,0.9c-0.3,0.3-0.7,0.6-1,0.6h-0.6
				c-0.2,0.1-0.3,0.2-0.4,0.2c-0.1,0-0.1,0-0.2,0c-0.2,0-0.5,0-1,0c-0.5,0-0.9,0-1.4,0.1c-0.5,0-1,0.1-1.4,0.1
				c-0.4,0.1-0.7,0.2-0.8,0.3c-0.1,0-0.2,0.3-0.3,0.7c-0.2,0.4-0.4,0.9-0.7,1.5c-0.3,0.6-0.6,1.2-0.9,1.9c-0.3,0.6-0.6,1.2-0.9,1.8
				c0,0.5,0,0.8,0.1,1c0,0.2,0.1,0.3,0.1,0.4l0.2,0.2c0,0.1,0.1,0.2,0.3,0.3c0.1,0.1,0.2,0.2,0.2,0.4l-0.1,0.2
				c-0.1,0.1-0.3,0.1-0.5,0.1c-0.3,0-0.5,0.1-0.7,0.1c-0.3,0-0.6,0-0.9-0.1c-0.4-0.1-0.9-0.2-1.4-0.3c-0.6-0.1-1.1-0.2-1.6-0.3
				c-0.5-0.2-0.9-0.3-1.3-0.4c-0.4-0.1-0.7-0.2-0.7-0.3l-0.1-0.1v0h0c-0.1-0.1-0.2-0.3-0.2-0.5v-0.2c0-0.1,0.2-0.4,0.6-1
				c0.3-0.6,0.7-1.3,1.1-2c0.4-0.7,0.8-1.4,1.1-2.1c0.3-0.6,0.5-1,0.5-1.1c0-0.2,0-0.4,0-0.7c0-0.3-0.1-0.5-0.3-0.6
				c-0.3-0.1-0.7-0.2-1.1-0.2c-0.4-0.1-0.8-0.1-1,0c-0.5,0-0.7,0-0.7-0.1h-0.1c0-0.1,0-0.2,0-0.3c0-0.1,0-0.2,0-0.2
				c0,0,0.1-0.1,0.1-0.1c-0.1,0-0.5,0.1-1.3,0.2c-0.8,0.1-1.6,0.3-2.4,0.5c-0.8,0.2-1.6,0.4-2.3,0.6c-0.7,0.2-1.1,0.2-1.1,0.2
				c-0.1,0-0.2,0.1-0.3,0.3c-0.1,0.2-0.3,0.4-0.5,0.7c-0.2,0.2-0.3,0.4-0.4,0.7C6,19.3,5.9,19.6,5.8,20c-0.1,0.3-0.3,0.5-0.3,0.8
				c-0.1,0.2-0.2,0.4-0.2,0.4c-0.1,0-0.2,0.1-0.5,0.4c-0.2,0.1-0.6,0.3-1.2,0.6c-0.6,0.3-1.4,0.6-2.4,1H0.9l-0.7-0.2L0,10l5.3-0.8
				c0.2,0,0.3-0.1,0.4-0.1C5.9,9,6,8.9,6,8.8c0.1-0.1,0.2-0.2,0.2-0.3l17.5-1.6v0.2c0.1,0.2,0.2,0.3,0.3,0.5
				c0.1,0.1,0.2,0.2,0.3,0.2c0,0.1,0.1,0.1,0.1,0.1c0.1,0,0.1,0,0.2-0.1l0.2-0.2V7.1h0.1c0.5-0.8,0.9-1.3,1.1-1.6V5.5h0.1
				c0,0,0.1-0.1,0.1-0.1c0,0,0,0,0,0c0.4,0,0.7,0,1,0c0,0,0.1,0.1,0.1,0.1h0.2v0.3C27.9,5.9,28.1,6,28.3,6l0.3,0.2h1.1
				c0.4,0,0.7,0,0.9,0.1c0.2,0,0.3,0.1,0.3,0.3c0.1,0,0.2,0.2,0.2,0.6v0.3c0,0,0.1,0,0.1,0c0,0,0.1,0.1,0.1,0.1l0.1,0V6.5h12.2V5.9
				h0.7v0.7h1.8v0.2c0,0.2,0,0.5,0.1,0.7c0.1,0.2,0.2,0.3,0.2,0.3h45c0.1-0.1,0.3-0.2,0.5-0.4c0.2-0.2,0.2-0.4,0.2-0.6l0.1-0.4
				c0-0.2,0-0.4,0.1-0.7c0.1-0.3,0.3-0.4,0.4-0.4c0.1,0,0.4,0.1,0.8,0.3C94,5.8,94.4,6,94.8,6.2c0.4,0.2,0.7,0.5,1,0.7
				c0.3,0.3,0.5,0.5,0.5,0.7c0.1,0.1,0.2,0.2,0.2,0.2c0.1,0,0.1,0,0.1,0.1c0.1,0,0.1,0,0.2,0H97l0.6,0.2L97.6,8.7L97.6,8.7z
				 M92,10.7H91l-0.2-0.2H71.7c-0.3,0.2-0.4,0.4-0.4,0.6v0.2c0.3,0,1.1,0.1,2.5,0.1c1.4,0,3.2,0,5.2,0c2.1,0,4.2-0.1,6.5-0.1
				c2.4,0,4.5-0.1,6.4-0.1h0.5C92.3,10.8,92.2,10.7,92,10.7z M28.2,5.9C28.2,5.9,28.2,5.9,28.2,5.9c0.1,0,0.1,0,0.1,0c0,0,0,0,0,0
				L28.2,5.9C28.2,6,28.2,5.9,28.2,5.9z M29.5,15.5c0-0.4-0.1-0.7-0.2-0.9c-0.2-0.2-0.4-0.3-0.8-0.3H26c-0.3,0-0.6,0.1-0.8,0.3
				c-0.2,0.2-0.3,0.5-0.3,0.9c0,0.3,0.1,0.5,0.3,0.7c0.2,0.2,0.5,0.3,0.8,0.3h2.5c0.3,0,0.6-0.1,0.8-0.3
				C29.4,15.9,29.5,15.7,29.5,15.5z M25.6,6C25.6,6,25.6,6,25.6,6l0.1,0v0H25.6z"/>
		</g>
	</g>
</g>
<g id="guides">
</g>
<path fill="#FFFFFF" d="M103.3,19.6c0,0,0.2,2.6,2.7,4.1c0.5,0.3,1.3,0.8,1.7,1c1.9,1.2,2.9,0.9,4.1,0.8c2.3-0.2,6.9-3,7.4-5.6
	c0.5-2.6-0.8-5-2.4-5.4c-1.6-0.4-3.1,0.3-3.5,1.8c-0.5,1.5,1,2.2,1,2.2c-1.6,0.3-2.2-1.3-1.8-2.7c0.3-1.4,1.8-3.1,4.7-2.5
	c2.9,0.7,3.4,3.3,3.4,3.3c1-1.8,3.3-2.8,6-1.8c2.7,1,1.8,3.2,1.8,3.2c-0.1-1.6-1.4-2.3-3.3-2.7c-1.8-0.3-3.6,0.5-4.2,3.2
	c-0.5,2.7,0.8,6.2,3.8,7c3.1,0.8,7.7-0.1,9.5-3.6c1.8-3.5,1.8-9.8-2.9-13.2c-4.7-3.4-9.3,0.1-9.3,0.1s-0.4-3.8-5.4-4
	c-5-0.3-5.7,5.3-5.7,5.3c-0.5-2.7-5.2,0.3-6.6,2.7c-1,1.7-1.6,4.3-1,6.1C103.3,19.2,103.3,19.6,103.3,19.6z"/>
</svg>
